<svg xmlns="http://www.w3.org/2000/svg"  viewBox="0 0 48 48" width="500px" height="500px"><path fill="#283593" d="M4,24c0,6.124,2.759,11.597,7.094,15.266h25.811C41.241,35.597,44,30.124,44,24 c0-6.107-2.745-11.566-7.059-15.234H11.059C6.745,12.434,4,17.893,4,24z"/><circle cx="24" cy="24" r="11" fill="#fff"/><path fill="#43a047" d="M23.652,14.195c-0.199,0.001-0.42,0.098-0.648,0.341l0,0c0.546-0.16,0.786,0.202,1.014,0.433 c-0.675,0.001-1.332,0.077-1.965,0.219c-0.211-0.466-0.957-1.034-1.536-0.175c0.528-0.249,0.825,0.096,1.091,0.287 c-0.546,0.152-1.071,0.354-1.57,0.601c-0.001-0.004-0.003-0.008-0.005-0.012c-0.218-0.416-1.351-0.923-1.617,0.225 c0.558-0.579,1.113,0.062,1.445-0.123c-0.508,0.265-0.988,0.578-1.433,0.931c-0.002-0.003-0.004-0.007-0.007-0.01 c-0.303-0.359-1.519-0.614-1.53,0.565c0.411-0.671,1.073-0.199,1.366-0.416c-0.477,0.397-0.912,0.843-1.298,1.33 c-0.007-0.007-0.014-0.017-0.021-0.024c-0.337-0.328-1.574-0.459-1.466,0.714c0.351-0.728,1.088-0.279,1.34-0.569 c-0.038,0.044-0.059,0.1-0.07,0.163c-0.356,0.486-0.664,1.009-0.918,1.563c-0.417-0.223-1.637-0.016-1.214,1.082l0,0 c0.139-0.795,0.971-0.562,1.134-0.908c-0.001,0.004-0.002,0.007-0.004,0.011c-0.251,0.58-0.441,1.192-0.566,1.827 c-0.513,0.012-1.349,0.498-0.743,1.358c-0.043-0.58,0.392-0.729,0.667-0.907c-0.061,0.423-0.092,0.855-0.092,1.294 c0,0.131,0.004,0.26,0.009,0.389c-0.463,0.201-1.071,1.043-0.111,1.567c-0.271-0.459-0.023-0.769,0.149-1.033 c0.058,0.571,0.17,1.126,0.329,1.661c-0.433,0.279-0.876,1.06,0.036,1.518c-0.29-0.455-0.045-0.775,0.119-1.047 c0.197,0.549,0.447,1.073,0.741,1.567c-0.348,0.376-0.578,1.299,0.459,1.473c-0.423-0.356-0.268-0.744-0.195-1.055 c0.342,0.507,0.735,0.978,1.17,1.405c-0.328,0.391-0.508,1.344,0.549,1.45c-0.509-0.373-0.269-0.84-0.25-1.17 c0.512,0.459,1.076,0.86,1.683,1.194c-0.092,0.505,0.182,1.364,1.143,1.013c-0.521-0.096-0.598-0.477-0.685-0.777 c0.595,0.284,1.225,0.505,1.882,0.653c-0.009,0.511,0.337,1.229,1.217,0.839c-0.535-0.062-0.633-0.448-0.742-0.745 c0.495,0.084,1.004,0.129,1.523,0.129c0.099,0,0.197-0.002,0.295-0.005c0.111,0.5,0.705,1.192,1.454,0.49 c-0.568,0.127-0.78-0.271-0.996-0.516c0.681-0.056,1.34-0.188,1.969-0.386c0.309,0.411,1.06,0.781,1.497-0.095 c-0.425,0.273-0.738,0.079-1.001-0.078c0.524-0.2,1.025-0.447,1.497-0.737c0.386,0.314,1.47,0.45,1.453-0.66 c-0.282,0.485-0.702,0.394-1.026,0.381c0.519-0.361,1-0.774,1.431-1.234c0.454,0.243,1.389,0.243,1.327-0.785 c-0.258,0.496-0.682,0.425-1.006,0.427c0.406-0.48,0.763-1.002,1.062-1.559c0.505,0.086,1.428-0.236,0.99-1.197l0,0 c-0.061,0.541-0.463,0.634-0.763,0.746c0.277-0.593,0.492-1.222,0.636-1.877c0.505-0.109,1.203-0.694,0.501-1.44 c0.103,0.471-0.161,0.693-0.396,0.879c0.069-0.45,0.105-0.909,0.105-1.378c0-0.065-0.001-0.128-0.002-0.193 c0.491-0.157,1.132-0.81,0.356-1.484c0.169,0.515-0.153,0.765-0.38,0.989c-0.039-0.516-0.122-1.021-0.244-1.509 c0.433-0.258,0.928-1.169-0.09-1.569c0.349,0.448,0.093,0.803-0.04,1.097c-0.164-0.531-0.376-1.041-0.631-1.524 c0.366-0.355,0.645-1.289-0.399-1.498c0.416,0.373,0.241,0.76,0.159,1.071c-0.276-0.463-0.593-0.899-0.945-1.303 c0.194-0.475,0.104-1.369-0.909-1.223c0.428,0.176,0.477,0.496,0.497,0.782c-0.359-0.361-0.747-0.691-1.162-0.987 c0.14-0.484-0.114-1.473-1.132-1.091l0,0c0.54,0.095,0.608,0.498,0.701,0.802c-0.507-0.32-1.047-0.59-1.615-0.804 c0.086-0.498-0.268-1.444-1.237-0.966c0.604,0.045,0.672,0.524,0.818,0.819c-0.733-0.236-1.506-0.382-2.306-0.423 C24.425,14.64,24.09,14.191,23.652,14.195L23.652,14.195z M24.035,15.193c0.045,0,0.089,0.001,0.134,0.001 c-0.304,0.182-0.565,0.781-1.217,0.614c0.703,0.794,1.474-0.111,1.559-0.602c0.785,0.042,1.544,0.187,2.261,0.422 c-0.34,0.104-0.773,0.488-1.286,0.128c0.367,0.976,1.39,0.431,1.663,0.005c0.619,0.234,1.205,0.536,1.748,0.897 c-0.353,0.02-0.862,0.454-1.376,0.01c0.265,1.001,1.326,0.573,1.649,0.178c0.477,0.343,0.918,0.733,1.318,1.163 c0.02,0.055,0.048,0.103,0.094,0.139c-0.305-0.234-1.023,0.286-1.492-0.342c0.045,1.096,1.308,0.815,1.634,0.468 c0.363,0.424,0.686,0.882,0.964,1.37c-0.307-0.175-0.979-0.069-1.178-0.72c-0.318,1.012,0.871,1.193,1.335,1.006 c0.265,0.508,0.482,1.046,0.645,1.606c-0.289-0.205-0.923-0.241-1.001-0.892c-0.479,0.914,0.582,1.304,1.092,1.232 c0.136,0.549,0.22,1.118,0.247,1.701c-0.113-0.339-0.858-0.562-0.694-1.275c-0.809,0.745,0.223,1.514,0.703,1.536 c0.001,0.053,0.002,0.106,0.002,0.158c0,0.564-0.054,1.115-0.155,1.649c-0.02,0.036-0.033,0.074-0.035,0.116 c0.02-0.382-0.821-0.67-0.568-1.41c-0.879,0.66,0.066,1.527,0.541,1.598c-0.156,0.689-0.392,1.346-0.7,1.963 c-0.021-0.351-0.524-0.837-0.1-1.388c-1.015,0.335-0.466,1.401-0.042,1.663c-0.318,0.587-0.703,1.134-1.141,1.631 c0.115-0.333-0.19-0.973,0.408-1.341c-1.095-0.047-0.931,1.203-0.615,1.566c-0.457,0.483-0.967,0.914-1.522,1.283 c0.076-0.344-0.125-0.934,0.449-1.25c-1.012-0.089-0.994,0.983-0.748,1.442c-0.515,0.313-1.064,0.575-1.64,0.779 c-0.053-0.012-0.105-0.015-0.157,0.001c0.367-0.117,0.343-0.998,1.13-1.024c-0.943-0.591-1.429,0.628-1.314,1.082 c0.004,0.015,0.011,0.032,0.017,0.048c-0.633,0.196-1.297,0.322-1.981,0.37c0.317-0.158,0.618-0.745,1.261-0.535 c-0.671-0.87-1.543,0.081-1.608,0.552c-0.093,0.003-0.187,0.005-0.281,0.005c-0.565,0-1.117-0.054-1.651-0.155 c-0.029-0.034-0.064-0.061-0.106-0.078c0.358,0.143,0.905-0.552,1.529-0.075c-0.347-1.052-1.504-0.419-1.708,0.004 c-0.012,0.025-0.022,0.054-0.031,0.084c-0.749-0.171-1.463-0.438-2.126-0.787c-0.001-0.001-0.002-0.001-0.003-0.002 c0.348,0.166,0.941-0.49,1.53,0.028c-0.274-1.066-1.457-0.526-1.698-0.118c-0.555-0.308-1.074-0.674-1.547-1.09 c0.346,0.067,0.868,0.014,1.095,0.556c0.216-1.041-0.991-1.101-1.431-0.868c-0.479-0.467-0.905-0.989-1.268-1.555 c0.302,0.184,0.997,0.036,1.222,0.696c0.29-1.034-0.938-1.167-1.382-0.956c-0.334-0.564-0.608-1.169-0.811-1.805 c0.124,0.358,0.999,0.348,1.019,1.123c0.603-0.929-0.617-1.422-1.077-1.313c-0.172-0.585-0.285-1.195-0.332-1.824 c0.243,0.257,0.912,0.356,0.905,1.035c0.59-0.844-0.407-1.364-0.923-1.359c-0.004-0.113-0.007-0.227-0.007-0.341 c0-0.462,0.036-0.915,0.104-1.358c0.128,0.329,0.637,0.705,0.34,1.291c0.94-0.518,0.188-1.473-0.276-1.645 c0.096-0.486,0.232-0.958,0.404-1.412c0.111,0.31,0.263,0.681-0.065,1.057c0.928-0.246,0.631-1.155,0.267-1.547 c0.209-0.465,0.458-0.908,0.741-1.325c0.021,0.309,0.026,0.663-0.356,0.914c0.936,0.012,0.924-0.896,0.696-1.382 c0.325-0.417,0.687-0.804,1.08-1.156c-0.015,0.339,0.018,0.774-0.453,1.02c0.948,0.107,1.013-0.833,0.823-1.332 c0.356-0.285,0.736-0.544,1.134-0.772c-0.087,0.327-0.152,0.755-0.662,0.895c0.901,0.307,1.169-0.595,1.092-1.124 c0.526-0.263,1.082-0.475,1.662-0.629c-0.266,0.232-0.433,0.851-1.097,0.788c0.84,0.692,1.47-0.39,1.445-0.873 C22.731,15.266,23.374,15.193,24.035,15.193L24.035,15.193z"/><path fill="#a16a4a" d="M25.572,17.708c0,0,0.031-0.073,0.088-0.031c0.052,0.041,0.067,0.222,0.067,0.222l-0.083,0.041 C25.643,17.94,25.69,17.874,25.572,17.708L25.572,17.708z M25.101,19.332c0,0,0.041-0.056-0.015-0.181l0.083-0.026 c0,0,0.031,0.098-0.01,0.207H25.101 M26.534,19.048l-0.197,0.119l0.098,0.046l0.238-0.14L26.534,19.048 M23.9,19.819 c-0.052,0.042-0.057,0.114-0.088,0.155c-0.026,0.041-0.103,0.098-0.109,0.161c-0.01,0.062-0.015,0.103,0.01,0.186 c0.031,0.083,0.161,0.45,0.109,0.73c-0.057,0.279-0.036,0.398-0.015,0.44c0.021,0.041,0.083,0.155,0.119,0.155 c0.083-0.01,0.046-0.036,0.078-0.088c0.078-0.134,0-1.174-0.036-1.464c-0.026-0.222-0.129-0.425-0.139-0.445 c-0.01-0.026-0.031-0.093-0.047-0.135c-0.078-0.186-0.171-0.347-0.171-0.735c0,0-0.254,0.057-0.471-0.435 c-0.114-0.249-0.279-0.222-0.476-0.305l0.088-0.057c0,0,0.166,0.083,0.249,0.083s0.057-0.166,0.057-0.166l0.083-0.083v0.362 c0,0.166,0.227,0.393,0.362,0.461c0.083,0.041,0.191-0.129,0.166-0.295s0-0.388,0-0.388l0.114,0.067c0,0-0.041,0.073-0.031,0.114 c0.015,0.042,0.073-0.041,0.114-0.083c0,0,0.01,0.01,0.052,0.01c0,0-0.083,0.139-0.124,0.212c-0.041,0.067-0.041,0.331-0.041,0.43 c0,0.098,0.036,0.326,0.036,0.398c0,0.052,0.098,0.264,0.176,0.393c0.026,0.051,0.088,0.186,0.088,0.186 c0.062,0.098,0.067,0.166,0.103,0.249c0.021,0.041,0.057,0.161,0.083,0.367c0.01,0.051,0.021,0.249,0.037,0.378 c0.015,0.124,0.119,0.026,0.243-0.062c0.124-0.093,0.124-0.315,0.124-0.315s0.098-0.083,0.083-0.036 c-0.01,0.052,0.052,0.103,0.052,0.103c-0.078,0.176-0.031,0.155,0.046,0.15c0.078-0.01,0.346-0.212,0.346-0.212 c0.036-0.01,0.197-0.01,0.171,0c-0.031,0.015-0.073,0.093-0.073,0.093l0.176-0.021c-0.062,0.047-0.295,0.181-0.347,0.212 c-0.057,0.036-0.336,0.171-0.455,0.217c-0.119,0.051-0.352,0.166-0.362,0.285c-0.005,0.119,0.015,0.44,0,0.543 c-0.01,0.103-0.052,0.564-0.052,0.564h-0.554c0,0,0.109-0.403-0.005-0.512c-0.109-0.114-0.362-0.445-0.527-0.559 c-0.166-0.109,0.109-0.026,0.109-0.026v-0.114l0.254,0.305c0,0,0.44-0.388,0-0.916c-0.139-0.166-0.279-0.419-0.388-0.445 c-0.114-0.031-0.171-0.057-0.362,0c-0.197,0.057-0.667,0.057-0.864-0.254l0.166-0.026l0.139-0.057c0,0-0.056,0.197,0.337,0.197 c0.388,0,0.445,0,0.414-0.362l0.114-0.057l0.083,0.083c0,0-0.057,0.197-0.026,0.279c0.026,0.083,0.166,0.14,0.274,0.222 C23.436,19.994,23.472,20,23.503,20c0.046-0.005,0.056-0.005,0.119-0.067c0.093-0.103,0.073-0.098,0.166-0.181 c0,0,0.046-0.073,0.057-0.083L23.9,19.819L23.9,19.819z"/><path fill="#a16a4a" d="M23.983,19.544c0.021-0.021,0.062-0.098,0.098-0.166c0.062-0.103,0.135-0.166,0.217-0.295 c0.078-0.119,0.109-0.295,0.078-0.419l0.073,0.042l0.005,0.197c0,0,0.098-0.083,0.14-0.103l0.041,0.021c0,0-0.31,0.32-0.6,0.838 L23.983,19.544L23.983,19.544z M21.262,18.468c0.041,0.072,0.083,0.212,0.207,0.32l0.083-0.026c0,0-0.191-0.222-0.191-0.32 L21.262,18.468 M21.749,18.344c0,0,0.026,0.264-0.041,0.362l0.083-0.041c0,0,0.056-0.181,0.041-0.279L21.749,18.344L21.749,18.344 z M24.475,17.511c0,0-0.015,0.373,0.057,0.6l0.098-0.031c0,0-0.015-0.067,0.067-0.098c0.083-0.026,0.279-0.109,0.378-0.191 l-0.031-0.083c0,0-0.15,0.119-0.222,0.15c-0.067,0.026-0.109,0.056-0.166,0.042c-0.057-0.015-0.124-0.109-0.083-0.321 L24.475,17.511z M25.572,19.249c0,0-0.026,0.264-0.01,0.378l0.088,0.021c0,0-0.021-0.315,0.036-0.342L25.572,19.249 M25.965,19.446c0,0-0.098,0.171-0.212,0.186l0.181-0.036c0,0,0.052-0.026,0.129-0.109L25.965,19.446"/><path fill="#5e9c76" d="M24.382,18.665l0.067,0.041l0.073,0.01c0,0,0.078,0.073,0.166,0.139 c0.067,0.057,0.067-0.01,0.067-0.01l0.041,0.166h0.057c0,0-0.015,0.109-0.015,0.166l0.098-0.083l0.114,0.098 c0,0,0.083-0.073,0.124-0.073c0.041,0,0.057-0.041,0.057-0.041h0.005c-0.274-0.13-0.393-0.264-0.31-0.403 c0.135-0.232,0.357-0.083,0.429-0.051l1.003,0.538c0,0,0.067-0.041,0.021-0.083c-0.052-0.041-0.073-0.144-0.057-0.186 c0.015-0.041,0.129,0.129,0.186,0.144c0.057,0.015,0.186,0.037,0.186,0.037l-0.005-0.052c0,0,0.166,0.114,0.166,0.171 c0,0,0.119-0.062,0.078-0.098c-0.041-0.036,0.181,0.088,0.197,0.155l0.046-0.052c-0.005,0,0.015-0.166,0.073-0.243 c0.052-0.078,0.109-0.098,0.109-0.098s0.052-0.088,0.103-0.088c0,0-0.052-0.036-0.073-0.078c-0.026-0.042-0.088-0.062-0.088-0.062 s0.078-0.057,0.098-0.083c0.021-0.031,0.041-0.037,0.041-0.037s-0.119-0.098-0.202-0.114c0,0-0.005-0.135-0.109-0.145h0.047 c0,0-0.078-0.145-0.15-0.15c0,0,0.046-0.052,0.088-0.057c0,0-0.088-0.114-0.207-0.073l0.078-0.031c0,0-0.057-0.062-0.232-0.031 c0,0,0.015-0.073-0.062-0.129c0,0-0.067,0.005-0.067,0.057c0,0-0.062-0.057-0.139-0.057s0.026,0.083,0.026,0.083 s-0.103-0.067-0.166-0.047c0,0,0.026-0.119-0.041-0.181c0,0-0.078,0.042-0.098,0.093l-0.021-0.051c0,0-0.103,0.124-0.124,0.088 c-0.015-0.021-0.031-0.109-0.031-0.109l-0.062,0.093l0.01-0.13c0,0-0.073,0.042-0.129,0.176c0,0-0.073,0.067-0.073,0.129 c0,0-0.057-0.067-0.109,0c-0.047,0.073,0,0.057,0,0.057s-0.021,0.026-0.073,0.036l0.01,0.041c0,0-0.067-0.036-0.119-0.021 l0.026,0.062c0,0-0.134,0.01-0.139-0.098c0,0-0.114-0.057-0.129,0.005l-0.083,0.052c0,0-0.026-0.052-0.073-0.062 c-0.052-0.015-0.01,0.067-0.01,0.067s-0.015-0.062-0.078-0.093c-0.062-0.026-0.01,0.057-0.01,0.057s-0.083-0.067-0.041-0.119 c0,0-0.078,0.073-0.041,0.14l-0.052,0.036c0,0-0.026-0.026-0.021-0.046c0.005-0.021-0.088,0.062-0.088,0.062s-0.057-0.134,0-0.134 c0.005,0-0.098-0.005-0.114,0.114c0,0-0.067,0.005-0.129,0.026c-0.067,0.021,0.047,0.067,0.047,0.067s-0.098-0.021-0.155,0.01 l0.036,0.047c0,0-0.036-0.036-0.124-0.005c-0.093,0.026,0.021,0.041,0.021,0.041s-0.093-0.021-0.139,0 c-0.047,0.021,0.015,0.057,0.015,0.057s-0.171-0.052-0.197-0.036c-0.026,0.015,0.057,0.098,0.057,0.098s-0.103,0.026-0.124,0.103 l0.093,0.036c0,0-0.041,0.021-0.062,0.062c-0.021,0.041,0.062,0.021,0.062,0.021s-0.114,0.083-0.114,0.145 c0,0,0.083,0.026,0.144-0.036c0.062-0.062,0.021-0.041,0.021-0.041l0.005,0.042c0,0,0.119-0.051,0.119-0.083 c0-0.026-0.021,0.041-0.021,0.041l0.119-0.062L24.382,18.665L24.382,18.665L24.382,18.665z"/><path fill="#5e9c76" d="M24.283,17.051l-0.026-0.114l0.264,0.031l0.046-0.109c0,0,0.124,0.057,0.166,0.098 c0,0,0.243-0.062,0.315-0.036l-0.031,0.114c0,0,0.222,0.015,0.295,0.041c0.067,0.026-0.031,0.083-0.031,0.083 s0.254,0.031,0.362,0.098c0.114,0.067,0.114,0.124,0.057,0.139l0.139,0.222c0,0-0.222,0.026-0.264,0.083 c-0.041,0.057-0.083-0.056-0.083-0.056l-0.041,0.155c0,0-0.139-0.073-0.197-0.124c0,0-0.067,0.083-0.026,0.124l-0.254-0.166 c0,0-0.109-0.015-0.109,0.083c0,0-0.124-0.14-0.155-0.181l-0.14,0.042c0,0-0.041-0.056-0.093-0.073 c-0.057-0.01-0.015,0.073-0.015,0.073l-0.083-0.098l-0.083-0.098c0,0-0.073,0.098-0.129,0.098c-0.052,0-0.052-0.067-0.041-0.114 c0.015-0.041-0.166-0.051-0.181,0c0,0-0.052-0.207,0.139-0.264L24.283,17.051L24.283,17.051z M23.28,17.759l-0.088,0.083 l-0.052-0.026l-0.103,0.114l-0.021-0.062l-0.057,0.093l-0.088-0.031l-0.041,0.067l-0.078-0.015c0,0-0.067,0.062-0.109,0.078 c-0.041,0.01,0-0.093,0-0.093s-0.062,0.103-0.109,0.103c-0.041,0-0.026-0.047-0.026-0.047s-0.026,0.067-0.078,0.078 c-0.047,0.005-0.026-0.051-0.026-0.051l-0.083,0.062V18.06l-0.036-0.015c0,0,0.021-0.093,0.057-0.114 c0.036-0.021-0.036-0.083-0.036-0.083l0.036-0.042c0,0-0.103-0.026-0.103-0.005c0,0,0.052-0.139,0.124-0.166l0.005-0.155 c0,0,0.073-0.062,0.139-0.067c0.073-0.01-0.021-0.119-0.021-0.119l0.166-0.098l0.021-0.119l0.254,0.021l0.052-0.109l0.202,0.051 l0.171-0.088l0.124,0.145l0.186,0.015c0,0-0.005,0.129-0.005,0.166c0,0,0.222,0.067,0.249,0.088c0,0-0.041,0.134-0.041,0.161 c0,0,0.155-0.042,0.202-0.031c0,0,0.015,0.145,0.021,0.181c0,0,0.264,0.083,0.279,0.13c0,0-0.057,0.036-0.088,0.083 c0,0,0.031,0.161,0.031,0.212l-0.021,0.031c0,0-0.078-0.073-0.139-0.083l-0.052,0.114l-0.093-0.062l-0.057,0.005 c0,0-0.046-0.057-0.083-0.057l-0.005-0.051l-0.073,0.046c0,0-0.114-0.057-0.114-0.093c0-0.031,0.005-0.083,0.005-0.083 l-0.119,0.083c0,0-0.026-0.062-0.021-0.088c0.005-0.026-0.047,0.062-0.047,0.062s-0.062-0.109-0.057-0.13l-0.015,0.088 C23.42,17.884,23.295,17.843,23.28,17.759L23.28,17.759L23.28,17.759z"/><path fill="#43a047" d="M21.625,18.267c0,0,0.217,0.109,0.217,0.161c0,0,0.057-0.114,0.026-0.155l0.083,0.057 c0,0,0.026-0.103-0.005-0.134c-0.026-0.026,0.186-0.114,0.232,0.026c0,0,0.129-0.134-0.119-0.249c0,0-0.021-0.083,0.129-0.062 c0,0-0.01-0.052-0.047-0.073h0.145c0,0-0.088-0.073-0.217-0.093c-0.124-0.021-0.047-0.036-0.052-0.062 c-0.01-0.026,0-0.119,0-0.119s-0.073-0.026-0.129,0.005l0.021-0.026c0,0-0.135-0.036-0.186-0.005c0,0-0.078-0.031-0.067-0.114 c0,0-0.078-0.005-0.114,0.078c0,0-0.073,0.083-0.171,0.083c-0.021,0-0.093-0.042-0.093-0.042l-0.062,0.145l-0.098-0.005 l0.031,0.056c0,0-0.15-0.041-0.197,0c0,0,0.057,0.088,0.041,0.15c0,0-0.119,0.021-0.144,0.042 c-0.031,0.021,0.041,0.036,0.041,0.036s-0.134,0.041-0.166,0.083l0.052,0.041l-0.062,0.083l0.052,0.01 c0,0-0.088,0.026-0.134,0.042c-0.046,0.015,0.083,0.026,0.083,0.026l-0.062,0.056l0.098,0.015c0,0-0.078,0.207-0.083,0.305 c0,0,0.119-0.145,0.15-0.155l-0.093,0.155c0,0,0.176-0.056,0.191-0.083c0.015-0.031,0.031-0.056,0.031-0.056l0.005,0.088 c0,0,0.067-0.093,0.078-0.129c0.005-0.036,0.109,0.036,0.109,0.036v-0.052c0,0,0.093,0.031,0.124,0.037 c0.036,0.005,0.041-0.015,0.041-0.015l0.088-0.01l-0.015,0.073c0,0,0.062-0.041,0.078-0.083c0.01-0.042,0.041,0,0.041,0 l0.041-0.166H21.625L21.625,18.267z M20.916,19.002l0.083,0.171c-0.067,0.005-0.166,0.083-0.166,0.083 c0.015,0.285-0.056,0.269-0.056,0.269c0.021,0.052-0.013,0.147-0.013,0.147l0.411-0.246l0.005-0.026l0.486-0.228l0.015,0.026 l0.14-0.078l0.098,0.259l-0.098,0.057c0.005,0.088,0.109,0.243,0.109,0.243l0.129-0.031l0.139-0.052c0,0,0.005,0.078,0.005,0.052 c0-0.021,0.15-0.073,0.15-0.073l0.067,0.067c0.052-0.005,0.144-0.13,0.144-0.13l0.109,0.042c0,0,0.036-0.062,0.036-0.109 c0-0.041,0.134-0.041,0.134-0.041l0.093,0.067l0.119-0.098c0,0,0.036,0.073,0.083,0.083c0.052,0.005,0.181,0.103,0.181,0.083 c0-0.021,0.057-0.134,0.057-0.134l0.217,0.088c-0.031-0.098-0.103-0.217-0.103-0.217s0.103-0.083,0.083-0.103 c-0.021-0.021-0.083,0-0.083,0l0.062-0.124H23.47l0.026-0.031l-0.134-0.057l0.073-0.145c-0.031-0.037-0.388-0.109-0.388-0.109 l0.083-0.078c0,0-0.041-0.062-0.083-0.062c-0.041,0-0.259,0.005-0.269-0.015c-0.005-0.021-0.093-0.098-0.093-0.098l-0.134,0.098 l-0.067-0.021l-0.119,0.047c0,0,0,0.067-0.015,0.021c-0.015-0.042-0.124-0.15-0.124-0.15c-0.021,0.036-0.161,0.202-0.161,0.202 s-0.021,0.088-0.067,0.026c-0.052-0.062-0.161-0.129-0.176-0.078c-0.015,0.057-0.114,0.109-0.134,0.093s-0.134-0.005-0.144,0.026 c-0.005,0.036-0.129,0.129-0.129,0.129c-0.078-0.036-0.202-0.015-0.202-0.015s-0.036,0.056-0.041,0.103L20.916,19.002 L20.916,19.002L20.916,19.002L20.916,19.002z M23.254,21.097v-0.109l0.124,0.083l0.073-0.083l0.093,0.093l0.057-0.093v0.15 l0.139-0.124l0.083,0.036v-0.119c0,0,0.098-0.166,0.057-0.197l0.083-0.026c0,0-0.139-0.139-0.181-0.166 c-0.041-0.031-0.098-0.031-0.098-0.031s-0.109-0.109-0.181-0.139c-0.067-0.026-0.109,0.031-0.109,0.031s-0.041-0.083-0.114-0.098 c-0.067-0.015-0.067,0.057-0.067,0.057s-0.052-0.052-0.119-0.078c-0.067-0.031-0.021,0.062-0.021,0.062l-0.238-0.072l0.031,0.072 l-0.222-0.056l0.026,0.083l-0.155-0.026l-0.012,0.066l-0.222,0.041l0.041,0.073l-0.139-0.057v0.098l-0.155,0.056l0.057,0.052 c0,0-0.207,0.098-0.249,0.129c-0.041,0.026,0.083,0.083,0.083,0.083l-0.222-0.031l0.083,0.073l-0.197,0.181l0.139,0.098 l-0.083,0.124l0.207,0.041l0.083,0.139l0.171-0.031v0.155l0.249-0.197c0,0,0.181,0.161,0.197,0.114 c0.01-0.041,0.01-0.181,0.01-0.181h0.088v-0.139l0.067,0.057l0.114-0.166l0.15,0.207l0.114-0.264L23.254,21.097L23.254,21.097z M24.268,20.47l-0.026-0.238l-0.073,0.073l0.031-0.222l-0.114-0.021l0.041-0.217l-0.083-0.042l0.021-0.103l0.083-0.062l0.15-0.145 l0.346,0.005l0.041-0.114l0.249,0.042c0.041,0.046,0.171-0.093,0.171-0.093h0.052l0.057,0.109c0,0,0.181-0.026,0.264,0.031 l-0.098,0.134l0.181,0.015l0.124,0.026l0.129-0.042l0.166-0.01l0.041,0.067h0.155l-0.052,0.062l0.202,0.093l-0.041,0.042 c0,0,0.114,0.041,0.197,0.041h0.041c0,0,0.041,0.098-0.015,0.139c0,0,0.057,0.14,0.181,0.166c0.124,0.026,0.124,0.026,0.139,0.056 c0.015,0.026,0,0.166-0.139,0.166v0.14c0,0-0.109,0.098-0.124,0.139l-0.083-0.057c0,0-0.072,0.083-0.072,0.14 c0,0-0.181-0.238-0.249-0.249c-0.073-0.015-0.057,0.135-0.057,0.135l-0.197-0.166l-0.026,0.114l-0.166-0.139l-0.099,0.067 l-0.176-0.181l-0.171,0.021l0.067-0.088h-0.207l-0.041-0.181l-0.031,0.15l-0.124-0.083l-0.161,0.176c0,0-0.021-0.021-0.046-0.103 c-0.026-0.083-0.098,0.098-0.098,0.098l-0.057-0.129l-0.067,0.129c0,0-0.057-0.098-0.114-0.129 C24.34,20.206,24.284,20.388,24.268,20.47L24.268,20.47z M24.299,21.014l0.01-0.083l0.295-0.114l0.249-0.093l0.124-0.057 l0.057,0.098l0.073-0.139l0.114,0.144l0.062-0.078l0.098,0.073h0.083l0.015,0.109c0,0,0.207,0.015,0.222-0.026 c0.015-0.042,0.041,0.139,0.041,0.139l0.197,0.026l0.041,0.222c0,0,0.098,0.207,0.067,0.29c-0.026,0.088-0.109-0.109-0.109-0.109 s-0.015,0.155-0.031,0.197c-0.01,0.041-0.264-0.041-0.264-0.041l-0.109,0.207c0,0-0.114-0.166-0.166-0.166 c-0.057,0-0.057,0.166-0.057,0.166s-0.166-0.197-0.238-0.279c-0.067-0.083-0.083,0.083-0.083,0.083s-0.109-0.181-0.109-0.233 c0-0.056-0.098-0.114-0.098-0.114s-0.171,0.197-0.295,0.249c0,0,0.015-0.124-0.026-0.166c-0.041-0.042-0.166,0.083-0.166,0.083 S24.21,21.21,24.299,21.014L24.299,21.014z"/><path fill="#8bb7f0" d="M22.079,27.124c-0.128-0.218-0.234-0.448-0.315-0.688l2.24-1.971l2.24,1.966 c-0.078,0.227-0.181,0.471-0.326,0.704L25.9,27.164c-0.056-0.021-0.112-0.043-0.169-0.065c0,0-0.073,0.067-0.129,0.073 c-0.078,0.01-0.145-0.067-0.145-0.067s-0.098,0.083-0.197,0.067c-0.098-0.01-0.14-0.073-0.14-0.073s-0.103,0.083-0.176,0.067 c-0.067-0.015-0.114-0.062-0.114-0.062s-0.062,0.078-0.15,0.062c-0.083-0.015-0.161-0.062-0.161-0.062s-0.129,0.056-0.212,0.067 c-0.083,0.015-0.155-0.073-0.155-0.073s-0.109,0.073-0.15,0.073c-0.041,0-0.197-0.073-0.197-0.073s-0.161,0.052-0.217,0.052 c-0.052,0-0.212-0.067-0.212-0.067s-0.15,0.041-0.217,0.041c-0.073,0-0.176-0.041-0.176-0.041s-0.124,0.057-0.191,0.041 c-0.044-0.01-0.088-0.023-0.129-0.041c0,0-0.134,0.057-0.222,0.041c-0.083-0.015-0.181-0.072-0.181-0.072 s-0.015,0.041-0.176,0.072L22.079,27.124"/><path fill="#cfd8dc" d="M24.004,22.198v2.266l-2.24,1.981c-0.217-0.631-0.232-1.195-0.232-1.438v-2.809H24.004"/><path fill="#fdd835" d="M24.004,22.198v2.266l2.234,1.981c0.217-0.631,0.232-1.195,0.232-1.438v-2.809H24.004"/><path fill="#43a047" d="M18.578,27.403c0.078,0.036,0-0.254,0.026-0.362c0.031-0.114,0.254,0.279,0.362,0.331 c0.114,0.056,0.807-0.274,0.807-0.274l0.166-0.31l0.088,0.254c0,0,0.191-0.222,0.249-0.305c0.057-0.083,0,0.166-0.057,0.249 s0.166,0.114,0.139,0.279c-0.026,0.166,0.222-0.114,0.222-0.114l0.642,0.057c0,0,0.109-0.388,0.279-0.611l0.052,0.249l0.264-0.269 c0.295,0.776,0.916,1.619,2.188,2.08c1.195-0.435,1.811-1.206,2.131-1.94l0.357,0.367c0,0,0.279-0.083,0.331-0.114 c0.057-0.026,0.657,0.212,0.657,0.212s0.109,0.041,0.166,0.083c0.056,0.041,0.015-0.181,0.015-0.181s0.305,0.057,0.279,0.222 c0,0,0.067-0.155,0.124-0.181c0.057-0.026,0.191,0.139,0.222,0.197c0.026,0.052,0.683,0.134,0.776,0.191 c0,0,0.073,0.083,0.073,0.14c0,0,0.139-0.015,0.249-0.015c0,0-0.083,0.041-0.083,0.129c0,0.083-0.041,0.15-0.124,0.191 c-0.083,0.042,0,0.073,0.109,0.083c0.114,0.015,0,0.155-0.222,0.238c0,0-0.052,0.124,0.041,0.166c0,0-0.191,0.015-0.222-0.041 c0,0-0.067,0.129-0.067,0.197c0,0-0.207-0.067-0.264-0.098c0,0-0.083,0.083-0.026,0.124c0,0-0.378-0.041-0.45-0.181 c0,0-0.134,0.041-0.109,0.088c0,0-0.264-0.181-0.347-0.181l-0.057,0.093c0,0-0.181-0.109-0.238-0.109 c-0.052,0-0.01,0.083-0.01,0.083l-0.254-0.155l-0.098,0.155c0,0-0.207-0.098-0.264-0.139c-0.052-0.041-0.067,0.083-0.109,0.098 c0,0-0.083-0.114-0.197-0.098c0,0-0.041,0.139-0.026,0.181c0,0-0.32-0.067-0.378-0.083s-0.026,0.067,0,0.124 c0,0-0.238-0.067-0.29-0.109l-0.015,0.109c0,0-0.197-0.015-0.238-0.057l-0.124,0.171h-0.181l-0.041,0.15 c0,0-0.312-0.115-0.342-0.037c-0.026,0.056-0.021,0.135-0.021,0.135l-0.257-0.017l-0.078,0.139c0,0-0.347-0.133-0.43-0.081 c0,0-0.164,0.104-0.237,0.13c-0.092-0.092-0.161-0.125-0.249-0.155c-0.091-0.015-0.29,0.109-0.362,0.067c0,0,0-0.098-0.056-0.124 c-0.052-0.026-0.15-0.026-0.191,0.042c0,0-0.041-0.057-0.114-0.166c-0.067-0.114-0.166,0.01-0.166,0.01l-0.015-0.135l-0.191-0.015 c-0.114-0.015-0.139-0.114-0.139-0.114s-0.295,0.031-0.336,0.015l0.073-0.067c0,0-0.403,0.083-0.486,0.052 c-0.088-0.026,0.093-0.14,0.093-0.14s-0.373-0.093-0.445-0.109c-0.067-0.015-0.471,0.067-0.528,0.067 c-0.057,0-0.083-0.093-0.083-0.093s-0.098,0.083-0.181,0.109c0,0-0.067-0.166-0.026-0.181c0,0-0.264,0.073-0.279,0.14 c0,0-0.067-0.109-0.057-0.155c0,0-0.124,0.197-0.181,0.238c-0.057,0.041-0.01-0.098-0.01-0.098s-0.155,0.197-0.212,0.212v-0.14 c0,0-0.445,0.238-0.569,0.207c0,0,0-0.098,0.041-0.124l-0.279-0.015c-0.067-0.01-0.15-0.041-0.222-0.057 c-0.067-0.01,0.098-0.083,0.212-0.052c0,0-0.31-0.114-0.403-0.057c0,0-0.041-0.114,0.124-0.155c0,0-0.212-0.207-0.337-0.191 c0,0,0.14-0.083,0.254-0.042c0,0-0.129-0.352-0.212-0.393C18.201,27.414,18.496,27.362,18.578,27.403L18.578,27.403z"/><path fill="#ffc49c" d="M18.149,21.334l3.766-1.951c0.018-0.101-0.039-0.18-0.098-0.259 c-1.077,0.528-2.057,1.169-3.254,1.558c-0.067,0.026-0.662,0.274-0.967,0.642c-0.097,0.097-0.104,0.241-0.104,0.241 s0.007,0.164,0.042,0.208c0,0,0.009,0.045,0.065,0.081c-0.001,0,0.034,0.018,0.059,0.009c0.027,0.005,0.072,0.005,0.134-0.104 C17.853,21.656,18.056,21.417,18.149,21.334L18.149,21.334z"/><path fill="#ffc49c" d="M21.18,19.405l0.486-0.233c0,0,0.166,0.124,0.15,0.264c0,0,0.036,0.32,0.435,0.543 c0,0-0.337,0.419-0.926,0.455c0,0,0.067-0.553-0.056-0.714c0,0-0.021,0.02-0.012-0.007c0.018-0.054-0.012-0.238-0.087-0.279 C21.16,19.429,21.175,19.414,21.18,19.405L21.18,19.405z"/><path fill="#ffc49c" d="M25.137,18.493c-0.069,0.008-0.131,0.055-0.201,0.175c-0.122,0.233-0.092,0.361,0.276,0.521l0,0 l1.383,0.678c0.277,0.135,0.377,0.01,0.533,0.078l2.73,1.39c0.234,0.103,0.365,0.135,0.331,0.256 c-0.004,0.156,0.051,0.177,0.089,0.185c0.059,0.025,0.104,0.039,0.117-0.029c0.009-0.013-0.007-0.035-0.025-0.064 c-0.018-0.029-0.036-0.064-0.032-0.105c0.004-0.04,0.008-0.059,0.021-0.081c0.013-0.021,0.037-0.045,0.082-0.095 c0.023-0.025,0.044-0.036,0.064-0.037c0.02-0.001,0.04,0.005,0.058,0.015c0.025,0.015,0.047,0.032,0.07,0.048 c0.091-0.007,0.01-0.136-0.054-0.186c-0.137-0.065-0.153,0.081-0.298,0.066c0,0-0.259-0.098-0.352-0.166 c-0.172-0.093-0.411-0.204-0.466-0.265c-0.175-0.033-1.486-0.771-2.229-1.141c-0.08-0.067-0.123-0.314-0.28-0.396 c-0.046-0.067-1.052-0.526-1.578-0.789C25.282,18.516,25.206,18.485,25.137,18.493L25.137,18.493z" opacity=".99"/><path fill="#a16a4a" d="M20.714,19.731c-0.01,0.031-0.036,0.01-0.036,0.021c-0.021,0.109-0.015,0.166-0.041,0.227 c-0.036,0.073-0.166,0.14-0.161,0.134c-0.103,0.031-0.227,0.155-0.429,0.041c-0.01-0.005-0.021-0.015-0.031-0.026 c0,0,0.056,0.212-0.15,0.315c-0.073,0.036-0.802,0.419-0.802,0.419s-0.078,0.14-0.026,0.331c0.005,0.031,0.015,0.057-0.015,0.078 c-0.047,0.036-0.134,0.14-0.186,0.305c0,0-0.155-0.067-0.155-0.166c0-0.098,0.062-0.15,0.078-0.223 c0.015-0.067,0.056-0.238,0.036-0.29c-0.021-0.057-0.114-0.078-0.15-0.098c-0.031-0.021-0.073,0.021-0.067,0.067 c0.005,0.052,0.041,0.041,0.083,0.052c0,0-0.047,0.098-0.041,0.171l-0.471,0.243c0,0,0.062,0.083,0.083,0.119 c0.021,0.036,0.067,0.517,0.207,0.745c0.139,0.227,0.186,0.166,0.217,0.197c0.026,0.026,0.067,0.067,0.103,0.098 c0.036,0.026,0.197,0.041,0.227-0.046c0.036-0.083,0.062-0.135,0.161-0.212c0.098-0.078,0.3-0.274,0.3-0.362 c0,0,0.119,0.342,0.103,0.626c0,0,0.435,0.088,0.823,0.098c0.388,0.005,0.584-0.078,0.584-0.078s0.052-0.326,0.031-0.388 c0,0,0.062,0.212,0.109,0.285c0.052,0.088,0.109,0.269,0.222,0.279c0.109,0.005,0.202-0.109,0.212-0.155v-0.342h0.44 c0-0.005,0.197,0.073,0.259,0.062c0.062-0.005,0.098-0.062,0.041-0.083l-0.021-0.015c0.056,0,0.129,0.036,0.129,0.036h0.217 c0.005-0.005,0-0.021-0.005-0.026c-0.015-0.062-0.129-0.114-0.212-0.15c-0.083-0.031-0.176-0.067-0.238-0.073 c-0.098-0.01-0.166-0.005-0.315,0.021c-0.041,0.005-0.197,0.021-0.295,0.067c-0.026,0.015-0.052,0.021-0.041-0.046 c0.015-0.073,0.01-0.398-0.067-0.538c-0.057-0.098-0.052-0.181-0.041-0.264c0.005-0.083,0.01-0.367,0-0.45 c-0.015-0.083-0.129-0.197-0.336-0.222c-0.197-0.026-0.362-0.186-0.373-0.315C20.657,20.072,20.693,19.834,20.714,19.731" opacity=".99"/><path fill="#a16a4a" d="M19.835,19.146c-0.036,0.166-0.036,0.31-0.031,0.471c0.005,0.109,0.057,0.232,0.103,0.342 c0.031,0.073,0.073,0.155,0.139,0.197c0.181,0.119,0.352-0.01,0.45-0.052c0.047-0.015,0.119-0.083,0.139-0.124 c0.026-0.062,0.015-0.109,0.041-0.227c-0.005,0.005,0.041-0.021,0.036-0.021c0.047-0.078,0.036-0.103,0.062-0.155 c0.026-0.052-0.031-0.109-0.093-0.098c0.031-0.098,0.052-0.207,0.021-0.3c-0.01-0.031,0.026-0.114-0.031-0.093 c-0.233,0.093-0.507,0.073-0.755,0.073c-0.021,0-0.036-0.042-0.067-0.036C19.845,19.12,19.84,19.136,19.835,19.146" opacity=".99"/><path fill="#36404d" d="M19.814,19.233c-0.026-0.021-0.031-0.067,0-0.166c0.036-0.098,0-0.103,0.057-0.161 c0.057-0.057,0.041-0.083,0.078-0.098c0.036-0.01,0.144-0.01,0.181-0.026c0.031-0.015,0.078-0.037,0.15-0.047 c0.078-0.015,0.233-0.01,0.305,0.031c0.078,0.041,0.129,0.145,0.176,0.181c0.052,0.036,0.083,0.186,0.073,0.404 c-0.015,0.217-0.057,0.176-0.057,0.176s-0.062-0.103-0.114-0.015c0,0,0-0.083,0.01-0.145c0.005-0.062-0.031-0.176,0.005-0.254 c0,0-0.295,0.093-0.445,0.088c-0.155-0.01-0.373-0.047-0.383-0.083L19.814,19.233"/><path fill="#cfd8dc" d="M19.23,23.528c0.062-0.403,0.254-0.74,0.259-0.771c0,0,0.197,0.042,0.538,0.073 c0.336,0.036,0.429,0.021,0.584,0.01c0.15-0.015,0.347-0.041,0.347-0.041s0.062,0.124,0.067,0.249 c0.015,0.264,0.114,1.407,0.124,1.712c0,0,0.041,0.181,0.041,0.626c0,0.486,0.134,1.475,0.134,2.003l-0.134,0.026 c0,0-0.735,0.057-0.735-0.041c0-0.109-0.041-1.376,0.067-2.142c0,0-0.026-0.15-0.067-0.279c-0.041-0.124-0.222-0.512-0.222-0.595 c0,0-0.29,0.817-0.305,0.957c-0.015,0.129-0.057,1.95-0.083,2.1c0,0-0.419,0.32-0.476,0.352c-0.056,0.026-0.461-0.171-0.471-0.222 c-0.015-0.057,0.041-0.672,0.232-1.687c0.073-0.362,0.031-0.429,0.031-0.527C19.162,25.231,19.167,23.932,19.23,23.528 L19.23,23.528z"/><path fill="#e1ebf2" d="M19.452,22.747c0,0,0-0.166,0.062-0.249c0,0,0.176,0.037,0.424,0.062 c0.254,0.026,0.455,0.047,0.642,0.026c0.186-0.021,0.378-0.067,0.378-0.067s0.051,0.243,0.026,0.279c0,0-0.202,0.041-0.424,0.051 c-0.227,0.015-0.605-0.021-0.735-0.041C19.654,22.789,19.504,22.758,19.452,22.747L19.452,22.747z"/><path fill="#a16a4a" d="M19.038,27.647c-0.015,0.067-0.041,0.161-0.052,0.279c0,0.026-0.026,0.166,0.052,0.171 c0.057,0.005,0.073-0.145,0.073-0.145s-0.052,0.166,0.015,0.186c0.093,0.021,0.103-0.181,0.103-0.181 c-0.01,0.057-0.073,0.202,0.015,0.217c0.093,0.015,0.119-0.197,0.119-0.197s-0.078,0.212,0.015,0.217 c0.088,0.005,0.088-0.207,0.088-0.207s-0.047,0.254,0.078,0.233c0.067-0.01,0.083-0.098,0.098-0.15 c0.021-0.078,0.067-0.176,0.01-0.336c-0.041-0.119-0.026-0.15-0.026-0.15s-0.145,0.109-0.259,0.181 C19.318,27.796,19.038,27.646,19.038,27.647L19.038,27.647z M20.549,27.424c-0.026-0.015-0.021,0.093-0.031,0.144 c-0.005,0.052,0.01,0.166,0.186,0.155c0.171-0.015,0.342-0.052,0.45-0.026c0.109,0.031,0.269,0.036,0.357,0.036 s0.145-0.01,0.186-0.026c0.037-0.015,0.114,0.021,0.15,0.021c0.037,0,0.093-0.057,0.088-0.093 c-0.005-0.067-0.067-0.067-0.155-0.073c-0.083-0.01-0.197-0.026-0.253-0.047c-0.057-0.021-0.161-0.078-0.29-0.103 c0,0-0.249,0.01-0.3,0.01C20.885,27.424,20.58,27.439,20.549,27.424L20.549,27.424z" opacity=".99"/><path fill="#ad7c59" d="M17.968,20.988c-0.026,0.015-0.057-0.103,0.021-0.15c0,0,0.021-0.098,0.103-0.109 c0,0,0.067-0.093,0.166-0.083c0,0,0.114-0.078,0.155-0.067c0.041,0.005,0.145,0.109,0.15,0.145c0.01,0.036,0,0.098-0.026,0.124 c-0.031,0.031-0.052-0.005-0.057-0.047c0,0,0.021,0.078-0.041,0.109c-0.062,0.037-0.057,0.01-0.062-0.031 c0,0-0.015,0.083-0.057,0.093c-0.041,0.015-0.067-0.021-0.098-0.021c0,0,0.052,0.042,0.015,0.073 c-0.036,0.026-0.078,0.015-0.103-0.005C18.107,20.993,18.076,20.926,17.968,20.988L17.968,20.988z"/><path fill="#ad7c59" d="M18.474,20.797c-0.026-0.083-0.109-0.155-0.207-0.144 M18.381,20.874 c-0.015-0.021-0.021-0.042-0.036-0.062c-0.047-0.078-0.145-0.073-0.227-0.093 M18.241,20.952 c-0.031-0.021-0.041-0.062-0.073-0.078c-0.052-0.021-0.103-0.047-0.166-0.037"/><path fill="#a16a4a" d="M27.294,19.731c0.036-0.015,0.026,0.031,0.031,0.047c0.015,0.067,0.015,0.14,0.041,0.202 c0.031,0.057,0.041,0.078,0.093,0.103c0.083,0.047,0.326,0.181,0.496,0.073c0.01-0.005,0.026-0.015,0.036-0.026 c0,0-0.062,0.212,0.15,0.315c0.067,0.036,0.796,0.419,0.796,0.419s0.078,0.14,0.031,0.331c-0.01,0.031-0.021,0.057,0.01,0.078 c0.052,0.036,0.134,0.14,0.191,0.305c0,0,0.15-0.067,0.15-0.166c0-0.098-0.062-0.15-0.078-0.222 c-0.01-0.067-0.051-0.238-0.031-0.29c0.021-0.057,0.109-0.078,0.144-0.098c0.037-0.021,0.078,0.021,0.067,0.067 c-0.005,0.052-0.041,0.042-0.083,0.052c0,0,0.052,0.098,0.041,0.171l0.476,0.243c0,0-0.062,0.083-0.083,0.119 c-0.026,0.037-0.073,0.517-0.212,0.745c-0.14,0.227-0.186,0.166-0.212,0.197c-0.031,0.026-0.073,0.067-0.109,0.098 c-0.031,0.026-0.191,0.042-0.227-0.046c-0.036-0.083-0.062-0.135-0.161-0.212c-0.098-0.078-0.3-0.274-0.3-0.362 c0,0-0.119,0.342-0.103,0.626c0,0-0.429,0.088-0.823,0.098c-0.388,0.005-0.584-0.078-0.584-0.078s-0.052-0.326-0.031-0.388 c0,0-0.062,0.212-0.103,0.285c-0.057,0.088-0.114,0.269-0.222,0.279c-0.114,0.005-0.202-0.109-0.217-0.155V22.2h-0.44 c0-0.005-0.191,0.073-0.259,0.062c-0.062-0.005-0.093-0.062-0.041-0.083l0.021-0.015c-0.057,0-0.129,0.036-0.129,0.036h-0.217 c0-0.005,0.005-0.021,0.005-0.026c0.015-0.062,0.13-0.114,0.217-0.15c0.083-0.031,0.171-0.067,0.232-0.073 c0.098-0.01,0.166-0.005,0.315,0.021c0.041,0.005,0.202,0.021,0.295,0.067c0.026,0.015,0.057,0.021,0.041-0.046 c-0.015-0.073-0.062-0.285,0.015-0.425c0.052-0.098,0.047-0.181,0.041-0.264c-0.01-0.088-0.057-0.285-0.057-0.373 c0-0.29,0.222-0.408,0.419-0.471c0.217-0.067,0.362-0.14,0.352-0.269C27.279,20.056,27.315,19.834,27.294,19.731"/><path fill="#a16a4a" d="M28.168,19.146c0.047,0.171,0.057,0.212,0.057,0.269c0,0.062-0.026,0.073-0.005,0.14 c0.036,0.124-0.036,0.259-0.124,0.403c-0.041,0.067-0.073,0.155-0.139,0.197c-0.171,0.109-0.378-0.021-0.486-0.067 c-0.056-0.026-0.088-0.067-0.103-0.109c-0.021-0.062-0.026-0.119-0.041-0.202c0-0.015,0.005-0.062-0.031-0.047 c-0.062-0.073-0.052-0.103-0.078-0.155c-0.026-0.052,0.047-0.109,0.103-0.098c-0.031-0.098-0.046-0.207-0.015-0.3 c0.01-0.031-0.026-0.114,0.026-0.093c0.232,0.093,0.507,0.073,0.755,0.073c0.021,0,0.036-0.041,0.067-0.036 C28.158,19.12,28.163,19.136,28.168,19.146"/><path fill="#36404d" d="M28.19,19.233c0.026-0.021,0.01-0.119-0.015-0.222c-0.01-0.052-0.052-0.073-0.109-0.129 c-0.057-0.057-0.078-0.057-0.114-0.073c-0.031-0.01-0.103-0.01-0.139-0.026c-0.031-0.015-0.114-0.005-0.191,0.005 c-0.103,0.015-0.161,0.01-0.238,0.052c-0.078,0.041-0.139,0.088-0.166,0.166c-0.021,0.057-0.057,0.129-0.041,0.347 c0.01,0.217,0.052,0.176,0.052,0.176s0.057-0.083,0.093-0.031c0,0-0.005-0.114-0.015-0.181c-0.005-0.062,0-0.14,0.026-0.233 c0,0,0.238,0.088,0.461,0.088c0.155,0,0.357-0.015,0.362-0.052L28.19,19.233L28.19,19.233z"/><path fill="#cfd8dc" d="M28.775,23.528c-0.062-0.403-0.254-0.74-0.259-0.771c0,0-0.197,0.042-0.538,0.073 c-0.336,0.036-0.429,0.021-0.584,0.01c-0.15-0.015-0.347-0.041-0.347-0.041s-0.062,0.124-0.067,0.249 c-0.015,0.264-0.114,1.407-0.124,1.712c0,0-0.041,0.181-0.041,0.626c0,0.486-0.134,1.475-0.134,2.003l0.134,0.026 c0,0,0.735,0.057,0.735-0.041c0-0.109,0.041-1.376-0.067-2.142c0,0,0.026-0.15,0.067-0.279c0.041-0.124,0.222-0.512,0.222-0.595 c0,0,0.29,0.817,0.305,0.957c0.015,0.129,0.057,1.95,0.083,2.1c0,0,0.419,0.32,0.476,0.352c0.056,0.026,0.461-0.171,0.471-0.222 c0.015-0.057-0.041-0.672-0.232-1.687c-0.073-0.362-0.031-0.429-0.031-0.527C28.842,25.231,28.837,23.932,28.775,23.528 L28.775,23.528z"/><path fill="#e1ebf2" d="M28.553,22.747c0,0,0-0.166-0.062-0.249c0,0-0.176,0.037-0.424,0.062 c-0.254,0.026-0.455,0.047-0.642,0.026c-0.186-0.021-0.378-0.067-0.378-0.067s-0.051,0.243-0.026,0.279 c0,0,0.202,0.041,0.424,0.051c0.227,0.015,0.605-0.021,0.735-0.041C28.352,22.789,28.501,22.758,28.553,22.747L28.553,22.747z"/><path fill="#a16a4a" d="M28.967,27.646c0.015,0.067,0.041,0.161,0.052,0.279c0,0.026,0.026,0.166-0.052,0.171 c-0.057,0.005-0.073-0.145-0.073-0.145s0.052,0.166-0.015,0.186c-0.093,0.021-0.103-0.181-0.103-0.181 c0.01,0.057,0.073,0.202-0.015,0.217c-0.093,0.015-0.119-0.197-0.119-0.197s0.078,0.212-0.015,0.217 c-0.088,0.005-0.088-0.207-0.088-0.207s0.047,0.254-0.078,0.233c-0.067-0.01-0.083-0.098-0.098-0.15 c-0.021-0.078-0.067-0.176-0.01-0.336c0.041-0.119,0.026-0.15,0.026-0.15s0.145,0.109,0.259,0.181 C28.687,27.796,28.967,27.646,28.967,27.646L28.967,27.646z M27.456,27.424c0.026-0.015,0.021,0.093,0.031,0.144 c0.005,0.052-0.01,0.166-0.186,0.155c-0.171-0.015-0.342-0.052-0.45-0.026c-0.109,0.031-0.269,0.036-0.357,0.036 s-0.145-0.01-0.186-0.026c-0.037-0.015-0.114,0.021-0.15,0.021c-0.037,0-0.093-0.057-0.088-0.093 c0.005-0.067,0.067-0.067,0.155-0.073c0.083-0.01,0.197-0.026,0.253-0.047c0.057-0.021,0.161-0.078,0.29-0.103 c0,0,0.249,0.01,0.3,0.01C27.12,27.424,27.425,27.439,27.456,27.424L27.456,27.424z"/><path fill="#a16a4a" d="M29.963,21.174c0.026,0.01,0.098-0.103,0.026-0.155c0,0-0.026-0.098-0.109-0.103 c0,0-0.067-0.098-0.166-0.083c0,0-0.109-0.078-0.15-0.072c-0.047,0.01-0.15,0.114-0.155,0.15c-0.005,0.031,0,0.093,0.026,0.124 c0.031,0.026,0.052-0.005,0.057-0.052c0,0-0.021,0.078,0.041,0.114c0.062,0.036,0.057,0.005,0.062-0.036 c0,0,0.015,0.083,0.057,0.098c0.041,0.015,0.067-0.021,0.098-0.021c0,0-0.052,0.041-0.015,0.067 c0.036,0.031,0.078,0.015,0.103-0.005C29.87,21.179,29.855,21.112,29.963,21.174L29.963,21.174z"/><path fill="#a16a4a" d="M29.498,20.983c0.026-0.088,0.114-0.161,0.207-0.145 M29.596,21.061 c0.01-0.021,0.015-0.042,0.031-0.062c0.046-0.078,0.15-0.078,0.232-0.093 M29.73,21.133c0.031-0.021,0.041-0.057,0.073-0.072 c0.052-0.026,0.109-0.047,0.166-0.037"/><path fill="#a16a4a" d="M29.489,20.831c-0.045,0.037-0.093,0.092-0.097,0.116c-0.005,0.031-0.001,0.093,0.026,0.124 c0.028,0.023,0.048-0.001,0.056-0.04c-0.003,0.023-0.004,0.075,0.043,0.102c0.062,0.036,0.057,0.005,0.062-0.037 c0,0,0.015,0.083,0.057,0.099c0.041,0.015,0.067-0.021,0.098-0.021c0,0-0.052,0.041-0.016,0.067 c0.036,0.031,0.078,0.015,0.103-0.005c0.031-0.021,0.015-0.087,0.124-0.026c0.013,0.005,0.041-0.023,0.052-0.059l-0.391-0.281 L29.489,20.831z"/><path fill="#a16a4a" d="M29.406,20.903c-0.076,0.131,0.026,0.21,0.059,0.133c-0.01,0.121,0.081,0.117,0.116,0.078 c0.034,0.128,0.093,0.071,0.148,0.059c-0.062,0.117,0.076,0.082,0.108,0.055c0.047-0.069,0.069-0.014,0.103-0.021L30,21.145 M29.594,20.855c-0.086,0.045-0.128,0.109-0.129,0.188 M29.713,20.931c-0.086,0.045-0.128,0.109-0.129,0.188 M29.859,21.03 c-0.086,0.045-0.089,0.087-0.127,0.144"/><path fill="#fdd835" d="M24.004,30.502c1.164,0.01,1.852-0.414,2.229-0.667c0.884-0.595,1.071-0.615,1.216-0.605 c0.166,0.015,0.408,0.073,0.419,0.218c0.015,0.222-0.347,0.32-0.554,0.32c-0.212,0-0.766-0.14-0.766-0.14l-0.145,0.098 c0.098,0.047,1.231,0.424,1.448,0.067c0.222-0.362,0.445-0.947,0.445-0.947s-0.249-0.445-0.802-0.445 c-0.559,0-1.101,0.352-1.464,0.615c-0.362,0.264-0.818,0.626-2.028,0.626c-1.211,0-1.671-0.362-2.033-0.626 s-0.905-0.615-1.459-0.615c-0.559,0-0.807,0.445-0.807,0.445s0.222,0.584,0.445,0.947c0.217,0.357,1.35-0.021,1.448-0.067 l-0.139-0.098c0,0-0.559,0.139-0.766,0.139c-0.212,0-0.574-0.098-0.559-0.32c0.01-0.145,0.254-0.202,0.419-0.217 c0.145-0.01,0.331,0.01,1.216,0.605C22.147,30.089,22.835,30.497,24.004,30.502"/><path fill="#fdd835" d="M22.131,29.131c0,0,0-0.098-0.015-0.243c-0.021-0.186-0.129-0.232-0.217-0.207 c-0.057,0.021-0.171,0.161-0.171,0.161v0.005c-0.051-0.036-0.105-0.069-0.161-0.098c0.041-0.047,0.279-0.191,0.336-0.191 c0.052,0,0.766,0.29,0.993,0.486c0.057,0.052,0.098,0.373,0.067,0.476c-0.383-0.098-0.631-0.243-0.833-0.383L22.131,29.131 M21.79,29.856c0,0-0.155,0.155-0.161,0.44c-0.005,0.337,0.238,0.352,0.398,0.347c0.191-0.005,0.347-0.114,0.342-0.471 C22.369,30.171,22.054,30.037,21.79,29.856 M25.871,29.131c0,0,0.005-0.098,0.021-0.243c0.021-0.186,0.124-0.232,0.212-0.207 c0.057,0.021,0.171,0.161,0.171,0.161v0.005c0.051-0.036,0.105-0.069,0.161-0.098c-0.041-0.047-0.279-0.191-0.331-0.191 c-0.057,0-0.771,0.29-0.998,0.486c-0.052,0.052-0.093,0.373-0.067,0.476c0.388-0.098,0.631-0.243,0.833-0.383L25.871,29.131 M26.213,29.856c0,0,0.155,0.155,0.161,0.44c0.01,0.337-0.238,0.352-0.398,0.347c-0.191-0.005-0.342-0.114-0.342-0.471 C25.634,30.171,25.949,30.037,26.213,29.856"/><path fill="#3949ab" d="M21.454,29.628c0,0-0.554,0.14-0.76,0.14c-0.212,0-0.574-0.098-0.559-0.32 c0.01-0.145,0.254-0.202,0.419-0.217C20.678,29.219,20.839,29.235,21.454,29.628 M26.55,29.628c0,0,0.554,0.14,0.766,0.14 c0.207,0,0.569-0.098,0.554-0.32c-0.01-0.145-0.254-0.202-0.419-0.217C27.326,29.219,27.165,29.235,26.55,29.628 M22.131,29.136 c-0.057-0.041-0.114-0.083-0.166-0.124c-0.078-0.057-0.155-0.109-0.238-0.166c0,0,0.114-0.145,0.171-0.161 c0.088-0.031,0.197,0.015,0.217,0.202C22.131,29.033,22.131,29.136,22.131,29.136 M21.754,30.596 c0.098,0.057,0.207,0.052,0.274,0.047c0.191-0.005,0.347-0.114,0.342-0.471c0,0,0.238,0.119,0.626,0.212 c0,0,0.062,0.078,0.073,0.232c0.015,0.13-0.073,0.269-0.176,0.259c0,0-0.543-0.098-0.874-0.155 C21.826,30.684,21.754,30.596,21.754,30.596 M25.871,29.136c0.056-0.041,0.114-0.083,0.171-0.124 c0.073-0.057,0.15-0.109,0.232-0.166c0,0-0.114-0.145-0.171-0.161c-0.088-0.031-0.191,0.015-0.212,0.202 C25.877,29.033,25.871,29.136,25.871,29.136 M26.249,30.596c-0.098,0.057-0.207,0.052-0.274,0.047 c-0.191-0.005-0.342-0.114-0.342-0.471c0,0-0.238,0.119-0.621,0.212c0,0-0.067,0.078-0.078,0.232 c-0.01,0.13,0.078,0.269,0.176,0.259c0,0,0.549-0.098,0.874-0.155C26.177,30.684,26.249,30.596,26.249,30.596"/><path fill="none" d="M24.004,30.502c1.164,0.01,1.852-0.414,2.229-0.667c0.884-0.595,1.071-0.615,1.216-0.605 c0.166,0.015,0.408,0.073,0.419,0.217c0.015,0.222-0.347,0.32-0.554,0.32c-0.212,0-0.766-0.139-0.766-0.139l-0.144,0.098 c0.098,0.047,1.231,0.424,1.448,0.067c0.222-0.362,0.445-0.947,0.445-0.947s-0.249-0.445-0.802-0.445 c-0.559,0-1.101,0.352-1.464,0.616s-0.817,0.626-2.028,0.626c-1.211,0-1.671-0.362-2.033-0.626 c-0.362-0.264-0.906-0.616-1.459-0.616c-0.559,0-0.807,0.445-0.807,0.445s0.222,0.584,0.445,0.947 c0.217,0.357,1.35-0.021,1.448-0.067l-0.139-0.098c0,0-0.559,0.139-0.766,0.139c-0.212,0-0.574-0.098-0.559-0.32 c0.01-0.145,0.254-0.202,0.419-0.217c0.144-0.01,0.331,0.01,1.216,0.605C22.148,30.089,22.835,30.497,24.004,30.502 L24.004,30.502z"/><path fill="none" d="M21.454,29.628c0,0-0.554,0.14-0.76,0.14c-0.212,0-0.574-0.098-0.559-0.32 c0.01-0.145,0.254-0.202,0.419-0.217C20.678,29.219,20.839,29.235,21.454,29.628L21.454,29.628z M26.549,29.628 c0,0,0.554,0.14,0.766,0.14c0.207,0,0.569-0.098,0.554-0.32c-0.01-0.145-0.254-0.202-0.419-0.217 C27.325,29.219,27.164,29.235,26.549,29.628L26.549,29.628z M22.131,29.136c-0.057-0.041-0.114-0.083-0.166-0.124 c-0.078-0.057-0.155-0.109-0.238-0.166c0,0,0.114-0.145,0.171-0.161c0.088-0.031,0.197,0.015,0.217,0.202 C22.131,29.033,22.131,29.136,22.131,29.136L22.131,29.136z"/><path fill="none" d="M22.131,29.131c0,0,0-0.098-0.015-0.243c-0.021-0.186-0.129-0.232-0.217-0.207 c-0.057,0.021-0.171,0.161-0.171,0.161v0.005c-0.051-0.036-0.105-0.068-0.161-0.098c0.041-0.047,0.279-0.191,0.337-0.191 c0.052,0,0.766,0.29,0.993,0.486c0.057,0.052,0.098,0.373,0.067,0.476c-0.383-0.098-0.631-0.243-0.833-0.383 M21.79,29.856 c0,0-0.155,0.155-0.161,0.44c-0.005,0.336,0.238,0.352,0.398,0.347c0.191-0.005,0.346-0.114,0.342-0.471 C22.37,30.171,22.054,30.037,21.79,29.856L21.79,29.856z"/><path fill="none" d="M21.92,29.933c0,0-0.124,0.129-0.144,0.342c-0.01,0.166,0.098,0.259,0.238,0.249 c0.197-0.01,0.274-0.279,0.181-0.429L21.92,29.933z"/><path fill="none" d="M21.754,30.596c0.098,0.057,0.207,0.052,0.274,0.047c0.191-0.005,0.346-0.114,0.342-0.471 c0,0,0.238,0.119,0.626,0.212c0,0,0.062,0.078,0.073,0.233c0.015,0.129-0.073,0.269-0.176,0.259c0,0-0.543-0.098-0.874-0.155 C21.826,30.684,21.754,30.596,21.754,30.596L21.754,30.596z M25.871,29.136c0.057-0.041,0.114-0.083,0.171-0.124 c0.073-0.057,0.15-0.109,0.233-0.166c0,0-0.114-0.145-0.171-0.161c-0.088-0.031-0.191,0.015-0.212,0.202 C25.883,28.971,25.877,29.053,25.871,29.136L25.871,29.136L25.871,29.136z"/><path fill="none" d="M25.871,29.131c0,0,0.005-0.098,0.021-0.243c0.021-0.186,0.124-0.232,0.212-0.207 c0.057,0.021,0.171,0.161,0.171,0.161v0.005c0.051-0.036,0.105-0.068,0.161-0.098c-0.041-0.047-0.279-0.191-0.331-0.191 c-0.057,0-0.771,0.29-0.998,0.486c-0.052,0.052-0.093,0.373-0.067,0.476c0.388-0.098,0.631-0.243,0.833-0.383 M26.213,29.856 c0,0,0.155,0.155,0.161,0.44c0.01,0.336-0.238,0.352-0.398,0.347c-0.191-0.005-0.341-0.114-0.341-0.471 C25.634,30.171,25.949,30.037,26.213,29.856L26.213,29.856z"/><path fill="none" d="M26.084,29.933c0,0,0.124,0.129,0.145,0.342c0.015,0.166-0.098,0.259-0.238,0.249 c-0.197-0.01-0.269-0.279-0.181-0.429L26.084,29.933z"/><path fill="none" d="M26.249,30.596c-0.098,0.057-0.207,0.052-0.274,0.047c-0.191-0.005-0.341-0.114-0.341-0.471 c0,0-0.238,0.119-0.62,0.212c0,0-0.067,0.078-0.078,0.233c-0.01,0.129,0.078,0.269,0.176,0.259c0,0,0.549-0.098,0.874-0.155 C26.177,30.684,26.249,30.596,26.249,30.596L26.249,30.596z"/><g><path fill="#90a4ae" d="M23.343,24.47c-0.025,0-0.051-0.01-0.071-0.029l-1.222-1.222c-0.039-0.039-0.039-0.102,0-0.141 s0.103-0.039,0.142,0l1.222,1.222c0.039,0.039,0.039,0.102,0,0.141C23.395,24.46,23.369,24.47,23.343,24.47z"/></g><g><path fill="#90a4ae" d="M22.121,24.47c-0.025,0-0.051-0.01-0.071-0.029c-0.039-0.039-0.039-0.102,0-0.141l1.222-1.222 c0.039-0.039,0.103-0.039,0.142,0s0.039,0.102,0,0.141l-1.222,1.222C22.172,24.46,22.146,24.47,22.121,24.47z"/></g><g><path fill="#90a4ae" d="M25.788,24.47c-0.025,0-0.051-0.01-0.071-0.029l-1.222-1.222c-0.039-0.039-0.039-0.102,0-0.141 s0.103-0.039,0.142,0l1.222,1.222c0.039,0.039,0.039,0.102,0,0.141C25.839,24.46,25.813,24.47,25.788,24.47z"/></g><g><path fill="#90a4ae" d="M24.565,24.47c-0.025,0-0.051-0.01-0.071-0.029c-0.039-0.039-0.039-0.102,0-0.141l1.222-1.222 c0.039-0.039,0.103-0.039,0.142,0s0.039,0.102,0,0.141l-1.222,1.222C24.617,24.46,24.591,24.47,24.565,24.47z"/></g><g><polygon fill="#fff" points="23.472,25.821 22.973,26.779 24.95,26.922 24.817,25.832 24.522,25.811 24.338,26.412 24.287,25.74 23.941,25.74 23.798,26.341 23.768,25.821"/></g><g><polygon fill="#ffc49c" points="22.851,26.718 23.35,27.238 24.868,27.238 25.164,26.84"/></g><g><path fill="#3949ab" d="M25.908,27.155c-0.357,0.595-0.942,1.154-1.904,1.5c-0.978-0.352-1.572-0.936-1.924-1.526 l0.005-0.005c0.161-0.032,0.176-0.073,0.176-0.073s0.098,0.057,0.181,0.073c0.088,0.015,0.222-0.041,0.222-0.041 s0.057,0.026,0.129,0.042c0.067,0.015,0.191-0.041,0.191-0.041s0.103,0.042,0.176,0.042c0.067,0,0.217-0.041,0.217-0.041 s0.161,0.067,0.212,0.067c0.057,0,0.217-0.051,0.217-0.051s0.155,0.073,0.197,0.073c0.041,0,0.15-0.073,0.15-0.073 s0.073,0.088,0.155,0.073c0.083-0.01,0.212-0.067,0.212-0.067s0.078,0.047,0.161,0.062c0.088,0.015,0.15-0.062,0.15-0.062 s0.046,0.047,0.114,0.062c0.073,0.015,0.176-0.067,0.176-0.067s0.041,0.062,0.139,0.073c0.098,0.015,0.197-0.067,0.197-0.067 s0.067,0.078,0.144,0.067c0.057-0.005,0.129-0.073,0.129-0.073S25.86,27.139,25.908,27.155"/></g><g><path fill="#d50000" d="M10.802,39c3.524,3.103,8.134,5,13.198,5s9.675-1.897,13.198-5H10.802z"/><path fill="#d50000" d="M10.802,9h26.396C33.675,5.897,29.064,4,24,4S14.325,5.897,10.802,9z"/></g></svg>