<svg xmlns="http://www.w3.org/2000/svg"  viewBox="0 0 48 48" width="100px" height="100px"><path fill="#43a047" d="M24,4C12.954,4,4,12.954,4,24c0,3.111,0.731,6.043,1.998,8.669L32.669,5.998 C30.043,4.731,27.111,4,24,4z"/><path fill="#ff3d00" d="M44,24c0-3.111-0.731-6.043-1.998-8.669L15.331,42.002C17.957,43.269,20.889,44,24,44 C35.046,44,44,35.046,44,24z"/><path fill="#ffc107" d="M32.669,5.998L5.998,32.669c1.965,4.072,5.261,7.368,9.333,9.333l26.671-26.671 C40.037,11.259,36.741,7.963,32.669,5.998z"/></svg>