<svg xmlns="http://www.w3.org/2000/svg"  viewBox="0 0 48 48" width="30px" height="30px"><circle cx="24" cy="24" r="20" fill="#00796b"/><path fill="#eceff1" d="M27.059,28.086c2.332,0.278,5.328-0.461,6.962-4.166c-2.187-1.043-5.209-0.779-7.737,0.8 c0.595-0.593,2.224-1.871,5.373-2.059c0.276-0.307,0.583-0.737,0.583-0.737s-3.346-0.184-6.048,2.272 c1.873-2.917,1.136-5.741,0.43-7.031c-0.307,0.491-0.614,0.86-0.614,0.86s1.492,3.463-0.306,6.169 c1.234-2.808,0.641-5.607-1.705-7.81v-0.016c-0.003,0.003-0.005,0.005-0.008,0.008c-0.003-0.003-0.005-0.005-0.008-0.008v0.016 c-2.345,2.203-2.938,5.002-1.705,7.81c-1.798-2.706-0.306-6.169-0.306-6.169s-0.307-0.368-0.614-0.86 c-0.706,1.289-1.443,4.114,0.43,7.031c-2.702-2.456-6.048-2.272-6.048-2.272s0.307,0.43,0.583,0.737 c3.149,0.188,4.778,1.467,5.373,2.059c-2.529-1.579-5.55-1.843-7.737-0.8c1.634,3.705,4.63,4.444,6.962,4.166 c-3.329,1.026-5.979-1.617-5.979-1.617s-0.461,0.061-0.86,0.154c4.109,4.31,8.868,1.366,9.909,0.253 c1.041,1.112,5.799,4.057,9.909-0.253c-0.399-0.092-0.86-0.154-0.86-0.154S30.388,29.111,27.059,28.086z"/><polygon fill="#eceff1" points="15.186,30.644 15.554,31.104 23.649,31.104 24.243,31.104 32.337,31.104 32.706,30.644 23.946,30.704"/><path fill="#eceff1" d="M28.408,29.354c-0.798,0-3.005-0.143-4.452-1.781c-0.004,0.024-0.006-0.022-0.01,0.001 c-0.004-0.023-0.006,0.022-0.01-0.001c-1.447,1.638-3.653,1.781-4.452,1.781l-5.342,0l0.491,0.737c0,0,2.763-0.031,5.188-0.031 c2.121,0,3.749-1.151,4.124-1.439c0.375,0.288,2.003,1.439,4.124,1.439c2.425,0,5.188,0.031,5.188,0.031l0.491-0.737 L28.408,29.354z"/><polygon fill="#eceff1" points="23.68,31.718 16.26,31.718 16.936,32.271 23.68,32.271 24.212,32.271 30.956,32.271 31.631,31.718 24.212,31.718"/><polygon fill="#eceff1" points="23.68,32.762 17.703,32.762 18.87,33.407 23.557,33.407 24.335,33.407 29.022,33.407 30.188,32.762 24.212,32.762"/><path fill="#eceff1" d="M19.76,33.775h8.566c0,0-2.118,0.86-4.267,0.86S20.344,34.082,19.76,33.775z"/><polygon fill="#fdd835" points="23.966,11.106 24.473,12.603 26.054,12.623 24.787,13.568 25.257,15.077 23.966,14.164 22.676,15.077 23.146,13.568 21.879,12.623 23.459,12.603"/><polygon fill="#fdd835" points="15.663,17.198 15.892,18.302 17.009,18.453 16.03,19.012 16.232,20.121 15.398,19.363 14.405,19.897 14.868,18.87 14.053,18.091 15.174,18.214"/><g><polygon fill="#fdd835" points="19.486,13.797 19.121,14.864 20.006,15.563 18.879,15.546 18.488,16.603 18.156,15.526 17.029,15.48 17.951,14.832 17.646,13.746 18.548,14.423"/></g><g><polygon fill="#fdd835" points="32.212,17.198 31.983,18.302 30.865,18.453 31.844,19.012 31.643,20.121 32.477,19.363 33.47,19.897 33.006,18.87 33.821,18.091 32.701,18.214"/></g><g><polygon fill="#fdd835" points="28.389,13.797 28.753,14.864 27.869,15.563 28.996,15.546 29.387,16.603 29.719,15.526 30.846,15.48 29.924,14.832 30.229,13.746 29.327,14.423"/></g></svg>