<svg xmlns="http://www.w3.org/2000/svg"  viewBox="0 0 48 48" width="30px" height="30px"><path fill="#eceff1" d="M24,4c11.046,0,20,8.954,20,20c0,3.679-0.993,7.125-2.726,10.086c-3.47,5.93-10.12,9.02-17.487,9.02 c-7.34,0-13.544-3.061-17.023-8.955C5.008,31.176,4,27.706,4,24C4,12.954,12.954,4,24,4z"/><path fill="#d50000" d="M24,44c8.506,0,15.761-5.314,18.652-12.799H5.348C8.239,38.686,15.494,44,24,44z"/><rect width="7.18" height=".89" x="27.57" y="29.064" fill="#d50000" transform="rotate(-180 31.16 29.51)"/><path fill="#263238" d="M34.75,30.054h-7.18c-0.056,0-0.1-0.044-0.1-0.1v-0.89c0-0.056,0.044-0.1,0.1-0.1h7.18 c0.056,0,0.1,0.044,0.1,0.1v0.89C34.85,30.01,34.806,30.054,34.75,30.054z M27.67,29.854h6.98v-0.69h-6.98V29.854z"/><rect width="3.699" height="6.349" x="28.361" y="12.726" fill="#d50000" transform="rotate(-180 30.21 15.901)"/><path fill="#263238" d="M32.061,19.176h-3.699c-0.056,0-0.1-0.044-0.1-0.1v-6.35c0-0.056,0.044-0.1,0.1-0.1h3.699 c0.056,0,0.1,0.044,0.1,0.1v6.35C32.16,19.132,32.116,19.176,32.061,19.176z M28.461,18.977h3.5v-6.15h-3.5V18.977z"/><path fill="#263238" d="M29.153,19.076h2.116V16.29c0-0.471-0.382-0.854-0.854-0.854h-0.409 c-0.471,0-0.854,0.382-0.854,0.854V19.076z"/><rect width="4.253" height=".712" x="28.084" y="12.014" fill="#d50000" transform="rotate(-180 30.21 12.37)"/><path fill="#263238" d="M32.337,12.826h-4.253c-0.056,0-0.1-0.044-0.1-0.1v-0.712c0-0.056,0.044-0.1,0.1-0.1h4.253 c0.056,0,0.1,0.044,0.1,0.1v0.712C32.437,12.782,32.393,12.826,32.337,12.826z M28.184,12.627h4.054v-0.513h-4.054V12.627z"/><rect width="5.657" height=".712" x="28.421" y="19.392" fill="#d50000" transform="rotate(-180 31.25 19.748)"/><path fill="#263238" d="M34.078,20.204h-5.657c-0.056,0-0.1-0.044-0.1-0.1v-0.712c0-0.056,0.044-0.1,0.1-0.1h5.657 c0.056,0,0.1,0.044,0.1,0.1v0.712C34.178,20.16,34.134,20.204,34.078,20.204z M28.521,20.005h5.458v-0.513h-5.458V20.005z"/><polygon fill="#d50000" points="31.269,18.739 31.269,17.849 32.871,17.849 32.871,18.739 34.038,18.739 34.038,17.849 34.75,17.849 34.75,18.739 34.75,19.016 34.75,19.451 27.768,19.451 27.768,18.739"/><path fill="#263238" d="M34.75,19.551h-6.982c-0.056,0-0.1-0.044-0.1-0.1v-0.712c0-0.056,0.044-0.1,0.1-0.1h3.401v-0.79 c0-0.056,0.044-0.1,0.1-0.1h1.603c0.056,0,0.1,0.044,0.1,0.1v0.79h0.968v-0.79c0-0.056,0.044-0.1,0.1-0.1h0.712 c0.056,0,0.1,0.044,0.1,0.1v1.602C34.85,19.507,34.806,19.551,34.75,19.551z M27.867,19.352h6.783v-1.402h-0.513v0.79 c0,0.056-0.044,0.1-0.1,0.1h-1.167c-0.056,0-0.1-0.044-0.1-0.1v-0.79h-1.403v0.79c0,0.056-0.044,0.1-0.1,0.1h-3.401V19.352z"/><rect width="5.914" height="8.149" x="27.57" y="20.084" fill="#d50000" transform="rotate(-180 30.527 24.159)"/><path fill="#263238" d="M33.484,28.333H27.57c-0.056,0-0.1-0.044-0.1-0.1v-8.149c0-0.056,0.044-0.1,0.1-0.1h5.914 c0.056,0,0.1,0.044,0.1,0.1v8.149C33.584,28.289,33.54,28.333,33.484,28.333z M27.67,28.134h5.715v-7.95H27.67V28.134z"/><polygon fill="#d50000" points="27.57,29.064 34.75,29.064 33.484,28.214 27.57,28.214"/><path fill="#263238" d="M34.75,29.164h-7.18c-0.056,0-0.1-0.044-0.1-0.1v-0.851c0-0.056,0.044-0.1,0.1-0.1h5.914 c0.02,0,0.039,0.006,0.056,0.017l1.266,0.851c0.037,0.024,0.053,0.07,0.04,0.112S34.794,29.164,34.75,29.164z M27.67,28.965h6.752 l-0.968-0.651H27.67V28.965z"/><polygon fill="#d50000" points="28.599,10.689 28.599,11.362 29.548,11.362 29.548,10.689 31.012,10.689 31.012,11.362 31.941,11.362 31.941,10.729 32.891,10.729 32.891,11.362 32.891,11.559 32.891,12.014 31.012,12.014 29.548,12.014 28.599,12.014 27.827,12.014 27.827,11.362 27.827,10.689"/><path fill="#263238" d="M32.891,12.114h-5.063c-0.056,0-0.1-0.044-0.1-0.1v-1.325c0-0.056,0.044-0.1,0.1-0.1h0.771 c0.056,0,0.1,0.044,0.1,0.1v0.572h0.75v-0.572c0-0.056,0.044-0.1,0.1-0.1h1.464c0.056,0,0.1,0.044,0.1,0.1v0.572h0.73v-0.533 c0-0.056,0.044-0.1,0.1-0.1h0.949c0.056,0,0.1,0.044,0.1,0.1v1.286C32.99,12.07,32.946,12.114,32.891,12.114z M27.927,11.915 h4.864v-1.087h-0.75v0.533c0,0.056-0.044,0.1-0.1,0.1h-0.93c-0.056,0-0.1-0.044-0.1-0.1v-0.572h-1.265v0.572 c0,0.056-0.044,0.1-0.1,0.1h-0.949c-0.056,0-0.1-0.044-0.1-0.1v-0.572h-0.572V11.915z"/><path fill="#263238" d="M29.907,24.495h0.608c0.701,0,1.269,0.568,1.269,1.269v2.45h-3.145v-2.45 C28.638,25.063,29.206,24.495,29.907,24.495z"/><rect width="7.18" height=".89" x="13.25" y="29.064" fill="#d50000"/><path fill="#263238" d="M20.43,30.054h-7.18c-0.056,0-0.1-0.044-0.1-0.1v-0.89c0-0.056,0.044-0.1,0.1-0.1h7.18 c0.056,0,0.1,0.044,0.1,0.1v0.89C20.529,30.01,20.485,30.054,20.43,30.054z M13.35,29.854h6.98v-0.69h-6.98V29.854z"/><rect width=".771" height="8.634" x="23.565" y="33.91" fill="#fbc02d"/><path fill="#263238" d="M24.436,42.644h-0.971v-8.833h0.971V42.644z M23.664,42.444h0.572V34.01h-0.572V42.444z"/><path fill="#fbc02d" d="M21.058,40.215v-1.187h2.507v1.187h-0.757v-0.593H21.8v0.593 C21.8,40.215,21.058,40.185,21.058,40.215z"/><path fill="#263238" d="M21.899,40.319l-0.104-0.005c-0.307-0.013-0.654-0.018-0.706-0.007l-0.019-0.093h-0.113v-1.286 h2.706v1.386h-0.955v-0.593h-0.81V40.319z M22.908,40.115h0.557v-0.987h-2.308v0.975c0.102-0.003,0.263-0.002,0.543,0.009v-0.589 h1.208V40.115z"/><path fill="#fbc02d" d="M23.565,40.66v1.187h-2.507V40.66h0.757v0.593h1.009V40.66C22.823,40.66,23.565,40.69,23.565,40.66 z"/><path fill="#263238" d="M23.664,41.946h-2.706v-1.386h0.956v0.594h0.81v-0.599l0.104,0.005 c0.305,0.013,0.653,0.018,0.705,0.007l0.019,0.093h0.113V41.946z M21.157,41.747h2.308v-0.975 c-0.102,0.003-0.263,0.003-0.542-0.009v0.59h-1.208V40.76h-0.558V41.747z"/><path fill="#fbc02d" d="M26.013,32.56l-2.062-1.157l-2.003,1.157h-0.46v0.653h0.371l2.047,1.231l2.092-1.216h0.415V32.56 H26.013z M23.936,33.777l-1.543-0.86l1.558-0.949l1.558,0.935L23.936,33.777z"/><path fill="#263238" d="M23.905,34.561l-2.074-1.248h-0.442v-0.852h0.533l2.027-1.173l0.05,0.028l2.04,1.145h0.474v0.866 h-0.487L23.905,34.561z M21.588,33.113h0.298l0.024,0.014l1.997,1.201l2.063-1.2h0.343V32.66h-0.327l-2.035-1.142l-1.977,1.142 h-0.387V33.113z M23.936,33.891l-1.741-0.971l1.756-1.07l1.758,1.055L23.936,33.891z M22.591,32.912l1.345,0.75l1.372-0.764 l-1.357-0.814L22.591,32.912z"/><rect width="10.899" height="1.029" x="18.571" y="29.401" fill="#d50000"/><path fill="#263238" d="M29.469,30.528H18.57c-0.056,0-0.1-0.044-0.1-0.1V29.4c0-0.056,0.044-0.1,0.1-0.1h10.898 c0.056,0,0.1,0.044,0.1,0.1v1.028C29.568,30.484,29.524,30.528,29.469,30.528z M18.67,30.329h10.699V29.5H18.67V30.329z"/><rect width="9.712" height=".673" x="19.164" y="20.084" fill="#d50000"/><path fill="#263238" d="M28.876,20.856h-9.712c-0.056,0-0.1-0.044-0.1-0.1v-0.673c0-0.056,0.044-0.1,0.1-0.1h9.712 c0.056,0,0.1,0.044,0.1,0.1v0.673C28.976,20.812,28.932,20.856,28.876,20.856z M19.264,20.657h9.513v-0.474h-9.513V20.657z"/><rect width="5.123" height="7.338" x="21.458" y="11.441" fill="#d50000"/><path fill="#263238" d="M26.581,18.879h-5.123c-0.056,0-0.1-0.044-0.1-0.1V11.44c0-0.056,0.044-0.1,0.1-0.1h5.123 c0.056,0,0.1,0.044,0.1,0.1v7.339C26.681,18.835,26.637,18.879,26.581,18.879z M21.558,18.68h4.924v-7.14h-4.924V18.68z"/><rect width="3.699" height="6.349" x="15.94" y="12.726" fill="#d50000"/><path fill="#263238" d="M19.639,19.176h-3.699c-0.056,0-0.1-0.044-0.1-0.1v-6.35c0-0.056,0.044-0.1,0.1-0.1h3.699 c0.056,0,0.1,0.044,0.1,0.1v6.35C19.738,19.132,19.694,19.176,19.639,19.176z M16.039,18.977h3.5v-6.15h-3.5V18.977z"/><path fill="#263238" d="M18.847,19.076h-2.116V16.29c0-0.471,0.382-0.854,0.854-0.854h0.409 c0.471,0,0.854,0.382,0.854,0.854V19.076z"/><rect width="4.253" height=".712" x="15.663" y="12.014" fill="#d50000"/><path fill="#263238" d="M19.916,12.826h-4.253c-0.056,0-0.1-0.044-0.1-0.1v-0.712c0-0.056,0.044-0.1,0.1-0.1h4.253 c0.056,0,0.1,0.044,0.1,0.1v0.712C20.016,12.782,19.972,12.826,19.916,12.826z M15.763,12.627h4.054v-0.513h-4.054V12.627z"/><g><rect width="5.657" height=".712" x="13.922" y="19.392" fill="#d50000"/><path fill="#263238" d="M19.579,20.204h-5.657c-0.056,0-0.1-0.044-0.1-0.1v-0.712c0-0.056,0.044-0.1,0.1-0.1h5.657 c0.056,0,0.1,0.044,0.1,0.1v0.712C19.679,20.16,19.635,20.204,19.579,20.204z M14.021,20.005h5.458v-0.513h-5.458V20.005z"/></g><g><polygon fill="#d50000" points="16.731,18.739 16.731,17.849 15.129,17.849 15.129,18.739 13.962,18.739 13.962,17.849 13.25,17.849 13.25,18.739 13.25,19.016 13.25,19.451 20.232,19.451 20.232,18.739"/><path fill="#263238" d="M20.232,19.551H13.25c-0.056,0-0.1-0.044-0.1-0.1V17.85c0-0.056,0.044-0.1,0.1-0.1h0.712 c0.056,0,0.1,0.044,0.1,0.1v0.79h0.968v-0.79c0-0.056,0.044-0.1,0.1-0.1h1.603c0.056,0,0.1,0.044,0.1,0.1v0.79h3.401 c0.056,0,0.1,0.044,0.1,0.1v0.712C20.332,19.507,20.288,19.551,20.232,19.551z M13.35,19.352h6.783v-0.513h-3.401 c-0.056,0-0.1-0.044-0.1-0.1v-0.79h-1.403v0.79c0,0.056-0.044,0.1-0.1,0.1h-1.167c-0.056,0-0.1-0.044-0.1-0.1v-0.79H13.35V19.352z"/></g><g><rect width="5.914" height="8.149" x="14.516" y="20.084" fill="#d50000"/><path fill="#263238" d="M20.43,28.333h-5.914c-0.056,0-0.1-0.044-0.1-0.1v-8.149c0-0.056,0.044-0.1,0.1-0.1h5.914 c0.056,0,0.1,0.044,0.1,0.1v8.149C20.529,28.289,20.485,28.333,20.43,28.333z M14.615,28.134h5.715v-7.95h-5.715V28.134z"/></g><g><polygon fill="#d50000" points="20.43,29.064 13.25,29.064 14.516,28.214 20.43,28.214"/><path fill="#263238" d="M20.43,29.164h-7.18c-0.044,0-0.083-0.028-0.096-0.07s0.003-0.088,0.04-0.112l1.266-0.851 c0.017-0.011,0.036-0.017,0.056-0.017h5.914c0.056,0,0.1,0.044,0.1,0.1v0.851C20.529,29.12,20.485,29.164,20.43,29.164z M13.578,28.965h6.752v-0.651h-5.784L13.578,28.965z"/></g><g><polygon fill="#d50000" points="19.401,10.689 19.401,11.362 18.452,11.362 18.452,10.689 16.988,10.689 16.988,11.362 16.059,11.362 16.059,10.729 15.109,10.729 15.109,11.362 15.109,11.559 15.109,12.014 16.988,12.014 18.452,12.014 19.401,12.014 20.173,12.014 20.173,11.362 20.173,10.689"/><path fill="#263238" d="M20.173,12.114h-5.063c-0.056,0-0.1-0.044-0.1-0.1v-1.286c0-0.056,0.044-0.1,0.1-0.1h0.949 c0.056,0,0.1,0.044,0.1,0.1v0.533h0.73v-0.572c0-0.056,0.044-0.1,0.1-0.1h1.464c0.056,0,0.1,0.044,0.1,0.1v0.572h0.75v-0.572 c0-0.056,0.044-0.1,0.1-0.1h0.771c0.056,0,0.1,0.044,0.1,0.1v1.325C20.272,12.07,20.229,12.114,20.173,12.114z M15.209,11.915 h4.864v-1.126h-0.572v0.572c0,0.056-0.044,0.1-0.1,0.1h-0.949c-0.056,0-0.1-0.044-0.1-0.1v-0.572h-1.265v0.572 c0,0.056-0.044,0.1-0.1,0.1h-0.93c-0.056,0-0.1-0.044-0.1-0.1v-0.533h-0.75V11.915z"/></g><g><rect width="5.875" height=".989" x="21.083" y="10.432" fill="#d50000"/><path fill="#263238" d="M26.957,11.521h-5.874c-0.056,0-0.1-0.044-0.1-0.1v-0.989c0-0.056,0.044-0.1,0.1-0.1h5.874 c0.056,0,0.1,0.044,0.1,0.1v0.989C27.057,11.477,27.013,11.521,26.957,11.521z M21.183,11.321h5.675v-0.79h-5.675V11.321z"/></g><g><rect width=".633" height="1.82" x="22.487" y="12.469" fill="#263238"/></g><g><rect width=".633" height="1.82" x="24.9" y="12.469" fill="#263238"/></g><g><rect width=".633" height="2.393" x="23.713" y="11.995" fill="#263238"/></g><g><polygon fill="#d50000" points="26.641,9.344 26.641,9.918 25.671,9.918 25.671,9.344 24.524,9.344 24.524,9.918 23.515,9.918 23.515,9.344 22.368,9.344 22.368,9.918 21.399,9.918 21.399,9.344 20.489,9.344 20.489,9.918 20.489,10.214 20.489,10.432 27.55,10.432 27.55,10.214 27.55,9.918 27.55,9.344"/><path fill="#263238" d="M27.551,10.531h-7.062c-0.056,0-0.1-0.044-0.1-0.1V9.344c0-0.056,0.044-0.1,0.1-0.1h0.91 c0.056,0,0.1,0.044,0.1,0.1v0.475h0.77V9.344c0-0.056,0.044-0.1,0.1-0.1h1.147c0.056,0,0.1,0.044,0.1,0.1v0.475h0.81V9.344 c0-0.056,0.044-0.1,0.1-0.1h1.147c0.056,0,0.1,0.044,0.1,0.1v0.475h0.77V9.344c0-0.056,0.044-0.1,0.1-0.1h0.91 c0.056,0,0.1,0.044,0.1,0.1v1.088C27.65,10.487,27.606,10.531,27.551,10.531z M20.589,10.332h6.862V9.443H26.74v0.475 c0,0.056-0.044,0.1-0.1,0.1h-0.969c-0.056,0-0.1-0.044-0.1-0.1V9.443h-0.948v0.475c0,0.056-0.044,0.1-0.1,0.1h-1.009 c-0.056,0-0.1-0.044-0.1-0.1V9.443h-0.948v0.475c0,0.056-0.044,0.1-0.1,0.1h-0.969c-0.056,0-0.1-0.044-0.1-0.1V9.443h-0.711 V10.332z"/></g><g><path fill="#263238" d="M25.236,18.779h-2.433v-2.915c0-0.542,0.439-0.981,0.981-0.981h0.47 c0.542,0,0.981,0.439,0.981,0.981V18.779z"/></g><g><polygon fill="#d50000" points="29.469,29.401 18.571,29.401 20.054,28.669 27.966,28.669"/><path fill="#263238" d="M29.469,29.5H18.57c-0.047,0-0.087-0.031-0.098-0.077c-0.011-0.045,0.012-0.092,0.054-0.112 l1.483-0.731c0.014-0.007,0.028-0.01,0.044-0.01h7.912c0.016,0,0.03,0.003,0.044,0.01l1.503,0.731 c0.042,0.021,0.063,0.067,0.054,0.112C29.556,29.468,29.516,29.5,29.469,29.5z M18.999,29.301h10.036l-1.093-0.532h-7.865 L18.999,29.301z"/></g><g><rect width="7.971" height="7.912" x="20.034" y="20.757" fill="#d50000"/><path fill="#263238" d="M28.005,28.769h-7.971c-0.056,0-0.1-0.044-0.1-0.1v-7.912c0-0.056,0.044-0.1,0.1-0.1h7.971 c0.056,0,0.1,0.044,0.1,0.1v7.912C28.104,28.725,28.061,28.769,28.005,28.769z M20.134,28.569h7.771v-7.713h-7.771V28.569z"/></g><g><path fill="#263238" d="M18.093,24.495h-0.608c-0.701,0-1.269,0.568-1.269,1.269v2.45h3.145v-2.45 C19.362,25.063,18.794,24.495,18.093,24.495z"/></g><g><path fill="#263238" d="M26.146,28.669h-4.253v-3.388c0-0.947,0.768-1.715,1.715-1.715h0.822 c0.947,0,1.715,0.768,1.715,1.715V28.669z"/></g><g><polygon fill="#d50000" points="28.262,17.869 28.262,18.779 26.957,18.779 26.957,17.869 25.216,17.869 25.216,18.779 22.784,18.779 22.784,17.869 21.043,17.869 21.043,18.779 19.797,18.779 19.797,17.869 18.768,17.869 18.768,18.779 18.768,19.155 18.768,20.065 29.271,20.065 29.271,19.155 29.271,18.779 29.271,17.869"/><path fill="#263238" d="M29.271,20.164H18.769c-0.056,0-0.1-0.044-0.1-0.1v-2.195c0-0.056,0.044-0.1,0.1-0.1h1.028 c0.056,0,0.1,0.044,0.1,0.1v0.811h1.047v-0.811c0-0.056,0.044-0.1,0.1-0.1h1.74c0.056,0,0.1,0.044,0.1,0.1v0.811h2.234v-0.811 c0-0.056,0.044-0.1,0.1-0.1h1.74c0.056,0,0.1,0.044,0.1,0.1v0.811h1.106v-0.811c0-0.056,0.044-0.1,0.1-0.1h1.009 c0.056,0,0.1,0.044,0.1,0.1v2.195C29.371,20.12,29.327,20.164,29.271,20.164z M18.868,19.965h10.304v-1.996h-0.81v0.811 c0,0.056-0.044,0.1-0.1,0.1h-1.306c-0.056,0-0.1-0.044-0.1-0.1v-0.811h-1.541v0.811c0,0.056-0.044,0.1-0.1,0.1h-2.434 c-0.056,0-0.1-0.044-0.1-0.1v-0.811h-1.541v0.811c0,0.056-0.044,0.1-0.1,0.1h-1.246c-0.056,0-0.1-0.044-0.1-0.1v-0.811h-0.829 V19.965z"/></g><g><path fill="#fbc02d" d="M22.04,28.329l1.754,1.106c0,0-0.302,0.223-0.29,0.558s0.391,0.67,0.648,0.67 c0.257,0,0.704-0.089,0.737-0.637c0.011-0.402-0.279-0.536-0.279-0.536l1.419-1.05v-0.57l-1.787,1.217l-2.2-1.34V28.329z"/><path fill="#263238" d="M24.151,30.763c-0.309,0-0.734-0.379-0.748-0.766c-0.008-0.248,0.127-0.44,0.228-0.547 l-1.645-1.036c-0.028-0.019-0.046-0.051-0.046-0.085v-0.581c0-0.036,0.02-0.069,0.051-0.087s0.07-0.017,0.101,0.002l2.146,1.307 l1.733-1.182c0.032-0.019,0.071-0.021,0.104-0.006c0.032,0.018,0.053,0.052,0.053,0.089v0.569c0,0.031-0.015,0.062-0.04,0.08 l-1.31,0.969c0.1,0.092,0.219,0.262,0.21,0.54C24.96,30.49,24.647,30.763,24.151,30.763z M22.14,28.274l1.708,1.075 c0.027,0.018,0.045,0.048,0.046,0.081c0.002,0.033-0.014,0.064-0.04,0.084c-0.002,0.002-0.26,0.198-0.251,0.476 c0.011,0.289,0.354,0.573,0.549,0.573c0.226,0,0.607-0.071,0.637-0.543c0.009-0.323-0.213-0.436-0.223-0.439 c-0.031-0.016-0.053-0.047-0.057-0.081c-0.003-0.035,0.012-0.069,0.04-0.09l1.379-1.021v-0.329l-1.631,1.111 c-0.033,0.021-0.075,0.022-0.108,0.002l-2.049-1.248V28.274z"/></g><g><path fill="#263238" d="M24.067,32.818c-0.392,0-0.709-0.317-0.709-0.708v-1.553c0-0.392,0.317-0.709,0.709-0.709 c0.056,0,0.1,0.044,0.1,0.1s-0.044,0.1-0.1,0.1c-0.281,0-0.51,0.229-0.51,0.51v1.553c0,0.28,0.229,0.509,0.51,0.509 c0.28,0,0.509-0.229,0.509-0.509v-1.553c0-0.056,0.044-0.1,0.1-0.1s0.1,0.044,0.1,0.1v1.553 C24.775,32.501,24.458,32.818,24.067,32.818z"/></g></svg>