<svg xmlns="http://www.w3.org/2000/svg"  viewBox="0 0 48 48" width="100px" height="100px"><path fill="#43a047" d="M7.234,13.118l12.812,9.549l20.146,13.041C42.577,32.415,44,28.378,44,24c0-11.046-8.954-20-20-20 C16.971,4,10.8,7.634,7.234,13.118z"/><path fill="#3f51b5" d="M24,44c6.828,0,12.85-3.427,16.458-8.649L7.542,12.649C5.313,15.875,4,19.782,4,24 C4,35.046,12.954,44,24,44z"/><circle cx="24" cy="24" r="5" fill="#ffca28"/><path fill="#43a047" d="M26.328,20.872c0,0-0.159,0.477-0.663,0.557c-0.027,1.06-2.174,1.829-2.969,1.802 c-0.133-0.186-0.265-0.451-0.265-0.451s-0.239,0.371-0.716,0.08c-0.477-0.292-1.007-1.14-1.007-1.14s-0.265,0.265-0.186,0.557 C20.602,22.569,21,22.781,21,22.781v0.583c0,0-0.398,0-0.424,0.159c-0.027,0.159,0.106,0.53-0.08,0.636 c-0.186,0.106-0.769,0.504-0.742,0.636c0.027,0.133,0.371,0.186,0.371,0.186s0.08-0.053,0.053-0.133s-0.027-0.08-0.027-0.08 l0.212-0.212c0,0,1.219,0.133,1.458,0.053s0.371,0.345,0.848,0.186c0.504,0.451,1.113,0.477,1.484,0.318 c0.212,0.371,0.159,0.186,0.212,0.557c0.053,0.371-0.106,1.935-0.106,1.935l1.113,0.239l0.08-0.928c0,0,0.53-1.299,0.371-1.802 c-0.159-0.504,0.053-0.424,0.053-0.424s0.424,0,0.557-0.398c0.133-0.398,0.716-0.981,1.034-1.007 c0.318-0.027,0.159-0.292,0.159-0.292l-0.504-0.318c0,0,0.318-0.769,0.186-1.113c-0.133-0.345-0.053-0.716-0.053-0.716 s-0.398,0.345-0.583,0.265C26.487,21.031,26.328,20.872,26.328,20.872z"/><path fill="#ffca28" d="M35.065,13.221c0.155,0.207,0.389-0.88,0.287-1.085c-0.102-0.205-0.491-0.389-0.717-0.778 c-0.225-0.389-0.205-0.737-0.368-0.798s-0.348-0.921-0.471-1.126s-0.205-0.553,0.328-0.123s1.965,1.638,2.027,2.047 s0.225,0.819,0.368,1.781c0.143,0.962,0.331,1.507,0.594,1.392c0.655-0.287,1.249,0.041,1.433,0.307 c0.184,0.266-0.553,0.573-0.737,0.635s-2.743,0.86-3.746,1.535c-1.003,0.676-1.51,1.194-3.496,1.154 c-1.986-0.041-2.482-0.519-2.564-0.662s2.395,0.512,3.398,0.205s3.112-1.679,3.112-1.679s0.573-0.778,0.491-1.126 c-0.082-0.348-1.761-1.433-2.17-1.638s-1.167-1.044-1.228-1.208c-0.061-0.164,0.266-0.041,1.003,0.164 C33.345,12.423,34.574,12.566,35.065,13.221z"/><polygon fill="#fff" points="15.584,21.788 16.021,22.795 17.082,22.509 16.566,23.479 17.451,24.129 16.372,24.331 16.415,25.429 15.584,24.71 14.753,25.429 14.796,24.331 13.717,24.129 14.602,23.479 14.087,22.509 15.147,22.795"/><polygon fill="#fff" points="12.796,32.204 13.233,33.212 14.294,32.925 13.779,33.895 14.664,34.545 13.584,34.747 13.627,35.845 12.796,35.127 11.965,35.845 12.009,34.747 10.929,34.545 11.814,33.895 11.299,32.925 12.359,33.212"/><polygon fill="#fff" points="8.062,23.682 8.499,24.689 9.559,24.403 9.044,25.373 9.929,26.023 8.849,26.225 8.893,27.322 8.062,26.604 7.231,27.322 7.274,26.225 6.194,26.023 7.079,25.373 6.564,24.403 7.625,24.689"/><polygon fill="#fff" points="10.849,18 11.287,19.008 12.347,18.721 11.832,19.691 12.717,20.341 11.637,20.543 11.68,21.641 10.849,20.923 10.018,21.641 10.062,20.543 8.982,20.341 9.867,19.691 9.352,18.721 10.412,19.008"/><polygon fill="#fff" points="13.472,27.212 13.779,28.032 14.654,28.072 13.969,28.617 14.203,29.462 13.472,28.979 12.741,29.462 12.974,28.617 12.289,28.072 13.164,28.032"/></svg>