<svg xmlns="http://www.w3.org/2000/svg"  viewBox="0 0 48 48" width="30px" height="30px"><path fill="#3f51b5" d="M43.598,20C41.745,10.871,33.676,4,24,4c-0.338,0-0.667,0.034-1,0.05V20H43.598z"/><path fill="#3f51b5" d="M4.402,28C5.634,34.071,9.625,39.126,15,41.843V28H4.402z"/><path fill="#3f51b5" d="M15,6.157C9.625,8.874,5.634,13.929,4.402,20H15V6.157z"/><path fill="#3f51b5" d="M23,43.95c0.333,0.017,0.662,0.05,1,0.05c9.676,0,17.745-6.871,19.598-16H23V43.95z"/><path fill="#eceff1" d="M17,5.284c-0.685,0.256-1.353,0.545-2,0.873V20H4.402c-0.133,0.656-0.233,1.323-0.301,2H17V5.284z"/><path fill="#eceff1" d="M4.101,26c0.067,0.677,0.167,1.344,0.301,2H15v13.843c0.647,0.327,1.315,0.616,2,0.873V26H4.101z"/><path fill="#eceff1" d="M23,20V4.05c-0.676,0.034-1.343,0.099-2,0.199V22h22.899c-0.067-0.677-0.167-1.344-0.301-2H23z"/><path fill="#eceff1" d="M21,43.751c0.657,0.099,1.324,0.165,2,0.199V28h20.598c0.133-0.656,0.233-1.323,0.301-2H21V43.751z"/><path fill="#ff3d00" d="M21,4.249c-1.386,0.209-2.723,0.557-4,1.035V22H4.101C4.036,22.658,4,23.325,4,24 s0.036,1.342,0.101,2H17v16.716c1.277,0.478,2.614,0.826,4,1.035V26h22.899C43.964,25.342,44,24.675,44,24s-0.036-1.342-0.101-2H21 V4.249z"/></svg>