<svg xmlns="http://www.w3.org/2000/svg"  viewBox="0 0 48 48" width="50px" height="50px"><path fill="#283593" d="M44,24c0,11.046-8.954,20-20,20S4,35.046,4,24c0-2.216,0.36-4.348,1.026-6.341 C6.311,13.812,14.489,11,14.489,11s0.04-4.693,1.507-5.334C18.447,4.594,21.154,4,24,4C35.046,4,44,12.954,44,24z"/><path fill="#4caf50" d="M32.677,29.264l-0.029,0.122c0.179,0.069,0.368,0.141,0.567,0.218L32.677,29.264z"/><path fill="#263238" d="M33.215,29.653c-0.006,0-0.012-0.001-0.018-0.003c-0.199-0.077-0.388-0.149-0.566-0.218 c-0.023-0.009-0.037-0.034-0.031-0.059l0.028-0.122c0.004-0.016,0.015-0.028,0.03-0.034c0.015-0.007,0.031-0.006,0.045,0.004 l0.538,0.34c0.022,0.014,0.03,0.041,0.019,0.064C33.251,29.644,33.233,29.653,33.215,29.653z M32.707,29.354 c0.017,0.007,0.034,0.013,0.051,0.02l-0.048-0.03L32.707,29.354z"/><path fill="#4caf50" d="M35.257,32.48c-0.178-0.712-0.623-1.475-1.119-1.932c-0.264-0.244-0.945-0.661-1.529-1 l-0.242,1.031c0.832,0.488,1.603,0.965,1.745,1.139c0.331,0.407,0.598,1.932,0.598,2.136c0,0.203-0.369,0.623-1.042,0.051 c0.038,1.348,1.042,0.763,1.042,0.763s-0.267,0.737-0.292,1.093c-0.025,0.356-0.178,0.979-0.178,0.979s-0.47,0.674,0.076,0.191 c0.547-0.483,1.182-1.22,1.233-2.53c0.305,0.547,1.055,0.636,1.182-0.407C35.69,34.362,35.435,33.192,35.257,32.48z"/><path fill="#263238" d="M34.067,37.155c-0.018,0-0.031-0.007-0.043-0.018c-0.026-0.023-0.075-0.067,0.169-0.419 c0.02-0.078,0.151-0.638,0.175-0.963c0.02-0.276,0.18-0.769,0.256-0.992c-0.148,0.062-0.419,0.138-0.646,0.012 s-0.348-0.419-0.36-0.87c-0.001-0.02,0.011-0.037,0.028-0.046c0.017-0.011,0.039-0.007,0.054,0.007 c0.394,0.335,0.648,0.295,0.766,0.24c0.135-0.062,0.195-0.186,0.195-0.253c0-0.208-0.266-1.709-0.587-2.104 c-0.081-0.1-0.446-0.376-1.731-1.128c-0.019-0.011-0.028-0.033-0.023-0.055l0.242-1.031c0.004-0.016,0.015-0.028,0.029-0.034 c0.013-0.007,0.03-0.006,0.045,0.003c0.804,0.469,1.321,0.808,1.537,1.007c0.508,0.47,0.953,1.237,1.134,1.958l0,0l0.017,0.066 c0.122,0.494,0.29,1.17,0.713,1.398c0.191,0.103,0.413,0.105,0.68,0.013c0.016-0.007,0.033-0.003,0.048,0.008 c0.014,0.011,0.021,0.028,0.019,0.045c-0.059,0.477-0.26,0.782-0.552,0.84c-0.229,0.041-0.469-0.069-0.64-0.287 c-0.095,1.262-0.749,1.98-1.241,2.415C34.189,37.108,34.114,37.155,34.067,37.155z M34.711,34.617 c0.012,0,0.022,0.004,0.032,0.012c0.016,0.014,0.021,0.035,0.015,0.055c-0.003,0.008-0.266,0.735-0.29,1.08 c-0.025,0.356-0.173,0.962-0.179,0.987c-0.002,0.006-0.004,0.012-0.008,0.017c-0.06,0.085-0.122,0.187-0.155,0.253 c0.033-0.023,0.083-0.062,0.157-0.128c0.54-0.478,1.166-1.192,1.217-2.495c0.001-0.022,0.017-0.041,0.038-0.047 s0.045,0.006,0.056,0.024c0.146,0.262,0.393,0.415,0.617,0.365c0.231-0.045,0.397-0.289,0.461-0.675 c-0.259,0.076-0.489,0.061-0.683-0.044c-0.463-0.249-0.637-0.95-0.764-1.462l-0.017-0.067c-0.176-0.702-0.609-1.451-1.104-1.907 c-0.205-0.19-0.696-0.514-1.461-0.961l-0.219,0.93c1.022,0.599,1.604,0.979,1.728,1.133c0.341,0.42,0.608,1.947,0.608,2.167 c0,0.112-0.087,0.267-0.253,0.344c-0.13,0.061-0.397,0.107-0.784-0.185c0.025,0.351,0.128,0.577,0.304,0.675 c0.273,0.156,0.654-0.062,0.658-0.063C34.693,34.619,34.702,34.617,34.711,34.617z"/><path fill="#ffd600" d="M31.108,27.365c0,0,0.814,1.543,1.899,2.255c1.085,0.712,2.17,1.915,1.746,4.289 c-0.356-2.136-1.492-2.814-2.288-3.458c-0.692-0.559-2.492-1.814-2.492-1.814L31.108,27.365z"/><path fill="#263238" d="M34.752,33.958L34.752,33.958c-0.024,0-0.045-0.018-0.05-0.042 c-0.316-1.901-1.261-2.638-2.02-3.229c-0.086-0.067-0.17-0.133-0.25-0.197c-0.683-0.553-2.472-1.799-2.489-1.812 c-0.012-0.008-0.02-0.021-0.021-0.035s0.003-0.028,0.013-0.039l1.136-1.271c0.011-0.013,0.027-0.016,0.043-0.017 c0.017,0.002,0.03,0.012,0.038,0.026c0.009,0.016,0.821,1.539,1.883,2.236c1.531,1.006,2.108,2.425,1.767,4.339 C34.797,33.94,34.776,33.958,34.752,33.958z M30.047,28.628c0.286,0.2,1.825,1.279,2.448,1.783c0.08,0.064,0.163,0.13,0.249,0.196 c0.733,0.572,1.637,1.276,2.003,3.006c0.229-1.727-0.352-3.021-1.768-3.951c-0.959-0.63-1.715-1.913-1.882-2.211L30.047,28.628z"/><path fill="#ffd600" d="M27.299,26.581c0,0-1.691,1.729-3.865,0.954c-0.14,0.267,0.648,0.915,0.648,0.915 s0.763,0.305,1.767-0.089c-1.081,0.559-1.093,0.547-1.678,0.661c-0.585,0.114-1.932,0.445-2.301,1.271 c-0.369,0.826,0.267,1.182,0.267,1.182s0.776-0.75,1.805-1.182s3.293-1.284,3.293-1.284s-1.983,1.081-2.479,1.538 s-0.941,1.22-1.119,1.932c-0.178,0.712-0.432,1.882-1.475,1.513c0.127,1.042,0.877,0.954,1.182,0.407 c0.051,1.309,0.687,2.047,1.233,2.53c0.547,0.483,0.076-0.191,0.076-0.191s-0.153-0.623-0.178-0.979 c-0.025-0.356-0.292-1.093-0.292-1.093s1.004,0.585,1.042-0.763c-0.674,0.572-1.042,0.153-1.042-0.051s0.267-1.729,0.598-2.136 s4.068-2.454,4.068-2.454l-0.178-1.348L27.299,26.581z"/><path fill="#263238" d="M24.827,37.155c-0.047,0-0.122-0.047-0.282-0.188c-0.492-0.435-1.146-1.153-1.241-2.415 c-0.171,0.218-0.41,0.329-0.64,0.287c-0.292-0.058-0.492-0.363-0.551-0.84c-0.002-0.017,0.005-0.034,0.019-0.045 c0.014-0.01,0.031-0.012,0.048-0.008c0.268,0.094,0.488,0.091,0.678-0.013c0.423-0.227,0.592-0.902,0.714-1.396l0.018-0.069 c0.18-0.719,0.624-1.487,1.133-1.958c0.326-0.301,1.267-0.856,1.895-1.213c-0.749,0.285-1.976,0.757-2.654,1.042 c-1.009,0.423-1.783,1.164-1.79,1.172c-0.017,0.016-0.04,0.018-0.06,0.008c-0.007-0.004-0.67-0.388-0.288-1.246 c0.358-0.804,1.618-1.159,2.337-1.3l0.075-0.015c0.417-0.082,0.529-0.104,1.117-0.399c-0.746,0.149-1.264-0.054-1.29-0.062 c-0.005-0.002-0.009-0.005-0.014-0.008c-0.083-0.069-0.814-0.684-0.66-0.979c0.012-0.021,0.041-0.032,0.061-0.023 c2.123,0.754,3.796-0.925,3.812-0.941c0.02-0.02,0.052-0.019,0.071-0.001l1.373,1.335c0.008,0.008,0.013,0.019,0.015,0.029 l0.178,1.348c0.003,0.021-0.008,0.041-0.025,0.051c-0.038,0.021-3.732,2.047-4.054,2.441c-0.321,0.396-0.587,1.896-0.587,2.104 c0,0.067,0.061,0.19,0.195,0.253c0.117,0.057,0.371,0.096,0.766-0.24c0.015-0.014,0.037-0.017,0.054-0.007 c0.018,0.009,0.029,0.026,0.028,0.046c-0.013,0.451-0.134,0.744-0.36,0.87c-0.226,0.124-0.496,0.05-0.646-0.012 c0.076,0.224,0.236,0.716,0.256,0.992c0.023,0.325,0.155,0.885,0.174,0.963c0.245,0.353,0.196,0.396,0.17,0.419 C24.858,37.148,24.845,37.155,24.827,37.155z M23.345,34.35c0.004,0,0.008,0,0.012,0.001c0.021,0.006,0.037,0.024,0.038,0.047 c0.051,1.303,0.677,2.018,1.217,2.495c0.074,0.065,0.124,0.104,0.157,0.128c-0.033-0.066-0.096-0.168-0.155-0.253 c-0.004-0.005-0.006-0.011-0.008-0.017c-0.006-0.025-0.153-0.631-0.179-0.987c-0.024-0.345-0.287-1.072-0.29-1.08 c-0.007-0.02-0.001-0.041,0.015-0.055c0.018-0.013,0.04-0.017,0.058-0.005c0.004,0.001,0.384,0.22,0.658,0.063 c0.176-0.098,0.278-0.324,0.304-0.675c-0.387,0.292-0.654,0.244-0.784,0.185c-0.166-0.077-0.253-0.231-0.253-0.344 c0-0.22,0.268-1.747,0.608-2.167c0.321-0.396,3.673-2.241,4.054-2.45l-0.171-1.297l-1.326-1.289 c-0.257,0.241-1.847,1.627-3.832,0.948c-0.015,0.19,0.37,0.584,0.641,0.808c0.077,0.028,0.801,0.271,1.724-0.092 c0.025-0.01,0.053,0.002,0.064,0.026c0.011,0.024,0.001,0.053-0.022,0.064c-1.04,0.538-1.105,0.552-1.618,0.651l-0.074,0.015 c-0.7,0.137-1.925,0.48-2.265,1.243c-0.303,0.679,0.097,1.017,0.215,1.099c0.151-0.14,0.876-0.781,1.792-1.165 c1.02-0.429,3.272-1.276,3.295-1.285c0.025-0.007,0.052,0.002,0.063,0.026c0.011,0.023,0.001,0.052-0.022,0.064 c-0.02,0.011-1.983,1.082-2.469,1.531c-0.496,0.458-0.929,1.207-1.104,1.907l-0.018,0.07c-0.128,0.511-0.302,1.211-0.764,1.46 c-0.194,0.104-0.424,0.117-0.682,0.043c0.063,0.386,0.229,0.63,0.46,0.675c0.228,0.05,0.472-0.104,0.617-0.365 C23.31,34.359,23.327,34.35,23.345,34.35z"/><path fill="#ffd600" d="M24.896,37.566c0,0-0.292,0.203-0.203,0.61c0.089,0.407,0.025,0.712-0.14,0.839 c0.331,0.254,0.42-0.013,0.42-0.013s0.292,0.229,0.407-0.038c0.331-0.013,0.305-0.229,0.305-0.229s0.28,0.038,0.267-0.318 c0.318-0.013,0.318-0.216,0.318-0.216s-0.318,0.013-0.598-0.267S25.341,37.426,24.896,37.566z"/><path fill="#263238" d="M24.802,39.175c-0.082,0-0.176-0.04-0.279-0.12c-0.013-0.01-0.02-0.024-0.02-0.04 s0.007-0.03,0.02-0.04c0.154-0.119,0.201-0.421,0.121-0.788c-0.095-0.435,0.21-0.653,0.224-0.662 c0.004-0.003,0.009-0.005,0.014-0.007c0.383-0.118,0.508,0.023,0.68,0.221c0.043,0.05,0.09,0.104,0.146,0.161 c0.244,0.244,0.522,0.252,0.557,0.252c0.002,0,0.003,0,0.003,0c0.018,0,0.026,0.005,0.037,0.014 c0.009,0.01,0.015,0.022,0.015,0.036c0,0.002-0.004,0.229-0.317,0.263c-0.004,0.11-0.037,0.195-0.1,0.252 c-0.057,0.052-0.124,0.066-0.17,0.069c-0.006,0.033-0.021,0.075-0.054,0.114c-0.056,0.065-0.146,0.104-0.267,0.112 c-0.035,0.066-0.085,0.108-0.148,0.125c-0.098,0.026-0.211-0.025-0.272-0.062c-0.023,0.033-0.062,0.073-0.121,0.091 C24.848,39.172,24.825,39.175,24.802,39.175z M24.632,39.01c0.082,0.054,0.149,0.077,0.208,0.06 c0.062-0.018,0.085-0.083,0.086-0.084c0.005-0.015,0.018-0.026,0.033-0.031c0.013-0.003,0.032-0.001,0.045,0.009 c0.035,0.028,0.15,0.096,0.234,0.076c0.041-0.01,0.072-0.041,0.095-0.095c0.008-0.018,0.024-0.029,0.044-0.03 c0.104-0.004,0.182-0.031,0.224-0.078c0.038-0.044,0.034-0.094,0.034-0.096c-0.001-0.015,0.004-0.03,0.016-0.041 c0.01-0.01,0.025-0.016,0.041-0.014c0-0.001,0.084,0.011,0.144-0.045c0.048-0.043,0.07-0.118,0.066-0.222 c-0.001-0.027,0.021-0.051,0.048-0.052c0.17-0.007,0.233-0.072,0.256-0.119c-0.112-0.011-0.351-0.061-0.568-0.278 c-0.059-0.059-0.107-0.115-0.152-0.166c-0.165-0.191-0.249-0.288-0.565-0.193c-0.04,0.03-0.252,0.213-0.178,0.555 C24.823,38.539,24.781,38.848,24.632,39.01z"/><path fill="#ffd600" d="M24.527,36.663c0,0-0.203,0.089-0.114,0.28c0.089,0.191,0,0.42,0.089,0.623 c0.089,0.203,0.394,0.267,0.534,0.191c0.14-0.076,0.292-0.305,0.165-0.509c-0.127-0.203-0.331-0.407-0.407-0.547 C24.718,36.561,24.527,36.663,24.527,36.663z"/><path fill="#263238" d="M24.892,37.837c-0.057,0-0.118-0.01-0.176-0.03c-0.124-0.042-0.216-0.121-0.26-0.221 c-0.049-0.111-0.049-0.227-0.049-0.337c0-0.103,0-0.2-0.039-0.285c-0.031-0.067-0.036-0.132-0.014-0.191 c0.037-0.098,0.135-0.146,0.15-0.154c0.081-0.043,0.254-0.086,0.333,0.059c0.035,0.065,0.104,0.149,0.177,0.239 c0.076,0.094,0.163,0.199,0.229,0.306c0.055,0.086,0.069,0.186,0.043,0.286c-0.031,0.119-0.12,0.234-0.226,0.292 C25.015,37.824,24.955,37.837,24.892,37.837z M24.662,36.677c-0.053,0-0.107,0.028-0.111,0.03 c-0.001,0.001-0.002,0.001-0.003,0.002c-0.001,0-0.076,0.034-0.1,0.099c-0.013,0.034-0.01,0.071,0.01,0.113 c0.05,0.105,0.05,0.219,0.05,0.328c0,0.105,0,0.204,0.04,0.296c0.044,0.101,0.145,0.148,0.2,0.167 c0.097,0.033,0.202,0.033,0.265,0c0.065-0.036,0.148-0.123,0.177-0.229c0.02-0.074,0.009-0.145-0.03-0.208 c-0.062-0.101-0.144-0.199-0.222-0.296c-0.076-0.093-0.147-0.181-0.188-0.253C24.73,36.688,24.696,36.677,24.662,36.677z M24.527,36.663L24.527,36.663L24.527,36.663z"/><path fill="#4caf50" d="M27.812,27.365c0,0-0.814,1.543-1.899,2.255c-1.085,0.712-2.17,1.915-1.746,4.289 c0.356-2.136,1.492-2.814,2.288-3.458c0.692-0.559,2.492-1.814,2.492-1.814L27.812,27.365z"/><path fill="#263238" d="M24.167,33.958c-0.024,0-0.045-0.018-0.049-0.041c-0.343-1.914,0.236-3.334,1.768-4.339 c1.062-0.697,1.873-2.221,1.882-2.236c0.008-0.015,0.021-0.024,0.038-0.026c0.015,0.001,0.032,0.004,0.043,0.017l1.136,1.271 c0.01,0.011,0.015,0.024,0.013,0.039s-0.01,0.027-0.021,0.035c-0.018,0.013-1.806,1.26-2.489,1.812 c-0.08,0.065-0.164,0.131-0.251,0.198c-0.758,0.592-1.702,1.328-2.019,3.229C24.212,33.94,24.191,33.958,24.167,33.958 L24.167,33.958z M27.821,27.451c-0.167,0.298-0.922,1.581-1.881,2.211c-1.417,0.93-1.998,2.225-1.769,3.952 c0.366-1.729,1.27-2.434,2.002-3.006c0.086-0.067,0.17-0.132,0.25-0.197c0.624-0.504,2.162-1.583,2.448-1.783L27.821,27.451z"/><path fill="#2962ff" d="M29.066,29.137h-0.113h-3.701c0,0,0,0.102,0,4.145c0,4.472,3.624,6.166,3.751,6.224v0.006 c0,0,0.005-0.003,0.006-0.003c0.001,0,0.006,0.003,0.006,0.003v-0.006c0.127-0.058,3.751-1.752,3.751-6.224 c0-4.043,0-4.145,0-4.145H29.066z"/><path fill="#4caf50" d="M29.003,39.505v0.006c0,0,0.005-0.003,0.006-0.003c0.001,0,0.006,0.003,0.006,0.003v-0.006 c0.099-0.045,2.308-1.086,3.286-3.651l-3.286-6.194l-3.293,6.208C26.703,38.423,28.905,39.46,29.003,39.505z"/><path fill="#ffd600" d="M28.862,33.438l-0.057,4.767c0,0-0.144-0.239-0.469-0.383c-0.347-0.153-0.641-0.431-0.641-0.431 l0.421,0.01c0,0-0.163-0.469-0.45-0.641c-0.287-0.172-0.546-0.383-0.546-0.383s-0.115,1.072,0.077,1.378 c0.115-0.134,0.23-0.22,0.23-0.22s0.163,0.325,0.517,0.479c0.354,0.153,0.9,0.526,1.091,0.986 c0.306-0.306,0.632-0.593,0.919-0.766c0.287-0.172,0.603-0.546,0.603-0.546l0.287,0.172c0,0,0.268-0.775,0.191-1.273 c-0.144,0.201-0.335,0.383-0.526,0.431c-0.156,0.039-0.507,0.297-0.507,0.297l0.287,0.22c0,0-0.737,0.584-1.034,0.68 c0-0.354-0.067-4.777-0.067-4.777H28.862z"/><path fill="#263238" d="M29.034,39.049c-0.003,0-0.007,0-0.01-0.001c-0.017-0.003-0.03-0.015-0.036-0.029 c-0.175-0.418-0.674-0.79-1.064-0.959c-0.283-0.122-0.447-0.346-0.512-0.448c-0.042,0.036-0.11,0.098-0.178,0.176 c-0.011,0.013-0.023,0.025-0.042,0.018c-0.016-0.001-0.03-0.01-0.038-0.023c-0.198-0.317-0.089-1.365-0.084-1.409 c0.002-0.019,0.014-0.034,0.03-0.041c0.019-0.009,0.037-0.004,0.051,0.007c0.003,0.002,0.26,0.21,0.54,0.379 c0.3,0.18,0.464,0.647,0.471,0.667c0.006,0.016,0.003,0.033-0.007,0.046c-0.009,0.013-0.024,0.021-0.04,0.021h-0.001l-0.282-0.006 c0.114,0.093,0.31,0.237,0.524,0.332c0.19,0.085,0.321,0.2,0.4,0.286l0.056-4.626c0-0.027,0.022-0.049,0.05-0.049h0.325 c0.027,0,0.05,0.021,0.05,0.049c0.001,0.042,0.062,4.034,0.067,4.705c0.264-0.119,0.745-0.484,0.901-0.606l-0.235-0.181 c-0.013-0.01-0.02-0.024-0.02-0.041c0-0.016,0.008-0.03,0.021-0.039c0.015-0.011,0.362-0.265,0.525-0.306 c0.157-0.039,0.339-0.189,0.497-0.411c0.012-0.016,0.032-0.025,0.053-0.02c0.02,0.005,0.034,0.021,0.038,0.041 c0.077,0.505-0.183,1.266-0.194,1.298c-0.005,0.014-0.016,0.025-0.029,0.03c-0.016,0.004-0.03,0.003-0.043-0.004l-0.252-0.15 c-0.084,0.096-0.343,0.377-0.588,0.523c-0.249,0.15-0.555,0.405-0.909,0.758C29.06,39.044,29.047,39.049,29.034,39.049z M27.427,37.485c0.004,0,0.008,0,0.012,0.001c0.015,0.004,0.026,0.014,0.033,0.026c0.001,0.003,0.159,0.312,0.491,0.455 c0.388,0.168,0.88,0.529,1.087,0.945c0.339-0.333,0.634-0.575,0.878-0.723c0.276-0.165,0.588-0.53,0.591-0.534 c0.016-0.019,0.043-0.023,0.063-0.011l0.233,0.14c0.054-0.17,0.199-0.675,0.182-1.067c-0.112,0.137-0.281,0.3-0.477,0.349 c-0.101,0.025-0.314,0.165-0.436,0.25l0.233,0.179c0.013,0.01,0.02,0.024,0.02,0.04c0,0.015-0.007,0.029-0.019,0.039 c-0.03,0.024-0.747,0.591-1.049,0.688c-0.016,0.003-0.032,0.002-0.045-0.008c-0.013-0.009-0.021-0.024-0.021-0.04 c0-0.33-0.06-4.241-0.066-4.728h-0.227l-0.058,4.719c0,0.021-0.016,0.041-0.037,0.047c-0.021,0.013-0.044-0.003-0.056-0.022 c-0.001-0.002-0.141-0.228-0.446-0.362c-0.352-0.155-0.644-0.429-0.655-0.44c-0.016-0.014-0.02-0.036-0.012-0.055 c0.008-0.02,0.025-0.031,0.046-0.031h0.001l0.346,0.007c-0.056-0.133-0.196-0.424-0.4-0.546c-0.196-0.118-0.381-0.255-0.479-0.33 c-0.021,0.242-0.063,0.907,0.048,1.194c0.098-0.104,0.184-0.169,0.188-0.172C27.405,37.488,27.416,37.485,27.427,37.485z"/><path fill="#ffd600" d="M27.685,34.5c0,0,1.924-0.172,2.68,0c0.153,0.077,0.124,0.402,0.048,0.498 c-0.335,0.038-1.886,0.124-2.709,0C27.57,34.864,27.56,34.634,27.685,34.5z"/><path fill="#263238" d="M28.883,35.113c-0.431,0-0.864-0.017-1.187-0.065c-0.01-0.002-0.02-0.007-0.027-0.015 c-0.153-0.153-0.163-0.413-0.021-0.567c0.009-0.009,0.021-0.015,0.032-0.016c0.08-0.007,1.941-0.171,2.696,0.001 c0.074,0.036,0.118,0.1,0.138,0.189c0.029,0.132,0.001,0.311-0.062,0.389c-0.008,0.011-0.021,0.017-0.033,0.019 C30.191,35.073,29.541,35.113,28.883,35.113z M27.729,34.951c0.793,0.115,2.251,0.042,2.656,0 c0.033-0.061,0.054-0.188,0.031-0.289c-0.009-0.041-0.029-0.096-0.073-0.117c-0.689-0.154-2.426-0.015-2.634,0.003 C27.62,34.66,27.629,34.84,27.729,34.951z"/><path fill="#263238" d="M28.729,35.086c-0.012,0-0.024-0.004-0.034-0.013c-0.021-0.02-0.021-0.051-0.003-0.071 c0.218-0.234,0.023-0.512,0.015-0.523c-0.016-0.022-0.011-0.054,0.012-0.069c0.022-0.018,0.053-0.012,0.069,0.011 c0.089,0.122,0.197,0.414-0.021,0.65C28.755,35.081,28.742,35.086,28.729,35.086z"/><path fill="#263238" d="M29.514,35.086c-0.012,0-0.024-0.004-0.034-0.013c-0.021-0.02-0.021-0.051-0.003-0.071 c0.217-0.234,0.023-0.512,0.015-0.523c-0.016-0.022-0.011-0.054,0.012-0.07c0.021-0.016,0.054-0.011,0.07,0.012 c0.087,0.122,0.195,0.414-0.022,0.65C29.541,35.081,29.527,35.086,29.514,35.086z"/><path fill="#263238" d="M27.867,35.086c-0.012,0-0.024-0.004-0.034-0.013c-0.021-0.02-0.021-0.051-0.003-0.071 c0.217-0.234,0.023-0.512,0.015-0.523c-0.016-0.022-0.011-0.054,0.012-0.07c0.022-0.016,0.055-0.011,0.07,0.012 c0.087,0.122,0.195,0.414-0.022,0.65C27.895,35.081,27.881,35.086,27.867,35.086z"/><polygon fill="#fafafa" points="28.604,31.715 28.345,31.906 28.364,33.323 29.475,33.323 29.714,33.132 29.666,31.744"/><path fill="#263238" d="M29.475,33.373h-1.11c-0.027,0-0.05-0.021-0.05-0.049l-0.019-1.417c0-0.017,0.007-0.031,0.02-0.041 l0.258-0.191c0.009-0.007,0.02-0.01,0.03-0.01h0.001l1.062,0.028c0.026,0.001,0.048,0.021,0.049,0.048l0.048,1.389 c0.001,0.016-0.006,0.031-0.019,0.041l-0.239,0.191C29.497,33.369,29.486,33.373,29.475,33.373z M28.414,33.273h1.043l0.206-0.165 l-0.046-1.316l-0.998-0.026l-0.223,0.166L28.414,33.273z"/><path fill="#263238" d="M28.627,34.417c-0.21,0-0.364-0.126-0.398-0.33c-0.027-0.168,0.004-0.296,0.094-0.38 c0.174-0.165,0.5-0.09,0.513-0.088c0.027,0.006,0.044,0.033,0.038,0.06c-0.007,0.027-0.039,0.047-0.06,0.038 c-0.004,0-0.288-0.063-0.423,0.063c-0.064,0.06-0.085,0.158-0.062,0.291c0.029,0.182,0.17,0.246,0.301,0.246 c0.01,0,0.02-0.001,0.029-0.001c0.173-0.013,0.36-0.134,0.365-0.334c0-0.027,0.022-0.049,0.05-0.049h0.001 c0.027,0,0.05,0.023,0.049,0.051c-0.006,0.26-0.24,0.416-0.458,0.432C28.652,34.417,28.64,34.417,28.627,34.417z"/><path fill="#263238" d="M29.012,39.56c-0.012,0-0.021-0.002-0.032-0.008c-0.003-0.002-0.007-0.004-0.01-0.007 c-0.275-0.129-3.768-1.846-3.768-6.264v-4.145c0-0.027,0.022-0.05,0.05-0.05h7.515c0.027,0,0.05,0.022,0.05,0.05v4.145 c0,4.413-3.483,6.131-3.767,6.263c-0.003,0.003-0.005,0.005-0.008,0.007C29.032,39.556,29.022,39.56,29.012,39.56z M25.302,29.187 v4.095c0,4.344,3.419,6.037,3.708,6.172c0.288-0.135,3.707-1.828,3.707-6.172v-4.095H25.302z"/><path fill="#ffd600" d="M29.003,39.505c-0.094-0.043-2.11-1.007-3.143-3.331l3.155-5.948l3.148,5.935 c-1.031,2.333-3.053,3.301-3.148,3.344c0.103-0.047,2.501-1.183,3.402-3.999l-2.933-5.529l-0.469-0.885l-0.469,0.885l-2.941,5.544 C26.51,38.327,28.9,39.458,29.003,39.505z"/><path fill="#4caf50" d="M27.362,26.899c0,0-0.648,0.865-1.36,1.068c0.102-0.203,0.102-0.407,0.102-0.407 s-0.788,0.254-1.411,0.178c0.826-0.203,1.818-0.585,2.327-1.144C27.528,26.034,27.362,26.899,27.362,26.899z"/><path fill="#263238" d="M26.002,28.017c-0.015,0-0.029-0.006-0.038-0.018c-0.013-0.016-0.016-0.037-0.007-0.055 c0.061-0.12,0.083-0.241,0.092-0.314c-0.209,0.06-0.842,0.22-1.362,0.158c-0.024-0.003-0.043-0.022-0.044-0.047 c-0.002-0.024,0.015-0.046,0.038-0.052c0.494-0.122,1.708-0.477,2.302-1.129c0.159-0.175,0.272-0.234,0.357-0.192 c0.148,0.074,0.092,0.433,0.071,0.541c-0.001,0.007-0.004,0.014-0.009,0.021c-0.027,0.035-0.667,0.88-1.387,1.085 C26.011,28.017,26.007,28.017,26.002,28.017z M26.104,27.511c0.011,0,0.021,0.003,0.029,0.01c0.013,0.009,0.021,0.024,0.021,0.04 c0,0.007-0.001,0.153-0.062,0.324c0.608-0.23,1.156-0.919,1.224-1.006c0.032-0.181,0.032-0.395-0.021-0.421 c-0.005-0.005-0.068-0.019-0.238,0.169c-0.507,0.558-1.441,0.901-2.034,1.074c0.526-0.017,1.06-0.187,1.065-0.188 C26.093,27.512,26.099,27.511,26.104,27.511z M27.362,26.899L27.362,26.899L27.362,26.899z"/><path fill="#a1887f" d="M26.775,26.306c0,0,1.082,1.378,1.206,1.924c-0.268,0.163-0.622,0.929-0.144,1.694 c0.948-0.105,1.656-0.785,1.656-0.785h2.029c0,0,0.211-0.823-0.412-1.082c-0.163-0.373-0.306-2.613-0.306-2.613l-2.412,0.057 L26.775,26.306z"/><path fill="#263238" d="M27.838,29.975c-0.018,0-0.033-0.009-0.042-0.023c-0.224-0.357-0.297-0.768-0.205-1.155 c0.068-0.287,0.211-0.495,0.334-0.587c-0.154-0.55-1.178-1.858-1.188-1.871c-0.01-0.012-0.013-0.027-0.01-0.042 s0.013-0.027,0.026-0.034l1.618-0.805c0.007-0.003,0.014-0.005,0.021-0.005l2.412-0.057h0.001c0.026,0,0.048,0.021,0.05,0.047 c0.002,0.021,0.141,2.167,0.295,2.578c0.632,0.28,0.424,1.123,0.422,1.132c-0.006,0.021-0.026,0.037-0.049,0.037h-2.01 c-0.109,0.102-0.78,0.687-1.67,0.785C27.842,29.975,27.84,29.975,27.838,29.975z M26.853,26.324 c0.195,0.253,1.064,1.396,1.178,1.896c0.005,0.021-0.005,0.042-0.022,0.054c-0.111,0.067-0.253,0.262-0.319,0.546 c-0.083,0.352-0.021,0.724,0.176,1.052c0.903-0.113,1.589-0.761,1.596-0.768c0.009-0.009,0.021-0.014,0.034-0.014h1.989 c0.032-0.16,0.118-0.774-0.392-0.985c-0.012-0.005-0.021-0.014-0.026-0.026c-0.152-0.351-0.284-2.246-0.307-2.582l-2.353,0.056 L26.853,26.324z"/><path fill="#263238" d="M28.192,28.922c-0.022,0-0.042-0.015-0.048-0.037c-0.057-0.207-0.162-0.53-0.163-0.533 c-0.008-0.026,0.006-0.055,0.032-0.063c0.027-0.006,0.055,0.008,0.063,0.032c0.001,0.004,0.106,0.329,0.163,0.539 c0.008,0.026-0.008,0.054-0.035,0.061C28.201,28.922,28.196,28.922,28.192,28.922z"/><path fill="#263238" d="M27.934,29.592c-0.004,0-0.007,0-0.011-0.001c-0.027-0.006-0.044-0.033-0.038-0.06 c0.005-0.023,0.126-0.561,0.184-0.715c0.008-0.02,0.026-0.032,0.047-0.032c0.001,0,0.002,0,0.004,0 c0.021,0.002,0.044,0.002,0.065,0.002c0.461,0,0.851-0.35,0.854-0.354c0.021-0.02,0.053-0.019,0.071,0.004 c0.019,0.02,0.017,0.052-0.003,0.07c-0.019,0.016-0.423,0.38-0.922,0.38c-0.012,0-0.023,0-0.035-0.001 c-0.059,0.184-0.167,0.662-0.168,0.667C27.978,29.576,27.956,29.592,27.934,29.592z"/><path fill="#263238" d="M31.111,28.108c-0.007,0-0.015-0.001-0.021-0.005c-0.388-0.181-0.994-0.046-1-0.044 c-0.028,0.004-0.054-0.011-0.061-0.037c-0.006-0.027,0.011-0.054,0.037-0.061s0.645-0.146,1.066,0.052 c0.024,0.012,0.035,0.041,0.023,0.066C31.148,28.098,31.13,28.108,31.111,28.108z"/><path fill="#263238" d="M27.082,26.306c0,0,1.034,1.359,1.12,2.46c0.048-0.67-0.316-2.077-0.316-2.077l0.44,0.852 l-0.096-0.708l0.258,0.335c0,0-0.182-0.613,0.201-0.823c0.383-0.211,1.13-0.507,1.493-0.488c0.364,0.019,0.613,0.029,0.613,0.029 l-0.038-0.45l-0.89-0.268l-1.838,0.737L27.082,26.306z"/><path fill="#263238" d="M28.202,28.816c-0.026,0-0.048-0.02-0.05-0.046c-0.085-1.073-1.1-2.42-1.11-2.434 c-0.009-0.013-0.013-0.028-0.008-0.043c0.004-0.015,0.014-0.027,0.028-0.033l0.947-0.402l1.839-0.738 c0.011-0.004,0.022-0.003,0.033-0.001l0.891,0.269c0.02,0.006,0.033,0.023,0.035,0.044l0.038,0.449 c0.001,0.014-0.004,0.028-0.014,0.038c-0.011,0.01-0.026,0.017-0.038,0.016c0,0-0.249-0.009-0.613-0.028 c-0.011,0-0.021-0.001-0.032-0.001c-0.359,0-1.066,0.28-1.434,0.483c-0.344,0.188-0.18,0.76-0.178,0.765 c0.007,0.023-0.004,0.048-0.025,0.06c-0.021,0.008-0.048,0.005-0.062-0.015l-0.145-0.187l0.071,0.522 c0.003,0.024-0.012,0.047-0.035,0.055c-0.024,0.004-0.048-0.004-0.059-0.024l-0.253-0.488c0.105,0.469,0.255,1.24,0.223,1.694 C28.25,28.796,28.229,28.816,28.202,28.816L28.202,28.816z M27.16,26.328c0.151,0.207,0.697,0.988,0.958,1.798 c-0.084-0.659-0.278-1.414-0.281-1.424c-0.006-0.024,0.007-0.051,0.031-0.06c0.024-0.008,0.05,0.002,0.062,0.023l0.309,0.596 l-0.058-0.422c-0.003-0.022,0.01-0.044,0.03-0.053c0.021-0.009,0.045-0.003,0.06,0.016l0.132,0.17 c-0.022-0.211-0.004-0.524,0.264-0.672c0.399-0.22,1.151-0.518,1.521-0.494c0.26,0.014,0.462,0.022,0.555,0.026l-0.03-0.359 l-0.842-0.254l-1.821,0.731L27.16,26.328z"/><path fill="#263238" d="M29.494,29.189c-0.012,0-0.023-0.004-0.033-0.012c-0.021-0.019-0.022-0.05-0.005-0.071 c0.543-0.622,1.201-0.768,1.501-0.725c0.266,0.043,0.356,0.312,0.367,0.448c0.002,0.027-0.019,0.052-0.046,0.054 c-0.001,0-0.003,0-0.004,0c-0.025,0-0.048-0.02-0.05-0.046c-0.001-0.013-0.029-0.316-0.283-0.356 c-0.28-0.05-0.894,0.101-1.409,0.691C29.521,29.184,29.508,29.189,29.494,29.189z"/><path fill="#4caf50" d="M25.849,28.361c0,0-1.449,0.725-2.479,0.013c-1.03-0.712-0.509-1.093-1.576-1.233 c-1.068-0.14-0.928-0.509-0.928-0.509l0.547-0.292c0,0-0.572-0.369-0.572-1.068c0.318,0.102,0.776-0.089,1.004,0.242 c-0.013-0.331,0.165-0.534,0.165-0.534s0.076,0.242,0.318,0.47c0.242,0.229,0.292,0.623,0.292,0.623s0.623-2.594,0.648-2.962 c0.025-0.369-0.292-0.598-0.292-0.598l0.356-0.305c0,0,0.941,0.051,0.954,0.966c0.013,0.915-0.687,2.505-0.687,2.505 s0.915-1.17,1.208-1.259s0.839-0.331,0.992-0.534c0.076,0.331-0.038,0.61-0.038,0.61s0.763,0.203,1.22,0.051 c-0.229,0.725-1.055,1.017-1.411,0.992c0.369,0.534-0.14,0.954-0.28,1.004c0.153-0.445-0.305-0.814-0.852-0.509 s-1.042,1.004-0.839,1.716C23.803,28.463,24.794,28.692,25.849,28.361z"/><path fill="#263238" d="M24.462,28.739c-0.373,0-0.769-0.081-1.12-0.324c-0.457-0.316-0.619-0.575-0.736-0.765 c-0.149-0.24-0.239-0.385-0.818-0.46c-0.511-0.067-0.826-0.195-0.938-0.38c-0.062-0.104-0.033-0.188-0.03-0.196 c0.005-0.012,0.013-0.021,0.023-0.026l0.476-0.255c-0.155-0.124-0.527-0.481-0.527-1.062c0-0.016,0.008-0.031,0.021-0.04 c0.013-0.01,0.026-0.011,0.045-0.008c0.106,0.034,0.23,0.033,0.363,0.032c0.203,0.001,0.417-0.004,0.579,0.133 c0.026-0.271,0.167-0.435,0.173-0.442c0.012-0.013,0.03-0.021,0.048-0.016c0.019,0.004,0.032,0.017,0.038,0.033 c0.001,0.003,0.076,0.233,0.305,0.449c0.137,0.13,0.215,0.306,0.258,0.442c0.147-0.619,0.578-2.448,0.599-2.749 c0.023-0.335-0.269-0.551-0.271-0.554c-0.013-0.009-0.021-0.022-0.021-0.038c-0.001-0.016,0.006-0.03,0.018-0.04L23.3,22.17 c0.009-0.009,0.021-0.013,0.035-0.012c0.01,0,0.988,0.064,1.001,1.015c0.01,0.674-0.354,1.688-0.557,2.203 c0.294-0.358,0.796-0.938,1.013-1.004c0.307-0.093,0.827-0.33,0.967-0.517c0.013-0.017,0.03-0.023,0.051-0.019 c0.019,0.004,0.033,0.019,0.038,0.038c0.06,0.259,0.009,0.485-0.021,0.586c0.177,0.04,0.768,0.162,1.14,0.038 c0.02-0.003,0.037-0.001,0.051,0.013c0.014,0.013,0.019,0.032,0.013,0.05c-0.217,0.684-0.946,1.007-1.369,1.028 c0.096,0.174,0.116,0.35,0.061,0.525c-0.082,0.259-0.31,0.438-0.414,0.475c-0.016,0.006-0.037,0.002-0.052-0.011 c-0.014-0.014-0.019-0.034-0.012-0.053c0.06-0.175,0.019-0.345-0.11-0.452c-0.128-0.106-0.369-0.162-0.67,0.004 c-0.539,0.301-1.009,0.985-0.815,1.659c0.066,0.231,0.219,0.413,0.454,0.54c0.426,0.229,1.073,0.243,1.733,0.036 c0.022-0.007,0.051,0.005,0.061,0.029s0,0.052-0.023,0.063C25.832,28.426,25.192,28.739,24.462,28.739z M20.91,26.665 c-0.001,0.02,0.001,0.055,0.028,0.099c0.055,0.087,0.24,0.246,0.862,0.327c0.626,0.082,0.73,0.251,0.89,0.507 c0.119,0.191,0.268,0.431,0.708,0.735c0.556,0.384,1.245,0.335,1.746,0.218c-0.415,0.03-0.802-0.029-1.091-0.186 c-0.256-0.139-0.43-0.346-0.502-0.601c-0.208-0.724,0.289-1.454,0.862-1.774c0.343-0.189,0.63-0.121,0.782,0.008 c0.131,0.108,0.19,0.271,0.169,0.442c0.091-0.068,0.209-0.194,0.261-0.355c0.054-0.171,0.021-0.346-0.098-0.518 c-0.011-0.016-0.012-0.036-0.002-0.053c0.009-0.016,0.025-0.025,0.043-0.025c0.01,0,0.03,0.001,0.047,0.001 c0.36,0,1.044-0.279,1.285-0.87c-0.468,0.106-1.124-0.067-1.153-0.076c-0.014-0.003-0.025-0.013-0.032-0.025 c-0.006-0.013-0.007-0.028-0.001-0.041c0.001-0.003,0.086-0.217,0.052-0.485c-0.223,0.2-0.704,0.402-0.945,0.476 c-0.228,0.069-0.931,0.92-1.183,1.242c-0.016,0.019-0.044,0.024-0.064,0.012c-0.021-0.013-0.03-0.04-0.021-0.063 c0.007-0.016,0.695-1.59,0.683-2.483c-0.012-0.796-0.753-0.902-0.888-0.915l-0.295,0.252c0.094,0.085,0.286,0.298,0.265,0.603 c-0.025,0.368-0.624,2.863-0.649,2.97c-0.006,0.022-0.025,0.038-0.049,0.038c-0.001,0-0.002,0-0.003,0 c-0.023-0.001-0.044-0.02-0.047-0.043c0-0.004-0.052-0.38-0.276-0.594c-0.16-0.15-0.25-0.307-0.295-0.401 c-0.048,0.083-0.112,0.231-0.104,0.428c0.001,0.022-0.013,0.042-0.034,0.05c-0.021,0.003-0.044-0.002-0.057-0.02 c-0.132-0.19-0.345-0.188-0.584-0.187c-0.109-0.002-0.224,0.002-0.327-0.02c0.033,0.622,0.541,0.958,0.547,0.962 c0.015,0.01,0.023,0.026,0.022,0.044s-0.011,0.034-0.026,0.042L20.91,26.665z"/><path fill="#ffd600" d="M23.345,23.416c0,0-0.534,0.407-0.915,0.025c-0.076,0.903-0.623,0.928-1.004,0.839 c0.229-0.203,0.216-0.458,0.203-0.623c-0.013-0.165,0.153-0.394,0.153-0.394s-0.42,0.165-0.585-0.381 c0.331,0.14,0.636-0.191,0.865-0.432c0.229-0.242,0.572-0.127,0.572-0.127s0.305-0.407,0.826-0.305 c0.521,0.102,0.737,0.292,0.865,0.928c-0.407-0.598-0.788-0.648-1.157-0.369C22.798,22.856,22.976,23.403,23.345,23.416z"/><path fill="#263238" d="M21.698,24.364c-0.088,0-0.184-0.012-0.285-0.035c-0.018-0.004-0.032-0.019-0.037-0.036 c-0.004-0.019,0.002-0.038,0.016-0.05c0.2-0.179,0.202-0.395,0.188-0.582c-0.009-0.109,0.05-0.238,0.099-0.326 c-0.067,0.004-0.151-0.001-0.236-0.042c-0.135-0.065-0.233-0.199-0.293-0.396c-0.006-0.019,0-0.039,0.015-0.052 c0.015-0.014,0.035-0.017,0.053-0.009c0.292,0.12,0.572-0.172,0.796-0.407l0.013-0.014c0.206-0.217,0.49-0.173,0.591-0.149 c0.07-0.081,0.307-0.315,0.677-0.315c0.056,0,0.114,0.005,0.177,0.018c0.566,0.111,0.777,0.337,0.904,0.968 c0.005,0.023-0.008,0.047-0.029,0.056c-0.024,0.011-0.048,0.001-0.061-0.018c-0.206-0.302-0.413-0.472-0.616-0.505 c-0.148-0.021-0.306,0.023-0.47,0.147c-0.189,0.144-0.208,0.348-0.163,0.49c0.049,0.152,0.171,0.254,0.312,0.259 c0.021,0.001,0.039,0.015,0.046,0.034c0.006,0.021-0.001,0.043-0.018,0.056c-0.006,0.004-0.51,0.378-0.905,0.086 c-0.043,0.328-0.157,0.562-0.34,0.694C22.012,24.321,21.867,24.364,21.698,24.364z M21.525,24.249 c0.225,0.039,0.408,0.006,0.546-0.095c0.176-0.127,0.279-0.369,0.309-0.717c0.002-0.02,0.015-0.036,0.032-0.043 c0.018-0.006,0.038-0.003,0.053,0.012c0.256,0.253,0.586,0.124,0.749,0.033c-0.126-0.047-0.229-0.156-0.274-0.303 c-0.07-0.22,0.007-0.456,0.197-0.601c0.185-0.14,0.366-0.194,0.547-0.166c0.183,0.03,0.359,0.146,0.535,0.353 c-0.123-0.411-0.323-0.569-0.77-0.657c-0.487-0.095-0.765,0.271-0.776,0.287c-0.014,0.017-0.036,0.021-0.056,0.018 c-0.013-0.004-0.316-0.1-0.521,0.113l-0.013,0.014c-0.21,0.222-0.49,0.516-0.808,0.461c0.051,0.119,0.12,0.201,0.208,0.244 c0.138,0.068,0.276,0.015,0.278,0.014c0.021-0.007,0.044-0.001,0.058,0.017s0.015,0.041,0.002,0.06 c-0.043,0.06-0.152,0.241-0.144,0.361C21.689,23.791,21.708,24.036,21.525,24.249z"/><path fill="#4caf50" d="M23.103,30.853c0,0,0.458,0.343,0.178,0.801c0.915,0.127,1.22,0.636,1.233,1.449 c-0.254-0.305-0.534-0.356-0.75-0.394s-0.432-0.064-0.763-0.216c0,0,0.127,0.725-0.254,0.915c-0.089-0.381-0.305-0.521-0.42-0.648 c-0.114-0.127-0.165-0.407-0.165-0.61c-0.572-0.229-0.979-1.182-0.203-2.034c-0.178,0.737,0.076,1.068,0.445,1.22 S23.167,31.031,23.103,30.853z"/><path fill="#263238" d="M22.747,33.458c-0.007,0-0.015-0.001-0.021-0.005c-0.014-0.006-0.023-0.019-0.027-0.033 c-0.068-0.295-0.214-0.436-0.33-0.549c-0.028-0.027-0.055-0.053-0.077-0.078c-0.117-0.13-0.172-0.394-0.178-0.61 c-0.29-0.13-0.519-0.424-0.601-0.776c-0.104-0.451,0.042-0.921,0.409-1.324c0.016-0.017,0.038-0.021,0.061-0.011 c0.021,0.011,0.03,0.033,0.025,0.056c-0.146,0.606-0.011,0.987,0.416,1.163c0.219,0.088,0.427-0.078,0.484-0.133 c0.117-0.111,0.168-0.233,0.148-0.288c-0.008-0.021-0.001-0.044,0.018-0.057c0.018-0.014,0.042-0.014,0.06,0 c0.005,0.004,0.448,0.345,0.226,0.802c0.819,0.137,1.191,0.599,1.205,1.488c0.001,0.021-0.013,0.04-0.032,0.048 c-0.021,0.007-0.042,0.001-0.056-0.015c-0.244-0.293-0.508-0.34-0.721-0.378l-0.069-0.012c-0.18-0.03-0.366-0.062-0.623-0.171 c0.021,0.208,0.036,0.713-0.294,0.878C22.763,33.456,22.755,33.458,22.747,33.458z M21.871,30.3 c-0.252,0.342-0.344,0.721-0.261,1.084c0.077,0.334,0.296,0.609,0.571,0.719c0.019,0.008,0.031,0.026,0.031,0.047 c0,0.203,0.053,0.466,0.152,0.577c0.021,0.023,0.046,0.047,0.072,0.072c0.111,0.107,0.26,0.252,0.341,0.531 c0.277-0.213,0.176-0.822,0.175-0.828c-0.004-0.019,0.004-0.037,0.019-0.049c0.015-0.011,0.035-0.015,0.051-0.005 c0.289,0.133,0.488,0.167,0.682,0.199l0.069,0.013c0.191,0.033,0.445,0.078,0.687,0.311c-0.048-0.777-0.408-1.159-1.186-1.268 c-0.017-0.003-0.031-0.014-0.038-0.028c-0.008-0.016-0.007-0.033,0.002-0.048c0.185-0.301,0.021-0.547-0.087-0.663 c-0.025,0.093-0.096,0.191-0.174,0.267c-0.183,0.174-0.403,0.231-0.593,0.151C21.962,31.207,21.789,30.844,21.871,30.3z"/><path fill="#ffd600" d="M33.999,37.566c0,0,0.292,0.203,0.203,0.61c-0.089,0.407-0.025,0.712,0.14,0.839 c-0.331,0.254-0.42-0.013-0.42-0.013s-0.292,0.229-0.407-0.038c-0.331-0.013-0.305-0.229-0.305-0.229s-0.28,0.038-0.267-0.318 c-0.318-0.013-0.318-0.216-0.318-0.216s0.318,0.013,0.598-0.267C33.503,37.655,33.554,37.426,33.999,37.566z"/><path fill="#263238" d="M34.093,39.175c-0.023,0-0.046-0.003-0.067-0.01c-0.06-0.019-0.098-0.058-0.12-0.091 c-0.062,0.037-0.172,0.089-0.273,0.062c-0.063-0.017-0.113-0.059-0.148-0.125c-0.12-0.009-0.21-0.047-0.266-0.111 c-0.033-0.04-0.048-0.082-0.054-0.115c-0.046-0.003-0.113-0.018-0.171-0.069c-0.062-0.057-0.096-0.142-0.1-0.252 c-0.313-0.034-0.317-0.261-0.317-0.263c0-0.014,0.006-0.026,0.015-0.036c0.011-0.009,0.03-0.014,0.037-0.014c0,0,0.001,0,0.003,0 c0.034,0,0.312-0.008,0.558-0.252c0.056-0.057,0.104-0.111,0.146-0.161c0.172-0.197,0.298-0.34,0.68-0.221 c0.005,0.002,0.01,0.004,0.014,0.007c0.014,0.009,0.318,0.228,0.224,0.662c-0.08,0.367-0.033,0.669,0.121,0.788 c0.013,0.01,0.02,0.024,0.02,0.04s-0.007,0.03-0.02,0.04C34.269,39.135,34.175,39.175,34.093,39.175z M33.923,38.952 c0.005,0,0.01,0.001,0.015,0.002c0.016,0.005,0.027,0.017,0.033,0.032c0,0,0.023,0.065,0.085,0.083 c0.052,0.018,0.122-0.004,0.207-0.06c-0.149-0.162-0.191-0.471-0.109-0.845c0.074-0.342-0.138-0.524-0.178-0.555 c-0.316-0.095-0.4,0.002-0.565,0.193c-0.044,0.052-0.093,0.107-0.151,0.166c-0.218,0.218-0.456,0.268-0.569,0.278 c0.023,0.047,0.086,0.112,0.256,0.119c0.027,0.001,0.049,0.024,0.048,0.052c-0.004,0.104,0.019,0.178,0.066,0.222 c0.06,0.055,0.145,0.044,0.145,0.045c0.022-0.002,0.03,0.003,0.042,0.015c0.011,0.011,0.017,0.025,0.015,0.041 c0,0.002-0.004,0.051,0.035,0.096c0.04,0.046,0.117,0.073,0.222,0.077c0.02,0.001,0.036,0.013,0.044,0.03 c0.022,0.054,0.054,0.084,0.095,0.095c0.082,0.024,0.2-0.048,0.235-0.076C33.901,38.956,33.912,38.952,33.923,38.952z"/><path fill="#ffd600" d="M34.367,36.663c0,0,0.203,0.089,0.114,0.28s0,0.42-0.089,0.623 c-0.089,0.203-0.394,0.267-0.534,0.191c-0.14-0.076-0.292-0.305-0.165-0.509c0.127-0.203,0.331-0.407,0.407-0.547 C34.177,36.561,34.367,36.663,34.367,36.663z"/><path fill="#263238" d="M34.003,37.837c-0.063,0-0.122-0.013-0.168-0.037c-0.105-0.058-0.194-0.172-0.227-0.292 c-0.026-0.101-0.012-0.199,0.043-0.286c0.065-0.106,0.152-0.212,0.229-0.306c0.072-0.09,0.142-0.174,0.177-0.239 c0.079-0.145,0.252-0.102,0.333-0.059c0.016,0.008,0.114,0.057,0.15,0.154c0.022,0.06,0.019,0.124-0.014,0.191 c-0.039,0.085-0.039,0.183-0.039,0.285c0,0.11,0,0.226-0.049,0.337c-0.044,0.101-0.137,0.179-0.261,0.222 C34.12,37.827,34.06,37.837,34.003,37.837z M34.232,36.677c-0.034,0-0.068,0.012-0.088,0.049c-0.04,0.072-0.111,0.16-0.188,0.253 c-0.078,0.097-0.159,0.195-0.222,0.296c-0.039,0.063-0.05,0.134-0.03,0.208c0.028,0.107,0.11,0.192,0.178,0.229 c0.062,0.033,0.167,0.032,0.263,0.001c0.057-0.02,0.157-0.066,0.201-0.168c0.04-0.092,0.04-0.19,0.04-0.296 c0-0.109,0-0.223,0.05-0.328c0.02-0.042,0.023-0.079,0.01-0.113c-0.023-0.064-0.099-0.099-0.099-0.099 c-0.002-0.001-0.003-0.001-0.004-0.002C34.34,36.705,34.285,36.677,34.232,36.677z"/><path fill="#4caf50" d="M31.202,25.106c0,0,0.699,2.543,2.365,2.835c1.665,0.292,1.729-1.182,1.729-1.182l0.051,1.348 c0,0-1.195,0.776-1.907,0.432c-0.712-0.343-0.636-0.407-0.699-0.254c-0.064,0.153,0.216,0.407,0.674,0.623 c0.458,0.216,2.581,0.687,2.937,0.89c0.356,0.203,0.674,1.17,0.674,1.17l-0.585,1.22c0,0,0.114-0.852-0.42-1.182 c-0.534-0.331-1.17-0.674-1.983-0.941s-2.098-0.521-2.911-1.945c-0.229-0.369-0.267-1.348-0.267-1.348s-0.178,0.356-0.725,0.369 c-0.547,0.013-0.814-0.712-0.407-1.081c0.445,0.343,0.966,0.165,0.992-0.229c0.025-0.394-0.394-0.89-0.394-0.89L31.202,25.106z"/><path fill="#263238" d="M36.439,32.237c-0.005,0-0.01-0.001-0.015-0.002c-0.023-0.007-0.038-0.03-0.035-0.055 c0.001-0.008,0.104-0.823-0.396-1.132c-0.46-0.286-1.101-0.65-1.973-0.937c-0.086-0.028-0.178-0.057-0.273-0.086 c-0.814-0.25-1.929-0.593-2.665-1.883c-0.183-0.292-0.247-0.943-0.267-1.23c-0.104,0.113-0.314,0.269-0.682,0.277 c-0.005,0-0.01,0-0.015,0c-0.262,0-0.485-0.157-0.588-0.414c-0.108-0.271-0.045-0.566,0.162-0.754 c0.018-0.017,0.045-0.018,0.063-0.002c0.263,0.202,0.526,0.199,0.683,0.127c0.136-0.062,0.22-0.178,0.229-0.319 c0.023-0.37-0.379-0.85-0.383-0.854c-0.014-0.016-0.016-0.039-0.005-0.058c0.01-0.019,0.032-0.03,0.052-0.023l0.878,0.165 c0.02,0.003,0.034,0.018,0.039,0.035c0.007,0.025,0.711,2.517,2.325,2.8c0.519,0.089,0.925,0.018,1.216-0.217 c0.424-0.34,0.455-0.913,0.455-0.919c0.001-0.027,0.023-0.048,0.05-0.048l0,0c0.027,0,0.049,0.021,0.05,0.048l0.051,1.348 c0.001,0.018-0.008,0.034-0.022,0.044c-0.051,0.032-1.229,0.79-1.956,0.436c-0.259-0.124-0.415-0.214-0.509-0.267 c-0.045-0.025-0.084-0.048-0.105-0.057c-0.002,0.006-0.005,0.013-0.007,0.019l-0.011,0.025c-0.043,0.104,0.188,0.34,0.649,0.558 c0.217,0.103,0.833,0.268,1.429,0.428c0.68,0.183,1.321,0.355,1.511,0.465c0.369,0.21,0.684,1.156,0.697,1.196 c0.004,0.013,0.003,0.025-0.003,0.037l-0.585,1.221C36.476,32.227,36.458,32.237,36.439,32.237z M30.858,26.722 c0.004,0,0.007,0,0.011,0.001c0.022,0.005,0.038,0.024,0.039,0.047c0.001,0.01,0.04,0.971,0.26,1.323 c0.719,1.257,1.812,1.593,2.609,1.838c0.097,0.029,0.188,0.058,0.275,0.086c0.882,0.29,1.529,0.658,1.994,0.946 c0.374,0.232,0.447,0.695,0.453,0.982l0.471-0.981c-0.047-0.135-0.336-0.946-0.645-1.123c-0.179-0.103-0.845-0.281-1.488-0.454 c-0.628-0.169-1.221-0.328-1.445-0.435c-0.38-0.179-0.79-0.466-0.698-0.687l0.009-0.022c0.015-0.038,0.027-0.069,0.063-0.082 c0.041-0.021,0.079,0.005,0.191,0.069c0.093,0.053,0.248,0.141,0.503,0.264c0.626,0.3,1.664-0.31,1.835-0.415l-0.035-0.918 c-0.067,0.192-0.188,0.418-0.406,0.593c-0.315,0.252-0.752,0.331-1.297,0.236c-1.598-0.28-2.307-2.537-2.396-2.841l-0.718-0.135 c0.125,0.171,0.344,0.519,0.324,0.819c-0.012,0.181-0.116,0.328-0.286,0.405c-0.224,0.101-0.508,0.058-0.75-0.114 c-0.152,0.159-0.194,0.396-0.107,0.614c0.068,0.171,0.233,0.352,0.494,0.352c0.005,0,0.009,0,0.014,0 c0.511-0.012,0.679-0.338,0.681-0.342C30.822,26.732,30.84,26.722,30.858,26.722z"/><g><path fill="#ffd600" d="M30.853,26.469c0,0,0.22,0.593,0.593,0.728c0.373,0.134,0.622,0.402,0.622,0.402 s-0.325,0.086-0.565,0.048c0.574,0.278,0.804,0.804,0.804,0.804s-0.316-0.019-0.469-0.077c0.325,0.268,0.316,0.479,0.345,0.603 s0.124,0.421,0.124,0.421s-0.689-0.421-1.063-1.034C30.872,27.752,30.853,26.469,30.853,26.469z"/><path fill="#263238" d="M32.309,29.448c-0.009,0-0.018-0.002-0.026-0.007c-0.028-0.018-0.704-0.435-1.079-1.051 c-0.377-0.617-0.398-1.868-0.399-1.921c-0.001-0.024,0.017-0.046,0.041-0.05c0.022-0.006,0.047,0.009,0.056,0.031 c0.002,0.006,0.216,0.574,0.563,0.698c0.381,0.137,0.632,0.404,0.642,0.415c0.013,0.013,0.017,0.031,0.012,0.048 c-0.005,0.018-0.019,0.03-0.035,0.035c-0.01,0.002-0.184,0.047-0.373,0.057c0.45,0.291,0.637,0.706,0.646,0.726 c0.007,0.017,0.005,0.035-0.005,0.049c-0.01,0.015-0.021,0.02-0.044,0.021c-0.009,0-0.153-0.009-0.295-0.033 c0.168,0.184,0.193,0.337,0.212,0.445c0.003,0.02,0.006,0.038,0.01,0.055c0.028,0.12,0.123,0.413,0.124,0.416 c0.006,0.021-0.001,0.042-0.017,0.055C32.33,29.445,32.319,29.448,32.309,29.448z M30.915,26.719 c0.026,0.402,0.11,1.188,0.374,1.619c0.271,0.446,0.719,0.792,0.929,0.94c-0.029-0.096-0.066-0.219-0.083-0.289 c-0.004-0.019-0.008-0.039-0.011-0.061c-0.021-0.125-0.051-0.298-0.316-0.516c-0.02-0.016-0.024-0.043-0.012-0.064 c0.012-0.021,0.036-0.028,0.061-0.021c0.096,0.036,0.264,0.057,0.366,0.066c-0.087-0.153-0.32-0.499-0.74-0.702 c-0.022-0.011-0.033-0.036-0.026-0.06c0.008-0.024,0.03-0.035,0.056-0.035c0.154,0.025,0.345-0.005,0.455-0.026 c-0.095-0.085-0.288-0.237-0.536-0.327C31.193,27.158,31.019,26.909,30.915,26.719z"/></g><g><path fill="#ffd600" d="M33.045,28.361c0,0,1.449,0.725,2.479,0.013c1.03-0.712,0.509-1.093,1.576-1.233 s0.928-0.509,0.928-0.509l-0.547-0.292c0,0,0.572-0.369,0.572-1.068c-0.318,0.102-0.776-0.089-1.004,0.242 c0.013-0.331-0.165-0.534-0.165-0.534s-0.076,0.242-0.318,0.47c-0.242,0.229-0.292,0.623-0.292,0.623s-0.623-2.594-0.648-2.962 c-0.025-0.369,0.292-0.598,0.292-0.598l-0.356-0.305c0,0-0.941,0.051-0.954,0.966c-0.013,0.915,0.687,2.505,0.687,2.505 s-0.915-1.17-1.208-1.259c-0.292-0.089-0.839-0.331-0.992-0.534c-0.076,0.331,0.038,0.61,0.038,0.61s-0.763,0.203-1.22,0.051 c0.229,0.725,1.055,1.017,1.411,0.992c-0.369,0.534,0.14,0.954,0.28,1.004c-0.153-0.445,0.305-0.814,0.852-0.509 c0.547,0.305,1.042,1.004,0.839,1.716C35.092,28.463,34.1,28.692,33.045,28.361z"/><path fill="#263238" d="M34.433,28.739c-0.73,0-1.37-0.313-1.41-0.333c-0.023-0.012-0.033-0.039-0.023-0.063 s0.036-0.036,0.061-0.029c0.661,0.207,1.309,0.193,1.733-0.036c0.232-0.125,0.39-0.312,0.455-0.54 c0.192-0.674-0.277-1.358-0.816-1.659c-0.297-0.168-0.542-0.111-0.67-0.004c-0.129,0.108-0.17,0.277-0.11,0.452 c0.007,0.019,0.002,0.039-0.012,0.053c-0.014,0.013-0.036,0.017-0.052,0.011c-0.104-0.037-0.332-0.216-0.414-0.475 c-0.056-0.176-0.035-0.352,0.061-0.525c-0.423-0.021-1.152-0.345-1.368-1.028c-0.006-0.018-0.001-0.037,0.013-0.05 c0.014-0.014,0.033-0.016,0.051-0.013c0.371,0.124,0.962,0.002,1.139-0.038c-0.03-0.101-0.081-0.327-0.021-0.586 c0.005-0.02,0.02-0.034,0.038-0.038c0.019-0.005,0.038,0.002,0.051,0.019c0.141,0.187,0.661,0.424,0.967,0.517 c0.217,0.066,0.719,0.646,1.015,1.004c-0.204-0.515-0.567-1.529-0.558-2.203c0.013-0.95,0.99-1.015,1-1.015 c0.013,0,0.025,0.003,0.035,0.012l0.356,0.305c0.012,0.01,0.019,0.024,0.018,0.04c0,0.016-0.008,0.029-0.021,0.038 c-0.003,0.003-0.296,0.219-0.272,0.554c0.021,0.301,0.451,2.13,0.599,2.749c0.043-0.137,0.121-0.312,0.258-0.442 c0.229-0.216,0.304-0.446,0.305-0.449c0.006-0.017,0.02-0.029,0.038-0.033c0.02-0.005,0.036,0.003,0.048,0.016 c0.006,0.008,0.146,0.171,0.173,0.442c0.162-0.138,0.385-0.133,0.58-0.133c0.132,0.002,0.257,0.003,0.363-0.032 c0.019-0.003,0.032-0.002,0.045,0.008c0.013,0.009,0.021,0.024,0.021,0.04c0,0.58-0.373,0.938-0.528,1.062l0.477,0.255 c0.011,0.006,0.019,0.015,0.023,0.026c0.003,0.009,0.031,0.092-0.031,0.196c-0.11,0.185-0.427,0.312-0.938,0.38 c-0.579,0.075-0.669,0.22-0.818,0.46c-0.117,0.189-0.279,0.448-0.736,0.765C35.201,28.658,34.806,28.739,34.433,28.739z M33.751,28.551c0.503,0.116,1.188,0.166,1.745-0.218c0.44-0.305,0.589-0.544,0.708-0.735c0.159-0.256,0.265-0.425,0.89-0.507 c0.623-0.081,0.808-0.24,0.863-0.327c0.027-0.044,0.029-0.079,0.028-0.099l-0.526-0.281c-0.016-0.008-0.025-0.024-0.026-0.042 s0.008-0.034,0.022-0.044c0.006-0.004,0.514-0.341,0.548-0.962c-0.104,0.022-0.213,0.021-0.328,0.02 c-0.23,0-0.452-0.004-0.584,0.187c-0.013,0.018-0.037,0.022-0.057,0.02c-0.021-0.008-0.035-0.027-0.034-0.05 c0.008-0.196-0.057-0.345-0.104-0.428c-0.045,0.095-0.135,0.251-0.295,0.401c-0.225,0.214-0.276,0.59-0.276,0.594 c-0.003,0.023-0.023,0.042-0.047,0.043c-0.001,0-0.002,0-0.003,0c-0.023,0-0.043-0.016-0.049-0.038 c-0.025-0.106-0.624-2.602-0.649-2.97c-0.021-0.305,0.172-0.518,0.266-0.603l-0.296-0.252c-0.134,0.013-0.875,0.119-0.887,0.915 c-0.012,0.894,0.676,2.468,0.683,2.483c0.01,0.023,0.001,0.051-0.021,0.063c-0.021,0.013-0.049,0.007-0.064-0.012 c-0.252-0.322-0.956-1.173-1.184-1.242c-0.241-0.073-0.723-0.275-0.945-0.476c-0.034,0.269,0.051,0.482,0.052,0.485 c0.006,0.013,0.005,0.028-0.001,0.041c-0.007,0.013-0.019,0.022-0.032,0.025c-0.029,0.009-0.688,0.183-1.152,0.076 c0.24,0.591,0.924,0.87,1.284,0.87c0.017,0,0.04-0.002,0.047-0.001c0.018,0,0.034,0.01,0.043,0.025 c0.01,0.017,0.009,0.037-0.002,0.053c-0.119,0.172-0.151,0.347-0.098,0.518c0.052,0.161,0.17,0.287,0.261,0.355 c-0.021-0.172,0.039-0.334,0.169-0.442c0.154-0.129,0.438-0.199,0.782-0.008c0.572,0.32,1.07,1.051,0.863,1.774 c-0.073,0.255-0.247,0.462-0.503,0.601C34.552,28.521,34.174,28.581,33.751,28.551z"/></g><g><path fill="#4caf50" d="M35.55,23.416c0,0,0.534,0.407,0.915,0.025c0.076,0.903,0.623,0.928,1.004,0.839 c-0.229-0.203-0.216-0.458-0.203-0.623c0.013-0.165-0.153-0.394-0.153-0.394s0.42,0.165,0.585-0.381 c-0.331,0.14-0.636-0.191-0.865-0.432c-0.229-0.242-0.572-0.127-0.572-0.127s-0.305-0.407-0.826-0.305 c-0.521,0.102-0.737,0.292-0.865,0.928c0.407-0.598,0.788-0.648,1.157-0.369C36.096,22.856,35.918,23.403,35.55,23.416z"/><path fill="#263238" d="M37.196,24.364c-0.169,0-0.313-0.043-0.432-0.129c-0.183-0.133-0.297-0.366-0.34-0.694 c-0.396,0.293-0.899-0.082-0.905-0.086c-0.017-0.013-0.023-0.035-0.018-0.056c0.007-0.02,0.025-0.033,0.046-0.034 c0.142-0.005,0.265-0.106,0.312-0.258c0.045-0.144,0.026-0.348-0.163-0.491c-0.163-0.123-0.312-0.17-0.47-0.147 c-0.203,0.033-0.41,0.203-0.615,0.505c-0.013,0.021-0.036,0.029-0.061,0.018c-0.021-0.009-0.034-0.032-0.029-0.056 c0.126-0.631,0.337-0.856,0.903-0.968c0.467-0.096,0.771,0.204,0.854,0.298c0.099-0.024,0.385-0.069,0.591,0.149l0.012,0.012 c0.226,0.238,0.506,0.531,0.797,0.409c0.015-0.009,0.038-0.006,0.053,0.009c0.015,0.013,0.021,0.033,0.015,0.052 c-0.06,0.197-0.158,0.331-0.293,0.396c-0.085,0.041-0.171,0.049-0.235,0.042c0.049,0.088,0.106,0.217,0.098,0.326 c-0.015,0.188-0.013,0.403,0.188,0.582c0.014,0.012,0.02,0.031,0.016,0.05c-0.005,0.018-0.02,0.032-0.037,0.036 C37.38,24.353,37.284,24.364,37.196,24.364z M36.465,23.392c0.006,0,0.012,0.001,0.018,0.003c0.018,0.007,0.03,0.023,0.032,0.043 c0.029,0.348,0.133,0.59,0.309,0.717c0.138,0.101,0.321,0.133,0.546,0.095c-0.183-0.213-0.164-0.458-0.153-0.596 c0.01-0.12-0.1-0.302-0.143-0.361c-0.014-0.018-0.013-0.042,0.001-0.06c0.013-0.019,0.037-0.024,0.058-0.017 c0.002,0.001,0.14,0.055,0.278-0.014c0.088-0.043,0.157-0.125,0.208-0.244c-0.321,0.056-0.599-0.24-0.809-0.462l-0.012-0.013 c-0.203-0.215-0.517-0.115-0.521-0.113c-0.021,0.004-0.043-0.001-0.056-0.018c-0.013-0.016-0.299-0.382-0.776-0.287 c-0.447,0.088-0.646,0.247-0.769,0.657c0.175-0.206,0.352-0.322,0.535-0.353c0.175-0.026,0.362,0.026,0.546,0.166 c0.19,0.145,0.268,0.381,0.198,0.602c-0.047,0.146-0.148,0.255-0.275,0.302c0.164,0.092,0.494,0.218,0.749-0.033 C36.439,23.396,36.452,23.392,36.465,23.392z"/></g><g><path fill="#ffd600" d="M35.486,30.853c0,0-0.458,0.343-0.178,0.801c-0.915,0.127-1.22,0.636-1.233,1.449 c0.254-0.305,0.534-0.356,0.75-0.394c0.216-0.038,0.432-0.064,0.763-0.216c0,0-0.127,0.725,0.254,0.915 c0.089-0.381,0.305-0.521,0.42-0.648c0.114-0.127,0.165-0.407,0.165-0.61c0.572-0.229,0.979-1.182,0.203-2.034 c0.178,0.737-0.076,1.068-0.445,1.22S35.423,31.031,35.486,30.853z"/><path fill="#263238" d="M35.842,33.458c-0.008,0-0.016-0.002-0.022-0.005c-0.329-0.165-0.314-0.67-0.293-0.878 c-0.257,0.108-0.443,0.141-0.623,0.171l-0.069,0.012c-0.213,0.038-0.477,0.085-0.721,0.378c-0.014,0.016-0.036,0.021-0.056,0.015 c-0.02-0.008-0.033-0.026-0.032-0.048c0.014-0.89,0.386-1.352,1.205-1.488c-0.223-0.457,0.221-0.798,0.226-0.802 c0.018-0.014,0.042-0.014,0.06,0c0.019,0.013,0.025,0.036,0.018,0.057c-0.02,0.055,0.031,0.177,0.147,0.288 c0.058,0.056,0.261,0.223,0.485,0.133c0.427-0.177,0.562-0.557,0.416-1.163c-0.005-0.022,0.005-0.045,0.025-0.056 c0.022-0.01,0.045-0.006,0.061,0.011c0.367,0.403,0.513,0.873,0.409,1.324c-0.082,0.353-0.311,0.646-0.601,0.776 c-0.006,0.217-0.061,0.48-0.178,0.61c-0.022,0.025-0.049,0.051-0.077,0.078c-0.116,0.113-0.262,0.254-0.331,0.549 c-0.004,0.015-0.014,0.027-0.027,0.033C35.856,33.457,35.849,33.458,35.842,33.458z M35.588,32.443c0.011,0,0.021,0.003,0.03,0.01 c0.015,0.012,0.022,0.03,0.019,0.049c-0.001,0.006-0.104,0.615,0.174,0.828c0.082-0.279,0.23-0.424,0.342-0.53 c0.026-0.026,0.051-0.05,0.072-0.073c0.1-0.111,0.152-0.374,0.152-0.577c0-0.021,0.013-0.039,0.031-0.047 c0.275-0.109,0.494-0.385,0.571-0.719c0.083-0.363-0.009-0.742-0.261-1.084c0.081,0.544-0.091,0.907-0.514,1.082 c-0.192,0.078-0.412,0.021-0.593-0.151c-0.078-0.075-0.148-0.174-0.174-0.267c-0.108,0.116-0.271,0.362-0.087,0.663 c0.009,0.015,0.01,0.032,0.002,0.048c-0.007,0.015-0.021,0.025-0.038,0.028c-0.777,0.108-1.138,0.49-1.186,1.268 c0.241-0.232,0.495-0.277,0.687-0.311l0.069-0.013c0.193-0.032,0.393-0.066,0.682-0.199 C35.573,32.444,35.581,32.443,35.588,32.443z"/></g><g><path fill="#a1887f" d="M28.958,24.354c0,0-1.187-0.057-1.627,0.9c-0.584,0.211-1.206,1.034-1.206,1.034l1.924,0.239 c0,0,0.881-0.909,1.752-0.957c0.871-0.048,1.149,0,1.149,0S30.585,24.564,28.958,24.354z"/><path fill="#263238" d="M28.049,26.576c-0.002,0-0.004,0-0.006,0l-1.924-0.239c-0.018-0.002-0.033-0.014-0.04-0.03 s-0.005-0.035,0.006-0.05c0.025-0.033,0.624-0.819,1.21-1.043c0.413-0.868,1.436-0.911,1.633-0.911 c0.02,0,0.031,0.001,0.032,0.001c0.002,0,0.003,0,0.005,0c1.638,0.213,2.016,1.206,2.031,1.249 c0.006,0.017,0.003,0.035-0.009,0.049s-0.029,0.023-0.047,0.017c-0.002,0-0.284-0.046-1.137,0.001 c-0.842,0.046-1.71,0.933-1.719,0.942C28.075,26.571,28.062,26.576,28.049,26.576z M26.22,26.248l1.811,0.226 c0.133-0.132,0.945-0.909,1.768-0.954c0.609-0.035,0.927-0.021,1.068-0.01c-0.124-0.234-0.602-0.936-1.912-1.106 c-0.05,0.001-1.163-0.03-1.577,0.871c-0.006,0.013-0.017,0.022-0.029,0.026C26.883,25.469,26.382,26.048,26.22,26.248z"/></g><g><path fill="#a1887f" d="M29.532,25.225c0,0-1.053,0.249-1.589,0.785c-0.459-0.038-0.871-0.134-0.871-0.134l0.258-0.622"/><path fill="#263238" d="M27.943,26.06c-0.001,0-0.003,0-0.004,0c-0.459-0.038-0.874-0.134-0.879-0.135 c-0.014-0.004-0.026-0.013-0.033-0.026c-0.006-0.013-0.007-0.028-0.001-0.042l0.259-0.622c0.011-0.025,0.039-0.037,0.065-0.026 c0.025,0.011,0.037,0.04,0.026,0.065l-0.235,0.566c0.126,0.026,0.44,0.088,0.783,0.118c0.544-0.528,1.553-0.771,1.596-0.782 c0.023-0.009,0.054,0.011,0.061,0.037c0.006,0.027-0.011,0.054-0.037,0.061c-0.011,0.002-1.046,0.252-1.565,0.771 C27.97,26.055,27.957,26.06,27.943,26.06z"/></g><g><path fill="#ffd600" d="M29.841,24.839c0,0,0.852,0.687,0.598,1.093c-0.254,0.407-0.712,0.127-0.712,0.127 s-0.038,0.572,0.572,0.572c0.267-0.013,0.47-0.458,0.47-0.458l0.229,0.203c0,0,0.292-0.903-0.699-1.602 S29.841,24.839,29.841,24.839z"/><path fill="#263238" d="M30.301,26.682c-0.203,0-0.359-0.059-0.468-0.175c-0.172-0.183-0.156-0.439-0.155-0.45 c0.001-0.018,0.012-0.033,0.026-0.041c0.018-0.008,0.036-0.008,0.05,0.001c0.017,0.01,0.416,0.251,0.644-0.11 c0.188-0.303-0.359-0.845-0.587-1.027c-0.004-0.003-0.007-0.007-0.01-0.011c-0.082-0.117-0.208-0.327-0.124-0.409 c0.056-0.057,0.175-0.06,0.651,0.275c1.01,0.712,0.721,1.649,0.718,1.659c-0.006,0.016-0.019,0.028-0.035,0.032 c-0.015,0.008-0.034,0.001-0.046-0.011l-0.18-0.16C30.716,26.383,30.535,26.671,30.301,26.682L30.301,26.682z M29.781,26.144 c0.009,0.079,0.037,0.201,0.125,0.296c0.089,0.095,0.221,0.143,0.393,0.143c0.192-0.01,0.372-0.312,0.425-0.428 c0.007-0.015,0.021-0.025,0.035-0.028c0.015-0.005,0.032,0,0.044,0.012l0.167,0.147c0.044-0.228,0.095-0.909-0.699-1.469 c-0.437-0.307-0.521-0.283-0.526-0.285c-0.007,0.026,0.055,0.158,0.135,0.274c0.082,0.067,0.869,0.729,0.603,1.153 C30.29,26.268,29.974,26.229,29.781,26.144z"/></g><g><path fill="#a1887f" d="M30.528,24.028c0,0,0.938-1.646,1.57-2.23c0.201,0.249,0.201,0.249,0.201,0.249l0.211-0.153 c0,0-0.316-0.459-0.345-0.459s-1.388,0.986-1.388,0.986l-0.622-0.191l1.015-0.881l0.316,0.182l0.172-0.172l-0.507-0.306 c0,0-1.235,1.465-3.216,1.015c-0.412,0.402-0.804,0.689-0.804,0.689l1.436,1.187l1.264,0.402l0.565,0.038L30.528,24.028z"/><path fill="#263238" d="M30.394,24.433c-0.001,0-0.002,0-0.004,0l-0.564-0.039L28.55,23.99 c-0.006-0.002-0.012-0.005-0.017-0.01l-1.436-1.188c-0.012-0.01-0.019-0.024-0.018-0.04c0-0.015,0.008-0.029,0.021-0.038 c0.004-0.003,0.395-0.29,0.798-0.686c0.013-0.012,0.033-0.018,0.046-0.013c1.931,0.441,3.156-0.983,3.168-0.998 c0.016-0.019,0.041-0.023,0.064-0.011l0.507,0.307c0.013,0.008,0.021,0.021,0.023,0.037c0.002,0.015-0.004,0.03-0.015,0.041 l-0.172,0.172c-0.017,0.018-0.042,0.02-0.06,0.008l-0.286-0.163l-0.92,0.798l0.513,0.158c1.353-0.981,1.376-0.981,1.397-0.981 c0.03,0,0.055,0,0.386,0.481c0.016,0.022,0.011,0.053-0.012,0.068l-0.211,0.153c-0.022,0.017-0.052,0.012-0.068-0.009 l-0.167-0.207c-0.604,0.589-1.473,2.098-1.52,2.179L30.44,24.4C30.433,24.42,30.414,24.433,30.394,24.433z M28.59,23.897 l1.254,0.398l0.517,0.034l0.121-0.319c0.001-0.003,0.002-0.005,0.004-0.007c0.038-0.067,0.948-1.66,1.578-2.243 c0.01-0.008,0.021-0.013,0.034-0.013c0.01-0.001,0.029,0.006,0.039,0.019l0.171,0.212l0.133-0.097 c-0.112-0.162-0.232-0.329-0.282-0.387c-0.151,0.098-0.87,0.615-1.353,0.965c-0.013,0.01-0.027,0.011-0.044,0.008l-0.622-0.191 c-0.018-0.006-0.03-0.02-0.034-0.037c-0.004-0.019,0.002-0.036,0.016-0.049l1.015-0.881c0.018-0.013,0.042-0.016,0.058-0.005 l0.283,0.162l0.101-0.1l-0.417-0.252c-0.171,0.183-1.083,1.085-2.482,1.085c-0.23,0-0.474-0.024-0.729-0.08 c-0.316,0.307-0.621,0.547-0.738,0.637L28.59,23.897z"/></g><g><path fill="#a1887f" d="M27.757,22.602c-0.394,0-0.713,0.319-0.713,0.713s0.319,0.713,0.713,0.713 c0.394,0,0.713-0.319,0.713-0.713S28.15,22.602,27.757,22.602z M27.757,23.712c-0.219,0-0.397-0.178-0.397-0.397 c0-0.219,0.178-0.397,0.397-0.397c0.219,0,0.397,0.178,0.397,0.397C28.154,23.534,27.976,23.712,27.757,23.712z"/><path fill="#263238" d="M27.757,24.078c-0.421,0-0.763-0.342-0.763-0.763s0.342-0.764,0.763-0.764s0.763,0.343,0.763,0.764 S28.178,24.078,27.757,24.078z M27.757,22.651c-0.365,0-0.663,0.298-0.663,0.664c0,0.365,0.298,0.663,0.663,0.663 s0.663-0.298,0.663-0.663C28.42,22.949,28.122,22.651,27.757,22.651z M27.757,23.762c-0.247,0-0.447-0.2-0.447-0.446 c0-0.247,0.2-0.447,0.447-0.447s0.447,0.2,0.447,0.447C28.204,23.562,28.004,23.762,27.757,23.762z M27.757,22.968 c-0.191,0-0.348,0.156-0.348,0.348s0.156,0.347,0.348,0.347s0.348-0.155,0.348-0.347S27.948,22.968,27.757,22.968z"/></g><g><path fill="#ff3d00" d="M31.428,20.381l-0.211,0.258l-0.048,0.22c0,0-0.325-0.096-0.737-0.048 c-0.412,0.048-0.804-0.144-0.795-0.373c0.01-0.23,0.383-0.488,0.804-0.297S31.428,20.381,31.428,20.381z"/><path fill="#263238" d="M31.169,20.909c-0.005,0-0.01,0-0.014-0.002s-0.324-0.097-0.717-0.046 c-0.285,0.03-0.583-0.044-0.741-0.191c-0.075-0.07-0.113-0.15-0.109-0.233c0.005-0.118,0.086-0.237,0.218-0.318 c0.188-0.115,0.434-0.123,0.656-0.022c0.409,0.186,0.965,0.235,0.97,0.235c0.019,0.002,0.035,0.014,0.042,0.03 c0.008,0.017,0.005,0.037-0.007,0.051l-0.204,0.25l-0.045,0.208c-0.003,0.014-0.012,0.025-0.023,0.032 C31.187,20.907,31.178,20.909,31.169,20.909z M30.669,20.748c0.213,0,0.381,0.031,0.462,0.05l0.037-0.169 c0.002-0.008,0.005-0.015,0.01-0.021l0.153-0.188c-0.18-0.022-0.583-0.085-0.91-0.233c-0.278-0.129-0.487-0.031-0.563,0.017 c-0.101,0.062-0.166,0.152-0.17,0.236c-0.003,0.066,0.041,0.122,0.078,0.156c0.137,0.126,0.411,0.196,0.661,0.165 C30.512,20.752,30.593,20.748,30.669,20.748z"/></g><g><path fill="#4caf50" d="M28.948,19.768c0,0-0.134-0.278-0.555-0.345s-0.756,0.364-0.756,0.364s-0.555-0.029-0.584,0.316 c-0.029,0.345-0.182,0.488,0.105,0.909C27.331,20.266,28.116,19.74,28.948,19.768z"/><path fill="#263238" d="M27.158,21.062c-0.017,0-0.032-0.008-0.041-0.021c-0.228-0.333-0.191-0.512-0.149-0.719 c0.014-0.068,0.028-0.14,0.035-0.223c0.028-0.338,0.47-0.363,0.601-0.363c0.004,0,0.007,0,0.01,0 c0.068-0.08,0.339-0.37,0.688-0.37c0.033,0,0.066,0.003,0.1,0.008c0.441,0.071,0.586,0.36,0.592,0.373 c0.008,0.016,0.007,0.034-0.003,0.049s-0.028,0.019-0.044,0.022c-0.021-0.001-0.044-0.001-0.066-0.001 c-0.799,0-1.512,0.51-1.673,1.207c-0.005,0.019-0.021,0.034-0.04,0.037C27.164,21.062,27.161,21.062,27.158,21.062z M27.608,19.837c-0.104,0-0.484,0.018-0.506,0.271c-0.007,0.09-0.022,0.166-0.037,0.234c-0.035,0.178-0.062,0.312,0.074,0.549 c0.216-0.677,0.922-1.162,1.714-1.173c-0.067-0.08-0.209-0.203-0.468-0.244c-0.027-0.005-0.055-0.007-0.082-0.007 c-0.349,0-0.625,0.348-0.628,0.351c-0.009,0.014-0.026,0.016-0.042,0.02C27.634,19.837,27.624,19.837,27.608,19.837z"/></g><g><path fill="#263238" d="M29.389,22.336c-0.014,0-0.027-0.006-0.037-0.017c-1.122-1.267-0.264-2.734-0.255-2.749 c0.015-0.024,0.046-0.032,0.068-0.018c0.024,0.015,0.031,0.045,0.018,0.068c-0.009,0.015-0.829,1.421,0.243,2.632 c0.019,0.021,0.017,0.053-0.004,0.07C29.412,22.332,29.4,22.336,29.389,22.336z"/></g><g><path fill="#4caf50" d="M29.848,20.295c0,0-0.115-0.402-0.325-0.613c-0.239,0.239-0.096,0.555-0.096,0.555 s-0.211,0.268-0.01,0.622C29.906,20.754,29.848,20.295,29.848,20.295z"/><path fill="#263238" d="M29.417,20.909c-0.018,0-0.034-0.009-0.044-0.025c-0.181-0.32-0.052-0.574-0.003-0.653 c-0.031-0.086-0.104-0.362,0.117-0.583c0.02-0.02,0.051-0.02,0.07,0c0.218,0.217,0.334,0.617,0.339,0.634 c0.001,0.002,0.001,0.005,0.002,0.008c0,0.005,0.056,0.506-0.471,0.619C29.424,20.909,29.421,20.909,29.417,20.909z M29.523,19.757c-0.163,0.206-0.053,0.457-0.051,0.46c0.007,0.017,0.005,0.036-0.007,0.051c-0.007,0.01-0.174,0.232-0.022,0.534 c0.381-0.104,0.36-0.454,0.356-0.497C29.788,20.266,29.689,19.951,29.523,19.757z"/></g><g><path fill="#263238" d="M28.834,21.024c-0.026,0-0.048-0.021-0.05-0.047c-0.042-0.673,0.774-0.741,0.782-0.742 c0.026-0.008,0.052,0.019,0.054,0.046s-0.019,0.052-0.046,0.054c-0.03,0.002-0.726,0.062-0.69,0.637 c0.002,0.027-0.02,0.051-0.047,0.053C28.836,21.024,28.835,21.024,28.834,21.024z"/></g><g><polygon fill="#4caf50" points="31.093,24.794 31.322,24.258 31.054,24.287 30.978,23.875 30.796,24.114 30.547,23.76 30.289,24.162 30.174,23.76 29.973,23.99 29.82,23.54 29.743,23.818 29.513,23.674 29.465,23.999 29.255,23.751 29.063,24.038 29.044,23.818 28.91,23.961 28.661,23.511 28.508,23.942 28.269,23.607 28.116,24.047 27.924,23.885 27.924,24.153 27.58,23.856 27.57,24.143 27.321,24.124 27.484,24.631"/><path fill="#263238" d="M31.093,24.844c-0.001,0-0.002,0-0.002,0l-3.609-0.163c-0.021-0.001-0.039-0.015-0.046-0.034 l-0.162-0.507c-0.005-0.017-0.002-0.033,0.009-0.047c0.01-0.012,0.023-0.019,0.039-0.019c0.001,0,0.003,0,0.004,0l0.196,0.015 l0.008-0.235c0-0.019,0.012-0.036,0.029-0.044c0.018-0.009,0.038-0.006,0.053,0.008l0.263,0.226v-0.158 c0-0.02,0.011-0.037,0.028-0.045c0.019-0.011,0.039-0.006,0.054,0.007l0.136,0.115l0.13-0.371c0.006-0.018,0.021-0.03,0.04-0.033 c0.017-0.002,0.037,0.006,0.048,0.021l0.184,0.257l0.121-0.34c0.007-0.019,0.023-0.031,0.043-0.033 c0.021-0.001,0.039,0.01,0.048,0.025l0.216,0.39l0.087-0.094c0.014-0.014,0.033-0.019,0.053-0.013 c0.019,0.006,0.031,0.022,0.033,0.042l0.007,0.079l0.112-0.168c0.009-0.014,0.023-0.021,0.039-0.022 c0.014,0.002,0.03,0.005,0.041,0.018l0.139,0.164l0.032-0.217c0.003-0.017,0.014-0.03,0.029-0.038 c0.014-0.006,0.033-0.007,0.047,0.004l0.173,0.107l0.059-0.213c0.006-0.021,0.024-0.035,0.046-0.036c0.001,0,0.002,0,0.002,0 c0.021,0,0.04,0.014,0.047,0.033l0.126,0.368l0.144-0.165c0.012-0.014,0.03-0.021,0.049-0.016 c0.019,0.004,0.032,0.018,0.037,0.035l0.084,0.296l0.199-0.31c0.009-0.014,0.024-0.022,0.041-0.022h0.001 c0.017,0,0.031,0.008,0.041,0.021l0.21,0.298l0.14-0.185c0.012-0.016,0.032-0.025,0.052-0.019c0.019,0.005,0.034,0.021,0.037,0.04 l0.069,0.365l0.222-0.023c0.001,0,0.003,0,0.005,0c0.016,0,0.03,0.007,0.04,0.021c0.011,0.014,0.013,0.032,0.006,0.049 l-0.229,0.536C31.131,24.832,31.112,24.844,31.093,24.844z M27.521,24.582l3.54,0.16l0.183-0.426l-0.184,0.02 c-0.001,0-0.003,0-0.005,0c-0.023,0-0.045-0.017-0.049-0.041l-0.057-0.3l-0.113,0.149c-0.01,0.013-0.024,0.02-0.04,0.02h-0.001 c-0.016,0-0.031-0.008-0.04-0.021l-0.206-0.293l-0.219,0.34c-0.009,0.014-0.025,0.022-0.042,0.022c-0.002,0-0.005,0-0.008,0 c-0.019-0.003-0.035-0.018-0.04-0.036l-0.089-0.313l-0.141,0.161c-0.012,0.013-0.031,0.022-0.048,0.016 c-0.018-0.003-0.032-0.016-0.037-0.032l-0.102-0.297l-0.033,0.121c-0.004,0.015-0.015,0.027-0.029,0.033 c-0.015,0.004-0.033,0.005-0.045-0.005l-0.165-0.103l-0.037,0.25c-0.003,0.019-0.018,0.035-0.036,0.04 c-0.02,0.008-0.038,0-0.052-0.016l-0.167-0.197l-0.154,0.231c-0.013,0.019-0.03,0.027-0.055,0.021 c-0.021-0.006-0.035-0.023-0.037-0.044l-0.01-0.109l-0.058,0.062c-0.01,0.011-0.024,0.017-0.042,0.016 c-0.016-0.002-0.03-0.012-0.038-0.025l-0.195-0.353l-0.116,0.326c-0.006,0.018-0.021,0.03-0.04,0.033 c-0.017-0.001-0.037-0.007-0.048-0.021l-0.183-0.257l-0.122,0.349c-0.005,0.016-0.018,0.027-0.034,0.031 c-0.015,0.007-0.033,0-0.045-0.01l-0.109-0.093v0.16c0,0.02-0.011,0.037-0.029,0.046c-0.018,0.007-0.039,0.004-0.053-0.008 l-0.266-0.229l-0.006,0.183c0,0.014-0.006,0.026-0.017,0.035c-0.009,0.01-0.021,0.013-0.037,0.013l-0.175-0.013L27.521,24.582z"/></g><g><path fill="#4caf50" d="M27.513,24.976c0,0,2.393-0.22,3.657,0.278c0.383,0.144,0.421-0.373,0.086-0.565 c-0.335-0.191-2.77-0.469-3.685-0.354C27.034,24.401,27.13,25.033,27.513,24.976z"/><path fill="#263238" d="M31.29,25.328c-0.041,0-0.087-0.008-0.139-0.027c-1.227-0.483-3.562-0.282-3.633-0.275 c-0.115,0.017-0.229-0.023-0.298-0.113c-0.078-0.1-0.096-0.243-0.045-0.365c0.034-0.084,0.131-0.229,0.389-0.262 c0.896-0.113,3.36,0.157,3.715,0.36c0.226,0.128,0.3,0.393,0.226,0.551C31.472,25.268,31.4,25.328,31.29,25.328z M28.734,24.876 c0.782,0,1.772,0.063,2.453,0.331c0.11,0.042,0.192,0.021,0.228-0.054c0.049-0.104,0.002-0.314-0.185-0.422 c-0.312-0.178-2.703-0.467-3.654-0.347c-0.153,0.019-0.263,0.09-0.309,0.2c-0.037,0.09-0.024,0.194,0.031,0.266 c0.049,0.062,0.123,0.091,0.206,0.075c0.001,0,0.002,0,0.003,0C27.554,24.922,28.068,24.876,28.734,24.876z"/></g><g><path fill="#ffd600" d="M30.872,24.526c0,0,0.115,0.44,0.067,0.641c-0.364-0.115-0.603-0.115-0.603-0.115l-0.153-0.613 L30.872,24.526z"/><path fill="#263238" d="M30.939,25.217c-0.005,0-0.01-0.001-0.015-0.002c-0.351-0.11-0.587-0.112-0.589-0.112 c-0.023,0-0.043-0.016-0.049-0.038l-0.152-0.613c-0.004-0.016,0.001-0.032,0.012-0.045s0.023-0.02,0.043-0.017l0.688,0.087 c0.021,0.003,0.037,0.018,0.043,0.037c0.004,0.019,0.117,0.454,0.067,0.665c-0.003,0.014-0.012,0.025-0.024,0.032 C30.956,25.215,30.948,25.217,30.939,25.217z M30.375,25.004c0.078,0.005,0.267,0.022,0.524,0.099 c0.015-0.168-0.045-0.438-0.067-0.531l-0.582-0.073L30.375,25.004z"/></g><g><polygon fill="#ffd600" points="29.446,24.363 29.618,24.976 28.853,24.928 28.633,24.315"/><path fill="#263238" d="M29.618,25.025c-0.001,0-0.002,0-0.003,0l-0.766-0.048c-0.021-0.001-0.037-0.014-0.044-0.033 l-0.22-0.612c-0.006-0.016-0.003-0.033,0.007-0.047c0.011-0.014,0.028-0.02,0.043-0.02l0.813,0.048 c0.021,0.001,0.039,0.016,0.045,0.036l0.172,0.612c0.005,0.016,0.001,0.032-0.009,0.045 C29.647,25.019,29.633,25.025,29.618,25.025z M28.889,24.88l0.662,0.041l-0.143-0.51l-0.703-0.041L28.889,24.88z"/></g><g><path fill="#ffd600" d="M27.838,24.325l0.249,0.622c0,0-0.517,0.029-0.632,0.029c-0.115,0-0.459-0.354-0.048-0.603 C27.618,24.239,27.838,24.325,27.838,24.325z"/><path fill="#263238" d="M27.455,25.025c-0.092,0-0.239-0.129-0.282-0.28c-0.025-0.092-0.032-0.269,0.208-0.415 c0.229-0.146,0.465-0.055,0.476-0.052c0.013,0.006,0.022,0.016,0.028,0.028l0.249,0.622c0.006,0.015,0.004,0.032-0.005,0.046 c-0.009,0.013-0.023,0.021-0.039,0.022C28.068,24.998,27.57,25.025,27.455,25.025z M27.67,24.348 c-0.068,0-0.152,0.015-0.235,0.067c-0.143,0.086-0.197,0.188-0.165,0.304c0.034,0.123,0.153,0.207,0.186,0.207 c0.087,0,0.415-0.017,0.56-0.024L27.8,24.365C27.775,24.358,27.729,24.348,27.67,24.348z"/></g><g><path fill="#4caf50" d="M28.776,20.649c0,0-0.201-0.345-0.593-0.153c-0.392,0.191-0.517,0.412-0.402,0.718 c0.115,0.306,0.211,0.67,0.211,0.67s0.038-0.278,0.421-0.354c0.383-0.077,0.699-0.335,0.747-0.603 C29.207,20.659,28.776,20.649,28.776,20.649z"/><path fill="#263238" d="M27.991,21.934c-0.022,0-0.043-0.015-0.049-0.037c0-0.004-0.096-0.364-0.209-0.665 c-0.123-0.33,0.013-0.578,0.428-0.78c0.363-0.174,0.584,0.07,0.643,0.149c0.071,0.005,0.266,0.029,0.358,0.143 c0.044,0.054,0.06,0.118,0.046,0.192c-0.052,0.292-0.383,0.562-0.786,0.643c-0.341,0.068-0.38,0.303-0.381,0.312 C28.037,21.915,28.017,21.934,27.991,21.934z M28.411,20.488c-0.061,0-0.129,0.015-0.207,0.053 c-0.368,0.18-0.481,0.376-0.377,0.655c0.07,0.188,0.135,0.399,0.173,0.534c0.06-0.093,0.176-0.204,0.402-0.25 c0.358-0.071,0.663-0.313,0.708-0.562c0.008-0.045-0.001-0.081-0.025-0.111c-0.068-0.084-0.247-0.105-0.31-0.107 c-0.018,0-0.033-0.01-0.042-0.024C28.728,20.665,28.62,20.488,28.411,20.488z"/></g><g><path fill="#fff" d="M16,8.594V5.675c-1.432,0.626-2.767,1.424-4,2.352V8.31l-0.206-0.128 c-3.105,2.399-5.483,5.683-6.753,9.483L12,13.32V18h4v-4.965L23.949,18H25v-2.609L21.171,13H25V9h-4.421L25,6.238V4.05 C24.667,4.034,24.338,4,24,4c-0.235,0-0.464,0.027-0.697,0.035L16,8.594z"/></g><g><path fill="#e53935" d="M13,12v6h2v-6h10v-2H15V6.157c-0.689,0.348-1.36,0.725-2,1.148V10H9.729 c-0.613,0.625-1.174,1.299-1.701,2H13z"/></g><g><path fill="#e53935" d="M11.641,13H9.898l-3.972,2.479c-0.229,0.484-0.437,0.977-0.627,1.481L11.641,13z"/></g><g><path fill="#e53935" d="M24.213,4.011L16.223,9h1.746L25,4.609V4.05C24.738,4.037,24.478,4.014,24.213,4.011z"/></g><g><polygon fill="#e53935" points="25,15.934 20.301,13 18.559,13 25,17.02"/></g></svg>