<svg xmlns="http://www.w3.org/2000/svg"  viewBox="0 0 48 48" width="30px" height="30px"><path fill="#2e7d32" d="M34,6.702v34.596c5.972-3.458,10-9.9,10-17.298C44,16.602,39.972,10.16,34,6.702z"/><path fill="#2e7d32" d="M14,6.702C8.028,10.16,4,16.602,4,24c0,7.398,4.028,13.84,10,17.298V6.702z"/><path fill="#eceff1" d="M23.935,43.997c0.02,0,0.039,0.003,0.059,0.003c3.65-0.001,7.061-0.995,10.006-2.704V6.704 C31.055,4.995,27.644,4.001,23.994,4c-0.02,0-0.039,0.002-0.059,0.003C20.313,4.012,16.927,4.998,14,6.691v34.618 C16.927,43.002,20.313,43.988,23.935,43.997z"/><path fill="#2e7d32" d="M30.435,30.081c-1.3,0.045-1.793,0.359-1.704-0.09c0.09-0.448,0.403-0.493,1.793-0.448 c1.39,0.045,0.897-0.762,0-0.583c-0.897,0.179-1.704,0.09-1.704,0.09l-2.062,0.134c0,0,1.928-0.628,3.228-0.717 s1.255-0.762-0.448-0.359c-1.704,0.403-1.704,0.403-1.704,0.403h-0.314l0.762-0.672c0,0,1.435-0.224,2.331-0.583 c-1.3,0.09-1.883,0.628-2.555,0.09c-0.673-0.538,2.466-0.448,2.466-0.448s-0.538-0.673-1.569-0.403 c-1.031,0.269-1.614,0.09-1.614,0.09l0.269-0.493l2.869-0.403c0,0,0-0.762-1.569-0.224c-1.569,0.538-1.748,0.359-1.748,0.359 l0.448-0.628c0,0,1.21,0.135,2.062-0.583c0.852-0.717-0.448-0.359-0.448-0.359l-1.748,0.403v-0.538l0.986-0.224l0.359-0.762 l0.807-0.269l-0.09-0.493l-2.824,0.134l2.421-0.628l-0.493-0.359l-1.614-0.269l1.479-0.583l-0.224-0.224l0.403-0.538l-0.359-0.269 c0,0-2.421,0.583-3.407,0.583c-0.986,0,0.448-0.493,0.448-0.493l2.197-0.314c0,0-1.39-0.762-2.555-0.448 c-0.369,0.099-0.571,0.071-0.664-0.002l-0.007-0.232c0.113-0.152,0.4-0.298,0.806-0.259c0.941,0.09,1.704-0.179,1.704-0.179 l-2.107-0.314l1.21-0.314l-1.21,0.134l0.134-0.493l1.704,0.224l0.045-1.031l-1.883-0.134h-0.179l2.197-0.538l-2.331,0.09 l0.179-0.583l1.255,0.09l0.224-0.269l-1.659-0.179l1.435-0.359h-1.479l1.3-0.628l-0.448-0.269l-0.941,0.448l0.403-0.628 l-0.516-0.48l0.003-0.169l0.513-0.293l-0.507-0.032l0.003-0.127l0.459-0.245l-0.45-0.225l0.002-0.089l-0.083,0.017l-0.052-1.631 c0,0-0.024,0.653-0.06,1.655l-0.657,0.138l0.538,0.538l-0.538,0.134l0.224,0.538h-0.448l0.448,0.448l0.09,0.448l-1.479-0.672 l1.345,1.031l-1.569,0.045l1.704,0.403l-1.793,0.314l1.659,0.493l-1.659,0.09l1.748,0.359h-0.672l-2.331-0.314l0.538,0.403 l2.017,0.269l0.448,0.359l-0.807-0.045l-1.435,0.134c0,0,0.941,0,1.973,0.179c1.031,0.179-0.179,0.269-0.493,0.314 c-0.314,0.045-2.286-0.224-2.6,0l0.852,0.359l-0.717,0.314c0,0,1.838,0.359,2.421,0.583c0.583,0.224,0.403,0.493-0.09,0.538 c-0.493,0.045-1.659-0.583-1.659-0.583l-1.435,0.09l1.121,0.314l-0.09,0.224c0,0,1.21,0.224,1.793,0.314s1.121,0.359,0.941,0.762 c-0.179,0.403-1.435-0.314-1.973-0.628c-0.538-0.314-1.928,0.224-1.928,0.224l0.717,0.448l-0.717,0.269l2.735,0.673 c0,0,1.704,0.628,1.166,1.076c-0.538,0.448-2.242-1.031-2.242-1.031l-0.359,0.269c0,0-1.659-0.628-2.152-0.09 c-0.493,0.538,1.793,0.179,1.793,0.179l0.224,0.986c0,0-2.555-0.314-1.928,0.314c0.628,0.628,1.524,0.717,1.524,0.717 s-1.704-0.045-1.435,0.403c0.269,0.448,1.479,0.09,2.645,0.224c1.166,0.134,2.062,0.538,1.973,1.121 c-0.09,0.583-0.583,0.448-0.986,0.224c-0.403-0.224-0.403-0.134-1.21-0.628s-0.717,0-1.704-0.359s-1.39,0.448-1.121,0.493 c0.269,0.045,1.345-0.045,1.883,0.045c0.538,0.09,0.717,0.762,0.717,0.762s-1.076-0.538-1.659-0.583 c-0.583-0.045-0.807,0.403-0.359,0.493c0.448,0.09,3.183,0.493,3.9,0.897c0.717,0.403,0.448,0.672-0.359,0.583 c-0.807-0.09-1.569-0.762-1.569-0.762v0.403L19.81,26.54l0.135,0.403c0,0-2.421-0.403-2.152-0.09 c0.269,0.314,2.78,0.628,2.78,0.628l0.135,0.269l-1.076-0.179l-0.359,0.269l-1.704-0.538l0.179,0.448l1.569,0.269l2.331,0.045 c0,0,0,0,0.045,0.583l-2.107-0.135h-0.986c0,0-1.704-0.583-1.435-0.135c0.269,0.448,3.542,0.941,3.542,0.941l-1.569,0.224 l-1.121-0.09c0,0-0.852-0.673-1.345-0.314c-0.493,0.359,1.973,1.704,1.973,1.704s-0.403-0.134-1.793-0.762 c-1.39-0.628-0.448,1.166,0.493,1.524c0.941,0.359,1.39-0.448,3.362-0.359c1.973,0.09,1.704,0.897,0.717,0.493 c-0.986-0.403-0.897,0.583-1.793,0.314c-0.897-0.269-1.39,0.269-1.39,0.269s-2.107-0.135-1.569,0.224 c0.538,0.359,1.121,0.448,2.197,0.403c1.076-0.045,2.152-0.538,2.152-0.538l0.762,0.403l0.628-0.314l0.179,0.359l0.853-0.348 c-0.071,2.223-0.136,4.069-0.136,4.069l-0.045,0.269h1.704l-0.269-4.259l-0.002-0.121l0.585-0.462l1.255,0.403l0.269-0.448 l0.628-0.269c0,0,2.152,0.852,3.273,0.583c1.121-0.269,1.39-0.807,0.09-0.583c-1.3,0.224-3.721-0.359-3.721-0.359 s3.811,0.09,4.259-0.045c0.448-0.134,0.045-0.717-0.986-0.403c-1.031,0.314-3.497-0.134-3.497-0.134l0.359-0.493 c0,0,4.169,0.269,4.483,0.224C32.004,30.44,31.735,30.037,30.435,30.081z M26.938,25.329l-2.374,0.838l-0.002-0.076l-0.025-0.867 L26.938,25.329z M24.506,24.187l-0.017-0.576l1.373-0.03L24.506,24.187z M24.467,22.885l-0.013-0.442l1.766-0.208L24.467,22.885z M25.862,20.891c-0.16,0.027-0.874,0.301-1.438,0.523l-0.012-0.381C24.982,20.972,26.062,20.858,25.862,20.891z M25.772,19.232 l-1.399,0.578l-0.018-0.578H25.772z M24.307,17.757l-0.019-0.587h0.363L24.307,17.757z M25.324,16.722 c-0.194,0-0.686,0.168-1.04,0.299l-0.014-0.455C24.672,16.613,25.57,16.722,25.324,16.722z M21.827,17.753l1.953,0.797 c-0.004,0.113-0.007,0.223-0.011,0.336L21.827,17.753z M21.648,20.667l2.052,0.485c-0.007,0.255-0.015,0.501-0.021,0.74 L21.648,20.667z M23.641,23.335c-0.003,0.129-0.005,0.247-0.008,0.365l-1.761-0.881L23.641,23.335z M21.199,24.029l0.538-0.359 l1.886,0.589c-0.001,0.084-0.003,0.173-0.003,0.246L21.199,24.029z M22.275,28.154l1.283,0.481 c-0.004,0.131-0.007,0.262-0.011,0.396l-1.362-0.384L22.275,28.154z M22.006,30.037l-0.359-0.493l1.884,0.037 c-0.007,0.228-0.013,0.456-0.02,0.688L22.006,30.037z M25.683,30.171l-1.033,0.184l-0.014-0.667l1.226-0.279L25.683,30.171z M24.602,28.03l-0.009-0.452l2.166-0.591l0.672,0.09l-0.717,0.359L24.602,28.03z"/></svg>