<svg xmlns="http://www.w3.org/2000/svg"  viewBox="0 0 48 48" width="30px" height="30px"><path fill="#ffca28" d="M23,43.95V4.05c-0.676,0.034-1.343,0.099-2,0.199v39.502C21.657,43.85,22.324,43.916,23,43.95z"/><path fill="#424242" d="M24,44c0.338,0,0.667-0.034,1-0.05V4.05C24.667,4.034,24.338,4,24,4s-0.667,0.034-1,0.05V43.95 C23.333,43.966,23.662,44,24,44z"/><path fill="#eceff1" d="M27,43.751V4.249c-0.657-0.099-1.324-0.165-2-0.199V43.95C25.676,43.916,26.343,43.85,27,43.751z"/><path fill="#ffca28" d="M43.95,23c-0.034-0.677-0.099-1.343-0.199-2H4.249c-0.099,0.657-0.165,1.323-0.199,2H43.95z"/><path fill="#424242" d="M4.05,25H43.95c0.017-0.333,0.05-0.662,0.05-1c0-0.338-0.034-0.667-0.05-1H4.05 C4.034,23.333,4,23.662,4,24C4,24.338,4.034,24.666,4.05,25z"/><path fill="#2e7d32" d="M43.756,21C42.453,12.366,35.638,5.552,27,4.249V21H43.756z"/><path fill="#2e7d32" d="M21,21V4.249C12.362,5.552,5.547,12.366,4.244,21H21z"/><path fill="#2e7d32" d="M4.244,27C5.547,35.634,12.362,42.448,21,43.751V27H4.244z"/><path fill="#2e7d32" d="M27,27v16.751C35.638,42.448,42.453,35.634,43.756,27H27z"/><path fill="#eceff1" d="M43.751,27c0.099-0.657,0.165-1.324,0.199-2H4.05c0.034,0.676,0.099,1.343,0.199,2H43.751z"/><circle cx="24" cy="24" r="9" fill="#e53935"/><path fill="#2e7d32" d="M23.378,25.699c0,0,0.126,1.472,0.431,1.652c0.305,0.18,0.934-0.305,0.934-0.305l0.018-1.041 L23.378,25.699z"/><path fill="#424242" d="M23.97,27.439c-0.068,0-0.132-0.014-0.187-0.046c-0.318-0.187-0.442-1.537-0.456-1.69l-0.006-0.067 l1.489,0.329l-0.001,0.041l-0.018,1.065l-0.019,0.015C24.75,27.103,24.308,27.439,23.97,27.439z M23.434,25.763 c0.043,0.443,0.18,1.416,0.4,1.545c0.219,0.126,0.677-0.151,0.858-0.287l0.017-0.976L23.434,25.763z"/><polygon fill="#2e7d32" points="23.818,31.803 23.539,31.011 22.702,30.956 23.369,30.447 23.162,29.633 23.853,30.11 24.563,29.662 24.322,30.467 24.968,31.003 24.129,31.023"/><path fill="#424242" d="M23.815,31.945l-0.312-0.887l-0.938-0.062l0.747-0.569l-0.231-0.911l0.773,0.534l0.794-0.502 l-0.269,0.9l0.723,0.601l-0.939,0.022L23.815,31.945z M22.838,30.915l0.738,0.048l0.245,0.697l0.274-0.686l0.739-0.019 l-0.568-0.472l0.009-0.032l0.202-0.677l-0.625,0.395l-0.608-0.419l0.182,0.716l-0.026,0.021L22.838,30.915z"/><polygon fill="#2e7d32" points="19.222,30.204 19.462,29.4 18.817,28.863 19.656,28.843 19.967,28.064 20.245,28.856 21.083,28.91 20.416,29.42 20.622,30.233 19.932,29.756"/><path fill="#424242" d="M20.704,30.351l-0.774-0.535l-0.794,0.502l0.269-0.899l-0.722-0.602l0.939-0.021l0.348-0.874 l0.312,0.887l0.938,0.062l-0.747,0.57L20.704,30.351z M19.933,29.696l0.608,0.42L20.359,29.4l0.587-0.449l-0.737-0.048 l-0.245-0.697l-0.274,0.687l-0.739,0.018l0.568,0.473l-0.009,0.032l-0.202,0.676L19.933,29.696z"/><polygon fill="#2e7d32" points="16.444,26.21 17.111,25.7 16.904,24.887 17.595,25.364 18.305,24.916 18.064,25.72 18.71,26.257 17.871,26.277 17.56,27.056 17.281,26.265"/><path fill="#424242" d="M17.557,27.199l-0.312-0.887l-0.938-0.062l0.747-0.57l-0.231-0.911l0.773,0.534l0.794-0.501 l-0.269,0.899l0.723,0.602l-0.939,0.021L17.557,27.199z M16.58,26.169l0.737,0.048l0.245,0.697l0.274-0.687l0.739-0.018 l-0.568-0.473l0.009-0.032l0.202-0.676l-0.625,0.394l-0.608-0.419l0.182,0.716L16.58,26.169z"/><polygon fill="#2e7d32" points="16.544,21.346 17.383,21.326 17.694,20.546 17.973,21.338 18.81,21.392 18.143,21.902 18.35,22.715 17.659,22.238 16.95,22.686 17.19,21.882"/><path fill="#424242" d="M18.431,22.833l-0.773-0.535L16.864,22.8l0.269-0.9l-0.723-0.601l0.939-0.022l0.348-0.873 l0.312,0.887l0.938,0.062l-0.747,0.57L18.431,22.833z M17.661,22.179l0.608,0.42l-0.182-0.716l0.587-0.449l-0.738-0.048 l-0.245-0.697l-0.274,0.686l-0.739,0.019l0.568,0.472l-0.009,0.032l-0.202,0.677L17.661,22.179z"/><polygon fill="#2e7d32" points="19.485,17.469 20.176,17.946 20.886,17.498 20.645,18.302 21.291,18.839 20.452,18.859 20.141,19.638 19.862,18.847 19.025,18.792 19.692,18.282"/><path fill="#424242" d="M20.138,19.781l-0.312-0.887l-0.938-0.062l0.747-0.57l-0.232-0.911l0.774,0.534l0.794-0.501 l-0.269,0.899l0.723,0.602l-0.939,0.021L20.138,19.781z M19.161,18.751l0.737,0.048l0.245,0.697l0.274-0.687l0.739-0.018 l-0.568-0.473l0.009-0.032l0.202-0.676l-0.625,0.394l-0.608-0.419l0.182,0.716L19.161,18.751z"/><g><polygon fill="#2e7d32" points="24.142,16.061 24.421,16.853 25.258,16.908 24.591,17.417 24.798,18.23 24.107,17.754 23.398,18.202 23.638,17.397 22.992,16.861 23.832,16.841"/><path fill="#424242" d="M24.88,18.348l-0.774-0.534l-0.794,0.501l0.269-0.899l-0.723-0.602l0.939-0.021l0.348-0.874 l0.312,0.887l0.938,0.062l-0.747,0.57L24.88,18.348z M24.109,17.694l0.608,0.419l-0.182-0.716l0.587-0.449L24.385,16.9 l-0.245-0.697l-0.274,0.687l-0.739,0.018l0.568,0.473l-0.009,0.032l-0.202,0.676L24.109,17.694z"/></g><g><polygon fill="#2e7d32" points="28.738,17.66 28.498,18.464 29.144,19.001 28.305,19.021 27.994,19.801 27.715,19.009 26.878,18.954 27.545,18.445 27.338,17.631 28.029,18.108"/><path fill="#424242" d="M27.991,19.943l-0.312-0.887l-0.938-0.062l0.747-0.57l-0.232-0.911l0.774,0.535l0.794-0.502 l-0.269,0.899l0.722,0.602l-0.939,0.021L27.991,19.943z M27.014,18.913l0.737,0.048l0.245,0.697l0.274-0.687l0.739-0.018 l-0.568-0.473l0.009-0.032l0.202-0.676l-0.625,0.395l-0.608-0.42l0.182,0.716L27.014,18.913z"/></g><g><polygon fill="#2e7d32" points="31.517,21.654 30.85,22.164 31.056,22.977 30.366,22.5 29.656,22.948 29.896,22.144 29.251,21.608 30.09,21.587 30.401,20.808 30.679,21.6"/><path fill="#424242" d="M31.137,23.095l-0.773-0.535l-0.794,0.502l0.269-0.899l-0.723-0.602l0.939-0.021l0.348-0.874 l0.312,0.887l0.938,0.062l-0.747,0.57L31.137,23.095z M30.367,22.44l0.607,0.42l-0.182-0.716l0.587-0.449l-0.737-0.048 l-0.245-0.697l-0.274,0.687l-0.739,0.018l0.568,0.473l-0.009,0.032l-0.202,0.676L30.367,22.44z"/></g><g><polygon fill="#2e7d32" points="31.416,26.519 30.577,26.539 30.266,27.319 29.988,26.527 29.15,26.472 29.817,25.963 29.61,25.149 30.301,25.626 31.011,25.178 30.771,25.983"/><path fill="#424242" d="M30.263,27.462l-0.312-0.887l-0.938-0.062l0.747-0.57l-0.231-0.911l0.773,0.534l0.794-0.501 l-0.269,0.899l0.723,0.602l-0.939,0.021L30.263,27.462z M29.286,26.432l0.738,0.048l0.245,0.697l0.274-0.687l0.739-0.018 L30.713,26l0.009-0.032l0.202-0.676L30.3,25.686l-0.608-0.419l0.182,0.716L29.286,26.432z"/></g><g><polygon fill="#2e7d32" points="28.475,30.395 27.784,29.918 27.075,30.366 27.315,29.562 26.669,29.025 27.509,29.005 27.819,28.225 28.098,29.017 28.935,29.072 28.268,29.581"/><path fill="#424242" d="M28.556,30.512l-0.773-0.534l-0.794,0.502l0.269-0.9l-0.723-0.601l0.939-0.022l0.348-0.873 l0.312,0.887l0.938,0.062l-0.747,0.569L28.556,30.512z M27.786,29.858l0.608,0.419l-0.182-0.716l0.026-0.021l0.561-0.428 l-0.738-0.048l-0.245-0.697l-0.274,0.686l-0.739,0.019l0.568,0.472l-0.009,0.032l-0.202,0.677L27.786,29.858z"/></g><g><path fill="#b39ddb" d="M23.18,20.691c0,0-1.203,1.454-0.718,3.483s2.334,2.783,2.334,2.783l1.185,0.287l0.305-1.131 l-2.298-5.206L23.18,20.691z"/><path fill="#424242" d="M26.017,27.304l-1.232-0.299c-0.026-0.01-1.886-0.79-2.371-2.819 c-0.484-2.03,0.716-3.513,0.729-3.527l0.021-0.024l0.031,0.009l0.831,0.222l0.01,0.021l2.305,5.223L26.017,27.304z M23.199,20.747 c-0.152,0.2-1.127,1.577-0.688,3.415c0.473,1.979,2.286,2.74,2.304,2.748l1.13,0.273l0.288-1.067l-2.282-5.168L23.199,20.747z"/></g><g><path fill="#2e7d32" d="M25.047,27.118c0,0,0.108,1.167,0.359,1.939c0.251,0.772,0.574-0.162,0.574-0.162 s0.449-0.323,0.449-0.79s-0.269-2.118-0.269-2.118L25.047,27.118z"/><path fill="#424242" d="M25.635,29.412c0,0-0.001,0-0.001,0c-0.111-0.001-0.201-0.112-0.275-0.34 c-0.25-0.769-0.36-1.938-0.361-1.949L24.996,27.1l0.016-0.017l1.182-1.202l0.016,0.098c0.011,0.067,0.27,1.661,0.27,2.127 c0,0.447-0.379,0.761-0.457,0.82C25.984,29.034,25.834,29.412,25.635,29.412z M25.1,27.137c0.017,0.167,0.126,1.205,0.354,1.904 c0.056,0.172,0.122,0.271,0.181,0.271h0c0.102,0,0.236-0.253,0.298-0.434l0.005-0.015l0.013-0.01 c0.004-0.003,0.428-0.313,0.428-0.748c0-0.393-0.196-1.652-0.253-2.014L25.1,27.137z"/></g><g><path fill="#a1887f" d="M26.268,27.656l-3.68,0.09c0,0-0.449-0.987-0.969-0.09c-0.323,0.036-0.269,0.09-0.269,0.09 l0.359,0.61c0,0,4.057,0,4.542-0.036S26.771,27.656,26.268,27.656z"/><path fill="#424242" d="M21.708,28.406h-0.029l-0.372-0.632c-0.01-0.014-0.017-0.035-0.008-0.059 c0.014-0.039,0.059-0.078,0.289-0.106c0.151-0.252,0.314-0.38,0.486-0.38c0.006,0,0.012,0,0.017,0 c0.277,0.014,0.474,0.359,0.528,0.466l3.649-0.089c0.275,0,0.405,0.172,0.411,0.342c0.007,0.188-0.14,0.4-0.425,0.422 C25.772,28.406,21.874,28.406,21.708,28.406z M21.408,27.747l0.329,0.56c0.364,0,4.053-0.002,4.509-0.036 c0.226-0.017,0.339-0.173,0.333-0.318c-0.004-0.113-0.088-0.245-0.311-0.246l-3.713,0.091l-0.014-0.03 c-0.002-0.004-0.196-0.424-0.457-0.437c-0.004-0.001-0.008-0.001-0.012-0.001c-0.138,0-0.277,0.118-0.412,0.353l-0.013,0.021 l-0.025,0.003C21.494,27.721,21.434,27.737,21.408,27.747z"/></g><g><path fill="#fdd835" d="M25.227,27.602c0,0-0.449,0.144-0.467,0.485s0.215,0.233,0.413,0.287 c0.197,0.054,0.305,0.341-0.215,0.341c-0.521,0-0.682,0-0.898-0.018s-0.557-0.341-0.557-0.682c0-0.341,0.521-0.646,0.521-0.646 l0.934-0.09L25.227,27.602z"/><path fill="#424242" d="M24.958,28.766c-0.526,0-0.684,0-0.902-0.019c-0.232-0.019-0.602-0.361-0.602-0.731 c0-0.366,0.523-0.677,0.545-0.689l0.021-0.007l0.96-0.093l0.333,0.4l-0.071,0.023c-0.004,0.001-0.416,0.138-0.432,0.439 c-0.01,0.202,0.063,0.206,0.209,0.214c0.052,0.003,0.11,0.007,0.167,0.022c0.125,0.033,0.212,0.14,0.198,0.242 C25.375,28.642,25.306,28.766,24.958,28.766z M24.04,27.418c-0.067,0.042-0.487,0.312-0.487,0.598c0,0.314,0.318,0.616,0.511,0.632 c0.213,0.019,0.371,0.019,0.894,0.019c0.231,0,0.321-0.061,0.328-0.111s-0.052-0.112-0.125-0.133 c-0.046-0.013-0.097-0.015-0.146-0.018c-0.142-0.009-0.319-0.019-0.303-0.32c0.015-0.289,0.3-0.445,0.434-0.503l-0.208-0.249 L24.04,27.418z"/></g><g><path fill="#2e7d32" d="M24.473,20.565l0.377,1.257c0,0-0.987,0.431-1.203-0.287c-0.269,0.144-0.7,0.197-0.88-0.197 c0.162-0.323,0.521-0.862,0.521-0.862L24.473,20.565z"/><path fill="#424242" d="M24.256,22c-0.116,0-0.233-0.018-0.339-0.066c-0.14-0.064-0.24-0.176-0.299-0.329 c-0.198,0.092-0.409,0.111-0.576,0.056c-0.144-0.049-0.251-0.15-0.32-0.303l-0.01-0.021l0.01-0.021 c0.161-0.322,0.51-0.845,0.524-0.866l0.016-0.024l0.029,0.002l1.219,0.093l0.399,1.332l-0.041,0.018 C24.853,21.875,24.562,22,24.256,22z M23.677,21.461l0.018,0.059c0.046,0.155,0.135,0.264,0.264,0.323 c0.288,0.135,0.7-0.002,0.83-0.05l-0.354-1.181l-1.121-0.085c-0.07,0.105-0.348,0.531-0.491,0.811 c0.057,0.113,0.142,0.19,0.251,0.228c0.184,0.06,0.404,0.002,0.549-0.075L23.677,21.461z"/></g><g><path fill="#2e7d32" d="M24.724,24.892c0,0-0.646,1.293-0.485,2.064c0.162,0.772,0.646,0.395,0.646,0.395 s0.377,0.574,0.754-0.144c0.377-0.718,0-1.849,0-1.849L24.724,24.892z"/><path fill="#424242" d="M25.226,27.618c-0.167,0-0.296-0.131-0.352-0.2c-0.069,0.042-0.216,0.108-0.362,0.055 c-0.155-0.057-0.263-0.227-0.321-0.507c-0.164-0.779,0.462-2.043,0.489-2.097l0.023-0.045l0.045,0.022l0.934,0.477l0.006,0.02 c0.016,0.047,0.379,1.159-0.003,1.888c-0.131,0.249-0.28,0.38-0.442,0.388C25.236,27.618,25.231,27.618,25.226,27.618z M24.898,27.278l0.03,0.045c0.001,0.002,0.131,0.195,0.298,0.195c0.004,0,0.007,0,0.011,0c0.125-0.007,0.245-0.119,0.358-0.335 c0.336-0.64,0.049-1.64,0.003-1.79l-0.851-0.435c-0.111,0.234-0.598,1.321-0.459,1.987c0.051,0.242,0.138,0.389,0.257,0.433 c0.15,0.054,0.308-0.066,0.31-0.067L24.898,27.278z"/></g><g><path fill="#2e7d32" d="M24.006,21.606c0,0-0.377,1.167,0.215,2.567c0.592,1.4,0.826,1.58,1.239,1.939 c0.413,0.359,1.095,1.239,1.185,1.598c0.269-1.759-0.521-5.134-2.1-6.193C24.221,21.319,24.114,21.355,24.006,21.606z"/><path fill="#424242" d="M26.657,27.963l-0.06-0.241c-0.086-0.342-0.76-1.215-1.169-1.571l-0.033-0.028 c-0.398-0.347-0.638-0.555-1.219-1.929c-0.593-1.401-0.221-2.591-0.217-2.603l0.001-0.004c0.042-0.099,0.1-0.204,0.201-0.236 c0.097-0.031,0.216,0.005,0.41,0.123c1.621,1.087,2.394,4.483,2.124,6.244L26.657,27.963z M24.053,21.624 c-0.017,0.056-0.352,1.192,0.214,2.53c0.573,1.353,0.806,1.556,1.193,1.892l0.033,0.028c0.364,0.317,0.918,1.013,1.127,1.437 c0.186-1.778-0.572-4.926-2.104-5.952c-0.161-0.099-0.263-0.131-0.325-0.113C24.141,21.462,24.1,21.515,24.053,21.624z"/></g><g><path fill="#b39ddb" d="M25.64,20.296l-0.409-0.031l-0.309-0.023l0.79,0.449l-0.323,0.144l0.646,0.341l-0.377,0.197 l0.449,0.251l-0.323,0.197l0.413,0.269c0,0-1.562,0.574-1.921-1.418c-0.934,0.287-1.688-0.018-1.562-0.88 c0.126-0.862,1.454-0.808,1.849-0.323C24.878,19.857,25.64,20.296,25.64,20.296z"/><path fill="#424242" d="M25.705,22.219c-0.204,0-0.447-0.039-0.68-0.173c-0.397-0.228-0.663-0.668-0.788-1.31 c-0.555,0.158-1.035,0.111-1.321-0.134c-0.215-0.185-0.302-0.467-0.251-0.816c0.048-0.332,0.271-0.568,0.628-0.667 c0.471-0.133,1.059,0.013,1.309,0.319c0.306,0.376,1.056,0.81,1.063,0.814l0.19,0.109l-0.714-0.054l0.682,0.388l-0.32,0.142 l0.64,0.338l-0.379,0.198l0.442,0.248l-0.328,0.201l0.43,0.28l-0.094,0.034C26.199,22.144,25.988,22.219,25.705,22.219z M24.314,20.608l0.01,0.056c0.115,0.64,0.367,1.075,0.749,1.294c0.387,0.224,0.813,0.161,1.004,0.115l-0.388-0.252l0.318-0.195 l-0.455-0.254l0.375-0.196l-0.653-0.346l0.327-0.146l-0.898-0.509l0.733,0.055c-0.247-0.155-0.687-0.452-0.912-0.729 c-0.224-0.273-0.776-0.404-1.205-0.285c-0.316,0.087-0.514,0.295-0.556,0.584c-0.045,0.314,0.03,0.565,0.217,0.727 c0.264,0.227,0.744,0.265,1.281,0.099L24.314,20.608z"/></g><g><ellipse cx="23.665" cy="19.91" fill="#2e7d32" rx=".305" ry=".171"/><path fill="#424242" d="M23.665,20.13c-0.199,0-0.355-0.097-0.355-0.22c0-0.124,0.156-0.221,0.355-0.221 s0.355,0.097,0.355,0.221C24.02,20.033,23.864,20.13,23.665,20.13z M23.665,19.789c-0.146,0-0.255,0.064-0.255,0.121 s0.109,0.12,0.255,0.12s0.255-0.063,0.255-0.12S23.811,19.789,23.665,19.789z"/></g><g><path fill="#fdd835" d="M22.893,19.847c0,0-0.862,0.215-0.628,1.005c0.233-0.215,0.233-0.215,0.233-0.215 s0.413,0.197,0.539-0.144C23.162,20.152,22.893,19.847,22.893,19.847z"/><path fill="#424242" d="M22.239,20.944l-0.022-0.077c-0.07-0.237-0.053-0.448,0.05-0.629c0.188-0.33,0.597-0.436,0.614-0.44 l0.03-0.007l0.02,0.022c0.012,0.014,0.287,0.332,0.153,0.697c-0.037,0.101-0.101,0.17-0.188,0.206 c-0.146,0.059-0.317,0.007-0.387-0.021L22.239,20.944z M22.875,19.904c-0.094,0.03-0.382,0.14-0.521,0.385 c-0.078,0.136-0.098,0.293-0.061,0.47l0.196-0.182l0.031,0.015c0.002,0,0.194,0.088,0.338,0.032 c0.062-0.025,0.105-0.074,0.132-0.148C23.084,20.22,22.931,19.98,22.875,19.904z"/></g></svg>