<svg xmlns="http://www.w3.org/2000/svg"  viewBox="0 0 48 48" width="500px" height="500px"><path fill="#ff3d00" d="M41.302,34H6.698c3.46,5.972,9.904,10,17.302,10S37.843,39.972,41.302,34z"/><path fill="#ff3d00" d="M24,4C16.602,4,10.157,8.028,6.697,14h34.605C37.843,8.028,31.398,4,24,4z"/><path fill="#eceff1" d="M44,24c0-3.647-0.992-7.056-2.697-10H6.697C4.992,16.944,4,20.353,4,24s0.992,7.056,2.698,10h34.605 C43.008,31.056,44,27.647,44,24z"/><path fill="#00a650" d="M23.713,17c-0.305,0.633-0.884,1.076-1.436,1.495c-0.091,0.077-0.314,0.228-0.15,0.342	c0.137-0.155,0.524,0.05,0.301,0.214c-0.201,0.187-0.479,0.255-0.702,0.406c-0.196,0.105-0.396,0.214-0.551,0.374	c-0.009,0.251,0.319,0.114,0.451,0.219c0.173,0.182-0.073,0.488-0.301,0.419c-0.292,0.009-0.492,0.26-0.602,0.497	c-0.228,0.346-0.661,0.451-1.003,0.647c-0.196,0.114-0.387,0.237-0.57,0.369c-0.237,0.16-0.032,0.474,0.219,0.392	c0.269-0.023,0.515-0.232,0.798-0.173c0.251,0.087,0.324,0.415,0.237,0.643c-0.064,0.182-0.219,0.31-0.346,0.451	c-0.201,0.201-0.465,0.333-0.743,0.396c-0.269,0.087-0.515,0.251-0.693,0.469c-0.205,0.205-0.41,0.41-0.643,0.579	c-0.077,0.187,0.132,0.346,0.31,0.342c0.369-0.023,0.624-0.319,0.939-0.474c0.264-0.114,0.57,0.16,0.506,0.428	c-0.018,0.26-0.269,0.392-0.488,0.474c-0.647,0.319-1.212,0.784-1.709,1.294c-0.105,0.205-0.387,0.146-0.542,0.292	c-0.1,0.182,0.15,0.278,0.301,0.26c0.643-0.077,1.24-0.342,1.805-0.638c0.214-0.096,0.41-0.228,0.629-0.305	c0.205-0.05,0.492,0.036,0.529,0.269c0,0.242-0.242,0.374-0.438,0.469c-0.602,0.31-1.258,0.483-1.896,0.684	c-0.242-0.064-0.419,0.355-0.16,0.428c0.278,0.091,0.574,0.018,0.857,0.005c0.88-0.132,1.65-0.597,2.47-0.898	c0.342-0.109,0.743,0.041,0.911,0.355c0.173,0.283,0.155,0.647-0.023,0.921c-0.283,0.592-0.711,1.135-1.29,1.477	c-0.36,0.178-0.784,0.242-1.094,0.51c-0.287,0.096,0.146,0.474,0.21,0.173c0.169-0.232,0.474-0.301,0.752-0.31	c0.41-0.046,0.852-0.118,1.176-0.401c0.287-0.219,0.57-0.52,0.962-0.524c0.219,0.023,0.433,0.196,0.652,0.091	c0.191-0.087,0.497-0.036,0.547,0.196c0.091,0.273,0.374,0.396,0.602,0.538c0.082,0.114,0.355,0.406,0.415,0.15	c-0.05-0.187,0.023-0.465,0.269-0.401c0.214,0.009,0.415,0.087,0.629,0.096c0.283,0.059,0.52,0.251,0.684,0.479	c0.109,0.15,0.351,0.41,0.533,0.21c0.114-0.205-0.1-0.378-0.278-0.451c-0.251-0.155-0.469-0.36-0.693-0.556	c-0.324-0.296-0.611-0.679-0.661-1.126c-0.068-0.447-0.032-0.902,0.027-1.349c0.073-0.287,0.447-0.442,0.706-0.292	c0.369,0.169,0.734,0.401,1.158,0.378c0.606,0.009,1.23-0.105,1.827,0.068c0.579,0.178,0.993,0.661,1.559,0.866	c0.123,0.077,0.287,0.005,0.333-0.128c0.055-0.118,0.018-0.269-0.1-0.337c-0.652-0.652-1.545-0.962-2.306-1.467	c-0.237-0.064-0.278-0.437-0.059-0.547c0.287-0.205,0.697-0.109,0.957,0.105c0.214,0.123,0.46,0.219,0.711,0.219	c0.264-0.082,0.137-0.451-0.096-0.479c-0.424-0.237-0.729-0.62-1.094-0.925c-0.21-0.173-0.442-0.351-0.725-0.387	c-0.155-0.027-0.314-0.032-0.469-0.023c-0.15-0.155,0.046-0.396,0.237-0.378c0.196,0.014,0.392,0.027,0.583,0	c0.219-0.014,0.438-0.036,0.656-0.036c0.178,0.118,0.529-0.087,0.369-0.292c-0.173-0.15-0.424-0.137-0.633-0.214	c-0.365-0.118-0.738-0.21-1.117-0.287c-0.26-0.014-0.228-0.355,0.005-0.392c0.15-0.055,0.283,0.059,0.428,0.077	c0.246,0.05,0.506,0.05,0.752,0.105c0.214-0.105,0.05-0.406-0.141-0.424c-0.451-0.155-0.839-0.442-1.217-0.715	c-0.419-0.31-0.802-0.67-1.226-0.971c-0.155-0.096-0.406-0.118-0.447-0.328c-0.014-0.191,0.214-0.278,0.378-0.232	c0.228,0.064,0.442,0.182,0.679,0.242c0.187,0.027,0.374,0.082,0.551,0.059c0.228-0.137-0.096-0.228-0.214-0.273	c-0.301-0.16-0.565-0.374-0.834-0.574c-0.232-0.191,0.191-0.273,0.337-0.201c0.242,0.096,0.269-0.251,0.087-0.337	c-0.214-0.087-0.396-0.237-0.592-0.365c-0.346-0.246-0.747-0.438-1.176-0.492c-0.483-0.05-0.934-0.324-1.189-0.725	C23.941,17.51,23.827,17.255,23.713,17z M22.127,19.657c0.251,0.009,0.21,0.447-0.036,0.419	C21.853,20.062,21.872,19.611,22.127,19.657z M24.474,19.894c0.246-0.041,0.296,0.392,0.055,0.415	C24.273,20.35,24.182,19.867,24.474,19.894z M23.786,19.953c0.246,0.046,0.205,0.465-0.046,0.469	c-0.182,0.041-0.378,0.16-0.561,0.068c-0.146-0.155,0.068-0.383,0.232-0.433C23.544,20.035,23.658,19.976,23.786,19.953z M25.372,19.953c0.237,0.087,0.15,0.492-0.096,0.488c-0.237,0.032-0.346-0.355-0.128-0.447	C25.221,19.971,25.294,19.949,25.372,19.953z M22.701,20.418c0.173,0.164,0.068,0.479-0.146,0.551	c-0.155,0.082-0.365,0.283-0.533,0.118c-0.091-0.201,0.137-0.351,0.273-0.46C22.418,20.532,22.551,20.45,22.701,20.418z M24.688,21.325c0.251,0.114,0.123,0.556-0.15,0.529c-0.223-0.055-0.196-0.433,0.032-0.465	C24.611,21.37,24.652,21.348,24.688,21.325z M23.895,21.366c0.237,0.109,0.059,0.492-0.178,0.437	c-0.242-0.027-0.237-0.451,0.027-0.41C23.799,21.389,23.849,21.389,23.895,21.366z M25.599,21.589	c0.26-0.082,0.565,0.178,0.483,0.442c-0.114,0.201-0.396,0.228-0.597,0.15c-0.232-0.009-0.387-0.351-0.182-0.497	C25.39,21.621,25.495,21.594,25.599,21.589z M21.831,21.653c0.21-0.114,0.433,0.228,0.255,0.374	c-0.118,0.173-0.428,0.242-0.561,0.05C21.416,21.895,21.594,21.58,21.831,21.653z M20.855,21.812	c0.237,0.032,0.396,0.246,0.483,0.451c0.023,0.246-0.351,0.383-0.515,0.201c-0.182-0.114-0.342-0.342-0.246-0.561	C20.637,21.822,20.755,21.785,20.855,21.812z M26.684,22.71c0.26-0.068,0.447,0.337,0.223,0.488	c-0.205,0.182-0.602-0.059-0.492-0.319C26.465,22.779,26.575,22.715,26.684,22.71z M23.376,23.171	c0.219,0.027,0.146,0.401-0.055,0.387C23.102,23.521,23.152,23.152,23.376,23.171z M22.268,23.371	c0.178-0.123,0.406,0.178,0.26,0.319C22.35,23.813,22.122,23.512,22.268,23.371z M24.027,23.408	c0.205,0.123,0.328,0.351,0.351,0.583c-0.096,0.214-0.479,0.164-0.52-0.068C23.781,23.74,23.849,23.508,24.027,23.408z M24.642,23.763c0.264-0.064,0.169,0.479-0.055,0.292C24.515,23.968,24.556,23.827,24.642,23.763z M20.787,24.141	c0.178-0.05,0.433,0.005,0.479,0.205c0.023,0.182-0.187,0.283-0.337,0.328c-0.246,0.073-0.488,0.196-0.747,0.178	c-0.201-0.109-0.269-0.337-0.342-0.533c0.191-0.178,0.474-0.128,0.706-0.169C20.627,24.146,20.71,24.141,20.787,24.141z M26.766,24.998c0.223-0.109,0.465,0.242,0.278,0.401c-0.237,0.269-0.688,0.319-0.971,0.096c-0.032-0.237,0.205-0.406,0.419-0.442	C26.584,25.03,26.67,24.993,26.766,24.998z M28.024,25.267c0.255-0.046,0.456,0.31,0.278,0.497c-0.173,0.255-0.583,0.319-0.82,0.114	c-0.091-0.214,0.096-0.433,0.292-0.501C27.86,25.34,27.937,25.294,28.024,25.267z M21.685,25.645	c0.237-0.023,0.451,0.205,0.424,0.433c0.169,0.164-0.132,0.474-0.305,0.301c-0.15-0.178-0.15-0.419-0.205-0.633	C21.594,25.7,21.63,25.636,21.685,25.645z M23.499,25.777c0.242-0.105,0.561,0.182,0.428,0.424	c-0.096,0.201-0.469,0.132-0.456-0.096C23.471,25.996,23.462,25.882,23.499,25.777z M22.614,25.932	c0.246-0.055,0.469,0.255,0.337,0.465C22.706,26.415,22.578,26.133,22.614,25.932z"/></svg>