<svg xmlns="http://www.w3.org/2000/svg"  viewBox="0 0 48 48" width="100px" height="100px"><path fill="#283593" d="M44,24c0,11.046-8.954,20-20,20S4,35.046,4,24c0-2.216,0.36-4.348,1.026-6.341 C6.311,13.812,14.489,11,14.489,11s1.092-4.019,2.559-4.66C19.499,5.268,21.154,4,24,4C35.046,4,44,12.954,44,24z"/><path fill="#eceff1" d="M24,4C14.853,4,7.157,10.148,4.776,18.532h21.799V4.186C25.73,4.076,24.875,4,24,4z"/><path fill="#eceff1" d="M30.747,29.947v-3.414h1.626l1.195-1.987h-2.821v-1.027h3.419l1.195-1.987H24.009l1.261,1.987 h3.352v6.477l-2.589-3.828l-3.452,5.464h2.124l0.213-0.497h2.233l2.5,3.913v0.061l0.017-0.031l0.017,0.031v-0.061l2.467-3.913 h2.266l0.213,0.497h2.124l-3.452-5.464L30.747,29.947z M25.5,29.778l0.567-1.325l0.72,1.325H25.5z M32.55,29.778l0.72-1.325 l0.567,1.325H32.55z"/><polygon fill="#eceff1" points="22.791,25.948 24.045,25.063 22.51,25.085 22.056,23.618 21.603,25.085 20.068,25.063 21.322,25.948 20.827,27.401 22.056,26.482 23.286,27.401"/><polygon fill="#eceff1" points="39.411,25.063 37.876,25.085 37.422,23.618 36.968,25.085 35.433,25.063 36.688,25.948 36.193,27.401 37.422,26.482 38.651,27.401 38.157,25.948"/><polygon fill="#eceff1" points="34.333,34.489 33.879,33.023 33.425,34.489 31.89,34.468 33.144,35.353 32.65,36.806 33.879,35.886 35.108,36.806 34.613,35.353 35.868,34.468"/><polygon fill="#eceff1" points="25.988,34.489 25.534,33.023 25.08,34.489 23.545,34.468 24.799,35.353 24.304,36.806 25.534,35.886 26.763,36.806 26.268,35.353 27.523,34.468"/><polygon fill="#eceff1" points="30.127,37.702 29.673,36.235 29.219,37.702 27.684,37.68 28.939,38.565 28.444,40.018 29.673,39.099 30.902,40.018 30.407,38.565 31.662,37.68"/><g><path fill="#283593" d="M4.979,17.835h6.887V8.127C8.679,10.568,6.243,13.932,4.979,17.835z"/></g><g><path fill="#ff3d00" d="M24,4c-1.78,0-3.497,0.255-5.14,0.692v13.143h6.994V4.089C25.243,4.033,24.625,4,24,4z"/></g></svg>