<svg xmlns="http://www.w3.org/2000/svg"  viewBox="0 0 48 48" width="30px" height="30px"><path fill="#b71c1c" d="M6.621,26.95c0.845,0.314,1.512,0.562,3.003,0.562c1.49,0,2.158-0.248,3.003-0.562 c0.972-0.361,2.073-0.77,4.169-0.77c2.095,0,3.196,0.409,4.167,0.77c0.845,0.314,1.512,0.562,3.002,0.562s2.158-0.248,3.003-0.562 c0.972-0.361,2.073-0.77,4.169-0.77c2.095,0,3.197,0.409,4.169,0.77c0.845,0.314,1.512,0.562,3.004,0.562 c1.49,0,2.158-0.248,3.003-0.562c0.683-0.254,1.444-0.526,2.556-0.669C43.954,25.532,44,24.772,44,24c0-11.046-8.954-20-20-20 S4,12.954,4,24c0,0.775,0.048,1.539,0.135,2.292C5.207,26.436,5.952,26.702,6.621,26.95z"/><path fill="#fdd835" d="M27.928,12.021c0,0,1.892-0.763,2.236-2.491c3.353-0.121,4.944-0.442,4.944-0.442 s-4.772-0.563-6.707-0.362c-1.935,0.201-2.451,1.286-2.451,1.286l-1.118,1.326c0,0-3.525-1.406-5.89-1.246 s-4.041,1.165-5.546,1.005c0,0,1.72,1.808,5.675,0c1.935,0.482,2.923,1.406,2.923,1.406s-1.677-0.442-2.708,0.522 c-1.118-0.08-2.708-0.201-2.966,0.683c1.548-0.241,3.439-0.04,3.439-0.04s1.075,1.205,3.396,0.804 c2.322-0.402,4.729-1.005,4.729-1.005l4.084-0.281l-3.396-0.201l3.869-0.563l-4.041-0.04L27.928,12.021z"/><path fill="#424242" d="M22.246,14.604c-1.578,0-2.396-0.771-2.511-0.887c-0.198-0.02-1.967-0.184-3.407,0.042l-0.078,0.012 l0.022-0.075c0.267-0.918,1.842-0.804,2.995-0.722h0.001c0.828-0.757,2.062-0.64,2.541-0.559c-0.344-0.267-1.268-0.896-2.733-1.266 c-3.932,1.791-5.698,0.001-5.716-0.019l-0.094-0.099l0.135,0.015c0.78,0.082,1.59-0.146,2.536-0.408 c0.871-0.243,1.859-0.519,3.002-0.596c2.221-0.148,5.51,1.093,5.877,1.235l1.092-1.294c0.049-0.098,0.601-1.111,2.487-1.308 c1.916-0.199,6.67,0.355,6.718,0.361l0.312,0.037l-0.308,0.062c-0.016,0.003-1.62,0.321-4.913,0.442 c-0.322,1.505-1.818,2.285-2.179,2.454l0.393,0.3l4.024,0.04l0.006,0.1l-3.384,0.492l2.907,0.172l0.001,0.1l-4.084,0.281 c-0.016,0.005-2.428,0.606-4.725,1.004C22.833,14.579,22.527,14.604,22.246,14.604z M18.084,13.541c0.928,0,1.668,0.077,1.68,0.078 l0.02,0.002l0.013,0.015c0.011,0.012,1.091,1.178,3.351,0.788c2.294-0.397,4.702-0.999,4.727-1.005l3.314-0.229l-3.107-0.185 l3.714-0.539l-3.411-0.034l-0.555-0.425l0.081-0.032c0.019-0.008,1.87-0.774,2.205-2.455l0.008-0.039l0.039-0.001 c2.436-0.088,3.95-0.284,4.588-0.383c-1.141-0.124-4.74-0.491-6.344-0.321c-1.88,0.195-2.405,1.246-2.41,1.257l-0.007,0.011 l-1.142,1.354l-0.033-0.013c-0.033-0.014-3.173-1.255-5.48-1.255c-0.132,0-0.262,0.004-0.388,0.013 c-1.132,0.077-2.114,0.351-2.981,0.592c-0.818,0.229-1.542,0.43-2.229,0.43c-0.063,0-0.127-0.002-0.189-0.005 c0.438,0.344,2.184,1.411,5.506-0.108l0.016-0.007l0.017,0.004c1.925,0.48,2.937,1.41,2.946,1.42l0.145,0.135l-0.191-0.05 c-0.017-0.007-1.662-0.425-2.662,0.509l-0.016,0.016l-0.045-0.004c-1.081-0.077-2.551-0.184-2.865,0.574 C16.951,13.566,17.549,13.541,18.084,13.541z"/><path fill="#fdd835" d="M25.961,11.117c0,0,0.419,0.874,1.967,0.904"/><path fill="#424242" d="M27.927,12.071c-1.561-0.03-1.993-0.896-2.011-0.933l0.09-0.043 c0.004,0.008,0.428,0.847,1.923,0.876L27.927,12.071z"/><path fill="#fdd835" d="M26.573,10.484c0,0,0.613,1.055,1.967,1.085"/><path fill="#424242" d="M28.539,11.619c-1.367-0.03-2.003-1.099-2.009-1.109l0.086-0.051 c0.006,0.011,0.616,1.031,1.925,1.061L28.539,11.619z"/><path fill="#fdd835" d="M27.186,9.761c0,0,0.645,1.266,1.87,1.296"/><path fill="#424242" d="M29.056,11.106c-1.241-0.03-1.908-1.311-1.915-1.323l0.09-0.045 c0.006,0.012,0.646,1.239,1.827,1.269L29.056,11.106z"/><path fill="#fdd835" d="M27.766,9.249c0,0,0.838,1.326,1.709,1.326"/><path fill="#424242" d="M29.476,10.625c-0.889,0-1.717-1.294-1.751-1.35l0.084-0.053c0.009,0.013,0.834,1.303,1.667,1.303 V10.625z"/><path fill="#fdd835" d="M28.83,9.188c0,0,0.613,0.784,1.096,0.904"/><path fill="#424242" d="M29.915,10.142c-0.495-0.124-1.099-0.89-1.124-0.922l0.078-0.062 c0.006,0.008,0.608,0.771,1.069,0.887L29.915,10.142z"/><path fill="#fdd835" d="M15.933,10.967c0,0,1.698-0.1,3.138,0.131"/><path fill="#424242" d="M19.063,11.146c-1.416-0.229-3.11-0.13-3.128-0.13l-0.006-0.1c0.017-0.002,1.718-0.1,3.149,0.13 L19.063,11.146z"/><path fill="#fdd835" d="M14.708,11.75c0,0,0.967,0,1.967-0.753"/><path fill="#424242" d="M14.708,11.8v-0.1c0.01,0,0.963-0.01,1.937-0.743l0.061,0.08C15.703,11.791,14.748,11.8,14.708,11.8 z"/><g><path fill="#fdd835" d="M16.255,11.901c0,0,0.806-0.331,1.193-1.025"/><path fill="#424242" d="M16.274,11.946l-0.037-0.092c0.008-0.004,0.794-0.333,1.167-1.003l0.088,0.049 C17.102,11.601,16.309,11.933,16.274,11.946z"/></g><g><path fill="#fdd835" d="M17.706,11.66c0,0,0.097,0.121,0.451-0.693"/><path fill="#424242" d="M17.724,11.716c-0.026,0-0.047-0.013-0.057-0.025l0.078-0.062c-0.012-0.014-0.023-0.014-0.023-0.013 c0.004-0.001,0.112-0.031,0.391-0.669l0.092,0.041c-0.309,0.706-0.43,0.723-0.47,0.728C17.73,11.715,17.727,11.716,17.724,11.716z"/></g><g><ellipse cx="20.302" cy="13.016" fill="#263238" rx=".274" ry=".181"/><path fill="#424242" d="M20.302,13.246c-0.182,0-0.323-0.102-0.323-0.23s0.142-0.23,0.323-0.23s0.324,0.102,0.324,0.23 S20.483,13.246,20.302,13.246z M20.302,12.885c-0.121,0-0.224,0.06-0.224,0.131s0.103,0.131,0.224,0.131 c0.119,0,0.225-0.062,0.225-0.131S20.421,12.885,20.302,12.885z"/></g><g><path fill="#1a237e" d="M34.141,40.916c-0.845-0.314-1.512-0.562-3.004-0.562c-1.49,0-2.158,0.248-3.003,0.562 c-0.972,0.361-2.073,0.77-4.169,0.77c-2.095,0-3.197-0.409-4.168-0.77c-0.845-0.314-1.512-0.562-3.002-0.562 c-1.49,0-2.158,0.248-3.003,0.562c-0.089,0.033-0.18,0.067-0.272,0.1C16.569,42.899,20.153,44,24,44 c3.837,0,7.412-1.095,10.455-2.968C34.349,40.993,34.244,40.954,34.141,40.916z"/><path fill="#1a237e" d="M42.48,29.655c-0.972,0.361-2.073,0.77-4.169,0.77c-2.096,0-3.198-0.409-4.17-0.77 c-0.845-0.314-1.512-0.562-3.004-0.562c-1.49,0-2.158,0.248-3.003,0.562c-0.972,0.361-2.073,0.77-4.169,0.77 c-2.095,0-3.197-0.409-4.168-0.77c-0.845-0.314-1.512-0.562-3.002-0.562c-1.49,0-2.158,0.248-3.003,0.562 c-0.972,0.361-2.073,0.77-4.169,0.77c-2.096,0-3.197-0.409-4.17-0.77c-0.237-0.088-0.461-0.165-0.693-0.238 c0.279,0.993,0.636,1.951,1.058,2.875c0.281,0.091,0.552,0.184,0.801,0.276c0.845,0.314,1.513,0.562,3.004,0.562 c1.49,0,2.158-0.247,3.003-0.562c0.972-0.361,2.073-0.77,4.169-0.77c2.095,0,3.196,0.409,4.168,0.77 c0.845,0.314,1.512,0.562,3.002,0.562s2.158-0.247,3.003-0.562c0.972-0.361,2.073-0.77,4.169-0.77s3.197,0.409,4.17,0.77 c0.845,0.314,1.512,0.562,3.004,0.562c1.49,0,2.158-0.247,3.003-0.562c0.273-0.101,0.565-0.205,0.879-0.304 c0.42-0.922,0.774-1.879,1.052-2.87C42.988,29.474,42.741,29.558,42.48,29.655z"/><path fill="#1a237e" d="M38.311,36.044c-2.096,0-3.198-0.409-4.17-0.77c-0.845-0.314-1.512-0.562-3.004-0.562 c-1.49,0-2.158,0.248-3.003,0.562c-0.972,0.361-2.073,0.77-4.169,0.77c-2.095,0-3.197-0.409-4.168-0.77 c-0.845-0.314-1.512-0.562-3.002-0.562c-1.49,0-2.158,0.248-3.003,0.562c-0.972,0.361-2.073,0.77-4.169,0.77 c-0.644,0-1.181-0.044-1.662-0.108c0.755,1.013,1.61,1.944,2.539,2.797c0.909-0.079,1.471-0.278,2.126-0.521 c0.972-0.361,2.073-0.77,4.169-0.77c2.095,0,3.196,0.409,4.168,0.77c0.845,0.314,1.512,0.562,3.002,0.562s2.158-0.248,3.003-0.562 c0.972-0.361,2.073-0.77,4.169-0.77s3.197,0.409,4.17,0.77c0.669,0.248,1.242,0.451,2.187,0.526 c0.934-0.856,1.794-1.792,2.552-2.811C39.548,35.996,38.988,36.044,38.311,36.044z"/><path fill="#1a237e" d="M35.344,40.472C35.344,40.472,35.344,40.472,35.344,40.472 C35.343,40.472,35.344,40.472,35.344,40.472z"/></g><g><path fill="#fdd835" d="M14.874,26.424c0.548-0.091,1.19-0.149,1.971-0.149c2.081,0,3.174,0.409,4.139,0.77 c0.839,0.314,1.502,0.562,2.982,0.562s2.143-0.248,2.982-0.562c0.965-0.361,2.059-0.77,4.14-0.77c1.111,0,1.936,0.118,2.615,0.282 l2.306-0.739l-5.632-0.643l4.385-3.456l-5.546,1.406l2.794-4.5l-4.471,2.853l0.946-5.143l-3.267,4.299l-1.247-4.942l-1.032,5.023 l-3.052-4.099l0.602,4.942l-4.256-2.813l2.536,4.259c0,0-5.245-1.085-5.374-1.125c-0.129-0.04,4.471,3.215,4.471,3.215 l-5.546,0.482L14.874,26.424z"/><path fill="#424242" d="M23.966,27.657c-1.488,0-2.153-0.249-2.996-0.563c-0.965-0.361-2.054-0.769-4.125-0.769 c-0.723,0-1.364,0.049-1.963,0.148l-0.012,0.003l-2.795-0.928l0.242-0.021l5.409-0.471c-0.31-0.22-1.222-0.866-2.132-1.515 c-2.275-1.623-2.272-1.63-2.246-1.685l0.02-0.038l0.043,0.013c0.099,0.03,3.419,0.721,5.259,1.101l-2.591-4.349l0.183,0.12 l4.166,2.753l-0.611-5.021l0.112,0.15l2.985,4.01l1.054-5.128l0.054,0.212l1.221,4.842l3.331-4.384l-0.962,5.237l4.559-2.91 l-0.116,0.187l-2.729,4.396l5.654-1.434l-4.476,3.525l5.742,0.656l-2.54,0.813l-0.014-0.003c-0.794-0.191-1.621-0.281-2.604-0.281 c-2.073,0-3.162,0.408-4.122,0.768C26.121,27.408,25.455,27.657,23.966,27.657z M16.845,26.226c2.089,0,3.188,0.41,4.156,0.773 c0.837,0.312,1.495,0.559,2.965,0.559c1.471,0,2.13-0.246,2.964-0.559c0.97-0.362,2.067-0.773,4.158-0.773 c0.985,0,1.816,0.089,2.614,0.28l2.071-0.663l-5.521-0.631l0.095-0.075l4.201-3.31l-5.438,1.379l2.743-4.42l-4.383,2.797 l0.021-0.112l0.907-4.938l-3.204,4.216l-1.218-4.831l-1.011,4.917L22.9,20.746l-2.939-3.948l0.592,4.863l-0.09-0.06l-4.073-2.692 l2.481,4.169l-0.11-0.023c-0.19-0.039-4.19-0.867-5.168-1.078c0.671,0.501,3.241,2.327,4.304,3.078l0.111,0.079l-0.137,0.012 l-5.304,0.462l2.311,0.766C15.479,26.273,16.122,26.226,16.845,26.226z"/></g><g><path fill="#fdd835" d="M13.31,23.368c0.736,1.302,2.322,2.317,3.445,2.91c0.031,0,0.058-0.002,0.09-0.002 c2.081,0,3.174,0.409,4.139,0.77c0.839,0.314,1.502,0.562,2.982,0.562s2.143-0.248,2.982-0.562 c0.851-0.318,1.805-0.673,3.445-0.753c0.514-0.449,2.458-1.989,4.886-1.921c-3.181-1.205-5.589,0.04-5.589,0.04 s0.817-2.13,3.826-3.657c-3.955,0.241-4.987,1.929-4.987,1.929s-0.215-2.813,2.021-4.701c-2.536,0.683-3.912,3.536-3.912,3.536 s-1.118-2.371,0.043-5.224c-2.665,2.17-2.279,4.782-2.279,4.782s-2.15-1.768-1.849-4.822c-0.989,1.085-1.333,2.773-0.215,5.304 c-1.161-0.563-2.966-1.647-3.826-4.179c-0.086,1.487-0.129,3.456,1.591,5.304c-0.473-0.04-3.353-0.884-4.858-2.732 c0.215,1.366,1.247,3.255,4.041,4.099C16.578,24.332,15.417,24.372,13.31,23.368z"/><path fill="#424242" d="M23.966,27.657c-1.488,0-2.153-0.249-2.996-0.563c-0.965-0.361-2.054-0.769-4.125-0.769 c-0.032-0.001-0.059,0.003-0.09,0.003l-0.023-0.006c-1.176-0.622-2.732-1.635-3.465-2.93l-0.077-0.138l0.143,0.068 c1.988,0.947,3.126,0.963,5.71,0.702c-3.136-1.047-3.736-3.366-3.847-4.065l-0.028-0.183l0.117,0.144 c1.388,1.704,3.94,2.551,4.688,2.693c-1.701-1.908-1.581-3.985-1.509-5.236l0.015-0.256l0.082,0.243 c0.813,2.396,2.46,3.482,3.679,4.09c-0.951-2.227-0.858-3.986,0.278-5.232l0.102-0.111l-0.015,0.149 c-0.259,2.625,1.331,4.31,1.737,4.694c-0.034-0.559-0.011-2.81,2.309-4.698l0.151-0.123l-0.074,0.181 c-1.008,2.479-0.272,4.616-0.084,5.087c0.27-0.505,1.63-2.855,3.895-3.466l0.217-0.059l-0.172,0.145 c-1.905,1.609-2.013,3.922-2.008,4.517c0.32-0.396,1.575-1.627,4.939-1.832l0.24-0.015l-0.215,0.109 c-2.552,1.295-3.525,3.044-3.749,3.511c0.532-0.229,2.743-1.033,5.507,0.014l0.277,0.105l-0.296-0.009 c-0.053-0.001-0.104-0.002-0.156-0.002c-2.322,0-4.175,1.456-4.695,1.911l-0.014,0.011l-0.018,0.001 c-1.641,0.08-2.591,0.436-3.43,0.75C26.121,27.408,25.455,27.657,23.966,27.657z M16.845,26.226c2.089,0,3.188,0.41,4.156,0.773 c0.837,0.312,1.495,0.559,2.965,0.559c1.471,0,2.13-0.246,2.964-0.559c0.844-0.315,1.798-0.673,3.444-0.755 c0.534-0.464,2.341-1.87,4.616-1.923c-2.989-1.017-5.254,0.123-5.276,0.135l-0.117,0.061l0.047-0.122 c0.008-0.021,0.817-2.062,3.638-3.572c-3.689,0.288-4.699,1.872-4.709,1.889l-0.081,0.132l-0.012-0.154 c-0.002-0.027-0.181-2.712,1.866-4.592c-2.348,0.768-3.649,3.417-3.663,3.444l-0.046,0.095l-0.044-0.095 c-0.012-0.023-1.066-2.322-0.029-5.082c-2.448,2.101-2.115,4.586-2.111,4.611l0.019,0.128l-0.101-0.082 c-0.021-0.018-2.095-1.76-1.879-4.713c-1.032,1.231-1.068,2.959-0.106,5.136l0.055,0.125l-0.122-0.06 c-1.206-0.584-2.888-1.626-3.768-3.972c-0.078,1.628,0.035,3.346,1.59,5.018l0.089,0.095L20.1,22.734 c-0.49-0.041-3.232-0.851-4.771-2.605c0.183,0.863,0.936,2.957,3.972,3.874l0.238,0.072l-0.248,0.025 c-2.705,0.279-3.873,0.3-5.854-0.618c0.748,1.204,2.21,2.152,3.33,2.746C16.794,26.227,16.817,26.226,16.845,26.226z"/></g><g><path fill="#fdd835" d="M20.984,27.046c0.839,0.314,1.502,0.562,2.982,0.562s2.143-0.248,2.982-0.562 c0.887-0.332,1.894-0.7,3.666-0.758c-0.229-3.201-3.073-5.732-6.555-5.732c-3.484,0-6.328,2.534-6.556,5.737 C19.164,26.368,20.127,26.725,20.984,27.046z"/><path fill="#424242" d="M23.966,27.657c-1.488,0-2.153-0.248-2.996-0.563l0.015-0.048l-0.018,0.047 c-0.847-0.316-1.806-0.675-3.466-0.751l-0.052-0.002l0.004-0.052c0.23-3.243,3.132-5.783,6.605-5.783 c3.471,0,6.372,2.538,6.604,5.778l0.004,0.052l-0.052,0.002c-1.789,0.06-2.82,0.445-3.649,0.756 C26.121,27.408,25.455,27.657,23.966,27.657z M17.557,26.244c1.645,0.082,2.601,0.439,3.445,0.755L21.005,27 c0.833,0.312,1.491,0.558,2.961,0.558c1.471,0,2.13-0.246,2.964-0.559c0.828-0.31,1.856-0.694,3.63-0.76 c-0.256-3.164-3.101-5.635-6.501-5.635C20.655,20.604,17.81,23.078,17.557,26.244z"/></g><g><path fill="#eceff1" d="M38.213,33.13c-1.481,0-2.144-0.248-2.984-0.562c-0.966-0.361-2.06-0.77-4.141-0.77 c-2.081,0-3.175,0.409-4.14,0.77c-0.839,0.314-1.502,0.562-2.982,0.562s-2.143-0.247-2.982-0.562 c-0.965-0.361-2.059-0.77-4.139-0.77c-2.081,0-3.175,0.409-4.14,0.77c-0.839,0.314-1.502,0.562-2.982,0.562 c-1.481,0-2.144-0.248-2.983-0.562c-0.295-0.11-0.606-0.224-0.949-0.33c0.595,1.312,1.329,2.544,2.181,3.686 c0.5,0.072,1.069,0.119,1.751,0.119c2.081,0,3.175-0.409,4.14-0.77c0.839-0.314,1.502-0.562,2.982-0.562 c1.48,0,2.142,0.248,2.981,0.562c0.965,0.361,2.059,0.77,4.14,0.77c2.081,0,3.175-0.409,4.14-0.77 c0.839-0.314,1.502-0.562,2.982-0.562c1.481,0,2.144,0.248,2.983,0.562c0.966,0.361,2.06,0.77,4.142,0.77 c0.715,0,1.307-0.051,1.823-0.129c0.854-1.147,1.59-2.383,2.185-3.7c-0.375,0.113-0.71,0.235-1.026,0.354 C40.356,32.883,39.693,33.13,38.213,33.13z"/><path fill="#eceff1" d="M35.229,38.211c-0.966-0.361-2.06-0.77-4.141-0.77c-2.081,0-3.175,0.409-4.14,0.77 c-0.839,0.314-1.502,0.562-2.982,0.562s-2.143-0.248-2.982-0.562c-0.965-0.361-2.059-0.77-4.139-0.77 c-2.081,0-3.175,0.409-4.14,0.77c-0.67,0.251-1.235,0.457-2.187,0.531c0.935,0.856,1.95,1.622,3.035,2.289 c0.105-0.038,0.209-0.077,0.31-0.115c0.839-0.314,1.502-0.562,2.982-0.562c1.48,0,2.142,0.248,2.981,0.562 c0.965,0.361,2.059,0.77,4.14,0.77c2.081,0,3.175-0.409,4.14-0.77c0.839-0.314,1.502-0.562,2.982-0.562 c1.481,0,2.144,0.248,2.983,0.562c0.115,0.043,0.231,0.086,0.351,0.13c1.093-0.67,2.114-1.439,3.056-2.3 C36.488,38.676,35.914,38.467,35.229,38.211z"/><path fill="#eceff1" d="M4.75,29.368c0.282,0.084,0.547,0.181,0.831,0.288c0.966,0.361,2.06,0.77,4.141,0.77 c2.081,0,3.175-0.409,4.14-0.77c0.839-0.314,1.502-0.562,2.982-0.562c1.48,0,2.142,0.248,2.981,0.562 c0.965,0.361,2.059,0.77,4.14,0.77c2.081,0,3.175-0.409,4.14-0.77c0.839-0.314,1.502-0.562,2.982-0.562 c1.481,0,2.144,0.248,2.983,0.562c0.966,0.361,2.06,0.77,4.142,0.77c2.081,0,3.175-0.409,4.14-0.77 c0.308-0.115,0.593-0.221,0.902-0.31c0.277-1.001,0.489-2.028,0.608-3.085c-1.182,0.136-1.962,0.425-2.669,0.689 c-0.839,0.314-1.502,0.562-2.982,0.562c-1.481,0-2.144-0.248-2.984-0.562c-0.966-0.361-2.06-0.77-4.141-0.77 c-2.081,0-3.175,0.409-4.14,0.77c-0.839,0.314-1.502,0.562-2.982,0.562s-2.143-0.248-2.982-0.562 c-0.965-0.361-2.059-0.77-4.139-0.77c-2.081,0-3.175,0.409-4.14,0.77c-0.839,0.314-1.502,0.562-2.982,0.562 c-1.481,0-2.144-0.248-2.983-0.562c-0.693-0.259-1.459-0.54-2.602-0.68C4.258,27.331,4.47,28.363,4.75,29.368z"/></g></svg>