<svg xmlns="http://www.w3.org/2000/svg"  viewBox="0 0 48 48" width="30px" height="30px"><path fill="#eceff1" d="M7.305,13C5.221,16.157,4,19.934,4,24s1.221,7.843,3.305,11h33.39C42.779,31.843,44,28.066,44,24 s-1.221-7.843-3.305-11H7.305z"/><path fill="#d50000" d="M25.509,14.891c0,0-1.249-0.104-1.957-0.125s-1.416,0.687-1.416,1.582 c0,0.895,0.042,5.58,0.042,5.58l3.331,0.916v-4.768c0,0-1.686-0.291-1.645-1.728C23.906,14.912,25.509,14.891,25.509,14.891z"/><path fill="#880e4f" d="M25.559,22.91l-0.063-0.018l-3.368-0.926v-0.038c0-0.047-0.042-4.694-0.042-5.58 c0-0.464,0.188-0.913,0.516-1.23c0.264-0.257,0.597-0.402,0.918-0.402c0.011,0,0.021,0,0.032,0.001 c0.701,0.021,1.947,0.124,1.96,0.125l-0.004,0.1c-0.063,0.001-1.556,0.037-1.595,1.408c-0.04,1.378,1.587,1.676,1.603,1.679 l0.042,0.007V22.91z M22.228,21.891l3.231,0.889v-4.661c-0.263-0.059-1.683-0.437-1.645-1.771c0.028-0.976,0.76-1.319,1.252-1.44 c-0.429-0.032-1.08-0.078-1.517-0.091c-0.01,0-0.02,0-0.029,0c-0.295,0-0.603,0.135-0.849,0.373 c-0.309,0.3-0.486,0.722-0.486,1.159C22.187,17.191,22.224,21.443,22.228,21.891z"/><path fill="#d50000" d="M27.945,18.993h1.062l-0.187,0.375c0,0,0.562,0.312-0.021,0.645 c0.416,0.416,0.291,0.583-0.021,0.833c0.354,0.146,0.333,0.208,0.333,0.208v5.059c0,0-0.229,2.374-2.124,2.374 s-2.165-2.228-2.165-2.228s0.562,0.729,1.686,0.729c1.124,0,1.499-0.645,1.499-1.041s0-4.914,0-4.914l0.291-0.208 c0,0-0.5-0.416-0.042-0.77c-0.354-0.312-0.333-0.458-0.062-0.687C28.112,19.243,27.945,18.993,27.945,18.993z"/><path fill="#880e4f" d="M26.988,28.537c-1.917,0-2.212-2.25-2.215-2.272l-0.021-0.18l0.111,0.144 c0.005,0.007,0.562,0.71,1.647,0.71c1.063,0,1.449-0.593,1.449-0.991v-4.939l0.021-0.016l0.242-0.172 c-0.074-0.076-0.209-0.241-0.206-0.436c0.002-0.122,0.058-0.233,0.167-0.331c-0.168-0.156-0.241-0.274-0.24-0.387 c0.001-0.12,0.087-0.219,0.188-0.308l-0.277-0.416h1.236l-0.204,0.406c0.075,0.052,0.228,0.175,0.229,0.34 c0,0.119-0.078,0.231-0.235,0.333c0.169,0.18,0.242,0.319,0.235,0.449c-0.008,0.141-0.113,0.253-0.24,0.36 c0.204,0.091,0.296,0.163,0.287,0.227v5.055C29.159,26.143,28.906,28.537,26.988,28.537z M24.902,26.419 c0.108,0.51,0.559,2.019,2.086,2.019c1.827,0,2.071-2.306,2.074-2.329v-5.05c-0.01-0.013-0.062-0.068-0.302-0.167l-0.079-0.032 l0.066-0.053c0.165-0.132,0.261-0.229,0.267-0.341c0.006-0.107-0.073-0.24-0.25-0.418l-0.046-0.046l0.057-0.032 c0.159-0.092,0.24-0.186,0.239-0.28c-0.001-0.154-0.216-0.276-0.218-0.277l-0.042-0.023l0.172-0.346h-0.888l0.223,0.335 l-0.034,0.028c-0.129,0.109-0.185,0.188-0.186,0.262c-0.001,0.089,0.076,0.196,0.249,0.35l0.045,0.04l-0.048,0.036 c-0.113,0.088-0.172,0.187-0.174,0.293c-0.004,0.213,0.214,0.398,0.217,0.4l0.049,0.041l-0.323,0.23v4.889 c0,0.438-0.412,1.091-1.549,1.091C25.656,27.038,25.124,26.633,24.902,26.419z"/><path fill="#d50000" d="M19.888,18.993h-1.062l0.187,0.375c0,0-0.562,0.312,0.021,0.645 c-0.416,0.416-0.291,0.583,0.021,0.833c-0.354,0.146-0.333,0.208-0.333,0.208v5.059c0,0,0.229,2.374,2.124,2.374 s2.165-2.228,2.165-2.228s-0.562,0.729-1.686,0.729s-1.499-0.645-1.499-1.041s0-4.914,0-4.914l-0.291-0.208 c0,0,0.5-0.416,0.042-0.77c0.354-0.312,0.333-0.458,0.062-0.687C19.722,19.243,19.888,18.993,19.888,18.993z"/><path fill="#880e4f" d="M20.846,28.537c-1.918,0-2.171-2.395-2.173-2.419v-5.06c-0.009-0.063,0.083-0.136,0.287-0.227 c-0.127-0.107-0.232-0.22-0.24-0.36c-0.007-0.13,0.065-0.27,0.235-0.449c-0.157-0.102-0.236-0.214-0.235-0.334 c0.001-0.164,0.153-0.287,0.229-0.339l-0.204-0.406h1.236l-0.277,0.416c0.101,0.089,0.186,0.188,0.188,0.308 c0.001,0.112-0.071,0.229-0.24,0.386c0.109,0.099,0.165,0.21,0.167,0.332c0.003,0.194-0.132,0.359-0.207,0.436l0.263,0.188v4.939 c0,0.398,0.386,0.991,1.449,0.991c1.087,0,1.642-0.703,1.647-0.71l0.111-0.145l-0.022,0.181 C23.058,26.287,22.763,28.537,20.846,28.537z M18.772,21.059v5.055c0.002,0.019,0.247,2.324,2.074,2.324 c1.527,0,1.978-1.509,2.086-2.019c-0.222,0.215-0.754,0.619-1.607,0.619c-1.137,0-1.549-0.652-1.549-1.091v-4.889l-0.323-0.23 l0.049-0.041c0.002-0.002,0.221-0.188,0.217-0.4c-0.002-0.106-0.061-0.205-0.174-0.292l-0.048-0.037l0.045-0.04 c0.173-0.153,0.25-0.261,0.249-0.35c-0.001-0.074-0.056-0.152-0.186-0.262l-0.034-0.028l0.223-0.335h-0.888l0.172,0.346 l-0.042,0.023c-0.002,0.001-0.217,0.123-0.218,0.277c0,0.095,0.08,0.188,0.24,0.28l0.057,0.032l-0.046,0.046 c-0.177,0.178-0.256,0.311-0.25,0.418c0.006,0.111,0.103,0.209,0.267,0.341l0.066,0.053l-0.078,0.032 C18.834,20.991,18.782,21.046,18.772,21.059z"/><path fill="#880e4f" d="M24.822,25.676h1.083c0,0,0.645,0.312,1.02,0.833l-1.228,0.042 C25.697,26.551,25.072,26.259,24.822,25.676z"/><path fill="#880e4f" d="M22.892,25.676H21.81c0,0-0.645,0.312-1.02,0.833l1.228,0.042 C22.018,26.551,22.643,26.259,22.892,25.676z"/><path fill="#880e4f" d="M27.612,25.484h-7.475c-0.055,0-0.1-0.044-0.1-0.1s0.045-0.1,0.1-0.1h7.475 c0.055,0,0.1,0.044,0.1,0.1S27.667,25.484,27.612,25.484z"/><path fill="#880e4f" d="M21.304,24.818c-0.03,0-0.06-0.013-0.079-0.039l-0.833-1.083c-0.034-0.043-0.026-0.106,0.018-0.14 c0.043-0.033,0.105-0.027,0.14,0.019l0.833,1.083c0.034,0.043,0.026,0.106-0.018,0.14C21.347,24.812,21.325,24.818,21.304,24.818 z"/><path fill="#880e4f" d="M20.409,24.859c-0.023,0-0.046-0.008-0.065-0.023c-0.042-0.036-0.046-0.1-0.01-0.142l1.02-1.187 c0.036-0.041,0.099-0.046,0.141-0.011c0.042,0.036,0.046,0.1,0.01,0.142l-1.02,1.187C20.465,24.848,20.437,24.859,20.409,24.859z"/><path fill="#880e4f" d="M20.929,24.256c-0.055,0-0.1-0.044-0.1-0.1V23.47c0-0.056,0.045-0.1,0.1-0.1s0.1,0.044,0.1,0.1 v0.687C21.029,24.212,20.984,24.256,20.929,24.256z"/><path fill="#880e4f" d="M22.703,24.818c-0.03,0-0.06-0.013-0.079-0.039l-0.833-1.083c-0.034-0.043-0.025-0.106,0.018-0.14 c0.043-0.033,0.106-0.027,0.14,0.019l0.833,1.083c0.034,0.043,0.025,0.106-0.018,0.14C22.746,24.812,22.724,24.818,22.703,24.818 z"/><path fill="#880e4f" d="M21.808,24.859c-0.023,0-0.046-0.008-0.065-0.023c-0.042-0.036-0.046-0.1-0.01-0.142l1.02-1.187 c0.035-0.041,0.098-0.046,0.141-0.011c0.042,0.036,0.046,0.1,0.01,0.142l-1.02,1.187C21.864,24.848,21.836,24.859,21.808,24.859z"/><path fill="#880e4f" d="M22.328,24.256c-0.055,0-0.1-0.044-0.1-0.1V23.47c0-0.056,0.045-0.1,0.1-0.1s0.1,0.044,0.1,0.1 v0.687C22.428,24.212,22.383,24.256,22.328,24.256z"/><g><path fill="#880e4f" d="M24.149,24.818c-0.03,0-0.06-0.013-0.079-0.039l-0.833-1.083c-0.034-0.043-0.025-0.106,0.018-0.14 c0.042-0.033,0.106-0.027,0.14,0.019l0.833,1.083c0.034,0.043,0.025,0.106-0.018,0.14C24.192,24.812,24.17,24.818,24.149,24.818z"/><path fill="#880e4f" d="M23.254,24.859c-0.023,0-0.046-0.008-0.065-0.023c-0.042-0.036-0.046-0.1-0.01-0.142l1.02-1.187 c0.035-0.041,0.099-0.046,0.141-0.011c0.042,0.036,0.046,0.1,0.01,0.142l-1.02,1.187C23.31,24.848,23.282,24.859,23.254,24.859z"/><path fill="#880e4f" d="M23.774,24.256c-0.055,0-0.1-0.044-0.1-0.1V23.47c0-0.056,0.045-0.1,0.1-0.1s0.1,0.044,0.1,0.1 v0.687C23.875,24.212,23.83,24.256,23.774,24.256z"/></g><g><path fill="#880e4f" d="M25.654,24.818c-0.03,0-0.06-0.013-0.079-0.039l-0.833-1.083c-0.034-0.043-0.025-0.106,0.018-0.14 c0.042-0.033,0.106-0.027,0.14,0.019l0.833,1.083c0.034,0.043,0.025,0.106-0.018,0.14C25.697,24.812,25.675,24.818,25.654,24.818 z"/><path fill="#880e4f" d="M24.759,24.859c-0.023,0-0.046-0.008-0.065-0.023c-0.042-0.036-0.046-0.1-0.01-0.142l1.02-1.187 c0.035-0.041,0.099-0.046,0.141-0.011c0.042,0.036,0.046,0.1,0.01,0.142l-1.02,1.187C24.815,24.848,24.787,24.859,24.759,24.859z"/><path fill="#880e4f" d="M25.279,24.256c-0.055,0-0.1-0.044-0.1-0.1V23.47c0-0.056,0.045-0.1,0.1-0.1s0.1,0.044,0.1,0.1 v0.687C25.379,24.212,25.334,24.256,25.279,24.256z"/></g><g><path fill="#880e4f" d="M27.147,24.818c-0.03,0-0.06-0.013-0.079-0.039l-0.833-1.083c-0.034-0.043-0.025-0.106,0.018-0.14 c0.043-0.033,0.106-0.027,0.14,0.019l0.833,1.083c0.034,0.043,0.025,0.106-0.018,0.14C27.19,24.812,27.168,24.818,27.147,24.818z"/><path fill="#880e4f" d="M26.252,24.859c-0.023,0-0.046-0.008-0.065-0.023c-0.042-0.036-0.046-0.1-0.01-0.142l1.02-1.187 c0.036-0.041,0.098-0.046,0.141-0.011c0.042,0.036,0.046,0.1,0.01,0.142l-1.02,1.187C26.308,24.848,26.28,24.859,26.252,24.859z"/><path fill="#880e4f" d="M26.772,24.256c-0.055,0-0.1-0.044-0.1-0.1V23.47c0-0.056,0.045-0.1,0.1-0.1s0.1,0.044,0.1,0.1 v0.687C26.873,24.212,26.828,24.256,26.772,24.256z"/></g><g><path fill="#0d47a1" d="M25.863,30.777c-0.645,0.021-1.249-0.583-1.957-0.583s-1.416,0.583-1.978,0.583 c-0.562,0-1.374-0.625-1.957-0.645c-0.408-0.015-1.457,0.435-2.057,0.71c0.223,0.205,0.456,0.399,0.699,0.581h10.774 c0.137-0.103,0.276-0.201,0.407-0.311c-0.465-0.374-1.325-0.958-2.244-1C27.029,30.132,26.509,30.756,25.863,30.777z"/><path fill="#0d47a1" d="M27.758,29.486c-0.791,0-0.958-0.729-1.874-0.729c-0.916,0-1.228,0.687-1.978,0.729 c-0.75,0.042-1.582-0.833-2.144-0.77c-0.562,0.062-1.041,0.75-1.749,0.791c-0.708,0.042-1.228-0.916-1.853-0.854 c-0.326,0.033-0.965,0.409-1.506,0.763c0.154,0.215,0.315,0.424,0.486,0.624l13.784-0.072c0.108-0.129,0.208-0.264,0.309-0.399 c-0.415-0.378-1.084-0.888-1.664-0.875C28.653,28.716,28.549,29.486,27.758,29.486z"/><path fill="#0d47a1" d="M29.923,26.009c-0.5-0.104-0.562,0.125-0.562,0.125s0.021,0.833-0.187,1.02h3.356 c0.121-0.337,0.224-0.681,0.306-1.035c-0.28,0.259-0.777,0.632-1.289,0.577C30.777,26.613,30.423,26.113,29.923,26.009z"/><path fill="#0d47a1" d="M31.298,27.446c-0.562,0-1.249,0.562-1.666,0.604c-0.416,0.042-0.666-0.437-0.666-0.437 l-0.895,0.874l3.845,0.037c0.08-0.144,0.152-0.292,0.225-0.441C31.923,27.784,31.612,27.446,31.298,27.446z"/><path fill="#0d47a1" d="M18.784,27.675c0,0-0.25,0.479-0.666,0.437s-1.166-0.583-1.728-0.583 c-0.211,0-0.436,0.146-0.636,0.33c0.11,0.241,0.227,0.478,0.356,0.707l3.57-0.016L18.784,27.675z"/><path fill="#0d47a1" d="M23.802,26.53c-0.666,0-0.812,0.666-0.812,0.666h1.707C24.697,27.009,24.468,26.53,23.802,26.53z"/><path fill="#0d47a1" d="M18.639,27.196c-0.208-0.167-0.25-1.041-0.25-1.041s0.042-0.187-0.458-0.187 s-1.353,0.75-1.811,0.729c-0.258-0.012-0.638-0.247-0.924-0.451c0.08,0.324,0.176,0.641,0.289,0.951H18.639z"/><path fill="#0d47a1" d="M23.761,32.568c-0.645-0.021-0.916-0.77-1.853-0.791c-0.639-0.014-1.299,0.375-1.66,0.626 c1.145,0.529,2.413,0.832,3.752,0.832c1.289,0,2.514-0.277,3.625-0.769c-0.525-0.312-1.279-0.692-1.824-0.667 C24.885,31.839,24.406,32.589,23.761,32.568z"/><path fill="#0d47a1" d="M22.095,28.529h3.477c0,0-0.666-1.104-1.686-1.124C22.865,27.383,22.095,28.529,22.095,28.529z"/></g><g><path fill="#ff8f00" d="M18.16,23.428l-3.215-0.097c-0.015,0.219-0.033,0.436-0.033,0.659c0,0.49,0.048,0.967,0.121,1.437 h3.127V23.428z"/><polygon fill="#ff8f00" points="21.533,21.97 20.117,20.846 20.075,21.929 21.533,22.741"/><polygon fill="#ff8f00" points="21.408,22.949 20.096,22.366 20.096,22.886"/><path fill="#ff8f00" d="M18.972,18.681h0.791c0,0,0.645,0.187,0.187,0.645c0.396,0.292,0.021,0.791,0.021,0.791 l1.603,1.437l-0.042-1.437l-2.424-3.91c-0.583,0.38-1.122,0.822-1.604,1.323l1.113,1.296L18.972,18.681z"/><path fill="#ff8f00" d="M29.403,25.426h3.565c0.072-0.469,0.121-0.947,0.121-1.437c0-0.255-0.018-0.506-0.038-0.756 l-3.648,0.298V25.426z"/><path fill="#ff8f00" d="M27.529,21.158c0-0.208,0.146-0.52,0.146-0.52l-1.624,1.374v0.687l1.457-0.687 C27.508,22.012,27.529,21.366,27.529,21.158z"/><path fill="#ff8f00" d="M21.803,15.412l-0.165-0.34c-0.679,0.186-1.33,0.441-1.937,0.773 c0.489,0.968,1.317,2.6,1.81,3.544C21.449,16.724,21.803,15.412,21.803,15.412z"/><path fill="#ff8f00" d="M29.403,21.554v1.478c0,0,2.691-0.329,3.572-0.429c-0.116-0.783-0.319-1.537-0.616-2.243 L29.403,21.554z"/><path fill="#ff8f00" d="M18.139,21.137l0.354-0.354c0,0-0.437-0.458-0.021-0.729c-0.396-0.375,0.021-0.625,0.021-0.625 l-1.476-1.353c-0.471,0.575-0.867,1.214-1.192,1.895L18.139,21.137z"/><polygon fill="#ff8f00" points="27.508,22.407 26.092,23.032 27.508,22.949"/><path fill="#ff8f00" d="M18.222,22.949v-1.353l-2.67-0.999c-0.258,0.663-0.439,1.363-0.54,2.091L18.222,22.949z"/><path fill="#ff8f00" d="M26.134,17.577l-0.062,1.853l2.04-3.677c-0.639-0.331-1.321-0.586-2.037-0.756l-0.795,2.559 L26.134,17.577z"/><path fill="#ff8f00" d="M26.051,21.595l1.728-1.582c0,0-0.437-0.416,0.042-0.708c-0.354-0.333-0.146-0.541,0.167-0.562 c0.312-0.021,1.124,0.021,1.124,0.021l1.313-1.313c-0.522-0.531-1.113-0.988-1.749-1.378l-2.625,4.085V21.595z"/><path fill="#ff8f00" d="M29.174,20.076c0.479,0.187,0.021,0.666,0.021,0.666s0.25,0.125,0.271,0.333l2.598-1.338 c-0.318-0.623-0.703-1.204-1.147-1.734l-1.66,1.22C29.257,19.222,29.569,19.826,29.174,20.076z"/></g><g><path fill="#d50000" d="M24,4c-6.98,0-13.117,3.581-16.695,9h33.39C37.117,7.581,30.98,4,24,4z"/><path fill="#d50000" d="M40.695,35H7.305c3.578,5.419,9.715,9,16.695,9C30.98,44,37.117,40.419,40.695,35z"/></g></svg>