<svg xmlns="http://www.w3.org/2000/svg"  viewBox="0 0 48 48" width="30px" height="30px"><path fill="#b71c1c" d="M7.234,13.118l12.812,9.549l20.146,13.041C42.577,32.415,44,28.378,44,24c0-11.046-8.954-20-20-20 C16.971,4,10.8,7.634,7.234,13.118z"/><path fill="#263238" d="M24,44c6.828,0,12.85-3.427,16.458-8.649L7.542,12.649C5.313,15.875,4,19.782,4,24 C4,35.046,12.954,44,24,44z"/><polygon fill="#fff" points="15.584,21.788 16.021,22.795 17.082,22.509 16.566,23.479 17.451,24.129 16.372,24.331 16.415,25.429 15.584,24.71 14.753,25.429 14.796,24.331 13.717,24.129 14.602,23.479 14.087,22.509 15.147,22.795"/><polygon fill="#fff" points="12.796,32.204 13.233,33.212 14.294,32.925 13.779,33.895 14.664,34.545 13.584,34.747 13.627,35.845 12.796,35.127 11.965,35.845 12.009,34.747 10.929,34.545 11.814,33.895 11.299,32.925 12.359,33.212"/><polygon fill="#fff" points="8.828,23.682 9.265,24.689 10.325,24.403 9.81,25.373 10.695,26.023 9.615,26.225 9.659,27.322 8.828,26.604 7.997,27.322 8.04,26.225 6.96,26.023 7.845,25.373 7.33,24.403 8.391,24.689"/><polygon fill="#fff" points="10.849,18 11.287,19.008 12.347,18.721 11.832,19.691 12.717,20.341 11.637,20.543 11.68,21.641 10.849,20.923 10.018,21.641 10.062,20.543 8.982,20.341 9.867,19.691 9.352,18.721 10.412,19.008"/><polygon fill="#fff" points="13.472,27.212 13.779,28.032 14.654,28.072 13.969,28.617 14.203,29.462 13.472,28.979 12.741,29.462 12.974,28.617 12.289,28.072 13.164,28.032"/><path fill="#ffca28" d="M37.777,24.32c-0.084-0.775-0.36-1.739-1.035-2.779c-0.065-0.913-0.36-1.948-0.942-2.774l0.44,0.21 l-0.244-0.873l0.873,0.524c-0.105-0.873-0.629-1.781-0.629-1.781s0.175,0,0.454-0.035c-0.733-1.571-1.746-1.886-1.746-1.886 s0.279-0.105,0.629-0.244c-0.943-0.943-2.025-1.152-2.025-1.152s0.105-0.175,0.663-0.559c-2.619-1.152-3.667,0.244-3.667,0.244 l0.873-1.257l-0.314-0.314l0.524-0.559l-0.559-0.105l0.524-0.908h-0.663l0.419-0.594l-0.454,0.105l0.489-1.222 c-0.663,0.14-2.374,1.117-3.003,2.409c-0.629,1.292,0.175,2.34-0.244,2.968c-0.419,0.629-1.152,0.244-1.397-0.175 c-0.244-0.419-0.454-0.663-0.838-0.559c-0.384,0.105-0.803,0.14-2.375,0c0.908,0.244,1.537,1.013,1.537,1.013 s0.349,0.105,1.222,0.594c0.873,0.489-0.21,1.048-0.838,0.629s-1.536-0.733-2.724,0.314c-1.187,1.048-1.99,3.178-1.99,3.178 l0.873-0.768l-0.14,0.733l0.943-0.594l0.07,0.594l0.629-0.524l-0.035,0.803l0.978-0.943l-0.035,0.803l1.048-0.908l0.07,1.048 c0,0,0.489-0.559,0.943-1.292c0.175,2.409,2.514,3.562,2.514,3.562l-0.175-0.559l1.292,0.943c0,0,0.035-0.175-0.035-0.698 c0.384,0.978,3.422,2.374,3.422,2.374l-0.524-1.013l0.733,0.244l-1.117-1.606l0.594,0.035l-1.083-1.571l0.559,0.14l-0.454-1.187 l1.397,0.733l0.014-0.336c0.904,0.653,2.115,1.686,2.925,2.957c-0.039,0.336-0.127,0.685-0.285,1.045 c-1.222,2.794-3.701,1.571-3.701,1.571s1.921,2.27,4.33-1.013c0.084-0.152,0.143-0.351,0.19-0.568 c0.224,0.566,0.358,1.164,0.334,1.79c-0.07,1.816-1.397,2.794-3.248,2.584C36.45,28.161,37.952,25.926,37.777,24.32z M33.237,18.268l0.001-0.024l1.362,0.559l0.105-0.559l0.071,0.034c0.468,0.485,1.124,1.331,1.325,2.403 C35.429,19.887,34.5,19.069,33.237,18.268z"/></svg>