<svg xmlns="http://www.w3.org/2000/svg"  viewBox="0 0 48 48" width="100px" height="100px"><circle cx="24" cy="24" r="20" fill="#b71c1c"/><circle cx="24" cy="24" r="18" fill="#283593"/><path fill="#b3e5fc" d="M30.721,24.052c0-5.524-6.123-10.551-6.693-11.007V13c0,0-0.021,0.017-0.028,0.023 C23.993,13.017,23.972,13,23.972,13v0.045c-0.57,0.461-6.693,5.538-6.693,11.063c0,5.524,6.123,10.551,6.693,11.007v0.045 c0,0,0.021-0.017,0.028-0.023c0.007,0.006,0.028,0.023,0.028,0.023v-0.045C24.598,34.654,30.721,29.576,30.721,24.052z"/><path fill="#1e88e5" d="M18.066,27.37h11.98c0,0-0.703,3.037-5.934,7.93C22.369,33.726,18.066,27.37,18.066,27.37z"/><path fill="#9e9d24" d="M30.496,25.908c0,0-2.165,1.097-7.312,0.703c-0.141,0.506-0.225,0.75-0.225,0.75l6.974,0.066 L30.496,25.908z"/><path fill="#fff" d="M20.372,28.326c0,0,0.928-1.603,0.619-2.756c1.912,1.575,2.25,2.953,2.25,2.953l-1.378,0.225 L20.372,28.326z"/><path fill="#fdd835" d="M29.343,28.467c0,0-0.422,0.028-1.125,0.478c-0.703,0.45-1.547,0.703-2.278,0.759 c-0.731,0.056-0.844,0-1.547-0.056c-0.703-0.056-1.125,0.562-0.141,0.591c0.984,0.028,2.053,0.225,1.969,0.787 c-0.084,0.562-1.603,0.478-2.222,0.562c-0.619,0.084-1.8,0.281-2.39,0.956c-0.619-0.506-0.9-1.125-0.9-1.125 s0.366-0.591,1.322-0.591c0.956,0,0.534,0.225,1.35,0.141c0.816-0.084,1.434-0.337,0.197-0.534s-0.984-0.366-1.8-0.422 c-0.816-0.056-1.8-0.591-2.672-0.534c0.562,1.181,1.406,2.137,1.406,2.137l1.012,1.125l1.434,1.519l1.069,0.9l2.925-2.615 l2.109-2.784l0.703-0.928L29.343,28.467z"/><path fill="#c2185b" d="M20.935,24.742c-0.345,0-0.63-0.329-0.662-0.767c-0.037-0.5,0.2-0.811,0.652-0.853 c0.424-0.034,0.659,0.251,0.733,0.409l-0.182,0.084l0.091-0.042l-0.091,0.042c-0.006-0.014-0.159-0.329-0.532-0.294 c-0.343,0.032-0.502,0.247-0.473,0.638c0.025,0.332,0.224,0.583,0.463,0.583c0.202,0,0.425-0.09,0.522-0.134l0.019-0.314h-0.358 v-0.199h0.569l-0.036,0.641L21.6,24.562C21.586,24.569,21.251,24.742,20.935,24.742z"/><path fill="#c2185b" d="M22.776,24.739c-0.283,0-0.569-0.154-0.577-0.503c-0.009-0.35,0.013-0.964,0.014-0.99l0.199,0.008 c0,0.006-0.021,0.634-0.014,0.978c0.007,0.29,0.307,0.308,0.38,0.308c0.002,0,0.003,0,0.005,0c0.196-0.002,0.4-0.106,0.4-0.276 v-1.04h0.199v1.04c0,0.305-0.308,0.473-0.598,0.477C22.782,24.739,22.779,24.739,22.776,24.739z"/><path fill="#c2185b" d="M25.523,24.721l-0.472-1.228l-0.495,1.201l-0.186-0.076l0.591-1.434 c0.016-0.037,0.053-0.062,0.093-0.062h0.001c0.041,0,0.078,0.025,0.093,0.063l0.562,1.462L25.523,24.721z"/><rect width=".773" height=".199" x="24.703" y="24.036" fill="#c2185b"/><polygon fill="#c2185b" points="26.603,24.698 26.403,24.698 26.403,23.236 26.594,23.194 27.147,24.386 27.677,23.183 27.868,23.223 27.868,24.656 27.669,24.656 27.669,23.697 27.241,24.668 27.059,24.67 26.603,23.688"/><path fill="#c2185b" d="M23.998,35.646c-0.013,0-0.025,0-0.038-0.001c-0.071-0.002-0.141-0.019-0.203-0.051 c-0.08-0.041-0.149-0.1-0.199-0.171c-1.056-0.865-6.778-5.808-6.778-11.314c0-5.549,5.813-10.575,6.801-11.39 c0.046-0.061,0.104-0.112,0.171-0.146c0.093-0.044,0.201-0.063,0.29-0.059c0.062,0.002,0.125,0.016,0.182,0.042 c0.09,0.042,0.167,0.104,0.221,0.182c1.061,0.869,6.777,5.81,6.777,11.313c0,5.559-5.812,10.576-6.801,11.389 c-0.047,0.063-0.107,0.115-0.178,0.148C24.165,35.626,24.08,35.646,23.998,35.646z M24.002,13.671 c-1.355,1.155-6.223,5.641-6.223,10.438c0,4.793,4.859,9.232,6.218,10.38c1.266-1.09,6.224-5.663,6.224-10.437 C30.221,19.257,25.357,14.815,24.002,13.671z"/><path fill="#6d4c41" d="M23.634,28.354c-1.181,0.225-3.74,0.028-3.74,0.028s0.181,0.423,1.029,0.558l-0.045,0.314 l1.8-0.056l0.038-0.307C23.425,28.8,23.442,28.675,23.634,28.354z"/><path fill="#6d4c41" d="M24.141,18.962c0,0-0.056,4.612,0.056,5.681c0.112,1.069,0.984,3.375,2.531,4.415 c1.547,1.041,0.169,1.181-0.028,1.237s-0.647-0.45-0.816-0.844c-0.169-0.394-1.125-1.49-1.631-2.643 c-0.506-1.153-0.591-2.531-0.591-3.318c0-0.787,0.028-4.753,0.028-4.753L24.141,18.962z"/><path fill="#388e3c" d="M23.888,19.187c0,0-0.9,1.294-1.294,2.84c-0.309-0.197-0.281-0.647-0.197-1.35 c0.084-0.703,0.787-1.49,0.787-1.49s-1.322,0.281-2.503,1.603c0.169-1.012,1.294-1.856,1.969-1.969 c-1.659-0.141-3.29,0.562-3.29,0.562s1.575-2.165,3.937-0.9c-0.422-0.703-1.603-1.94-1.603-1.94s1.237,0.197,2.193,1.519 c-0.506-1.378-0.956-3.009-0.956-3.009s1.519,0.956,1.49,2.84c0.984-1.462,2.278-1.237,2.278-1.237l-1.969,1.547 c0,0,1.884-0.844,2.953,0.337c-1.209-0.366-2.784,0.112-2.784,0.112s2.447,0.422,2.475,2.053c-1.069-0.9-2.897-1.434-2.897-1.434 s1.294,1.153,0.928,2.559C24.478,20.846,23.888,19.187,23.888,19.187z"/></svg>