<svg xmlns="http://www.w3.org/2000/svg"  viewBox="0 0 48 48" width="30px" height="30px"><path fill="#eceff1" d="M24,4C15.421,4,8.125,9.412,5.284,17h37.431C39.875,9.412,32.579,4,24,4z"/><path fill="#1976d2" d="M44,24c0-2.467-0.468-4.818-1.284-7H5.284C4.468,19.182,4,21.533,4,24s0.468,4.818,1.284,7h37.431	C43.532,28.818,44,26.467,44,24z"/><path fill="#ff3d00" d="M42.716,31H5.284C8.125,38.588,15.421,44,24,44S39.875,38.588,42.716,31z"/><path fill="#1976d2" d="M10,14v2c0,7,4,8,4,8s4-1,4-8v-2H10z"/><path fill="#ff3d00" d="M18,14v2c0,7-4,8-4,8s-4-1-4-8v-2H9v2c0,7.691,4.562,8.922,4.758,8.973L14,25.031l0.242-0.063	C14.437,24.922,19,23.691,19,16v-2H18z"/><path fill="#eceff1" d="M16,18l-1,1l-1-2l-1,2l-1-1l-1.563,1.563C11.469,23.355,14,24,14,24s2.531-0.645,3.562-4.438L16,18z"/></svg>