<svg xmlns="http://www.w3.org/2000/svg"  viewBox="0 0 48 48" width="100px" height="100px"><circle cx="24" cy="24" r="20" fill="#388e3c"/><path fill="#ff8f00" d="M25.495,12.798c0,0-3.852-0.73-4.848-1.448c0.08,0.266,0.571,0.85,0.571,0.85l-3.068-1.461 c0,0,0.093,0.598,0.797,1.262c0,0-1.195-0.491-1.501-0.903c-0.305-0.412-0.106,0.558,0.372,0.996 c-0.319-0.186-0.452-0.292-0.704-0.491c-0.252-0.199,0.159,0.598,0.425,0.81c-0.465-0.292-0.279-0.106-0.505-0.305 c-0.226-0.199,0.094,0.389,0.491,0.691c0.548,0.415,1.66,0.691,1.66,0.691l-0.425,0.12c0,0,0.691,0.412,1.448,0.252 c-0.85,0.159-0.784,0.199-0.784,0.199s0.372,0.624,1.899,0.226c-0.292,0.186-0.77,0.305-0.77,0.305s0.784,0.505,2.032-0.08 c-0.478,0.266-0.916,0.438-0.916,0.438s0.558,0.425,1.408,0.066c-0.398,0.239-0.385,0.292-0.385,0.292s0.425,0.146,0.916,0.013 c-0.345,0.292-0.186,0.199-0.186,0.199s0.624,0.12,0.996-0.159c-0.292,0.226-0.266,0.319-0.266,0.319s0.704,0.133,1.209-0.146 c-0.332,0.319-0.332,0.319-0.332,0.319s0.744,0.518,1.381-0.066c0.638-0.584-0.438-2.444-0.438-2.444L25.495,12.798z"/><path fill="#263238" d="M25.723,16.112c-0.399,0-0.716-0.215-0.721-0.219c-0.013-0.009-0.021-0.022-0.021-0.037 s0.004-0.029,0.016-0.04l0.139-0.134c-0.466,0.142-0.967,0.051-0.99,0.046c-0.02-0.003-0.034-0.017-0.039-0.035 c-0.007-0.022-0.007-0.07,0.053-0.151c-0.31,0.091-0.646,0.045-0.727,0.031c-0.024,0.012-0.062,0.023-0.086-0.011 c-0.023-0.034-0.021-0.056,0.086-0.153c-0.415,0.06-0.739-0.049-0.756-0.055c-0.016-0.005-0.028-0.019-0.032-0.035 c-0.004-0.02-0.013-0.052,0.108-0.147c-0.666,0.146-1.092-0.167-1.112-0.183c-0.015-0.011-0.021-0.029-0.02-0.047 c0.003-0.018,0.015-0.033,0.031-0.04c0.002,0,0.102-0.04,0.256-0.109c-0.845,0.173-1.354-0.143-1.38-0.16 c-0.017-0.011-0.025-0.03-0.022-0.05c0.004-0.02,0.019-0.036,0.038-0.041c0.002,0,0.174-0.044,0.372-0.118 c-1.199,0.193-1.519-0.314-1.532-0.339l0,0c-0.007-0.011-0.01-0.024-0.008-0.037c0.005-0.026,0.011-0.055,0.241-0.114 c-0.492-0.056-0.859-0.271-0.88-0.283c-0.018-0.011-0.026-0.029-0.024-0.05c0.003-0.02,0.017-0.036,0.036-0.041l0.25-0.07 c-0.339-0.096-1.079-0.331-1.502-0.651c-0.306-0.232-0.602-0.667-0.586-0.769c0.003-0.019,0.021-0.043,0.039-0.05 c0.032-0.01,0.072,0.009,0.118,0.05c0.105,0.093,0.113,0.096,0.146,0.108c0.02,0.007,0.044,0.016,0.086,0.037 c-0.181-0.248-0.361-0.589-0.298-0.669c0.021-0.027,0.063-0.045,0.144,0.018l0.01,0.008c0.158,0.125,0.271,0.213,0.416,0.311 c-0.229-0.331-0.352-0.74-0.313-0.87c0.014-0.049,0.048-0.061,0.062-0.062c0.05-0.006,0.098,0.025,0.166,0.119 c0.212,0.284,0.879,0.616,1.241,0.781c-0.541-0.589-0.623-1.08-0.627-1.103c-0.003-0.019,0.005-0.037,0.02-0.048 s0.034-0.015,0.052-0.005l2.87,1.366c-0.154-0.196-0.388-0.514-0.442-0.696c-0.006-0.021,0.001-0.043,0.019-0.056 c0.018-0.012,0.041-0.012,0.059,0c0.976,0.703,4.789,1.433,4.828,1.44c0.011,0.002,0.021,0.008,0.027,0.016l0.478,0.544 c0.051,0.086,1.095,1.909,0.436,2.515C26.205,16.042,25.95,16.112,25.723,16.112z M25.111,15.844 c0.175,0.104,0.756,0.374,1.266-0.095c0.602-0.551-0.438-2.364-0.447-2.382l-0.461-0.523c-0.3-0.058-3.57-0.694-4.707-1.36 c0.155,0.279,0.491,0.68,0.495,0.685c0.016,0.018,0.016,0.044,0.002,0.062c-0.015,0.019-0.04,0.027-0.062,0.015l-2.973-1.415 c0.059,0.193,0.24,0.647,0.757,1.135c0.018,0.017,0.021,0.043,0.008,0.063c-0.013,0.021-0.04,0.03-0.061,0.019 c-0.05-0.02-1.212-0.502-1.522-0.919c-0.025-0.035-0.044-0.055-0.057-0.065c-0.004,0.137,0.167,0.687,0.503,0.994 c0.019,0.018,0.021,0.046,0.006,0.066c-0.015,0.021-0.044,0.027-0.065,0.014c-0.315-0.185-0.452-0.292-0.696-0.484 c0.055,0.162,0.294,0.577,0.474,0.721c0.021,0.017,0.024,0.046,0.01,0.068c-0.016,0.021-0.046,0.029-0.067,0.013 c-0.229-0.144-0.298-0.169-0.334-0.184c-0.037-0.014-0.055-0.021-0.115-0.072c0.088,0.147,0.273,0.394,0.493,0.56 c0.532,0.404,1.631,0.68,1.642,0.682c0.022,0.006,0.038,0.025,0.038,0.048c0.001,0.022-0.015,0.043-0.036,0.049l-0.303,0.085 c0.213,0.101,0.707,0.294,1.236,0.202c0.021-0.004,0.043-0.008,0.066-0.012c0.024-0.008,0.053,0.013,0.058,0.039 c0.006,0.027-0.012,0.053-0.038,0.059c-0.023,0.005-0.047,0.01-0.069,0.013c-0.422,0.081-0.587,0.127-0.651,0.15 c0.114,0.123,0.568,0.488,1.812,0.164c0.025-0.005,0.05,0.007,0.059,0.029c0.01,0.022,0.002,0.049-0.02,0.062 c-0.205,0.131-0.493,0.228-0.657,0.277c0.254,0.108,0.93,0.303,1.871-0.139c0.024-0.014,0.055-0.002,0.066,0.022 c0.012,0.023,0.003,0.053-0.021,0.066c-0.347,0.192-0.676,0.338-0.83,0.403c0.178,0.096,0.647,0.278,1.278,0.012 c0.025-0.01,0.052-0.001,0.064,0.023c0.012,0.023,0.003,0.052-0.02,0.065c-0.188,0.113-0.28,0.183-0.324,0.222 c0.137,0.034,0.462,0.088,0.817-0.007c0.023-0.011,0.046,0.005,0.057,0.024c0.011,0.021,0.006,0.047-0.012,0.062 c-0.064,0.055-0.109,0.094-0.141,0.122c0.17,0.021,0.609,0.05,0.888-0.16c0.023-0.017,0.054-0.012,0.07,0.01 s0.013,0.053-0.01,0.07c-0.155,0.119-0.213,0.197-0.234,0.237c0.174,0.022,0.718,0.074,1.123-0.149 c0.022-0.013,0.049-0.007,0.064,0.015c0.015,0.02,0.013,0.048-0.006,0.065L25.111,15.844z M19.453,14.018L19.453,14.018 L19.453,14.018z M19.452,14.018C19.452,14.018,19.452,14.018,19.452,14.018S19.452,14.018,19.452,14.018z M19.451,14.017 C19.452,14.017,19.452,14.017,19.451,14.017C19.452,14.017,19.452,14.017,19.451,14.017z"/><path fill="#263238" d="M20.547,12.729c-0.007,0-0.013-0.001-0.02-0.004l-1.6-0.679c-0.025-0.011-0.037-0.04-0.026-0.065 c0.011-0.026,0.038-0.037,0.065-0.026l1.6,0.679c0.025,0.011,0.037,0.04,0.026,0.065C20.585,12.718,20.566,12.729,20.547,12.729z"/><path fill="#263238" d="M20.347,13.176c-0.006,0-0.013-0.001-0.019-0.004L17.8,12.14c-0.026-0.01-0.038-0.039-0.027-0.064 c0.01-0.025,0.039-0.041,0.064-0.027l2.528,1.032c0.026,0.01,0.038,0.039,0.027,0.064C20.385,13.164,20.366,13.176,20.347,13.176z"/><path fill="#263238" d="M19.493,13.203c-0.006,0-0.012-0.001-0.018-0.003l-1.954-0.741 c-0.026-0.01-0.039-0.039-0.029-0.064c0.01-0.026,0.037-0.039,0.064-0.029l1.954,0.741c0.026,0.01,0.039,0.039,0.029,0.064 C19.532,13.191,19.514,13.203,19.493,13.203z"/><path fill="#263238" d="M24.144,13.369c-0.005,0-0.01,0-0.014-0.002c-0.103-0.029-2.507-0.737-2.944-1.13 c-0.021-0.019-0.022-0.05-0.004-0.07s0.048-0.023,0.07-0.004c0.422,0.378,2.881,1.101,2.905,1.108 c0.027,0.008,0.042,0.035,0.034,0.062C24.186,13.355,24.165,13.369,24.144,13.369z"/><path fill="#263238" d="M23.771,14.516c-0.226,0-0.387-0.023-0.405-0.026c-0.021-0.004-0.037-0.02-0.041-0.04 c-0.004-0.021,0.005-0.042,0.023-0.053c0.003-0.002,0.222-0.131,0.546-0.344c-0.536,0.121-1.158,0.136-1.189,0.137h-0.001 c-0.021,0-0.04-0.013-0.047-0.033c-0.008-0.02-0.001-0.043,0.016-0.056l0.516-0.407l-1.128,0.156 c-0.023-0.002-0.047-0.011-0.054-0.033c-0.008-0.022,0.001-0.048,0.021-0.06l0.448-0.266l-0.646,0.088 c-0.022,0.001-0.043-0.009-0.053-0.029c-0.009-0.02-0.004-0.044,0.013-0.058l0.463-0.407l-0.951,0.145 c-0.021,0.001-0.044-0.009-0.054-0.029c-0.009-0.021-0.003-0.045,0.015-0.06l0.466-0.375l-0.671-0.076 c-0.023-0.003-0.042-0.021-0.044-0.045s0.012-0.045,0.034-0.053l0.55-0.18c0.027-0.006,0.055,0.006,0.063,0.032 c0.008,0.026-0.006,0.055-0.032,0.063l-0.332,0.108l0.562,0.063c0.02,0.002,0.036,0.017,0.042,0.036s-0.001,0.04-0.017,0.053 l-0.415,0.334l0.937-0.143c0.023,0.001,0.044,0.009,0.053,0.028c0.01,0.021,0.005,0.044-0.012,0.059l-0.467,0.411l0.727-0.099 c0.021-0.004,0.046,0.011,0.054,0.033s-0.001,0.048-0.021,0.06l-0.446,0.265l1.063-0.147c0.02,0,0.044,0.01,0.053,0.03 s0.003,0.045-0.015,0.059l-0.538,0.425c0.282-0.016,0.894-0.064,1.311-0.21c0.025-0.008,0.05,0.001,0.062,0.024 c0.011,0.022,0.004,0.05-0.017,0.063c-0.297,0.202-0.544,0.357-0.685,0.444c0.354,0.021,1.271,0.027,1.686-0.584 c0.014-0.022,0.046-0.028,0.069-0.013c0.022,0.015,0.028,0.046,0.013,0.069C24.929,14.421,24.221,14.516,23.771,14.516z"/><path fill="#ff8f00" d="M27.142,16.41l-0.08,1.142l0.651,0.239l-0.266,0.266l-0.159-0.027c0,0,0.12,0.385-0.173,0.491 c0.053,0.186,0.106,0.345,0.106,0.345s-0.213-0.04-0.305-0.266c-0.213-0.053-0.239-0.385-0.239-0.385s0.013,0.332-0.266,0.398 c0.013,0.213,0.04,0.385,0.04,0.385s-0.584-0.452-0.199-0.903c-0.332,0.226-0.584,0.12-0.584,0.12l-0.173,0.266 c0,0-0.08-0.545,0.359-0.704s0.797-0.053,0.837-0.983s0-0.438,0-0.438L27.142,16.41z"/><path fill="#263238" d="M26.451,19.05c-0.011,0-0.021-0.003-0.03-0.01c-0.013-0.011-0.314-0.247-0.348-0.56 c-0.009-0.086,0.004-0.17,0.036-0.249c-0.194,0.083-0.35,0.062-0.42,0.044l-0.152,0.234c-0.013,0.018-0.032,0.026-0.053,0.021 s-0.036-0.021-0.039-0.042c-0.001-0.006-0.08-0.587,0.392-0.758c0.08-0.029,0.156-0.05,0.229-0.069 c0.327-0.086,0.543-0.143,0.574-0.869c0.008-0.191,0.013-0.316,0.015-0.399c-0.01-0.01-0.016-0.024-0.015-0.04 c0.012-0.142,0.015-0.177,0.062-0.177c0.002,0,0.004,0,0.007,0.001c0.035,0.002,0.049,0.003,0.049,0.137l0.39,0.046 c0.026,0.003,0.046,0.026,0.044,0.054l-0.076,1.104l0.615,0.226c0.016,0.006,0.027,0.02,0.031,0.036s-0.001,0.034-0.014,0.046 l-0.266,0.266c-0.011,0.012-0.032,0.015-0.043,0.015l-0.086-0.015c0.025,0.149,0.008,0.363-0.178,0.458 c0.047,0.165,0.093,0.3,0.094,0.302c0.005,0.017,0.002,0.035-0.01,0.049c-0.012,0.013-0.029,0.021-0.047,0.016 c-0.01-0.002-0.228-0.045-0.333-0.273c-0.099-0.034-0.16-0.118-0.196-0.202c-0.039,0.088-0.106,0.171-0.22,0.211 c0.014,0.189,0.036,0.34,0.037,0.341c0.003,0.021-0.007,0.041-0.024,0.051C26.469,19.048,26.46,19.05,26.451,19.05z M26.252,18.047c0.014,0,0.027,0.006,0.037,0.017c0.017,0.019,0.018,0.047,0.001,0.065c-0.09,0.106-0.13,0.221-0.117,0.341 c0.018,0.164,0.127,0.31,0.211,0.399c-0.008-0.068-0.017-0.156-0.022-0.251c-0.002-0.024,0.015-0.046,0.038-0.052 c0.235-0.056,0.228-0.336,0.228-0.348c-0.001-0.027,0.02-0.05,0.047-0.052c0.001,0,0.002,0,0.003,0c0.026,0,0.048,0.02,0.05,0.046 c0,0.003,0.026,0.297,0.201,0.34c0.016,0.004,0.028,0.015,0.034,0.03c0.045,0.108,0.12,0.168,0.18,0.2 c-0.021-0.063-0.048-0.152-0.074-0.248c-0.008-0.025,0.006-0.052,0.031-0.061c0.243-0.088,0.146-0.416,0.142-0.43 c-0.005-0.017-0.001-0.034,0.01-0.048c0.012-0.013,0.033-0.017,0.046-0.017l0.134,0.022l0.192-0.192L27.045,17.6 c-0.021-0.008-0.034-0.028-0.032-0.051l0.076-1.095l-0.333-0.039c-0.003,0.09-0.008,0.213-0.016,0.382 c-0.034,0.801-0.305,0.872-0.647,0.962c-0.072,0.02-0.146,0.039-0.223,0.066c-0.258,0.094-0.318,0.335-0.329,0.495l0.085-0.131 c0.015-0.021,0.038-0.027,0.062-0.019c0.008,0.005,0.235,0.09,0.536-0.115C26.232,18.05,26.242,18.047,26.252,18.047z"/><polygon fill="#ff8f00" points="26.132,14.776 26.239,16.198 26.478,15.905 26.159,17.074 26.531,16.755 26.531,17.194 26.983,16.662 27.434,17.167 27.341,14.923 26.026,14.378"/><path fill="#263238" d="M26.531,17.243c-0.006,0-0.012-0.001-0.018-0.003c-0.02-0.007-0.032-0.026-0.032-0.047v-0.329 l-0.29,0.248c-0.015,0.015-0.039,0.019-0.059,0.004c-0.019-0.012-0.027-0.034-0.021-0.055l0.257-0.943l-0.091,0.11 c-0.013,0.017-0.035,0.021-0.054,0.017c-0.02-0.006-0.034-0.023-0.035-0.044l-0.105-1.416l-0.104-0.395 c-0.005-0.019,0.001-0.038,0.015-0.051c0.017-0.012,0.035-0.015,0.053-0.008l1.314,0.545c0.018,0.007,0.029,0.024,0.03,0.044 l0.093,2.244c0.001,0.021-0.012,0.04-0.031,0.048c-0.019,0.01-0.042,0.003-0.056-0.013l-0.413-0.462l-0.414,0.487 C26.56,17.237,26.546,17.243,26.531,17.243z M26.531,16.706c0.007,0,0.015,0.001,0.021,0.004c0.019,0.009,0.029,0.026,0.029,0.046 v0.302l0.363-0.428c0.01-0.011,0.023-0.018,0.037-0.018c0.001,0,0.001,0,0.001,0c0.015,0,0.027,0.006,0.037,0.017l0.358,0.4 l-0.086-2.072l-1.191-0.494l0.08,0.301c0.001,0.003,0.002,0.006,0.002,0.009l0.097,1.296l0.159-0.194 c0.014-0.021,0.042-0.022,0.062-0.014c0.021,0.012,0.032,0.035,0.025,0.058l-0.275,1.013l0.249-0.213 C26.508,16.71,26.52,16.706,26.531,16.706z"/><path fill="#ff8f00" d="M28.058,16.809l-0.013,0.797c0,0-0.545-0.027-0.717,0.159c-0.173,0.186,0.066,0.691,0.066,0.691 l0.08-0.199c0,0,0.159,0.013,0.359-0.226c-0.106,0.452,0.053,0.691,0.239,0.77c-0.053-0.093-0.013-0.305-0.013-0.305 s0.279-0.027,0.239-0.664c0.173,0.359,0.465,0.372,0.465,0.372l-0.027,0.292c0,0,0.651-0.491-0.106-0.863 c0.345,0.027,0.598,0.252,0.598,0.252s-0.08-0.505-0.638-0.478c-0.027-0.213-0.066-1.155-0.066-1.155l-0.452,0.226L28.058,16.809z"/><path fill="#263238" d="M28.071,18.851c-0.007,0-0.014-0.001-0.02-0.004c-0.089-0.038-0.352-0.193-0.297-0.667 c-0.107,0.091-0.197,0.117-0.246,0.124l-0.067,0.17c-0.008,0.019-0.025,0.031-0.045,0.031c-0.019-0.005-0.039-0.01-0.047-0.028 c-0.026-0.055-0.248-0.54-0.059-0.746c0.154-0.165,0.56-0.179,0.705-0.177l0.013-0.746v-0.001l0.013-0.332 c0.001-0.019,0.011-0.034,0.027-0.043l0.452-0.226c0.015-0.006,0.034-0.007,0.048,0.002c0.015,0.009,0.023,0.023,0.024,0.041 c0.001,0.009,0.036,0.834,0.062,1.106c0.554,0.002,0.642,0.517,0.643,0.521c0.003,0.021-0.007,0.042-0.025,0.052 c-0.021,0.009-0.043,0.007-0.058-0.007c-0.002-0.001-0.121-0.106-0.303-0.178c0.092,0.085,0.143,0.179,0.152,0.28 c0.026,0.277-0.266,0.501-0.278,0.511c-0.017,0.013-0.037,0.013-0.055,0.004c-0.018-0.01-0.027-0.029-0.025-0.049l0.023-0.245 c-0.078-0.017-0.229-0.069-0.358-0.233c-0.016,0.389-0.173,0.494-0.248,0.522c-0.011,0.079-0.016,0.193,0.013,0.242 c0.01,0.019,0.008,0.042-0.007,0.058C28.099,18.845,28.085,18.851,28.071,18.851z M27.832,17.98c0.008,0,0.016,0.002,0.022,0.005 c0.021,0.011,0.031,0.034,0.026,0.057c-0.088,0.377,0.018,0.562,0.114,0.65c-0.006-0.095,0.012-0.191,0.015-0.206 c0.004-0.022,0.021-0.039,0.044-0.041c0.001,0,0.229-0.039,0.194-0.611c-0.002-0.023,0.014-0.045,0.037-0.052 c0.024-0.004,0.047,0.006,0.058,0.027c0.156,0.325,0.412,0.343,0.423,0.344c0.014,0.001,0.026,0.007,0.035,0.018 c0.009,0.01,0.013,0.023,0.012,0.037l-0.015,0.161c0.072-0.079,0.159-0.203,0.146-0.335c-0.013-0.134-0.126-0.254-0.337-0.357 c-0.021-0.011-0.032-0.035-0.025-0.058c0.006-0.022,0.025-0.037,0.048-0.037c0.001,0,0.003,0,0.004,0 c0.21,0.016,0.386,0.102,0.497,0.171c-0.062-0.128-0.201-0.298-0.5-0.298c-0.013,0-0.025,0-0.039,0.001c0,0-0.001,0-0.002,0 c-0.025,0-0.047-0.019-0.05-0.044c-0.022-0.179-0.053-0.852-0.063-1.082l-0.356,0.178l-0.012,0.302l-0.014,0.797 c0,0.014-0.006,0.026-0.016,0.035c-0.011,0.01-0.03,0.012-0.036,0.014c-0.152-0.009-0.552,0.005-0.678,0.144 c-0.097,0.104-0.033,0.356,0.028,0.523l0.033-0.085c0.009-0.021,0.03-0.039,0.051-0.031h0.001c0.011,0,0.146-0.004,0.315-0.208 C27.804,17.986,27.817,17.98,27.832,17.98z"/><path fill="#ff8f00" d="M26.358,14.803l-0.159,0.518l-0.478-0.77c0,0-0.412,0.252-0.757,0.279 c0.04-0.412,0.478-0.717,0.478-0.717s-0.757-0.823-0.013-1.966s1.992-0.611,1.992-0.611s1.129,0.252,0.638,0.77 c-0.133-0.186-0.704-0.305-0.863,0.027c-0.159,0.332,0.12,0.598,0.12,0.598l0.797,0.797l0.08,0.226c0,0,2.736,1.992,3.068,2.231 s-0.571,0.478-1.541-0.186c0.757,0.558,0.704,0.531,0.704,0.531s0.12,0.558-1.182-0.305c0.518,0.425,0.133,0.452-0.133,0.305 c-0.266-0.146-0.332-0.252-0.332-0.252l0.452,0.598l-0.558-0.305l0.385,0.717c0,0-0.717-0.133-0.863-0.571 c-0.066,0.372-0.425,0.611-0.425,0.611s0.173-0.744,0.04-1.036c-0.133-0.292-0.571-1.023-0.571-1.023L26.358,14.803z"/><path fill="#263238" d="M27.766,17.376c-0.01,0-0.02-0.003-0.028-0.009c-0.017-0.012-0.025-0.032-0.021-0.053 c0.002-0.007,0.168-0.729,0.043-1.003c-0.12-0.267-0.504-0.911-0.562-1.006l-0.81-0.431l-0.142,0.461 c-0.006,0.019-0.022,0.032-0.041,0.035c-0.027,0.006-0.039-0.007-0.049-0.023l-0.453-0.729c-0.116,0.066-0.445,0.238-0.736,0.262 c-0.018-0.001-0.029-0.004-0.04-0.015c-0.01-0.011-0.015-0.025-0.014-0.04c0.034-0.356,0.341-0.631,0.456-0.722 c-0.143-0.187-0.645-0.969,0.017-1.984c0.758-1.163,2.041-0.636,2.054-0.629c0.02,0.003,0.681,0.154,0.779,0.479 c0.037,0.121-0.005,0.245-0.125,0.371c-0.01,0.01-0.022,0.016-0.036,0.016c-0.009-0.001-0.031-0.007-0.041-0.021 c-0.063-0.091-0.28-0.173-0.48-0.159c-0.101,0.009-0.233,0.047-0.297,0.179c-0.142,0.295,0.099,0.53,0.108,0.54l0.798,0.798 c0.006,0.005,0.01,0.012,0.012,0.019l0.075,0.211c0.201,0.146,2.738,1.994,3.055,2.222c0.134,0.097,0.085,0.188,0.067,0.213 c-0.1,0.143-0.542,0.194-1.088-0.013c0.089,0.067,0.142,0.109,0.172,0.139c0.002,0,0.004,0.001,0.007,0.003l-0.002,0.002 c0.014,0.014,0.022,0.023,0.026,0.032l0.001-0.001c0,0.002,0.001,0.003,0.001,0.005c0.002,0.005,0.003,0.01,0.002,0.014 c0.006,0.053-0.005,0.135-0.076,0.184c-0.134,0.094-0.423,0.009-0.87-0.256c0.025,0.054,0.024,0.1,0,0.137 c-0.065,0.096-0.282,0.062-0.445-0.028c-0.013-0.007-0.025-0.015-0.037-0.021l0.222,0.293c0.014,0.019,0.014,0.045-0.002,0.062 c-0.015,0.019-0.041,0.022-0.062,0.012l-0.41-0.225l0.306,0.569c0.009,0.017,0.008,0.037-0.004,0.053 c-0.011,0.017-0.031,0.026-0.049,0.02c-0.027-0.005-0.614-0.117-0.842-0.478c-0.115,0.311-0.397,0.5-0.411,0.51 C27.785,17.373,27.775,17.376,27.766,17.376z M28.191,16.666c0.021,0,0.041,0.014,0.048,0.034c0.102,0.307,0.52,0.457,0.719,0.512 l-0.333-0.619c-0.011-0.02-0.007-0.043,0.009-0.059s0.038-0.02,0.06-0.009l0.354,0.193l-0.297-0.393 c-0.01-0.012-0.016-0.02-0.017-0.022c-0.015-0.022-0.009-0.053,0.014-0.067c0.021-0.015,0.052-0.011,0.068,0.011l0.011,0.015 c0.025,0.03,0.107,0.115,0.306,0.224c0.145,0.08,0.292,0.088,0.313,0.06c0.008-0.012-0.009-0.095-0.236-0.281 c-0.021-0.018-0.024-0.047-0.009-0.068c0.016-0.022,0.046-0.025,0.067-0.013c0.797,0.529,1.018,0.494,1.074,0.455 c0.033-0.021,0.035-0.062,0.034-0.084c-0.035-0.029-0.17-0.134-0.687-0.516c-0.022-0.016-0.027-0.047-0.012-0.069 s0.046-0.027,0.069-0.012c0.759,0.519,1.446,0.458,1.526,0.343c0.017-0.023-0.015-0.054-0.044-0.074 c-0.328-0.237-3.04-2.212-3.067-2.232c-0.008-0.006-0.015-0.014-0.018-0.023l-0.076-0.215l-0.789-0.789 c-0.002-0.002-0.303-0.294-0.129-0.654c0.065-0.136,0.199-0.22,0.378-0.235c0.197-0.021,0.416,0.051,0.529,0.154 c0.067-0.083,0.089-0.159,0.066-0.232c-0.068-0.223-0.538-0.374-0.714-0.413c-0.058-0.024-1.228-0.504-1.939,0.589 c-0.713,1.095-0.022,1.872,0.008,1.904c0.01,0.011,0.014,0.025,0.013,0.04c-0.002,0.014-0.01,0.026-0.021,0.035 c-0.004,0.003-0.375,0.267-0.446,0.619c0.314-0.048,0.667-0.262,0.671-0.265c0.025-0.014,0.055-0.007,0.068,0.017l0.421,0.677 l0.127-0.413c0.005-0.015,0.015-0.025,0.028-0.031c0.014-0.007,0.029-0.006,0.043,0.002l0.876,0.465 c0.008,0.004,0.015,0.011,0.02,0.019c0.018,0.029,0.441,0.736,0.574,1.028c0.104,0.228,0.035,0.695-0.009,0.93 c0.106-0.098,0.26-0.271,0.3-0.493c0.004-0.022,0.022-0.039,0.045-0.041C28.189,16.666,28.19,16.666,28.191,16.666z"/><path fill="#263238" d="M28.775,16.327c-0.022,0-0.042-0.015-0.048-0.037c-0.129-0.474-0.832-1.273-0.839-1.281 c-0.018-0.02-0.017-0.049,0-0.067c0.02-0.019,0.047-0.021,0.067-0.006c0.288,0.22,1.092,0.793,1.342,0.813 c0.017,0.001,0.057,0.005,0.086,0.005c0.001,0,0.002,0,0.003,0c-0.037-0.056-0.152-0.178-0.304-0.337 c-0.127-0.135-0.294-0.312-0.504-0.54c-0.018-0.021-0.018-0.052,0.002-0.07c0.02-0.018,0.051-0.018,0.07,0 c0.762,0.742,1.33,0.878,1.555,0.9l-0.366-0.434c-0.018-0.021-0.016-0.053,0.006-0.07c0.021-0.019,0.052-0.016,0.07,0.006 l0.438,0.519c0.012,0.014,0.016,0.033,0.009,0.051c-0.007,0.017-0.022,0.029-0.041,0.031c-0.021,0.001-0.446,0.047-1.129-0.422 c0.273,0.288,0.33,0.353,0.299,0.419c-0.028,0.059-0.11,0.051-0.202,0.042c-0.217-0.018-0.732-0.357-1.072-0.598 c0.223,0.283,0.522,0.705,0.605,1.014c0.008,0.026-0.008,0.054-0.035,0.061C28.784,16.327,28.779,16.327,28.775,16.327z"/><path fill="#263238" d="M26.758,11.892c-0.01,0-0.02,0-0.03-0.001c-0.235-0.013-0.401-0.108-0.408-0.112 c-0.014-0.008-0.022-0.022-0.024-0.038s0.005-0.031,0.017-0.042c0.004-0.004,0.378-0.329,0.78-0.044 c0.021,0.016,0.027,0.046,0.013,0.068C27.1,11.73,26.988,11.892,26.758,11.892z M26.443,11.726 c0.064,0.026,0.167,0.059,0.29,0.065c0.008,0,0.017,0.001,0.024,0.001c0.113,0,0.188-0.05,0.229-0.087 C26.755,11.573,26.545,11.663,26.443,11.726z"/><path fill="#ff8f00" d="M27.009,12.904c0,0,1.833-0.173,2.616-0.08c1.142-0.558,1.913-0.545,2.298-0.624 s1.288-0.332,1.713-0.558c0.066,0.425-0.412,0.664-0.412,0.664l3.002-1.328c0,0-0.518,0.704-0.943,1.023 c0.717-0.385,1.82-0.956,1.82-0.956s-0.159,0.744-0.903,1.169c0.784-0.398,1.395-0.704,1.395-0.704s-0.239,0.717-0.81,1.063 c0.438-0.133,0.558-0.186,0.558-0.186s-0.226,0.638-0.664,0.81c-0.12,0.385,0.027,1.063-3.108,1.673 c-0.491,0.359-1.434,0.584-1.434,0.584l0.292,0.173c0,0-0.359,0.146-0.757,0.133c0.066,0.213,0.013,0.226-0.717,0.199 c-0.73-0.027-3.599-1.899-3.599-1.899L27.009,12.904z"/><path fill="#263238" d="M31.351,16.019c-0.103,0-0.233-0.004-0.398-0.01c-0.735-0.027-3.508-1.831-3.625-1.907 c-0.01-0.007-0.018-0.017-0.021-0.027l-0.346-1.156c-0.004-0.015-0.002-0.03,0.007-0.043c0.008-0.012,0.021-0.021,0.036-0.021 c0.074-0.007,1.827-0.168,2.613-0.081c0.899-0.437,1.562-0.521,2.002-0.577c0.114-0.015,0.214-0.027,0.294-0.044 c0.366-0.076,1.27-0.324,1.7-0.554c0.014-0.008,0.032-0.007,0.046-0.001c0.015,0.008,0.024,0.021,0.027,0.037 c0.03,0.198-0.044,0.357-0.141,0.475l2.66-1.177c0.021-0.01,0.046-0.003,0.06,0.015s0.015,0.043,0.001,0.061 c-0.016,0.022-0.312,0.423-0.641,0.755c0.669-0.355,1.444-0.758,1.453-0.762c0.019-0.01,0.038-0.008,0.054,0.004 s0.022,0.031,0.019,0.051c-0.005,0.023-0.105,0.472-0.499,0.873c0.542-0.274,0.92-0.464,0.92-0.464 c0.017-0.008,0.038-0.007,0.056,0.007c0.015,0.014,0.021,0.035,0.015,0.054c-0.009,0.025-0.185,0.543-0.595,0.912 c0.206-0.067,0.272-0.096,0.273-0.097c0.021-0.008,0.04-0.003,0.055,0.009c0.015,0.014,0.02,0.035,0.013,0.054 c-0.009,0.026-0.23,0.64-0.67,0.831c-0.008,0.027-0.014,0.057-0.021,0.087c-0.095,0.412-0.238,1.036-3.106,1.596 c-0.396,0.286-1.058,0.483-1.326,0.557l0.188,0.111c0.017,0.01,0.026,0.027,0.024,0.047c-0.001,0.019-0.014,0.035-0.031,0.042 c-0.014,0.006-0.334,0.134-0.71,0.138c0.01,0.048,0.01,0.093-0.02,0.131C31.672,16,31.576,16.019,31.351,16.019z M27.397,14.027 c0.227,0.147,2.877,1.856,3.559,1.882c0.328,0.011,0.642,0.022,0.682-0.028c0.014-0.018-0.006-0.08-0.015-0.106 c-0.005-0.016-0.002-0.032,0.008-0.045c0.011-0.014,0.028-0.016,0.042-0.02c0.26,0.003,0.505-0.054,0.637-0.095l-0.199-0.118 c-0.018-0.011-0.027-0.03-0.024-0.051c0.003-0.02,0.019-0.036,0.038-0.041c0.01-0.002,0.939-0.228,1.417-0.576 c0.006-0.005,0.013-0.008,0.02-0.009c2.815-0.549,2.95-1.135,3.04-1.522c0.009-0.041,0.019-0.08,0.029-0.116 c0.005-0.015,0.016-0.026,0.029-0.032c0.308-0.121,0.509-0.493,0.592-0.676c-0.085,0.029-0.227,0.077-0.452,0.146 c-0.024,0.004-0.05-0.004-0.061-0.027c-0.01-0.023-0.002-0.05,0.021-0.063c0.41-0.247,0.646-0.701,0.741-0.916 c-0.214,0.107-0.699,0.351-1.277,0.646c-0.023,0.009-0.055,0.002-0.066-0.021c-0.013-0.023-0.005-0.054,0.02-0.066 c0.546-0.312,0.77-0.809,0.846-1.027c-0.293,0.152-1.134,0.591-1.715,0.902c-0.021,0.013-0.051,0.005-0.065-0.017 c-0.015-0.022-0.009-0.052,0.012-0.067c0.294-0.221,0.637-0.634,0.814-0.858l-2.822,1.249c-0.024,0.011-0.055-0.001-0.065-0.024 c-0.012-0.024-0.002-0.054,0.022-0.066c0.004-0.002,0.392-0.2,0.391-0.541c-0.46,0.225-1.307,0.456-1.66,0.529 c-0.083,0.018-0.184,0.03-0.301,0.045c-0.435,0.056-1.092,0.14-1.984,0.575c-0.009,0.003-0.02,0.005-0.027,0.005 c-0.688-0.083-2.223,0.046-2.546,0.073L27.397,14.027z"/><g><path fill="#263238" d="M27.872,13.844c-0.026,0-0.048-0.021-0.05-0.047c-0.002-0.027,0.02-0.051,0.047-0.053l0.792-0.047 l-0.133-0.134c-0.019-0.018-0.02-0.046-0.004-0.066c0.016-0.019,0.042-0.024,0.065-0.012c0.004,0.002,0.331,0.205,0.815,0.126 c0.071-0.011,0.102-0.024,0.113-0.031c-0.037-0.047-0.245-0.138-0.466-0.203c-0.024-0.008-0.04-0.033-0.034-0.059 c0.006-0.026,0.031-0.037,0.057-0.039c0.006,0.001,0.575,0.094,0.969,0.146c0.044,0.007,0.067,0.007,0.082,0.004 c-0.026-0.048-0.146-0.154-0.276-0.245c-0.021-0.015-0.028-0.044-0.015-0.066c0.014-0.023,0.044-0.032,0.065-0.019 c0.004,0.001,0.374,0.188,0.826,0.05c0.149-0.046,0.158-0.082,0.158-0.083c0-0.026-0.109-0.09-0.237-0.127 c-0.022-0.006-0.038-0.027-0.036-0.051c0.001-0.023,0.019-0.043,0.042-0.047c0.021-0.003,2.135-0.347,2.547-0.579 c0.022-0.013,0.053-0.006,0.068,0.02c0.013,0.024,0.005,0.055-0.02,0.068c-0.359,0.202-1.873,0.471-2.4,0.561 c0.071,0.038,0.136,0.09,0.137,0.154c0.001,0.098-0.131,0.149-0.229,0.18c-0.245,0.075-0.469,0.062-0.631,0.03 c0.085,0.082,0.119,0.148,0.101,0.196c-0.026,0.068-0.121,0.063-0.195,0.054c-0.162-0.021-0.355-0.05-0.526-0.076 c0.075,0.045,0.122,0.093,0.119,0.142c-0.005,0.079-0.11,0.106-0.202,0.121c-0.266,0.041-0.49,0.006-0.645-0.041l0.034,0.035 c0.014,0.014,0.019,0.034,0.012,0.053s-0.024,0.031-0.044,0.032l-0.903,0.054C27.874,13.844,27.873,13.844,27.872,13.844z"/></g><g><path fill="#263238" d="M31.021,15.438h-0.758c-0.027,0-0.05-0.022-0.05-0.05s0.022-0.05,0.05-0.05h0.528 c-0.281-0.142-0.853-0.467-1.792-1.159c-0.022-0.016-0.027-0.047-0.012-0.069s0.046-0.028,0.069-0.012 c1.384,0.971,2.405,0.891,2.823,0.792c-0.562-0.072-0.575-0.079-1.369-0.474c-0.196-0.098-0.441-0.219-0.755-0.371 c-0.068-0.03-0.138-0.063-0.207-0.101c-0.024-0.013-0.033-0.042-0.021-0.066c0.013-0.025,0.043-0.036,0.066-0.022 c0.072,0.035,0.142,0.068,0.208,0.101c0.56,0.247,0.948,0.23,1.001,0.137c0.025-0.045-0.022-0.179-0.367-0.389 c-0.021-0.014-0.029-0.041-0.02-0.063c0.011-0.023,0.035-0.034,0.061-0.027c0.603,0.187,1.026,0.188,1.113,0.147 c-0.024-0.023-0.119-0.091-0.463-0.185c-0.026-0.007-0.042-0.033-0.036-0.06c0.007-0.025,0.024-0.042,0.059-0.037 c0.295,0.057,1.014,0.058,1.194,0.01c-0.049-0.023-0.165-0.064-0.444-0.125c-0.025-0.006-0.043-0.03-0.039-0.056 c0.004-0.026,0.027-0.039,0.054-0.043c0.577,0.043,1.109-0.085,1.382-0.17l-1.566-0.235c-0.027-0.005-0.046-0.03-0.042-0.058 c0.004-0.024,0.025-0.042,0.05-0.042c0.002,0,0.005,0,0.008,0l1.767,0.266c0.021,0.004,0.039,0.021,0.042,0.044 s-0.01,0.044-0.031,0.052c-0.025,0.011-0.54,0.219-1.204,0.249c0.15,0.055,0.161,0.096,0.152,0.137 c-0.024,0.122-0.544,0.126-0.93,0.105c0.137,0.065,0.147,0.109,0.153,0.132c0.007,0.029-0.002,0.059-0.025,0.081 c-0.095,0.089-0.491,0.068-0.944-0.04c0.21,0.179,0.199,0.296,0.165,0.356c-0.062,0.109-0.25,0.14-0.504,0.101 c0.061,0.029,0.116,0.058,0.17,0.084c0.792,0.393,0.792,0.393,1.366,0.467l0.194,0.025c0.021,0.003,0.039,0.021,0.043,0.042 c0.003,0.021-0.008,0.043-0.028,0.053c-0.042,0.021-0.851,0.395-2.165-0.182c0.738,0.482,1.067,0.606,1.072,0.608 c0.022,0.008,0.036,0.031,0.031,0.056C31.065,15.42,31.045,15.438,31.021,15.438z"/></g><g><path fill="#263238" d="M32.611,14.487c-0.809,0-1.362-0.11-1.375-0.113c-0.027-0.006-0.045-0.032-0.039-0.059 c0.005-0.027,0.032-0.05,0.059-0.039c0.032,0.007,3.14,0.624,5.392-1.119c0.021-0.019,0.052-0.013,0.069,0.009 s0.014,0.053-0.009,0.069C35.372,14.271,33.743,14.487,32.611,14.487z"/></g><g><path fill="#263238" d="M34.247,13.617c-0.022,0-0.043-0.015-0.049-0.038c-0.007-0.026,0.01-0.054,0.037-0.061 c0.019-0.004,1.856-0.468,2.518-0.986c0.023-0.018,0.054-0.013,0.07,0.008c0.018,0.022,0.014,0.054-0.008,0.07 c-0.679,0.532-2.479,0.986-2.557,1.006C34.255,13.617,34.251,13.617,34.247,13.617z"/></g><g><path fill="#263238" d="M33.756,13.392c-0.019,0-0.037-0.011-0.045-0.029c-0.012-0.024-0.001-0.055,0.024-0.065 l2.444-1.129c0.022-0.014,0.055-0.002,0.065,0.024c0.012,0.024,0.001,0.055-0.024,0.065l-2.444,1.129 C33.771,13.391,33.763,13.392,33.756,13.392z"/></g><g><path fill="#263238" d="M33.557,12.808c-0.02,0-0.037-0.011-0.046-0.029c-0.011-0.025,0.001-0.056,0.025-0.066l1.727-0.757 c0.027-0.01,0.056,0.001,0.066,0.025c0.011,0.025-0.001,0.056-0.025,0.066l-1.727,0.757C33.57,12.807,33.563,12.808,33.557,12.808 z"/></g><g><path fill="#d50000" d="M20,22v21.598C21.293,43.861,22.63,44,24,44s2.707-0.139,4-0.402V22H20z"/></g><g><path fill="#263238" d="M28,22v21.598c2.961-0.601,5.671-1.873,8-3.626V22H28z"/></g><g><path fill="#ff8f00" d="M36,39.973c4.85-3.65,8-9.436,8-15.973c0-0.675-0.036-1.342-0.101-2H36V39.973z"/></g></svg>