<svg xmlns="http://www.w3.org/2000/svg"  viewBox="0 0 48 48" width="50px" height="50px" fill-rule="evenodd" clip-rule="evenodd"><path fill="#ffeb3b" d="M43.996,24.075C43.996,24.05,44,24.025,44,24c0-11.046-8.954-20-20-20 c-6.47,0-12.206,3.086-15.861,7.851L43.996,24.075z"/><path fill="#ffeb3b" d="M4.035,23.308C4.027,23.539,4,23.766,4,24c0,11.046,8.954,20,20,20 c6.694,0,12.605-3.301,16.236-8.351L4.035,23.308z"/><path fill="#424242" d="M42.877,30.594L5.031,17.692c-0.594,1.788-0.935,3.687-0.998,5.66l36.174,12.332 C41.327,34.139,42.234,32.429,42.877,30.594z"/><path fill="#eceff1" d="M44,24c0-0.008-0.001-0.015-0.001-0.023L8.198,11.772c-1.367,1.764-2.448,3.757-3.167,5.92 l37.846,12.902C43.601,28.53,44,26.313,44,24z"/><g><path fill="#c62828" fill-rule="evenodd" d="M35.213,20.52c0,0.05,0,0.101,0,0.304 c0,0.151,0,0.253-0.051,0.404c-0.051,0.202-0.102,0.304-0.102,0.354c-0.051,0.101-0.102,0.101-0.102,0.101h-0.102 c0,0,0-0.05,0-0.202c0.051-0.151,0.102-0.304,0.102-0.455c0-0.101,0-0.202,0-0.304s-0.051-0.151,0-0.202 c0.051-0.101,0.051-0.151,0.102-0.151C35.111,20.368,35.162,20.419,35.213,20.52L35.213,20.52z" clip-rule="evenodd"/><path fill="#c62828" fill-rule="evenodd" d="M24.418,15.414c-0.713,0-1.477,0.304-1.477,0.404 c0,0.151,0.815,0.404,1.579,0.404c0.815,0,1.579-0.252,1.629-0.404c0-0.151-0.815-0.404-1.527-0.404v0.304 c0,0.101-0.05,0.101-0.102,0.101c0,0-0.102,0-0.102-0.101C24.418,15.718,24.418,15.617,24.418,15.414L24.418,15.414z" clip-rule="evenodd"/><path fill="#c62828" d="M25.895,13.797l-1.375-1.112c0.051,0,0.102-0.05,0.102-0.101c0-0.05-0.05-0.101-0.102-0.101 c-0.05,0-0.102,0.05-0.102,0.101c0,0.05,0,0.101,0.051,0.101v0.05c0,0.304,0,0.759,0,1.213c0,0.809,0,1.668,0,1.769l0,0l0,0 c0,0.05,0,0.05,0.05,0.05c0.051,0,0.051,0,0.051-0.05V14.05l0.102,0.05l1.019,0.657l-0.408-0.759v-0.05h0.051L25.895,13.797z"/><path fill="#c62828" fill-rule="evenodd" d="M26.149,15.92c0,0-0.305,0.202-0.764,0.253 c-0.408,0.101-0.866,0.101-0.866,0.101l0,0c0,0-0.407,0-0.866-0.101c-0.408-0.05-0.764-0.253-0.764-0.253l-0.203,1.011 l0.509-0.304l0.458,0.455l0.458-0.252l0.305,0.354h0.102l0,0h0.102l0.356-0.354l0.458,0.252l0.408-0.455l0.56,0.304L26.149,15.92z" clip-rule="evenodd"/><path fill="#c62828" fill-rule="evenodd" d="M24.621,17.234L24.621,17.234h0.051v0.707 c0,0,0.611-0.404,0.866-0.455c0.203-0.101,0.255-0.101,0.509-0.101s0.764,0.151,1.171,0.354c0.458,0.252,0.56,0.304,0.764,0.455 c0.203,0.151,0.56,0.354,0.713,0.455c0.153,0.05,0.408,0.101,0.611,0.151c0.305,0,0.458,0,0.662,0 c0.203-0.05,0.408-0.151,0.408-0.151s-0.203,0.354-0.305,0.455c-0.102,0.101-0.153,0.151-0.255,0.202s-0.203,0.101-0.305,0.151 c-0.102,0-0.306-0.05-0.56-0.151c-0.255-0.101-1.019-0.404-1.171-0.455c-0.153-0.05-0.255-0.05-0.305-0.05l0,0 c0,0,0,0.05,0.051,0.101s0.509,0.304,0.662,0.354c0.255,0.101,0.815,0.354,1.019,0.404c0.051,0-0.153,0.151-0.203,0.202 c-0.102,0.05-0.153,0.101-0.255,0.101c-0.102,0-0.203,0-0.306-0.05c-0.153-0.05-0.56-0.202-0.662-0.253 c-0.153-0.101-0.458-0.253-0.56-0.253c-0.102-0.05-0.356-0.202-0.356-0.202s0,0.151,0.203,0.253 c0.203,0.101,0.662,0.354,0.764,0.404c0.102,0.05,0.509,0.304,0.509,0.304s-0.153,0.202-0.255,0.253 c-0.051,0-0.102,0.05-0.153,0.05c-0.051,0-0.153,0-0.255-0.05c-0.153-0.05-0.255-0.101-0.458-0.202 c-0.153-0.101-0.305-0.253-0.408-0.304c-0.102-0.05-0.255-0.101-0.306-0.151c-0.051,0-0.153,0-0.153,0s0.102,0.101,0.203,0.202 c0.102,0.101,0.356,0.253,0.408,0.354c0.102,0.05,0.305,0.202,0.305,0.202c0,0.05-0.203,0.202-0.255,0.252 c-0.051,0-0.102,0-0.203,0.05c-0.102,0-0.153,0-0.255-0.05c-0.102,0-0.458-0.404-0.56-0.505c-0.102-0.101-0.255-0.202-0.356-0.304 c-0.102-0.05-0.153-0.101-0.255-0.101c-0.102-0.05-0.305-0.05-0.305-0.05s0.203,0.151,0.255,0.253 c0.051,0.05,0.153,0.151,0.153,0.304c-0.051,0.101-0.102,0.202-0.153,0.304c-0.051,0.05-0.102,0.101-0.102,0.101v0.404 l-0.408,0.354l-0.306-0.253l-0.356,0.253l-0.356-0.354v-0.404c0,0-0.102-0.05-0.102-0.101c-0.051-0.101-0.153-0.202-0.153-0.304 c0-0.151,0.102-0.253,0.153-0.304c0.051-0.101,0.255-0.253,0.255-0.253s-0.203,0-0.305,0.05c-0.153,0-0.203,0.05-0.255,0.101 c-0.102,0.101-0.255,0.202-0.356,0.304c-0.102,0.101-0.509,0.505-0.56,0.505c-0.102,0.05-0.153,0.05-0.255,0.05 c-0.102-0.05-0.153-0.05-0.203-0.05c-0.05-0.05-0.255-0.202-0.305-0.252c0,0,0.255-0.151,0.356-0.253 c0.051-0.05,0.306-0.202,0.408-0.304c0.05-0.101,0.153-0.202,0.153-0.202s-0.051,0-0.102,0c-0.102,0-0.203,0.101-0.305,0.151 s-0.255,0.202-0.458,0.304c-0.153,0.101-0.306,0.151-0.408,0.202c-0.102,0.05-0.203,0.05-0.255,0.05 c-0.051,0-0.102-0.05-0.203-0.101c-0.051,0-0.203-0.202-0.203-0.202s0.408-0.253,0.509-0.304c0.102-0.05,0.56-0.304,0.764-0.404 c0.203-0.101,0.203-0.253,0.203-0.253s-0.255,0.151-0.356,0.202c-0.102,0-0.408,0.151-0.56,0.253 c-0.153,0.05-0.509,0.202-0.662,0.253c-0.153,0.05-0.255,0.05-0.305,0.05c-0.102,0-0.203-0.05-0.255-0.101 s-0.255-0.202-0.203-0.202c0.203-0.05,0.764-0.304,0.968-0.404c0.153-0.05,0.662-0.304,0.713-0.354 c0.051-0.05,0.051-0.101,0.051-0.101l0,0c-0.051,0-0.153,0-0.305,0.05c-0.153,0.05-0.916,0.354-1.171,0.455 c-0.255,0.101-0.458,0.151-0.56,0.151c-0.153-0.05-0.203-0.101-0.306-0.151c-0.102-0.05-0.153-0.101-0.305-0.202 c-0.102-0.101-0.305-0.455-0.305-0.455s0.255,0.101,0.458,0.151c0.203,0,0.356,0,0.662,0c0.153-0.05,0.458-0.101,0.611-0.151 c0.153-0.101,0.509-0.304,0.713-0.455c0.153-0.151,0.305-0.202,0.764-0.455c0.408-0.202,0.916-0.404,1.171-0.354 c0.203,0,0.255,0,0.509,0.101c0.255,0.05,0.968,0.455,0.968,0.455v-0.707H24.621z" clip-rule="evenodd"/><path fill="#c62828" fill-rule="evenodd" d="M24.519,21.379L24.519,21.379L24.519,21.379L24.519,21.379 l-0.305,0.354c0,0-0.203-0.253-0.305-0.304c-0.051-0.05-0.153-0.151-0.203-0.151c-0.051-0.05-0.102-0.05-0.153-0.05 c-0.05,0.05-0.05,0.05-0.05,0.05s0.102,0.101,0.153,0.151c0.051,0.05,0.153,0.202,0.203,0.304 c0.051,0.101,0.102,0.202,0.102,0.354c-0.051,0.101,0,0.151,0,0.151l0,0c-0.051,0.101-0.051,0.151-0.102,0.304 c-0.051,0.151-0.102,0.354-0.153,0.455c0,0.05-0.102,0.252-0.102,0.354c-0.051,0.151-0.051,0.253-0.051,0.354s0,0.202,0,0.304 c0,0.05,0,0.05,0.051,0.101c0.051,0.101,0.102,0.101,0.153,0.151c0.102,0.05,0.153,0.101,0.203,0.101 c0.051,0.05,0.051,0.05,0.051,0.05s0.051-0.05,0.153-0.101c0.05-0.05,0.102-0.101,0.203-0.151c0.05-0.05,0.153-0.101,0.153-0.101 l0,0c0,0,0.051,0.05,0.153,0.101c0.102,0.05,0.153,0.101,0.203,0.151c0.051,0.05,0.102,0.101,0.102,0.101s0.051,0,0.102-0.05 c0,0,0.102-0.05,0.203-0.101c0.051-0.05,0.102-0.05,0.153-0.151c0-0.05,0-0.05,0.051-0.101c0-0.101,0-0.202,0-0.304 c0-0.101-0.051-0.203-0.051-0.354c-0.051-0.101-0.102-0.304-0.153-0.354c0-0.101-0.102-0.304-0.153-0.455 c-0.051-0.151-0.051-0.203-0.051-0.304l0,0c0,0,0-0.05,0-0.151c0-0.151,0.051-0.253,0.102-0.354 c0.051-0.101,0.102-0.253,0.203-0.304c0.051-0.05,0.153-0.151,0.153-0.151s-0.051,0-0.051-0.05c-0.051,0-0.102,0-0.153,0.05 c-0.051,0-0.153,0.101-0.255,0.151c-0.05,0.05-0.255,0.304-0.255,0.304L24.519,21.379L24.519,21.379z" clip-rule="evenodd"/><path fill="#c62828" fill-rule="evenodd" d="M24.519,24.159L24.519,24.159c0,0,0.153,0.101,0.203,0.151 c0.051,0.05,0.102,0.151,0.102,0.202c0.051,0.101,0.051,0.202,0.051,0.202s0.153-0.151,0.203-0.253 c0.102-0.05,0.203-0.101,0.305-0.151c0.051,0,0.203-0.05,0.203-0.05s-0.051,0.151-0.102,0.202 c-0.051,0.101-0.153,0.354-0.153,0.505c0,0.151,0,0.202,0,0.304c0,0.101,0.051,0.455,0.102,0.606 c0.051,0.151,0.102,0.253,0.153,0.354c0.102,0.101,0.153,0.202,0.153,0.354c0.051,0.151,0,0.354-0.05,0.455 c-0.051,0.101-0.102,0.151-0.153,0.203c-0.051,0.05-0.153,0.151-0.203,0.151c-0.051,0.101-0.153,0.101-0.255,0.203 c0,0-0.102-0.253-0.153-0.304c-0.051-0.101-0.102-0.151-0.203-0.203c0-0.05-0.102-0.151-0.203-0.151l0,0c0,0,0,0-0.05,0 c-0.051,0-0.153,0.101-0.203,0.151c-0.051,0.05-0.102,0.101-0.153,0.203c-0.102,0.05-0.153,0.304-0.153,0.304 c-0.153-0.151-0.255-0.151-0.458-0.304c-0.051-0.05-0.153-0.151-0.153-0.253c-0.051-0.101-0.102-0.304-0.102-0.455 c0.05-0.151,0.102-0.253,0.153-0.354c0.051-0.101,0.153-0.202,0.203-0.354c0.051-0.151,0.102-0.505,0.102-0.606 c0-0.101,0-0.151,0-0.304s-0.153-0.404-0.153-0.505c-0.05-0.05-0.153-0.202-0.153-0.202s0.203,0.05,0.255,0.05 c0.051,0.05,0.203,0.101,0.255,0.151c0.102,0.101,0.255,0.253,0.255,0.253s0-0.101,0.05-0.202c0-0.05,0.051-0.151,0.102-0.202 C24.367,24.26,24.519,24.159,24.519,24.159L24.519,24.159L24.519,24.159L24.519,24.159z" clip-rule="evenodd"/><path fill="#c62828" fill-rule="evenodd" d="M24.519,27.192L24.519,27.192c0,0-0.153,0.151-0.305,0.304 c-0.05,0.101-0.102,0.354-0.102,0.505c0,0-0.356-0.304-0.458-0.404c-0.102-0.05-0.305-0.203-0.458-0.203 c-0.153-0.101-0.356-0.151-0.509-0.151c0,0,0,0.151,0.05,0.304c0.102,0.101,0.203,0.304,0.255,0.354 c0.102,0.101,0.255,0.304,0.408,0.455c0.153,0.101,0.305,0.203,0.408,0.253c0.102,0.05,0.153,0.101,0.153,0.101 c-0.153,0.151-1.069-0.101-1.273-0.151c-0.255-0.101-0.968-0.354-1.477-0.759c-0.56-0.404-1.069-0.809-1.477-1.516 c-0.458-0.657-0.509-0.708-0.713-1.365c-0.255-0.606-0.305-1.213-0.305-1.466c0-0.253,0-0.91,0.102-1.264 c0.051-0.404,0.153-0.809,0.255-1.061c0.102-0.304,0.458-1.112,0.458-1.162l0,0c0,0-0.306,0.253-0.56,0.556 c-0.203,0.304-0.356,0.505-0.56,0.91c-0.203,0.354-0.509,1.163-0.56,1.668c-0.102,0.556-0.102,1.112-0.05,1.567 c0,0.455,0.153,1.516,0.408,2.072c0.255,0.556,0.611,1.162,0.968,1.617c0.255,0.354,0.56,0.707,1.121,1.162 c0.611,0.505,1.374,0.859,1.833,1.061c0.611,0.202,1.324,0.354,2.037,0.404c0.153,0,0.356,0,0.356,0s0.255,0,0.408,0 c0.713-0.05,1.374-0.202,1.935-0.404c0.509-0.203,1.273-0.556,1.833-1.061c0.611-0.455,0.866-0.809,1.171-1.162 c0.356-0.455,0.662-1.061,0.916-1.617c0.255-0.556,0.408-1.617,0.458-2.072c0.051-0.455,0-1.011-0.051-1.567 c-0.051-0.505-0.356-1.314-0.56-1.668c-0.203-0.404-0.356-0.606-0.56-0.91c-0.255-0.304-0.56-0.556-0.56-0.556l0,0 c0,0.05,0.356,0.859,0.458,1.162c0.102,0.253,0.203,0.657,0.255,1.061c0.102,0.354,0.051,1.011,0.051,1.264 c0,0.253-0.051,0.859-0.255,1.466c-0.203,0.657-0.255,0.708-0.713,1.365c-0.458,0.707-0.968,1.112-1.477,1.516 s-1.222,0.657-1.527,0.759c-0.203,0.05-1.069,0.304-1.222,0.151c0,0,0.051-0.05,0.153-0.101c0.102-0.05,0.203-0.151,0.408-0.253 c0.153-0.151,0.305-0.354,0.408-0.455c0.051-0.05,0.153-0.253,0.203-0.354c0.102-0.151,0.102-0.304,0.102-0.304 c-0.203,0-0.356,0.05-0.56,0.151c-0.102,0-0.305,0.151-0.408,0.203c-0.102,0.101-0.458,0.404-0.458,0.404 c0-0.151-0.051-0.404-0.153-0.505C24.672,27.293,24.519,27.192,24.519,27.192L24.519,27.192z" clip-rule="evenodd"/><path fill="#c62828" fill-rule="evenodd" d="M24.519,31.387L24.519,31.387c0,0,0.509,0,0.916-0.05 c0.458-0.05,1.018-0.151,1.426-0.304c0.408-0.151,0.968-0.404,1.426-0.707c0.458-0.304,0.713-0.505,1.019-0.809 c0.305-0.252,0.458-0.455,0.611-0.556c0.153-0.151,0.305-0.252,0.509-0.304c0.153-0.05,0.458,0,0.611,0.101 c0.102,0.101,0.153,0.151,0.255,0.304c0,0.101,0.051,0.304,0.051,0.455s-0.051,0.404-0.051,0.404s0.356,0.05,0.56,0.101 c0.153,0.05,0.356,0.151,0.509,0.354c0.102,0.101,0.153,0.253,0.102,0.354c0,0.101,0,0.151,0,0.151s0.305,0.151,0.458,0.404 c0.05,0.101,0.153,0.202,0.255,0.455c0.051,0.253,0,0.505,0,0.505s-0.306-0.202-0.509-0.252c-0.153-0.05-0.356-0.151-0.611-0.151 c-0.305-0.05-0.916-0.05-1.171,0.151c-0.203,0.151-0.509,0.404-0.662,0.505c-0.153,0.151-0.611,0.404-0.815,0.455 c-0.203,0-0.255,0-0.408,0c-0.203,0-0.408-0.101-0.509-0.252c-0.051-0.151-0.153-0.304-0.153-0.304s-0.203,0.101-0.408,0.202 c-0.203,0.05-0.611,0.253-1.121,0.404c-0.356,0.101-0.56,0.151-0.866,0.202c-0.356,0.05-0.662,0.05-0.866,0.05 c-0.253,0.05-0.559,0.05-0.559,0.05l0,0c-0.05,0-0.356,0-0.56-0.05c-0.203,0-0.56,0-0.866-0.05 c-0.305-0.05-0.509-0.101-0.866-0.202c-0.509-0.151-0.916-0.354-1.121-0.404c-0.203-0.101-0.458-0.202-0.458-0.202 s-0.051,0.151-0.153,0.304c-0.051,0.151-0.255,0.252-0.458,0.252c-0.203,0-0.255,0-0.408,0c-0.255-0.05-0.662-0.304-0.815-0.455 c-0.153-0.101-0.458-0.354-0.662-0.505c-0.255-0.203-0.866-0.203-1.222-0.151c-0.255,0-0.408,0.101-0.611,0.151 c-0.153,0.05-0.458,0.252-0.458,0.252s-0.05-0.252,0-0.505c0.051-0.253,0.203-0.354,0.255-0.455 c0.153-0.253,0.458-0.404,0.458-0.404s0-0.05-0.05-0.151c0-0.101,0.05-0.253,0.102-0.354c0.153-0.202,0.408-0.304,0.56-0.354 c0.153-0.05,0.56-0.101,0.56-0.101s-0.05-0.253-0.05-0.404c-0.051-0.151,0-0.354,0.05-0.455c0.102-0.151,0.153-0.202,0.255-0.304 c0.153-0.101,0.458-0.151,0.611-0.101c0.153,0.05,0.356,0.151,0.509,0.304c0.153,0.101,0.255,0.304,0.56,0.556 c0.305,0.304,0.611,0.505,1.069,0.809c0.458,0.304,1.019,0.556,1.426,0.707c0.407,0.151,0.968,0.253,1.374,0.304 C24.01,31.387,24.519,31.387,24.519,31.387L24.519,31.387z" clip-rule="evenodd"/><path fill="#c62828" fill-rule="evenodd" d="M15.557,28.253c0.356,0,0.611-0.101,0.815-0.151 c0.153,0,0.203,0.05,0.203,0.151c0,0.151-0.56,0.304-1.171,0.304s-0.968-0.203-1.019-0.304c0-0.101,0.051-0.151,0.203-0.151 C14.793,28.152,15.252,28.253,15.557,28.253L15.557,28.253z" clip-rule="evenodd"/><path fill="#c62828" fill-rule="evenodd" d="M15.557,28.708c0.408-0.05,0.764-0.101,0.968-0.151 c0.153-0.05,0.255,0.05,0.255,0.151c0,0.151-0.662,0.354-1.375,0.354c-0.764,0-1.171-0.253-1.222-0.354 c0-0.101,0.05-0.203,0.255-0.151C14.641,28.607,15.15,28.708,15.557,28.708L15.557,28.708z" clip-rule="evenodd"/><path fill="#c62828" fill-rule="evenodd" d="M15.557,29.163c0.408-0.05,0.764-0.101,1.018-0.151 c0.203-0.05,0.306,0.05,0.306,0.151c0,0.151-0.713,0.354-1.527,0.354c-0.815,0-1.273-0.252-1.324-0.354 c0-0.101,0.102-0.203,0.255-0.151C14.539,29.062,15.099,29.163,15.557,29.163L15.557,29.163z" clip-rule="evenodd"/><path fill="#c62828" fill-rule="evenodd" d="M14.335,20.57c0,0,0.051,0,0.102,0 c0.051,0.05,0.102,0.151,0.102,0.151c0,0.05,0,0.151,0,0.304c-0.051,0.101-0.051,0.101-0.051,0.202s0,0.151,0,0.202 c0.051,0.101,0.102,0.151,0.153,0.202c0,0.101,0.051,0.151,0.051,0.202c0,0.05-0.051,0.101-0.051,0.101 c-0.102-0.05-0.153-0.101-0.203-0.151c0-0.101-0.051-0.151-0.102-0.304s-0.051-0.253-0.051-0.455 C14.284,20.874,14.335,20.57,14.335,20.57L14.335,20.57z" clip-rule="evenodd"/><path fill="#c62828" fill-rule="evenodd" d="M13.877,20.52c0,0.05,0,0.101,0,0.304 c0,0.151,0,0.253,0.051,0.404c0.05,0.202,0.102,0.304,0.102,0.354c0.05,0.101,0.102,0.101,0.102,0.101h0.102c0,0,0-0.05,0-0.202 c-0.05-0.151-0.102-0.304-0.102-0.455c0-0.101,0-0.202,0-0.304s0.051-0.151,0-0.202c-0.051-0.101-0.051-0.151-0.102-0.151 C13.978,20.368,13.928,20.419,13.877,20.52L13.877,20.52z" clip-rule="evenodd"/><path fill="#c62828" fill-rule="evenodd" d="M13.164,20.52c0,0-0.05,0.151-0.05,0.252 c0,0.151-0.051,0.304,0,0.657c0,0.354,0.05,0.505,0.102,0.657c0,0.101,0.153,0.455,0.255,0.606 c0.102,0.151,0.408,0.556,0.458,0.606c0.102,0.101,0.255,0.253,0.356,0.354c0.051,0.05,0.255,0.253,0.305,0.354 c0.102,0.101,0.153,0.202,0.203,0.304c0.051,0.101,0.102,0.151,0.102,0.253c0.051,0.151,0.051,0.354,0,0.556 c0,0.202-0.051,0.859-0.102,1.162c-0.051,0.455-0.102,0.96-0.153,1.415c0,0-0.051,0.151,0,0.202s0.153,0.101,0.255,0.101 c0.102,0,0.356,0.05,0.509,0.05c0.203,0,0.458,0,0.662-0.05c0.051,0,0.153,0,0.203-0.101c0.051-0.05,0.051-0.101,0.051-0.101 l-0.051-0.809V24.41c0-0.505,0.051-0.809-0.255-1.264c-0.153-0.203-0.356-0.505-0.509-0.657c-0.153-0.101-0.356-0.304-0.458-0.354 c-0.153-0.101-0.203-0.151-0.203-0.151H14.69c0.051,0.151,0.203,0.304,0.255,0.354c0.051,0.101,0.356,0.354,0.408,0.455 c0.051,0.05,0.203,0.202,0.203,0.253c0.051,0.05,0,0.101,0,0.101s0,0-0.051-0.05c-0.102,0-0.356-0.304-0.408-0.404 c-0.255-0.202-0.408-0.455-0.611-0.657c-0.102-0.151-0.255-0.253-0.255-0.253h-0.153c0,0,0.051,0.202,0.051,0.253 c0,0.101,0.051,0.151,0.051,0.151s0.203,0.354,0.305,0.455c0.102,0.101,0.153,0.202,0.153,0.202s0,0.05-0.051,0.05 c0,0,0,0.05-0.05,0c-0.051-0.05-0.203-0.304-0.255-0.354c0-0.05-0.203-0.304-0.203-0.354c-0.05-0.05-0.102-0.151-0.102-0.202 c0-0.101-0.05-0.354-0.05-0.455c-0.051-0.05-0.153-0.304-0.153-0.304c-0.05-0.05-0.05-0.05-0.05-0.05s0-0.202,0-0.354 c0-0.202,0-0.304-0.051-0.404c-0.05-0.101-0.05-0.151-0.102-0.202c0-0.05-0.05-0.05-0.05-0.05s-0.051,0.05-0.102,0.101 c0,0.05,0.05,0.151,0.05,0.202c0,0.101,0.051,0.151,0.051,0.151c0,0.05-0.051,0.253-0.051,0.354c0,0.151,0,0.202,0,0.252 s0,0.101,0,0.101s0.051,0.05,0.102,0.101c0.051,0.101,0.102,0.253,0.153,0.404c0.05,0.151,0.05,0.253,0.05,0.304 c0,0.101,0,0.151,0,0.151s0.203,0.354,0.255,0.404c0.05,0.05,0.05,0.05,0.05,0.101c0,0-0.05,0.05-0.102,0 c0,0-0.102-0.151-0.153-0.252c-0.051-0.05-0.153-0.203-0.153-0.253c-0.05-0.05-0.05-0.05-0.05-0.05s0-0.05,0-0.253 c-0.051-0.202-0.051-0.202-0.102-0.304c-0.051-0.101-0.102-0.202-0.102-0.253c-0.051-0.05-0.051-0.05-0.051-0.05 c0-0.151,0-0.354,0-0.556c-0.05-0.101-0.05-0.151-0.05-0.202s-0.051-0.151-0.102-0.151C13.164,20.469,13.164,20.52,13.164,20.52 L13.164,20.52z" clip-rule="evenodd"/><path fill="#c62828" fill-rule="evenodd" d="M33.533,28.253c-0.356,0-0.611-0.101-0.815-0.151 c-0.153,0-0.203,0.05-0.203,0.151c0,0.151,0.56,0.304,1.171,0.304s0.968-0.203,1.019-0.304c0-0.101-0.051-0.151-0.203-0.151 C34.296,28.152,33.838,28.253,33.533,28.253L33.533,28.253z" clip-rule="evenodd"/><path fill="#c62828" fill-rule="evenodd" d="M33.533,28.708c-0.408-0.05-0.764-0.101-0.968-0.151 c-0.153-0.05-0.255,0.05-0.255,0.151c0,0.151,0.662,0.354,1.375,0.354c0.764,0,1.171-0.253,1.222-0.354 c0-0.101-0.051-0.203-0.255-0.151C34.449,28.607,33.94,28.708,33.533,28.708L33.533,28.708z" clip-rule="evenodd"/><path fill="#c62828" fill-rule="evenodd" d="M33.533,29.163c-0.408-0.05-0.764-0.101-1.019-0.151 c-0.203-0.05-0.305,0.05-0.305,0.151c0,0.151,0.713,0.354,1.527,0.354c0.815,0,1.273-0.252,1.324-0.354 c0-0.101-0.102-0.203-0.255-0.151C34.551,29.062,33.991,29.163,33.533,29.163L33.533,29.163z" clip-rule="evenodd"/><path fill="#c62828" fill-rule="evenodd" d="M34.755,20.57c0,0-0.051,0-0.102,0 c-0.051,0.05-0.102,0.151-0.102,0.151c0,0.05,0,0.151,0,0.304c0.051,0.101,0.051,0.101,0.051,0.202s0,0.151,0,0.202 c-0.051,0.101-0.102,0.151-0.153,0.202c0,0.101-0.051,0.151-0.051,0.202c0,0.05,0.051,0.101,0.051,0.101 c0.102-0.05,0.153-0.101,0.203-0.151c0-0.101,0.051-0.151,0.102-0.304c0.05-0.151,0.05-0.253,0.05-0.455 C34.805,20.874,34.755,20.57,34.755,20.57L34.755,20.57z" clip-rule="evenodd"/><path fill="#c62828" fill-rule="evenodd" d="M35.926,20.52c0,0,0.051,0.151,0.051,0.252 c0,0.151,0.051,0.304,0,0.657c0,0.354-0.051,0.505-0.102,0.657c0,0.101-0.153,0.455-0.255,0.606 c-0.102,0.151-0.408,0.556-0.458,0.606c-0.102,0.101-0.255,0.253-0.356,0.354c-0.05,0.05-0.255,0.253-0.305,0.354 c-0.102,0.101-0.153,0.202-0.203,0.304c-0.051,0.101-0.102,0.151-0.102,0.253c-0.051,0.151-0.051,0.354,0,0.556 c0,0.202,0.051,0.859,0.102,1.162c0.051,0.455,0.102,0.96,0.153,1.415c0,0,0.051,0.151,0,0.202s-0.153,0.101-0.255,0.101 c-0.102,0-0.356,0.05-0.509,0.05c-0.203,0-0.458,0-0.662-0.05c-0.051,0-0.153,0-0.203-0.101c-0.051-0.05-0.051-0.101-0.051-0.101 l0.051-0.809V24.41c0-0.505-0.051-0.809,0.255-1.264c0.153-0.203,0.356-0.505,0.509-0.657c0.153-0.101,0.356-0.304,0.458-0.354 c0.153-0.101,0.203-0.151,0.203-0.151H34.4c-0.051,0.151-0.203,0.304-0.255,0.354c-0.051,0.101-0.356,0.354-0.408,0.455 c-0.051,0.05-0.203,0.202-0.203,0.253c-0.051,0.05,0,0.101,0,0.101s0,0,0.051-0.05c0.102,0,0.356-0.304,0.407-0.404 c0.255-0.202,0.408-0.455,0.611-0.657c0.102-0.151,0.255-0.253,0.255-0.253h0.153c0,0-0.051,0.202-0.051,0.253 c0,0.101-0.051,0.151-0.051,0.151s-0.203,0.354-0.305,0.455c-0.102,0.101-0.153,0.202-0.153,0.202s0,0.05,0.051,0.05 c0,0,0,0.05,0.051,0s0.203-0.304,0.255-0.354c0-0.05,0.203-0.304,0.203-0.354c0.051-0.05,0.102-0.151,0.102-0.202 c0-0.101,0.051-0.354,0.051-0.455c0.051-0.05,0.153-0.304,0.153-0.304c0.051-0.05,0.051-0.05,0.051-0.05s0-0.202,0-0.354 c0-0.202,0-0.304,0.051-0.404c0.051-0.101,0.051-0.151,0.102-0.202c0-0.05,0.051-0.05,0.051-0.05s0.051,0.05,0.102,0.101 c0,0.05-0.05,0.151-0.05,0.202c0,0.101-0.051,0.151-0.051,0.151c0,0.05,0.051,0.253,0.051,0.354c0,0.151,0,0.202,0,0.252 s0,0.101,0,0.101s-0.051,0.05-0.102,0.101c-0.051,0.101-0.102,0.253-0.153,0.404c-0.051,0.151-0.051,0.253-0.051,0.304 c0,0.101,0,0.151,0,0.151s-0.203,0.354-0.255,0.404c-0.051,0.05-0.051,0.05-0.051,0.101c0,0,0.051,0.05,0.102,0 c0,0,0.102-0.151,0.153-0.252c0.05-0.05,0.153-0.203,0.153-0.253c0.051-0.05,0.051-0.05,0.051-0.05s0-0.05,0-0.253 c0.051-0.202,0.051-0.202,0.102-0.304c0.051-0.101,0.102-0.202,0.102-0.253c0.051-0.05,0.051-0.05,0.051-0.05 c0-0.151,0-0.354,0-0.556c0.051-0.101,0.051-0.151,0.051-0.202s0.051-0.151,0.102-0.151C35.926,20.469,35.926,20.52,35.926,20.52 L35.926,20.52z" clip-rule="evenodd"/><path fill="#ffeea3" fill-rule="evenodd" d="M29.404,26.748L29.404,26.748l0.458,0.505 c0.051,0.101,0.051,0.202,0.102,0.304l-0.153-0.151L29.301,26.9v-0.152H29.404z" clip-rule="evenodd"/><path fill="#ffeea3" fill-rule="evenodd" d="M19.932,27.253c-0.203-0.05-0.356-0.101-0.509,0.101 c-0.203,0.304,0.356,0.809,0.356,0.708s-0.102-0.304,0.05-0.404c0.305,0,0.611,0.202,0.764,0.455c0,0,0,0.05-0.051,0.101 c-0.153,0-0.203-0.05-0.356-0.151c0.102,0,0.153,0.05,0.203,0c-0.102-0.101-0.306-0.253-0.458-0.202c-0.102,0-0.05,0.202,0,0.304 c0,0.05,0,0.05-0.05,0.101c-0.458,0.05-0.815-0.708-0.662-1.011C19.372,26.951,19.729,27.052,19.932,27.253L19.932,27.253z" clip-rule="evenodd"/><path fill="#ffeea3" fill-rule="evenodd" d="M29.2,26.951v0.203c0.153,0.101,0.306,0.252,0.458,0.354 c0.102,0.101,0.051,0.151-0.051,0.203c-0.153,0-0.153-0.203-0.305-0.253v0.202l0.102,0.101l0.051,0.05 c0,0.101-0.051,0.151-0.102,0.203l-0.051,0.05v0.05l0.051,0.151l0,0c0.051-0.05,0.153-0.101,0.153-0.151 c0.051-0.05,0.051-0.202,0.051-0.252c0.102,0,0.153-0.05,0.255-0.151c0-0.101,0-0.151-0.102-0.253L29.2,26.951L29.2,26.951z" clip-rule="evenodd"/><path fill="#ffeea3" fill-rule="evenodd" d="M28.844,27.607L28.844,27.607l0.305,0.455 c0.051,0.101,0.051,0.203,0.051,0.304c-0.051-0.05-0.051-0.151-0.153-0.253l-0.255-0.354v-0.151H28.844z" clip-rule="evenodd"/><path fill="#ffeea3" fill-rule="evenodd" d="M28.639,27.911L28.639,27.911l0.05,0.05 c-0.05,0-0.153,0-0.102,0.101c0.153,0.101,0.153,0,0.255-0.101l0.051,0.101c-0.102,0.101-0.153,0.151-0.203,0.253l-0.05,0.202 v-0.101c0-0.05,0-0.151,0-0.203c-0.051-0.05-0.153-0.05-0.203-0.151c0-0.101,0.051-0.151,0.153-0.202L28.639,27.911z" clip-rule="evenodd"/><path fill="#ffeea3" fill-rule="evenodd" d="M20.848,28.77c-0.051,0-0.153,0.05-0.203,0.101l0.102,0.05 C20.798,28.922,20.9,28.871,20.848,28.77L20.848,28.77z M20.441,28.922L20.441,28.922c-0.102,0.05-0.102,0.101-0.05,0.151 c0,0,0.102,0,0.153-0.05l0,0v-0.05L20.441,28.922L20.441,28.922z M20.951,28.315l-0.255-0.05c0,0.05,0,0.101-0.05,0.151 c0,0.05-0.102,0.05-0.153,0.101c-0.102-0.05-0.203-0.05-0.305-0.05c-0.051-0.05-0.051-0.101-0.051-0.151l-0.203-0.05 c-0.05,0.101-0.05,0.151,0.051,0.202s0.203,0.05,0.356,0.101l-0.05,0.05c-0.051,0.05,0,0.151,0.05,0.202 c-0.102,0.05-0.153,0.203-0.05,0.304c0.102,0.101,0.255,0.05,0.356-0.05c0.05,0.05,0.102,0.101,0.153,0.101 c0.102,0.05,0.255,0,0.255,0l0.509-0.304l0.102-0.05l0,0c-0.051-0.05-0.153,0-0.255,0l-0.458,0.253 c-0.102,0-0.102-0.05-0.153-0.101c0.102,0,0.203,0,0.255-0.101c0-0.101-0.051-0.101-0.051-0.202c0-0.05,0-0.101,0-0.151l0,0 c-0.153,0.101-0.255,0.151-0.408,0.253h-0.103c-0.051-0.05-0.051-0.05,0-0.151l0.408-0.253L20.951,28.315L20.951,28.315z" clip-rule="evenodd"/><path fill="#ffeea3" fill-rule="evenodd" d="M28.538,28.871L28.538,28.871l-0.203-0.05v0.203 c0.05,0,0.05,0.05,0.153,0.05C28.589,29.023,28.589,28.972,28.538,28.871L28.538,28.871L28.538,28.871L28.538,28.871z M27.723,29.023c0.102,0.05,0.153,0.101,0.153,0.202c-0.051,0-0.102,0-0.153,0C27.672,29.174,27.672,29.073,27.723,29.023 L27.723,29.023z M29.047,28.264c0,0.101,0,0.151-0.153,0.252c-0.153,0.101-0.356,0.151-0.611,0.151l-0.102,0.355l-0.051,0.05 h-0.051c-0.153-0.151-0.305-0.253-0.509-0.151c0,0.151,0,0.252,0.051,0.354c0.102,0.101,0.203,0.05,0.305,0.05 c0,0.05,0.051,0.05,0.051,0.151c-0.102,0.151-0.203,0.202-0.356,0.304c-0.153,0.101-0.255,0.151-0.408,0.202 c0.203,0.05,0.408,0.05,0.611-0.05c0.203-0.202,0.255-0.404,0.255-0.657c0.051,0,0.102-0.05,0.153-0.05 c0.102,0.05,0.203,0.101,0.356,0.05c0.153-0.05,0.255-0.253,0.102-0.455l0,0l0,0c0.102,0,0.203-0.05,0.306-0.151 C29.098,28.568,29.098,28.416,29.047,28.264L29.047,28.264z" clip-rule="evenodd"/><path fill="#ffeea3" fill-rule="evenodd" d="M21.664,28.922l0.203,0.05l-0.051,0.05l0,0l-0.102,0.05 l-0.509,0.304v0.05c-0.051,0.202,0.203,0.101,0.255,0h0.153l0,0l0,0v0.05c-0.102,0.151-0.255,0.202-0.458,0.101h-0.051 c-0.102-0.05-0.102-0.151-0.051-0.203l0.509-0.404L21.664,28.922z" clip-rule="evenodd"/><path fill="#ffeea3" fill-rule="evenodd" d="M26.807,29.882c0-0.203-0.051-0.556-0.102-0.859l-0.153,0.253 c0.051,0.202,0.102,0.556,0.153,0.707c0,0.151,0,0.202,0,0.252C26.756,30.135,26.807,30.135,26.807,29.882L26.807,29.882z" clip-rule="evenodd"/><path fill="#ffeea3" fill-rule="evenodd" d="M27.367,29.023L27.367,29.023 c0.153,0.151,0.153,0.253,0.203,0.455c-0.051,0.101-0.051,0.151-0.153,0.252c-0.153,0.05-0.255,0.101-0.408,0.05 c-0.153-0.101-0.102-0.304-0.102-0.505c0.051,0.151,0.051,0.304,0.203,0.354c0.153,0,0.305-0.05,0.356-0.202l-0.153-0.203 L27.367,29.023L27.367,29.023z" clip-rule="evenodd"/><path fill="#ffeea3" fill-rule="evenodd" d="M26.399,29.225L26.399,29.225l0.203,0.859 c0,0.151-0.051,0.304-0.255,0.354c-0.05,0-0.153,0.05-0.203,0c0,0.05-0.05,0.202-0.203,0.252c-0.153,0-0.203-0.151-0.255-0.203 c-0.102,0-0.203,0-0.305-0.05c0-0.101-0.051-0.151-0.051-0.203c-0.102,0.101-0.305,0.151-0.458,0.203 c-0.153,0-0.255-0.05-0.408-0.151c-0.051,0-0.102,0.05-0.153,0.05c-0.05,0-0.102,0-0.153-0.05c-0.102,0.05-0.255,0.05-0.306,0.05 c-0.051-0.05-0.102-0.101-0.153-0.151c-0.102,0-0.255,0-0.408,0c-0.102,0-0.153-0.05-0.153-0.151l-0.356-0.05 c-0.203,0.202-0.509,0.354-0.866,0.304c-0.255-0.05-0.356-0.253-0.458-0.455c0.203,0.151,0.356,0.252,0.56,0.304 c0.203,0.05,0.458-0.05,0.56-0.101l0.051-0.101c-0.051,0-0.153,0-0.203-0.05c-0.05-0.05-0.05-0.05-0.05-0.101 c0.102-0.151,0.153-0.202,0.408-0.253c0.102,0.05,0.153,0.151,0.153,0.304h0.102l0.153,0.05c0.153-0.05,0.203-0.101,0.356-0.151 c-0.05,0.101-0.153,0.151-0.153,0.253c-0.051,0-0.051,0.05,0.051,0.05c0.102,0,0.203,0,0.356-0.05l0.153-0.101v0.101 c-0.05,0.049-0.05,0.049-0.05,0.099c0,0,0,0.05,0.051,0.05c0.051,0.05,0.255-0.05,0.356-0.151l0,0c0,0.101-0.05,0.151,0,0.202 c0.102,0,0.203-0.151,0.305-0.151c-0.05,0.05-0.05,0.101-0.05,0.151c0.102,0.05,0.203,0.05,0.306,0.05 c0.153,0,0.255-0.05,0.408-0.151l-0.102-0.05c-0.153-0.05-0.356-0.05-0.509,0c0.102-0.101,0.203-0.151,0.356-0.202 c0.153,0,0.356,0.05,0.458,0.101c0.102,0,0.153,0.05,0.203,0.05c0.051,0,0.153,0,0.203,0c-0.102,0.05-0.153,0.101-0.203,0.101 c-0.102,0.05-0.305,0.203-0.102,0.253c0.102,0,0.203-0.05,0.305-0.202c0.153,0.101,0.203,0.151,0.356,0.151 c0.102,0,0.153-0.101,0.153-0.253c0.051-0.101-0.102-0.455-0.153-0.657L26.399,29.225z M22.682,29.68L22.682,29.68 c0.153,0.05,0,0.253-0.102,0.101l0.051-0.05L22.682,29.68z M25.941,30.539c-0.102,0-0.102-0.05-0.153-0.101l0.051-0.101 l0.051-0.05c0.051,0.05,0.102,0.101,0.153,0.101C25.991,30.489,25.991,30.539,25.941,30.539L25.941,30.539z" clip-rule="evenodd"/><path fill="#ffeea3" fill-rule="evenodd" d="M22.529,29.275L22.529,29.275l-0.102,0.354l-0.05,0.05l0,0 c-0.102,0.101-0.305,0.151-0.458,0.101c-0.153-0.05-0.255-0.202-0.255-0.404c0.102-0.101,0.255-0.101,0.408-0.101 c-0.102,0-0.203,0.101-0.255,0.202c0,0.151,0.153,0.202,0.305,0.202c0.102,0,0.153-0.05,0.203-0.101v-0.203v-0.05L22.529,29.275z" clip-rule="evenodd"/><polygon fill="#ffeea3" fill-rule="evenodd" points="23.14,29.427 23.14,29.427 23.293,29.478 23.191,29.629 23.038,29.528" clip-rule="evenodd"/><polygon fill="#ffeea3" fill-rule="evenodd" points="27.112,28.972 27.112,28.972 27.265,29.073 27.163,29.174 27.01,29.124" clip-rule="evenodd"/><polygon fill="#ffeea3" fill-rule="evenodd" points="20.848,29.579 20.848,29.579 21.053,29.629 21.001,29.781 20.848,29.73" clip-rule="evenodd"/><polygon fill="#ffeea3" fill-rule="evenodd" points="22.172,29.023 22.172,29.023 22.325,29.073 22.325,29.174 22.172,29.174" clip-rule="evenodd"/><path fill="#ffeea3" fill-rule="evenodd" d="M20.696,30.932c-0.05,0-0.102,0-0.102,0.05 c-0.051,0.05-0.051,0.101,0,0.151C20.798,31.135,20.848,30.932,20.696,30.932L20.696,30.932z M19.627,30.528v-0.05 c0.051,0.151,0.153,0.354,0.203,0.455c0.102,0.101,0.153,0.101,0.255,0.101s0.255,0,0.356,0c0,0-0.05,0.05,0,0.101 c0,0.101,0,0.151,0.153,0.151c0.153,0.05,0.255-0.101,0.306-0.304v-0.05l-0.051-0.05c-0.051-0.101-0.051-0.101-0.153-0.151 c-0.102,0.05-0.203,0.151-0.305,0.151c-0.051,0.05-0.153,0.05-0.255,0c-0.051,0-0.203-0.05-0.255-0.101 C19.779,30.68,19.729,30.579,19.627,30.528L19.627,30.528z" clip-rule="evenodd"/><path fill="#ffeea3" fill-rule="evenodd" d="M29.251,30.275l-0.051,0.101c0,0.101,0,0.253-0.102,0.304 c-0.102,0.101-0.255,0.151-0.408,0.151l-0.05,0.202h0.05v0.151c0,0.101,0,0.203,0,0.304c-0.05,0.151-0.203,0.304-0.356,0.404 c0.102-0.05,0.255-0.05,0.408-0.202c0.153-0.151-0.051-0.455,0.051-0.708c0.153-0.05,0.255-0.05,0.356-0.151 C29.302,30.68,29.302,30.477,29.251,30.275L29.251,30.275z" clip-rule="evenodd"/><path fill="#ffeea3" fill-rule="evenodd" d="M21.256,30.882l-0.102,0.05h-0.051 c-0.051,0.252-0.102,0.505-0.153,0.707c0.051-0.05,0.102-0.101,0.102-0.101C21.154,31.337,21.205,31.084,21.256,30.882 L21.256,30.882z" clip-rule="evenodd"/><path fill="#ffeea3" fill-rule="evenodd" d="M28.283,31.236c0-0.05,0-0.101-0.051-0.101 c0-0.05,0-0.05-0.102-0.05c0,0.05,0,0.101,0.051,0.151H28.283L28.283,31.236z M28.028,30.932c0,0.151,0,0.304,0.051,0.455h0.051 l0.203-0.05c0,0.05,0,0.05-0.051,0.151s-0.203,0.354-0.356,0.505c-0.102,0.05-0.255,0.101-0.408,0.151 c0.153,0,0.356,0.05,0.458-0.05c0.153-0.05,0.356-0.404,0.458-0.657l0.051-0.151c0-0.101,0-0.151-0.102-0.253 C28.334,30.932,28.181,30.932,28.028,30.932L28.028,30.932z" clip-rule="evenodd"/><path fill="#ffeea3" fill-rule="evenodd" d="M21.664,31.135L21.664,31.135l-0.153,0.556l-0.051,0.05 c0.051,0.101,0.051,0.151,0.153,0.202c0.153,0.101,0.356,0.151,0.56,0.151c0.051-0.05,0.102-0.05,0.153-0.101 c0.051,0,0.153,0,0.255,0c-0.051,0.05-0.153,0.101-0.153,0.151c0,0,0,0.05,0.051,0.05c0.102,0,0.203-0.05,0.356-0.151 c0,0.05-0.051,0.101-0.051,0.202c0,0.05,0.051,0.05,0.153,0.05c0.102,0,0.203-0.101,0.305-0.203c0,0.101-0.051,0.253,0,0.253 c0.102,0.05,0.153,0.05,0.255,0c0.102-0.151,0.102-0.354,0.102-0.556l0.203-0.101L23.7,32.246c0,0.05-0.153,0.151-0.255,0.252 c-0.102,0.05-0.203,0.05-0.306,0c0,0-0.05-0.05-0.05-0.101c-0.102,0.05-0.153,0.101-0.305,0.101 c-0.102-0.05-0.153-0.101-0.153-0.202c-0.102,0-0.153,0.05-0.255,0.05c-0.051-0.05-0.102-0.101-0.102-0.151 c-0.051,0-0.051,0.05-0.153,0.05c-0.203,0-0.56-0.101-0.662-0.151c-0.153-0.101-0.153-0.202-0.153-0.354 c-0.255,0.101-0.509,0.101-0.662,0.05c-0.102-0.05-0.203-0.304-0.255-0.455c0.203,0.151,0.356,0.304,0.458,0.354 c0.153,0,0.203,0,0.255,0c0.102-0.05,0.203-0.101,0.255-0.203c0.051-0.101,0.051-0.202,0.102-0.253L21.664,31.135z" clip-rule="evenodd"/><polygon fill="#ffeea3" fill-rule="evenodd" points="29.047,31.033 28.996,31.185 29.098,31.286 29.2,31.135" clip-rule="evenodd"/><path fill="#ffeea3" fill-rule="evenodd" d="M27.214,31.387l-0.102,0.252c0,0.05,0.05,0.05,0.102,0.101 c0,0.05,0,0.05-0.051,0.05l-0.255,0.101l0.051,0.151l0.153-0.05c0.05-0.05,0.153-0.101,0.203,0c0.051,0.05,0,0.101,0,0.101 c-0.255,0.101-0.611,0.304-0.866,0.304c-0.102,0-0.203-0.101-0.203-0.203c0.051-0.151,0.051-0.202,0.102-0.304 c-0.102,0.151-0.203,0.202-0.203,0.455c0,0.101,0,0.203,0.153,0.203c0.255,0.05,0.662-0.151,0.916-0.253 c0.102-0.05,0.255-0.101,0.255-0.253v-0.048c0-0.101-0.051-0.101-0.153-0.151l0.051-0.05c0-0.05,0-0.05-0.051-0.151 C27.315,31.59,27.265,31.488,27.214,31.387L27.214,31.387z" clip-rule="evenodd"/><polygon fill="#ffeea3" fill-rule="evenodd" points="26.857,31.387 26.807,31.539 26.959,31.59 27.01,31.488" clip-rule="evenodd"/><path fill="#ffeea3" fill-rule="evenodd" d="M24.261,31.792l-0.203,0.151l-0.102,0.455 c0,0.101-0.051,0.202-0.051,0.252c0.051-0.05,0.153-0.151,0.203-0.252L24.261,31.792L24.261,31.792z" clip-rule="evenodd"/><path fill="#ffeea3" fill-rule="evenodd" d="M24.82,32.398l0.102-0.556l-0.203,0.202 c0,0.151,0,0.202-0.051,0.354c0,0.202-0.051,0.304-0.051,0.455c0.051-0.05,0.102-0.151,0.153-0.202 C24.82,32.55,24.82,32.499,24.82,32.398L24.82,32.398z" clip-rule="evenodd"/><path fill="#ffeea3" fill-rule="evenodd" d="M25.228,31.943l-0.203,0.252 c0.102,0.05,0.153,0.151,0.203,0.203c0.051,0.05,0.051,0.101,0.051,0.101c0,0.05-0.102,0.05-0.153,0.05c-0.051,0-0.102,0-0.153,0 l-0.153,0.304l0.356-0.05c0.102-0.05,0.153-0.101,0.203-0.202l0.051-0.202C25.432,32.247,25.33,32.095,25.228,31.943 L25.228,31.943z" clip-rule="evenodd"/><path fill="#ffeea3" fill-rule="evenodd" d="M24.515,32.146c-0.05,0.05-0.102,0.151-0.153,0.202 c0,0.05,0.05,0.151,0.05,0.253c-0.102,0.05-0.153,0.05-0.305,0.101c-0.203,0.05-0.408,0-0.662-0.05 c0.102,0.101,0.255,0.202,0.408,0.253c0.255,0,0.662-0.304,0.713-0.354v-0.051C24.566,32.348,24.566,32.297,24.515,32.146 L24.515,32.146z" clip-rule="evenodd"/><polygon fill="#ffeea3" fill-rule="evenodd" points="27.061,32.449 27.01,32.601 27.112,32.651 27.214,32.55" clip-rule="evenodd"/><polygon fill="#ffeea3" fill-rule="evenodd" points="27.265,32.398 27.214,32.55 27.315,32.601 27.417,32.449" clip-rule="evenodd"/></g></svg>