<svg xmlns="http://www.w3.org/2000/svg"  viewBox="0 0 48 48" width="500px" height="500px"><path fill="#ef6c00" d="M9,10.802v26.396c1.43,1.624,3.116,3.013,5,4.104V6.697C12.116,7.789,10.43,9.177,9,10.802z"/><path fill="#00695c" d="M4.447,24c0,5.064,1.897,9.675,5,13.198V10.802C6.344,14.325,4.447,18.936,4.447,24z"/><path fill="#880e4f" d="M23.679,4.838c-2.846,0-5.549,0.604-8,1.675v34.998c2.451,1.072,5.154,1.675,8,1.675	c11.046,0,20-8.954,20-20C43.679,12.14,34.725,4.838,23.679,4.838z"/><path fill="#ffca28" d="M14,6.697v34.605c0.646,0.375,1.31,0.721,2,1.022V5.675C15.31,5.977,14.646,6.323,14,6.697z"/><path fill="#ffca28" d="M35.895,31.283c-0.11-0.089-0.294-0.128-0.473-0.166c-0.151-0.031-0.306-0.064-0.409-0.125	c-0.135-0.082-0.261-0.281-0.278-0.309v-0.003l-0.008-0.005l-0.013,0.008l-0.023,0.005c0,0.008,0.005,0.156,0.033,0.25	c0.01,0.043,0.028,0.092,0.043,0.143c0.023,0.077,0.049,0.158,0.064,0.225c0.003,0.026,0.005,0.051,0.005,0.077	c0.02,0.271,0.043,0.577,0.488,0.6c0.015,0,0.028,0,0.038,0c0.1,0,0.153-0.023,0.202-0.043c0.031-0.013,0.056-0.023,0.089-0.028	c0.064-0.008,0.22-0.008,0.22-0.008h0.023l-0.015-0.148c0.003-0.005,0.01-0.015,0.018-0.026	C35.954,31.654,36.097,31.447,35.895,31.283z"/><path fill="#ffca28" d="M20.308,30.683l-0.041-0.008c0,0.003-0.135,0.225-0.281,0.314c-0.102,0.061-0.258,0.095-0.409,0.125	c-0.179,0.038-0.363,0.077-0.473,0.166c-0.202,0.163-0.059,0.37-0.005,0.45c0.005,0.01,0.013,0.02,0.015,0.023l-0.015,0.151h0.023	c0.003,0,0.158,0,0.222,0.008c0.031,0.005,0.059,0.015,0.087,0.028c0.051,0.02,0.105,0.043,0.204,0.043c0.01,0,0.026,0,0.038-0.003	c0.444-0.023,0.467-0.329,0.488-0.6c0-0.026,0.003-0.051,0.005-0.077c0.015-0.069,0.041-0.148,0.064-0.227	c0.018-0.049,0.033-0.097,0.043-0.14C20.3,30.844,20.308,30.698,20.308,30.683h-0.02H20.308z"/><path fill="#ffca28" d="M35.901,16.252c-0.005-0.01-0.013-0.02-0.015-0.023l0.015-0.151h-0.023c-0.003,0-0.158,0-0.222-0.008	c-0.033-0.005-0.059-0.015-0.087-0.028c-0.054-0.023-0.117-0.049-0.24-0.041c-0.444,0.023-0.467,0.329-0.488,0.6	c-0.003,0.026-0.005,0.051-0.005,0.077c-0.015,0.069-0.041,0.148-0.066,0.227c-0.015,0.049-0.031,0.097-0.043,0.14	c-0.026,0.092-0.031,0.235-0.031,0.253h0.02l0.018,0.008c0-0.003,0.135-0.225,0.281-0.314c0.102-0.061,0.258-0.095,0.409-0.125	c0.179-0.038,0.363-0.077,0.473-0.166C36.097,16.538,35.954,16.331,35.901,16.252z"/><path fill="#ffca28" d="M20.295,17.286c-0.003-0.026-0.008-0.158-0.033-0.248c-0.01-0.043-0.026-0.089-0.041-0.14	c-0.026-0.077-0.051-0.158-0.064-0.225c-0.003-0.026-0.005-0.051-0.008-0.077c-0.02-0.268-0.043-0.572-0.483-0.595	c-0.123-0.008-0.184,0.018-0.238,0.041c-0.031,0.013-0.056,0.023-0.087,0.028c-0.064,0.008-0.217,0.008-0.22,0.008h-0.023	l0.015,0.148c-0.003,0.005-0.01,0.015-0.015,0.026c-0.054,0.077-0.197,0.281,0.005,0.447c0.107,0.087,0.291,0.125,0.467,0.163	c0.151,0.031,0.304,0.061,0.404,0.123c0.135,0.084,0.261,0.281,0.276,0.309l0.003,0.013h0.054L20.295,17.286z"/><path fill="#ffbe29" d="M24.118,29.715l0.143-0.082l0.061,0.082c0.082,0.11,0.306,0.11,0.455-0.003l0.115-0.084l0.095,0.084	c0.125,0.112,0.36,0.112,0.511,0.003c0.105-0.079,0.118-0.082,0.189-0.02c0.041,0.033,0.161,0.074,0.268,0.089	c0.192,0.023,0.197,0.023,0.309-0.146c0.095-0.14,0.107-0.199,0.084-0.335c-0.013-0.092-0.031-0.238-0.036-0.327	c-0.008-0.158-0.008-0.158,0.225-0.24c0.128-0.043,0.276-0.105,0.329-0.133c0.095-0.049,0.347-0.35,0.347-0.409	c0-0.015-0.1-0.038-0.22-0.054c-0.485-0.054-0.567-0.314-0.253-0.797c0.513-0.789,0.825-1.558,0.828-2.048	c0-0.217,0.013-0.291,0.041-0.243c0.115,0.194-0.092,1.009-0.404,1.594l-0.125,0.235l0.12-0.028	c0.066-0.015,0.452-0.179,0.861-0.363c1.114-0.506,1.497-0.603,2.22-0.572c0.605,0.026,0.863,0.143,1.29,0.59	c0.225,0.238,0.444,0.406,0.843,0.656c0.848,0.531,0.884,0.577,0.925,1.203c0.041,0.633,0.02,0.667-0.457,0.774	c-0.411,0.089-0.667,0.281-0.736,0.547c-0.036,0.14,0.041,0.146,0.248,0.013l0.151-0.097l0.066,0.097	c0.089,0.128,0.276,0.128,0.432,0.003l0.117-0.097l0.123,0.097c0.186,0.148,0.434,0.112,0.506-0.074	c0.013-0.038,0.049-0.026,0.123,0.038c0.138,0.12,0.488,0.169,0.526,0.077c0.015-0.036-0.013-0.123-0.061-0.197	c-0.204-0.304-0.268-0.452-0.271-0.618c-0.003-0.23,0.066-0.342,0.329-0.531c0.319-0.23,0.419-0.524,0.176-0.524	c-0.151,0-0.304-0.133-0.398-0.35c-0.197-0.439-0.158-0.935,0.135-1.755c0.301-0.833,0.335-0.986,0.335-1.545	c0-0.45-0.01-0.529-0.112-0.776c-0.064-0.151-0.192-0.375-0.284-0.498l-0.169-0.227l0.217-0.179c0.662-0.547,0.526-1.446-0.271-1.79	c-0.243-0.105-0.304-0.115-0.73-0.112c-0.258,0.003-0.646,0.036-0.868,0.077c-0.225,0.038-0.608,0.072-0.868,0.072	c-0.416,0.003-0.488-0.008-0.646-0.092c-0.169-0.089-0.197-0.133-0.23-0.337c-0.008-0.043-0.036-0.084-0.066-0.095	c-0.056-0.018-0.319,0.209-0.358,0.312c-0.018,0.049-0.033,0.046-0.089-0.02c-0.041-0.046-0.092-0.148-0.117-0.227	c-0.066-0.199,0.015-0.35,0.25-0.462l0.184-0.089l-0.107-0.066c-0.225-0.138-0.603-0.043-0.741,0.186	c-0.038,0.064-0.079,0.115-0.092,0.117c-0.015,0-0.087-0.061-0.163-0.138c-0.289-0.281-0.189-0.697,0.194-0.822	c0.207-0.069,0.388-0.018,0.427,0.12c0.056,0.209,0.235-0.066,0.204-0.314c-0.023-0.163-0.018-0.171,0.095-0.171	c0.158,0,0.496,0.209,0.6,0.37c0.123,0.189,0.112,0.485-0.02,0.707l-0.105,0.171l0.138-0.026c0.199-0.041,0.396-0.166,0.493-0.317	c0.105-0.161,0.117-0.473,0.023-0.641c-0.089-0.161-0.079-0.189,0.054-0.133c0.225,0.095,0.347,0.197,0.437,0.375	c0.082,0.158,0.084,0.197,0.041,0.363c-0.026,0.102-0.087,0.238-0.133,0.299c-0.074,0.097-0.077,0.115-0.018,0.115	c0.107,0,0.332-0.102,0.414-0.189c0.041-0.043,0.1-0.148,0.13-0.235l0.059-0.158l0.066,0.12c0.092,0.171,0.276,0.322,0.496,0.419	c0.24,0.102,0.337,0.107,0.215,0.013c-0.084-0.066-0.24-0.521-0.192-0.564c0.026-0.026,0.35,0.222,0.72,0.554	c0.35,0.314,0.57,0.416,0.891,0.416c0.409,0,0.649-0.358,0.465-0.695c-0.107-0.197-0.347-0.225-0.488-0.056	c-0.064,0.079-0.082,0.14-0.064,0.222c0.023,0.097,0.015,0.112-0.077,0.112c-0.117,0-0.355-0.153-0.771-0.501	c-0.636-0.531-1.41-0.981-1.969-1.147c-0.358-0.105-1.124-0.146-1.487-0.079c-0.396,0.072-0.861,0.296-1.116,0.539	c-0.45,0.429-0.457,0.999-0.018,1.517l0.125,0.148l-0.084,0.13c-0.125,0.194-0.115,0.452,0.026,0.641	c0.061,0.084,0.123,0.153,0.138,0.153c0.013,0,0.028-0.054,0.033-0.12c0.013-0.166,0.084-0.278,0.207-0.322	c0.11-0.041,0.181-0.02,0.69,0.181c0.531,0.212,1.407,0.227,2.34,0.038c0.455-0.092,0.994-0.087,1.231,0.013	c0.434,0.181,0.534,0.656,0.215,1.014c-0.138,0.156-0.271,0.22-0.718,0.342c-0.34,0.092-0.421,0.1-1.195,0.092	c-0.662-0.008-0.897,0.005-1.167,0.061c-0.294,0.061-0.475,0.069-1.333,0.046l-0.996-0.026l0.11,0.092	c0.061,0.051,0.148,0.112,0.192,0.138c0.074,0.043,0.072,0.049-0.038,0.089c-0.066,0.026-0.212,0.046-0.324,0.046h-0.204	l-0.028,0.174c-0.013,0.095-0.013,0.204,0.003,0.248c0.026,0.059,0.015,0.066-0.046,0.043c-0.043-0.015-0.163-0.046-0.266-0.066	c-0.105-0.023-0.243-0.066-0.309-0.1c-0.112-0.056-0.125-0.054-0.166,0.02c-0.036,0.064-0.381,0.322-0.432,0.322	c-0.01,0-0.02-0.051-0.026-0.11c-0.003-0.061-0.054-0.22-0.11-0.352c-0.056-0.133-0.115-0.276-0.13-0.322	c-0.026-0.066-0.036-0.069-0.064-0.02c-0.018,0.036-0.046,0.125-0.061,0.202c-0.013,0.077-0.066,0.202-0.115,0.278l-0.089,0.138	l-0.056-0.117c-0.061-0.128-0.161-0.258-0.199-0.258c-0.013,0-0.033,0.041-0.046,0.089c-0.028,0.105-0.268,0.391-0.327,0.391	c-0.023,0-0.041-0.079-0.041-0.179s-0.018-0.181-0.041-0.181s-0.043,0.026-0.043,0.056c0,0.077-0.204,0.304-0.273,0.304	c-0.031,0-0.079,0.028-0.107,0.061c-0.077,0.087-0.138,0.074-0.107-0.02c0.015-0.046,0.008-0.148-0.02-0.232	c-0.026-0.082-0.054-0.169-0.064-0.194c-0.01-0.031-0.084-0.023-0.24,0.028c-0.25,0.079-0.335,0.064-0.204-0.036	c0.046-0.038,0.117-0.166,0.158-0.286c0.041-0.117,0.102-0.225,0.133-0.235c0.046-0.015,0.043,0.003-0.01,0.077	c-0.038,0.051-0.069,0.123-0.069,0.156c0,0.033-0.028,0.112-0.064,0.176c-0.036,0.064-0.059,0.123-0.049,0.13	c0.008,0.008,0.102-0.028,0.212-0.082l0.197-0.095v0.087c0.003,0.046,0.026,0.169,0.054,0.273l0.051,0.186l0.135-0.061	c0.138-0.064,0.268-0.289,0.268-0.462c0-0.087,0.049-0.074,0.069,0.018c0.008,0.028,0.038,0.128,0.069,0.225l0.059,0.176	l0.092-0.112c0.051-0.061,0.115-0.179,0.14-0.266c0.049-0.148,0.12-0.212,0.12-0.105c0,0.079,0.212,0.355,0.253,0.332	c0.02-0.01,0.059-0.115,0.087-0.23c0.059-0.243,0.153-0.406,0.215-0.37c0.023,0.013,0.031,0.038,0.018,0.056	c-0.01,0.018,0.038,0.176,0.11,0.347c0.072,0.174,0.143,0.35,0.158,0.388c0.026,0.064,0.049,0.056,0.202-0.079	c0.097-0.084,0.181-0.179,0.194-0.209c0.015-0.049,0.036-0.046,0.125,0.01c0.125,0.077,0.541,0.202,0.575,0.171	c0.013-0.013,0.026-0.123,0.028-0.245l0.005-0.222l0.12,0.026c0.066,0.013,0.207,0.013,0.309-0.003l0.189-0.028l-0.166-0.115	c-0.095-0.064-0.186-0.146-0.209-0.181c-0.023-0.041-0.105-0.074-0.199-0.082c-0.25-0.02-0.697-0.271-0.697-0.391	c0-0.023,0.061,0.015,0.138,0.084c0.166,0.153,0.398,0.25,0.603,0.25h0.153l-0.095-0.125c-0.054-0.072-0.102-0.209-0.115-0.322	c-0.018-0.179-0.036-0.207-0.222-0.337c-0.115-0.079-0.253-0.197-0.312-0.261l-0.105-0.12l-0.054,0.143	c-0.028,0.077-0.064,0.14-0.079,0.14c-0.015,0-0.072-0.046-0.125-0.102c-0.056-0.054-0.112-0.1-0.125-0.1	c-0.013,0-0.061,0.074-0.107,0.166l-0.084,0.163l-0.064-0.095c-0.033-0.051-0.117-0.143-0.184-0.204	c-0.066-0.061-0.102-0.112-0.079-0.112s0.107,0.064,0.184,0.143l0.14,0.14l0.056-0.105c0.033-0.059,0.046-0.153,0.031-0.23	c-0.02-0.11-0.018-0.117,0.023-0.049c0.028,0.043,0.11,0.13,0.181,0.189l0.133,0.107l0.092-0.169	c0.092-0.166,0.092-0.166,0.133-0.066c0.056,0.133,0.457,0.462,0.799,0.654c0.054,0.031,0.031-0.072-0.066-0.306	c-0.026-0.061-0.046-0.174-0.046-0.248c0-0.11-0.033-0.161-0.174-0.268c-0.207-0.156-0.271-0.266-0.312-0.518	c-0.015-0.102-0.051-0.215-0.079-0.25c-0.041-0.054-0.049-0.026-0.036,0.163c0.008,0.128-0.01,0.286-0.038,0.352l-0.049,0.12	l-0.041-0.1c-0.02-0.056-0.115-0.151-0.209-0.215c-0.097-0.061-0.161-0.123-0.148-0.135c0.013-0.013,0.11,0.043,0.215,0.125	c0.161,0.125,0.197,0.138,0.22,0.084c0.026-0.064,0-0.345-0.051-0.541c-0.026-0.097-0.023-0.097,0.1,0.023	c0.087,0.089,0.138,0.197,0.176,0.381c0.049,0.235,0.072,0.276,0.291,0.467c0.13,0.115,0.243,0.202,0.253,0.194	c0.008-0.008,0.023-0.306,0.036-0.662c0.023-0.679-0.003-0.843-0.166-1.052l-0.084-0.11l0.133-0.143	c0.171-0.186,0.253-0.335,0.286-0.539l0.028-0.166l-0.148,0.14c-0.123,0.117-0.181,0.143-0.324,0.143	c-0.14,0-0.194-0.023-0.291-0.125c-0.112-0.12-0.314-0.238-0.508-0.294c-0.069-0.02-0.095-0.01-0.095,0.038	c0,0.033-0.038,0.138-0.087,0.227l-0.089,0.161l-0.181-0.181c-0.112-0.11-0.248-0.197-0.347-0.225	c-0.253-0.066-0.268-0.059-0.268,0.13c0,0.289-0.123,0.342-0.342,0.151c-0.171-0.146-0.309-0.179-0.628-0.143l-0.248,0.026	l0.046,0.112c0.036,0.092,0.028,0.133-0.051,0.238c-0.13,0.171-0.296,0.245-0.554,0.245c-0.12,0-0.268,0.026-0.329,0.056	c-0.064,0.028-0.22,0.064-0.347,0.077c-0.13,0.013-0.266,0.033-0.304,0.049c-0.061,0.023-0.069,0.003-0.049-0.135	c0.031-0.209-0.117-0.365-0.347-0.365c-0.299,0-0.434,0.266-0.319,0.618c0.023,0.066,0.054,0.174,0.066,0.238	c0.013,0.064,0.148,0.238,0.312,0.401c0.158,0.161,0.309,0.324,0.335,0.368c0.023,0.043,0.105,0.112,0.179,0.153l0.135,0.077	l-0.015-0.146c-0.02-0.161,0.013-0.186,0.1-0.074c0.031,0.041,0.107,0.107,0.171,0.146c0.1,0.064,0.117,0.064,0.117,0.01	c0-0.033,0.02-0.112,0.046-0.176l0.043-0.112l0.079,0.153c0.046,0.084,0.186,0.276,0.317,0.427c0.25,0.291,0.404,0.618,0.324,0.692	c-0.031,0.031-0.117,0.028-0.299-0.008c-0.138-0.028-0.312-0.043-0.383-0.033c-0.146,0.02-0.156,0-0.066-0.11	c0.095-0.12,0.079-0.138-0.107-0.138c-0.215,0-0.748-0.105-0.953-0.184c-0.199-0.079-0.245-0.061-0.304,0.128	c-0.026,0.084-0.074,0.24-0.107,0.342l-0.059,0.189l0.215-0.02c0.118-0.013,0.271-0.038,0.34-0.059	c0.066-0.02,0.128-0.031,0.135-0.023c0.008,0.005-0.023,0.079-0.066,0.161l-0.082,0.151l0.135-0.028	c0.074-0.013,0.184-0.051,0.248-0.082c0.107-0.051,0.115-0.046,0.199,0.089c0.105,0.169,0.189,0.161,0.207-0.018	c0.02-0.184,0.082-0.156,0.194,0.087c0.11,0.235,0.225,0.319,0.245,0.179c0.008-0.046,0.066-0.12,0.133-0.166	c0.13-0.092,0.23-0.066,0.286,0.079c0.059,0.151-0.072,0.306-0.452,0.536c-0.764,0.462-1.206,1.096-1.333,1.9	c-0.115,0.728,0.243,1.479,0.958,2.018c0.342,0.258,0.886,0.531,0.851,0.427c-0.146-0.442-0.143-1.285,0.008-1.425	c0.023-0.023,0.015,0.066-0.015,0.194c-0.12,0.48-0.069,0.863,0.238,1.757c0.276,0.812,0.238,1.157-0.153,1.387	c-0.125,0.074-0.207,0.084-0.544,0.082c-0.365-0.005-0.406,0.003-0.524,0.097c-0.115,0.089-0.263,0.388-0.263,0.529	C23.871,29.822,23.955,29.812,24.118,29.715z"/><path fill="#ffbe29" d="M30.067,29.699l0.153-0.1l0.105,0.1c0.135,0.13,0.296,0.125,0.427-0.008	c0.059-0.059,0.11-0.1,0.115-0.089c0.005,0.008,0.031,0.051,0.056,0.095c0.033,0.056,0.1,0.084,0.22,0.095	c0.146,0.01,0.186-0.005,0.243-0.087l0.069-0.1l0.151,0.097c0.414,0.266,0.636-0.013,0.45-0.57	c-0.095-0.284-0.041-0.442,0.261-0.802c0.13-0.151,0.235-0.314,0.235-0.36c0-0.074-0.026-0.084-0.194-0.082	c-0.163,0.005-0.212-0.013-0.296-0.107c-0.14-0.153-0.133-0.329,0.023-0.524l0.125-0.156l-0.22-0.151	c-0.123-0.082-0.342-0.278-0.488-0.434c-0.329-0.35-0.651-0.516-1.078-0.554l-0.286-0.026v0.217c0,0.278,0.133,0.547,0.488,0.999	c0.406,0.516,0.434,0.598,0.452,1.272l0.013,0.57l-0.117,0.11c-0.105,0.102-0.153,0.115-0.496,0.133	c-0.327,0.02-0.396,0.036-0.49,0.123c-0.128,0.112-0.163,0.174-0.204,0.327c-0.023,0.092-0.013,0.112,0.051,0.112	C29.875,29.799,29.983,29.753,30.067,29.699z"/><path fill="#880e4f" d="M31.885,29.893c-0.084,0-0.194-0.028-0.329-0.117l-0.077-0.049l-0.02,0.028	c-0.084,0.123-0.163,0.135-0.322,0.125c-0.102-0.008-0.23-0.028-0.291-0.138c-0.003-0.003-0.005-0.005-0.008-0.01	c-0.005,0.008-0.013,0.015-0.02,0.023c-0.166,0.169-0.383,0.174-0.557,0.01l-0.051-0.051l-0.095,0.061	c-0.061,0.038-0.199,0.112-0.284,0.112c-0.023,0-0.087,0-0.125-0.051c-0.041-0.049-0.028-0.112-0.013-0.171	c0.043-0.174,0.092-0.25,0.232-0.375c0.12-0.107,0.217-0.123,0.544-0.143c0.345-0.02,0.36-0.033,0.439-0.107l0.087-0.084	l-0.013-0.529c-0.015-0.659-0.036-0.715-0.429-1.218c-0.37-0.467-0.508-0.756-0.508-1.055v-0.317l0.383,0.036	c0.45,0.038,0.789,0.212,1.137,0.582c0.14,0.148,0.355,0.342,0.473,0.419l0.301,0.207l-0.186,0.232	c-0.163,0.207-0.102,0.324-0.028,0.406c0.061,0.066,0.079,0.082,0.227,0.079c0.117-0.003,0.194,0,0.243,0.049	c0.043,0.043,0.043,0.1,0.043,0.123c0,0.112-0.212,0.368-0.253,0.419c-0.301,0.355-0.324,0.478-0.245,0.715	c0.112,0.342,0.089,0.608-0.066,0.728C32.036,29.86,31.975,29.893,31.885,29.893z M31.428,29.48l0.225,0.146	c0.138,0.087,0.25,0.11,0.309,0.061c0.066-0.051,0.107-0.22,0.008-0.526c-0.105-0.314-0.046-0.506,0.276-0.889	c0.11-0.13,0.181-0.243,0.204-0.291c-0.031-0.003-0.077,0-0.095,0c-0.176,0.003-0.253-0.015-0.365-0.14	c-0.097-0.107-0.225-0.332,0.02-0.641l0.064-0.079l-0.14-0.095c-0.125-0.087-0.35-0.286-0.501-0.447	c-0.314-0.332-0.618-0.49-1.022-0.526l-0.184-0.015v0.117c0,0.253,0.125,0.508,0.467,0.942c0.416,0.531,0.452,0.631,0.47,1.326	l0.015,0.61l-0.148,0.138c-0.13,0.125-0.204,0.138-0.552,0.158c-0.319,0.018-0.363,0.036-0.437,0.097	c-0.11,0.097-0.138,0.143-0.171,0.271c0.036-0.015,0.089-0.038,0.143-0.074l0.049,0.077l-0.049-0.077l0.215-0.138l0.156,0.148	c0.1,0.095,0.204,0.092,0.301-0.005c0.123-0.125,0.158-0.123,0.186-0.117l0.043,0.005l0.026,0.038	c0.005,0.008,0.033,0.054,0.059,0.097c0.015,0.026,0.064,0.043,0.148,0.049c0.12,0.008,0.125,0,0.161-0.049L31.428,29.48z"/><path fill="#ffbe29" d="M21.35,28.226c0.036-0.049,0.066-0.128,0.066-0.176c0-0.072,0.031-0.092,0.189-0.112l0.192-0.028	l-0.125-0.102c-0.153-0.12-0.166-0.215-0.033-0.215s0.358-0.138,0.391-0.238c0.015-0.049,0.005-0.112-0.023-0.143	c-0.074-0.087-0.215-0.074-0.24,0.02c-0.028,0.102-0.074,0.102-0.181,0.003c-0.158-0.151-0.161-0.462-0.005-0.646	c0.072-0.084,0.072-0.092-0.023-0.179c-0.1-0.097-0.171-0.284-0.123-0.329c0.013-0.013,0.092-0.003,0.176,0.026	c0.115,0.041,0.161,0.041,0.209,0.003c0.146-0.115-0.013-0.261-0.245-0.227c-0.094,0.013-0.133,0-0.146-0.049	c-0.01-0.038-0.092-0.087-0.186-0.11c-0.163-0.041-0.166-0.041-0.166,0.074c0,0.125-0.072,0.148-0.207,0.066	c-0.11-0.064-0.217-0.013-0.217,0.102c0,0.11,0.11,0.163,0.306,0.151c0.153-0.008,0.158,0.105,0.015,0.266l-0.105,0.115l0.082,0.117	c0.123,0.176,0.112,0.465-0.02,0.608l-0.105,0.112l-0.069-0.092c-0.094-0.125-0.222-0.115-0.258,0.018	c-0.023,0.087-0.005,0.128,0.105,0.22c0.074,0.064,0.181,0.115,0.24,0.115c0.143,0,0.138,0.112-0.01,0.225l-0.117,0.089l0.179,0.028	c0.1,0.015,0.181,0.046,0.181,0.064c0,0.077,0.125,0.317,0.163,0.317C21.265,28.315,21.311,28.274,21.35,28.226z"/><path fill="#880e4f" d="M21.242,28.404c-0.112,0-0.217-0.235-0.248-0.352c-0.023-0.008-0.059-0.018-0.112-0.026l-0.391-0.061	l0.286-0.22c0.033-0.026,0.054-0.046,0.066-0.064c-0.092,0-0.217-0.066-0.296-0.133c-0.12-0.102-0.171-0.176-0.135-0.314	c0.023-0.092,0.084-0.153,0.163-0.169c0.089-0.018,0.186,0.028,0.255,0.12l0.003,0.003l0.031-0.031	c0.102-0.112,0.11-0.358,0.013-0.493l-0.123-0.176l0.151-0.171c0.051-0.056,0.069-0.092,0.077-0.112c-0.005,0-0.01,0-0.015,0	c-0.156,0.01-0.268-0.018-0.337-0.082c-0.043-0.041-0.066-0.095-0.066-0.158c0-0.087,0.038-0.156,0.105-0.197	c0.072-0.041,0.166-0.036,0.248,0.015c0.033,0.018,0.056,0.028,0.069,0.031c0-0.005,0-0.013,0-0.02c0-0.066,0-0.125,0.051-0.163	c0.054-0.043,0.112-0.028,0.23,0.003c0.033,0.008,0.204,0.056,0.245,0.158c0.01,0,0.026,0,0.051-0.003	c0.179-0.026,0.34,0.038,0.391,0.153c0.033,0.082,0.005,0.171-0.077,0.235c-0.095,0.074-0.189,0.049-0.296,0.013	c-0.023-0.008-0.043-0.013-0.061-0.018c0.015,0.051,0.051,0.123,0.102,0.169c0.117,0.112,0.138,0.174,0.026,0.304	c-0.123,0.146-0.123,0.404,0.003,0.521c0.013,0.013,0.023,0.023,0.033,0.031c0.023-0.066,0.077-0.112,0.146-0.13	c0.089-0.02,0.186,0.013,0.248,0.082c0.049,0.056,0.066,0.156,0.041,0.232c-0.049,0.14-0.291,0.284-0.45,0.301	c0.013,0.015,0.033,0.033,0.059,0.054l0.294,0.232l-0.401,0.056c-0.066,0.01-0.097,0.018-0.112,0.023c0,0,0,0,0,0.003	c0,0.077-0.041,0.174-0.084,0.23C21.401,28.31,21.322,28.404,21.242,28.404z M20.936,27.85c0.204,0.036,0.232,0.1,0.232,0.151	c0,0.033,0.049,0.135,0.087,0.197c0.008-0.008,0.013-0.015,0.02-0.026c0.028-0.038,0.049-0.1,0.049-0.123	c0-0.158,0.13-0.184,0.253-0.202c-0.102-0.089-0.14-0.171-0.115-0.245c0.013-0.038,0.054-0.1,0.176-0.1	c0.105,0,0.286-0.123,0.304-0.179c0.008-0.018,0.003-0.046-0.005-0.054c-0.018-0.023-0.049-0.028-0.066-0.023	c-0.015,0.003-0.015,0.008-0.018,0.01c-0.008,0.028-0.031,0.115-0.112,0.138c-0.079,0.023-0.151-0.033-0.217-0.095	c-0.194-0.184-0.202-0.552-0.013-0.771c0.003-0.005,0.01-0.013,0.018-0.023c-0.01-0.01-0.026-0.023-0.033-0.031	c-0.092-0.089-0.169-0.245-0.169-0.35c0-0.059,0.023-0.092,0.043-0.112c0.018-0.015,0.066-0.061,0.268,0.005	c0.102,0.036,0.115,0.028,0.125,0.018c0.02-0.015,0.023-0.023,0.023-0.023c-0.005-0.015-0.077-0.061-0.199-0.046	c-0.049,0.008-0.199,0.028-0.243-0.102c-0.015-0.013-0.061-0.041-0.123-0.056c-0.018-0.005-0.038-0.008-0.054-0.013	c-0.003,0.11-0.049,0.161-0.087,0.184c-0.1,0.054-0.22-0.015-0.258-0.041c-0.033-0.018-0.056-0.018-0.066-0.01	c-0.01,0.005-0.013,0.026-0.013,0.036c0,0.015,0.003,0.02,0.01,0.028c0.01,0.01,0.056,0.041,0.199,0.033	c0.13-0.01,0.181,0.051,0.199,0.089c0.028,0.059,0.033,0.163-0.112,0.324l-0.056,0.064l0.043,0.059	c0.143,0.209,0.13,0.544-0.031,0.72l-0.179,0.192l-0.133-0.176c-0.031-0.043-0.064-0.056-0.074-0.054	c-0.01,0.003-0.018,0.018-0.023,0.038c-0.013,0.043-0.015,0.054,0.077,0.128c0.066,0.059,0.153,0.095,0.179,0.095	c0.135,0,0.176,0.077,0.186,0.107C21.056,27.684,21.023,27.771,20.936,27.85z M20.984,28.001c0,0.003,0,0.008,0.003,0.01	C20.984,28.006,20.984,28.003,20.984,28.001z"/><path fill="#ffbe29" d="M23.692,27.209c0.163-0.064,0.518-0.363,0.518-0.437c0-0.023-0.1-0.13-0.217-0.24	c-0.253-0.227-0.526-0.608-0.595-0.833c-0.038-0.117-0.217-0.317-0.718-0.805l-0.669-0.649l-0.194,0.051	c-0.105,0.026-0.235,0.049-0.286,0.049c-0.089,0.003-0.089,0.008,0.031,0.1l0.125,0.097l0.179-0.097	c0.171-0.095,0.176-0.097,0.197-0.02c0.013,0.046-0.015,0.123-0.061,0.179c-0.046,0.056-0.072,0.12-0.059,0.14	c0.015,0.02-0.031,0.066-0.097,0.1c-0.125,0.061-0.212,0.263-0.115,0.263c0.089,0,0.286-0.243,0.263-0.324	c-0.01-0.041-0.005-0.084,0.013-0.095c0.077-0.046,0.072,0.146-0.005,0.238c-0.046,0.056-0.072,0.12-0.059,0.14	s-0.031,0.066-0.097,0.1c-0.125,0.061-0.215,0.263-0.115,0.263c0.095,0,0.289-0.23,0.266-0.317c-0.013-0.046-0.008-0.092,0.01-0.102	c0.051-0.031,0.079,0.12,0.036,0.192c-0.023,0.041-0.023,0.095,0,0.138c0.043,0.077,0,0.225-0.079,0.271	c-0.033,0.02-0.01,0.059,0.072,0.12c0.117,0.089,0.12,0.1,0.12,0.496c0,0.332,0.013,0.416,0.074,0.473	c0.069,0.066,0.074,0.066,0.074,0.003c0-0.066,0.12-0.148,0.217-0.148c0.028,0,0.207,0.151,0.396,0.337	c0.192,0.186,0.393,0.345,0.45,0.355c0.056,0.01,0.115,0.02,0.135,0.023C23.518,27.27,23.605,27.245,23.692,27.209z"/><path fill="#880e4f" d="M23.503,27.357c-0.008,0-0.013,0-0.015-0.003c-0.018-0.003-0.082-0.013-0.138-0.023	c-0.125-0.023-0.457-0.342-0.496-0.381c-0.169-0.166-0.304-0.278-0.35-0.309c-0.049,0.008-0.1,0.043-0.11,0.064	c0,0.036-0.003,0.097-0.061,0.123c-0.066,0.028-0.115-0.018-0.166-0.066c-0.087-0.084-0.102-0.197-0.102-0.539	c0-0.358,0-0.358-0.084-0.421c-0.066-0.051-0.128-0.107-0.123-0.179c0.003-0.038,0.023-0.072,0.061-0.095s0.061-0.117,0.043-0.148	c0-0.003,0-0.003,0-0.003c-0.054,0.056-0.143,0.14-0.232,0.14c-0.064,0-0.115-0.041-0.128-0.102	c-0.018-0.066,0.018-0.156,0.077-0.23c-0.038-0.015-0.069-0.046-0.077-0.089c-0.026-0.107,0.074-0.273,0.202-0.337	c0.02-0.008,0.033-0.018,0.043-0.026c-0.003-0.077,0.059-0.161,0.082-0.189c0.015-0.015,0.026-0.036,0.033-0.051	c-0.018,0.01-0.038,0.02-0.054,0.031l-0.23,0.125l-0.174-0.133c-0.095-0.074-0.148-0.115-0.125-0.189	c0.026-0.072,0.097-0.072,0.148-0.072c0.041-0.003,0.158-0.02,0.266-0.049l0.243-0.061l0.705,0.685	c0.526,0.508,0.697,0.705,0.741,0.84c0.066,0.207,0.332,0.58,0.57,0.794c0.248,0.222,0.248,0.278,0.248,0.306	c0,0.146-0.427,0.462-0.575,0.521C23.62,27.337,23.544,27.357,23.503,27.357z M23.385,27.153c0.046,0.01,0.097,0.018,0.12,0.023	c0.02-0.005,0.079-0.02,0.153-0.051c0.125-0.049,0.378-0.261,0.447-0.347c-0.028-0.036-0.087-0.1-0.174-0.176	c-0.266-0.24-0.544-0.633-0.621-0.874c-0.036-0.112-0.291-0.375-0.695-0.766l-0.467-0.452c-0.008,0.038-0.026,0.077-0.046,0.107	c0.005,0.005,0.01,0.01,0.013,0.013c0.061,0.072,0.041,0.217-0.018,0.314c0.003,0.003,0.003,0.003,0.005,0.005	c0.061,0.061,0.072,0.209,0.018,0.299c-0.005,0.01-0.005,0.028,0.003,0.046c0.056,0.1,0.026,0.255-0.056,0.345	c0.008,0.008,0.015,0.013,0.023,0.018c0.158,0.12,0.158,0.171,0.158,0.567c0,0.192,0.003,0.296,0.018,0.352	c0.061-0.069,0.163-0.117,0.255-0.117c0.026,0,0.087,0,0.46,0.363C23.176,27.012,23.342,27.137,23.385,27.153z M21.677,24.42	l0.018,0.015l0.051-0.031C21.723,24.41,21.7,24.415,21.677,24.42z"/><path fill="#ffbe29" d="M21.648,25.61c0-0.107-0.22-0.22-0.483-0.25c-0.212-0.023-0.217-0.02-0.217,0.084	c0,0.087,0.033,0.123,0.181,0.186C21.365,25.733,21.648,25.722,21.648,25.61z"/><path fill="#880e4f" d="M21.452,25.791c-0.11,0-0.24-0.026-0.36-0.077c-0.135-0.061-0.232-0.115-0.232-0.271	c0-0.051,0-0.11,0.046-0.151c0.051-0.046,0.12-0.041,0.271-0.023c0.278,0.031,0.562,0.158,0.562,0.34	c0,0.054-0.026,0.102-0.074,0.133C21.613,25.776,21.539,25.791,21.452,25.791z M21.041,25.439c0,0.003,0,0.005,0,0.005	c0,0.036,0,0.049,0.125,0.102c0.166,0.074,0.329,0.072,0.383,0.054c-0.033-0.043-0.166-0.123-0.393-0.148	C21.115,25.447,21.071,25.442,21.041,25.439z"/><path fill="#ffbe29" d="M21.889,25.6c0.107-0.097,0.158-0.212,0.094-0.212c-0.074,0-0.273,0.176-0.273,0.243	C21.712,25.735,21.748,25.73,21.889,25.6z"/><path fill="#880e4f" d="M21.74,25.794c-0.015,0-0.031-0.003-0.046-0.01c-0.074-0.033-0.074-0.12-0.074-0.153	c0-0.125,0.245-0.335,0.363-0.335c0.051,0,0.092,0.028,0.11,0.074c0.046,0.117-0.112,0.268-0.143,0.299	C21.871,25.74,21.804,25.794,21.74,25.794z"/><path fill="#ffbe29" d="M21.661,25.286c0.008-0.061-0.028-0.1-0.14-0.151c-0.24-0.107-0.529-0.158-0.598-0.105	c-0.128,0.1-0.041,0.235,0.163,0.261c0.084,0.008,0.197,0.033,0.25,0.056C21.495,25.408,21.646,25.38,21.661,25.286z"/><path fill="#880e4f" d="M21.498,25.47c-0.061,0-0.128-0.013-0.194-0.038c-0.046-0.018-0.153-0.043-0.227-0.051	c-0.153-0.018-0.268-0.095-0.296-0.197c-0.023-0.079,0.008-0.163,0.087-0.225c0.13-0.1,0.493,0.005,0.692,0.095	c0.069,0.031,0.215,0.095,0.192,0.245c-0.008,0.056-0.041,0.105-0.095,0.133C21.613,25.457,21.559,25.47,21.498,25.47z M20.977,25.104c-0.018,0.013-0.023,0.026-0.023,0.031c0.005,0.015,0.049,0.054,0.146,0.064c0.089,0.01,0.209,0.038,0.271,0.061	c0.11,0.043,0.189,0.026,0.202,0.01v-0.003c0,0.003-0.01-0.015-0.087-0.051C21.25,25.112,21.025,25.084,20.977,25.104z"/><path fill="#ffbe29" d="M21.661,24.964c0.013-0.087-0.043-0.117-0.49-0.276c-0.335-0.117-0.483-0.061-0.375,0.143	c0.038,0.069,0.1,0.102,0.24,0.123c0.105,0.015,0.245,0.046,0.317,0.069C21.539,25.081,21.646,25.058,21.661,24.964z"/><path fill="#880e4f" d="M21.526,25.145c-0.056,0-0.123-0.013-0.202-0.036c-0.066-0.02-0.204-0.051-0.301-0.066	c-0.143-0.02-0.248-0.059-0.309-0.171c-0.072-0.14-0.041-0.222-0.003-0.268c0.077-0.089,0.238-0.089,0.49,0	c0.442,0.156,0.575,0.202,0.549,0.373c-0.008,0.059-0.038,0.105-0.084,0.133C21.628,25.132,21.582,25.145,21.526,25.145z M20.852,24.724c0.003,0.01,0.008,0.031,0.023,0.064c0.018,0.031,0.041,0.056,0.174,0.077c0.11,0.018,0.255,0.049,0.329,0.072	c0.153,0.046,0.192,0.02,0.192,0.02s0-0.003,0.003-0.005c-0.043-0.038-0.276-0.12-0.432-0.176	C20.946,24.706,20.872,24.719,20.852,24.724z"/><path fill="#ffbe29" d="M21.883,24.663c0.069-0.069,0.125-0.151,0.125-0.181c0-0.097-0.268,0.077-0.301,0.197	C21.666,24.823,21.733,24.816,21.883,24.663z"/><path fill="#880e4f" d="M21.72,24.875c-0.02,0-0.038-0.005-0.059-0.015c-0.087-0.051-0.054-0.166-0.043-0.207	c0.038-0.135,0.261-0.306,0.378-0.289c0.061,0.008,0.102,0.056,0.102,0.117c0,0.087-0.115,0.209-0.148,0.245	C21.863,24.813,21.786,24.875,21.72,24.875z"/><path fill="#ffbe29" d="M21.661,24.642c0.015-0.097-0.148-0.186-0.467-0.255c-0.235-0.049-0.34-0.02-0.322,0.089	c0.01,0.059,0.087,0.102,0.309,0.171C21.536,24.757,21.643,24.757,21.661,24.642z"/><path fill="#880e4f" d="M21.546,24.821c-0.084,0-0.204-0.028-0.391-0.087c-0.238-0.074-0.355-0.13-0.373-0.245	c-0.013-0.082,0.018-0.133,0.049-0.161c0.064-0.061,0.181-0.072,0.381-0.031c0.245,0.054,0.57,0.146,0.536,0.358	c-0.008,0.061-0.036,0.105-0.082,0.133C21.636,24.811,21.597,24.821,21.546,24.821z M20.964,24.458	c0.013,0.015,0.066,0.046,0.245,0.102c0.258,0.082,0.335,0.084,0.36,0.077c0-0.003,0-0.005,0-0.005	c-0.005-0.01-0.061-0.084-0.396-0.156C21.038,24.448,20.982,24.453,20.964,24.458z"/><path fill="#ffbe29" d="M21.973,24.187c0.409-0.184,0.444-0.644,0.059-0.764c-0.161-0.049-0.263-0.023-0.324,0.087	c-0.046,0.082-0.015,0.235,0.049,0.235c0.02,0,0.038,0.028,0.038,0.061c0,0.158-0.623,0.232-0.881,0.102	c-0.089-0.046-0.128-0.163-0.054-0.163c0.056,0,0.095-0.123,0.066-0.207c-0.038-0.117-0.156-0.158-0.327-0.112	c-0.383,0.1-0.373,0.552,0.018,0.743C20.938,24.325,21.641,24.336,21.973,24.187z"/><path fill="#880e4f" d="M21.327,24.382c-0.284,0-0.57-0.043-0.748-0.133c-0.232-0.112-0.37-0.324-0.35-0.536	c0.018-0.184,0.148-0.322,0.347-0.375c0.217-0.056,0.381,0.008,0.437,0.171c0.028,0.084,0.013,0.194-0.036,0.261	c-0.013,0.018-0.028,0.033-0.043,0.043c0.008,0.005,0.013,0.01,0.023,0.015c0.199,0.102,0.616,0.051,0.728-0.015	c-0.02-0.013-0.038-0.031-0.054-0.056c-0.041-0.072-0.054-0.199-0.003-0.291c0.084-0.148,0.23-0.192,0.432-0.128	c0.197,0.061,0.322,0.209,0.332,0.393c0.013,0.22-0.138,0.429-0.381,0.539C21.84,24.346,21.585,24.382,21.327,24.382z M20.724,23.498c-0.033,0-0.069,0.008-0.102,0.015c-0.125,0.033-0.202,0.112-0.212,0.217c-0.013,0.135,0.084,0.276,0.248,0.355	c0.299,0.148,0.968,0.156,1.277,0.018c0.176-0.077,0.284-0.22,0.276-0.363c-0.008-0.107-0.082-0.192-0.207-0.23	c-0.163-0.051-0.197,0.008-0.217,0.043c-0.015,0.028-0.013,0.079-0.003,0.102c0.059,0.013,0.102,0.074,0.102,0.148	c0,0.043-0.018,0.107-0.102,0.158c-0.186,0.115-0.669,0.148-0.912,0.026c-0.095-0.049-0.158-0.156-0.138-0.24	c0.01-0.051,0.049-0.084,0.1-0.095c0.01-0.018,0.015-0.059,0.005-0.087C20.823,23.516,20.775,23.498,20.724,23.498z"/><path fill="#ffbe29" d="M21.717,23.832c0.023-0.02,0.015-0.056-0.026-0.087c-0.087-0.069-0.082-0.171,0.013-0.286	c0.072-0.089,0.082-0.22,0.105-1.54c0.043-2.276,0.212-3.987,0.437-4.398c0.087-0.163,0.074-0.163-0.153-0.008	c-0.296,0.202-0.521,0.462-0.72,0.838c-0.378,0.71-0.508,1.66-0.508,3.693c0,1.154,0.008,1.305,0.074,1.415	c0.064,0.102,0.066,0.14,0.02,0.25c-0.028,0.072-0.041,0.14-0.028,0.151C21.015,23.94,21.628,23.919,21.717,23.832z"/><path fill="#880e4f" d="M21.263,24.001c-0.176,0-0.34-0.023-0.393-0.074c-0.02-0.018-0.069-0.064,0.005-0.25	c0.033-0.084,0.033-0.092-0.015-0.171c-0.077-0.13-0.087-0.266-0.087-1.461c0-2.038,0.135-3.016,0.518-3.737	c0.204-0.386,0.444-0.662,0.748-0.868c0.181-0.123,0.248-0.169,0.314-0.107c0.066,0.059,0.023,0.135-0.028,0.232	c-0.215,0.398-0.383,2.107-0.424,4.357c-0.026,1.379-0.033,1.484-0.128,1.594c-0.036,0.046-0.056,0.089-0.054,0.117	c0.003,0.01,0.005,0.026,0.028,0.041c0.056,0.046,0.072,0.095,0.072,0.128c0.003,0.02-0.003,0.041-0.01,0.061v0.01l-0.028,0.028	C21.71,23.965,21.477,24.001,21.263,24.001z M21.025,23.804c0.12,0.028,0.439,0.018,0.577-0.018	c-0.036-0.038-0.056-0.084-0.061-0.135c-0.01-0.079,0.023-0.163,0.092-0.25c0.054-0.066,0.064-0.322,0.087-1.484	c0.038-2.115,0.186-3.721,0.388-4.304c-0.268,0.189-0.473,0.432-0.656,0.779c-0.368,0.69-0.498,1.645-0.498,3.652	c0,1.101,0.01,1.28,0.061,1.366c0.077,0.128,0.084,0.194,0.028,0.332C21.035,23.766,21.028,23.786,21.025,23.804z"/><path fill="#ffbe29" d="M25.158,21.664c0.013-0.02-0.015-0.12-0.061-0.222c-0.074-0.156-0.105-0.184-0.209-0.184	c-0.332,0-0.861-0.148-1.41-0.391c-0.314-0.14-0.424-0.174-0.462-0.138c-0.097,0.092,0.064,0.309,0.314,0.424	c0.22,0.1,0.838,0.225,1.119,0.225c0.163,0,0.169,0.008,0.074,0.143l-0.069,0.097l0.186,0.005c0.1,0.003,0.24,0.018,0.312,0.036	C25.132,21.702,25.132,21.702,25.158,21.664z"/><path fill="#880e4f" d="M25.12,21.781c-0.046,0-0.105-0.013-0.192-0.036c-0.064-0.015-0.197-0.031-0.294-0.031l-0.352-0.01	l0.163-0.235c-0.296,0-0.922-0.128-1.157-0.235c-0.207-0.095-0.368-0.261-0.391-0.401c-0.01-0.066,0.008-0.128,0.054-0.171	c0.082-0.077,0.199-0.041,0.562,0.12c0.531,0.238,1.057,0.386,1.374,0.386c0.161,0,0.215,0.074,0.291,0.238	c0.107,0.23,0.069,0.286,0.056,0.306C25.201,21.764,25.171,21.781,25.12,21.781z M24.624,21.534h0.015	c0.11,0.003,0.255,0.018,0.332,0.038c0.031,0.008,0.061,0.015,0.084,0.02c-0.008-0.031-0.023-0.069-0.043-0.11	c-0.061-0.133-0.066-0.133-0.125-0.133c-0.074,0-0.156-0.008-0.245-0.02c0.008,0.008,0.013,0.018,0.018,0.028	C24.69,21.414,24.665,21.467,24.624,21.534z M23.076,20.808c0.01,0.049,0.1,0.174,0.289,0.261c0.202,0.092,0.776,0.209,1.055,0.217	c-0.291-0.066-0.631-0.181-0.978-0.337C23.367,20.916,23.158,20.824,23.076,20.808z"/><path d="M27.086,22.688c0-0.059-0.171-0.217-0.347-0.319c-0.135-0.082-0.158-0.084-0.158-0.018c-0.003,0.1-0.092,0.352-0.125,0.352	c-0.02,0-0.049-0.051-0.064-0.11c-0.018-0.061-0.084-0.179-0.148-0.263l-0.12-0.153l-0.092,0.143	c-0.087,0.133-0.238,0.261-0.304,0.261c-0.015,0-0.018-0.069-0.008-0.153c0.015-0.095,0.005-0.166-0.026-0.184	c-0.026-0.015-0.046-0.01-0.046,0.013c0,0.049-0.207,0.286-0.253,0.286c-0.018,0-0.043-0.069-0.056-0.151	c-0.013-0.082-0.033-0.215-0.049-0.291c-0.013-0.077,0.015-0.026,0.066,0.117l0.089,0.255l0.102-0.156	c0.054-0.087,0.1-0.181,0.1-0.209s0.018-0.041,0.041-0.028c0.023,0.013,0.054,0.117,0.069,0.23l0.031,0.207l0.11-0.123	c0.059-0.064,0.13-0.153,0.156-0.197c0.046-0.074,0.049-0.074,0.143,0.003c0.051,0.046,0.133,0.151,0.176,0.235	c0.046,0.087,0.089,0.148,0.097,0.14c0.008-0.008,0.026-0.095,0.038-0.194c0.013-0.1,0.026-0.184,0.026-0.186	c0.005-0.026,0.332,0.186,0.452,0.294c0.077,0.066,0.151,0.115,0.163,0.102c0.01-0.013,0.02-0.112,0.02-0.225	c0-0.174-0.018-0.222-0.123-0.317c-0.123-0.107-0.128-0.11-0.171-0.028c-0.059,0.102-0.128,0.105-0.128,0.003	c0-0.077-0.232-0.363-0.291-0.363c-0.015,0-0.064,0.064-0.107,0.14c-0.043,0.077-0.092,0.14-0.105,0.14	c-0.061-0.003-0.386-0.365-0.386-0.429c0-0.054,0.023-0.041,0.079,0.049c0.043,0.064,0.13,0.163,0.194,0.22	c0.125,0.11,0.171,0.082,0.22-0.13c0.015-0.061,0.038-0.11,0.054-0.11c0.056,0,0.34,0.299,0.378,0.401l0.041,0.1l0.031-0.112	c0.036-0.133,0.077-0.138,0.135-0.015c0.026,0.051,0.148,0.158,0.273,0.238l0.225,0.143l0.046-0.146	c0.026-0.079,0.059-0.125,0.074-0.102c0.023,0.036-0.036,0.276-0.082,0.327c-0.005,0.008-0.079-0.036-0.161-0.095l-0.153-0.11v0.197	c0,0.107-0.01,0.235-0.026,0.286C27.16,22.747,27.086,22.775,27.086,22.688z"/><path d="M27.117,22.831c-0.005,0-0.01,0-0.015,0c-0.046-0.008-0.1-0.046-0.105-0.133c-0.02-0.041-0.146-0.158-0.304-0.253	c-0.013-0.008-0.023-0.013-0.033-0.02c-0.023,0.128-0.087,0.368-0.204,0.368c-0.095,0-0.138-0.125-0.153-0.176	c-0.01-0.043-0.069-0.151-0.13-0.23l-0.043-0.054l-0.023,0.036c-0.069,0.107-0.215,0.261-0.332,0.296l-0.049,0.054l-0.008-0.049	c-0.023-0.003-0.046-0.013-0.064-0.033c-0.013-0.013-0.041-0.049-0.028-0.181c-0.005,0.008-0.013,0.013-0.018,0.02	c-0.061,0.072-0.105,0.107-0.138,0.13l-0.046,0.072l-0.015-0.046c-0.005,0-0.01,0-0.013,0c-0.046,0-0.115-0.023-0.146-0.227	c-0.013-0.082-0.036-0.212-0.049-0.289c-0.018-0.097,0.026-0.128,0.064-0.138c0.095-0.026,0.125,0.061,0.176,0.209l0.028,0.082	c0.051-0.077,0.082-0.146,0.087-0.166c0.003-0.046,0.023-0.084,0.059-0.105c0.036-0.02,0.079-0.02,0.12,0.003	c0.051,0.031,0.089,0.13,0.112,0.296l0.003,0.013c0.054-0.061,0.11-0.133,0.128-0.161c0.026-0.043,0.054-0.089,0.112-0.097	c0,0,0.003,0,0.005,0l0.02-0.031l0.026,0.033c0.036,0.01,0.069,0.038,0.112,0.077c0.049,0.041,0.117,0.125,0.166,0.204	c0.02-0.153,0.023-0.161,0.026-0.166l0.013-0.051l0.049-0.015c0.041-0.013,0.072-0.013,0.268,0.117	c0.01,0.005,0.018,0.01,0.028,0.018l-0.02-0.051c-0.01,0-0.02,0-0.028-0.003c-0.023-0.008-0.097-0.036-0.1-0.158	c-0.013-0.049-0.12-0.186-0.186-0.25c-0.013,0.018-0.028,0.041-0.043,0.069c-0.105,0.186-0.151,0.186-0.184,0.186	c-0.031,0-0.084-0.003-0.281-0.222c-0.194-0.215-0.194-0.273-0.194-0.299c0-0.084,0.046-0.11,0.074-0.117	c0.079-0.023,0.13,0.054,0.171,0.115c0.041,0.061,0.12,0.153,0.176,0.202c0.018,0.015,0.031,0.026,0.041,0.031	c0.008-0.018,0.02-0.051,0.033-0.112c0.028-0.12,0.077-0.181,0.143-0.181c0.095,0,0.294,0.22,0.398,0.36	c0.02-0.038,0.054-0.069,0.102-0.074c0.095-0.008,0.146,0.097,0.166,0.14c0.013,0.026,0.107,0.115,0.238,0.199l0.125,0.082	l0.01-0.033c0.046-0.143,0.1-0.166,0.138-0.171c0.038-0.005,0.077,0.013,0.1,0.049c0.059,0.087-0.036,0.375-0.087,0.434	c-0.064,0.072-0.151,0.018-0.286-0.079l-0.008-0.005v0.018c0,0.102-0.01,0.243-0.028,0.309	C27.247,22.772,27.186,22.831,27.117,22.831z M26.997,22.688v0.003C26.997,22.691,26.997,22.691,26.997,22.688z M26.856,22.272	c0.069,0.049,0.143,0.102,0.192,0.146c0.01,0.01,0.023,0.02,0.033,0.028c0-0.026,0-0.051,0-0.082c0-0.153-0.01-0.174-0.092-0.248	c-0.013-0.01-0.028-0.026-0.043-0.036c-0.018,0.028-0.036,0.051-0.056,0.066L26.856,22.272z"/><path d="M25.96,21.133c-0.271-0.225-0.312-0.276-0.304-0.383l0.005-0.112l0.018,0.11c0.01,0.064,0.082,0.158,0.171,0.23l0.156,0.12	l0.095-0.11c0.054-0.061,0.097-0.133,0.097-0.161c0.003-0.072,0.015-0.066,0.197,0.092c0.163,0.14,0.166,0.143,0.189,0.051	c0.013-0.051,0.008-0.146-0.01-0.212c-0.054-0.181-0.043-0.209,0.038-0.1c0.038,0.054,0.102,0.13,0.14,0.171	c0.069,0.069,0.072,0.069,0.097-0.02c0.015-0.051,0.026-0.143,0.028-0.207v-0.112l0.146,0.166c0.135,0.153,0.148,0.158,0.189,0.087	c0.026-0.043,0.046-0.148,0.046-0.232c0-0.11,0.013-0.138,0.041-0.095c0.046,0.069,0.013,0.255-0.072,0.416l-0.061,0.115	l-0.082-0.125c-0.102-0.158-0.135-0.156-0.202,0.015c-0.061,0.163-0.102,0.176-0.163,0.051c-0.041-0.082-0.046-0.072-0.074,0.1	l-0.031,0.189l-0.186-0.143l-0.186-0.146l-0.084,0.095c-0.043,0.054-0.084,0.12-0.084,0.146	C26.072,21.189,26.026,21.189,25.96,21.133z"/><path d="M26.678,21.342l-0.424-0.329l-0.026,0.031c-0.033,0.038-0.059,0.079-0.064,0.095c-0.005,0.077-0.054,0.107-0.074,0.115	c-0.054,0.026-0.12,0.008-0.189-0.051l0.036-0.043l-0.036,0.043c-0.258-0.215-0.345-0.296-0.337-0.457l0.008-0.112l0.179-0.01	l0.018,0.11c0.005,0.031,0.056,0.107,0.138,0.174l0.087,0.066l0.038-0.043c0.043-0.049,0.069-0.095,0.074-0.112	c0.003-0.031,0.01-0.089,0.066-0.115c0.074-0.031,0.123,0.01,0.284,0.151c0.015,0.013,0.031,0.026,0.046,0.038	c-0.003-0.036-0.005-0.077-0.015-0.107c-0.038-0.128-0.066-0.227,0.02-0.271c0.082-0.041,0.14,0.043,0.179,0.092	c0.023,0.033,0.059,0.077,0.089,0.115c0.008-0.041,0.01-0.084,0.01-0.117l0.003-0.352l0.304,0.345	c0.015,0.018,0.036,0.043,0.056,0.064c0.01-0.038,0.02-0.095,0.02-0.148c0-0.082,0-0.176,0.082-0.199	c0.023-0.008,0.077-0.015,0.125,0.054c0.074,0.112,0.023,0.342-0.069,0.511l-0.133,0.253l-0.163-0.255	c-0.01-0.015-0.02-0.031-0.026-0.041c-0.005,0.01-0.01,0.023-0.015,0.038c-0.038,0.097-0.082,0.189-0.171,0.194	c-0.028,0-0.051-0.008-0.072-0.02L26.678,21.342z"/><path d="M28.353,20.295c-0.1-0.087-0.166-0.171-0.151-0.186c0.015-0.015,0.033-0.018,0.038-0.01c0.008,0.01,0.087,0.095,0.179,0.189	C28.631,20.502,28.588,20.507,28.353,20.295z"/><path fill="#880e4f" d="M28.164,20.149c0.003,0.003,0.005,0.005,0.008,0.008C28.167,20.152,28.167,20.149,28.164,20.149z M28.315,20.047c0.003,0.003,0.003,0.003,0.005,0.005C28.317,20.05,28.317,20.05,28.315,20.047z"/><path d="M25.163,19.965c-0.089-0.12-0.082-0.199,0.026-0.329c0.079-0.095,0.115-0.107,0.253-0.089	c0.087,0.01,0.276,0.089,0.419,0.171c0.166,0.097,0.337,0.163,0.47,0.179c0.112,0.013,0.207,0.018,0.207,0.01	c0-0.005-0.049-0.084-0.105-0.171c-0.138-0.207-0.135-0.23,0.02-0.105c0.161,0.125,0.352,0.163,0.782,0.151l0.207-0.008l-0.12-0.117	c-0.169-0.169-0.117-0.184,0.072-0.02c0.174,0.151,0.163,0.163-0.207,0.199c-0.156,0.015-0.327,0.005-0.465-0.031	c-0.212-0.054-0.22-0.054-0.179,0.018c0.023,0.038,0.059,0.074,0.082,0.074s0.041,0.018,0.041,0.043c0,0.079-0.455,0.01-0.672-0.1	c-0.496-0.25-0.557-0.273-0.674-0.235c-0.066,0.02-0.133,0.082-0.153,0.14c-0.077,0.202,0.209,0.36,0.329,0.181	c0.033-0.051,0.026-0.087-0.036-0.151c-0.082-0.087-0.074-0.097,0.038-0.059c0.079,0.031,0.089,0.22,0.015,0.289	C25.429,20.088,25.237,20.065,25.163,19.965z"/><path d="M25.37,20.147c-0.01,0-0.023,0-0.036-0.003c-0.102-0.008-0.192-0.054-0.243-0.125c-0.115-0.156-0.107-0.278,0.028-0.442	c0.1-0.12,0.163-0.143,0.332-0.123c0.112,0.015,0.319,0.105,0.455,0.186c0.156,0.089,0.314,0.151,0.434,0.163	c0.01,0.003,0.02,0.003,0.031,0.005c-0.005-0.008-0.01-0.015-0.015-0.023c-0.1-0.151-0.153-0.232-0.082-0.299	c0.069-0.064,0.146,0,0.238,0.072c0.14,0.112,0.314,0.143,0.718,0.133c-0.072-0.074-0.143-0.158-0.077-0.23	c0.074-0.079,0.179,0,0.299,0.105c0.087,0.074,0.161,0.14,0.138,0.225l0.069,0.069l-0.125,0.003	c-0.059,0.036-0.163,0.046-0.337,0.064c-0.148,0.015-0.306,0.005-0.444-0.023c0.003,0.013,0.005,0.026,0.005,0.038	c0,0.038-0.02,0.074-0.056,0.097c-0.128,0.079-0.575-0.028-0.746-0.115c-0.135-0.069-0.238-0.12-0.314-0.156	c0.003,0.008,0.005,0.015,0.008,0.026c0.018,0.089,0.003,0.209-0.072,0.281C25.526,20.121,25.452,20.147,25.37,20.147z M25.314,19.707c-0.028,0.018-0.054,0.046-0.064,0.072c-0.031,0.077,0.046,0.117,0.054,0.123c0.018,0.008,0.077,0.033,0.115-0.026	c0,0,0.003-0.003,0.003-0.005c-0.003-0.005-0.01-0.015-0.026-0.033C25.36,19.805,25.316,19.756,25.314,19.707z"/><path d="M27.114,19.467c-0.061-0.059-0.013-0.074,0.266-0.079c0.342-0.005,0.552-0.064,0.797-0.22c0.199-0.123,0.25-0.1,0.064,0.031	c-0.171,0.117-0.437,0.207-0.695,0.235c-0.123,0.013-0.266,0.033-0.314,0.041C27.183,19.485,27.13,19.48,27.114,19.467z"/><path d="M27.178,19.572c-0.043,0-0.092-0.008-0.125-0.041c-0.061-0.056-0.059-0.107-0.046-0.138c0.033-0.087,0.13-0.092,0.37-0.095	c0.329-0.008,0.519-0.059,0.751-0.207c0.12-0.077,0.243-0.143,0.304-0.051c0.061,0.095-0.059,0.176-0.14,0.232	c-0.181,0.125-0.465,0.222-0.736,0.253c-0.12,0.013-0.263,0.031-0.309,0.038C27.234,19.567,27.209,19.572,27.178,19.572z"/><path fill="#880e4f" d="M25.232,29.888c-0.115,0-0.225-0.036-0.307-0.107l-0.038-0.036l-0.056,0.041	c-0.105,0.079-0.25,0.115-0.375,0.097c-0.089-0.013-0.161-0.054-0.207-0.112l-0.013-0.018l-0.072,0.041	c-0.158,0.092-0.25,0.112-0.319,0.074c-0.041-0.023-0.066-0.069-0.066-0.123c0-0.166,0.161-0.49,0.296-0.6	c0.143-0.112,0.207-0.12,0.582-0.115c0.337,0.003,0.396-0.01,0.498-0.069c0.304-0.179,0.404-0.424,0.112-1.28	c-0.056-0.161-0.102-0.309-0.143-0.442c-0.049,0.008-0.146-0.015-0.373-0.133c-0.184-0.097-0.383-0.222-0.534-0.335	c-0.741-0.559-1.111-1.343-0.991-2.105c0.128-0.828,0.593-1.489,1.374-1.964c0.421-0.255,0.439-0.365,0.414-0.424	c-0.015-0.043-0.036-0.069-0.054-0.074c-0.02-0.008-0.056,0.008-0.095,0.036c-0.054,0.036-0.089,0.089-0.095,0.107	c-0.018,0.115-0.089,0.138-0.12,0.143c-0.1,0.013-0.199-0.087-0.299-0.299c-0.01-0.023-0.02-0.043-0.028-0.061	c-0.02,0.092-0.061,0.146-0.128,0.161c-0.12,0.028-0.209-0.112-0.238-0.161c-0.013-0.02-0.033-0.054-0.049-0.072	c-0.013,0.005-0.028,0.013-0.038,0.018c-0.069,0.033-0.186,0.072-0.268,0.089l-0.324,0.064l0.174-0.319	c-0.082,0.02-0.212,0.041-0.319,0.051l-0.352,0.033l0.1-0.319c0.033-0.102,0.082-0.255,0.107-0.342	c0.028-0.087,0.061-0.179,0.143-0.217c0.084-0.041,0.181-0.008,0.281,0.031c0.194,0.077,0.718,0.179,0.919,0.179	c0.102,0,0.204,0,0.243,0.079c0.031,0.059,0,0.117-0.033,0.166c0.1-0.003,0.253,0.015,0.365,0.038	c0.13,0.026,0.186,0.028,0.212,0.026c-0.003-0.074-0.105-0.304-0.324-0.562c-0.125-0.143-0.255-0.317-0.314-0.416	c-0.008,0.031-0.013,0.056-0.013,0.066c0,0.02,0,0.084-0.056,0.115c-0.064,0.036-0.125-0.003-0.199-0.049	c-0.038-0.023-0.084-0.059-0.125-0.095l0.031,0.255l-0.291-0.161c-0.079-0.043-0.179-0.123-0.217-0.189	c-0.018-0.028-0.148-0.176-0.319-0.347c-0.031-0.031-0.306-0.312-0.337-0.447c-0.013-0.061-0.041-0.163-0.061-0.227	c-0.074-0.222-0.059-0.429,0.041-0.567c0.082-0.11,0.209-0.171,0.363-0.171c0.143,0,0.268,0.051,0.35,0.143	c0.074,0.087,0.105,0.202,0.089,0.327c-0.003,0.005-0.003,0.013-0.003,0.018c0.077-0.015,0.184-0.031,0.255-0.036	c0.125-0.013,0.268-0.046,0.314-0.069c0.087-0.041,0.255-0.064,0.37-0.064c0.23,0,0.37-0.061,0.48-0.209	c0.066-0.084,0.064-0.092,0.041-0.151l-0.089-0.222l0.365-0.038c0.345-0.038,0.508,0,0.697,0.163c0.117,0.1,0.158,0.089,0.158,0.089	c0.003,0,0.036-0.026,0.036-0.171c0-0.092,0-0.176,0.066-0.227c0.069-0.054,0.169-0.028,0.317,0.01	c0.115,0.031,0.263,0.125,0.386,0.248l0.1,0.097l0.028-0.056c0.049-0.089,0.077-0.169,0.077-0.186c0-0.049,0.018-0.087,0.051-0.112	c0.056-0.041,0.128-0.02,0.161-0.01c0.209,0.061,0.424,0.186,0.549,0.319c0.077,0.082,0.11,0.095,0.225,0.095	c0.11,0,0.148-0.01,0.261-0.115l0.347-0.329l-0.074,0.434c-0.038,0.222-0.125,0.386-0.309,0.585l-0.082,0.087l0.038,0.049	c0.189,0.243,0.207,0.442,0.186,1.111c-0.023,0.685-0.033,0.695-0.066,0.725c-0.028,0.026-0.059,0.031-0.089,0.02	c0,0.01,0,0.02,0,0.031c0,0.061,0.02,0.161,0.041,0.212c0.112,0.273,0.128,0.358,0.064,0.414c-0.026,0.023-0.072,0.038-0.125,0.008	c-0.036-0.02-0.072-0.041-0.107-0.064c0.005,0.023,0.008,0.049,0.01,0.077c0.01,0.095,0.051,0.217,0.097,0.276l0.186,0.25	l0.932,0.023c0.853,0.02,1.027,0.015,1.313-0.043c0.276-0.059,0.518-0.072,1.188-0.066c0.764,0.01,0.84,0.003,1.17-0.087	c0.455-0.125,0.557-0.181,0.674-0.314c0.135-0.153,0.189-0.335,0.153-0.503c-0.038-0.161-0.158-0.294-0.337-0.368	c-0.217-0.092-0.746-0.095-1.177-0.008c-0.948,0.192-1.842,0.176-2.391-0.043c-0.49-0.197-0.549-0.207-0.623-0.181	c-0.089,0.033-0.138,0.115-0.148,0.245c-0.003,0.051-0.013,0.204-0.125,0.204c-0.033,0-0.072,0-0.209-0.189	c-0.163-0.222-0.174-0.521-0.031-0.746l0.049-0.074l-0.082-0.1c-0.467-0.552-0.457-1.18,0.026-1.64	c0.268-0.255,0.746-0.488,1.16-0.564c0.375-0.066,1.162-0.026,1.532,0.084c0.57,0.166,1.354,0.623,2,1.162	c0.365,0.306,0.603,0.467,0.702,0.48v-0.003c-0.026-0.11-0.003-0.199,0.082-0.299c0.084-0.102,0.204-0.153,0.329-0.14	c0.128,0.013,0.24,0.089,0.306,0.212c0.097,0.181,0.1,0.381,0.003,0.544c-0.107,0.179-0.312,0.286-0.547,0.286	c-0.345,0-0.585-0.112-0.953-0.442c-0.238-0.212-0.434-0.37-0.552-0.46c0.036,0.128,0.105,0.296,0.14,0.332	c0.033,0.026,0.125,0.095,0.077,0.179c-0.046,0.077-0.135,0.069-0.381-0.038c-0.22-0.092-0.401-0.238-0.511-0.406	c-0.033,0.084-0.089,0.186-0.14,0.24c-0.097,0.105-0.347,0.217-0.48,0.217c-0.023,0-0.089,0-0.12-0.061	c-0.033-0.066,0.013-0.128,0.064-0.197c0.041-0.054,0.097-0.179,0.12-0.268c0.038-0.146,0.036-0.161-0.036-0.301	c-0.069-0.135-0.158-0.222-0.314-0.296c0.092,0.199,0.074,0.526-0.041,0.705c-0.112,0.171-0.329,0.309-0.554,0.355l-0.34,0.069	l0.212-0.35c0.115-0.192,0.125-0.452,0.023-0.61c-0.095-0.146-0.406-0.327-0.524-0.327c-0.003,0-0.01,0-0.015,0	c0.003,0.02,0.005,0.046,0.008,0.066c0.026,0.197-0.061,0.457-0.207,0.488c-0.02,0.005-0.13,0.018-0.174-0.138	c-0.008-0.026-0.023-0.046-0.051-0.059c-0.061-0.033-0.158-0.033-0.258,0c-0.153,0.051-0.258,0.156-0.291,0.291	c-0.031,0.13,0.018,0.271,0.13,0.381c0.036,0.033,0.066,0.061,0.087,0.082c0.01-0.013,0.02-0.028,0.028-0.043	c0.079-0.133,0.225-0.232,0.398-0.273c0.171-0.041,0.342-0.02,0.467,0.059l0.248,0.153l-0.332,0.158	c-0.245,0.117-0.24,0.245-0.204,0.352c0.018,0.059,0.054,0.128,0.079,0.169c0.097-0.13,0.317-0.327,0.427-0.291	c0.074,0.023,0.117,0.102,0.128,0.166c0.028,0.179,0.041,0.197,0.184,0.271c0.138,0.074,0.189,0.084,0.603,0.084	c0.258-0.003,0.633-0.033,0.853-0.074c0.227-0.038,0.623-0.074,0.884-0.077c0.439-0.003,0.511,0.01,0.769,0.12	c0.411,0.179,0.682,0.506,0.736,0.899c0.056,0.386-0.107,0.766-0.444,1.045l-0.148,0.125l0.115,0.156	c0.097,0.13,0.23,0.363,0.296,0.521c0.107,0.258,0.12,0.35,0.118,0.81c0,0.57-0.036,0.733-0.337,1.576	c-0.289,0.797-0.327,1.269-0.14,1.686c0.082,0.181,0.204,0.296,0.314,0.296c0.158,0,0.204,0.095,0.217,0.135	c0.049,0.151-0.087,0.373-0.337,0.554c-0.255,0.181-0.294,0.268-0.291,0.455c0.003,0.148,0.061,0.281,0.255,0.57	c0.041,0.064,0.102,0.194,0.069,0.281c-0.013,0.033-0.046,0.077-0.125,0.095c-0.138,0.033-0.411-0.02-0.544-0.135	c-0.005-0.005-0.008-0.008-0.013-0.01c-0.046,0.069-0.115,0.12-0.199,0.143c-0.135,0.038-0.291,0.003-0.414-0.097l-0.064-0.051	l-0.061,0.051c-0.107,0.087-0.235,0.128-0.35,0.11c-0.087-0.01-0.166-0.059-0.215-0.13l-0.018-0.026l-0.077,0.049	c-0.146,0.095-0.261,0.146-0.342,0.087c-0.051-0.038-0.066-0.105-0.041-0.199c0.079-0.301,0.355-0.513,0.802-0.613	c0.427-0.092,0.427-0.092,0.388-0.677c-0.038-0.582-0.038-0.605-0.884-1.131c-0.404-0.253-0.628-0.429-0.861-0.672	c-0.409-0.429-0.649-0.539-1.226-0.564c-0.707-0.028-1.075,0.066-2.179,0.567c-0.363,0.163-0.794,0.35-0.879,0.368l-0.151,0.036	c-0.077,0.135-0.161,0.273-0.253,0.414c-0.148,0.23-0.202,0.404-0.156,0.503c0.038,0.082,0.153,0.135,0.342,0.156	c0.23,0.026,0.301,0.061,0.301,0.143c0,0.12-0.306,0.442-0.393,0.49c-0.066,0.033-0.225,0.097-0.345,0.138	c-0.074,0.026-0.146,0.051-0.163,0.066c-0.003,0.013,0,0.051,0,0.084c0.005,0.084,0.02,0.227,0.036,0.314	c0.026,0.161,0.008,0.24-0.1,0.401c-0.133,0.197-0.169,0.215-0.396,0.186c-0.11-0.015-0.253-0.059-0.317-0.112	c-0.008-0.008-0.015-0.01-0.018-0.015c-0.018,0.01-0.046,0.031-0.056,0.038C25.459,29.855,25.344,29.888,25.232,29.888z M24.287,29.515l0.11,0.146c0.013,0.023,0.046,0.036,0.087,0.043c0.079,0.01,0.171-0.013,0.24-0.064l0.174-0.13l0.151,0.135	c0.092,0.082,0.281,0.079,0.393-0.005c0.117-0.087,0.186-0.117,0.304-0.015c0.018,0.015,0.112,0.054,0.22,0.066	c0.061,0.008,0.12,0.015,0.135,0.008c0.015-0.008,0.051-0.059,0.087-0.112c0.084-0.128,0.089-0.163,0.072-0.271	c-0.015-0.095-0.031-0.245-0.036-0.335c-0.013-0.22,0.038-0.248,0.284-0.332c0.135-0.046,0.273-0.105,0.317-0.128	c0.054-0.028,0.192-0.179,0.261-0.276c-0.028-0.005-0.061-0.01-0.1-0.015c-0.261-0.028-0.419-0.112-0.488-0.258	c-0.077-0.166-0.023-0.388,0.169-0.679c0.506-0.776,0.81-1.525,0.812-1.997c0-0.238,0.008-0.324,0.092-0.347	c0.036-0.008,0.087,0,0.117,0.056c0.148,0.248-0.095,1.109-0.398,1.683l-0.026,0.049c0.13-0.051,0.404-0.166,0.761-0.329	c1.126-0.508,1.527-0.613,2.263-0.582c0.628,0.028,0.907,0.156,1.351,0.621c0.22,0.23,0.434,0.398,0.825,0.641	c0.871,0.547,0.925,0.618,0.968,1.275c0.041,0.656,0.015,0.748-0.531,0.868c-0.253,0.056-0.57,0.181-0.659,0.455	c0.026-0.013,0.059-0.031,0.102-0.061l0.225-0.143l0.117,0.169c0.023,0.031,0.054,0.049,0.092,0.056	c0.064,0.008,0.14-0.018,0.209-0.074l0.174-0.143l0.179,0.143c0.079,0.061,0.174,0.087,0.253,0.064	c0.038-0.01,0.087-0.036,0.112-0.1c0.013-0.038,0.043-0.066,0.079-0.074c0.069-0.018,0.133,0.031,0.186,0.077	c0.092,0.079,0.301,0.115,0.375,0.1c-0.005-0.023-0.02-0.061-0.046-0.1c-0.217-0.322-0.284-0.48-0.286-0.667	c-0.005-0.266,0.077-0.401,0.368-0.608c0.232-0.166,0.286-0.324,0.271-0.352c-0.003,0-0.015-0.008-0.043-0.008	c-0.189,0-0.368-0.151-0.48-0.404c-0.209-0.465-0.171-0.976,0.133-1.821c0.296-0.825,0.327-0.968,0.329-1.515	c0-0.437-0.01-0.506-0.107-0.741c-0.059-0.143-0.184-0.363-0.271-0.48l-0.22-0.294l0.281-0.235c0.289-0.238,0.427-0.559,0.381-0.881	c-0.046-0.327-0.276-0.603-0.628-0.756c-0.23-0.1-0.281-0.107-0.695-0.105c-0.253,0.003-0.633,0.033-0.853,0.074	c-0.23,0.041-0.618,0.074-0.884,0.074c-0.409,0.003-0.506-0.008-0.69-0.105c-0.192-0.102-0.238-0.169-0.276-0.404	c0,0,0-0.003,0-0.005c-0.077,0.046-0.227,0.184-0.248,0.243c-0.008,0.018-0.031,0.079-0.095,0.089	c-0.069,0.013-0.117-0.043-0.151-0.084c-0.046-0.054-0.102-0.163-0.133-0.255c-0.056-0.171-0.051-0.409,0.296-0.575l0.031-0.015	c-0.079-0.033-0.184-0.041-0.289-0.015c-0.128,0.031-0.232,0.102-0.286,0.189c-0.097,0.161-0.14,0.161-0.171,0.161	c-0.028,0-0.061,0-0.227-0.163c-0.161-0.156-0.225-0.355-0.181-0.552c0.046-0.197,0.197-0.35,0.411-0.421	c0.151-0.049,0.294-0.046,0.401,0.01c0.059,0.033,0.102,0.079,0.125,0.135c0.028-0.054,0.054-0.148,0.041-0.24	c-0.013-0.105-0.023-0.174,0.023-0.225c0.043-0.049,0.105-0.049,0.163-0.049c0.189,0,0.554,0.222,0.677,0.411	c0.14,0.217,0.133,0.544-0.015,0.794c0.153-0.046,0.296-0.146,0.37-0.258c0.084-0.133,0.095-0.409,0.018-0.547	c-0.051-0.095-0.105-0.189-0.041-0.258c0.059-0.066,0.153-0.028,0.209-0.005c0.245,0.102,0.381,0.22,0.483,0.416	c0.089,0.179,0.097,0.243,0.049,0.432c-0.023,0.084-0.066,0.186-0.107,0.263c0.084-0.031,0.176-0.084,0.215-0.125	c0.028-0.031,0.082-0.125,0.112-0.204l0.125-0.345l0.163,0.294c0.084,0.153,0.248,0.291,0.452,0.378	c0.005,0.003,0.01,0.005,0.013,0.008c-0.066-0.146-0.123-0.337-0.128-0.424c0-0.033,0-0.082,0.038-0.117	c0.054-0.051,0.11-0.105,0.843,0.554c0.332,0.299,0.534,0.393,0.83,0.393c0.171,0,0.317-0.074,0.391-0.197	c0.064-0.107,0.061-0.24-0.005-0.363c-0.038-0.069-0.097-0.112-0.166-0.12c-0.064-0.005-0.125,0.023-0.171,0.079	c-0.051,0.061-0.056,0.095-0.046,0.14c0.013,0.054,0.028,0.12-0.013,0.174c-0.041,0.051-0.107,0.051-0.151,0.051	c-0.125,0-0.312-0.089-0.83-0.521c-0.628-0.526-1.389-0.968-1.936-1.129c-0.342-0.102-1.101-0.143-1.448-0.079	c-0.375,0.069-0.825,0.286-1.068,0.516c-0.411,0.393-0.416,0.914-0.013,1.392l0.169,0.202l-0.12,0.186	c-0.105,0.163-0.095,0.378,0.023,0.539c0.005,0.008,0.01,0.013,0.015,0.02c0.026-0.171,0.117-0.291,0.258-0.342	c0.146-0.051,0.24-0.023,0.753,0.184c0.516,0.204,1.372,0.217,2.289,0.033c0.478-0.097,1.029-0.089,1.285,0.018	c0.23,0.097,0.391,0.278,0.442,0.496c0.051,0.225-0.02,0.467-0.194,0.662c-0.153,0.171-0.296,0.243-0.764,0.37	c-0.347,0.095-0.439,0.102-1.218,0.095c-0.651-0.008-0.886,0.005-1.149,0.061c-0.299,0.061-0.49,0.069-1.354,0.046L28.9,22.755	c0.031,0.023,0.059,0.041,0.079,0.054c0.043,0.023,0.102,0.059,0.097,0.128l0.079,0.056l-0.117,0.018	c-0.028,0.02-0.066,0.036-0.112,0.051c-0.084,0.031-0.245,0.051-0.355,0.051h-0.125l-0.015,0.095	c-0.015,0.092-0.01,0.181-0.003,0.199c0.01,0.031,0.038,0.1-0.01,0.151c-0.051,0.054-0.12,0.028-0.153,0.015	c-0.036-0.013-0.148-0.041-0.255-0.064c-0.11-0.026-0.255-0.072-0.329-0.107c-0.008-0.005-0.028-0.013-0.043-0.02l-0.003,0.003	c-0.038,0.069-0.409,0.37-0.511,0.37c-0.1,0-0.11-0.117-0.115-0.194c-0.005-0.041-0.043-0.184-0.105-0.324	c-0.026-0.061-0.054-0.125-0.077-0.181c0,0.008-0.003,0.015-0.003,0.023c-0.018,0.089-0.074,0.225-0.13,0.312l-0.176,0.273	l-0.128-0.263c-0.028-0.059-0.061-0.11-0.089-0.148c-0.061,0.13-0.284,0.421-0.401,0.421c-0.074,0-0.117-0.066-0.128-0.199	c-0.079,0.102-0.189,0.197-0.266,0.199c-0.008,0.003-0.031,0.013-0.043,0.028c-0.102,0.12-0.184,0.092-0.212,0.074	c-0.023-0.013-0.087-0.061-0.046-0.181c0.005-0.02,0.003-0.097-0.023-0.174c-0.015-0.054-0.036-0.107-0.046-0.148	c-0.026,0.005-0.069,0.015-0.143,0.038c-0.204,0.066-0.324,0.084-0.37-0.003c-0.049-0.089,0.046-0.161,0.082-0.189	c0.023-0.018,0.087-0.12,0.13-0.243c0.01-0.036,0.033-0.092,0.059-0.146c-0.061,0.043-0.128,0.087-0.197,0.128	c-0.746,0.452-1.167,1.052-1.29,1.836c-0.11,0.692,0.235,1.415,0.922,1.931c0.227,0.171,0.516,0.329,0.674,0.398	c-0.105-0.447-0.115-1.218,0.066-1.392c0.033-0.031,0.079-0.036,0.117-0.013c0.061,0.036,0.064,0.105,0.018,0.296	c-0.115,0.462-0.064,0.828,0.235,1.706c0.248,0.73,0.296,1.208-0.192,1.494c-0.151,0.087-0.255,0.1-0.593,0.095	c-0.363-0.005-0.375,0.005-0.465,0.077c-0.079,0.064-0.192,0.273-0.222,0.404c0.023-0.01,0.054-0.026,0.095-0.049L24.287,29.515z M25.357,22.89l0.003,0.227c0,0.031,0.018,0.14,0.049,0.25l0.023,0.084l0.038-0.015c0.107-0.049,0.215-0.24,0.215-0.381	c0-0.13,0.084-0.148,0.102-0.148c0.026-0.005,0.115-0.003,0.146,0.146c0.005,0.018,0.033,0.11,0.066,0.217l0.008,0.018	c0.041-0.056,0.092-0.151,0.112-0.217c0.028-0.089,0.092-0.238,0.202-0.22c0.02,0.003,0.095,0.023,0.097,0.138	c0.008,0.036,0.072,0.133,0.125,0.197c0.013-0.031,0.023-0.069,0.033-0.115c0.028-0.112,0.105-0.378,0.232-0.432	c0.041-0.018,0.082-0.015,0.115,0.005c0.036,0.02,0.059,0.051,0.069,0.089c0.005,0.023,0.003,0.043-0.003,0.066	c0.008,0.038,0.038,0.143,0.1,0.294c0.056,0.133,0.11,0.268,0.14,0.34c0.028-0.02,0.061-0.051,0.079-0.066	c0.089-0.079,0.153-0.153,0.166-0.174c0.008-0.02,0.026-0.064,0.077-0.084c0.064-0.023,0.128,0.015,0.181,0.051	c0.089,0.054,0.34,0.133,0.455,0.156c0.005-0.036,0.008-0.089,0.01-0.153l0.008-0.332l0.227,0.046	c0.043,0.01,0.143,0.01,0.235,0.003c-0.066-0.049-0.171-0.133-0.207-0.192c-0.01-0.01-0.056-0.033-0.13-0.038	c-0.248-0.023-0.784-0.276-0.784-0.483c0-0.041,0.023-0.074,0.059-0.089c0.049-0.023,0.102-0.01,0.232,0.107	c0.14,0.13,0.34,0.217,0.513,0.225c-0.059-0.087-0.105-0.225-0.117-0.345c-0.015-0.148-0.015-0.156-0.184-0.273	c-0.12-0.082-0.263-0.202-0.327-0.273l-0.005-0.008c-0.069,0.184-0.123,0.199-0.166,0.199c-0.02,0-0.064,0-0.189-0.128	c-0.015-0.013-0.028-0.028-0.041-0.038c-0.013,0.023-0.028,0.049-0.046,0.082l-0.151,0.301l-0.153-0.222	c-0.031-0.046-0.11-0.133-0.171-0.189c-0.1-0.089-0.13-0.148-0.107-0.207c0.013-0.036,0.049-0.061,0.089-0.061	c0.054,0,0.138,0.056,0.248,0.169l0.056,0.054c0.02-0.041,0.031-0.112,0.018-0.163c-0.018-0.089-0.033-0.166,0.046-0.197	c0.077-0.031,0.12,0.041,0.146,0.082c0.018,0.033,0.092,0.11,0.161,0.166l0.049,0.038l0.038-0.072	c0.069-0.128,0.1-0.181,0.169-0.184l-0.082-0.207c-0.01-0.026-0.082-0.107-0.176-0.171c-0.184-0.12-0.186-0.174-0.189-0.199	c-0.003-0.031,0.008-0.059,0.031-0.079c0.043-0.041,0.1-0.061,0.332,0.12c0.033,0.026,0.061,0.046,0.084,0.061	c-0.003-0.095-0.018-0.271-0.059-0.427c-0.015-0.061-0.033-0.133,0.033-0.171c0.069-0.038,0.112,0.005,0.217,0.11	c0.102,0.102,0.158,0.222,0.202,0.427c0.043,0.215,0.059,0.238,0.261,0.416c0.043,0.038,0.084,0.072,0.117,0.097	c0.005-0.11,0.015-0.284,0.02-0.498c0.026-0.697-0.008-0.817-0.146-0.996l-0.133-0.169l0.184-0.199	c0.13-0.138,0.202-0.253,0.24-0.388c-0.107,0.092-0.186,0.117-0.329,0.117c-0.166,0-0.245-0.033-0.358-0.153	c-0.1-0.105-0.281-0.212-0.455-0.266c-0.023,0.092-0.087,0.209-0.089,0.217l-0.146,0.271l-0.271-0.268	c-0.1-0.102-0.22-0.181-0.304-0.202c-0.041-0.013-0.115-0.031-0.153-0.036c0,0.026,0,0.059,0,0.077c0,0.066,0,0.271-0.14,0.337	c-0.143,0.064-0.301-0.074-0.355-0.117c-0.138-0.12-0.243-0.156-0.557-0.123l-0.128,0.015c0.054,0.138,0.023,0.212-0.064,0.327	c-0.146,0.194-0.34,0.281-0.626,0.281c-0.112,0-0.245,0.026-0.291,0.046c-0.079,0.038-0.255,0.074-0.378,0.087	c-0.135,0.013-0.255,0.033-0.278,0.043c-0.023,0.008-0.084,0.031-0.138-0.01c-0.059-0.049-0.046-0.128-0.033-0.222	c0.01-0.072-0.005-0.135-0.046-0.181c-0.046-0.054-0.12-0.082-0.212-0.082c-0.095,0-0.169,0.033-0.215,0.097	c-0.066,0.089-0.072,0.238-0.018,0.401c0.023,0.072,0.054,0.181,0.069,0.248c0.008,0.031,0.105,0.174,0.289,0.358	c0.117,0.12,0.309,0.322,0.347,0.386c0.01,0.02,0.064,0.072,0.125,0.107c-0.008-0.072-0.008-0.171,0.074-0.204	c0.092-0.036,0.163,0.059,0.194,0.1c0.02,0.026,0.082,0.079,0.138,0.117c0.01-0.041,0.026-0.084,0.038-0.12l0.12-0.296l0.169,0.332	c0.036,0.069,0.166,0.25,0.304,0.409c0.184,0.212,0.488,0.656,0.319,0.817c-0.066,0.061-0.184,0.054-0.378,0.013	c-0.14-0.028-0.299-0.038-0.352-0.031c-0.077,0.01-0.171,0.023-0.215-0.051c-0.041-0.072,0.013-0.143,0.054-0.197	c-0.008,0-0.015,0-0.026,0c-0.227,0-0.771-0.105-0.988-0.192c-0.105-0.041-0.13-0.038-0.135-0.036	c-0.003,0.003-0.02,0.018-0.049,0.107c-0.026,0.087-0.074,0.24-0.107,0.345l-0.018,0.056l0.079-0.008	c0.112-0.013,0.258-0.036,0.322-0.054c0.161-0.049,0.197-0.031,0.225-0.005c0.049,0.046,0.041,0.102-0.036,0.25	c0.059-0.018,0.128-0.041,0.169-0.061c0.169-0.082,0.222-0.033,0.317,0.123c0.015,0.023,0.026,0.038,0.036,0.051	c0.003-0.008,0.003-0.018,0.005-0.031c0.005-0.054,0.018-0.181,0.12-0.199c0.097-0.015,0.163,0.084,0.245,0.258	c0.036,0.074,0.066,0.123,0.089,0.153c0.028-0.066,0.095-0.135,0.153-0.176c0.089-0.064,0.176-0.084,0.253-0.061	c0.074,0.023,0.133,0.084,0.171,0.181c0.051,0.13,0,0.25-0.107,0.363c0.043,0,0.066,0.023,0.079,0.041	c0.046,0.064-0.005,0.13-0.043,0.184c-0.031,0.043-0.051,0.089-0.051,0.105c0,0.041-0.02,0.1-0.041,0.148	c0.003-0.003,0.005-0.005,0.01-0.005L25.357,22.89z M27.474,23.196v0.003V23.196z M27.784,21.166	c0.026,0.023,0.041,0.061,0.056,0.097c0.033,0.082,0.301,0.322,0.605,0.518c-0.01-0.028-0.026-0.061-0.041-0.1	c-0.028-0.074-0.054-0.197-0.054-0.284c0-0.069-0.005-0.097-0.138-0.197c-0.161-0.123-0.248-0.225-0.299-0.378	c-0.008,0.033-0.015,0.064-0.026,0.089L27.784,21.166z"/><path fill="#ffbe29" d="M24.118,29.715l0.143-0.082l0.061,0.082c0.082,0.11,0.306,0.11,0.455-0.003l0.115-0.084l0.095,0.084	c0.125,0.112,0.36,0.112,0.511,0.003c0.105-0.079,0.118-0.082,0.189-0.02c0.041,0.033,0.161,0.074,0.268,0.089	c0.192,0.023,0.197,0.023,0.309-0.146c0.095-0.14,0.107-0.199,0.084-0.335c-0.013-0.092-0.031-0.238-0.036-0.327	c-0.008-0.158-0.008-0.158,0.225-0.24c0.128-0.043,0.276-0.105,0.329-0.133c0.095-0.049,0.347-0.35,0.347-0.409	c0-0.015-0.1-0.038-0.22-0.054c-0.485-0.054-0.567-0.314-0.253-0.797c0.513-0.789,0.825-1.558,0.828-2.048	c0-0.217,0.013-0.291,0.041-0.243c0.158,0.199-0.031,0.986-0.342,1.571l-0.125,0.235l0.059-0.005	c0.066-0.015,0.452-0.179,0.861-0.363c1.114-0.506,1.497-0.603,2.22-0.572c0.605,0.026,0.863,0.143,1.29,0.59	c0.225,0.238,0.444,0.406,0.843,0.656c0.848,0.531,0.884,0.577,0.925,1.203c0.041,0.633,0.02,0.667-0.457,0.774	c-0.411,0.089-0.667,0.281-0.736,0.547c-0.036,0.14,0.041,0.146,0.248,0.013l0.151-0.097l0.066,0.097	c0.089,0.128,0.276,0.128,0.432,0.003l0.117-0.097l0.123,0.097c0.186,0.148,0.434,0.112,0.506-0.074	c0.013-0.038,0.049-0.026,0.123,0.038c0.138,0.12,0.488,0.169,0.526,0.077c0.015-0.036-0.013-0.123-0.061-0.197	c-0.204-0.304-0.268-0.452-0.271-0.618c-0.003-0.23,0.066-0.342,0.329-0.531c0.319-0.23,0.419-0.524,0.176-0.524	c-0.151,0-0.304-0.133-0.398-0.35c-0.197-0.439-0.158-0.935,0.135-1.755c0.301-0.833,0.335-0.986,0.335-1.545	c0-0.45-0.01-0.529-0.112-0.776c-0.064-0.151-0.192-0.375-0.284-0.498l-0.169-0.227l0.217-0.179c0.662-0.547,0.526-1.446-0.271-1.79	c-0.243-0.105-0.304-0.115-0.73-0.112c-0.258,0.003-0.646,0.036-0.868,0.077c-0.225,0.038-0.608,0.072-0.868,0.072	c-0.416,0.003-0.488-0.008-0.646-0.092c-0.169-0.089-0.197-0.133-0.23-0.337c-0.008-0.043-0.036-0.084-0.066-0.095	c-0.056-0.018-0.319,0.209-0.358,0.312c-0.018,0.049-0.033,0.046-0.089-0.02c-0.041-0.046-0.092-0.148-0.117-0.227	c-0.066-0.199,0.015-0.35,0.25-0.462l0.184-0.089l-0.107-0.066c-0.225-0.138-0.603-0.043-0.741,0.186	c-0.038,0.064-0.079,0.115-0.092,0.117c-0.015,0-0.087-0.061-0.163-0.138c-0.289-0.281-0.189-0.697,0.194-0.822	c0.207-0.069,0.388-0.018,0.427,0.12c0.056,0.209,0.235-0.066,0.204-0.314c-0.023-0.163-0.018-0.171,0.095-0.171	c0.158,0,0.496,0.209,0.6,0.37c0.123,0.189,0.112,0.485-0.02,0.707l-0.105,0.171l0.138-0.026c0.199-0.041,0.396-0.166,0.493-0.317	c0.105-0.161,0.117-0.473,0.023-0.641c-0.089-0.161-0.079-0.189,0.054-0.133c0.225,0.095,0.347,0.197,0.437,0.375	c0.082,0.158,0.084,0.197,0.041,0.363c-0.026,0.102-0.087,0.238-0.133,0.299c-0.074,0.097-0.077,0.115-0.018,0.115	c0.107,0,0.332-0.102,0.414-0.189c0.041-0.043,0.1-0.148,0.13-0.235l0.059-0.158l0.066,0.12c0.092,0.171,0.276,0.322,0.496,0.419	c0.24,0.102,0.337,0.107,0.215,0.013c-0.084-0.066-0.24-0.521-0.192-0.564c0.026-0.026,0.35,0.222,0.72,0.554	c0.35,0.314,0.57,0.416,0.891,0.416c0.409,0,0.649-0.358,0.465-0.695c-0.107-0.197-0.347-0.225-0.488-0.056	c-0.064,0.079-0.082,0.14-0.064,0.222c0.023,0.097,0.015,0.112-0.077,0.112c-0.117,0-0.355-0.153-0.771-0.501	c-0.636-0.531-1.41-0.981-1.969-1.147c-0.358-0.105-1.124-0.146-1.487-0.079c-0.396,0.072-0.861,0.296-1.116,0.539	c-0.45,0.429-0.457,0.999-0.018,1.517l0.125,0.148l-0.084,0.13c-0.125,0.194-0.115,0.452,0.026,0.641	c0.061,0.084,0.123,0.153,0.138,0.153c0.013,0,0.028-0.054,0.033-0.12c0.013-0.166,0.084-0.278,0.207-0.322	c0.11-0.041,0.181-0.02,0.69,0.181c0.531,0.212,1.407,0.227,2.34,0.038c0.455-0.092,0.994-0.087,1.231,0.013	c0.434,0.181,0.534,0.656,0.215,1.014c-0.138,0.156-0.271,0.22-0.718,0.342c-0.34,0.092-0.421,0.1-1.195,0.092	c-0.662-0.008-0.897,0.005-1.167,0.061c-0.294,0.061-0.475,0.069-1.333,0.046l-0.996-0.026l0.11,0.092	c0.061,0.051,0.148,0.112,0.192,0.138c0.074,0.043,0.072,0.049-0.038,0.089c-0.066,0.026-0.212,0.046-0.324,0.046h-0.204	l-0.028,0.174c-0.013,0.095-0.013,0.204,0.003,0.248c0.026,0.059,0.015,0.066-0.046,0.043c-0.043-0.015-0.163-0.046-0.266-0.066	c-0.105-0.023-0.243-0.066-0.309-0.1c-0.112-0.056-0.125-0.054-0.166,0.02c-0.036,0.064-0.381,0.322-0.432,0.322	c-0.01,0-0.02-0.051-0.026-0.11c-0.003-0.061-0.054-0.22-0.11-0.352c-0.056-0.133-0.115-0.276-0.13-0.322	c-0.026-0.066-0.036-0.069-0.064-0.02c-0.018,0.036-0.046,0.125-0.061,0.202c-0.013,0.077-0.066,0.202-0.115,0.278l-0.089,0.138	l-0.056-0.117c-0.061-0.128-0.161-0.258-0.199-0.258c-0.013,0-0.033,0.041-0.046,0.089c-0.028,0.105-0.268,0.391-0.327,0.391	c-0.023,0-0.041-0.079-0.041-0.179s-0.018-0.181-0.041-0.181s-0.043,0.026-0.043,0.056c0,0.077-0.204,0.304-0.273,0.304	c-0.031,0-0.079,0.028-0.107,0.061c-0.077,0.087-0.138,0.074-0.107-0.02c0.015-0.046,0.008-0.148-0.02-0.232	c-0.026-0.082-0.054-0.169-0.064-0.194c-0.01-0.031-0.084-0.023-0.24,0.028c-0.25,0.079-0.335,0.064-0.204-0.036	c0.046-0.038,0.117-0.166,0.158-0.286c0.041-0.117,0.102-0.225,0.133-0.235c0.046-0.015,0.043,0.003-0.01,0.077	c-0.038,0.051-0.069,0.123-0.069,0.156c0,0.033-0.028,0.112-0.064,0.176c-0.036,0.064-0.059,0.123-0.049,0.13	c0.008,0.008,0.102-0.028,0.212-0.082l0.197-0.095v0.087c0.003,0.046,0.026,0.169,0.054,0.273l0.051,0.186l0.135-0.061	c0.138-0.064,0.268-0.289,0.268-0.462c0-0.087,0.049-0.074,0.069,0.018c0.008,0.028,0.038,0.128,0.069,0.225l0.059,0.176	l0.092-0.112c0.051-0.061,0.115-0.179,0.14-0.266c0.049-0.148,0.12-0.212,0.12-0.105c0,0.079,0.212,0.355,0.253,0.332	c0.02-0.01,0.059-0.115,0.087-0.23c0.059-0.243,0.153-0.406,0.215-0.37c0.023,0.013,0.031,0.038,0.018,0.056	c-0.01,0.018,0.038,0.176,0.11,0.347c0.072,0.174,0.143,0.35,0.158,0.388c0.026,0.064,0.049,0.056,0.202-0.079	c0.097-0.084,0.181-0.179,0.194-0.209c0.015-0.049,0.036-0.046,0.125,0.01c0.125,0.077,0.541,0.202,0.575,0.171	c0.013-0.013,0.026-0.123,0.028-0.245l0.005-0.222l0.12,0.026c0.066,0.013,0.207,0.013,0.309-0.003l0.189-0.028l-0.166-0.115	c-0.095-0.064-0.186-0.146-0.209-0.181c-0.023-0.041-0.105-0.074-0.199-0.082c-0.25-0.02-0.697-0.271-0.697-0.391	c0-0.023,0.061,0.015,0.138,0.084c0.166,0.153,0.398,0.25,0.603,0.25h0.153l-0.095-0.125c-0.054-0.072-0.102-0.209-0.115-0.322	c-0.018-0.179-0.036-0.207-0.222-0.337c-0.115-0.079-0.253-0.197-0.312-0.261l-0.105-0.12l-0.054,0.143	c-0.028,0.077-0.064,0.14-0.079,0.14c-0.015,0-0.072-0.046-0.125-0.102c-0.056-0.054-0.112-0.1-0.125-0.1	c-0.013,0-0.061,0.074-0.107,0.166l-0.084,0.163l-0.064-0.095c-0.033-0.051-0.117-0.143-0.184-0.204	c-0.066-0.061-0.102-0.112-0.079-0.112s0.107,0.064,0.184,0.143l0.14,0.14l0.056-0.105c0.033-0.059,0.046-0.153,0.031-0.23	c-0.02-0.11-0.018-0.117,0.023-0.049c0.028,0.043,0.11,0.13,0.181,0.189l0.133,0.107l0.092-0.169	c0.092-0.166,0.092-0.166,0.133-0.066c0.056,0.133,0.457,0.462,0.799,0.654c0.054,0.031,0.031-0.072-0.066-0.306	c-0.026-0.061-0.046-0.174-0.046-0.248c0-0.11-0.033-0.161-0.174-0.268c-0.207-0.156-0.271-0.266-0.312-0.518	c-0.015-0.102-0.051-0.215-0.079-0.25c-0.041-0.054-0.049-0.026-0.036,0.163c0.008,0.128-0.01,0.286-0.038,0.352l-0.049,0.12	l-0.041-0.1c-0.02-0.056-0.115-0.151-0.209-0.215c-0.097-0.061-0.161-0.123-0.148-0.135c0.013-0.013,0.11,0.043,0.215,0.125	c0.161,0.125,0.197,0.138,0.22,0.084c0.026-0.064,0-0.345-0.051-0.541c-0.026-0.097-0.023-0.097,0.1,0.023	c0.087,0.089,0.138,0.197,0.176,0.381c0.049,0.235,0.072,0.276,0.291,0.467c0.13,0.115,0.243,0.202,0.253,0.194	c0.008-0.008,0.023-0.306,0.036-0.662c0.023-0.679-0.003-0.843-0.166-1.052l-0.084-0.11l0.133-0.143	c0.171-0.186,0.253-0.335,0.286-0.539l0.028-0.166l-0.148,0.14c-0.123,0.117-0.181,0.143-0.324,0.143	c-0.14,0-0.194-0.023-0.291-0.125c-0.112-0.12-0.314-0.238-0.508-0.294c-0.069-0.02-0.095-0.01-0.095,0.038	c0,0.033-0.038,0.138-0.087,0.227l-0.089,0.161l-0.181-0.181c-0.112-0.11-0.248-0.197-0.347-0.225	c-0.253-0.066-0.268-0.059-0.268,0.13c0,0.289-0.123,0.342-0.342,0.151c-0.171-0.146-0.309-0.179-0.628-0.143l-0.248,0.026	l0.046,0.112c0.036,0.092,0.028,0.133-0.051,0.238c-0.13,0.171-0.296,0.245-0.554,0.245c-0.12,0-0.268,0.026-0.329,0.056	c-0.064,0.028-0.22,0.064-0.347,0.077c-0.13,0.013-0.266,0.033-0.304,0.049c-0.061,0.023-0.069,0.003-0.049-0.135	c0.031-0.209-0.117-0.365-0.347-0.365c-0.299,0-0.434,0.266-0.319,0.618c0.023,0.066,0.054,0.174,0.066,0.238	c0.013,0.064,0.148,0.238,0.312,0.401c0.158,0.161,0.309,0.324,0.335,0.368c0.023,0.043,0.105,0.112,0.179,0.153l0.135,0.077	l-0.015-0.146c-0.02-0.161,0.013-0.186,0.1-0.074c0.031,0.041,0.107,0.107,0.171,0.146c0.1,0.064,0.117,0.064,0.117,0.01	c0-0.033,0.02-0.112,0.046-0.176l0.043-0.112l0.079,0.153c0.046,0.084,0.317,0.299,0.447,0.45c0.25,0.291,0.365,0.646,0.286,0.723	c-0.033,0.028-0.352,0.028-0.531-0.008c-0.138-0.028-0.312-0.043-0.383-0.033c-0.146,0.02-0.156,0-0.066-0.112	c0.095-0.117,0.079-0.138-0.107-0.138c-0.215,0-0.748-0.102-0.953-0.184c-0.199-0.079-0.105-0.112-0.163,0.077	c-0.026,0.087-0.074,0.24-0.107,0.345l-0.059,0.186l0.217-0.02c0.117-0.01,0.271-0.038,0.337-0.059	c0.069-0.02,0.13-0.031,0.138-0.023s-0.023,0.079-0.069,0.163l-0.079,0.151l0.133-0.028c0.074-0.015,0.186-0.051,0.248-0.082	c0.107-0.054,0.117-0.049,0.202,0.087c0.105,0.169,0.189,0.161,0.207-0.015c0.018-0.186,0.079-0.158,0.194,0.087	c0.11,0.235,0.222,0.317,0.245,0.179c0.005-0.049,0.066-0.123,0.13-0.169c0.133-0.092,0.23-0.064,0.289,0.082	c0.059,0.148-0.074,0.304-0.455,0.534c-0.761,0.462-1.206,1.096-1.333,1.9c-0.112,0.728,0.243,1.479,0.958,2.018	c0.342,0.258,0.833,0.518,0.797,0.414c-0.146-0.439-0.222-1.183,0.064-1.412c0.02-0.023,0.015,0.066-0.018,0.194	c-0.117,0.48-0.066,0.863,0.238,1.757c0.278,0.812,0.24,1.157-0.153,1.387c-0.125,0.074-0.204,0.084-0.544,0.082	c-0.365-0.005-0.406,0.003-0.524,0.097c-0.112,0.089-0.261,0.388-0.261,0.529C23.871,29.822,23.955,29.812,24.118,29.715z"/><path fill="#ffbe29" d="M30.067,29.699l0.153-0.1l0.105,0.1c0.135,0.13,0.296,0.125,0.427-0.008	c0.059-0.059,0.11-0.1,0.115-0.089c0.005,0.008,0.031,0.051,0.056,0.095c0.033,0.056,0.1,0.084,0.22,0.095	c0.146,0.01,0.186-0.005,0.243-0.087l0.069-0.1l0.151,0.097c0.414,0.266,0.636-0.013,0.45-0.57	c-0.095-0.284-0.041-0.442,0.261-0.802c0.13-0.151,0.235-0.314,0.235-0.36c0-0.074-0.026-0.084-0.194-0.082	c-0.163,0.005-0.212-0.013-0.296-0.107c-0.14-0.153-0.133-0.329,0.023-0.524l0.095-0.097l-0.189-0.133	c-0.123-0.082-0.342-0.278-0.488-0.434c-0.329-0.35-0.651-0.516-1.078-0.554l-0.286-0.026v0.14c0,0.278,0.133,0.544,0.488,0.999	c0.406,0.516,0.434,0.595,0.452,1.269l0.013,0.57l-0.117,0.112c-0.105,0.1-0.153,0.115-0.496,0.133	c-0.327,0.02-0.396,0.036-0.49,0.12c-0.128,0.112-0.163,0.174-0.204,0.329c-0.023,0.089-0.013,0.11,0.051,0.11	C29.875,29.799,29.983,29.753,30.067,29.699z"/><path fill="#ffbe29" d="M21.35,28.226c0.036-0.049,0.066-0.128,0.066-0.176c0-0.072,0.031-0.092,0.189-0.112l0.192-0.028	l-0.125-0.102c-0.153-0.12-0.166-0.215-0.033-0.215s0.358-0.138,0.391-0.238c0.015-0.049,0.005-0.112-0.023-0.143	c-0.074-0.087-0.215-0.074-0.24,0.02c-0.028,0.102-0.074,0.102-0.181,0.003c-0.158-0.151-0.161-0.462-0.005-0.646	c0.072-0.084,0.072-0.092-0.023-0.179c-0.1-0.097-0.171-0.284-0.123-0.329c0.013-0.013,0.092-0.003,0.176,0.026	c0.115,0.041,0.161,0.041,0.209,0.003c0.146-0.115-0.013-0.261-0.245-0.227c-0.094,0.013-0.133,0-0.146-0.049	c-0.01-0.038-0.092-0.087-0.186-0.11c-0.163-0.041-0.166-0.041-0.166,0.074c0,0.125-0.072,0.148-0.207,0.066	c-0.11-0.064-0.217-0.013-0.217,0.102c0,0.11,0.11,0.163,0.306,0.151c0.153-0.008,0.158,0.105,0.015,0.266l-0.105,0.115l0.082,0.117	c0.123,0.176,0.112,0.465-0.02,0.608l-0.105,0.112l-0.069-0.092c-0.094-0.125-0.222-0.115-0.258,0.018	c-0.023,0.087-0.005,0.128,0.105,0.22c0.074,0.064,0.181,0.115,0.24,0.115c0.143,0,0.138,0.112-0.01,0.225l-0.117,0.089l0.179,0.028	c0.1,0.015,0.181,0.046,0.181,0.064c0,0.077,0.125,0.317,0.163,0.317C21.265,28.315,21.311,28.274,21.35,28.226z"/><path fill="#ffbe29" d="M23.692,27.209c0.163-0.064,0.444-0.319,0.444-0.393c0-0.023-0.1-0.13-0.217-0.24	c-0.253-0.227-0.526-0.61-0.595-0.833c-0.038-0.117-0.143-0.36-0.644-0.848l-0.669-0.649l-0.194,0.051	c-0.105,0.026-0.235,0.049-0.286,0.049c-0.089,0.003-0.089,0.008,0.031,0.1l0.125,0.097l0.179-0.097	c0.171-0.095,0.176-0.097,0.197-0.02c0.013,0.046-0.015,0.123-0.061,0.179c-0.046,0.056-0.072,0.12-0.059,0.14	c0.015,0.02-0.031,0.066-0.097,0.1c-0.125,0.061-0.212,0.263-0.115,0.263c0.089,0,0.286-0.243,0.263-0.324	c-0.01-0.041-0.005-0.084,0.013-0.095c0.077-0.046,0.072,0.146-0.005,0.238c-0.046,0.056-0.072,0.12-0.059,0.14	s-0.031,0.066-0.097,0.1c-0.125,0.061-0.215,0.263-0.115,0.263c0.095,0,0.289-0.23,0.266-0.317c-0.013-0.046-0.008-0.092,0.01-0.102	c0.051-0.031,0.079,0.12,0.036,0.192c-0.023,0.041-0.023,0.095,0,0.138c0.043,0.077,0,0.225-0.079,0.271	c-0.033,0.02-0.01,0.059,0.072,0.12c0.117,0.089,0.12,0.1,0.12,0.496c0,0.332,0.013,0.416,0.074,0.473	c0.069,0.066,0.074,0.066,0.074,0.003c0-0.066,0.12-0.148,0.217-0.148c0.028,0,0.207,0.151,0.396,0.337	c0.192,0.186,0.393,0.345,0.45,0.355c0.056,0.01,0.115,0.02,0.135,0.023C23.518,27.27,23.605,27.245,23.692,27.209z"/><path fill="#ffbe29" d="M21.648,25.61c0-0.107-0.22-0.22-0.483-0.25c-0.212-0.023-0.217-0.02-0.217,0.084	c0,0.087,0.033,0.123,0.181,0.186C21.365,25.733,21.648,25.722,21.648,25.61z"/><path fill="#ffbe29" d="M21.889,25.6c0.107-0.097,0.158-0.212,0.094-0.212c-0.074,0-0.273,0.176-0.273,0.243	C21.712,25.735,21.748,25.73,21.889,25.6z"/><path fill="#ffbe29" d="M21.661,25.286c0.008-0.061-0.028-0.1-0.14-0.151c-0.24-0.107-0.529-0.158-0.598-0.105	c-0.128,0.1-0.041,0.235,0.163,0.261c0.084,0.008,0.197,0.033,0.25,0.056C21.495,25.408,21.646,25.38,21.661,25.286z"/><path fill="#ffbe29" d="M21.661,24.964c0.013-0.087-0.043-0.117-0.49-0.276c-0.335-0.117-0.483-0.061-0.375,0.143	c0.038,0.069,0.1,0.102,0.24,0.123c0.105,0.015,0.245,0.046,0.317,0.069C21.539,25.081,21.646,25.058,21.661,24.964z"/><path fill="#ffbe29" d="M21.883,24.663c0.069-0.069,0.125-0.151,0.125-0.181c0-0.097-0.268,0.077-0.301,0.197	C21.666,24.823,21.733,24.816,21.883,24.663z"/><path fill="#ffbe29" d="M21.661,24.642c0.015-0.097-0.148-0.186-0.467-0.255c-0.235-0.049-0.34-0.02-0.322,0.089	c0.01,0.059,0.087,0.102,0.309,0.171C21.536,24.757,21.643,24.757,21.661,24.642z"/><path fill="#ffbe29" d="M21.973,24.187c0.409-0.184,0.444-0.644,0.059-0.764c-0.161-0.049-0.263-0.023-0.324,0.087	c-0.046,0.082-0.015,0.235,0.049,0.235c0.02,0,0.038,0.028,0.038,0.061c0,0.158-0.623,0.232-0.881,0.102	c-0.089-0.046-0.128-0.163-0.054-0.163c0.056,0,0.095-0.123,0.066-0.207c-0.038-0.117-0.156-0.158-0.327-0.112	c-0.383,0.1-0.373,0.552,0.018,0.743C20.938,24.325,21.641,24.336,21.973,24.187z"/><path fill="#ffbe29" d="M21.615,23.71c-0.087-0.069-0.082-0.171,0.013-0.286c0.072-0.089,0.158-0.184,0.181-1.504	c0.043-2.276,0.212-3.987,0.437-4.398c0.087-0.163,0.074-0.163-0.153-0.008c-0.296,0.202-0.521,0.465-0.72,0.84	c-0.378,0.708-0.508,1.66-0.508,3.691c0,1.154,0.092,1.292,0.158,1.402c0.061,0.102,0.064,0.14,0.02,0.25	c-0.028,0.072-0.031,0.097-0.018,0.107c0.084,0.079,0.541,0.087,0.631,0C21.656,23.804,21.656,23.74,21.615,23.71z"/><path fill="#ffbe29" d="M25.158,21.664c0.013-0.02-0.015-0.12-0.061-0.222c-0.074-0.156-0.105-0.184-0.209-0.184	c-0.332,0-0.861-0.148-1.41-0.391c-0.314-0.14-0.424-0.174-0.462-0.138c-0.097,0.092,0.064,0.309,0.314,0.424	c0.22,0.1,0.838,0.225,1.119,0.225c0.163,0,0.169,0.008,0.074,0.143l-0.069,0.097l0.186,0.005c0.1,0.003,0.24,0.018,0.312,0.036	C25.132,21.702,25.132,21.702,25.158,21.664z"/><path fill="#880e4f" d="M27.086,22.688c0-0.059-0.171-0.217-0.347-0.319c-0.135-0.082-0.158-0.084-0.158-0.018	c-0.003,0.1-0.092,0.352-0.125,0.352c-0.02,0-0.049-0.051-0.064-0.11c-0.018-0.061-0.084-0.179-0.148-0.263l-0.12-0.153	l-0.092,0.143c-0.087,0.133-0.238,0.261-0.304,0.261c-0.015,0-0.018-0.069-0.008-0.153c0.015-0.095,0.005-0.166-0.026-0.184	c-0.026-0.015-0.046-0.01-0.046,0.013c0,0.049-0.207,0.286-0.253,0.286c-0.018,0-0.043-0.069-0.056-0.151	c-0.013-0.082-0.033-0.215-0.049-0.291c-0.013-0.077,0.015-0.026,0.066,0.117l0.089,0.255l0.102-0.156	c0.054-0.087,0.1-0.181,0.1-0.209s0.018-0.041,0.041-0.028c0.023,0.013,0.054,0.117,0.069,0.23l0.031,0.207l0.11-0.123	c0.059-0.064,0.13-0.153,0.156-0.197c0.046-0.074,0.049-0.074,0.143,0.003c0.051,0.046,0.133,0.151,0.176,0.235	c0.046,0.087,0.089,0.148,0.097,0.14c0.008-0.008,0.026-0.095,0.038-0.194c0.013-0.1,0.026-0.184,0.026-0.186	c0.005-0.026,0.332,0.186,0.452,0.294c0.077,0.066,0.151,0.115,0.163,0.102c0.01-0.013,0.02-0.112,0.02-0.225	c0-0.174-0.018-0.222-0.123-0.317c-0.123-0.107-0.128-0.11-0.171-0.028c-0.059,0.102-0.128,0.105-0.128,0.003	c0-0.077-0.232-0.363-0.291-0.363c-0.015,0-0.064,0.064-0.107,0.14c-0.043,0.077-0.092,0.14-0.105,0.14	c-0.061-0.003-0.386-0.365-0.386-0.429c0-0.054,0.023-0.041,0.079,0.049c0.043,0.064,0.13,0.163,0.194,0.22	c0.125,0.11,0.171,0.082,0.22-0.13c0.015-0.061,0.038-0.11,0.054-0.11c0.056,0,0.34,0.299,0.378,0.401l0.041,0.1l0.031-0.112	c0.036-0.133,0.077-0.138,0.135-0.015c0.026,0.051,0.148,0.158,0.273,0.238l0.225,0.143l0.046-0.146	c0.026-0.079,0.059-0.125,0.074-0.102c0.023,0.036-0.036,0.276-0.082,0.327c-0.005,0.008-0.079-0.036-0.161-0.095l-0.153-0.11v0.197	c0,0.107-0.01,0.235-0.026,0.286C27.16,22.747,27.086,22.775,27.086,22.688z"/><path fill="#880e4f" d="M25.96,21.133c-0.271-0.225-0.312-0.276-0.304-0.383l0.005-0.112l0.018,0.11	c0.01,0.064,0.082,0.158,0.171,0.23l0.156,0.12l0.095-0.11c0.054-0.061,0.097-0.133,0.097-0.161	c0.003-0.072,0.015-0.066,0.197,0.092c0.163,0.14,0.166,0.143,0.189,0.051c0.013-0.051,0.008-0.146-0.01-0.212	c-0.054-0.181-0.043-0.209,0.038-0.1c0.038,0.054,0.102,0.13,0.14,0.171c0.069,0.069,0.072,0.069,0.097-0.02	c0.015-0.051,0.026-0.143,0.028-0.207v-0.112l0.146,0.166c0.135,0.153,0.148,0.158,0.189,0.087c0.026-0.043,0.046-0.148,0.046-0.232	c0-0.11,0.013-0.138,0.041-0.095c0.046,0.069,0.013,0.255-0.072,0.416l-0.061,0.115l-0.082-0.125	c-0.102-0.158-0.135-0.156-0.202,0.015c-0.061,0.163-0.102,0.176-0.163,0.051c-0.041-0.082-0.046-0.072-0.074,0.1l-0.031,0.189	l-0.186-0.143l-0.186-0.146l-0.084,0.095c-0.043,0.054-0.084,0.12-0.084,0.146C26.072,21.189,26.026,21.189,25.96,21.133z"/><path fill="#880e4f" d="M28.353,20.295c-0.1-0.087-0.166-0.171-0.151-0.186c0.015-0.015,0.033-0.018,0.038-0.01	c0.008,0.01,0.087,0.095,0.179,0.189C28.631,20.502,28.588,20.507,28.353,20.295z"/><path fill="#880e4f" d="M25.163,19.965c-0.089-0.12-0.082-0.199,0.026-0.329c0.079-0.095,0.115-0.107,0.253-0.089	c0.087,0.01,0.276,0.089,0.419,0.171c0.166,0.097,0.337,0.163,0.47,0.179c0.112,0.013,0.207,0.018,0.207,0.01	c0-0.005-0.049-0.084-0.105-0.171c-0.138-0.207-0.135-0.23,0.02-0.105c0.161,0.125,0.352,0.163,0.782,0.151l0.207-0.008l-0.12-0.117	c-0.169-0.169-0.117-0.184,0.072-0.02c0.174,0.151,0.163,0.163-0.207,0.199c-0.156,0.015-0.327,0.005-0.465-0.031	c-0.212-0.054-0.22-0.054-0.179,0.018c0.023,0.038,0.059,0.074,0.082,0.074s0.041,0.018,0.041,0.043c0,0.079-0.455,0.01-0.672-0.1	c-0.496-0.25-0.557-0.273-0.674-0.235c-0.066,0.02-0.133,0.082-0.153,0.14c-0.077,0.202,0.209,0.36,0.329,0.181	c0.033-0.051,0.026-0.087-0.036-0.151c-0.082-0.087-0.074-0.097,0.038-0.059c0.079,0.031,0.089,0.22,0.015,0.289	C25.429,20.088,25.237,20.065,25.163,19.965z"/><path fill="#880e4f" d="M27.114,19.467c-0.061-0.059-0.013-0.074,0.266-0.079c0.342-0.005,0.552-0.064,0.797-0.22	c0.199-0.123,0.25-0.1,0.064,0.031c-0.171,0.117-0.437,0.207-0.695,0.235c-0.123,0.013-0.266,0.033-0.314,0.041	C27.183,19.485,27.13,19.48,27.114,19.467z"/><path fill="#ffca28" d="M24,6c9.925,0,18,8.075,18,18s-8.075,18-18,18S6,33.925,6,24S14.075,6,24,6 M24,4	C12.954,4,4,12.954,4,24s8.954,20,20,20s20-8.954,20-20S35.046,4,24,4L24,4z"/></svg>