<svg xmlns="http://www.w3.org/2000/svg"  viewBox="0 0 48 48" width="100px" height="100px"><circle cx="24" cy="24" r="20" fill="#64b5f6"/><polygon fill="#fff" points="25.219,14.249 27.17,12.785 24.731,12.785 23.999,10.468 23.267,12.785 20.828,12.785 22.779,14.249 22.048,16.566 23.999,15.163 25.95,16.566"/><polygon fill="#fff" points="15.172,23.935 16.561,21.93 14.247,22.7 12.821,20.733 12.858,23.162 10.544,23.932 12.857,24.705 12.894,27.135 14.303,25.188 16.597,25.903"/><polygon fill="#fff" points="32.828,23.935 31.439,21.93 33.753,22.7 35.179,20.733 35.142,23.162 37.456,23.932 35.143,24.705 35.106,27.135 33.697,25.188 31.403,25.903"/><polygon fill="#fff" points="25.219,33.751 27.17,35.215 24.731,35.215 23.999,37.532 23.267,35.215 20.828,35.215 22.779,33.751 22.048,31.434 23.999,32.837 25.95,31.434"/></svg>