<svg xmlns="http://www.w3.org/2000/svg"  viewBox="0 0 48 48" width="100px" height="100px"><path fill="#d50000" d="M4,24h40c0-2.467-0.468-4.818-1.284-7H5.284C4.468,19.182,4,21.533,4,24z"/><path fill="#d50000" d="M24,44c5.592,0,10.642-2.301,14.271-6H9.729C13.358,41.699,18.408,44,24,44z"/><path fill="#ffea00" d="M38.271,10H9.729c-1.939,1.976-3.455,4.358-4.444,7h37.431C41.727,14.358,40.21,11.976,38.271,10z"/><path fill="#263238" d="M5.284,31h37.431C43.532,28.818,44,26.467,44,24H4C4,26.467,4.468,28.818,5.284,31z"/><path fill="#263238" d="M24,4c-5.592,0-10.642,2.301-14.271,6h28.543C34.642,6.301,29.592,4,24,4z"/><path fill="#ffea00" d="M9.729,38h28.543c1.939-1.976,3.455-4.358,4.444-7H5.284C6.273,33.642,7.79,36.024,9.729,38z"/><path fill="#fff" d="M32,24c0,4.417-3.583,8-8,8s-8-3.583-8-8s3.583-8,8-8S32,19.583,32,24z"/><path fill="#d90000" d="M22.656,18.578l-0.458-0.844c0.177-0.177,0.474-0.313,0.948-0.313c0,0.031-0.047,0.927-0.047,0.927 L22.656,18.578z"/><path d="M22.641,18.63l-0.49-0.901l0.021-0.021c0.208-0.214,0.547-0.328,0.974-0.328h0.036v0.042c0,0.031-0.042,0.833-0.047,0.927 v0.021L22.641,18.63z M22.245,17.745l0.427,0.786l0.391-0.208c0.016-0.307,0.036-0.734,0.042-0.859 C22.734,17.469,22.437,17.563,22.245,17.745z"/><path fill="#fcdc04" d="M23.099,18.354l0.063-0.932c0,0,0.948-0.057,1.464,0.563c0.01-0.01-0.505,0.724-0.505,0.724 L23.099,18.354z"/><path d="M24.135,18.755l-1.078-0.375l0.068-0.995h0.031c0.042-0.005,0.979-0.052,1.495,0.578c0.026,0.016,0.026,0.016-0.25,0.406 L24.135,18.755z M23.135,18.328l0.969,0.333c0.172-0.245,0.411-0.583,0.474-0.677c-0.448-0.51-1.214-0.526-1.38-0.526 L23.135,18.328z"/><path fill="#d90000" d="M24.135,18.698l0.464-0.724c0.318,0.333,0.443,0.563,0.495,0.922c0.005,0.005-0.74,0.182-0.74,0.177 C24.354,19.063,24.141,18.708,24.135,18.698z"/><path d="M24.344,19.104l-0.031-0.005v-0.021c-0.021-0.052-0.193-0.339-0.208-0.354l-0.021-0.021l0.021-0.026l0.49-0.76l0.036,0.031 c0.323,0.339,0.448,0.573,0.5,0.927l0.01,0.01l-0.016,0.026C25.099,18.953,24.354,19.104,24.344,19.104z M24.177,18.703 c0.042,0.068,0.151,0.245,0.193,0.328c0.109-0.021,0.563-0.13,0.677-0.161c-0.047-0.313-0.161-0.531-0.443-0.833L24.177,18.703z"/><path d="M22.885,30.651c0,0,0.88-1.005,2.583-0.786c-0.255-0.417-1.083-0.37-1.083-0.37s-0.26-1.953-0.057-2.052 c0.203-0.094,1.052,0.01,1.052,0.01c0.115,0,0.307-0.307,0.156-0.5c-0.156-0.193-0.604-0.932-0.422-1.078 c0.188-0.146,1.193,0.083,1.193,0.083l-2.839-3.635c0,0-0.292-1.37,0.286-2.026c0.703-0.583,0.63-1.208,0.604-1.203 c-0.094-0.635-1.063-1.089-1.714-0.505c-0.385,0.469-0.13,0.823-0.13,0.823s-1.01,0.271-1.052,0.448 c-0.042,0.177,1.141-0.031,1.141-0.031l-0.109,0.813c0,0-2.302,2.089-0.536,3.901c0.016-0.01,0.052-0.083,0.052-0.083 s0.62,0.766,1.271,0.938c0.615,0.625,0.557,0.526,0.557,0.526s0.12,0.99,0.005,1.182c-0.151-0.047-1.714-0.099-1.943-0.016 c-0.214,0.068-1.016,0.026-0.813,1.339c0.151-0.354,0.286-0.672,0.286-0.672s-0.021,0.479,0.172,0.646 c-0.031-0.5,0.182-0.833,0.182-0.833s0.042,0.547,0.161,0.625s0.12-0.885,0.792-0.807c0.667,0.083,1.146,0.057,1.146,0.057 s0.229,1.891,0.156,2.068c-0.484-0.109-1.63,0.047-1.703,0.339c0.672-0.042,0.984,0.036,0.984,0.036S22.719,30.37,22.885,30.651z"/><path d="M22.88,30.714l-0.026-0.042c-0.151-0.25,0.193-0.625,0.333-0.76c-0.125-0.021-0.427-0.052-0.906-0.026l-0.052,0.005 l0.01-0.052c0.083-0.328,1.234-0.464,1.714-0.37c0.031-0.219-0.073-1.271-0.156-1.984c-0.125,0-0.563,0.005-1.125-0.057 c-0.422-0.052-0.563,0.359-0.646,0.604c-0.036,0.12-0.057,0.182-0.104,0.198c-0.016,0.01-0.036,0.005-0.052-0.005 c-0.099-0.068-0.146-0.349-0.167-0.526c-0.057,0.135-0.141,0.385-0.12,0.698l0.005,0.094l-0.068-0.063 c-0.13-0.109-0.167-0.339-0.177-0.495c-0.057,0.125-0.135,0.307-0.224,0.505l-0.052,0.125l-0.021-0.135 c-0.182-1.182,0.443-1.297,0.745-1.354c0.036-0.005,0.073-0.01,0.094-0.021c0.234-0.089,1.667-0.036,1.938,0.01 c0.068-0.188,0.01-0.839-0.021-1.109c-0.057-0.042-0.193-0.172-0.542-0.526c-0.568-0.156-1.104-0.74-1.245-0.901 c-0.026,0.042-0.036,0.047-0.042,0.047l-0.026,0.016l-0.021-0.021c-0.464-0.479-0.688-1.021-0.672-1.609 c0.036-1.203,1.089-2.229,1.203-2.339l0.104-0.745c-0.286,0.047-1.005,0.156-1.115,0.042c-0.016-0.016-0.026-0.042-0.021-0.068 c0.042-0.172,0.792-0.396,1.036-0.464c-0.057-0.115-0.161-0.432,0.156-0.823c0.302-0.276,0.719-0.354,1.104-0.214 c0.354,0.125,0.62,0.411,0.672,0.729c0.031,0.052,0.083,0.667-0.615,1.245c-0.531,0.604-0.302,1.865-0.276,1.979l2.896,3.714 l-0.104-0.026c-0.396-0.089-1.031-0.182-1.156-0.089c-0.016,0.016-0.026,0.031-0.026,0.063c-0.031,0.219,0.307,0.781,0.448,0.964 c0.078,0.099,0.089,0.24,0.021,0.38c-0.047,0.089-0.125,0.177-0.203,0.177c-0.24-0.026-0.88-0.083-1.036-0.01 c-0.109,0.052-0.047,1.063,0.073,1.979c0.167-0.005,0.849,0,1.089,0.391l0.036,0.063l-0.078-0.005 c-1.661-0.214-2.536,0.76-2.547,0.776L22.88,30.714z M22.641,29.797c0.422,0,0.625,0.052,0.635,0.057l0.068,0.016l-0.052,0.047 c-0.135,0.12-0.448,0.453-0.391,0.667c0.188-0.188,1.036-0.922,2.484-0.766c-0.286-0.323-0.99-0.286-1-0.286l-0.036,0.005V29.5 c-0.063-0.464-0.245-1.99-0.036-2.089c0.208-0.099,1.036,0,1.073,0.005c0.031,0,0.089-0.057,0.13-0.141 c0.021-0.042,0.078-0.188-0.01-0.297c-0.104-0.135-0.5-0.745-0.469-1.021c0.005-0.052,0.026-0.089,0.057-0.109 c0.161-0.13,0.849-0.005,1.12,0.052l-2.781-3.563v-0.01c-0.01-0.052-0.286-1.391,0.297-2.057c0.583-0.479,0.625-0.99,0.609-1.125 h-0.01l-0.005-0.042c-0.042-0.297-0.292-0.563-0.625-0.682c-0.365-0.13-0.74-0.057-1.026,0.198 c-0.359,0.432-0.125,0.766-0.125,0.771l0.036,0.042l-0.057,0.016c-0.484,0.135-1,0.328-1.026,0.422 c0.047,0.063,0.604,0.01,1.099-0.073l0.052-0.01l-0.12,0.875l-0.01,0.005c-0.01,0.01-1.151,1.063-1.193,2.292 c-0.016,0.557,0.198,1.068,0.625,1.526c0.01-0.016,0.016-0.031,0.026-0.047l0.026-0.047l0.036,0.042 c0.005,0.01,0.615,0.76,1.25,0.922l0.01,0.005l0.005,0.005c0.453,0.464,0.531,0.521,0.542,0.531l-0.01,0.021l0.031-0.01 l0.016,0.026l-0.01,0.01c0.021,0.177,0.109,0.995,0,1.182l-0.01,0.026l-0.031-0.01c-0.156-0.047-1.703-0.099-1.922-0.016 c-0.031,0.01-0.063,0.016-0.104,0.026c-0.286,0.052-0.807,0.146-0.703,1.135c0.13-0.302,0.24-0.542,0.24-0.542l0.068,0.016 c0,0.005-0.01,0.333,0.094,0.526c0-0.438,0.182-0.729,0.193-0.74l0.063-0.094l0.005,0.109c0.021,0.214,0.068,0.526,0.135,0.594 c0.016-0.026,0.036-0.089,0.057-0.146c0.083-0.25,0.24-0.719,0.724-0.661c0.656,0.078,1.141,0.057,1.146,0.057h0.031l0.005,0.031 c0.021,0.198,0.224,1.906,0.151,2.089l-0.01,0.026l-0.031-0.005c-0.458-0.109-1.448,0.036-1.635,0.26 C22.453,29.802,22.552,29.797,22.641,29.797z"/><path fill="#9ca69c" d="M23.161,20.339c0,0-1.677,1.844-0.953,3.255c0.036-0.198,0.021-0.318,0.047-0.313 c-0.042-0.021,0.208,0.172,0.188,0.135c0.005-0.104-0.078-0.323-0.078-0.323c0.078,0.021,0.151,0.036,0.229,0.057 c-0.047-0.083-0.089-0.167-0.13-0.245c0.104,0.01,0.214,0.021,0.318,0.036c0,0-0.109-0.302-0.073-0.302 c0.036,0,0.26,0.016,0.26,0.016C22.495,21.807,22.943,21.099,23.161,20.339z"/><path fill="#9ca69c" d="M22.224,23.708l-0.047-0.094c-0.729-1.422,0.938-3.281,0.953-3.302l0.068,0.036 c-0.047,0.156-0.099,0.313-0.156,0.464c-0.208,0.599-0.406,1.167-0.036,1.828l0.031,0.063l-0.068-0.005 c-0.052-0.005-0.167-0.01-0.229-0.016c0.01,0.052,0.047,0.156,0.078,0.25l0.021,0.057l-0.307-0.036l0.135,0.255l-0.245-0.063 c0.026,0.073,0.057,0.188,0.057,0.26l0.01,0.021l-0.026,0.026c-0.036,0.021-0.13-0.047-0.193-0.099c0,0,0,0.005,0,0.01 c0,0.052-0.005,0.135-0.026,0.234L22.224,23.708z M23.068,20.505c-0.354,0.443-1.349,1.828-0.88,2.958 c0.005-0.042,0.01-0.078,0.01-0.104c0.005-0.031,0.005-0.052,0.005-0.068l-0.005-0.005l0.042-0.052l0.031,0.016l-0.005,0.016 l0.01-0.01c0.01,0.01,0.073,0.063,0.12,0.094c-0.01-0.083-0.047-0.198-0.068-0.245l-0.026-0.063l0.214,0.052l-0.125-0.234 l0.333,0.042c-0.083-0.24-0.063-0.266-0.052-0.276l0.01-0.021h0.021c0.026,0,0.13,0.01,0.203,0.016 c-0.344-0.672-0.135-1.26,0.068-1.833C23.005,20.693,23.036,20.599,23.068,20.505z"/><path fill="#9ca69c" d="M23.74,18.755c0,0,0.089,0.641-0.255,0.823c-0.057,0.042-0.276,0.109-0.24,0.24 c0.036,0.177,0.135,0.146,0.271,0.115C23.875,19.865,24.297,19.094,23.74,18.755z"/><path fill="#9ca69c" d="M23.375,19.995c-0.031,0-0.063-0.005-0.083-0.021c-0.042-0.026-0.073-0.073-0.089-0.146 c-0.031-0.13,0.12-0.208,0.208-0.25c0.021-0.01,0.036-0.021,0.047-0.031c0.323-0.172,0.245-0.776,0.245-0.781l-0.01-0.078 l0.068,0.042c0.224,0.135,0.323,0.359,0.271,0.625c-0.052,0.297-0.286,0.578-0.51,0.615l-0.016,0.005 C23.458,19.984,23.411,19.995,23.375,19.995z M23.786,18.833c0.01,0.188,0.005,0.62-0.286,0.776 c-0.01,0.01-0.031,0.021-0.052,0.031c-0.094,0.047-0.188,0.104-0.167,0.167c0.01,0.057,0.026,0.089,0.047,0.099 c0.036,0.021,0.089,0.01,0.156-0.005l0.021-0.005c0.193-0.036,0.406-0.297,0.453-0.557C23.984,19.214,23.99,18.995,23.786,18.833z"/><path fill="#fff" d="M23.13,19.307c0,0.073-0.063,0.135-0.135,0.135c-0.078,0-0.135-0.063-0.135-0.135 c0-0.078,0.057-0.135,0.135-0.135C23.068,19.172,23.13,19.229,23.13,19.307z"/><path fill="#d90000" d="M22.583,19.833c-0.089,0.073-0.557,0.557-0.099,0.734c0.479-0.13,0.349-0.219,0.453-0.323 C22.937,20.026,22.703,19.969,22.583,19.833z"/><path d="M22.484,20.604h-0.01c-0.13-0.052-0.203-0.13-0.224-0.234c-0.036-0.229,0.24-0.505,0.307-0.563l0.026-0.021l0.026,0.026 c0.036,0.042,0.083,0.073,0.135,0.109c0.109,0.078,0.229,0.161,0.229,0.323v0.016l-0.01,0.01c-0.026,0.026-0.036,0.047-0.047,0.073 c-0.036,0.094-0.089,0.172-0.422,0.26H22.484z M22.578,19.885c-0.094,0.089-0.276,0.313-0.25,0.474 c0.01,0.073,0.063,0.125,0.161,0.167c0.313-0.089,0.333-0.151,0.359-0.208c0.01-0.026,0.021-0.057,0.047-0.089 c-0.005-0.115-0.089-0.177-0.193-0.245C22.661,19.953,22.62,19.922,22.578,19.885z"/><path fill="#9ca69c" d="M23.594,24.396c-0.021,0.104-0.125,0.49,0.021,0.786c0.401-0.167,0.583-0.12,0.724-0.031 C24.005,24.885,23.875,24.771,23.594,24.396z"/><path fill="#9ca69c" d="M23.594,25.234l-0.016-0.036c-0.146-0.292-0.057-0.656-0.026-0.792l0.026-0.099l0.047,0.068 c0.281,0.375,0.406,0.484,0.734,0.75l-0.047,0.057c-0.12-0.078-0.292-0.13-0.687,0.036L23.594,25.234z M23.615,24.484 c-0.031,0.146-0.078,0.422,0.016,0.651c0.229-0.094,0.391-0.115,0.505-0.099C23.937,24.87,23.812,24.745,23.615,24.484z"/><path fill="#fff" d="M24.286,26.219l0.026,0.901c0,0,0.313,0.057,0.458,0C24.917,27.063,24.76,26.495,24.286,26.219z"/><path fill="#fff" d="M24.583,27.182c-0.135,0-0.271-0.021-0.276-0.026l-0.031-0.005l-0.026-0.995l0.057,0.031 c0.38,0.219,0.568,0.635,0.552,0.839c-0.005,0.094-0.052,0.12-0.073,0.13C24.729,27.177,24.656,27.182,24.583,27.182z M24.349,27.089c0.078,0.01,0.302,0.036,0.406-0.005c0.016-0.005,0.026-0.026,0.031-0.063c0.01-0.172-0.146-0.521-0.458-0.729 L24.349,27.089z"/><path fill="#9ca69c" d="M26.562,26.333c0,0-0.578-1.401-2.057-1.755c-1.479-0.349-1.286-1.927-1.167-2.026 c0.063-0.135,0.115-0.344,0.536-0.146c0.427,0.203,2.391,1.193,2.672,1.24S26.589,26.365,26.562,26.333z"/><path d="M26.552,26.38l-0.021-0.031c-0.005-0.016-0.594-1.385-2.036-1.734c-0.839-0.198-1.13-0.771-1.229-1.214 c-0.089-0.391-0.036-0.786,0.042-0.87c0.005-0.01,0.005-0.016,0.01-0.026c0.031-0.073,0.073-0.167,0.172-0.203 c0.094-0.036,0.224-0.01,0.401,0.073c0.099,0.047,0.281,0.135,0.5,0.245c0.729,0.354,1.953,0.953,2.161,0.99 c0.078,0.016,0.125,0.125,0.146,0.365c0.057,0.547-0.036,2.359-0.12,2.396L26.552,26.38z M23.589,22.365 c-0.026,0-0.052,0-0.073,0.01c-0.068,0.026-0.099,0.094-0.13,0.156c-0.005,0.016-0.01,0.026-0.016,0.036v0.01l-0.01,0.005 c-0.036,0.031-0.12,0.411-0.01,0.849c0.104,0.406,0.391,0.922,1.167,1.109c1.234,0.297,1.854,1.328,2.031,1.667 c0.052-0.469,0.182-2.229,0.016-2.505c-0.01-0.016-0.021-0.021-0.021-0.021c-0.224-0.036-1.401-0.615-2.182-1 c-0.224-0.104-0.401-0.193-0.5-0.24C23.75,22.391,23.656,22.365,23.589,22.365z"/><path fill="#d90000" d="M25.156,24.573c-0.026,0.016,1.979,1.182,1.375,2.188c0.568-0.38,0.385-1.036,0.385-1.036 s0.469,1.214-0.667,1.807c0.12,0.104,0.203,0.083,0.203,0.083l-0.198,0.193c0,0-0.083,0.146,0.677-0.229 c-0.208,0.172-0.224,0.292-0.224,0.292s0.057,0.161,0.552-0.276c-0.401,0.438-0.49,0.661-0.49,0.656 c1.089-0.099,3.453-3.63-0.745-4.677c0.224,0.234,0.193,0.203,0.193,0.203L25.156,24.573z"/><path d="M26.771,28.286h-0.005l-0.031-0.01v-0.063h0.016c0.057-0.109,0.141-0.234,0.245-0.365c-0.115,0.073-0.203,0.099-0.26,0.083 c-0.047-0.01-0.057-0.047-0.063-0.052v-0.016c0-0.01,0.01-0.068,0.078-0.156c-0.458,0.208-0.5,0.167-0.521,0.141 c-0.016-0.021-0.016-0.047,0-0.063l0.005-0.01l0.135-0.135c-0.042-0.01-0.089-0.036-0.141-0.083l-0.042-0.036l0.047-0.026 c0.698-0.365,0.776-0.958,0.74-1.359c-0.036,0.219-0.141,0.469-0.422,0.656L26.5,26.74c0.234-0.385,0.198-1.057-1.276-2.073 c-0.099-0.068-0.104-0.073-0.104-0.094v-0.021l0.016-0.01l1.026-0.771c-0.026-0.026-0.073-0.078-0.161-0.172l-0.094-0.094 l0.13,0.031c2.229,0.557,2.474,1.786,2.422,2.469c-0.094,1.156-1.089,2.224-1.672,2.281C26.781,28.286,26.776,28.286,26.771,28.286 z M27.24,27.568l0.052,0.052c-0.198,0.219-0.354,0.417-0.448,0.578c0.563-0.125,1.453-1.12,1.536-2.203 c0.083-1.104-0.708-1.938-2.234-2.349c0.031,0.031,0.057,0.057,0.073,0.078l0.026,0.026H26.24c0.026,0.031,0.016,0.042,0.005,0.052 l-0.026,0.026l-0.005-0.005l-1,0.75c0.016,0.005,0.031,0.016,0.047,0.026c1.354,0.938,1.526,1.604,1.37,2.031 c0.391-0.365,0.255-0.88,0.25-0.901l0.073-0.026c0.005,0.016,0.448,1.219-0.635,1.828c0.073,0.052,0.12,0.042,0.12,0.042 l0.13-0.031l-0.245,0.245c0.068-0.016,0.224-0.068,0.594-0.245l0.036,0.063c-0.146,0.125-0.193,0.214-0.203,0.25l0.005,0.005 C26.797,27.865,26.917,27.844,27.24,27.568z"/><path fill="#fff" d="M25.245,24.224c0.276,0.193,0.37,0.26,0.401,0.354c-0.245-0.057-0.474-0.042-0.474-0.042 s-0.536-0.51-0.635-0.552c-0.073,0-0.49-0.266-0.49-0.266c-0.208-0.104-0.401-0.828,0.37-0.62c0.797,0.38,0.906,0.411,0.906,0.411 c0.318,0.099,0.635,0.198,0.953,0.297c0.182,0.203,0.365,0.406,0.547,0.609c0,0-0.974-0.479-1.094-0.49 c0.266,0.219,0.417,0.516,0.417,0.516C25.839,24.354,25.568,24.271,25.245,24.224z"/><path d="M25.703,24.63l-0.063-0.016c-0.24-0.052-0.464-0.036-0.464-0.036h-0.021l-0.01-0.01c-0.203-0.198-0.547-0.51-0.62-0.547 c-0.094-0.016-0.406-0.208-0.5-0.271c-0.141-0.068-0.255-0.349-0.182-0.542c0.042-0.104,0.167-0.26,0.583-0.146 c0.776,0.37,0.901,0.406,0.906,0.411l0.964,0.297l0.552,0.62l-0.047,0.063c-0.276-0.141-0.688-0.339-0.922-0.432 c0.188,0.193,0.292,0.391,0.297,0.401l0.042,0.078l-0.146-0.042c-0.234-0.063-0.443-0.125-0.672-0.167 c0.177,0.125,0.25,0.188,0.281,0.276L25.703,24.63z M25.255,24.5c0.073,0,0.188,0.005,0.318,0.026 c-0.047-0.057-0.141-0.125-0.313-0.245l-0.036-0.026l0.026-0.068c0.297,0.047,0.542,0.115,0.818,0.193 c-0.063-0.099-0.193-0.281-0.365-0.422l-0.089-0.078l0.115,0.01c0.094,0.005,0.641,0.266,0.932,0.411l-0.406-0.464l-0.943-0.292 c0-0.005-0.12-0.036-0.911-0.411c-0.26-0.073-0.432-0.036-0.484,0.104c-0.063,0.156,0.047,0.396,0.146,0.443 c0.198,0.125,0.432,0.26,0.474,0.266h0.016c0.094,0.042,0.542,0.464,0.635,0.552C25.203,24.5,25.224,24.5,25.255,24.5z"/><path d="M21.458,19.906c0,0,0.932-0.224,1.047-0.193"/><path fill="#fff" d="M21.464,19.943l-0.016-0.073c0.156-0.036,0.948-0.224,1.068-0.193L22.49,19.75 C22.427,19.729,21.911,19.839,21.464,19.943z"/></svg>