<svg xmlns="http://www.w3.org/2000/svg"  viewBox="0 0 48 48" width="100px" height="100px"><path fill="#ffd600" d="M4.402,28H16v14.325C18.451,43.396,21.154,44,24,44V28h19.598C43.861,26.707,44,25.37,44,24 s-0.139-2.707-0.402-4H24V4c-2.846,0-5.549,0.604-8,1.675V20H4.402C4.139,21.293,4,22.63,4,24S4.139,26.707,4.402,28z"/><path fill="#e53935" d="M4.101,26H18v17.082c1.283,0.403,2.62,0.68,4,0.817V26h21.899C43.964,25.342,44,24.675,44,24 s-0.036-1.342-0.101-2H22V4.101c-1.38,0.137-2.717,0.414-4,0.817V22H4.101C4.036,22.658,4,23.325,4,24S4.036,25.342,4.101,26z"/><path fill="#1976d2" d="M24,20h19.598C41.745,10.871,33.676,4,24,4V20z"/><path fill="#1976d2" d="M24,28v16c9.676,0,17.745-6.871,19.598-16H24z"/><path fill="#1976d2" d="M16,20V5.675C10.119,8.247,5.71,13.557,4.402,20H16z"/><path fill="#1976d2" d="M16,28H4.402C5.71,34.443,10.119,39.753,16,42.325V28z"/></svg>