<svg xmlns="http://www.w3.org/2000/svg"  viewBox="0 0 48 48" width="100px" height="100px"><circle cx="24" cy="24" r="20" fill="#eceff1"/><polygon fill="#1e88e5" points="29.956,33.247 29.55,34.68 30.496,34.247 31.091,35.072 31.808,32.138 31.064,31.368"/><path fill="#263238" d="M31.091,35.121c-0.016,0-0.031-0.008-0.041-0.021L30.48,34.31l-0.909,0.416 c-0.02,0.007-0.04,0.004-0.054-0.008c-0.015-0.013-0.021-0.033-0.016-0.052l0.406-1.433c0.001-0.004,0.003-0.008,0.005-0.012 l1.108-1.879c0.008-0.014,0.021-0.022,0.037-0.024c0.016,0.002,0.031,0.004,0.042,0.015l0.744,0.771 c0.012,0.013,0.017,0.03,0.012,0.047l-0.716,2.933c-0.004,0.02-0.02,0.033-0.039,0.037C31.098,35.121,31.095,35.121,31.091,35.121 z M30.497,34.197c0.016,0,0.031,0.007,0.041,0.021l0.531,0.736l0.684-2.801l-0.679-0.703l-1.071,1.816l-0.375,1.322l0.848-0.388 C30.482,34.198,30.49,34.197,30.497,34.197z"/><polygon fill="#1e88e5" points="33.227,23.164 31.74,25.853 32.402,25.813 31.402,29.949 31.794,30.084 32.781,25.88 33.294,26.164"/><path fill="#263238" d="M31.794,30.134c-0.005,0-0.011-0.001-0.016-0.003l-0.392-0.135 c-0.024-0.008-0.039-0.033-0.033-0.059l0.985-4.071l-0.595,0.037c-0.001,0-0.002,0-0.003,0c-0.017,0-0.033-0.009-0.042-0.023 c-0.01-0.015-0.01-0.034-0.001-0.051l1.486-2.69c0.011-0.02,0.033-0.029,0.056-0.024c0.022,0.006,0.038,0.025,0.038,0.048 l0.068,3.001c0,0.018-0.009,0.034-0.024,0.044c-0.015,0.009-0.035,0.009-0.05,0.001l-0.456-0.252l-0.972,4.14 c-0.003,0.014-0.012,0.025-0.025,0.032C31.811,30.132,31.802,30.134,31.794,30.134z M31.461,29.917l0.297,0.102l0.974-4.15 c0.004-0.015,0.014-0.027,0.028-0.034c0.014-0.008,0.03-0.006,0.045,0.002l0.438,0.242l-0.062-2.729l-1.353,2.448l0.571-0.035 c0.015,0.003,0.031,0.005,0.041,0.018c0.01,0.013,0.014,0.028,0.011,0.044L31.461,29.917z"/><polygon fill="#1e88e5" points="35.498,22.542 33.551,24.65 34.078,24.813 31.51,29.665 31.902,29.733 34.43,25.015 34.862,25.475"/><path fill="#263238" d="M31.902,29.782c-0.003,0-0.006,0-0.008-0.001l-0.392-0.067c-0.016-0.002-0.029-0.013-0.037-0.026 c-0.007-0.015-0.007-0.031,0-0.046l2.54-4.799l-0.469-0.145c-0.017-0.005-0.029-0.019-0.034-0.035s0-0.034,0.012-0.047 l1.946-2.108c0.016-0.016,0.04-0.021,0.06-0.01c0.02,0.01,0.031,0.032,0.026,0.055l-0.635,2.933 c-0.004,0.018-0.018,0.032-0.036,0.037c-0.019,0.006-0.038,0-0.05-0.014l-0.385-0.408l-2.495,4.655 C31.938,29.772,31.92,29.782,31.902,29.782z M31.587,29.628l0.289,0.049l2.51-4.685c0.007-0.015,0.021-0.024,0.038-0.026 c0.014-0.001,0.032,0.005,0.043,0.016l0.367,0.39l0.576-2.66l-1.768,1.915l0.451,0.139c0.014,0.005,0.026,0.015,0.032,0.028 c0.005,0.014,0.005,0.029-0.002,0.043L31.587,29.628z"/><polygon fill="#1e88e5" points="36.646,24.542 34.2,26.178 34.727,26.435 32.01,29.651 32.416,29.8 35.052,26.718 35.376,27.232"/><path fill="#263238" d="M32.416,29.85c-0.006,0-0.012-0.001-0.017-0.003l-0.406-0.148 c-0.016-0.006-0.027-0.019-0.031-0.034s0-0.032,0.01-0.045l2.675-3.168l-0.469-0.229c-0.016-0.008-0.027-0.023-0.028-0.042 c-0.001-0.018,0.007-0.034,0.022-0.045l2.446-1.636c0.018-0.012,0.043-0.011,0.061,0.004c0.017,0.015,0.022,0.039,0.013,0.06 l-1.271,2.69c-0.008,0.018-0.021,0.024-0.045,0.028c-0.017,0-0.033-0.009-0.042-0.023l-0.288-0.456l-2.592,3.029 C32.444,29.844,32.43,29.85,32.416,29.85z M32.095,29.629l0.306,0.112l2.613-3.055c0.01-0.013,0.025-0.015,0.042-0.018 c0.016,0.001,0.03,0.01,0.039,0.023l0.275,0.437l1.154-2.445L34.3,26.171l0.449,0.219c0.014,0.007,0.024,0.02,0.027,0.034 c0.003,0.016,0,0.031-0.011,0.043L32.095,29.629z"/><path fill="#388e3c" d="M16.777,29.368c0,0,0.351-0.149,0.5-0.392c0.149-0.243,0.149-1,0.149-1s-0.297,0.419-0.554,0.527 c-0.257,0.108-0.446,0.757-0.446,0.757s-0.081-0.487,0.257-0.919c0.338-0.433,0.135-1.446,0.135-1.446s-0.108,0.568-0.405,0.716 c-0.297,0.149-0.23,0.743-0.23,0.879s-0.095,0.284-0.095,0.284s-0.378-0.541-0.365-0.703s0-0.311,0.216-0.46 c0.216-0.149,0.676-0.689,0.203-1.73c-0.095,0.595-0.23,0.649-0.365,0.743c-0.135,0.095-0.23,0.568-0.189,0.757 s-0.054,0.433-0.054,0.433s-0.378-0.689-0.27-1.068s0.892-1.095,0.351-1.987c-0.054,0.635-0.27,0.703-0.392,0.784 s-0.351,0.514-0.284,0.77c0.068,0.257-0.041,0.446-0.041,0.446s-0.351-0.906-0.189-1.203s0.852-0.865,0.446-1.798 c-0.162,0.378-0.324,0.46-0.433,0.554c-0.108,0.095-0.284,0.446-0.243,0.784c0.041,0.338,0.014,0.676,0.014,0.676 s-0.46-0.852-0.338-1.095s0.5-0.797,0.5-1.108c0-0.311-0.378-1.244-0.378-1.244s-0.081,0.554-0.216,0.797 s-0.054,0.554-0.041,0.906s-0.081,0.487-0.081,0.487s-0.378-0.743-0.27-1.027c0.108-0.284-0.054-1.5-0.797-1.838 c-0.297,0.716-0.189,0.919-0.068,1.23c0.122,0.311,0.784,0.946,0.879,1.527c-0.446-0.054-0.716-0.635-0.825-0.825 s-0.473-0.635-1.081-0.568c0.243,0.892,0.676,1.311,1.203,1.406c0.527,0.095,0.906,0.446,1.095,1.257 c-0.27-0.095-0.5-0.77-0.919-0.797s-0.716-0.203-0.892-0.311c0.068,0.825,0.446,0.987,0.825,1.095s1.122,0.216,1.406,0.906 c-0.419-0.284-0.865-0.284-1.068-0.243c-0.203,0.041-0.703,0-0.879-0.108c0.257,0.716,1.027,0.784,1.23,0.743 c0.203-0.041,0.852-0.149,1.189,0.676c-0.554-0.46-0.811-0.311-1.068-0.297c-0.257,0.014-0.527,0.135-0.879,0.014 c0.324,0.608,0.825,0.649,1.122,0.635c0.297-0.014,0.973,0.054,1.244,0.622c-0.811-0.243-0.757-0.189-1.095-0.122 c-0.338,0.068-0.622,0-0.973-0.122c0.284,0.797,1.054,0.838,1.298,0.743c0.243-0.095,0.73-0.149,1.122,0.162 c-0.622-0.068-0.825,0.041-0.987,0.176s-0.514,0.27-0.757,0.203c0.527,0.365,1.487,0.189,1.771-0.014 C16.345,29.678,16.777,29.368,16.777,29.368z"/><path fill="#263238" d="M14.813,29.911c-0.307,0-0.62-0.061-0.848-0.219c-0.02-0.014-0.027-0.04-0.017-0.062 c0.01-0.021,0.034-0.036,0.059-0.026c0.235,0.06,0.568-0.074,0.711-0.193s0.322-0.235,0.825-0.203 c-0.343-0.179-0.72-0.123-0.91-0.05c-0.161,0.062-0.466,0.058-0.741-0.066c-0.202-0.093-0.474-0.29-0.622-0.707 c-0.007-0.018-0.002-0.038,0.011-0.052c0.014-0.013,0.035-0.018,0.052-0.012c0.357,0.124,0.626,0.184,0.947,0.12 c0.045-0.009,0.083-0.018,0.117-0.025c0.224-0.052,0.303-0.059,0.884,0.112c-0.32-0.497-0.995-0.497-1.138-0.488 c-0.026,0.001-0.051,0.002-0.076,0.002c-0.497,0-0.855-0.218-1.093-0.664c-0.01-0.018-0.007-0.04,0.006-0.056 c0.014-0.016,0.037-0.021,0.055-0.015c0.237,0.08,0.434,0.047,0.625,0.015c0.081-0.014,0.157-0.027,0.235-0.031 c0.042-0.002,0.085-0.009,0.129-0.015c0.194-0.03,0.431-0.062,0.806,0.196c-0.227-0.399-0.578-0.554-1.044-0.461 c-0.244,0.052-1.027-0.052-1.287-0.776c-0.007-0.02-0.001-0.042,0.016-0.056c0.016-0.013,0.039-0.015,0.058-0.004 c0.157,0.098,0.635,0.143,0.842,0.103c0.231-0.045,0.602-0.024,0.958,0.162c-0.273-0.463-0.793-0.596-1.149-0.688 c-0.054-0.014-0.105-0.026-0.15-0.04c-0.397-0.113-0.792-0.295-0.861-1.139c-0.001-0.019,0.008-0.037,0.023-0.047 c0.017-0.01,0.036-0.01,0.053,0c0.157,0.097,0.449,0.277,0.869,0.304c0.269,0.018,0.458,0.268,0.625,0.488 c0.073,0.097,0.144,0.19,0.212,0.251c-0.179-0.655-0.507-1.006-1.025-1.1c-0.592-0.106-1.01-0.592-1.242-1.442 c-0.004-0.014-0.001-0.028,0.007-0.041c0.008-0.012,0.021-0.02,0.036-0.021c0.722-0.082,1.09,0.523,1.13,0.594 c0.011,0.02,0.024,0.043,0.039,0.069c0.114,0.208,0.342,0.626,0.679,0.716c-0.082-0.338-0.347-0.695-0.562-0.986 c-0.136-0.183-0.252-0.341-0.299-0.459l-0.017-0.042c-0.116-0.293-0.208-0.523,0.084-1.227c0.005-0.012,0.016-0.022,0.028-0.027 c0.014-0.004,0.027-0.004,0.039,0.001c0.772,0.352,0.944,1.588,0.824,1.902c-0.071,0.187,0.105,0.639,0.22,0.888 c0.021-0.073,0.041-0.19,0.035-0.363c-0.003-0.088-0.011-0.173-0.019-0.256c-0.022-0.247-0.043-0.48,0.065-0.676 c0.129-0.232,0.209-0.775,0.21-0.78c0.003-0.022,0.021-0.04,0.043-0.043c0.02,0.001,0.043,0.01,0.052,0.031 c0.016,0.038,0.382,0.945,0.382,1.263c0,0.247-0.219,0.627-0.379,0.904c-0.051,0.089-0.097,0.167-0.126,0.227 c-0.067,0.135,0.095,0.559,0.251,0.88c0.002-0.127,0-0.303-0.021-0.478c-0.043-0.361,0.144-0.726,0.26-0.827 c0.018-0.016,0.037-0.031,0.058-0.048c0.103-0.081,0.231-0.183,0.362-0.489c0.008-0.019,0.026-0.03,0.046-0.03l0,0 c0.02,0,0.038,0.012,0.046,0.03c0.34,0.781-0.069,1.323-0.312,1.647c-0.057,0.075-0.106,0.141-0.135,0.194 c-0.106,0.194,0.04,0.727,0.144,1.03c0.016-0.073,0.023-0.172-0.007-0.285c-0.073-0.279,0.163-0.73,0.305-0.825 c0.012-0.008,0.025-0.016,0.04-0.024c0.12-0.073,0.284-0.173,0.33-0.721c0.002-0.021,0.017-0.04,0.039-0.045 c0.016-0.008,0.043,0.004,0.054,0.022c0.422,0.696,0.062,1.298-0.176,1.695c-0.078,0.131-0.145,0.243-0.17,0.331 c-0.076,0.268,0.112,0.715,0.21,0.921c0.02-0.082,0.037-0.194,0.017-0.288c-0.043-0.2,0.053-0.698,0.209-0.809l0.027-0.019 c0.12-0.081,0.232-0.158,0.317-0.692c0.003-0.021,0.021-0.039,0.042-0.042c0.021,0.001,0.043,0.009,0.052,0.029 c0.553,1.216-0.139,1.736-0.22,1.792c-0.175,0.12-0.182,0.232-0.191,0.374l-0.003,0.049c-0.008,0.095,0.17,0.395,0.31,0.603 c0.024-0.051,0.05-0.122,0.05-0.188c0-0.016-0.001-0.038-0.002-0.066c-0.009-0.213-0.03-0.712,0.26-0.857 c0.271-0.136,0.377-0.675,0.378-0.681c0.005-0.023,0.025-0.04,0.049-0.04l0,0c0.024,0,0.044,0.017,0.049,0.04 c0.009,0.042,0.203,1.041-0.145,1.486c-0.161,0.205-0.222,0.425-0.244,0.594c0.083-0.199,0.214-0.44,0.375-0.508 c0.241-0.102,0.53-0.506,0.533-0.511c0.012-0.017,0.036-0.023,0.056-0.019c0.021,0.007,0.035,0.026,0.035,0.048 c0,0.031-0.001,0.773-0.156,1.026c-0.146,0.24-0.471,0.389-0.518,0.409c-0.048,0.033-0.42,0.28-0.931,0.28 c-0.03,0-0.062-0.001-0.093-0.003C15.594,29.811,15.208,29.911,14.813,29.911z M14.222,29.715c0.51,0.196,1.263,0.061,1.513-0.118 c0.01-0.006,0.02-0.015,0.033-0.009c0.034,0.002,0.068,0.004,0.102,0.004c0.504,0,0.875-0.263,0.879-0.266 c0.003-0.002,0.006-0.004,0.01-0.005c0.003-0.002,0.339-0.146,0.477-0.372c0.101-0.164,0.129-0.592,0.138-0.822 c-0.111,0.136-0.303,0.347-0.481,0.422c-0.193,0.081-0.367,0.551-0.418,0.725c-0.007,0.022-0.03,0.033-0.051,0.036 c-0.023-0.001-0.042-0.019-0.046-0.042c-0.003-0.021-0.081-0.514,0.267-0.959c0.224-0.285,0.197-0.854,0.16-1.173 c-0.063,0.184-0.18,0.425-0.368,0.52c-0.232,0.116-0.213,0.57-0.205,0.764c0.001,0.029,0.002,0.054,0.002,0.07 c0,0.147-0.098,0.304-0.103,0.311c-0.009,0.014-0.024,0.022-0.041,0.022c0,0,0,0-0.001,0c-0.016,0-0.032-0.008-0.041-0.021 c-0.065-0.092-0.388-0.563-0.374-0.734l0.003-0.048c0.01-0.148,0.02-0.302,0.234-0.449c0.07-0.049,0.647-0.484,0.25-1.516 c-0.09,0.431-0.211,0.513-0.33,0.594l-0.026,0.018c-0.112,0.078-0.207,0.529-0.169,0.705c0.043,0.202-0.052,0.451-0.057,0.462 c-0.007,0.018-0.024,0.03-0.043,0.031c-0.025,0.001-0.038-0.01-0.047-0.025c-0.016-0.029-0.387-0.712-0.274-1.106 c0.028-0.101,0.099-0.218,0.18-0.354c0.222-0.371,0.52-0.869,0.25-1.453c-0.069,0.461-0.241,0.565-0.359,0.637 c-0.013,0.008-0.025,0.016-0.036,0.023c-0.105,0.069-0.326,0.479-0.264,0.716c0.072,0.273-0.041,0.476-0.045,0.483 c-0.01,0.017-0.028,0.027-0.047,0.025c-0.019-0.001-0.036-0.014-0.042-0.031c-0.015-0.038-0.358-0.931-0.187-1.246 c0.033-0.06,0.084-0.127,0.143-0.206c0.234-0.31,0.581-0.771,0.343-1.44c-0.125,0.249-0.249,0.348-0.343,0.422 c-0.019,0.015-0.037,0.029-0.054,0.044c-0.097,0.085-0.264,0.423-0.226,0.74c0.041,0.339,0.015,0.672,0.014,0.686 c-0.002,0.022-0.018,0.04-0.04,0.045c-0.019,0.008-0.044-0.005-0.054-0.025c-0.048-0.089-0.468-0.882-0.339-1.141 c0.031-0.061,0.077-0.141,0.129-0.232c0.154-0.267,0.366-0.633,0.366-0.854c0-0.22-0.203-0.778-0.31-1.059 c-0.036,0.187-0.102,0.475-0.192,0.637c-0.093,0.168-0.075,0.377-0.053,0.618c0.007,0.084,0.015,0.171,0.019,0.261 c0.014,0.364-0.085,0.512-0.09,0.518c-0.009,0.014-0.025,0.021-0.041,0.021c-0.019-0.006-0.036-0.011-0.044-0.027 c-0.04-0.078-0.385-0.772-0.273-1.067c0.106-0.278-0.055-1.401-0.725-1.753c-0.251,0.626-0.172,0.827-0.063,1.102l0.017,0.042 c0.042,0.106,0.155,0.26,0.286,0.437c0.237,0.32,0.533,0.719,0.595,1.102c0.002,0.016-0.002,0.031-0.013,0.042 c-0.011,0.013-0.027,0.016-0.042,0.016c-0.426-0.053-0.695-0.544-0.824-0.781c-0.015-0.025-0.027-0.049-0.038-0.067 c-0.035-0.062-0.349-0.581-0.973-0.549c0.224,0.774,0.609,1.216,1.147,1.312c0.593,0.106,0.954,0.518,1.135,1.294 c0.004,0.019-0.002,0.037-0.016,0.049c-0.013,0.013-0.032,0.018-0.05,0.01c-0.126-0.044-0.237-0.19-0.354-0.346 c-0.154-0.204-0.329-0.435-0.552-0.449c-0.374-0.023-0.657-0.165-0.829-0.266c0.084,0.695,0.416,0.848,0.778,0.952 c0.045,0.013,0.095,0.025,0.148,0.039c0.411,0.105,1.03,0.265,1.291,0.895c0.008,0.021,0.002,0.044-0.015,0.059 c-0.019,0.012-0.042,0.014-0.06,0.002c-0.489-0.33-0.976-0.246-1.03-0.235c-0.17,0.037-0.558,0.016-0.794-0.062 c0.274,0.562,0.923,0.645,1.126,0.6c0.729-0.145,1.08,0.302,1.246,0.706c0.009,0.021,0.001,0.045-0.017,0.059 c-0.018,0.015-0.043,0.014-0.062-0.002c-0.443-0.367-0.683-0.334-0.896-0.302c-0.047,0.007-0.092,0.014-0.138,0.016 c-0.072,0.004-0.146,0.017-0.223,0.03c-0.163,0.027-0.343,0.062-0.553,0.015c0.343,0.533,0.842,0.514,1.015,0.505 c0.154-0.011,0.976-0.011,1.291,0.649c0.009,0.018,0.006,0.039-0.007,0.054c-0.014,0.016-0.035,0.018-0.052,0.016 c-0.69-0.207-0.739-0.193-0.951-0.146c-0.035,0.009-0.074,0.018-0.12,0.026c-0.309,0.063-0.571,0.018-0.897-0.089 c0.114,0.254,0.295,0.443,0.531,0.551c0.277,0.124,0.553,0.105,0.663,0.063c0.239-0.092,0.754-0.159,1.171,0.171 c0.017,0.014,0.023,0.037,0.015,0.058c-0.008,0.022-0.03,0.028-0.052,0.031c-0.611-0.066-0.799,0.039-0.949,0.163 C14.664,29.585,14.439,29.691,14.222,29.715z"/><path fill="#ffc107" d="M21.93,27.7c0,0-1.552,1.066-2.065,2.061c-0.513,0.996,0.358,1.186,0.853,0.668 s1.497-2.024,1.586-2.472S21.93,27.7,21.93,27.7z"/><path fill="#263238" d="M20.123,30.76c-0.107,0-0.208-0.028-0.289-0.086c-0.109-0.078-0.329-0.325-0.014-0.936 c0.513-0.995,2.018-2.036,2.082-2.08c0.003-0.002,0.006-0.004,0.009-0.005c0.025-0.011,0.249-0.1,0.377,0.006 c0.072,0.059,0.093,0.162,0.064,0.307c-0.096,0.479-1.127,2.004-1.599,2.497C20.571,30.654,20.333,30.76,20.123,30.76z M21.954,27.743c-0.093,0.064-1.557,1.094-2.045,2.04c-0.197,0.382-0.203,0.677-0.017,0.809c0.198,0.143,0.551,0.052,0.789-0.197 c0.497-0.521,1.488-2.021,1.574-2.448c0.014-0.072,0.021-0.168-0.03-0.21C22.159,27.682,22.011,27.722,21.954,27.743z"/><path fill="#ffc107" d="M22.112,27.948c0,0-1.481,1.265-1.902,2.345c-0.42,1.08,0.497,1.182,0.95,0.595 s1.321-2.245,1.364-2.716C22.568,27.7,22.112,27.948,22.112,27.948z"/><path fill="#263238" d="M20.52,31.294c-0.087,0-0.169-0.02-0.241-0.06c-0.12-0.068-0.372-0.298-0.114-0.959 c0.42-1.08,1.855-2.313,1.916-2.365c0.002-0.002,0.005-0.004,0.008-0.006c0.024-0.015,0.245-0.128,0.387-0.035 c0.08,0.052,0.113,0.155,0.099,0.308c-0.043,0.472-0.902,2.13-1.375,2.741C21.016,31.156,20.752,31.294,20.52,31.294z M22.141,27.99c-0.086,0.074-1.483,1.293-1.884,2.322c-0.161,0.414-0.135,0.718,0.071,0.835c0.219,0.121,0.574-0.008,0.793-0.29 c0.455-0.589,1.312-2.241,1.354-2.69c0.007-0.076,0.003-0.177-0.054-0.215C22.344,27.904,22.197,27.961,22.141,27.99z"/><path fill="#ffc107" d="M22.545,28.435c0,0-1.481,1.265-1.902,2.345c-0.42,1.08,0.497,1.182,0.95,0.595 s1.321-2.245,1.364-2.716C23.001,28.187,22.545,28.435,22.545,28.435z"/><path fill="#263238" d="M20.953,31.781c-0.087,0-0.169-0.02-0.241-0.061c-0.121-0.067-0.373-0.297-0.115-0.959 c0.42-1.08,1.855-2.313,1.916-2.365c0.002-0.002,0.005-0.004,0.008-0.006c0.024-0.015,0.246-0.129,0.387-0.035 c0.08,0.052,0.113,0.155,0.099,0.308c-0.046,0.503-0.943,2.184-1.375,2.742C21.449,31.643,21.185,31.781,20.953,31.781z M22.573,28.477c-0.086,0.074-1.483,1.293-1.884,2.322c-0.161,0.414-0.135,0.719,0.071,0.835 c0.217,0.126,0.574-0.007,0.792-0.289c0.455-0.589,1.312-2.242,1.354-2.691c0.007-0.076,0.003-0.177-0.054-0.215 C22.777,28.391,22.63,28.446,22.573,28.477z"/><path fill="#ffc107" d="M22.619,28.903c0,0-1.306,1.445-1.584,2.57c-0.278,1.126,0.644,1.108,1.018,0.467 c0.374-0.64,1.021-2.396,1.003-2.869S22.619,28.903,22.619,28.903z"/><path fill="#263238" d="M21.399,32.431c-0.061,0-0.12-0.011-0.176-0.033c-0.128-0.052-0.407-0.247-0.237-0.936 c0.277-1.126,1.542-2.533,1.595-2.592c0.002-0.003,0.005-0.005,0.008-0.007c0.022-0.017,0.228-0.158,0.379-0.086 c0.086,0.042,0.132,0.141,0.138,0.292c0.019,0.505-0.654,2.286-1.01,2.896C21.929,32.252,21.649,32.431,21.399,32.431z M22.652,28.94c-0.076,0.086-1.305,1.474-1.569,2.545c-0.106,0.432-0.042,0.73,0.178,0.819c0.234,0.097,0.569-0.08,0.75-0.39 c0.375-0.643,1.013-2.392,0.997-2.842c-0.003-0.077-0.02-0.175-0.082-0.205C22.841,28.827,22.701,28.907,22.652,28.94z"/><path fill="#ffc107" d="M23.162,29.053c0,0-1.279,1.669-1.527,2.899c-0.248,1.231,0.685,1.126,1.045,0.406 c0.359-0.721,0.962-2.66,0.93-3.165C23.578,28.688,23.162,29.053,23.162,29.053z"/><path fill="#263238" d="M21.991,32.942c-0.048,0-0.094-0.008-0.139-0.022c-0.13-0.045-0.417-0.229-0.266-0.978 c0.247-1.228,1.483-2.852,1.536-2.92c0.002-0.003,0.004-0.005,0.006-0.007c0.022-0.021,0.222-0.188,0.382-0.126 c0.089,0.037,0.139,0.138,0.149,0.3c0.032,0.505-0.562,2.441-0.936,3.191C22.555,32.721,22.254,32.942,21.991,32.942z M23.198,29.087c-0.07,0.092-1.277,1.699-1.515,2.875c-0.093,0.466-0.019,0.788,0.201,0.863c0.237,0.082,0.575-0.138,0.75-0.489 c0.361-0.723,0.956-2.658,0.926-3.141c-0.005-0.083-0.025-0.187-0.088-0.213C23.393,28.95,23.247,29.046,23.198,29.087z"/><path fill="#ffc107" d="M23.476,29.621c0,0-1.119,1.78-1.252,3.028c-0.133,1.249,0.786,1.058,1.078,0.307 c0.291-0.751,0.712-2.738,0.633-3.238S23.476,29.621,23.476,29.621z"/><path fill="#263238" d="M22.628,33.604c-0.033,0-0.066-0.004-0.098-0.012c-0.134-0.032-0.436-0.189-0.355-0.948 c0.133-1.246,1.213-2.977,1.259-3.05c0.002-0.003,0.004-0.006,0.006-0.008c0.02-0.022,0.2-0.21,0.368-0.16 c0.092,0.028,0.151,0.124,0.176,0.284c0.078,0.499-0.333,2.482-0.636,3.264C23.204,33.348,22.902,33.604,22.628,33.604z M23.516,29.652c-0.061,0.099-1.115,1.81-1.242,3.002c-0.05,0.473,0.054,0.786,0.279,0.841c0.245,0.061,0.56-0.191,0.702-0.557 c0.292-0.754,0.705-2.735,0.63-3.212c-0.013-0.082-0.042-0.185-0.107-0.204C23.694,29.497,23.561,29.606,23.516,29.652z"/><ellipse cx="21.834" cy="27.748" fill="#ffc107" rx=".678" ry=".421" transform="rotate(-63.263 21.834 27.747)"/><path fill="#263238" d="M21.657,28.434c-0.053,0-0.104-0.012-0.15-0.035c-0.083-0.042-0.144-0.117-0.178-0.22 c-0.06-0.18-0.028-0.42,0.084-0.643c0.183-0.364,0.512-0.559,0.749-0.439c0.236,0.119,0.277,0.498,0.093,0.863l0,0 C22.107,28.252,21.868,28.434,21.657,28.434z M22.011,27.162c-0.171,0-0.38,0.165-0.509,0.419 c-0.099,0.196-0.129,0.413-0.078,0.566c0.025,0.076,0.069,0.132,0.127,0.161c0.178,0.089,0.461-0.089,0.614-0.394l0,0 c0.153-0.305,0.131-0.639-0.049-0.729C22.084,27.17,22.048,27.162,22.011,27.162z M22.21,27.938h0.001H22.21z"/><ellipse cx="22.239" cy="28.126" fill="#ffc107" rx=".678" ry=".421" transform="rotate(-63.263 22.24 28.126)"/><path fill="#263238" d="M22.061,28.812c-0.053,0-0.103-0.012-0.149-0.034c-0.236-0.119-0.277-0.498-0.093-0.863 c0.184-0.365,0.513-0.558,0.748-0.438c0.083,0.042,0.144,0.118,0.178,0.22c0.059,0.181,0.028,0.42-0.085,0.643l0,0 c-0.085,0.17-0.208,0.31-0.344,0.394C22.228,28.785,22.141,28.812,22.061,28.812z M22.419,27.542 c-0.172,0-0.385,0.166-0.512,0.417c-0.153,0.305-0.131,0.639,0.049,0.729c0.084,0.044,0.193,0.027,0.307-0.041 c0.121-0.074,0.23-0.2,0.308-0.354l0,0c0.099-0.196,0.129-0.413,0.079-0.566c-0.025-0.076-0.069-0.132-0.127-0.161 C22.491,27.55,22.456,27.542,22.419,27.542z"/><ellipse cx="22.63" cy="28.506" fill="#ffc107" rx=".678" ry=".452" transform="rotate(-67.692 22.63 28.505)"/><path fill="#263238" d="M22.492,29.207c-0.048,0-0.095-0.009-0.139-0.027c-0.256-0.104-0.34-0.492-0.188-0.863 c0.153-0.372,0.484-0.593,0.742-0.483c0.256,0.104,0.34,0.492,0.188,0.863c-0.073,0.177-0.187,0.325-0.323,0.416 C22.679,29.176,22.583,29.207,22.492,29.207z M22.766,27.905c-0.187,0-0.398,0.179-0.509,0.448 c-0.131,0.32-0.071,0.649,0.134,0.734c0.096,0.038,0.211,0.019,0.324-0.058c0.12-0.081,0.221-0.213,0.286-0.371 c0.131-0.321,0.072-0.65-0.133-0.734C22.835,27.912,22.801,27.905,22.766,27.905z"/><g><ellipse cx="22.967" cy="28.777" fill="#ffc107" rx=".678" ry=".452" transform="rotate(-67.692 22.967 28.776)"/><path fill="#263238" d="M22.83,29.478c-0.048,0-0.095-0.009-0.139-0.027c-0.256-0.104-0.34-0.492-0.188-0.863 c0.153-0.372,0.484-0.591,0.742-0.483c0.256,0.104,0.34,0.492,0.188,0.863c-0.073,0.177-0.187,0.325-0.323,0.416 C23.017,29.446,22.921,29.478,22.83,29.478z M23.104,28.176c-0.187,0-0.398,0.179-0.509,0.448 c-0.131,0.32-0.071,0.649,0.134,0.734c0.096,0.039,0.211,0.019,0.324-0.058c0.12-0.081,0.221-0.213,0.286-0.371 c0.131-0.321,0.072-0.65-0.133-0.734C23.173,28.183,23.139,28.176,23.104,28.176z"/></g><g><ellipse cx="23.427" cy="29.061" fill="#ffc107" rx=".678" ry=".452" transform="rotate(-67.692 23.427 29.06)"/><path fill="#263238" d="M23.29,29.762c-0.048,0-0.095-0.009-0.139-0.027c-0.127-0.052-0.217-0.174-0.25-0.342 c-0.032-0.16-0.01-0.347,0.062-0.522c0.073-0.177,0.187-0.325,0.323-0.416c0.141-0.098,0.29-0.121,0.418-0.067 c0.127,0.052,0.217,0.174,0.25,0.342c0.032,0.16,0.01,0.347-0.062,0.522c-0.073,0.177-0.187,0.325-0.323,0.416 C23.476,29.73,23.38,29.762,23.29,29.762z M23.564,28.459c-0.071,0-0.147,0.026-0.223,0.077c-0.12,0.081-0.221,0.213-0.286,0.371 c-0.065,0.159-0.085,0.324-0.057,0.466c0.027,0.135,0.095,0.229,0.19,0.27c0.096,0.039,0.211,0.018,0.324-0.058 c0.12-0.081,0.221-0.213,0.286-0.371l0,0c0.065-0.159,0.085-0.324,0.057-0.466c-0.027-0.135-0.095-0.229-0.19-0.27 C23.634,28.466,23.6,28.459,23.564,28.459z"/></g><g><path fill="#ffc107" d="M26.203,27.7c0,0,1.552,1.066,2.065,2.061c0.513,0.996-0.358,1.186-0.853,0.668 s-1.497-2.024-1.586-2.472S26.203,27.7,26.203,27.7z"/><path fill="#263238" d="M28.01,30.759c-0.21,0-0.448-0.104-0.63-0.296c-0.472-0.494-1.504-2.019-1.599-2.497 c-0.029-0.145-0.007-0.248,0.064-0.307c0.126-0.104,0.353-0.017,0.377-0.006c0.003,0.001,0.006,0.003,0.009,0.005 c0.064,0.044,1.568,1.085,2.082,2.08c0.315,0.611,0.095,0.857-0.014,0.936C28.218,30.731,28.118,30.759,28.01,30.759z M26.007,27.708c-0.038,0-0.074,0.008-0.099,0.028c-0.051,0.042-0.044,0.138-0.03,0.21c0.085,0.427,1.077,1.928,1.574,2.448 c0.237,0.249,0.592,0.338,0.789,0.198c0.186-0.133,0.18-0.428-0.017-0.81c-0.488-0.946-1.952-1.976-2.045-2.04 C26.144,27.729,26.072,27.708,26.007,27.708z"/><path fill="#ffc107" d="M26.021,27.948c0,0,1.481,1.265,1.902,2.345c0.42,1.08-0.497,1.182-0.95,0.595 s-1.321-2.245-1.364-2.716C25.565,27.7,26.021,27.948,26.021,27.948z"/><path fill="#263238" d="M27.614,31.294c-0.232,0-0.497-0.138-0.681-0.376c-0.432-0.56-1.328-2.239-1.375-2.741 c-0.014-0.151,0.02-0.255,0.099-0.308c0.142-0.094,0.363,0.021,0.387,0.035c0.003,0.002,0.006,0.004,0.008,0.006 c0.061,0.052,1.496,1.285,1.916,2.365c0.257,0.661,0.006,0.891-0.114,0.959C27.783,31.274,27.701,31.294,27.614,31.294z M25.791,27.933c-0.029,0-0.057,0.006-0.078,0.02c-0.058,0.039-0.062,0.139-0.055,0.215c0.042,0.448,0.899,2.101,1.354,2.69 c0.219,0.283,0.576,0.411,0.793,0.29c0.206-0.117,0.232-0.421,0.071-0.835c-0.4-1.029-1.798-2.248-1.884-2.322 C25.952,27.969,25.865,27.933,25.791,27.933z"/><path fill="#ffc107" d="M25.588,28.435c0,0,1.481,1.265,1.902,2.345c0.42,1.08-0.497,1.182-0.95,0.595 s-1.321-2.245-1.364-2.716C25.133,28.187,25.588,28.435,25.588,28.435z"/><path fill="#263238" d="M27.181,31.781c-0.232,0-0.497-0.139-0.68-0.376c-0.472-0.61-1.331-2.27-1.375-2.742 c-0.014-0.151,0.02-0.255,0.099-0.308c0.141-0.093,0.362,0.021,0.387,0.035c0.003,0.002,0.006,0.004,0.008,0.006 c0.061,0.052,1.496,1.285,1.916,2.365c0.258,0.662,0.006,0.892-0.115,0.959C27.35,31.762,27.268,31.781,27.181,31.781z M25.358,28.419c-0.029,0-0.057,0.006-0.078,0.02c-0.058,0.039-0.062,0.139-0.055,0.215c0.042,0.45,0.9,2.104,1.354,2.691 c0.218,0.282,0.576,0.415,0.792,0.289c0.207-0.116,0.232-0.421,0.071-0.835c-0.4-1.029-1.798-2.248-1.884-2.322 C25.52,28.455,25.432,28.419,25.358,28.419z"/><g><path fill="#ffc107" d="M25.514,28.903c0,0,1.306,1.445,1.584,2.57c0.278,1.126-0.644,1.108-1.018,0.467 c-0.374-0.64-1.021-2.396-1.003-2.869S25.514,28.903,25.514,28.903z"/><path fill="#263238" d="M26.734,32.431c-0.25,0-0.53-0.179-0.697-0.465c-0.39-0.667-1.028-2.422-1.01-2.896 c0.005-0.151,0.052-0.25,0.138-0.292c0.149-0.072,0.356,0.069,0.379,0.086c0.003,0.002,0.005,0.004,0.008,0.007 c0.054,0.059,1.318,1.466,1.596,2.592c0.17,0.688-0.109,0.884-0.237,0.936C26.854,32.42,26.795,32.431,26.734,32.431z M25.262,28.856c-0.019,0-0.038,0.004-0.054,0.012c-0.062,0.03-0.079,0.128-0.082,0.205c-0.017,0.451,0.622,2.2,0.997,2.842 c0.18,0.31,0.515,0.486,0.75,0.39c0.219-0.089,0.284-0.388,0.178-0.819c-0.265-1.071-1.494-2.459-1.57-2.545 C25.439,28.911,25.341,28.856,25.262,28.856z"/></g><g><path fill="#ffc107" d="M24.971,29.053c0,0,1.279,1.669,1.527,2.899c0.248,1.231-0.685,1.126-1.045,0.406 c-0.359-0.721-0.962-2.66-0.93-3.165C24.555,28.688,24.971,29.053,24.971,29.053z"/><path fill="#263238" d="M26.142,32.942c-0.263,0-0.564-0.222-0.733-0.562c-0.374-0.751-0.967-2.688-0.935-3.191 c0.01-0.162,0.06-0.263,0.149-0.3c0.158-0.062,0.359,0.106,0.381,0.126c0.002,0.002,0.004,0.004,0.006,0.007 c0.053,0.068,1.29,1.692,1.536,2.92c0.151,0.748-0.136,0.933-0.266,0.978C26.237,32.935,26.19,32.942,26.142,32.942z M24.7,28.975c-0.014,0-0.027,0.003-0.039,0.008c-0.063,0.026-0.083,0.13-0.088,0.213c-0.03,0.482,0.564,2.417,0.925,3.141 c0.176,0.352,0.514,0.574,0.75,0.489c0.219-0.075,0.294-0.398,0.201-0.863c-0.237-1.176-1.444-2.782-1.515-2.875 C24.893,29.052,24.783,28.975,24.7,28.975z"/></g><g><path fill="#ffc107" d="M24.657,29.621c0,0,1.119,1.78,1.252,3.028c0.133,1.249-0.786,1.058-1.078,0.307 c-0.291-0.751-0.712-2.738-0.633-3.238S24.657,29.621,24.657,29.621z"/><path fill="#263238" d="M25.505,33.604c-0.274,0-0.575-0.257-0.72-0.63c-0.304-0.781-0.715-2.765-0.636-3.264 c0.025-0.16,0.084-0.256,0.176-0.284c0.162-0.051,0.347,0.138,0.368,0.16c0.002,0.002,0.004,0.005,0.006,0.008 c0.046,0.073,1.126,1.804,1.259,3.05c0.08,0.759-0.222,0.916-0.356,0.948C25.571,33.601,25.538,33.604,25.505,33.604z M24.383,29.518c-0.01,0-0.02,0.002-0.028,0.005c-0.065,0.02-0.094,0.122-0.107,0.204c-0.075,0.477,0.338,2.458,0.63,3.212 c0.142,0.366,0.454,0.614,0.702,0.557c0.225-0.055,0.33-0.368,0.28-0.841c-0.127-1.192-1.181-2.903-1.242-3.002 C24.578,29.611,24.467,29.518,24.383,29.518z"/></g></g><g><ellipse cx="26.299" cy="27.748" fill="#ffc107" rx=".421" ry=".678" transform="rotate(-26.735 26.3 27.746)"/><path fill="#263238" d="M26.477,28.434c-0.211,0-0.451-0.182-0.598-0.474c-0.086-0.17-0.125-0.352-0.111-0.512 c0.015-0.168,0.087-0.293,0.204-0.352c0.117-0.056,0.26-0.042,0.404,0.046c0.137,0.084,0.259,0.224,0.344,0.394 c0.113,0.222,0.144,0.462,0.085,0.643c-0.034,0.102-0.095,0.178-0.178,0.22C26.58,28.422,26.529,28.434,26.477,28.434z M25.968,27.915c0.153,0.305,0.434,0.487,0.614,0.394c0.058-0.029,0.103-0.085,0.127-0.161c0.051-0.153,0.021-0.37-0.079-0.566 c-0.078-0.153-0.187-0.279-0.308-0.354c-0.114-0.068-0.222-0.085-0.307-0.041c-0.084,0.042-0.137,0.139-0.149,0.271 C25.855,27.599,25.891,27.762,25.968,27.915z"/><ellipse cx="25.894" cy="28.126" fill="#ffc107" rx=".421" ry=".678" transform="rotate(-26.735 25.894 28.124)"/><path fill="#263238" d="M26.071,28.812c-0.211,0-0.451-0.183-0.598-0.475l0,0c-0.112-0.223-0.144-0.463-0.084-0.643 c0.034-0.103,0.095-0.178,0.178-0.22c0.234-0.119,0.564,0.073,0.748,0.438s0.143,0.744-0.093,0.863 C26.175,28.801,26.124,28.812,26.071,28.812z M25.714,27.542c-0.037,0-0.071,0.008-0.103,0.023 c-0.058,0.029-0.103,0.085-0.127,0.161c-0.051,0.153-0.021,0.37,0.078,0.566l0,0c0.153,0.305,0.437,0.484,0.615,0.395 c0.18-0.09,0.202-0.424,0.049-0.729C26.099,27.708,25.886,27.542,25.714,27.542z"/><ellipse cx="25.504" cy="28.506" fill="#ffc107" rx=".452" ry=".678" transform="rotate(-22.308 25.5 28.503)"/><path fill="#263238" d="M25.644,29.206c-0.228,0-0.478-0.201-0.605-0.51l0,0c-0.152-0.371-0.067-0.759,0.188-0.863 c0.129-0.055,0.276-0.029,0.418,0.067c0.136,0.091,0.25,0.239,0.323,0.416c0.072,0.176,0.095,0.362,0.062,0.522 c-0.034,0.168-0.123,0.289-0.25,0.341C25.736,29.198,25.69,29.206,25.644,29.206z M25.131,28.659 c0.132,0.32,0.404,0.508,0.611,0.429c0.096-0.04,0.164-0.135,0.19-0.269c0.028-0.142,0.008-0.307-0.057-0.466 c-0.065-0.158-0.167-0.29-0.286-0.371c-0.115-0.076-0.231-0.097-0.324-0.058C25.06,28.01,25,28.338,25.131,28.659L25.131,28.659z"/><g><ellipse cx="25.166" cy="28.777" fill="#ffc107" rx=".452" ry=".678" transform="rotate(-22.308 25.162 28.774)"/><path fill="#263238" d="M25.306,29.477c-0.228,0-0.478-0.201-0.605-0.51l0,0c-0.152-0.371-0.067-0.759,0.188-0.863 c0.129-0.053,0.277-0.029,0.418,0.067c0.136,0.091,0.25,0.239,0.323,0.416c0.072,0.176,0.095,0.362,0.062,0.522 c-0.034,0.168-0.123,0.289-0.25,0.341C25.398,29.469,25.353,29.477,25.306,29.477z M24.793,28.93 c0.132,0.32,0.403,0.508,0.611,0.429c0.096-0.04,0.164-0.135,0.19-0.269c0.028-0.142,0.008-0.307-0.057-0.466 c-0.065-0.158-0.167-0.29-0.286-0.371c-0.114-0.077-0.229-0.096-0.324-0.058C24.722,28.28,24.662,28.608,24.793,28.93 L24.793,28.93z"/></g><g><ellipse cx="24.706" cy="29.061" fill="#ffc107" rx=".452" ry=".678" transform="rotate(-22.308 24.703 29.057)"/><path fill="#263238" d="M24.846,29.761c-0.228,0-0.479-0.201-0.605-0.51c-0.152-0.371-0.068-0.76,0.188-0.864 c0.128-0.054,0.277-0.03,0.418,0.067c0.136,0.091,0.25,0.239,0.323,0.416c0.152,0.371,0.068,0.76-0.188,0.864 C24.939,29.753,24.893,29.761,24.846,29.761z M24.569,28.459c-0.036,0-0.069,0.007-0.101,0.02 c-0.206,0.085-0.266,0.414-0.134,0.735c0.131,0.32,0.404,0.51,0.611,0.429c0.205-0.084,0.265-0.414,0.133-0.735 c-0.065-0.158-0.167-0.29-0.286-0.371C24.716,28.485,24.64,28.459,24.569,28.459z"/></g></g><g><path fill="#ffc107" d="M23.806,29.814c0,0-0.703,2.217-0.419,3.568c0.284,1.352,1.311,0.865,1.392-0.014 c0.081-0.879-0.122-3.095-0.392-3.595C24.117,29.273,23.806,29.814,23.806,29.814z"/><path fill="#263238" d="M24.062,34.271c-0.183,0-0.561-0.1-0.724-0.879c-0.283-1.35,0.391-3.503,0.42-3.594 c0.001-0.004,0.003-0.007,0.004-0.011c0.007-0.011,0.162-0.277,0.367-0.277c0.001,0,0.002,0,0.003,0 c0.114,0.002,0.214,0.082,0.299,0.239c0.271,0.5,0.482,2.709,0.397,3.623c-0.044,0.482-0.369,0.876-0.738,0.897 C24.082,34.271,24.072,34.271,24.062,34.271z M23.852,29.834c-0.038,0.121-0.687,2.246-0.416,3.537 c0.107,0.511,0.334,0.801,0.624,0.801c0.008,0,0.017,0,0.025-0.001c0.316-0.019,0.605-0.38,0.645-0.808 c0.082-0.881-0.127-3.088-0.386-3.566c-0.066-0.122-0.138-0.185-0.212-0.186c0,0-0.001,0-0.002,0 C24.01,29.611,23.892,29.768,23.852,29.834z"/></g><g><path fill="#ffc107" d="M21.346,19.068c0.391-0.121,0.695-0.394,0.946-0.757l-0.405-0.216c0,0,0.541-0.297,0.649-0.703 s0.351-0.595,0.351-0.595s-0.433-1.054-0.054-1.595s1.216-0.568,1.676-0.297s0.826,0.879,0.865,1.608 c0.041,0.757,0.595,1.23,0.595,1.23h-0.541c0,0,0.73,0.838,1.135,0.946c-0.351,0.216-0.649,0.243-0.649,0.243 s0.703,0.595,0.865,1.162s-5.596,0.811-5.596,0.811l0.324-1l0.46-0.676C21.968,19.23,21.697,19.311,21.346,19.068z"/><path fill="#263238" d="M21.184,20.956c-0.016,0-0.03-0.007-0.04-0.02s-0.013-0.03-0.007-0.046l0.325-1 c0.001-0.004,0.003-0.009,0.006-0.013l0.398-0.585c-0.005,0.001-0.01,0.001-0.015,0.001c-0.12,0-0.312-0.032-0.532-0.185 c-0.016-0.011-0.024-0.029-0.021-0.049c0.003-0.019,0.016-0.034,0.034-0.04c0.338-0.105,0.628-0.332,0.888-0.691l-0.355-0.19 c-0.016-0.009-0.026-0.025-0.026-0.044c0-0.018,0.01-0.035,0.026-0.044c0.005-0.003,0.523-0.292,0.624-0.672 c0.09-0.338,0.27-0.531,0.34-0.597c-0.072-0.189-0.391-1.101-0.036-1.608c0.379-0.542,1.233-0.611,1.743-0.312 c0.502,0.296,0.852,0.943,0.889,1.648c0.039,0.726,0.572,1.189,0.578,1.194c0.016,0.014,0.021,0.036,0.014,0.056 s-0.026,0.032-0.047,0.032H25.54c0.194,0.213,0.724,0.765,1.036,0.849c0.02,0.005,0.034,0.021,0.037,0.041 c0.003,0.02-0.006,0.039-0.023,0.05c-0.234,0.144-0.443,0.206-0.563,0.232c0.191,0.175,0.668,0.649,0.801,1.117 c0.009,0.029,0.011,0.074-0.024,0.123c-0.371,0.516-5.081,0.729-5.617,0.751C21.185,20.956,21.184,20.956,21.184,20.956z M21.554,19.929l-0.3,0.925c1.493-0.066,5.183-0.311,5.468-0.706c0.013-0.019,0.012-0.029,0.01-0.038 c-0.156-0.547-0.842-1.133-0.849-1.139c-0.016-0.013-0.021-0.034-0.016-0.053c0.006-0.02,0.023-0.033,0.043-0.035 c0.002,0,0.241-0.023,0.537-0.184c-0.42-0.196-1.029-0.892-1.057-0.923c-0.013-0.016-0.016-0.036-0.008-0.054 c0.008-0.018,0.026-0.029,0.045-0.029h0.417c-0.163-0.173-0.49-0.589-0.521-1.177c-0.036-0.674-0.366-1.289-0.84-1.568 c-0.417-0.244-1.231-0.256-1.61,0.282c-0.358,0.513,0.055,1.537,0.06,1.548c0.008,0.021,0.002,0.044-0.016,0.058 c-0.002,0.002-0.232,0.187-0.334,0.568c-0.088,0.331-0.438,0.587-0.596,0.688l0.328,0.176c0.013,0.007,0.022,0.019,0.025,0.032 c0.003,0.014,0,0.028-0.008,0.04c-0.255,0.369-0.542,0.612-0.873,0.741c0.282,0.161,0.485,0.104,0.494,0.102 c0.019-0.004,0.042,0,0.055,0.019c0.012,0.017,0.013,0.04,0.001,0.058L21.554,19.929z"/></g><g><path fill="#ffc107" d="M23.36,16.243c0,0-0.676-0.473-0.527-1.041c-0.243,0.068-0.419,0.365-0.419,0.365 s-0.73-0.122-0.879,0.284c-0.149,0.405-0.095,0.743-0.095,0.743s0.162-0.365,0.554-0.351c0.392,0.014,0.716-0.027,0.892,0.554 C23.211,16.784,23.522,16.676,23.36,16.243z"/><path fill="#263238" d="M22.887,16.847c-0.022,0-0.042-0.015-0.048-0.035c-0.151-0.501-0.405-0.508-0.755-0.516 l-0.091-0.003c-0.006,0-0.013,0-0.02,0c-0.338,0-0.481,0.309-0.487,0.322c-0.009,0.02-0.03,0.026-0.052,0.029 c-0.022-0.003-0.04-0.021-0.043-0.042c-0.002-0.015-0.055-0.355,0.097-0.769c0.144-0.393,0.75-0.342,0.9-0.32 c0.053-0.08,0.214-0.3,0.431-0.359c0.019-0.008,0.036-0.001,0.048,0.013c0.013,0.012,0.018,0.03,0.013,0.048 c-0.138,0.527,0.501,0.982,0.508,0.987c0.008,0.006,0.015,0.014,0.018,0.023c0.065,0.175,0.063,0.316-0.007,0.421 c-0.082,0.123-0.253,0.19-0.511,0.2C22.888,16.847,22.887,16.847,22.887,16.847z M21.973,16.192c0.008,0,0.016,0.001,0.024,0.001 l0.09,0.002c0.34,0.009,0.661,0.017,0.836,0.55c0.202-0.013,0.334-0.064,0.394-0.154c0.049-0.074,0.05-0.181,0.001-0.316 c-0.093-0.068-0.616-0.478-0.552-0.992c-0.18,0.094-0.308,0.309-0.31,0.311c-0.01,0.019-0.029,0.023-0.051,0.024 c-0.005-0.002-0.69-0.11-0.823,0.252c-0.084,0.229-0.101,0.437-0.101,0.569C21.569,16.328,21.727,16.192,21.973,16.192z"/></g><g><path fill="#ffc107" d="M24.306,15.865c0,0-0.176-0.351-0.527-0.338s-0.46,0.311-0.46,0.311s0.162,0.297,0.5,0.297 C24.157,16.135,24.306,15.865,24.306,15.865z"/><path fill="#263238" d="M23.819,16.185c-0.363,0-0.537-0.31-0.544-0.322c-0.007-0.013-0.008-0.028-0.003-0.041 c0.005-0.014,0.124-0.33,0.504-0.345c0.377-0.014,0.566,0.35,0.574,0.365c0.007,0.015,0.007,0.032-0.001,0.047 C24.343,15.9,24.183,16.185,23.819,16.185z M23.375,15.834c0.042,0.063,0.187,0.251,0.444,0.251c0.249,0,0.386-0.161,0.428-0.223 c-0.044-0.072-0.197-0.286-0.451-0.286c-0.005,0-0.011,0-0.016,0C23.517,15.587,23.406,15.771,23.375,15.834z"/></g><g><path fill="#ffc107" d="M19.954,20.001c0,0-0.825,0.365-1.108,0.405c-0.284,0.041-0.568-0.095-0.149-0.689 c0.419-0.595,0.662-1.527-0.419-1.919c-1.081-0.392-4.271-1.446-4.961-1.568c-0.689-0.122-4.65-1.162-5.285-1.514 s-1.054,0.581-0.324,1.027c-0.054,0.5,0.095,0.919,0.608,1.068C8.127,17.176,8.83,17.825,9.641,18 c-0.122,0.852,1.298,1.189,1.649,1.298c-0.081,0.581,0.378,0.865,1.473,1.027c-0.108,0.703,0.77,0.933,1.23,1 c-0.135,0.662,1.122,0.865,1.717,0.838c-0.257,0.527-0.054,0.865,0.419,0.906c-0.27,0.716,0.433,0.973,0.825,0.919 c0.243,0.689,0.879,0.324,0.879,0.324s0.324,0.716,1.081,0.216c0.243,0.297,0.811,0.23,1.149,0 C20.4,24.299,19.954,20.001,19.954,20.001z"/><path fill="#263238" d="M19.414,24.778c-0.199,0-0.384-0.057-0.509-0.185c-0.241,0.149-0.467,0.199-0.668,0.138 c-0.238-0.068-0.374-0.263-0.426-0.353c-0.095,0.045-0.323,0.127-0.539,0.047c-0.156-0.058-0.274-0.187-0.351-0.384 c-0.257,0.022-0.591-0.07-0.773-0.298c-0.095-0.119-0.183-0.323-0.085-0.633c-0.212-0.031-0.367-0.123-0.449-0.269 c-0.092-0.164-0.085-0.379,0.019-0.627c-0.012,0-0.023,0-0.035,0c-0.506,0-1.251-0.137-1.538-0.472 c-0.096-0.112-0.137-0.238-0.122-0.377c-0.325-0.053-0.853-0.188-1.099-0.521c-0.104-0.14-0.147-0.301-0.13-0.479 c-1.096-0.169-1.528-0.472-1.472-1.033c-0.018-0.006-0.038-0.012-0.059-0.018c-0.457-0.133-1.657-0.481-1.59-1.277 c-0.57-0.137-1.123-0.511-1.298-0.883c-0.054-0.114-0.067-0.222-0.039-0.314c-0.441-0.149-0.646-0.52-0.594-1.073 c-0.401-0.261-0.458-0.676-0.304-0.939c0.12-0.205,0.384-0.334,0.706-0.157c0.619,0.343,4.527,1.378,5.269,1.509 c0.698,0.123,3.922,1.19,4.969,1.57c0.407,0.147,0.664,0.381,0.763,0.694c0.166,0.528-0.168,1.085-0.32,1.3 c-0.238,0.338-0.216,0.482-0.182,0.538c0.041,0.065,0.146,0.093,0.283,0.073c0.274-0.039,1.087-0.397,1.095-0.401 c0.014-0.007,0.032-0.006,0.045,0.003c0.014,0.008,0.023,0.021,0.025,0.038c0.075,0.723,0.432,4.339,0.087,4.573 C19.899,24.7,19.647,24.778,19.414,24.778z M18.913,24.479c0.015,0,0.029,0.006,0.039,0.019c0.219,0.267,0.752,0.216,1.082-0.01 c0.225-0.153,0.046-2.759-0.123-4.413c-0.2,0.087-0.814,0.347-1.059,0.382c-0.181,0.027-0.32-0.02-0.382-0.12 c-0.083-0.137-0.021-0.354,0.185-0.647c0.298-0.423,0.412-0.876,0.306-1.213c-0.089-0.282-0.325-0.494-0.701-0.631 c-1.045-0.379-4.259-1.443-4.953-1.566c-0.634-0.111-4.643-1.155-5.3-1.519c-0.28-0.155-0.482-0.031-0.57,0.12 c-0.133,0.229-0.074,0.594,0.296,0.82c0.017,0.011,0.026,0.029,0.024,0.049c-0.059,0.546,0.133,0.887,0.572,1.014 c0.015,0.004,0.026,0.015,0.032,0.028s0.005,0.029-0.001,0.043c-0.04,0.076-0.033,0.17,0.018,0.279 c0.145,0.308,0.661,0.705,1.273,0.838c0.025,0.006,0.042,0.03,0.039,0.056c-0.106,0.743,1.071,1.085,1.514,1.214 c0.039,0.011,0.073,0.021,0.1,0.029c0.023,0.007,0.038,0.03,0.035,0.055c-0.073,0.528,0.341,0.81,1.431,0.971 c0.013,0.002,0.025,0.01,0.033,0.021c0.008,0.011,0.011,0.023,0.009,0.037c-0.026,0.171,0.009,0.324,0.105,0.454 c0.238,0.322,0.781,0.444,1.083,0.488c0.014,0.002,0.026,0.01,0.034,0.021c0.008,0.011,0.011,0.024,0.008,0.038 c-0.026,0.129,0.004,0.241,0.092,0.345c0.284,0.332,1.107,0.453,1.573,0.434c0.019-0.004,0.035,0.007,0.044,0.022 c0.009,0.015,0.011,0.033,0.003,0.049c-0.121,0.249-0.14,0.459-0.056,0.608c0.074,0.13,0.224,0.208,0.434,0.227 c0.016,0.001,0.03,0.01,0.038,0.023c0.008,0.013,0.01,0.029,0.004,0.044c-0.091,0.24-0.074,0.44,0.049,0.595 c0.167,0.209,0.498,0.293,0.722,0.257c0.026,0.004,0.046,0.011,0.054,0.033c0.066,0.188,0.169,0.31,0.305,0.36 c0.235,0.087,0.499-0.061,0.501-0.062c0.012-0.008,0.027-0.006,0.04-0.005c0.014,0.005,0.024,0.015,0.03,0.027 c0.001,0.003,0.125,0.269,0.388,0.344c0.181,0.054,0.392,0.003,0.621-0.149C18.894,24.481,18.903,24.479,18.913,24.479z"/><path fill="#263238" d="M19.271,23.809c-0.122,0-0.249-0.021-0.357-0.073c-0.104-0.052-0.178-0.129-0.221-0.229 c-0.214,0.051-0.417,0.018-0.558-0.095c-0.126-0.101-0.198-0.257-0.206-0.446c-0.183,0.087-0.441,0.108-0.614-0.009 c-0.109-0.072-0.224-0.224-0.177-0.536c-0.367-0.066-0.578-0.19-0.625-0.367c-0.043-0.163,0.063-0.329,0.156-0.435 c-0.475,0.048-1.135-0.201-1.388-0.537c-0.104-0.138-0.131-0.278-0.078-0.41c-0.214-0.062-0.538-0.31-0.609-0.567 c-0.027-0.096-0.029-0.229,0.085-0.354c-0.441-0.09-0.748-0.402-0.787-0.665c-0.021-0.142,0.032-0.265,0.147-0.352 c-0.681-0.199-0.904-0.551-0.884-0.803c0.013-0.162,0.12-0.289,0.286-0.354c-0.632-0.21-0.792-0.604-0.722-0.921 c0.069-0.311,0.347-0.533,0.613-0.475c0.027,0.005,0.045,0.031,0.039,0.059c-0.005,0.027-0.03,0.046-0.059,0.039 c-0.021-0.004-0.042-0.006-0.062-0.006c-0.192,0-0.381,0.171-0.433,0.404c-0.066,0.301,0.119,0.683,0.837,0.855 c0.024,0.006,0.04,0.028,0.038,0.053s-0.021,0.044-0.045,0.046c-0.225,0.02-0.378,0.14-0.392,0.308 c-0.019,0.244,0.26,0.564,0.926,0.729c0.021,0.006,0.036,0.023,0.038,0.045s-0.01,0.041-0.03,0.05 c-0.149,0.065-0.218,0.172-0.197,0.308c0.037,0.248,0.369,0.547,0.805,0.597c0.02,0.003,0.037,0.017,0.042,0.037 c0.005,0.02-0.002,0.041-0.019,0.053c-0.122,0.091-0.165,0.196-0.13,0.321c0.07,0.253,0.435,0.492,0.591,0.508 c0.017,0.002,0.032,0.012,0.04,0.027c0.007,0.016,0.007,0.033-0.002,0.048c-0.068,0.113-0.055,0.234,0.041,0.361 c0.259,0.343,1.012,0.584,1.444,0.472c0.023-0.011,0.046,0.004,0.058,0.025c0.011,0.021,0.005,0.046-0.013,0.062 c-0.003,0.002-0.294,0.242-0.239,0.447c0.038,0.141,0.244,0.246,0.594,0.302c0.014,0.003,0.025,0.01,0.033,0.021 c0.008,0.011,0.011,0.024,0.008,0.038c-0.045,0.231-0.002,0.399,0.125,0.484c0.164,0.109,0.429,0.066,0.582-0.036 c0.016-0.009,0.037-0.012,0.053-0.001c0.017,0.009,0.026,0.027,0.025,0.046c-0.011,0.198,0.046,0.354,0.167,0.451 c0.126,0.1,0.312,0.123,0.512,0.065c0.028-0.012,0.054,0.008,0.062,0.032c0.03,0.096,0.093,0.167,0.187,0.214 c0.206,0.102,0.502,0.061,0.641,0.012c0.027-0.01,0.055,0.005,0.064,0.03c0.009,0.026-0.005,0.055-0.031,0.063 C19.546,23.782,19.412,23.809,19.271,23.809z"/><path fill="#263238" d="M15.101,17.915c-0.003,0-0.006,0-0.01-0.001l-1.459-0.284c-0.027-0.005-0.044-0.031-0.04-0.059 c0.005-0.026,0.029-0.049,0.059-0.039l1.459,0.284c0.027,0.005,0.044,0.031,0.04,0.059 C15.146,17.898,15.125,17.915,15.101,17.915z"/><path fill="#263238" d="M15.25,18.875c-0.001,0-0.003,0-0.005,0l-1.082-0.108c-0.027-0.003-0.048-0.027-0.045-0.055 c0.002-0.028,0.027-0.047,0.055-0.045l1.082,0.108c0.027,0.003,0.048,0.027,0.045,0.055 C15.297,18.855,15.275,18.875,15.25,18.875z"/><path fill="#263238" d="M14.791,19.767c-0.027,0-0.05-0.021-0.05-0.049c0-0.028,0.021-0.051,0.049-0.051l0.959-0.014h0 c0.027,0,0.05,0.021,0.05,0.049c0,0.028-0.021,0.051-0.049,0.051L14.791,19.767L14.791,19.767z"/><path fill="#263238" d="M16.128,20.767c-0.001,0-0.003,0-0.005,0l-0.852-0.081c-0.027-0.003-0.047-0.027-0.045-0.055 c0.002-0.025,0.024-0.045,0.05-0.045c0.001,0,0.003,0,0.005,0l0.852,0.081c0.027,0.003,0.047,0.027,0.045,0.055 C16.176,20.747,16.154,20.767,16.128,20.767z"/><path fill="#263238" d="M12.885,17.226c-0.003,0-0.007,0-0.01-0.001c-0.169-0.035-4.169-0.859-5.191-1.438 c-0.024-0.014-0.033-0.045-0.019-0.068c0.014-0.024,0.044-0.031,0.068-0.02c1.008,0.571,5.121,1.419,5.163,1.428 c0.027,0.006,0.044,0.032,0.039,0.059C12.929,17.21,12.908,17.226,12.885,17.226z"/><path fill="#263238" d="M13.195,18.063c-0.003,0-0.007,0-0.011-0.001c-0.177-0.04-4.336-0.977-4.888-1.206 c-0.026-0.011-0.038-0.04-0.027-0.065c0.011-0.025,0.04-0.039,0.065-0.026c0.544,0.226,4.828,1.19,4.871,1.2 c0.027,0.006,0.044,0.033,0.038,0.06C13.239,18.048,13.218,18.063,13.195,18.063z"/><path fill="#263238" d="M13.939,19.023c-0.003,0-0.006,0-0.01-0.001c-0.161-0.031-3.945-0.774-4.313-0.979 C9.592,18.03,9.583,18,9.597,17.976c0.013-0.024,0.043-0.032,0.068-0.02c0.283,0.158,2.926,0.702,4.284,0.969 c0.027,0.005,0.044,0.031,0.039,0.059C13.983,19.007,13.962,19.023,13.939,19.023z"/><path fill="#263238" d="M14.642,19.956c-0.003,0-0.006,0-0.009-0.001l-3.352-0.608c-0.027-0.005-0.045-0.03-0.041-0.058 s0.031-0.048,0.058-0.04l3.352,0.608c0.027,0.005,0.045,0.03,0.041,0.058C14.687,19.939,14.666,19.956,14.642,19.956z"/><path fill="#263238" d="M15.223,20.808c-0.003,0-0.006,0-0.009-0.001l-2.46-0.433c-0.027-0.004-0.045-0.03-0.041-0.058 s0.031-0.05,0.058-0.04l2.46,0.433c0.027,0.004,0.045,0.03,0.041,0.058C15.268,20.791,15.247,20.808,15.223,20.808z"/><path fill="#263238" d="M16,21.554c-0.001,0-0.003,0-0.004,0c-0.073-0.006-1.795-0.151-2.009-0.179 c-0.027-0.004-0.047-0.028-0.043-0.056s0.029-0.044,0.056-0.044c0.212,0.027,1.987,0.177,2.005,0.179 c0.027,0.002,0.048,0.026,0.045,0.054C16.048,21.534,16.026,21.554,16,21.554z"/><path fill="#263238" d="M15.709,22.213c-0.025,0-0.047-0.02-0.05-0.045c-0.002-0.027,0.018-0.052,0.045-0.055l0.878-0.081 c0.024-0.002,0.052,0.018,0.054,0.045s-0.018,0.052-0.045,0.055l-0.878,0.081C15.712,22.213,15.711,22.213,15.709,22.213z"/><path fill="#263238" d="M16.128,23.119c-0.02,0-0.039-0.012-0.046-0.031c-0.01-0.025,0.002-0.055,0.028-0.064l0.838-0.338 c0.023-0.012,0.054,0.001,0.065,0.027c0.01,0.025-0.002,0.055-0.028,0.064l-0.838,0.338 C16.141,23.118,16.135,23.119,16.128,23.119z"/><path fill="#263238" d="M16.953,24.038c-0.023,0-0.044-0.017-0.049-0.04c-0.005-0.027,0.013-0.054,0.04-0.059 c0.255-0.05,0.462-0.469,0.464-0.473c0.012-0.025,0.041-0.038,0.067-0.023c0.025,0.012,0.035,0.042,0.023,0.066 c-0.009,0.02-0.23,0.469-0.536,0.527C16.959,24.038,16.956,24.038,16.953,24.038z"/><path fill="#263238" d="M17.832,24.362c-0.02,0-0.038-0.011-0.046-0.03c-0.011-0.025,0.001-0.055,0.026-0.065 c0.138-0.06,0.261-0.359,0.296-0.47c0.008-0.025,0.037-0.039,0.062-0.032c0.026,0.009,0.041,0.037,0.032,0.063 c-0.014,0.045-0.147,0.442-0.352,0.53C17.845,24.361,17.838,24.362,17.832,24.362z"/><path fill="#263238" d="M18.913,24.578c-0.017,0-0.034-0.009-0.043-0.024c-0.086-0.143-0.114-0.52-0.115-0.535 c-0.002-0.028,0.019-0.052,0.046-0.054c0.001,0,0.002,0,0.003,0c0.026,0,0.048,0.02,0.05,0.046 c0.007,0.103,0.04,0.39,0.102,0.492c0.014,0.023,0.006,0.054-0.017,0.068C18.931,24.576,18.922,24.578,18.913,24.578z"/><path fill="#263238" d="M16.764,20.348c-0.013,0-0.026-0.005-0.036-0.015c-0.02-0.021-0.474-0.495-0.254-0.946 c-0.188-0.205-0.278-0.413-0.268-0.616c0.013-0.266,0.194-0.423,0.201-0.43c0.021-0.018,0.053-0.016,0.07,0.006 c0.018,0.021,0.016,0.052-0.005,0.07c-0.001,0.001-0.156,0.138-0.167,0.36c-0.009,0.183,0.081,0.374,0.265,0.567 c0.015,0.016,0.018,0.039,0.007,0.059c-0.222,0.395,0.217,0.855,0.222,0.859c0.02,0.021,0.019,0.052-0.001,0.071 C16.789,20.343,16.776,20.348,16.764,20.348z"/><path fill="#263238" d="M19.102,22.713c-0.003,0-0.006,0-0.009-0.001c-0.019-0.003-0.455-0.087-0.722-0.524 c-0.001,0-0.001,0-0.002,0c-0.227,0-0.538-0.074-0.712-0.288c-0.106-0.13-0.146-0.296-0.116-0.481c-0.001,0-0.002,0-0.003,0 c-0.921,0-0.972-0.853-0.973-0.861c-0.001-0.027,0.02-0.051,0.047-0.052c0.001,0,0.001,0,0.002,0c0.026,0,0.049,0.021,0.05,0.047 c0.002,0.032,0.049,0.766,0.874,0.766c0.02,0,0.041,0,0.062-0.001c0,0,0.001,0,0.002,0c0.015,0,0.029,0.007,0.039,0.018 c0.01,0.013,0.014,0.028,0.01,0.044c-0.044,0.183-0.016,0.337,0.083,0.458c0.16,0.195,0.455,0.254,0.664,0.251 c0,0,0.001,0,0.001,0c0.018,0,0.034,0.01,0.043,0.024c0.241,0.419,0.664,0.502,0.668,0.503c0.027,0.005,0.045,0.03,0.041,0.058 C19.147,22.696,19.126,22.713,19.102,22.713z"/><g><path fill="#263238" d="M17.643,20.889c-0.015,0-0.029-0.006-0.039-0.018c-0.019-0.023-0.46-0.576-0.048-1.619 c0.382-0.969-0.672-1.43-0.717-1.449c-0.025-0.011-0.037-0.04-0.026-0.065c0.01-0.024,0.039-0.039,0.065-0.026 c0.012,0.005,1.189,0.518,0.771,1.578c-0.389,0.984,0.028,1.513,0.033,1.519c0.018,0.021,0.014,0.053-0.007,0.07 C17.665,20.885,17.654,20.889,17.643,20.889z"/></g></g><g><path fill="#ffc107" d="M28.176,20.001c0,0,0.825,0.365,1.108,0.405c0.284,0.041,0.568-0.095,0.149-0.689 c-0.419-0.595-0.662-1.527,0.419-1.919c1.081-0.392,4.271-1.446,4.961-1.568c0.689-0.122,4.65-1.162,5.285-1.514 c0.635-0.351,1.054,0.581,0.324,1.027c0.054,0.5-0.095,0.919-0.608,1.068c0.189,0.365-0.514,1.014-1.325,1.189 c0.122,0.852-1.298,1.189-1.649,1.298c0.081,0.581-0.378,0.865-1.473,1.027c0.108,0.703-0.77,0.933-1.23,1 c0.135,0.662-1.122,0.865-1.717,0.838c0.257,0.527,0.054,0.865-0.419,0.906c0.27,0.716-0.433,0.973-0.825,0.919 c-0.243,0.689-0.879,0.324-0.879,0.324s-0.324,0.716-1.081,0.216c-0.243,0.297-0.811,0.23-1.149,0 C27.73,24.299,28.176,20.001,28.176,20.001z"/><path fill="#263238" d="M28.716,24.778c-0.234,0-0.485-0.078-0.677-0.209c-0.345-0.234,0.012-3.851,0.087-4.573 c0.002-0.017,0.011-0.03,0.025-0.038c0.014-0.009,0.031-0.01,0.045-0.003c0.008,0.004,0.821,0.362,1.096,0.401 c0.138,0.019,0.242-0.008,0.282-0.073c0.034-0.056,0.056-0.2-0.182-0.538c-0.151-0.215-0.486-0.771-0.32-1.3 c0.099-0.313,0.355-0.547,0.763-0.694c1.047-0.38,4.271-1.447,4.969-1.57c0.741-0.131,4.65-1.166,5.27-1.509 c0.323-0.179,0.585-0.048,0.706,0.157c0.154,0.264,0.097,0.679-0.304,0.939c0.051,0.554-0.153,0.924-0.594,1.073 c0.028,0.093,0.015,0.2-0.039,0.314c-0.175,0.372-0.728,0.746-1.298,0.883c0.067,0.796-1.132,1.145-1.589,1.277 c-0.021,0.006-0.042,0.012-0.06,0.018c0.056,0.562-0.376,0.864-1.473,1.033c0.017,0.179-0.027,0.34-0.13,0.479 c-0.246,0.333-0.774,0.468-1.099,0.521c0.015,0.139-0.026,0.265-0.122,0.377c-0.287,0.335-1.032,0.472-1.538,0.472 c-0.012,0-0.023,0-0.035,0c0.104,0.247,0.111,0.463,0.019,0.626c-0.083,0.146-0.237,0.238-0.449,0.27 c0.098,0.31,0.009,0.514-0.085,0.633c-0.182,0.228-0.519,0.32-0.773,0.298c-0.077,0.197-0.195,0.326-0.351,0.384 c-0.217,0.079-0.445-0.002-0.539-0.047c-0.052,0.09-0.188,0.284-0.427,0.353c-0.202,0.06-0.427,0.011-0.667-0.138 C29.101,24.722,28.915,24.778,28.716,24.778z M28.219,20.074c-0.169,1.654-0.348,4.26-0.123,4.413 c0.33,0.226,0.864,0.276,1.082,0.01c0.016-0.021,0.044-0.022,0.066-0.011c0.229,0.152,0.439,0.203,0.621,0.149 c0.264-0.076,0.386-0.341,0.388-0.344c0.006-0.013,0.017-0.022,0.03-0.027c0.014-0.002,0.028-0.002,0.04,0.005 c0.002,0.002,0.268,0.152,0.501,0.062c0.136-0.05,0.239-0.171,0.305-0.359c0.008-0.022,0.031-0.03,0.054-0.033 c0.226,0.037,0.556-0.048,0.722-0.257c0.123-0.154,0.14-0.354,0.049-0.595c-0.005-0.015-0.004-0.031,0.004-0.044 c0.008-0.014,0.022-0.022,0.038-0.023c0.21-0.019,0.36-0.097,0.434-0.227c0.085-0.149,0.066-0.359-0.055-0.608 c-0.008-0.016-0.006-0.034,0.003-0.049c0.01-0.016,0.027-0.028,0.044-0.022c0.034,0.001,0.07,0.002,0.107,0.002 c0.477,0,1.203-0.128,1.466-0.436c0.088-0.104,0.118-0.216,0.092-0.345c-0.003-0.014,0-0.027,0.008-0.038 c0.008-0.012,0.02-0.02,0.034-0.021c0.302-0.044,0.845-0.166,1.083-0.488c0.096-0.13,0.132-0.283,0.105-0.454 c-0.002-0.014,0.001-0.026,0.009-0.037c0.008-0.011,0.02-0.019,0.033-0.021c1.09-0.161,1.505-0.442,1.432-0.971 c-0.003-0.024,0.011-0.048,0.035-0.055c0.027-0.009,0.062-0.019,0.101-0.029c0.443-0.129,1.62-0.472,1.514-1.214 c-0.004-0.025,0.013-0.05,0.039-0.056c0.612-0.133,1.128-0.53,1.273-0.838c0.051-0.109,0.058-0.203,0.018-0.279 c-0.007-0.014-0.007-0.029-0.001-0.043s0.018-0.024,0.032-0.028c0.438-0.127,0.631-0.468,0.572-1.014 c-0.002-0.02,0.007-0.038,0.024-0.049c0.371-0.227,0.43-0.592,0.296-0.82c-0.088-0.151-0.289-0.275-0.57-0.12 c-0.658,0.364-4.667,1.407-5.301,1.519c-0.693,0.123-3.907,1.188-4.952,1.566c-0.376,0.137-0.612,0.349-0.701,0.631 c-0.106,0.337,0.008,0.79,0.306,1.213c0.207,0.293,0.269,0.511,0.185,0.647c-0.062,0.101-0.199,0.148-0.381,0.12 C29.033,20.421,28.419,20.161,28.219,20.074z"/><path fill="#263238" d="M28.858,23.809c-0.141,0-0.274-0.026-0.361-0.058c-0.026-0.009-0.04-0.037-0.031-0.063 c0.01-0.025,0.039-0.04,0.064-0.03c0.139,0.048,0.437,0.089,0.64-0.012c0.094-0.047,0.157-0.118,0.188-0.214 c0.008-0.024,0.034-0.044,0.062-0.032c0.2,0.058,0.387,0.034,0.512-0.065c0.121-0.097,0.178-0.253,0.167-0.451 c-0.001-0.019,0.008-0.037,0.025-0.046c0.017-0.012,0.037-0.009,0.053,0.001c0.153,0.103,0.418,0.146,0.582,0.036 c0.127-0.085,0.171-0.253,0.125-0.484c-0.003-0.014,0-0.027,0.008-0.038c0.008-0.012,0.02-0.019,0.033-0.021 c0.351-0.056,0.556-0.161,0.594-0.303c0.045-0.17-0.157-0.38-0.239-0.446c-0.018-0.016-0.023-0.041-0.013-0.062 c0.011-0.022,0.033-0.037,0.058-0.025c0.429,0.113,1.184-0.129,1.444-0.472c0.096-0.127,0.109-0.248,0.041-0.361 c-0.009-0.015-0.009-0.032-0.002-0.048c0.008-0.016,0.023-0.025,0.04-0.027c0.156-0.016,0.521-0.255,0.591-0.508 c0.035-0.125-0.008-0.23-0.13-0.321c-0.017-0.012-0.024-0.033-0.019-0.053c0.005-0.021,0.022-0.034,0.042-0.037 c0.436-0.05,0.769-0.349,0.805-0.597c0.021-0.136-0.048-0.242-0.198-0.308c-0.02-0.009-0.032-0.028-0.03-0.05 s0.017-0.039,0.038-0.045c0.667-0.165,0.946-0.485,0.927-0.729c-0.013-0.168-0.167-0.288-0.392-0.308 c-0.024-0.002-0.043-0.021-0.045-0.046s0.014-0.047,0.038-0.053c0.719-0.173,0.904-0.555,0.837-0.855 c-0.057-0.259-0.28-0.441-0.496-0.398c-0.028,0.007-0.053-0.012-0.059-0.039c-0.006-0.027,0.012-0.054,0.039-0.059 c0.262-0.057,0.543,0.164,0.613,0.475c0.07,0.317-0.09,0.711-0.722,0.921c0.166,0.065,0.273,0.192,0.286,0.354 c0.02,0.252-0.204,0.604-0.885,0.803c0.115,0.087,0.168,0.21,0.147,0.352c-0.039,0.263-0.346,0.575-0.787,0.665 c0.114,0.126,0.112,0.259,0.085,0.354c-0.071,0.258-0.395,0.505-0.609,0.567c0.053,0.132,0.026,0.272-0.078,0.41 c-0.234,0.31-0.816,0.542-1.276,0.542c-0.038,0-0.076-0.002-0.112-0.005c0.093,0.105,0.199,0.271,0.156,0.435 c-0.047,0.177-0.258,0.301-0.625,0.367c0.047,0.312-0.068,0.464-0.177,0.536c-0.174,0.116-0.43,0.095-0.614,0.009 c-0.008,0.189-0.08,0.346-0.206,0.446c-0.142,0.112-0.344,0.146-0.558,0.095c-0.043,0.1-0.118,0.177-0.222,0.229 C29.107,23.788,28.98,23.809,28.858,23.809z"/><path fill="#263238" d="M33.028,17.915c-0.023,0-0.044-0.017-0.049-0.04c-0.005-0.027,0.013-0.054,0.04-0.059l1.46-0.284 c0.029-0.011,0.053,0.013,0.059,0.039c0.005,0.027-0.013,0.054-0.04,0.059l-1.46,0.284 C33.035,17.915,33.031,17.915,33.028,17.915z"/><path fill="#263238" d="M32.88,18.875c-0.025,0-0.047-0.019-0.05-0.045c-0.003-0.027,0.018-0.052,0.045-0.055l1.081-0.108 c0.027-0.002,0.052,0.017,0.055,0.045c0.003,0.027-0.018,0.052-0.045,0.055l-1.081,0.108 C32.883,18.875,32.881,18.875,32.88,18.875z"/><path fill="#263238" d="M33.339,19.767L33.339,19.767l-0.96-0.014c-0.028,0-0.05-0.022-0.049-0.051 c0-0.027,0.022-0.049,0.05-0.049h0l0.959,0.014c0.028,0,0.05,0.022,0.049,0.051C33.389,19.745,33.367,19.767,33.339,19.767z"/><path fill="#263238" d="M32.001,20.767c-0.025,0-0.047-0.02-0.05-0.045c-0.002-0.027,0.018-0.052,0.045-0.055l0.852-0.081 c0.034-0.006,0.052,0.018,0.055,0.045s-0.018,0.052-0.045,0.055l-0.852,0.081C32.004,20.767,32.003,20.767,32.001,20.767z"/><path fill="#263238" d="M35.245,17.226c-0.023,0-0.044-0.016-0.049-0.04c-0.006-0.026,0.012-0.053,0.039-0.059 c0.042-0.009,4.154-0.856,5.163-1.428c0.024-0.012,0.054-0.005,0.068,0.02c0.014,0.023,0.005,0.055-0.019,0.068 c-1.022,0.578-5.021,1.402-5.191,1.438C35.252,17.226,35.249,17.226,35.245,17.226z"/><path fill="#263238" d="M34.934,18.063c-0.023,0-0.043-0.016-0.049-0.039c-0.006-0.026,0.011-0.054,0.038-0.06 c0.043-0.01,4.328-0.975,4.872-1.2c0.024-0.013,0.054,0.001,0.065,0.026c0.01,0.025-0.001,0.055-0.027,0.065 c-0.552,0.229-4.711,1.166-4.888,1.206C34.941,18.063,34.938,18.063,34.934,18.063z"/><path fill="#263238" d="M34.191,19.023c-0.023,0-0.044-0.017-0.049-0.04c-0.005-0.027,0.012-0.054,0.039-0.059 c1.358-0.267,4-0.811,4.284-0.969c0.025-0.013,0.055-0.005,0.068,0.02c0.014,0.024,0.005,0.055-0.019,0.068 c-0.368,0.204-4.152,0.947-4.313,0.979C34.197,19.023,34.194,19.023,34.191,19.023z"/><path fill="#263238" d="M33.488,19.956c-0.024,0-0.045-0.017-0.049-0.041c-0.005-0.027,0.013-0.053,0.041-0.058 l3.352-0.608c0.029-0.007,0.054,0.013,0.058,0.04c0.005,0.027-0.013,0.053-0.041,0.058l-3.352,0.608 C33.494,19.956,33.491,19.956,33.488,19.956z"/><path fill="#263238" d="M32.907,20.808c-0.024,0-0.045-0.017-0.049-0.041c-0.005-0.027,0.014-0.054,0.041-0.058 l2.46-0.433c0.026-0.01,0.053,0.013,0.058,0.04s-0.014,0.054-0.041,0.058l-2.46,0.433C32.913,20.808,32.91,20.808,32.907,20.808z"/><path fill="#263238" d="M32.129,21.554c-0.026,0-0.048-0.02-0.05-0.046c-0.002-0.027,0.018-0.052,0.045-0.054 c0.018-0.002,1.792-0.151,2.005-0.179c0.029-0.001,0.052,0.017,0.056,0.044c0.003,0.027-0.016,0.052-0.043,0.056 c-0.215,0.027-1.937,0.173-2.009,0.179C32.132,21.554,32.131,21.554,32.129,21.554z"/><path fill="#263238" d="M32.42,22.213c-0.001,0-0.003,0-0.004,0l-0.879-0.081c-0.028-0.003-0.048-0.027-0.045-0.055 s0.03-0.046,0.054-0.045l0.879,0.081c0.028,0.003,0.048,0.027,0.045,0.055C32.468,22.193,32.446,22.213,32.42,22.213z"/><path fill="#263238" d="M32.001,23.119c-0.006,0-0.013-0.001-0.019-0.004l-0.838-0.338 c-0.026-0.01-0.038-0.039-0.028-0.064c0.011-0.025,0.042-0.038,0.065-0.027l0.838,0.338c0.026,0.01,0.038,0.039,0.028,0.064 C32.04,23.107,32.021,23.119,32.001,23.119z"/><path fill="#263238" d="M31.177,24.038c-0.003,0-0.006,0-0.009-0.001c-0.305-0.059-0.526-0.508-0.536-0.527 c-0.012-0.024-0.002-0.055,0.023-0.066c0.026-0.014,0.055-0.002,0.067,0.023c0.002,0.004,0.209,0.423,0.464,0.473 c0.027,0.005,0.045,0.031,0.04,0.059C31.221,24.021,31.2,24.038,31.177,24.038z"/><path fill="#263238" d="M30.298,24.362c-0.006,0-0.013-0.001-0.02-0.004c-0.205-0.088-0.338-0.485-0.353-0.53 c-0.009-0.026,0.006-0.055,0.032-0.063c0.025-0.008,0.054,0.007,0.062,0.032c0.036,0.11,0.159,0.41,0.297,0.47 c0.025,0.011,0.037,0.04,0.026,0.065C30.336,24.352,30.318,24.362,30.298,24.362z"/><path fill="#263238" d="M29.217,24.578c-0.009,0-0.018-0.002-0.026-0.007c-0.023-0.015-0.031-0.045-0.017-0.068 c0.062-0.103,0.094-0.39,0.102-0.492c0.002-0.026,0.024-0.046,0.05-0.046c0.001,0,0.002,0,0.003,0 c0.028,0.002,0.048,0.025,0.046,0.054c-0.001,0.016-0.029,0.393-0.115,0.535C29.25,24.569,29.234,24.578,29.217,24.578z"/><path fill="#263238" d="M31.366,20.348c-0.013,0-0.025-0.005-0.035-0.014c-0.02-0.02-0.021-0.051-0.001-0.071 c0.004-0.004,0.443-0.465,0.222-0.859c-0.011-0.02-0.008-0.043,0.007-0.059c0.185-0.193,0.274-0.385,0.265-0.567 c-0.011-0.223-0.166-0.359-0.167-0.36c-0.021-0.019-0.023-0.05-0.005-0.07s0.05-0.022,0.07-0.006 c0.007,0.007,0.188,0.164,0.201,0.43c0.01,0.203-0.08,0.411-0.268,0.616c0.219,0.451-0.234,0.926-0.254,0.946 C31.392,20.343,31.379,20.348,31.366,20.348z"/><path fill="#263238" d="M29.028,22.713c-0.024,0-0.045-0.017-0.049-0.041c-0.005-0.027,0.013-0.053,0.041-0.058 c0.004-0.001,0.427-0.084,0.668-0.503c0.009-0.015,0.025-0.024,0.043-0.024c0.011,0.002,0.021,0,0.032,0 c0.204,0,0.481-0.064,0.633-0.251c0.099-0.121,0.127-0.275,0.083-0.458c-0.003-0.016,0-0.031,0.01-0.044 c0.009-0.011,0.024-0.018,0.039-0.018c0,0,0.001,0,0.002,0c0.021,0.001,0.042,0.001,0.062,0.001c0.825,0,0.872-0.733,0.874-0.766 c0.001-0.026,0.023-0.047,0.05-0.047c0.001,0,0.001,0,0.002,0c0.027,0.001,0.049,0.024,0.047,0.052 c0,0.009-0.052,0.861-0.973,0.861c-0.001,0-0.002,0-0.003,0c0.03,0.186-0.01,0.352-0.116,0.481 c-0.175,0.215-0.483,0.285-0.714,0.288c-0.267,0.438-0.703,0.521-0.722,0.524C29.034,22.713,29.031,22.713,29.028,22.713z"/><g><path fill="#263238" d="M30.487,20.889c-0.011,0-0.022-0.004-0.032-0.011c-0.021-0.018-0.024-0.05-0.007-0.07 c0.004-0.006,0.421-0.534,0.033-1.519c-0.418-1.061,0.759-1.573,0.771-1.578c0.025-0.013,0.055,0.002,0.065,0.026 c0.011,0.025-0.001,0.055-0.026,0.065c-0.045,0.02-1.099,0.48-0.717,1.449c0.412,1.043-0.029,1.596-0.048,1.619 C30.516,20.883,30.502,20.889,30.487,20.889z"/></g></g><g><path fill="#ffc107" d="M18.291,28.381c0,0-0.541,0.716-0.973,0.906c-0.554,0-1.189-0.095-1.554,0.257 c-0.365,0.351-0.378,0.811-0.324,0.973s0.176,0.243,0.176,0.243s0,0.23,0.351,0.27c0.095,0.216,0.243,0.365,0.906,0.108 c0.662-0.257,0.581-0.419,0.676-0.743c0.095-0.324,0.054-0.405,0.365-0.527c0.311-0.122,1.595-0.811,1.595-0.811l0.095-0.838 l-0.703-0.635L18.291,28.381z"/><path fill="#263238" d="M16.319,31.324c-0.209,0-0.314-0.097-0.387-0.248c-0.292-0.044-0.352-0.221-0.364-0.289 c-0.04-0.032-0.13-0.116-0.176-0.255c-0.058-0.173-0.051-0.651,0.337-1.025c0.316-0.305,0.816-0.291,1.295-0.276 c0.095,0.003,0.19,0.006,0.283,0.006c0.414-0.188,0.938-0.879,0.944-0.886c0,0,0,0,0,0l0.608-0.798 c0.009-0.012,0.026-0.019,0.04-0.02c0.012,0,0.024,0.004,0.034,0.013l0.703,0.636c0.012,0.011,0.018,0.026,0.016,0.043 l-0.094,0.838c-0.002,0.016-0.012,0.03-0.026,0.038c-0.052,0.028-1.29,0.692-1.601,0.814c-0.231,0.09-0.244,0.143-0.294,0.34 c-0.011,0.044-0.024,0.095-0.041,0.153c-0.015,0.052-0.025,0.1-0.035,0.144c-0.053,0.237-0.091,0.409-0.67,0.634 C16.641,31.282,16.458,31.324,16.319,31.324z M16.723,29.324c-0.359,0-0.7,0.039-0.924,0.255 c-0.35,0.337-0.361,0.774-0.312,0.922c0.048,0.143,0.155,0.217,0.156,0.218c0.014,0.009,0.022,0.024,0.022,0.041 c0,0.007,0.008,0.186,0.308,0.221c0.018,0.002,0.033,0.014,0.04,0.029c0.068,0.155,0.153,0.351,0.842,0.082 c0.53-0.205,0.56-0.34,0.609-0.562c0.01-0.047,0.021-0.096,0.037-0.149c0.017-0.058,0.029-0.107,0.04-0.15 c0.052-0.206,0.075-0.3,0.354-0.409c0.282-0.11,1.392-0.703,1.566-0.796l0.088-0.787l-0.643-0.582l-0.575,0.755 c-0.023,0.029-0.554,0.729-0.993,0.921c-0.006,0.003-0.013,0.004-0.02,0.004c-0.097,0-0.196-0.003-0.296-0.006 C16.922,29.327,16.822,29.324,16.723,29.324z"/><path fill="#ffc107" d="M20.021,24.799c0,0-0.341,0.873-1.095,1.433c-0.892,0.662-0.61,1.725-0.649,1.879 c-0.068,0.27-0.405,0.5-0.405,0.5s0.541,0.068,0.852-0.203c0.041,0.284-0.149,0.608-0.149,0.608s0.365-0.014,0.784-0.46 c-0.095,0.541-0.027,0.892-0.027,0.892s0.122-0.297,0.433-0.378c0.311-0.081,0.324-0.852,0.892-1.135 c0.568-0.284,0.838-0.419,1.027-0.757C21.873,26.84,20.021,24.799,20.021,24.799z"/><path fill="#263238" d="M19.332,29.498c-0.001,0-0.003,0-0.005,0c-0.022-0.002-0.04-0.019-0.044-0.04 c-0.002-0.014-0.056-0.302,0.004-0.759c-0.381,0.351-0.695,0.367-0.709,0.367c-0.017-0.005-0.035-0.008-0.045-0.024 c-0.009-0.016-0.009-0.035,0-0.051c0.002-0.003,0.143-0.248,0.147-0.487c-0.326,0.215-0.792,0.159-0.813,0.156 c-0.021-0.003-0.038-0.018-0.042-0.038c-0.004-0.021,0.003-0.041,0.021-0.053c0.003-0.003,0.323-0.223,0.386-0.471 c0.005-0.021,0-0.086-0.004-0.155c-0.023-0.357-0.078-1.195,0.671-1.752c0.734-0.545,1.075-1.402,1.079-1.411 c0.006-0.016,0.021-0.027,0.037-0.03c0.019-0.006,0.034,0.002,0.046,0.016c0.313,0.345,1.866,2.085,1.668,2.437 c-0.197,0.353-0.481,0.494-1.048,0.777c-0.301,0.15-0.438,0.443-0.558,0.702c-0.099,0.212-0.184,0.396-0.344,0.438 c-0.282,0.073-0.398,0.346-0.399,0.349C19.371,29.486,19.352,29.498,19.332,29.498z M19.359,28.507 c0.008,0,0.015,0.002,0.022,0.005c0.02,0.01,0.031,0.032,0.027,0.054c-0.057,0.323-0.054,0.579-0.043,0.729 c0.072-0.099,0.196-0.222,0.387-0.272c0.114-0.029,0.19-0.192,0.278-0.382c0.121-0.26,0.271-0.583,0.604-0.75 c0.565-0.282,0.824-0.411,1.006-0.736c0.116-0.207-0.851-1.427-1.604-2.263c-0.1,0.225-0.442,0.907-1.081,1.381 c-0.705,0.524-0.655,1.295-0.63,1.666c0.006,0.09,0.01,0.149,0,0.185c-0.046,0.187-0.208,0.352-0.318,0.445 c0.005,0,0.01,0,0.016,0c0.176,0,0.473-0.027,0.667-0.197c0.014-0.012,0.032-0.015,0.05-0.009 c0.017,0.007,0.029,0.021,0.032,0.04c0.03,0.205-0.052,0.427-0.108,0.548c0.13-0.033,0.382-0.133,0.657-0.427 C19.332,28.512,19.345,28.507,19.359,28.507z"/><path fill="#263238" d="M19.175,27.071c-0.116,0-0.209-0.019-0.218-0.021c-0.021-0.004-0.037-0.021-0.04-0.043 c-0.002-0.021,0.009-0.042,0.028-0.051c0.002-0.002,0.262-0.127,0.297-0.328c0.042-0.24,0.245-0.499,0.253-0.51 c0.017-0.021,0.049-0.026,0.07-0.008c0.022,0.017,0.025,0.048,0.008,0.07c-0.002,0.002-0.195,0.25-0.233,0.465 c-0.026,0.146-0.137,0.256-0.227,0.323c0.143,0.009,0.336-0.01,0.405-0.128c0.148-0.251,0.423-0.254,0.435-0.254 c0.027,0,0.05,0.022,0.05,0.05s-0.022,0.05-0.05,0.05c-0.009,0-0.23,0.004-0.349,0.205 C19.519,27.039,19.328,27.071,19.175,27.071z"/><path fill="#263238" d="M20.122,27.782c-0.109,0-0.197-0.018-0.206-0.02c-0.021-0.004-0.037-0.021-0.04-0.043 c-0.002-0.021,0.009-0.041,0.028-0.051c0.002-0.001,0.246-0.123,0.279-0.315c0.04-0.23,0.231-0.479,0.24-0.489 c0.017-0.022,0.049-0.027,0.07-0.009c0.021,0.017,0.026,0.048,0.009,0.069c-0.002,0.003-0.185,0.24-0.22,0.446 c-0.024,0.14-0.127,0.244-0.212,0.31c0.132,0.009,0.31-0.012,0.375-0.123c0.141-0.242,0.403-0.245,0.414-0.245 c0.027,0,0.05,0.022,0.05,0.05s-0.022,0.05-0.05,0.05c-0.009,0-0.216,0.004-0.327,0.196 C20.45,27.751,20.267,27.782,20.122,27.782z"/><path fill="#263238" d="M19.046,28.342c-0.057,0-0.097-0.005-0.103-0.005c-0.021-0.003-0.039-0.019-0.043-0.039 c-0.004-0.021,0.005-0.043,0.023-0.054c0.002-0.001,0.217-0.131,0.233-0.308c0.019-0.216,0.178-0.46,0.185-0.47 c0.016-0.023,0.047-0.027,0.069-0.015c0.023,0.016,0.03,0.046,0.015,0.069c-0.002,0.002-0.152,0.233-0.169,0.423 c-0.011,0.127-0.092,0.229-0.165,0.297c0.124-0.006,0.277-0.038,0.326-0.141c0.112-0.236,0.357-0.26,0.368-0.261 c0.023-0.007,0.052,0.018,0.054,0.045s-0.018,0.052-0.045,0.055c-0.008,0.001-0.199,0.021-0.286,0.204 C19.425,28.315,19.185,28.342,19.046,28.342z"/><g><path fill="#263238" d="M15.966,31.08c-0.024,0-0.046-0.018-0.049-0.043c-0.112-0.783,0.372-1.029,0.392-1.039 c0.027-0.013,0.055-0.002,0.067,0.022c0.012,0.025,0.002,0.055-0.023,0.067c-0.018,0.009-0.438,0.227-0.337,0.936 c0.004,0.027-0.015,0.053-0.042,0.057C15.971,31.08,15.969,31.08,15.966,31.08z"/></g><g><path fill="#263238" d="M15.615,30.81c-0.027,0-0.049-0.021-0.05-0.048c-0.028-0.611,0.43-1.022,0.449-1.039 c0.021-0.02,0.051-0.017,0.071,0.004c0.018,0.021,0.016,0.053-0.004,0.07c-0.004,0.004-0.441,0.397-0.416,0.961 c0.001,0.027-0.02,0.051-0.047,0.052C15.616,30.81,15.615,30.81,15.615,30.81z"/></g></g><g><path fill="#ffc107" d="M29.892,28.381c0,0,0.541,0.716,0.973,0.906c0.554,0,1.189-0.095,1.554,0.257 c0.365,0.351,0.378,0.811,0.324,0.973s-0.176,0.243-0.176,0.243s0,0.23-0.351,0.27c-0.095,0.216-0.243,0.365-0.906,0.108 c-0.662-0.257-0.581-0.419-0.676-0.743c-0.095-0.324-0.054-0.405-0.365-0.527c-0.311-0.122-1.595-0.811-1.595-0.811l-0.095-0.838 l0.703-0.635L29.892,28.381z"/><path fill="#263238" d="M31.864,31.324c-0.138,0-0.322-0.042-0.571-0.139c-0.58-0.225-0.618-0.396-0.67-0.634 c-0.01-0.044-0.02-0.092-0.035-0.144c-0.017-0.059-0.03-0.109-0.041-0.153c-0.05-0.197-0.063-0.25-0.294-0.34 c-0.311-0.122-1.548-0.786-1.601-0.814c-0.015-0.008-0.024-0.022-0.026-0.038l-0.095-0.838c-0.001-0.017,0.004-0.032,0.016-0.043 l0.703-0.636c0.01-0.01,0.024-0.013,0.038-0.013c0.014,0.001,0.027,0.009,0.035,0.02l0.608,0.798c0,0,0,0,0,0 c0.005,0.007,0.53,0.698,0.944,0.886c0.092,0,0.188-0.003,0.283-0.006c0.479-0.015,0.978-0.028,1.295,0.276 c0.385,0.371,0.393,0.859,0.337,1.025c-0.046,0.139-0.137,0.223-0.176,0.255c-0.012,0.068-0.072,0.245-0.364,0.289 C32.178,31.228,32.073,31.324,31.864,31.324z M28.722,29.025c0.174,0.093,1.285,0.686,1.566,0.796 c0.279,0.109,0.303,0.203,0.354,0.409c0.011,0.043,0.023,0.093,0.04,0.15c0.016,0.054,0.027,0.103,0.037,0.149 c0.049,0.222,0.079,0.356,0.609,0.562c0.689,0.269,0.773,0.073,0.842-0.082c0.007-0.016,0.022-0.027,0.04-0.029 c0.299-0.035,0.307-0.214,0.307-0.222c0-0.016,0.009-0.031,0.022-0.041c0.001,0,0.109-0.074,0.156-0.217 c0.049-0.147,0.039-0.584-0.312-0.922c-0.286-0.275-0.763-0.263-1.223-0.249c-0.1,0.003-0.2,0.006-0.296,0.006 c-0.007,0-0.014-0.001-0.02-0.004c-0.439-0.191-0.97-0.892-0.993-0.921l-0.575-0.755l-0.644,0.582L28.722,29.025z"/><path fill="#ffc107" d="M28.162,24.799c0,0,0.341,0.873,1.095,1.433c0.892,0.662,0.61,1.725,0.649,1.879 c0.068,0.27,0.405,0.5,0.405,0.5s-0.541,0.068-0.852-0.203c-0.041,0.284,0.149,0.608,0.149,0.608s-0.365-0.014-0.784-0.46 c0.095,0.541,0.027,0.892,0.027,0.892s-0.122-0.297-0.433-0.378c-0.311-0.081-0.324-0.852-0.892-1.135 c-0.568-0.284-0.838-0.419-1.027-0.757C26.31,26.84,28.162,24.799,28.162,24.799z"/><path fill="#263238" d="M28.851,29.498c-0.02,0-0.039-0.012-0.046-0.03c-0.001-0.003-0.117-0.275-0.399-0.349 c-0.16-0.042-0.245-0.226-0.344-0.438c-0.12-0.259-0.257-0.552-0.558-0.702c-0.566-0.283-0.851-0.425-1.048-0.777 c-0.197-0.352,1.356-2.092,1.669-2.437c0.011-0.014,0.026-0.022,0.046-0.016c0.017,0.003,0.031,0.015,0.037,0.03 c0.003,0.009,0.346,0.867,1.078,1.411c0.749,0.557,0.694,1.395,0.671,1.752c-0.005,0.069-0.009,0.134-0.004,0.155 c0.062,0.248,0.382,0.468,0.386,0.471c0.017,0.012,0.025,0.032,0.021,0.053c-0.005,0.021-0.022,0.035-0.042,0.038 c-0.021,0.003-0.488,0.057-0.813-0.156c0.005,0.239,0.146,0.484,0.147,0.487c0.009,0.016,0.009,0.035,0,0.051 c-0.01,0.017-0.029,0.024-0.045,0.024c-0.014,0-0.329-0.017-0.709-0.367c0.06,0.457,0.006,0.745,0.004,0.759 c-0.004,0.021-0.022,0.038-0.044,0.04C28.854,29.498,28.853,29.498,28.851,29.498z M28.146,24.891 c-0.752,0.836-1.719,2.056-1.604,2.263c0.183,0.325,0.441,0.454,1.006,0.736c0.333,0.167,0.483,0.49,0.604,0.75 c0.088,0.189,0.164,0.353,0.278,0.382c0.191,0.051,0.315,0.174,0.387,0.272c0.01-0.149,0.013-0.405-0.043-0.729 c-0.004-0.022,0.007-0.044,0.027-0.054c0.021-0.008,0.044-0.006,0.059,0.011c0.275,0.294,0.527,0.394,0.657,0.427 c-0.056-0.121-0.138-0.343-0.108-0.548c0.002-0.019,0.015-0.033,0.032-0.04c0.017-0.006,0.036-0.003,0.05,0.009 c0.194,0.17,0.491,0.197,0.667,0.197c0.005,0,0.011,0,0.016,0c-0.11-0.094-0.271-0.259-0.318-0.445 c-0.009-0.035-0.005-0.095,0-0.185c0.024-0.371,0.075-1.142-0.631-1.666C28.589,25.798,28.247,25.115,28.146,24.891z"/><path fill="#263238" d="M29.008,27.071c-0.152,0-0.344-0.032-0.43-0.179c-0.118-0.201-0.339-0.205-0.349-0.205 c-0.028,0-0.05-0.022-0.05-0.05s0.022-0.05,0.05-0.05c0.012,0,0.287,0.003,0.435,0.254c0.07,0.118,0.259,0.138,0.405,0.128 c-0.091-0.067-0.201-0.177-0.227-0.323c-0.038-0.215-0.231-0.463-0.233-0.465c-0.017-0.022-0.014-0.054,0.008-0.07 c0.02-0.019,0.053-0.014,0.07,0.008c0.009,0.011,0.211,0.27,0.253,0.51c0.035,0.201,0.294,0.327,0.296,0.328 c0.02,0.009,0.031,0.029,0.028,0.051c-0.003,0.021-0.019,0.039-0.04,0.043C29.217,27.053,29.124,27.071,29.008,27.071z"/><path fill="#263238" d="M28.061,27.782c-0.145,0-0.328-0.031-0.41-0.174c-0.112-0.194-0.325-0.196-0.327-0.196 c-0.028,0-0.05-0.022-0.05-0.05s0.022-0.05,0.05-0.05c0.011,0,0.273,0.003,0.414,0.245c0.063,0.111,0.238,0.129,0.375,0.123 c-0.085-0.065-0.188-0.17-0.212-0.31c-0.036-0.206-0.218-0.443-0.22-0.446c-0.017-0.021-0.013-0.053,0.009-0.069 c0.022-0.019,0.053-0.014,0.07,0.009c0.008,0.01,0.2,0.259,0.24,0.489c0.034,0.192,0.277,0.314,0.279,0.315 c0.019,0.01,0.03,0.03,0.028,0.051c-0.003,0.021-0.019,0.039-0.04,0.043C28.258,27.765,28.17,27.782,28.061,27.782z"/><path fill="#263238" d="M29.137,28.342c-0.139,0-0.379-0.026-0.461-0.198c-0.087-0.184-0.279-0.203-0.287-0.204 c-0.027-0.003-0.048-0.027-0.045-0.055c0.002-0.025,0.024-0.045,0.05-0.045c0.001,0,0.003,0,0.004,0 c0.01,0.001,0.256,0.024,0.368,0.261c0.049,0.103,0.202,0.135,0.326,0.141c-0.072-0.067-0.154-0.17-0.165-0.297 c-0.017-0.189-0.167-0.421-0.169-0.423c-0.015-0.023-0.008-0.054,0.015-0.069c0.022-0.014,0.054-0.01,0.069,0.015 c0.006,0.01,0.166,0.254,0.185,0.47c0.016,0.177,0.231,0.307,0.233,0.308c0.019,0.011,0.028,0.032,0.023,0.054 c-0.004,0.021-0.022,0.036-0.043,0.039C29.234,28.337,29.194,28.342,29.137,28.342z"/><g><path fill="#263238" d="M32.217,31.08c-0.002,0-0.005,0-0.007,0c-0.027-0.004-0.046-0.029-0.042-0.057 c0.101-0.709-0.32-0.927-0.338-0.936c-0.025-0.013-0.035-0.042-0.023-0.067c0.012-0.024,0.042-0.036,0.067-0.022 c0.021,0.01,0.504,0.256,0.393,1.039C32.263,31.062,32.241,31.08,32.217,31.08z"/></g><g><path fill="#263238" d="M32.568,30.81c-0.001,0-0.001,0-0.002,0c-0.027-0.001-0.049-0.024-0.047-0.052 c0.026-0.563-0.411-0.957-0.416-0.961c-0.021-0.018-0.022-0.05-0.004-0.07c0.019-0.021,0.049-0.023,0.071-0.004 c0.02,0.017,0.477,0.428,0.449,1.039C32.617,30.789,32.594,30.81,32.568,30.81z"/></g></g><g><ellipse cx="24.076" cy="29.401" fill="#ffc107" rx=".527" ry=".791"/><path fill="#263238" d="M24.076,30.242c-0.318,0-0.577-0.377-0.577-0.841s0.259-0.841,0.577-0.841s0.577,0.377,0.577,0.841 S24.395,30.242,24.076,30.242z M24.076,28.66c-0.263,0-0.478,0.333-0.478,0.741s0.214,0.741,0.478,0.741s0.478-0.333,0.478-0.741 S24.339,28.66,24.076,28.66z"/></g><g><path fill="#388e3c" d="M17.034,30.422c0,0-0.378-0.027-0.473,0.419c0.297,0.649,1.081,1.757,1.081,1.757 s0.514,0.027,0.879-0.135C18.034,31.868,17.034,30.422,17.034,30.422z"/><path fill="#263238" d="M17.734,32.649c-0.054,0-0.089-0.002-0.094-0.002c-0.016-0.001-0.03-0.009-0.039-0.021 c-0.008-0.012-0.79-1.12-1.086-1.766c-0.004-0.01-0.006-0.021-0.003-0.031c0.103-0.483,0.529-0.453,0.525-0.458 c0.015,0.001,0.029,0.009,0.038,0.021c0.01,0.015,1.004,1.451,1.484,2.038c0.01,0.012,0.014,0.027,0.01,0.043 c-0.004,0.015-0.014,0.027-0.028,0.034C18.26,32.634,17.901,32.649,17.734,32.649z M17.669,32.549 c0.093-0.001,0.472,0.004,0.77-0.106c-0.462-0.576-1.309-1.794-1.432-1.971c-0.076,0.003-0.318,0.038-0.395,0.363 C16.888,31.426,17.562,32.396,17.669,32.549z"/></g><g><path fill="#1e88e5" d="M31.402,30.368l-0.973,1.149l-0.622-0.122l-1.919,2.257l0.96,0.081l0.216,1.014l1.892-2.217 l-0.189-0.716l0.919-1.135C31.686,30.679,31.659,30.476,31.402,30.368z"/><path fill="#263238" d="M29.064,34.797c-0.004,0-0.008,0-0.012-0.001c-0.019-0.005-0.033-0.02-0.037-0.038l-0.208-0.978 l-0.923-0.078c-0.019-0.002-0.035-0.014-0.042-0.03c-0.007-0.018-0.004-0.038,0.008-0.052l1.919-2.257 c0.012-0.015,0.03-0.02,0.048-0.017l0.593,0.115l0.954-1.126c0.015-0.017,0.038-0.022,0.058-0.014 c0.28,0.117,0.313,0.34,0.314,0.35c0.002,0.014-0.002,0.027-0.01,0.038l-0.904,1.116l0.183,0.691c0.004,0.016,0,0.032-0.01,0.045 l-1.892,2.217C29.092,34.791,29.079,34.797,29.064,34.797z M27.989,33.61l0.863,0.073c0.022,0.002,0.04,0.018,0.044,0.039 l0.195,0.915l1.809-2.12l-0.183-0.69c-0.004-0.016,0-0.032,0.009-0.044l0.904-1.117c-0.013-0.045-0.06-0.159-0.216-0.236 l-0.949,1.119c-0.012,0.015-0.028,0.022-0.048,0.017l-0.593-0.115L27.989,33.61z"/></g><g><polygon fill="#1e88e5" points="31.28,30.341 30.915,30.976 30.253,30.935 29.037,33.436 29.915,33.571 30.267,34.342 31.618,31.719 31.28,31.125 31.578,30.462"/><path fill="#263238" d="M30.267,34.392C30.266,34.392,30.266,34.392,30.267,34.392c-0.021,0-0.038-0.012-0.045-0.029 l-0.34-0.746l-0.852-0.131c-0.016-0.003-0.029-0.013-0.037-0.026c-0.007-0.015-0.007-0.031,0-0.045l1.217-2.5 c0.009-0.019,0.027-0.022,0.048-0.028l0.631,0.038l0.349-0.608c0.012-0.022,0.037-0.032,0.062-0.021l0.297,0.122 c0.013,0.005,0.022,0.015,0.027,0.027s0.005,0.026-0.001,0.039l-0.287,0.639l0.325,0.573c0.008,0.015,0.009,0.032,0.001,0.047 l-1.352,2.622C30.302,34.382,30.285,34.392,30.267,34.392z M29.111,33.396l0.812,0.125c0.017,0.003,0.031,0.014,0.038,0.029 l0.309,0.677l1.292-2.507l-0.325-0.571c-0.008-0.014-0.009-0.03-0.002-0.045l0.276-0.615l-0.209-0.086l-0.343,0.598 c-0.009,0.015-0.026,0.024-0.043,0.024c-0.001,0-0.002,0-0.003,0l-0.629-0.038L29.111,33.396z"/></g><g><path fill="#eceff1" d="M24.09,19.025V19c-0.007,0.005-0.014,0.008-0.02,0.012c-0.007-0.005-0.014-0.008-0.02-0.012v0.025 c-1.995,1.373-4.582,0.029-4.582,0.029s0.014,0.338,0.027,3.798c0.013,3.29,3.284,5.799,4.555,6.34v0.026 c0,0,0.015-0.01,0.02-0.013c0.005,0.003,0.02,0.013,0.02,0.013v-0.026c1.527-0.717,4.542-3.05,4.555-6.34 c0.013-3.46,0.027-3.798,0.027-3.798S26.085,20.399,24.09,19.025z"/></g><g><path fill="#1e88e5" d="M8.397,21.771c0,0-0.73,0.068-0.514,0.689s1.189,3.636,1.189,3.636l1.189-3.663 c0,0,0.027-0.527-0.419-0.622c0.797,0,1.933,0,1.933,0s-0.405,0.216-0.527,0.595s-1.663,5.042-1.663,5.042 s-0.108,0.284,0.338,0.433c-0.46,0-1.865,0-1.865,0s0.568-0.068,0.46-0.419s-1.69-5.163-1.69-5.163s-0.068-0.338-0.554-0.514 C6.991,21.785,8.397,21.785,8.397,21.771z"/><path fill="#263238" d="M9.924,27.931H8.059c-0.026,0-0.048-0.021-0.05-0.047s0.018-0.05,0.044-0.053 c0.003,0,0.303-0.038,0.4-0.188c0.031-0.048,0.037-0.103,0.017-0.167c-0.106-0.347-1.673-5.114-1.689-5.162 c-0.004-0.019-0.072-0.319-0.524-0.482c-0.023-0.008-0.036-0.031-0.032-0.056c0.004-0.023,0.025-0.041,0.049-0.041 c0.581,0,1.907,0,2.092-0.011c0.022-0.003,0.026-0.003,0.03-0.003c0.012,0,0.024,0.005,0.034,0.013 c0.01,0.01,0.016,0.023,0.016,0.037c0,0.018,0,0.03-0.046,0.04l0.001,0.01c-0.003,0-0.326,0.033-0.455,0.233 c-0.065,0.103-0.071,0.233-0.017,0.39c0.187,0.536,0.944,2.878,1.142,3.49l1.14-3.51c0.001-0.06-0.001-0.484-0.379-0.564 c-0.025-0.005-0.042-0.028-0.04-0.054c0.003-0.025,0.024-0.045,0.05-0.045h1.933c0.023,0,0.043,0.016,0.048,0.038 c0.006,0.021-0.004,0.045-0.025,0.056c-0.004,0.002-0.39,0.213-0.503,0.566c-0.12,0.374-1.647,4.995-1.663,5.042 c-0.001,0.005-0.026,0.076,0.015,0.161c0.043,0.088,0.141,0.158,0.292,0.208c0.023,0.008,0.038,0.031,0.034,0.056 S9.949,27.931,9.924,27.931z M8.385,27.831h1.32c-0.068-0.047-0.118-0.103-0.147-0.165c-0.059-0.124-0.019-0.231-0.018-0.235 c0.015-0.045,1.542-4.665,1.662-5.04c0.08-0.248,0.273-0.428,0.408-0.529h-1.535c0.254,0.195,0.238,0.57,0.238,0.575 c0,0.004-0.001,0.009-0.002,0.013L9.12,26.112c-0.006,0.021-0.026,0.034-0.047,0.034l0,0c-0.021,0-0.041-0.014-0.047-0.034 c-0.01-0.03-0.976-3.021-1.189-3.635C7.771,22.29,7.78,22.13,7.863,22.001c0.048-0.075,0.116-0.131,0.187-0.171 c-0.277,0.005-0.749,0.005-1.55,0.005c0.321,0.189,0.375,0.441,0.377,0.454c0.015,0.042,1.582,4.811,1.688,5.158 c0.029,0.093,0.019,0.178-0.029,0.251C8.501,27.755,8.445,27.798,8.385,27.831z"/></g><g><path fill="#1e88e5" d="M39.404,21.812c0,0,0.446,0.095,0.446,0.743s0,4.893,0,4.893s0.041,0.324-0.392,0.46 c0.527,0,1.798,0,1.798,0s-0.473-0.027-0.473-0.473c0-0.446,0-5.082,0-5.082s-0.041-0.433,0.554-0.527 C40.728,21.825,39.404,21.812,39.404,21.812z"/><path fill="#263238" d="M41.255,27.958h-1.797c-0.025,0-0.046-0.018-0.049-0.042c-0.004-0.024,0.011-0.048,0.034-0.056 c0.388-0.122,0.357-0.403,0.357-0.406v-4.898c0-0.598-0.39-0.691-0.407-0.695c-0.025-0.006-0.042-0.029-0.039-0.055 c0.003-0.025,0.024-0.044,0.05-0.044h0c0.013,0,1.332,0.014,1.932,0.014c0.026,0,0.048,0.02,0.05,0.046s-0.016,0.049-0.042,0.054 c-0.539,0.085-0.513,0.457-0.512,0.473v5.087c0,0.393,0.409,0.423,0.426,0.424c0.027,0.002,0.048,0.024,0.047,0.052 C41.305,27.937,41.282,27.958,41.255,27.958z M39.68,27.858h1.275c-0.116-0.074-0.222-0.202-0.222-0.424v-5.082 c0,0-0.024-0.305,0.291-0.479c-0.47-0.002-1.093-0.008-1.412-0.011c0.134,0.104,0.288,0.307,0.288,0.692v4.893l0,0 C39.9,27.448,39.926,27.69,39.68,27.858z"/></g><g><path fill="#d32f2f" d="M27.982,25.432v-3.174h-0.77v4.37C27.5,26.26,27.763,25.862,27.982,25.432z"/><path fill="#d32f2f" d="M25.171,28.556v-6.298h-0.77v6.77C24.64,28.898,24.896,28.747,25.171,28.556z"/><path fill="#d32f2f" d="M26.577,27.359v-5.101h-0.77v5.818C26.066,27.862,26.324,27.618,26.577,27.359z"/><path fill="#d32f2f" d="M20.954,26.61v-4.352h-0.77v3.172C20.404,25.853,20.669,26.244,20.954,26.61z"/><path fill="#d32f2f" d="M23.765,29.048v-6.79h-0.77v6.314C23.281,28.775,23.537,28.928,23.765,29.048z"/><path fill="#d32f2f" d="M22.36,28.077v-5.819h-0.77v5.089C21.845,27.613,22.103,27.86,22.36,28.077z"/></g><g><path fill="#283593" d="M28.647,22.366c0.013-3.001,0.025-3.312,0.025-3.312s-2.587,1.344-4.582-0.029V19 c-0.007,0.005-0.014,0.008-0.02,0.012c-0.007-0.005-0.014-0.008-0.02-0.012v0.025c-1.995,1.373-4.582,0.029-4.582,0.029 s0.012,0.311,0.025,3.312H28.647z"/></g><g><path fill="#263238" d="M24.049,29.269c-0.008,0-0.016-0.002-0.023-0.006c-0.015-0.008-0.024-0.021-0.026-0.037 c-1.244-0.547-4.543-3.012-4.556-6.373c-0.014-3.412-0.027-3.792-0.027-3.796c-0.001-0.018,0.008-0.034,0.023-0.044 c0.015-0.012,0.033-0.012,0.05-0.002c0.026,0.014,2.564,1.304,4.509-0.012c0-0.018,0.01-0.033,0.025-0.042 c0.015-0.008,0.031-0.007,0.046-0.001c0.013-0.005,0.03-0.002,0.041,0.004c0.014,0.009,0.026,0.022,0.027,0.039 c1.943,1.314,4.483,0.024,4.509,0.012c0.016-0.01,0.034-0.01,0.05,0.002c0.015,0.01,0.024,0.026,0.023,0.044 c0,0.004-0.014,0.384-0.027,3.796c-0.013,3.454-3.264,5.755-4.555,6.372c-0.002,0.016-0.011,0.03-0.026,0.038 c-0.013,0.007-0.029,0.008-0.044,0.002C24.063,29.268,24.056,29.269,24.049,29.269z M19.519,19.135 c0.004,0.229,0.015,1.04,0.025,3.718c0.013,3.297,3.37,5.802,4.525,6.294c0,0,0,0,0,0c1.255-0.589,4.512-2.867,4.525-6.294 c0.01-2.678,0.021-3.489,0.025-3.718c-0.441,0.206-2.745,1.171-4.55-0.062C22.263,20.307,19.96,19.341,19.519,19.135z"/></g></svg>