<svg xmlns="http://www.w3.org/2000/svg"  viewBox="0 0 48 48" width="100px" height="100px"><circle cx="24" cy="24" r="20" fill="#d50000"/><polygon fill="#fdd835" points="16.469,20.653 15.845,21.221 16.384,21.817 15.391,21.618 14.909,22.186 14.767,21.391 14.029,21.221 14.71,20.994 14.852,20.228 15.391,20.767"/><path fill="#263238" d="M14.909,22.235c-0.004,0-0.009,0-0.013-0.002c-0.019-0.005-0.033-0.02-0.036-0.039l-0.136-0.763 l-0.706-0.162c-0.022-0.005-0.038-0.024-0.039-0.047c-0.001-0.021,0.013-0.042,0.034-0.05l0.653-0.217l0.137-0.737 c0.003-0.019,0.017-0.033,0.035-0.039c0.017-0.004,0.037,0,0.05,0.013l0.522,0.522l1.054-0.111 c0.019-0.004,0.042,0.01,0.051,0.029c0.009,0.02,0.004,0.043-0.012,0.058l-0.587,0.534l0.506,0.559 c0.015,0.016,0.017,0.039,0.006,0.058c-0.011,0.02-0.032,0.029-0.053,0.024l-0.964-0.192l-0.463,0.545 C14.937,22.229,14.923,22.235,14.909,22.235z M14.213,21.212l0.564,0.13c0.02,0.005,0.035,0.021,0.038,0.04l0.124,0.69 l0.414-0.486c0.012-0.014,0.031-0.021,0.048-0.017l0.845,0.168l-0.438-0.483c-0.019-0.021-0.017-0.052,0.003-0.07l0.511-0.465 l-0.926,0.098c-0.015,0.001-0.03-0.004-0.041-0.015l-0.472-0.472l-0.125,0.673c-0.003,0.019-0.016,0.033-0.034,0.039 L14.213,21.212z"/><polygon fill="#fdd835" points="30.135,18.398 29.963,17.573 29.176,17.735 29.851,16.98 29.606,16.276 30.363,16.557 30.884,16.007 30.734,16.709 31.323,17.22 30.584,17.412"/><path fill="#263238" d="M30.135,18.448c-0.002,0-0.004,0-0.005,0c-0.021-0.003-0.039-0.019-0.043-0.04l-0.162-0.776 l-0.738,0.152c-0.021,0.007-0.042-0.005-0.054-0.023c-0.011-0.02-0.008-0.043,0.006-0.059l0.655-0.734l-0.235-0.675 c-0.006-0.019-0.001-0.039,0.012-0.053c0.014-0.013,0.034-0.018,0.053-0.011l0.725,0.269l0.499-0.524 c0.016-0.018,0.04-0.021,0.06-0.01c0.02,0.01,0.03,0.032,0.025,0.055L30.79,16.69l0.566,0.492c0.014,0.013,0.02,0.031,0.016,0.05 c-0.004,0.018-0.019,0.032-0.036,0.037l-0.715,0.184l-0.439,0.966C30.172,18.438,30.155,18.448,30.135,18.448z M29.963,17.522 c0.023,0,0.044,0.016,0.049,0.04l0.141,0.676l0.386-0.848c0.006-0.014,0.018-0.024,0.033-0.028l0.646-0.166l-0.517-0.449 c-0.014-0.013-0.02-0.03-0.016-0.049l0.112-0.527l-0.399,0.42c-0.013,0.016-0.034,0.021-0.054,0.013l-0.657-0.243l0.209,0.603 c0.006,0.018,0.002,0.036-0.01,0.05l-0.574,0.643l0.639-0.132C29.956,17.522,29.959,17.522,29.963,17.522z"/><polygon fill="#fdd835" points="25.17,31.338 25.971,31.603 26.225,30.841 26.54,31.803 27.271,31.945 26.649,32.459 26.863,33.185 26.331,32.703 25.594,32.956 25.798,32.221"/><path fill="#263238" d="M26.863,33.234c-0.012,0-0.024-0.004-0.034-0.013l-0.51-0.462l-0.709,0.243 c-0.018,0.006-0.037,0.002-0.05-0.011s-0.019-0.031-0.014-0.05l0.198-0.711l-0.614-0.864c-0.013-0.018-0.013-0.042,0-0.059 c0.013-0.019,0.037-0.021,0.056-0.019l0.754,0.249l0.239-0.714c0.007-0.021,0.026-0.034,0.047-0.034l0,0 c0.022,0,0.041,0.014,0.047,0.034l0.306,0.935l0.702,0.137c0.019,0.004,0.034,0.018,0.039,0.036 c0.005,0.02-0.001,0.039-0.017,0.051l-0.597,0.493l0.205,0.694c0.006,0.021-0.002,0.044-0.021,0.056 C26.881,33.232,26.872,33.234,26.863,33.234z M26.331,32.653c0.012,0,0.024,0.004,0.034,0.013l0.4,0.362l-0.164-0.556 c-0.006-0.019,0-0.039,0.016-0.052l0.541-0.446l-0.627-0.122c-0.018-0.003-0.033-0.016-0.038-0.033L26.225,31l-0.207,0.618 c-0.009,0.027-0.036,0.038-0.063,0.032l-0.657-0.217l0.54,0.759c0.009,0.013,0.012,0.028,0.008,0.043l-0.179,0.643l0.647-0.222 C26.32,32.654,26.325,32.653,26.331,32.653z"/><path fill="#fafafa" d="M21.833,22.696l-0.199-3.888l-0.142-0.284c0,0-0.227,1.362-5.08,1.476 c-0.596,0.227-0.851,0.284-0.851,0.284s-0.936,1.305-1.277-0.284c-0.312-0.766-0.511-1.107-0.511-1.107s-1.164-0.624-1.305-2.072 c0-0.454,0.539-0.341,0.653-0.17s1.674,1.589,1.873,1.731c0.199,0.142,0.823,0.482,1.249,0.284 c0.426-0.199,3.292-1.873,4.484-1.901c0.426,0,0.312-0.624,1.135-0.709c0.823-0.085,1.476-0.085,1.731,0.823 c0.255,0.908,0.454,1.192,0.709,1.504c0.255,0.312,1.277,2.753,1.391,3.746l-1.759,1.305L21.833,22.696z"/><path fill="#231f20" d="M23.933,23.484c-0.005,0-0.011-0.001-0.017-0.003l-2.1-0.738c-0.019-0.007-0.032-0.024-0.033-0.044 l-0.198-3.878l-0.086-0.172c-0.173,0.34-1.02,1.305-5.076,1.401c-0.505,0.191-0.763,0.261-0.832,0.277 c-0.066,0.089-0.402,0.511-0.748,0.511c-0.027,0-0.055-0.003-0.083-0.009c-0.243-0.051-0.42-0.326-0.525-0.818 c-0.273-0.67-0.462-1.017-0.499-1.081c-0.13-0.076-1.184-0.729-1.318-2.104c0-0.251,0.145-0.331,0.23-0.357 c0.192-0.054,0.434,0.035,0.513,0.155c0.106,0.158,1.642,1.562,1.86,1.717c0.198,0.141,0.797,0.463,1.199,0.28 c0.075-0.035,0.229-0.118,0.44-0.231c0.998-0.536,3.074-1.651,4.063-1.675c0.158,0,0.229-0.098,0.327-0.231 c0.139-0.19,0.312-0.428,0.804-0.479c0.849-0.09,1.52-0.08,1.785,0.859c0.25,0.893,0.44,1.168,0.7,1.486 c0.254,0.31,1.283,2.737,1.402,3.771c0.002,0.018-0.006,0.035-0.02,0.046l-1.759,1.306C23.954,23.481,23.944,23.484,23.933,23.484 z M21.881,22.66l2.043,0.719l1.714-1.272c-0.131-1.028-1.147-3.412-1.376-3.692c-0.26-0.317-0.463-0.612-0.719-1.521 c-0.244-0.866-0.85-0.874-1.677-0.787c-0.449,0.046-0.601,0.254-0.734,0.438c-0.102,0.141-0.199,0.272-0.406,0.272 c-0.964,0.023-3.104,1.172-4.017,1.663c-0.213,0.114-0.368,0.197-0.446,0.233c-0.534,0.254-1.291-0.283-1.298-0.288 c-0.182-0.13-1.766-1.564-1.886-1.744c-0.057-0.086-0.26-0.157-0.401-0.114c-0.106,0.032-0.16,0.118-0.16,0.257 c0.137,1.399,1.268,2.021,1.279,2.027c0.008,0.004,0.015,0.011,0.02,0.019c0.008,0.015,0.204,0.353,0.514,1.114 c0.099,0.459,0.25,0.708,0.451,0.75c0.334,0.074,0.735-0.473,0.74-0.478c0.007-0.01,0.018-0.017,0.03-0.02 c0.002-0.001,0.26-0.059,0.844-0.281c0.005-0.002,0.011-0.003,0.017-0.003c4.731-0.111,5.029-1.422,5.031-1.436 c0.004-0.021,0.021-0.037,0.042-0.04c0.018-0.007,0.042,0.008,0.052,0.026l0.142,0.284c0.003,0.006,0.005,0.013,0.005,0.02 L21.881,22.66z"/><path fill="#fdd835" d="M22.032,16.311c0,0,0.028,1.249-0.454,1.391c-0.482,0.142-0.681,0.766-0.028,1.022 c0.653,0.255,0.823-0.341,0.624-0.88c-0.199-0.539,0.397-0.823,0.568-1.192C22.911,16.283,22.372,15.971,22.032,16.311z"/><path fill="#263238" d="M21.833,18.835c-0.083,0-0.183-0.019-0.301-0.064c-0.295-0.116-0.458-0.32-0.447-0.562 c0.011-0.247,0.208-0.476,0.479-0.555c0.365-0.108,0.426-1.005,0.418-1.342c0-0.014,0.005-0.026,0.015-0.036 c0.214-0.214,0.489-0.191,0.655-0.074c0.162,0.112,0.215,0.298,0.135,0.471c-0.059,0.128-0.162,0.241-0.271,0.36 c-0.215,0.236-0.418,0.46-0.295,0.793c0.132,0.357,0.101,0.715-0.078,0.89C22.08,18.776,21.981,18.835,21.833,18.835z M22.082,16.332c0.001,0.177-0.008,1.275-0.49,1.418c-0.231,0.068-0.399,0.259-0.408,0.464c-0.009,0.195,0.131,0.364,0.383,0.463 c0.222,0.086,0.396,0.074,0.505-0.032c0.15-0.148,0.172-0.463,0.054-0.783c-0.144-0.391,0.1-0.659,0.315-0.896 c0.104-0.113,0.201-0.221,0.254-0.335c0.071-0.154-0.006-0.28-0.101-0.347C22.464,16.195,22.253,16.174,22.082,16.332z"/><path fill="#231f20" d="M22.911,23.03c-0.004,0-0.009,0-0.013-0.002c-0.027-0.007-0.042-0.034-0.035-0.062 c0.5-1.806-0.667-4.537-0.679-4.564c-0.008-0.02-0.003-0.042,0.012-0.057l1.391-1.277c0.019-0.02,0.052-0.018,0.07,0.003 c0.019,0.021,0.018,0.053-0.003,0.071l-1.365,1.253c0.132,0.319,1.149,2.867,0.67,4.599C22.953,23.016,22.933,23.03,22.911,23.03z"/><path fill="#231f20" d="M15.405,20.015c-0.043,0-0.083-0.008-0.12-0.021c-0.106-0.042-0.181-0.147-0.226-0.32 c-0.176-0.674,0.223-1.081,0.24-1.098c0.02-0.02,0.051-0.02,0.07,0s0.02,0.051,0,0.07c-0.015,0.016-0.375,0.386-0.214,1.002 c0.037,0.143,0.09,0.223,0.166,0.252c0.2,0.079,0.614-0.183,1.239-0.58c0.17-0.108,0.357-0.228,0.563-0.355 c0.009-0.006,0.023-0.006,0.032-0.007c2.786,0.344,3.683-0.698,3.775-0.817l0.028-1.46c0-0.027,0.022-0.049,0.05-0.049 c0,0,0,0,0.001,0c0.028,0,0.049,0.023,0.049,0.051l-0.028,1.476c0,0.01-0.003,0.019-0.008,0.027 c-0.034,0.051-0.875,1.236-3.861,0.874c-0.2,0.124-0.382,0.239-0.547,0.345C16.021,19.781,15.654,20.015,15.405,20.015z"/><polygon fill="#fdd835" points="13.632,17.191 13.319,18.553 13.859,19.092 14.341,17.73"/><path fill="#263238" d="M13.858,19.143c-0.013,0-0.026-0.005-0.035-0.015l-0.539-0.54 c-0.012-0.012-0.018-0.029-0.014-0.046l0.312-1.361c0.004-0.017,0.016-0.03,0.032-0.036c0.014-0.007,0.034-0.004,0.047,0.007 l0.709,0.539c0.017,0.014,0.024,0.036,0.017,0.057l-0.482,1.362c-0.006,0.017-0.02,0.028-0.036,0.032 C13.866,19.143,13.862,19.143,13.858,19.143z M13.374,18.537l0.464,0.464l0.444-1.253l-0.619-0.47L13.374,18.537z"/><path fill="#231f20" d="M14.114,19.71c-0.008,0-0.017-0.002-0.024-0.006c-0.024-0.014-0.033-0.045-0.019-0.068l0.738-1.306 c0.014-0.024,0.043-0.032,0.068-0.02c0.024,0.014,0.033,0.045,0.019,0.068l-0.738,1.306C14.148,19.701,14.132,19.71,14.114,19.71z"/><path fill="#231f20" d="M17.775,19.965c-0.001,0-0.003,0-0.005,0c-0.027-0.003-0.048-0.027-0.045-0.055l0.085-0.851 c0.002-0.025,0.024-0.045,0.05-0.045c0.001,0,0.003,0,0.005,0c0.027,0.003,0.048,0.027,0.045,0.055l-0.085,0.851 C17.822,19.945,17.8,19.965,17.775,19.965z"/><path fill="#231f20" d="M20.3,19.426c-0.009,0-0.018-0.002-0.026-0.007c-0.012-0.007-0.297-0.182-0.528-0.586 c-0.007-0.013-0.009-0.029-0.003-0.043c0.217-0.542-0.25-1.739-0.255-1.751c-0.01-0.025,0.002-0.055,0.028-0.065 c0.025-0.009,0.055,0.003,0.065,0.028c0.02,0.05,0.475,1.215,0.264,1.802c0.215,0.366,0.479,0.527,0.481,0.529 c0.023,0.015,0.031,0.045,0.017,0.068C20.333,19.417,20.317,19.426,20.3,19.426z"/><path fill="#fafafa" d="M25.654,21.984l3.451,1.801l0.317,0.022c0,0-1.059-0.887,1.305-5.126 c0.107-0.629,0.187-0.878,0.187-0.878s-0.65-1.469,0.892-0.957c0.819,0.12,1.213,0.121,1.213,0.121s1.128-0.686,2.447-0.074 c0.391,0.23,0.02,0.637-0.184,0.649c-0.204,0.011-2.219,0.637-2.442,0.736c-0.223,0.099-0.833,0.465-0.878,0.932 c-0.045,0.468-0.056,3.787-0.636,4.829c-0.216,0.367,0.38,0.586,0.036,1.338s-0.675,1.315-1.587,1.074 c-0.912-0.241-1.257-0.213-1.656-0.152s-3.02-0.296-3.934-0.702l-0.232-2.178L25.654,21.984z"/><path fill="#231f20" d="M30.175,26.559c-0.124,0-0.261-0.019-0.413-0.06c-0.896-0.235-1.23-0.213-1.635-0.149 c-0.031,0.004-0.075,0.007-0.131,0.007c-0.662,0-2.953-0.323-3.831-0.712c-0.016-0.008-0.027-0.022-0.029-0.041l-0.232-2.179 c-0.001-0.016,0.005-0.032,0.018-0.043l1.701-1.436c0.015-0.013,0.037-0.016,0.055-0.006l3.442,1.796l0.192,0.013 c-0.206-0.321-0.607-1.541,1.368-5.085c0.091-0.534,0.162-0.791,0.182-0.858c-0.046-0.11-0.268-0.688-0.011-0.969 c0.167-0.184,0.495-0.195,0.973-0.038c0.716,0.104,1.109,0.117,1.184,0.119c0.132-0.073,1.232-0.65,2.481-0.069 c0.217,0.127,0.212,0.292,0.191,0.38c-0.047,0.195-0.25,0.355-0.394,0.363c-0.19,0.011-2.179,0.623-2.424,0.732 c-0.222,0.099-0.807,0.452-0.849,0.892c-0.008,0.083-0.015,0.26-0.024,0.503c-0.044,1.13-0.137,3.481-0.618,4.345 c-0.08,0.136-0.032,0.246,0.034,0.399c0.094,0.216,0.21,0.484,0.004,0.935C31.11,26.05,30.818,26.559,30.175,26.559z M28.593,26.208c0.282,0,0.633,0.047,1.194,0.194c0.869,0.234,1.183-0.288,1.529-1.046c0.188-0.41,0.085-0.646-0.004-0.854 c-0.069-0.159-0.134-0.31-0.029-0.488c0.469-0.841,0.564-3.265,0.604-4.299c0.01-0.245,0.017-0.423,0.025-0.509 c0.056-0.587,0.899-0.97,0.907-0.974c0.213-0.095,2.233-0.728,2.459-0.74c0.104-0.006,0.267-0.142,0.302-0.287 c0.026-0.108-0.021-0.198-0.141-0.269c-1.273-0.59-2.385,0.067-2.396,0.074c-0.008,0.005-0.017,0.007-0.026,0.007 c0.007,0-0.383,0.001-1.22-0.121c-0.446-0.147-0.738-0.145-0.875,0.007c-0.234,0.258,0.033,0.873,0.036,0.879 c0.005,0.012,0.005,0.024,0.001,0.036c0,0.002-0.081,0.254-0.185,0.871c-0.001,0.005-0.003,0.011-0.006,0.016 c-2.304,4.133-1.326,5.055-1.316,5.063c0.017,0.014,0.022,0.037,0.014,0.057c-0.008,0.021-0.024,0.028-0.049,0.031l-0.316-0.021 c-0.007,0-0.014-0.002-0.02-0.006l-3.421-1.785l-1.655,1.397l0.226,2.123c0.883,0.378,3.156,0.692,3.768,0.692 c0.048,0,0.086-0.002,0.112-0.007C28.267,26.227,28.417,26.208,28.593,26.208z"/><path fill="#fdd835" d="M31.055,25.394c0,0-1.09-0.609-0.968-1.097c0.122-0.488-0.315-0.976-0.866-0.543 c-0.551,0.433-0.124,0.882,0.441,0.984s0.508,0.76,0.739,1.094S31.176,25.861,31.055,25.394z"/><path fill="#263238" d="M30.662,26.024c-0.118,0-0.227-0.057-0.3-0.163c-0.081-0.116-0.126-0.263-0.174-0.417 c-0.095-0.305-0.184-0.593-0.533-0.656c-0.375-0.067-0.667-0.276-0.727-0.519c-0.033-0.133-0.014-0.336,0.263-0.554 c0.248-0.195,0.507-0.234,0.71-0.101c0.208,0.135,0.304,0.42,0.235,0.694c-0.093,0.369,0.65,0.877,0.944,1.041 c0.012,0.007,0.021,0.019,0.024,0.031c0.076,0.295-0.086,0.519-0.27,0.603C30.777,26.011,30.718,26.024,30.662,26.024z M29.638,23.638c-0.121,0-0.254,0.053-0.386,0.156c-0.186,0.146-0.265,0.303-0.228,0.452c0.051,0.204,0.311,0.383,0.647,0.444 c0.409,0.074,0.517,0.419,0.611,0.725c0.046,0.146,0.089,0.286,0.161,0.39c0.097,0.14,0.244,0.139,0.35,0.089 c0.143-0.065,0.269-0.237,0.219-0.467c-0.153-0.088-1.096-0.654-0.973-1.141c0.059-0.234-0.021-0.476-0.193-0.587 C29.783,23.658,29.713,23.638,29.638,23.638z"/><path fill="#231f20" d="M29.564,26.41c-0.023,0-0.044-0.016-0.049-0.039l-0.388-1.812 c-0.342-0.048-3.053-0.464-4.302-1.755c-0.019-0.021-0.019-0.052,0.001-0.071c0.02-0.019,0.051-0.019,0.071,0.001 c1.303,1.348,4.248,1.727,4.278,1.73c0.021,0.003,0.038,0.019,0.042,0.039l0.395,1.846c0.006,0.027-0.011,0.054-0.039,0.06 C29.571,26.41,29.568,26.41,29.564,26.41z"/><path fill="#231f20" d="M31.256,24.377c-0.009,0-0.018-0.002-0.026-0.007l-1.257-0.773 c-0.008-0.006-0.015-0.013-0.019-0.021c-0.026-0.056-0.624-1.378,1.204-3.771c-0.005-0.235-0.013-0.45-0.02-0.646 c-0.028-0.825-0.044-1.279,0.167-1.444c0.089-0.071,0.218-0.083,0.391-0.032c0.669,0.19,0.818,0.74,0.824,0.764 c0.007,0.027-0.009,0.054-0.036,0.061c-0.03,0.013-0.054-0.009-0.061-0.035c-0.005-0.021-0.143-0.52-0.755-0.693 c-0.143-0.04-0.238-0.035-0.302,0.015c-0.171,0.135-0.154,0.623-0.128,1.362c0.007,0.201,0.015,0.424,0.02,0.666 c0,0.012-0.003,0.022-0.01,0.031c-1.705,2.225-1.265,3.527-1.209,3.669l1.244,0.765c0.023,0.015,0.031,0.046,0.016,0.069 C31.289,24.369,31.272,24.377,31.256,24.377z"/><polygon fill="#fdd835" points="34.558,17.709 33.543,16.749 32.805,16.94 33.734,18.047"/><path fill="#263238" d="M33.734,18.097c-0.015,0-0.029-0.006-0.038-0.018l-0.929-1.106 c-0.011-0.014-0.015-0.031-0.01-0.048c0.005-0.016,0.019-0.028,0.035-0.033L33.53,16.7c0.016-0.005,0.034,0.001,0.047,0.013 l1.015,0.96c0.013,0.012,0.018,0.028,0.015,0.045c-0.003,0.017-0.015,0.031-0.03,0.037l-0.824,0.338 C33.747,18.096,33.74,18.097,33.734,18.097z M32.894,16.969l0.854,1.018l0.719-0.294l-0.938-0.888L32.894,16.969z"/><path fill="#231f20" d="M32.937,18.221c-0.017,0-0.034-0.009-0.043-0.024l-0.75-1.299 c-0.014-0.024-0.005-0.055,0.019-0.068c0.024-0.015,0.054-0.006,0.068,0.018l0.75,1.299c0.014,0.024,0.005,0.055-0.019,0.068 C32.954,18.219,32.945,18.221,32.937,18.221z"/><path fill="#231f20" d="M30.799,20.453c-0.01,0-0.021-0.003-0.03-0.01l-0.69-0.506c-0.022-0.016-0.027-0.047-0.011-0.069 c0.017-0.023,0.046-0.029,0.07-0.011l0.69,0.506c0.022,0.016,0.027,0.047,0.011,0.069C30.83,20.446,30.814,20.453,30.799,20.453z"/><path fill="#231f20" d="M31.711,22.933c-0.002,0-0.005,0-0.008,0c-0.053-0.009-1.287-0.208-1.687-0.688c0,0,0,0,0,0 c-0.424,0-0.697,0.145-0.7,0.146c-0.024,0.012-0.055,0.004-0.068-0.021c-0.013-0.023-0.004-0.054,0.02-0.067 c0.012-0.007,0.296-0.158,0.747-0.158c0.024,0,0.05,0,0.064,0.02c0.358,0.462,1.626,0.666,1.639,0.668 c0.027,0.005,0.046,0.03,0.042,0.058C31.756,22.915,31.735,22.933,31.711,22.933z"/><g><path fill="#fafafa" d="M24.316,25.662l-3.289,2.082l-0.178,0.263c0,0,1.298-0.471,3.78,3.7 c0.49,0.408,0.665,0.602,0.665,0.602s1.597,0.175,0.38,1.252c-0.514,0.648-0.713,0.988-0.713,0.988s0.027,1.32-1.164,2.154 c-0.396,0.223-0.561-0.302-0.469-0.485c0.093-0.182,0.562-2.239,0.588-2.482c0.026-0.243,0.016-0.954-0.366-1.227 c-0.382-0.273-3.248-1.948-3.858-2.972c-0.209-0.371-0.697,0.035-1.175-0.64c-0.478-0.675-0.799-1.244-0.133-1.912 c0.666-0.668,0.815-0.981,0.962-1.357s1.771-2.464,2.58-3.051l2.001,0.892L24.316,25.662z"/><path fill="#231f20" d="M23.616,36.809c-0.102,0-0.172-0.049-0.213-0.088c-0.146-0.139-0.183-0.396-0.118-0.523 c0.085-0.169,0.555-2.196,0.583-2.464c0.026-0.242,0.014-0.925-0.345-1.182c-0.068-0.049-0.217-0.144-0.422-0.273 c-0.956-0.605-2.944-1.865-3.45-2.714c-0.078-0.138-0.197-0.151-0.362-0.171c-0.233-0.027-0.524-0.062-0.811-0.466 c-0.494-0.697-0.817-1.285-0.128-1.977c0.654-0.657,0.807-0.97,0.951-1.34c0.146-0.373,1.754-2.462,2.597-3.072 c0.015-0.012,0.032-0.013,0.05-0.006l2.001,0.892c0.015,0.007,0.026,0.021,0.029,0.037l0.388,2.191 c0.003,0.021-0.005,0.04-0.022,0.051l-3.28,2.077l-0.107,0.159c0.01-0.001,0.02-0.001,0.031-0.001 c0.415,0,1.659,0.339,3.682,3.735c0.416,0.346,0.603,0.536,0.651,0.587c0.118,0.016,0.729,0.114,0.844,0.478 c0.075,0.236-0.078,0.525-0.456,0.859c-0.449,0.567-0.657,0.901-0.696,0.965c-0.002,0.15-0.054,1.39-1.185,2.183 C23.746,36.792,23.675,36.809,23.616,36.809z M21.933,22.637c-0.832,0.619-2.409,2.675-2.54,3.012 c-0.149,0.381-0.306,0.702-0.973,1.373c-0.636,0.638-0.344,1.168,0.139,1.848c0.26,0.368,0.516,0.398,0.741,0.425 c0.172,0.021,0.335,0.04,0.437,0.221c0.493,0.827,2.542,2.125,3.417,2.679c0.207,0.132,0.356,0.227,0.427,0.276 c0.479,0.344,0.387,1.265,0.386,1.273c-0.025,0.233-0.492,2.298-0.594,2.499c-0.047,0.093-0.01,0.303,0.099,0.406 c0.081,0.078,0.182,0.081,0.302,0.013c1.15-0.806,1.138-2.098,1.138-2.11c0-0.009,0.002-0.019,0.007-0.026 c0.008-0.014,0.206-0.351,0.717-0.994c0.351-0.312,0.495-0.565,0.433-0.761c-0.105-0.332-0.772-0.409-0.779-0.41 c-0.012-0.001-0.023-0.007-0.032-0.017c-0.002-0.002-0.179-0.197-0.66-0.597c-0.004-0.003-0.008-0.008-0.011-0.013 c-2.419-4.067-3.709-3.682-3.72-3.68c-0.021,0.008-0.043,0.001-0.056-0.017c-0.013-0.017-0.014-0.04-0.002-0.059l0.177-0.263 c0.004-0.006,0.009-0.01,0.015-0.014l3.261-2.064l-0.377-2.132L21.933,22.637z"/></g><g><path fill="#fdd835" d="M18.656,28.625c0,0,1.074-0.638,1.434-0.287c0.361,0.351,1.002,0.217,0.904-0.477 c-0.098-0.694-0.701-0.55-1.073-0.112c-0.372,0.438-0.912,0.058-1.317,0.091C18.2,27.872,18.192,28.495,18.656,28.625z"/><path fill="#263238" d="M18.656,28.675c-0.004,0-0.009,0-0.014-0.002c-0.292-0.082-0.405-0.335-0.386-0.535 c0.019-0.196,0.154-0.333,0.344-0.349c0.14-0.014,0.289,0.022,0.447,0.059c0.311,0.071,0.605,0.141,0.835-0.132 c0.247-0.29,0.574-0.438,0.813-0.369c0.131,0.038,0.298,0.157,0.348,0.507c0.044,0.313-0.053,0.556-0.269,0.664 c-0.218,0.114-0.516,0.054-0.719-0.145c-0.275-0.266-1.084,0.123-1.375,0.295C18.674,28.673,18.665,28.675,18.656,28.675z M18.656,27.887c-0.016,0-0.032,0.001-0.048,0.002c-0.169,0.014-0.241,0.143-0.252,0.259c-0.015,0.155,0.071,0.352,0.294,0.424 c0.153-0.089,1.115-0.621,1.476-0.271c0.173,0.168,0.422,0.22,0.605,0.128c0.174-0.089,0.252-0.293,0.215-0.562 c-0.033-0.234-0.129-0.381-0.277-0.424c-0.203-0.065-0.488,0.076-0.709,0.337c-0.271,0.318-0.625,0.236-0.934,0.165 C18.894,27.915,18.77,27.887,18.656,27.887z"/></g><g><path fill="#231f20" d="M20.363,27.484c-0.005,0-0.01-0.001-0.016-0.002l-1.795-0.585 c-0.026-0.009-0.041-0.037-0.032-0.063c0.008-0.025,0.033-0.039,0.063-0.032l1.761,0.574c0.213-0.271,1.933-2.409,3.676-2.842 c0.029-0.01,0.054,0.01,0.061,0.037c0.007,0.026-0.009,0.054-0.036,0.061c-1.819,0.451-3.625,2.81-3.643,2.833 C20.394,27.478,20.378,27.484,20.363,27.484z"/></g><g><path fill="#231f20" d="M24.163,33.404c-0.133,0-0.22-0.023-0.229-0.026c-0.027-0.007-0.042-0.034-0.035-0.062 c0.008-0.025,0.034-0.047,0.062-0.034c0.021,0.005,0.521,0.135,0.978-0.307c0.105-0.102,0.149-0.188,0.138-0.268 c-0.03-0.215-0.46-0.445-1.111-0.793c-0.178-0.096-0.375-0.201-0.588-0.318c-0.01-0.006-0.018-0.015-0.022-0.024 c-1.069-2.592-2.417-2.864-2.567-2.887l-1.285,0.691c-0.025,0.013-0.055,0.003-0.068-0.021c-0.013-0.024-0.004-0.055,0.02-0.067 l1.299-0.699c0.008-0.005,0.017-0.006,0.028-0.006c0.061,0.005,1.505,0.151,2.659,2.934c0.207,0.114,0.398,0.216,0.571,0.309 c0.727,0.389,1.126,0.603,1.164,0.867c0.016,0.114-0.039,0.229-0.168,0.354C24.701,33.345,24.375,33.404,24.163,33.404z"/></g><g><polygon fill="#fdd835" points="23.548,35.51 24.888,35.113 25.092,34.379 23.669,34.627"/><path fill="#263238" d="M23.548,35.56c-0.012,0-0.023-0.004-0.033-0.012c-0.013-0.011-0.019-0.028-0.017-0.045l0.121-0.883 c0.003-0.021,0.02-0.039,0.041-0.042l1.423-0.248c0.018-0.007,0.034,0.003,0.046,0.016c0.011,0.013,0.016,0.03,0.011,0.047 l-0.205,0.734c-0.005,0.017-0.018,0.029-0.034,0.034l-1.34,0.396C23.558,35.56,23.553,35.56,23.548,35.56z M23.713,34.67 l-0.105,0.77l1.239-0.366l0.176-0.632L23.713,34.67z"/></g><g><path fill="#231f20" d="M25.461,33.927L25.461,33.927l-1.5-0.001c-0.028,0-0.05-0.022-0.05-0.05s0.022-0.05,0.05-0.05l0,0 l1.5,0.001c0.028,0,0.05,0.022,0.05,0.05S25.489,33.927,25.461,33.927z"/></g><g><path fill="#231f20" d="M23.103,30.957c-0.019,0-0.038-0.011-0.046-0.029c-0.011-0.025,0-0.055,0.026-0.066l0.783-0.345 c0.024-0.012,0.054,0,0.066,0.025c0.011,0.025,0,0.055-0.026,0.066l-0.783,0.345C23.117,30.956,23.11,30.957,23.103,30.957z"/></g><g><path fill="#231f20" d="M20.5,30.501c-0.011,0-0.022-0.004-0.031-0.011c-0.021-0.018-0.025-0.049-0.008-0.07 c0.034-0.042,0.825-1.011,1.44-1.114c0.213-0.367,0.225-0.676,0.225-0.679c0-0.027,0.023-0.049,0.05-0.049 c0.025-0.002,0.051,0.022,0.05,0.051c0,0.015-0.012,0.348-0.25,0.748c-0.008,0.014-0.021,0.022-0.037,0.024 c-0.579,0.076-1.392,1.071-1.399,1.081C20.529,30.495,20.515,30.501,20.5,30.501z"/></g><g><polygon fill="#fdd835" points="25.607,21.732 23.848,23.065 21.748,22.214 21.521,22.81 23.621,23.633 23.99,25.79 24.529,25.761 24.16,23.605 25.919,22.242"/><path fill="#263238" d="M23.99,25.84c-0.024,0-0.045-0.018-0.049-0.041l-0.364-2.13l-2.073-0.812 c-0.026-0.011-0.039-0.039-0.029-0.064l0.227-0.596c0.005-0.013,0.015-0.022,0.027-0.028c0.012-0.006,0.027-0.006,0.039,0 l2.074,0.841l1.737-1.317c0.011-0.009,0.026-0.014,0.04-0.009c0.014,0.002,0.026,0.011,0.033,0.022l0.312,0.511 c0.014,0.022,0.008,0.051-0.012,0.065l-1.736,1.345l0.364,2.127c0.002,0.015-0.001,0.029-0.01,0.04s-0.022,0.018-0.037,0.019 l-0.539,0.028C23.992,25.84,23.991,25.84,23.99,25.84z M21.585,22.781l2.053,0.805c0.017,0.007,0.028,0.021,0.031,0.038 l0.362,2.113l0.438-0.022l-0.359-2.102c-0.003-0.019,0.004-0.037,0.019-0.048l1.724-1.335l-0.26-0.426l-1.716,1.301 c-0.014,0.011-0.034,0.014-0.049,0.006l-2.053-0.832L21.585,22.781z"/></g></svg>