<svg xmlns="http://www.w3.org/2000/svg"  viewBox="0 0 48 48" width="100px" height="100px"><path fill="#283593" d="M44,24c0,11.046-8.954,20-20,20S4,35.046,4,24c0-2.216,0.36-4.348,1.026-6.341 C6.311,13.812,14.489,11,14.489,11s0.04-4.693,1.507-5.334C18.447,4.594,21.154,4,24,4C35.046,4,44,12.954,44,24z"/><path fill="#fff" d="M16,8.594V5.675c-1.432,0.626-2.767,1.424-4,2.352V8.31l-0.206-0.128 c-3.105,2.399-5.483,5.683-6.753,9.483L12,13.32V18h4v-4.965L23.949,18H25v-2.609L21.171,13H25V9h-4.421L25,6.238V4.05 C24.667,4.034,24.338,4,24,4c-0.235,0-0.464,0.027-0.697,0.035L16,8.594z"/><path fill="#e53935" d="M13,12v6h2v-6h10v-2H15V6.157c-0.689,0.348-1.36,0.725-2,1.148V10H9.729 c-0.613,0.625-1.174,1.299-1.701,2H13z"/><path fill="#e53935" d="M11.641,13H9.898l-3.972,2.479c-0.229,0.484-0.437,0.977-0.627,1.481L11.641,13z"/><path fill="#e53935" d="M24.213,4.011L16.223,9h1.746L25,4.609V4.05C24.738,4.037,24.478,4.014,24.213,4.011z"/><polygon fill="#e53935" points="25,15.934 20.301,13 18.559,13 25,17.02"/><path fill="#fff" d="M30,22.811c-0.486,0.811-3.73,1.784-6,0c0,11.027,2.108,12.811,6,15.243 c3.892-2.432,6-4.216,6-15.243C33.73,24.595,30.486,23.622,30,22.811z"/><path fill="#ff8f00" d="M30.806,26.926c0.072,0.354,0.486,0.528,0.532,0.835c-0.198,0.042-0.334,0.13-0.304,0.152 c0,0,1.519,0.38,1.671,2.354c0.076,0.835-0.683,1.519-1.139,1.594c-0.455,0.076-0.684,0-0.911-0.152 c-0.228-0.152-0.607-0.076-0.607-0.076s0.835,0.38-0.455,1.063c0.759,0.076,1.139-0.152,1.519-0.304 c0.38-0.152,2.202-0.455,2.429-2.429c0.152,0.076,0.304,0.304,0.304,0.304S34.298,27.078,30.806,26.926z M32.006,27.548 c-0.08,0-0.143-0.064-0.143-0.143c0-0.08,0.064-0.143,0.143-0.143c0.08,0,0.143,0.064,0.143,0.143 C32.149,27.484,32.084,27.548,32.006,27.548z"/><path fill="#ff8f00" d="M31.398,28.631c-0.446,0.601-0.824,0.659-0.824,0.659c0-0.049-0.02-0.291-0.068-0.475 c-0.291,0.93-1.27,1.919-2.713,1.551c-1.444-0.369-0.979-1.89-0.882-2.074c0.096-0.184,0.398-0.261,0.62-0.494 c-0.882-0.049-0.252-1.503-0.252-1.503c-0.563,0.591-0.601,1.444-0.708,1.852c-0.63,2.442,0.892,3.072,0.892,3.072 s-0.116,0.078-0.243,0.204C31.408,32.14,31.408,29.3,31.398,28.631z M30.988,29.748c-0.08,0-0.143-0.064-0.143-0.143 s0.064-0.143,0.143-0.143s0.143,0.064,0.143,0.143S31.067,29.748,30.988,29.748z"/><path fill="#ff8f00" d="M31.796,25.714c-1.085-0.882-2.016-0.581-2.016-0.581s0.078-0.194,0.243-0.3 c-0.436,0.049-1.551,0.649-1.929,1.512c-1.183,2.878,1.395,3.373,1.395,3.373s-0.049-0.436-0.145-0.572 c-0.096-0.136-0.155-0.494-0.155-0.494l0.388,0.126c0-0.223-0.398-0.62-0.426-0.901c-0.136-1.551,1.163-2.064,1.725-2.036 c0.563,0.029,1.028,0.359,1.144,0.61c0.116,0.252,0.214,0.291,0.426,0.524c0.01-0.775,1.018-0.465,1.454-0.271 C33.483,25.985,32.474,26.276,31.796,25.714z M28.585,28.789c-0.08,0-0.143-0.064-0.143-0.143s0.064-0.143,0.143-0.143 s0.143,0.064,0.143,0.143C28.728,28.725,28.663,28.789,28.585,28.789z"/><g><path fill="#bbdefb" d="M25.726,34c1.008,1.894,2.44,2.908,4.274,4.054c1.834-1.146,3.267-2.16,4.274-4.054H25.726z"/></g></svg>