<svg xmlns="http://www.w3.org/2000/svg"  viewBox="0 0 48 48" width="30px" height="30px"><path fill="#263238" d="M24,4C15.296,4,7.911,9.571,5.162,17.333h37.675C40.089,9.571,32.704,4,24,4z"/><path fill="#eceff1" d="M42.838,30.667C43.577,28.579,44,26.341,44,24c0-2.341-0.423-4.579-1.162-6.667H5.162 C4.423,19.421,4,21.659,4,24c0,2.341,0.423,4.579,1.162,6.667H42.838z"/><path fill="#388e3c" d="M23.999,44h0.002c8.704,0,16.088-5.571,18.836-13.333H5.162C7.911,38.429,15.295,43.999,23.999,44z"/><path fill="#d50000" d="M4,24c0,5.587,2.296,10.634,5.99,14.262L26.4,24L9.99,9.738C6.296,13.366,4,18.413,4,24z"/><polygon fill="#d50000" points="35.832,20.278 36.715,22.882 39.464,22.917 37.26,24.56 38.077,27.185 35.832,25.597 33.588,27.185 34.405,24.56 32.201,22.917 34.95,22.882"/><path fill="#d50000" d="M31.446,23.957c0-2.567,1.849-4.698,4.288-5.144c-0.307-0.056-0.623-0.09-0.946-0.09 c-2.891,0-5.234,2.343-5.234,5.234s2.343,5.234,5.234,5.234c0.324,0,0.639-0.034,0.946-0.09 C33.295,28.656,31.446,26.524,31.446,23.957z"/></svg>