<svg xmlns="http://www.w3.org/2000/svg"  viewBox="0 0 48 48" width="50px" height="50px"><path fill="#283593" d="M44,24c0,11.046-8.954,20-20,20S4,35.046,4,24c0-2.216,0.36-4.348,1.026-6.341 C6.311,13.812,14.489,11,14.489,11s0.04-4.693,1.507-5.334C18.447,4.594,21.154,4,24,4C35.046,4,44,12.954,44,24z"/><path fill="#fff" d="M16,8.594V5.675c-1.432,0.626-2.767,1.424-4,2.352V8.31l-0.206-0.128 c-3.105,2.399-5.483,5.683-6.753,9.483L12,13.32V18h4v-4.965L23.949,18H25v-2.609L21.171,13H25V9h-4.421L25,6.238V4.05 C24.667,4.034,24.338,4,24,4c-0.235,0-0.464,0.027-0.697,0.035L16,8.594z"/><path fill="#e53935" d="M13,12v6h2v-6h10v-2H15V6.157c-0.689,0.348-1.36,0.725-2,1.148V10H9.729 c-0.613,0.625-1.174,1.299-1.701,2H13z"/><path fill="#e53935" d="M11.641,13H9.898l-3.972,2.479c-0.229,0.484-0.437,0.977-0.627,1.481L11.641,13z"/><path fill="#e53935" d="M24.213,4.011L16.223,9h1.746L25,4.609V4.05C24.738,4.037,24.478,4.014,24.213,4.011z"/><polygon fill="#e53935" points="25,15.934 20.301,13 18.559,13 25,17.02"/><path fill="#00acc1" d="M31.594,21h-0.009h-6.373v8.596c0,3.496,2.53,6.594,6.373,7.401V37 c0.002,0,0.003-0.001,0.005-0.001c0.002,0,0.003,0.001,0.005,0.001v-0.003c3.843-0.807,6.374-3.906,6.374-7.401V21H31.594z"/><path fill="#bf360c" d="M25.478,31.428c0.716,2.698,2.957,4.907,6.107,5.569V37c0.002,0,0.003-0.001,0.005-0.001 c0.002,0,0.003,0.001,0.005,0.001v-0.003c3.15-0.661,5.392-2.871,6.107-5.569H25.478z"/><path fill="#fff" d="M31.595,37.1c-0.004,0-0.006,0-0.01,0c-0.016,0-0.03-0.003-0.043-0.01 c-3.788-0.805-6.431-3.884-6.431-7.494V21c0-0.056,0.044-0.1,0.1-0.1h12.757c0.056,0,0.1,0.044,0.1,0.1v8.596 c0,3.611-2.644,6.69-6.432,7.495C31.623,37.097,31.609,37.1,31.595,37.1z M25.311,21.1v8.496c0,3.518,2.581,6.518,6.279,7.3 c3.697-0.782,6.278-3.782,6.278-7.3V21.1H25.311z"/><rect width=".1" height="4.11" x="30.553" y="29.514" fill="#424242"/><rect width=".1" height="4.11" x="30.161" y="29.514" fill="#424242"/><rect width=".1" height="3.412" x="29.771" y="29.514" fill="#424242"/><rect width=".1" height="2.128" x="29.379" y="30.458" fill="#424242"/><polygon fill="#ffebee" points="33.258,34.39 33.411,34.867 33.071,35.871 33.718,35.667 33.99,35.003 33.633,34.05"/><path fill="#424242" d="M32.992,35.948l0.366-1.082L33.2,34.374l0.024-0.021l0.429-0.39l0.391,1.041l-0.008,0.018 l-0.281,0.687l-0.022,0.007L32.992,35.948z M33.315,34.405l0.148,0.461l-0.005,0.016l-0.309,0.912l0.53-0.168l0.256-0.624 l-0.324-0.865L33.315,34.405z"/><polygon fill="#ffebee" points="31.607,34.901 31.028,35.343 31.556,35.343 32.169,35.054"/><path fill="#424242" d="M31.566,35.394h-0.686l0.716-0.548l0.023,0.007l0.692,0.188L31.566,35.394z M31.176,35.294h0.368 l0.481-0.228l-0.407-0.111L31.176,35.294z"/><path fill="#388e3c" d="M33.786,25.811v0.817c0,0,0,1.498-0.443,1.481c0.357,0.596,0.732,1.651,0.783,2.043 s-0.443,3.54,0.272,4.766c-0.409-0.102-0.596-0.681-1.26-0.153c-0.664,0.528-1.294,0.613-1.787,0.187 c-0.153-0.511,0.494-1.413,0.545-2.179s-0.34-3.421-0.34-3.421l0.017-3.83c0,0,0.528-0.494,0.902-0.494 c0.374,0,0.698,0.034,0.698,0.034S33.871,24.773,33.786,25.811z"/><path fill="#424242" d="M32.053,35.271c-0.268,0-0.516-0.094-0.733-0.281l-0.012-0.01l-0.004-0.014 c-0.089-0.295,0.069-0.7,0.237-1.129c0.139-0.357,0.283-0.727,0.306-1.067c0.05-0.753-0.337-3.385-0.341-3.412l0.018-3.857 l0.016-0.015c0.022-0.021,0.546-0.508,0.937-0.508l0,0c0.332,0,0.628,0.027,0.69,0.033c0.057-0.02,0.284-0.089,0.463,0.042 c0.169,0.122,0.238,0.378,0.207,0.76v0.814c0,0.047-0.003,1.162-0.308,1.455c-0.032,0.031-0.067,0.053-0.104,0.064 c0.342,0.597,0.699,1.593,0.752,1.997c0.013,0.1-0.007,0.355-0.033,0.708c-0.082,1.092-0.235,3.123,0.299,4.04l0.061,0.103 l-0.115-0.028c-0.134-0.034-0.243-0.113-0.349-0.189c-0.233-0.171-0.438-0.316-0.868,0.026 C32.779,35.114,32.399,35.271,32.053,35.271z M31.396,34.924c0.589,0.496,1.255,0.165,1.712-0.198 c0.492-0.39,0.756-0.2,0.989-0.029c0.065,0.047,0.128,0.093,0.195,0.128c-0.475-0.988-0.329-2.921-0.249-3.979 c0.025-0.335,0.045-0.599,0.033-0.688c-0.048-0.368-0.414-1.421-0.775-2.023l-0.048-0.079l0.093,0.004c0.002,0,0.004,0,0.005,0 c0.039,0,0.074-0.016,0.108-0.049c0.273-0.264,0.277-1.372,0.277-1.383v-0.82c0.027-0.341-0.029-0.573-0.166-0.673 c-0.155-0.112-0.375-0.026-0.379-0.026l-0.011,0.005l-0.013-0.001c-0.004,0-0.325-0.034-0.692-0.034 c-0.316,0-0.764,0.387-0.853,0.467l-0.018,3.807c0.016,0.102,0.392,2.662,0.341,3.425c-0.023,0.357-0.171,0.733-0.312,1.098 C31.476,34.279,31.326,34.663,31.396,34.924z"/><rect width=".868" height="12.051" x="30.943" y="22.067" fill="#263238"/><rect width="5.736" height=".885" x="28.543" y="23.105" fill="#263238"/><path fill="#ffebee" d="M32.39,24.688l-0.409-0.085l0.085-0.426l-0.136-0.102l0.255-0.187v-0.187l0.204-0.221l0.664,0.221 l0.153,0.374l-0.255,0.545l0.221,0.443l-0.34,0.34l-0.426,0.255c0,0-0.17-0.357-0.034-0.596 C32.39,24.841,32.39,24.688,32.39,24.688z"/><path fill="#424242" d="M32.386,25.729l-0.023-0.05c-0.008-0.016-0.175-0.374-0.038-0.632 c0.011-0.146,0.014-0.262,0.015-0.319l-0.416-0.087l0.088-0.443l-0.164-0.124l0.289-0.212v-0.181l0.013-0.015l0.227-0.245 l0.03,0.01l0.686,0.229l0.171,0.415l-0.254,0.543l0.226,0.453l-0.365,0.366L32.386,25.729z M32.04,24.563l0.399,0.083v0.041 c0,0.006,0,0.158-0.017,0.379l-0.007,0.021c-0.092,0.163-0.023,0.396,0.016,0.499l0.376-0.226l0.305-0.308l-0.216-0.432 l0.256-0.547l-0.136-0.333l-0.612-0.204l-0.169,0.184v0.192l-0.221,0.163l0.107,0.081l-0.007,0.03L32.04,24.563z"/><path fill="#bf360c" d="M33.445,24.586c0,0,0.443-0.034,0.255-0.443c0.017-0.409-0.357-0.272-0.357-0.272 s0.017-0.477-0.528-0.477c-0.272-0.221-0.545,0-0.545,0s-0.085,0.187,0.443,0.34c0.068,0.323,0.17,0.34,0.17,0.34 s-0.17,0.409,0.255,0.426C33.394,24.756,33.445,24.586,33.445,24.586z"/><path fill="#424242" d="M33.366,24.691c-0.068,0-0.15-0.047-0.249-0.142c-0.13-0.009-0.221-0.055-0.272-0.136 c-0.069-0.107-0.042-0.247-0.021-0.315c-0.045-0.037-0.106-0.123-0.152-0.325c-0.24-0.072-0.388-0.164-0.438-0.272 c-0.032-0.07-0.011-0.121-0.009-0.127l0.015-0.019c0.102-0.083,0.354-0.193,0.594-0.011c0.179,0.003,0.319,0.057,0.418,0.158 c0.099,0.103,0.13,0.229,0.139,0.305c0.068-0.014,0.173-0.019,0.253,0.041c0.075,0.055,0.112,0.151,0.109,0.285 c0.058,0.132,0.061,0.244,0.008,0.333c-0.07,0.119-0.219,0.155-0.282,0.165c-0.013,0.021-0.037,0.045-0.076,0.056 C33.391,24.69,33.379,24.691,33.366,24.691z M32.315,23.424c0,0.008,0.002,0.022,0.011,0.041 c0.024,0.047,0.109,0.138,0.401,0.222l0.029,0.008l0.006,0.03c0.057,0.27,0.133,0.302,0.134,0.303l0.062,0.01l-0.029,0.058 c0,0.001-0.066,0.164-0.001,0.267c0.036,0.055,0.107,0.085,0.212,0.09l0.02,0.001l0.014,0.014 c0.128,0.127,0.188,0.13,0.203,0.124c0.015-0.003,0.021-0.019,0.021-0.019l0.01-0.032l0.034-0.003 c0.002,0,0.171-0.016,0.232-0.121c0.036-0.061,0.03-0.146-0.019-0.251l-0.005-0.011l0.001-0.012 c0.004-0.105-0.019-0.177-0.068-0.212c-0.082-0.062-0.223-0.012-0.222-0.012l-0.069,0.025l0.002-0.074 c0-0.001,0.004-0.175-0.116-0.298c-0.081-0.084-0.203-0.127-0.362-0.127h-0.018l-0.014-0.011 C32.574,23.265,32.37,23.386,32.315,23.424z"/><path fill="#ffebee" d="M30.977,25.539h-0.391c0,0,0.255-0.817,0.136-1.532c0.323-0.221,0.579-0.374,0.579-0.374 l-0.051-0.34l-0.255,0.017l-0.255,0.153l-0.068-0.102l-0.255,0.46c0,0-0.409,1.021-0.357,1.923l-0.051,0.374l0.97,0.102V25.539z"/><path fill="#424242" d="M31.027,26.275l-1.077-0.113l0.059-0.426c-0.052-0.894,0.356-1.925,0.36-1.935l0.298-0.537 l0.087,0.131l0.236-0.136l0.303-0.021l0.062,0.419l-0.029,0.018c-0.002,0.001-0.243,0.146-0.55,0.354 c0.091,0.602-0.067,1.253-0.124,1.459h0.375V26.275z M30.063,26.074l0.864,0.09v-0.575h-0.41l0.021-0.064 c0.003-0.008,0.25-0.815,0.134-1.51l-0.005-0.031l0.026-0.018c0.26-0.177,0.478-0.312,0.553-0.358l-0.039-0.263l-0.197,0.014 l-0.285,0.172l-0.05-0.074l-0.215,0.389c-0.002,0.004-0.402,1.015-0.352,1.896L30.063,26.074z"/><g><path fill="#ffa000" d="M30.194,28.977l-0.391,0.528c0,0,0.051,0.664-0.443,0.868c-0.494,0.204-1.294,0.426-1.26,1.055 c0.034,0.63,0.683,0.565,0.834,0.443c0.136-0.111,0.226-0.304,0.051-0.443c-0.145-0.115-0.34-0.068-0.374,0.034 c-0.017,0-0.055-0.291,0.089-0.404c0.179-0.14,0.54-0.226,0.881-0.345c0.34-0.119,0.834-0.681,0.902-1.089 c0.868,0.817,1.532,3.183,0.715,4.426c-0.8-0.817-2.217-2.226-2.217-2.226l-0.243,0.115l2.715,3.149c0,0,0.426-1.345,0.545-2.094 C32.118,32.245,31.896,29.709,30.194,28.977z"/><path fill="#424242" d="M31.475,35.188l-0.059-0.068l-2.694-3.125c-0.109,0.016-0.239,0.004-0.354-0.047 c-0.136-0.061-0.3-0.198-0.317-0.517c-0.032-0.589,0.622-0.844,1.099-1.029c0.067-0.025,0.132-0.051,0.191-0.075 c0.455-0.188,0.412-0.812,0.412-0.818l-0.002-0.019l0.427-0.574l0.036,0.016c1.767,0.759,1.942,3.393,1.835,4.07 c-0.119,0.744-0.543,2.088-0.547,2.101L31.475,35.188z M28.834,31.973l2.6,3.015c0.095-0.309,0.416-1.373,0.516-2.001 c0.104-0.656-0.06-3.19-1.738-3.947l-0.357,0.481c0.005,0.115,0.005,0.701-0.474,0.898c-0.061,0.025-0.126,0.051-0.194,0.077 c-0.474,0.184-1.063,0.413-1.035,0.93c0.012,0.215,0.099,0.36,0.258,0.431c0.102,0.046,0.217,0.054,0.307,0.039l0.003-0.001 l0.239-0.114c0.048-0.055,0.076-0.116,0.075-0.171c0-0.053-0.025-0.101-0.077-0.142c-0.077-0.061-0.167-0.063-0.221-0.048 c-0.039,0.012-0.067,0.034-0.075,0.059l-0.012,0.034h-0.071l-0.018-0.042c-0.021-0.059-0.044-0.329,0.111-0.451 c0.139-0.109,0.376-0.185,0.627-0.265c0.089-0.028,0.18-0.057,0.269-0.088c0.315-0.111,0.803-0.65,0.868-1.051l0.016-0.093 l0.068,0.064c0.876,0.824,1.562,3.213,0.723,4.489l-0.034,0.052l-0.044-0.044c-0.719-0.735-1.952-1.963-2.18-2.189 c-0.005,0.005-0.011,0.01-0.017,0.015C28.936,31.935,28.89,31.957,28.834,31.973z M29.052,31.823 c0.218,0.217,1.411,1.405,2.138,2.146c0.743-1.219,0.132-3.405-0.678-4.247c-0.12,0.423-0.59,0.925-0.913,1.038 c-0.091,0.032-0.182,0.062-0.271,0.09c-0.242,0.076-0.471,0.149-0.595,0.247c-0.071,0.056-0.089,0.172-0.089,0.254 c0.019-0.012,0.039-0.021,0.062-0.027c0.098-0.03,0.221-0.006,0.312,0.065c0.075,0.06,0.115,0.136,0.115,0.22 C29.133,31.681,29.104,31.756,29.052,31.823z"/></g><g><path fill="#ffebee" d="M33.582,25.811c0,0,0.068,0.511-0.068,0.868s-0.528,1.191-0.528,1.191s-1.515,0.579-2.077,0.63 c-0.238,0.443-0.306,0.443-0.306,0.443l-0.119,0.391l-0.409,0.204l-0.102-0.562l0.187-0.391l0.613-0.357 c0,0,0.919-0.783,1.702-0.834c0.187-0.545,0.357-0.97,0.357-0.97S33.224,25.556,33.582,25.811z"/><path fill="#424242" d="M30.038,29.613l-0.117-0.643l0.201-0.42l0.013-0.008l0.613-0.357 c0.03-0.027,0.908-0.769,1.69-0.838c0.182-0.525,0.347-0.938,0.348-0.942c0.013-0.026,0.273-0.598,0.581-0.681 c0.088-0.021,0.169-0.007,0.244,0.046l0.018,0.013l0.003,0.021c0.003,0.021,0.067,0.527-0.071,0.893 c-0.136,0.355-0.525,1.187-0.529,1.195l-0.008,0.018l-0.02,0.008c-0.061,0.023-1.483,0.563-2.063,0.63 c-0.165,0.304-0.251,0.4-0.297,0.431l-0.118,0.392L30.038,29.613z M30.024,28.984l0.088,0.48l0.329-0.165l0.124-0.406h0.026 c0.018-0.014,0.096-0.087,0.273-0.416l0.013-0.023l0.026-0.003c0.515-0.048,1.869-0.553,2.045-0.62 c0.059-0.124,0.395-0.847,0.518-1.169c0.114-0.3,0.079-0.721,0.068-0.821c-0.045-0.026-0.093-0.033-0.142-0.02 c-0.219,0.059-0.445,0.47-0.515,0.623c-0.001,0.002-0.172,0.429-0.356,0.967l-0.011,0.031l-0.033,0.002 c-0.757,0.049-1.664,0.814-1.673,0.822l-0.607,0.354L30.024,28.984z"/></g><g><path fill="#424242" d="M33.491,33.384l-0.614-2.007c0-1.158-0.102-2.408-0.103-2.421l0.1-0.008 c0.001,0.013,0.103,1.261,0.103,2.421l0.61,1.985L33.491,33.384z"/></g><g><path fill="#424242" d="M33.592,31.686c-0.051-1.385-0.328-2.762-0.331-2.775l0.098-0.02 c0.003,0.014,0.282,1.398,0.333,2.791L33.592,31.686z"/></g><g><path fill="#424242" d="M32.67,34.394l-0.1-0.008c0.1-1.173-0.526-2.693-0.532-2.708l0.092-0.039 C32.137,31.654,32.771,33.196,32.67,34.394z"/></g></svg>