<svg xmlns="http://www.w3.org/2000/svg"  viewBox="0 0 48 48" width="100px" height="100px"><path fill="#43a047" d="M24,4C15.296,4,7.911,9.571,5.162,17.333h37.675C40.089,9.571,32.704,4,24,4z"/><path fill="#ffca28" d="M42.838,30.667C43.577,28.579,44,26.341,44,24c0-2.341-0.423-4.579-1.162-6.667H5.162 C4.423,19.421,4,21.659,4,24c0,2.341,0.423,4.579,1.162,6.667H42.838z"/><path fill="#43a047" d="M23.999,44h0.002c8.704,0,16.088-5.571,18.836-13.333H5.162C7.911,38.429,15.295,43.999,23.999,44z"/><path fill="#e53935" d="M4,24c0,5.587,2.296,10.634,5.99,14.262L21.4,24L9.99,9.738C6.296,13.366,4,18.413,4,24z"/><polygon fill="#263238" points="37.517,19.479 38.625,22.749 42.077,22.792 39.309,24.857 40.335,28.154 37.517,26.159 34.698,28.154 35.724,24.857 32.956,22.792 36.409,22.749"/><polygon fill="#263238" points="26.561,19.479 27.668,22.749 31.121,22.792 28.353,24.857 29.379,28.154 26.561,26.159 23.742,28.154 24.768,24.857 22,22.792 25.453,22.749"/></svg>