<svg xmlns="http://www.w3.org/2000/svg"  viewBox="0 0 48 48" width="100px" height="100px"><path fill="#ffc107" d="M24,4c-2.846,0-5.549,0.604-8,1.675v36.649C18.451,43.396,21.154,44,24,44s5.549-0.604,8-1.675 V5.675C29.549,4.604,26.846,4,24,4z"/><path fill="#ff3d00" d="M32,5.675v36.649C39.061,39.237,44,32.199,44,24C44,15.801,39.061,8.763,32,5.675z"/><path fill="#1565c0" d="M4,24c0,8.199,4.939,15.237,12,18.325V5.675C8.939,8.763,4,15.801,4,24z"/><path fill="#ef6c00" d="M21,20v6.5c0,0.414,0.75,0.75,0.75,0.75L24,28l2.25-0.75c0,0,0.75-0.336,0.75-0.75V20H21z"/></svg>