<svg xmlns="http://www.w3.org/2000/svg"  viewBox="0 0 48 48" width="500px" height="500px"><path fill="#283593" d="M44,24c0,11.046-8.954,20-20,20S4,35.046,4,24c0-2.216,0.36-4.348,1.026-6.341 C6.311,13.812,14.489,11,14.489,11s0.04-4.693,1.507-5.334C18.447,4.594,21.154,4,24,4C35.046,4,44,12.954,44,24z"/><path fill="#fff" d="M16,8.594V5.675c-1.432,0.626-2.767,1.424-4,2.352V8.31l-0.206-0.128 c-3.105,2.399-5.483,5.683-6.753,9.483L12,13.32V18h4v-4.965L23.949,18H25v-2.609L21.171,13H25V9h-4.421L25,6.238V4.05 C24.667,4.034,24.338,4,24,4c-0.235,0-0.464,0.027-0.697,0.035L16,8.594z"/><path fill="#e53935" d="M13,12v6h2v-6h10v-2H15V6.157c-0.689,0.348-1.36,0.725-2,1.148V10H9.729 c-0.613,0.625-1.174,1.299-1.701,2H13z"/><path fill="#e53935" d="M11.641,13H9.898l-3.972,2.479c-0.229,0.484-0.437,0.977-0.627,1.481L11.641,13z"/><path fill="#e53935" d="M24.213,4.011L16.223,9h1.746L25,4.609V4.05C24.738,4.037,24.478,4.014,24.213,4.011z"/><polygon fill="#e53935" points="25,15.934 20.301,13 18.559,13 25,17.02"/><polygon fill="#fff" points="30.959,39 30.328,37.88 29.068,38.13 29.938,37.184 29.31,36.063 30.479,36.598 31.352,35.655 31.204,36.931 32.371,37.47 31.111,37.724"/><polygon fill="#fff" points="26.787,38.949 26.666,37.669 25.413,37.385 26.592,36.875 26.475,35.595 27.325,36.559 28.506,36.053 27.852,37.159 28.699,38.125 27.445,37.845"/><polygon fill="#fff" points="22.996,37.207 23.406,35.989 22.377,35.22 23.662,35.234 24.075,34.017 24.46,35.243 25.745,35.261 24.697,36.005 25.078,37.232 24.046,36.466"/><polygon fill="#fff" points="20.242,34.073 21.112,33.127 20.484,32.006 21.653,32.541 22.525,31.597 22.378,32.874 23.544,33.413 22.285,33.667 22.133,34.943 21.502,33.823"/><polygon fill="#fff" points="19,30.089 20.18,29.579 20.062,28.299 20.912,29.263 22.093,28.756 21.439,29.862 22.286,30.829 21.032,30.549 20.374,31.653 20.254,30.373"/><polygon fill="#fff" points="19.486,25.945 20.772,25.958 21.185,24.741 21.569,25.968 22.854,25.985 21.807,26.729 22.187,27.957 21.156,27.191 20.106,27.932 20.516,26.714"/><polygon fill="#fff" points="21.616,22.357 22.785,22.892 23.657,21.948 23.51,23.225 24.676,23.763 23.417,24.017 23.265,25.294 22.634,24.174 21.374,24.424 22.244,23.478"/><polygon fill="#fff" points="25.021,19.945 25.871,20.909 27.052,20.402 26.397,21.508 27.244,22.475 25.99,22.194 25.332,23.299 25.212,22.019 23.958,21.735 25.138,21.225"/><polygon fill="#fff" points="29.112,19.126 29.497,20.353 30.782,20.37 29.734,21.115 30.115,22.342 29.083,21.576 28.033,22.317 28.443,21.099 27.414,20.33 28.699,20.343"/><polygon fill="#fff" points="33.183,20.043 33.035,21.32 34.202,21.858 32.942,22.112 32.791,23.389 32.16,22.269 30.899,22.519 31.769,21.573 31.142,20.452 32.31,20.987"/><polygon fill="#fff" points="36.529,22.536 35.875,23.642 36.722,24.609 35.467,24.328 34.81,25.432 34.689,24.153 33.436,23.869 34.615,23.358 34.498,22.079 35.348,23.043"/><polygon fill="#fff" points="38.571,26.174 37.523,26.919 37.904,28.146 36.872,27.38 35.823,28.121 36.233,26.903 35.203,26.134 36.488,26.147 36.902,24.93 37.286,26.157"/><polygon fill="#fff" points="38.958,30.329 37.698,30.583 37.546,31.859 36.915,30.739 35.655,30.99 36.525,30.044 35.897,28.922 37.066,29.457 37.939,28.514 37.791,29.79"/><polygon fill="#fff" points="37.622,34.282 36.367,34.001 35.71,35.105 35.589,33.826 34.336,33.542 35.515,33.031 35.398,31.752 36.248,32.715 37.429,32.209 36.775,33.315"/><polygon fill="#fff" points="34.791,37.348 33.759,36.582 32.71,37.323 33.12,36.105 32.09,35.336 33.375,35.349 33.789,34.132 34.173,35.359 35.458,35.376 34.411,36.12"/></svg>