<svg xmlns="http://www.w3.org/2000/svg"  viewBox="0 0 48 48" width="100px" height="100px"><path fill="#283593" d="M19.391,28.959c6.016-4.793,17.488-11.523,21.72-12.849c-4.394,4.428-3.453,12.068,0.501,17.369 C43.134,30.658,44,27.431,44,24c0-11.046-8.954-20-20-20S4,12.954,4,24c0,4.889,1.759,9.363,4.672,12.837 C11.491,34.884,15.757,31.854,19.391,28.959z"/><path fill="#283593" d="M13.071,40.738C16.214,42.795,19.964,44,24,44s7.786-1.205,10.929-3.262H13.071z"/><path fill="#283593" d="M11.599,39.673h24.801c0.45-0.357,0.881-0.735,1.299-1.128H10.301 C10.719,38.938,11.149,39.317,11.599,39.673z"/><g><polygon fill="#eceff1" points="16.084,24.883 16.542,26.237 17.972,26.255 16.826,27.109 17.251,28.475 16.084,27.649 14.917,28.475 15.341,27.109 14.195,26.255 15.625,26.237"/><polygon fill="#eceff1" points="9.365,14.556 9.75,15.694 10.951,15.709 9.988,16.427 10.345,17.575 9.365,16.881 8.384,17.575 8.741,16.427 7.778,15.709 8.979,15.694"/><polygon fill="#eceff1" points="15.986,8.33 16.31,9.285 17.318,9.298 16.51,9.901 16.809,10.864 15.986,10.281 15.163,10.864 15.462,9.901 14.654,9.298 15.662,9.285"/><polygon fill="#eceff1" points="21.665,13.195 21.921,13.949 22.717,13.959 22.079,14.435 22.315,15.196 21.665,14.736 21.015,15.196 21.252,14.435 20.613,13.959 21.41,13.949"/></g><g><path fill="#ffca28" d="M12.977,40.738h22.019c0.504-0.332,0.989-0.69,1.46-1.065H11.517 C11.988,40.049,12.473,40.406,12.977,40.738z"/><path fill="#ffca28" d="M10.22,38.545h27.532c1.544-1.462,2.852-3.164,3.87-5.05c-3.964-5.301-4.909-12.951-0.512-17.384 c-4.232,1.326-15.704,8.056-21.72,12.848c-3.652,2.909-7.944,5.956-10.762,7.908C9.125,37.459,9.66,38.014,10.22,38.545z"/></g></svg>