<svg xmlns="http://www.w3.org/2000/svg"  viewBox="0 0 48 48" width="50px" height="50px"><path fill="#fdd835" d="M24,4C12.954,4,4,12.954,4,24c0,11.046,8.954,20,20,20V4z"/><path fill="#eceff1" d="M24,4v40c11.046,0,20-8.954,20-20C44,12.954,35.046,4,24,4z"/><polygon fill="#fdd835" points="33.34,12.024 33.582,12.437 33.049,12.388 33.097,12.752 33.509,12.703 33.291,13.043 33.437,13.382 33.218,13.722 33.97,13.722 33.8,13.358 33.922,13.116 33.703,12.703 34.043,12.8 34.067,12.412 33.703,12.437 33.849,12"/><path fill="#263238" d="M34.049,13.771h-0.922l0.253-0.395l-0.146-0.339l0.176-0.272l-0.356,0.042l-0.063-0.476 l0.499,0.046l-0.235-0.399l0.665-0.032l-0.145,0.436l0.347-0.023l-0.032,0.507l-0.286-0.082l0.175,0.331l-0.122,0.245 L34.049,13.771z M33.31,13.672h0.582l-0.147-0.314l0.121-0.241l-0.261-0.493l0.393,0.111l0.017-0.269l-0.343,0.023l0.003,0.006 l-0.568-0.052l0.034,0.253l0.468-0.056l-0.261,0.407l0.146,0.339L33.31,13.672z M33.425,12.07l0.222,0.378l0.132-0.395 L33.425,12.07z"/><path fill="#fdd835" d="M37.292,27.848c0,0,0.194-0.388,0.121-0.861c-0.4,0-0.655-0.012-0.934,0.218 c-0.279,0.23-0.194,0.897-0.194,0.897S36.783,28.418,37.292,27.848z"/><path fill="#263238" d="M36.628,28.238c-0.218,0-0.366-0.092-0.369-0.094l-0.02-0.013l-0.003-0.023 c-0.003-0.028-0.085-0.696,0.212-0.941c0.279-0.231,0.541-0.227,0.91-0.23h0.098l0.006,0.042c0.074,0.484-0.118,0.875-0.125,0.892 l-0.008,0.011C37.078,28.163,36.825,28.238,36.628,28.238z M36.333,28.071c0.094,0.05,0.497,0.216,0.917-0.252 c0.022-0.047,0.168-0.381,0.12-0.783h-0.012c-0.374-0.003-0.594-0.001-0.847,0.207C36.286,27.431,36.322,27.952,36.333,28.071z"/><path fill="#fdd835" d="M27.326,18.742l-0.679-0.437c0,0,0.085-0.194-0.061-0.327c-0.146-0.133-0.34-0.085-0.424,0.036 s-0.085,0.267-0.024,0.352c0.061,0.085,0.376,0.097,0.376,0.097l0.437,0.715L27.326,18.742z"/><path fill="#263238" d="M26.943,19.263l-0.458-0.751c-0.101-0.006-0.325-0.029-0.388-0.116 c-0.078-0.109-0.068-0.278,0.024-0.41c0.052-0.075,0.139-0.125,0.232-0.136c0.101-0.009,0.191,0.021,0.267,0.091 c0.128,0.118,0.107,0.271,0.087,0.344l0.694,0.446L26.943,19.263z M26.389,17.948c-0.009,0-0.018,0-0.025,0.001 c-0.065,0.007-0.125,0.042-0.161,0.093c-0.076,0.109-0.07,0.231-0.025,0.295c0.028,0.038,0.197,0.07,0.337,0.076l0.027,0.001 l0.415,0.679l0.294-0.341l-0.667-0.428l0.017-0.039c0.003-0.007,0.068-0.163-0.048-0.271 C26.494,17.962,26.435,17.948,26.389,17.948z"/><polygon fill="#cfd8dc" points="30.066,22.149 28.441,23.689 27.617,23.034 27.653,22.464 28.174,22.513 28.15,21.761 27.859,21.979 27.592,21.773 27.604,22.391 27.229,22.67 26.174,21.834 26.137,21.252 26.634,20.985 27.107,21.361 27.022,21.009 27.01,20.354 27.556,20.027 28.938,20.488"/><path fill="#263238" d="M28.444,23.755l-0.879-0.698l0.002-0.025l0.037-0.576l-0.376,0.277l-0.03-0.023l-1.072-0.85 l-0.04-0.637l0.554-0.298l0.385,0.306l-0.051-0.21l-0.014-0.694l0.59-0.354l0.021,0.007l1.398,0.466l0.01,0.014l1.152,1.696 L30.1,22.185L28.444,23.755z M27.668,23.012l0.77,0.61L30,22.142l-1.094-1.612l-1.344-0.447l-0.501,0.301l0.012,0.625l0.118,0.482 l-0.562-0.446l-0.44,0.237l0.033,0.527l1.007,0.799l0.325-0.24l-0.014-0.698l0.319,0.248l0.337-0.254l0.029,0.904L27.7,22.519 L27.668,23.012z M27.655,22.414h0.003l0.465,0.044l-0.02-0.6l-0.245,0.184l-0.214-0.166L27.655,22.414z"/><polygon fill="#cfd8dc" points="27.532,19.857 27.01,20.354 27.374,20.573 26.913,20.997 26.634,20.718 26.137,21.252 27.192,22.173 27.556,21.797 27.265,21.555 27.617,21.252 27.835,21.482 28.162,21.252 28.453,21.543 28.138,21.821 28.429,22.04 28.102,22.367 27.871,22.185 27.653,22.464 28.417,23.131 29.775,21.846"/><path fill="#263238" d="M28.418,23.198l-0.034-0.029l-0.8-0.698l0.279-0.355l0.235,0.186l0.255-0.256l-0.294-0.221 l0.321-0.283l-0.224-0.224l-0.328,0.229l-0.215-0.226l-0.271,0.232l0.287,0.239l-0.434,0.449l-1.13-0.986l0.567-0.61l0.282,0.282 l0.376-0.347l-0.363-0.218l0.602-0.574l0.035,0.031l2.284,2.024l-0.04,0.037L28.418,23.198z M27.722,22.457l0.694,0.606 l1.285-1.217l-2.167-1.921l-0.441,0.42l0.365,0.218l-0.545,0.503l-0.276-0.276l-0.427,0.458l0.98,0.855l0.293-0.303l-0.295-0.245 l0.432-0.373l0.221,0.233l0.327-0.229l0.029,0.03l0.329,0.328l-0.309,0.273l0.288,0.217l-0.4,0.398l-0.226-0.178L27.722,22.457z"/><path fill="#eceff1" d="M29.799,22.864c0,0,0.994,0.849,1.613-0.024c0.618-0.873,0.752-1.079,0.764-2.558 c0.012-1.479,0.994,0.255,0.994,0.255s0.17,2.364-0.97,3.177c-1.14,0.812-2.049-0.012-2.049-0.012L29.799,22.864z"/><path fill="#263238" d="M31.175,24.119c-0.627,0-1.051-0.375-1.058-0.381l-0.012-0.018l-0.433-1.03l0.16,0.136 c0.005,0.004,0.426,0.358,0.875,0.358c0.033,0,0.066-0.002,0.1-0.007c0.222-0.027,0.412-0.151,0.565-0.367 c0.601-0.847,0.743-1.048,0.755-2.529c0.003-0.394,0.076-0.604,0.222-0.642c0.306-0.081,0.775,0.712,0.866,0.872l0.006,0.021 c0.007,0.098,0.159,2.402-0.991,3.222C31.845,24.027,31.485,24.119,31.175,24.119z M30.192,23.671 c0.097,0.083,0.929,0.751,1.979,0.001c1.064-0.759,0.96-2.945,0.95-3.121c-0.196-0.344-0.572-0.857-0.748-0.814 c-0.053,0.014-0.143,0.104-0.147,0.545c-0.012,1.514-0.158,1.72-0.773,2.588c-0.17,0.239-0.384,0.377-0.635,0.408 c-0.363,0.042-0.712-0.14-0.902-0.266L30.192,23.671z"/><path fill="#fdd835" d="M27.811,18.875c0,0-0.34-0.643-0.837-0.146s-0.206,0.97,0.218,0.812 C27.617,19.384,27.811,18.875,27.811,18.875z"/><path fill="#263238" d="M27.031,19.622c-0.129,0-0.241-0.056-0.309-0.16c-0.099-0.155-0.103-0.449,0.216-0.768 c0.155-0.156,0.313-0.222,0.472-0.199c0.274,0.042,0.437,0.344,0.444,0.356l0.01,0.021l-0.008,0.021 c-0.008,0.021-0.207,0.532-0.647,0.696C27.149,19.611,27.088,19.622,27.031,19.622z M27.35,18.591c-0.11,0-0.225,0.059-0.34,0.174 c-0.276,0.276-0.282,0.52-0.202,0.644c0.072,0.111,0.214,0.146,0.368,0.087c0.35-0.13,0.538-0.521,0.58-0.616 c-0.039-0.063-0.171-0.257-0.359-0.284C27.38,18.592,27.365,18.591,27.35,18.591z"/><path fill="#cfd8dc" d="M27.665,18.826c0,0-0.546,0.291-0.473,0.715c0.582,0.57,8.912,7.942,8.912,7.942l0.497-0.109 l0.049-0.582L27.665,18.826z"/><path fill="#263238" d="M36.09,27.538l-0.019-0.018c-0.083-0.073-8.337-7.379-8.914-7.942l-0.011-0.012l-0.003-0.016 c-0.078-0.455,0.475-0.756,0.499-0.769l0.031-0.017l0.026,0.023l9.003,7.983l-0.053,0.644L36.09,27.538z M27.239,19.518 c0.652,0.629,8.436,7.52,8.879,7.911l0.437-0.095l0.043-0.521l-8.939-7.926C27.552,18.953,27.197,19.196,27.239,19.518z"/><path fill="#cfd8dc" d="M35.098,24.841c0,0-0.364,0.606,0.061,0.946c-0.34,0.097-0.327,0.158-0.327,0.158 s-0.461-0.473-1.031-0.097c0.57,0.424,1.394,1.164,1.649,1.431c0.255,0.267,0.946,0.643,1.285,0.146 c0.34-0.497,0.024-0.994-0.388-1.322C35.934,25.774,35.098,24.841,35.098,24.841z"/><path fill="#263238" d="M36.273,27.717c-0.345,0-0.706-0.243-0.86-0.405c-0.261-0.272-1.083-1.008-1.643-1.425 l-0.057-0.043l0.06-0.039c0.495-0.326,0.92-0.042,1.051,0.066c0.044-0.035,0.122-0.07,0.236-0.107 c-0.347-0.368-0.009-0.942-0.006-0.948l0.035-0.059l0.045,0.051c0.008,0.009,0.839,0.934,1.243,1.255 c0.546,0.434,0.695,0.953,0.398,1.389c-0.109,0.159-0.259,0.248-0.446,0.263C36.312,27.716,36.292,27.717,36.273,27.717z M33.889,25.851c0.561,0.426,1.342,1.126,1.596,1.393c0.143,0.149,0.474,0.373,0.787,0.373c0.017,0,0.034,0,0.05-0.002 c0.155-0.013,0.28-0.086,0.371-0.22c0.381-0.559-0.137-1.062-0.378-1.254c-0.358-0.285-1.022-1.009-1.207-1.213 c-0.076,0.155-0.233,0.568,0.082,0.819l0.076,0.061l-0.093,0.026c-0.208,0.06-0.271,0.103-0.289,0.118l0.03,0.147l-0.118-0.12 C34.778,25.963,34.388,25.575,33.889,25.851z"/><circle cx="40.7" cy="27.351" r=".327" fill="#fdd835"/><path fill="#263238" d="M40.7,27.728c-0.208,0-0.377-0.169-0.377-0.377s0.169-0.377,0.377-0.377s0.377,0.169,0.377,0.377 S40.908,27.728,40.7,27.728z M40.7,27.073c-0.153,0-0.278,0.125-0.278,0.277s0.125,0.277,0.278,0.277 c0.153,0,0.277-0.125,0.277-0.277S40.853,27.073,40.7,27.073z"/><circle cx="40.821" cy="30.976" r=".327" fill="#fdd835"/><path fill="#263238" d="M40.821,31.354c-0.208,0-0.377-0.169-0.377-0.378c0-0.208,0.169-0.377,0.377-0.377 s0.377,0.169,0.377,0.377C41.198,31.185,41.029,31.354,40.821,31.354z M40.821,30.698c-0.153,0-0.277,0.125-0.277,0.277 c0,0.153,0.125,0.278,0.277,0.278c0.153,0,0.278-0.125,0.278-0.278C41.099,30.823,40.974,30.698,40.821,30.698z"/><circle cx="37.232" cy="31.182" r=".327" fill="#fdd835"/><path fill="#263238" d="M37.232,31.56c-0.208,0-0.377-0.169-0.377-0.378c0-0.208,0.169-0.377,0.377-0.377 s0.377,0.169,0.377,0.377C37.609,31.391,37.44,31.56,37.232,31.56z M37.232,30.904c-0.153,0-0.278,0.125-0.278,0.277 c0,0.153,0.125,0.278,0.278,0.278c0.153,0,0.277-0.125,0.277-0.278C37.509,31.029,37.385,30.904,37.232,30.904z"/><path fill="#cfd8dc" d="M38.905,26.902c-1.266,0-2.292,1.026-2.292,2.292c0,1.266,1.026,2.292,2.292,2.292 c1.266,0,2.292-1.026,2.292-2.292C41.197,27.928,40.171,26.902,38.905,26.902z M39.293,27.363c0,0-0.218,0.17-0.388,0.364 c-0.073-0.146-0.4-0.376-0.4-0.376C38.917,27.266,39.293,27.363,39.293,27.363z M37.043,29.6 c-0.085-0.412,0.012-0.788,0.012-0.788s0.17,0.218,0.364,0.388C37.274,29.273,37.043,29.6,37.043,29.6z M38.505,31.05 c0,0,0.218-0.17,0.388-0.364c0.073,0.146,0.4,0.376,0.4,0.376C38.881,31.147,38.505,31.05,38.505,31.05z M39.724,30.782 c-0.405,0-0.734-0.328-0.734-0.734c0-0.062,0.021-0.118,0.035-0.176c-0.041,0.007-0.078,0.024-0.12,0.024 c-0.061,0-0.115-0.02-0.171-0.035c0.016,0.061,0.038,0.12,0.038,0.186c0,0.405-0.328,0.734-0.734,0.734 c-0.405,0-0.734-0.328-0.734-0.734c0-0.405,0.328-0.734,0.734-0.734c0.073,0,0.14,0.022,0.206,0.042 c-0.012-0.05-0.03-0.097-0.03-0.151c0-0.031,0.014-0.058,0.018-0.088c-0.063,0.018-0.125,0.039-0.194,0.039 c-0.405,0-0.734-0.328-0.734-0.734c0-0.405,0.328-0.734,0.734-0.734c0.405,0,0.734,0.328,0.734,0.734 c0,0.044-0.018,0.081-0.025,0.123c0.052-0.013,0.102-0.032,0.158-0.032c0.038,0,0.071,0.016,0.108,0.022 c-0.006-0.038-0.023-0.073-0.023-0.113c0-0.405,0.328-0.734,0.734-0.734s0.734,0.328,0.734,0.734c0,0.405-0.328,0.734-0.734,0.734 c-0.051,0-0.095-0.019-0.143-0.029c0.003,0.027,0.016,0.05,0.016,0.077c0,0.05-0.018,0.094-0.028,0.141 c0.052-0.012,0.1-0.031,0.156-0.031c0.405,0,0.734,0.328,0.734,0.734C40.457,30.454,40.129,30.782,39.724,30.782z M40.379,29.212 c0.146-0.073,0.376-0.4,0.376-0.4c0.085,0.412-0.012,0.788-0.012,0.788S40.573,29.382,40.379,29.212z"/><path fill="#263238" d="M38.905,31.535c-1.292,0-2.342-1.051-2.342-2.342s1.05-2.341,2.342-2.341 c1.291,0,2.341,1.05,2.341,2.341S40.196,31.535,38.905,31.535z M38.905,26.952c-1.236,0-2.242,1.006-2.242,2.241 c0,1.236,1.006,2.242,2.242,2.242c1.236,0,2.242-1.006,2.242-2.242C41.147,27.958,40.141,26.952,38.905,26.952z M38.936,31.147 c-0.25,0-0.433-0.047-0.444-0.049l-0.099-0.026l0.081-0.062c0.002-0.002,0.217-0.169,0.381-0.357l0.049-0.056l0.034,0.066 c0.055,0.11,0.295,0.296,0.384,0.357l0.094,0.066l-0.113,0.023C39.174,31.138,39.048,31.147,38.936,31.147z M38.619,31.021 c0.116,0.018,0.322,0.04,0.55,0.011c-0.087-0.067-0.211-0.171-0.282-0.264C38.791,30.871,38.688,30.963,38.619,31.021z M39.724,30.832c-0.432,0-0.783-0.352-0.783-0.783c0-0.039,0.006-0.074,0.015-0.107c-0.047,0.01-0.103,0.002-0.149-0.008 c0.009,0.036,0.016,0.074,0.016,0.115c0,0.432-0.352,0.783-0.784,0.783s-0.783-0.352-0.783-0.783c0-0.433,0.351-0.784,0.783-0.784 c0.048,0,0.093,0.008,0.136,0.02c-0.006-0.024-0.01-0.051-0.01-0.078c0-0.006,0-0.012,0-0.017c-0.04,0.01-0.081,0.018-0.126,0.018 c-0.432,0-0.783-0.352-0.783-0.783s0.351-0.783,0.783-0.783s0.784,0.352,0.784,0.783c0,0.019-0.002,0.036-0.006,0.053 c0.04-0.01,0.088-0.018,0.129-0.008c-0.002-0.014-0.004-0.029-0.004-0.045c0-0.432,0.351-0.783,0.783-0.783 s0.783,0.352,0.783,0.783s-0.351,0.783-0.783,0.783c-0.028,0-0.054-0.005-0.078-0.011c0,0.003,0,0.007,0,0.01 c0,0.025-0.003,0.048-0.008,0.07c0.027-0.007,0.055-0.012,0.086-0.012c0.432,0,0.783,0.352,0.783,0.784 C40.507,30.48,40.156,30.832,39.724,30.832z M39.093,29.809l-0.03,0.117c-0.012,0.042-0.023,0.082-0.023,0.123 c0,0.377,0.307,0.684,0.684,0.684s0.684-0.307,0.684-0.684s-0.307-0.685-0.684-0.685c-0.032,0-0.063,0.009-0.096,0.019 c-0.017,0.004-0.033,0.009-0.049,0.013l-0.077,0.018l0.017-0.077c0.003-0.015,0.007-0.03,0.011-0.045 c0.008-0.029,0.016-0.057,0.016-0.085c0-0.009-0.003-0.019-0.006-0.03c-0.004-0.014-0.008-0.027-0.009-0.043l-0.007-0.067 l0.067,0.014c0.018,0.003,0.034,0.008,0.051,0.013c0.029,0.008,0.056,0.016,0.083,0.016c0.377,0,0.684-0.307,0.684-0.684 s-0.307-0.684-0.684-0.684s-0.684,0.307-0.684,0.684c0,0.018,0.005,0.035,0.011,0.056c0.004,0.016,0.009,0.032,0.011,0.049 l0.011,0.068l-0.068-0.011c-0.016-0.003-0.032-0.007-0.047-0.012c-0.061-0.017-0.104-0.006-0.157,0.01 c-0.014,0.004-0.028,0.008-0.042,0.012l-0.074,0.018l0.013-0.075c0.003-0.018,0.008-0.034,0.012-0.051 c0.006-0.023,0.012-0.043,0.012-0.063c0-0.377-0.307-0.684-0.684-0.684s-0.684,0.307-0.684,0.684s0.307,0.684,0.684,0.684 c0.051,0,0.1-0.015,0.151-0.029l0.103-0.028l-0.011,0.075c-0.002,0.015-0.006,0.029-0.01,0.043s-0.008,0.026-0.008,0.038 c0,0.031,0.009,0.062,0.018,0.096c0.004,0.015,0.008,0.028,0.012,0.043l0.02,0.084l-0.105-0.031 c-0.058-0.017-0.112-0.033-0.17-0.033c-0.377,0-0.684,0.308-0.684,0.685s0.307,0.684,0.684,0.684s0.684-0.307,0.684-0.684 c0-0.047-0.013-0.091-0.026-0.138l-0.032-0.119l0.117,0.031c0.064,0.017,0.118,0.031,0.189,0.011 c0.015-0.004,0.03-0.008,0.046-0.011L39.093,29.809z M37.017,29.724l-0.023-0.113c-0.086-0.418,0.008-0.795,0.013-0.811 l0.025-0.099l0.062,0.081c0.001,0.002,0.169,0.216,0.357,0.381l0.056,0.049l-0.066,0.033c-0.11,0.056-0.295,0.296-0.357,0.384 L37.017,29.724z M37.084,28.926c-0.019,0.117-0.041,0.323-0.011,0.551c0.068-0.088,0.171-0.212,0.265-0.283 C37.234,29.098,37.143,28.995,37.084,28.926z M40.766,29.712l-0.062-0.081c-0.001-0.002-0.169-0.217-0.356-0.38l-0.056-0.049 l0.066-0.034c0.11-0.055,0.295-0.296,0.357-0.384l0.066-0.095l0.023,0.113c0.086,0.418-0.008,0.795-0.013,0.811L40.766,29.712z M40.461,29.22c0.103,0.095,0.194,0.197,0.252,0.267c0.019-0.117,0.041-0.322,0.011-0.55 C40.658,29.024,40.554,29.148,40.461,29.22z M38.894,27.815l-0.034-0.066c-0.055-0.11-0.296-0.296-0.384-0.357l-0.095-0.066 l0.113-0.023c0.419-0.087,0.794,0.009,0.811,0.012l0.098,0.025l-0.08,0.062c-0.002,0.002-0.217,0.17-0.381,0.358L38.894,27.815z M38.629,27.381c0.087,0.067,0.211,0.171,0.282,0.264c0.096-0.103,0.198-0.194,0.268-0.254 C39.062,27.373,38.856,27.351,38.629,27.381z"/><path fill="#cfd8dc" d="M29.934,27.848c0,0-0.194-0.388-0.121-0.861c0.4,0,0.655-0.012,0.934,0.218 c0.279,0.23,0.194,0.897,0.194,0.897S30.443,28.418,29.934,27.848z"/><path fill="#263238" d="M30.598,28.238c-0.196,0-0.449-0.075-0.701-0.357l-0.008-0.011c-0.008-0.017-0.2-0.407-0.125-0.892 l0.006-0.042h0.098c0.017,0,0.034,0,0.05,0c0.34,0,0.593,0.01,0.86,0.23c0.297,0.245,0.215,0.913,0.212,0.941l-0.003,0.023 l-0.02,0.013C30.964,28.146,30.816,28.238,30.598,28.238z M29.976,27.819c0.42,0.467,0.822,0.301,0.917,0.252 c0.011-0.119,0.047-0.642-0.179-0.828c-0.24-0.197-0.454-0.207-0.793-0.207c-0.018,0-0.035,0-0.054,0h-0.012 C29.808,27.438,29.954,27.772,29.976,27.819z"/><path fill="#cfd8dc" d="M39.901,18.742l0.679-0.437c0,0-0.085-0.194,0.061-0.327c0.146-0.133,0.34-0.085,0.424,0.036 s0.085,0.267,0.024,0.352c-0.061,0.085-0.376,0.097-0.376,0.097l-0.437,0.715L39.901,18.742z"/><path fill="#263238" d="M40.284,19.263l-0.458-0.532l0.694-0.446c-0.02-0.073-0.041-0.226,0.087-0.344 c0.075-0.069,0.166-0.101,0.267-0.091c0.093,0.011,0.18,0.061,0.232,0.136c0.092,0.132,0.102,0.301,0.024,0.41 c-0.063,0.087-0.287,0.11-0.388,0.116L40.284,19.263z M39.976,18.752l0.294,0.341l0.415-0.679l0.027-0.001 c0.141-0.006,0.31-0.038,0.337-0.076c0.045-0.063,0.051-0.186-0.025-0.295c-0.036-0.051-0.096-0.086-0.161-0.093 c-0.046-0.004-0.118,0.002-0.188,0.065c-0.117,0.107-0.051,0.264-0.048,0.271l0.017,0.038l-0.036,0.023L39.976,18.752z"/><polygon fill="#fdd835" points="37.161,22.149 38.786,23.689 39.61,23.034 39.574,22.464 39.052,22.513 39.077,21.761 39.368,21.979 39.634,21.773 39.622,22.391 39.998,22.67 41.053,21.834 41.089,21.252 40.592,20.985 40.119,21.361 40.204,21.009 40.216,20.354 39.671,20.027 38.288,20.488"/><path fill="#263238" d="M38.783,23.755l-0.031-0.03l-1.656-1.569l1.162-1.71l0.016-0.006l1.404-0.467l0.02,0.012 l0.57,0.342l-0.013,0.684l-0.053,0.222l0.386-0.307l0.554,0.298l-0.04,0.637l-1.102,0.873l-0.376-0.277l0,0.006l0.038,0.596 l-0.021,0.017L38.783,23.755z M37.226,22.142l1.562,1.48l0.77-0.61l-0.031-0.493L39,22.567l0.029-0.904l0.337,0.254l0.319-0.248 l-0.014,0.698l0.325,0.24l1.007-0.799l0.033-0.527l-0.44-0.237l-0.562,0.446l0.119-0.493l0.011-0.614l-0.501-0.301l-1.345,0.447 L37.226,22.142z M39.124,21.858l-0.02,0.6l0.468-0.044l0.01-0.538l-0.214,0.166L39.124,21.858z"/><polygon fill="#fdd835" points="39.695,19.857 40.216,20.354 39.853,20.573 40.313,20.997 40.592,20.718 41.089,21.252 40.034,22.173 39.671,21.797 39.962,21.555 39.61,21.252 39.392,21.482 39.064,21.252 38.773,21.543 39.089,21.821 38.798,22.04 39.125,22.367 39.355,22.185 39.574,22.464 38.81,23.131 37.452,21.846"/><path fill="#263238" d="M38.808,23.198l-0.033-0.031l-1.398-1.322l0.041-0.036l2.278-2.02l0.033,0.032l0.569,0.542 l-0.363,0.218l0.376,0.347l0.282-0.282l0.567,0.61l-1.13,0.986l-0.434-0.449l0.287-0.239l-0.271-0.232l-0.215,0.226l-0.328-0.229 l-0.224,0.224l0.322,0.283l-0.294,0.221l0.255,0.256l0.235-0.186l0.279,0.355L38.808,23.198z M37.526,21.847l1.285,1.217 l0.694-0.606l-0.158-0.201l-0.226,0.178l-0.399-0.398l0.288-0.217l-0.309-0.273l0.358-0.358l0.327,0.229l0.221-0.233l0.432,0.373 l-0.294,0.245l0.293,0.303l0.98-0.855l-0.427-0.458l-0.276,0.276l-0.545-0.503l0.365-0.218l-0.441-0.42L37.526,21.847z"/><path fill="#eceff1" d="M37.427,22.864c0,0-0.994,0.849-1.613-0.024s-0.752-1.079-0.764-2.558 c-0.012-1.479-0.994,0.255-0.994,0.255s-0.159,2.389,0.981,3.201c1.14,0.812,2.134-0.073,2.134-0.073L37.427,22.864z"/><path fill="#263238" d="M36.038,24.128c-0.312,0-0.664-0.089-1.03-0.35c-1.149-0.819-1.008-3.146-1.001-3.245l0.006-0.021 c0.086-0.152,0.513-0.878,0.821-0.878c0.015,0,0.03,0.002,0.045,0.006c0.146,0.038,0.218,0.248,0.221,0.642 c0.012,1.481,0.155,1.683,0.755,2.529c0.152,0.216,0.343,0.34,0.565,0.367c0.033,0.005,0.067,0.007,0.1,0.007 c0.448,0,0.87-0.354,0.875-0.358l0.133-0.113l-0.314,0.979l-0.01,0.009C37.198,23.708,36.714,24.128,36.038,24.128z M34.106,20.551c-0.01,0.178-0.104,2.387,0.96,3.146c1.045,0.746,1.951,0.031,2.062-0.061l0.205-0.638 c-0.186,0.126-0.551,0.328-0.924,0.279c-0.251-0.031-0.465-0.169-0.635-0.408c-0.615-0.868-0.761-1.074-0.773-2.588 c-0.004-0.441-0.094-0.531-0.147-0.545c-0.008-0.002-0.016-0.003-0.024-0.003C34.642,19.733,34.294,20.222,34.106,20.551z"/><path fill="#cfd8dc" d="M39.416,18.875c0,0,0.34-0.643,0.837-0.146c0.497,0.497,0.206,0.97-0.218,0.812 C39.61,19.384,39.416,18.875,39.416,18.875z"/><path fill="#263238" d="M40.195,19.622c-0.057,0-0.117-0.011-0.179-0.033c-0.44-0.164-0.639-0.675-0.647-0.696 l-0.008-0.021l0.01-0.021c0.007-0.013,0.169-0.314,0.444-0.356c0.159-0.023,0.317,0.042,0.472,0.199 c0.319,0.318,0.316,0.612,0.216,0.768C40.437,19.566,40.324,19.622,40.195,19.622z M39.472,18.879 c0.042,0.096,0.23,0.486,0.58,0.616c0.154,0.057,0.296,0.024,0.368-0.088c0.079-0.123,0.074-0.366-0.203-0.643 c-0.132-0.132-0.26-0.193-0.387-0.17C39.643,18.622,39.51,18.815,39.472,18.879z"/><path fill="#fdd835" d="M39.562,18.826c0,0,0.546,0.291,0.473,0.715c-0.582,0.57-8.912,7.942-8.912,7.942l-0.497-0.109 l-0.049-0.582L39.562,18.826z"/><path fill="#263238" d="M31.137,27.538l-0.025-0.006l-0.533-0.116l-0.054-0.644l0.019-0.017l9.011-7.99l0.031,0.017 c0.023,0.013,0.577,0.313,0.499,0.769l-0.003,0.016l-0.011,0.012c-0.576,0.563-8.831,7.869-8.914,7.942L31.137,27.538z M30.672,27.334l0.436,0.095c0.443-0.392,8.227-7.282,8.879-7.911c0.042-0.321-0.313-0.564-0.42-0.63l-8.939,7.926L30.672,27.334z"/><path fill="#fdd835" d="M32.129,24.841c0,0,0.364,0.606-0.061,0.946c0.34,0.097,0.327,0.158,0.327,0.158 s0.461-0.473,1.031-0.097c-0.57,0.424-1.394,1.164-1.649,1.431c-0.255,0.267-0.946,0.643-1.285,0.146 c-0.34-0.497-0.024-0.994,0.388-1.322C31.292,25.774,32.129,24.841,32.129,24.841z"/><path fill="#263238" d="M30.953,27.717c-0.019,0-0.038-0.001-0.057-0.003c-0.187-0.015-0.336-0.104-0.446-0.263 c-0.297-0.436-0.148-0.955,0.398-1.389c0.404-0.321,1.235-1.246,1.243-1.255l0.045-0.051l0.035,0.059 c0.003,0.006,0.341,0.58-0.005,0.948c0.114,0.037,0.192,0.072,0.236,0.107c0.132-0.108,0.557-0.394,1.051-0.066l0.06,0.039 l-0.057,0.043c-0.559,0.417-1.382,1.152-1.643,1.425C31.659,27.474,31.298,27.717,30.953,27.717z M32.118,24.928 c-0.185,0.204-0.849,0.928-1.207,1.213c-0.241,0.191-0.759,0.695-0.378,1.254c0.091,0.134,0.216,0.207,0.371,0.22 c0.017,0.002,0.034,0.002,0.05,0.002c0.312,0,0.644-0.224,0.787-0.373c0.254-0.267,1.036-0.967,1.596-1.393 c-0.499-0.275-0.889,0.112-0.906,0.129l-0.118,0.12l0.03-0.147c-0.017-0.016-0.081-0.059-0.288-0.118l-0.093-0.026l0.076-0.061 C32.352,25.496,32.194,25.083,32.118,24.928z"/><circle cx="26.527" cy="27.351" r=".327" fill="#cfd8dc"/><path fill="#263238" d="M26.527,27.728c-0.208,0-0.377-0.169-0.377-0.377s0.169-0.377,0.377-0.377s0.377,0.169,0.377,0.377 S26.735,27.728,26.527,27.728z M26.527,27.073c-0.153,0-0.277,0.125-0.277,0.277s0.125,0.277,0.277,0.277 c0.153,0,0.278-0.125,0.278-0.277S26.68,27.073,26.527,27.073z"/><circle cx="26.406" cy="30.976" r=".327" fill="#cfd8dc"/><path fill="#263238" d="M26.406,31.354c-0.208,0-0.377-0.169-0.377-0.378c0-0.208,0.169-0.377,0.377-0.377 s0.377,0.169,0.377,0.377C26.783,31.185,26.614,31.354,26.406,31.354z M26.406,30.698c-0.153,0-0.278,0.125-0.278,0.277 c0,0.153,0.125,0.278,0.278,0.278c0.153,0,0.277-0.125,0.277-0.278C26.683,30.823,26.559,30.698,26.406,30.698z"/><circle cx="29.995" cy="31.182" r=".327" fill="#cfd8dc"/><path fill="#263238" d="M29.995,31.56c-0.208,0-0.377-0.169-0.377-0.378c0-0.208,0.169-0.377,0.377-0.377 s0.377,0.169,0.377,0.377C30.372,31.391,30.203,31.56,29.995,31.56z M29.995,30.904c-0.153,0-0.277,0.125-0.277,0.277 c0,0.153,0.125,0.278,0.277,0.278c0.153,0,0.278-0.125,0.278-0.278C30.272,31.029,30.148,30.904,29.995,30.904z"/><path fill="#fdd835" d="M26.03,29.194c0,1.266,1.026,2.292,2.292,2.292c1.266,0,2.292-1.026,2.292-2.292 c0-1.266-1.026-2.292-2.292-2.292C27.056,26.902,26.03,27.928,26.03,29.194z M28.722,27.351c0,0-0.327,0.23-0.4,0.376 c-0.17-0.194-0.388-0.364-0.388-0.364S28.309,27.266,28.722,27.351z M29.808,29.2c0.194-0.17,0.364-0.388,0.364-0.388 s0.097,0.376,0.012,0.788C30.183,29.6,29.953,29.273,29.808,29.2z M27.933,31.062c0,0,0.327-0.23,0.4-0.376 c0.17,0.194,0.388,0.364,0.388,0.364S28.346,31.147,27.933,31.062z M26.769,30.048c0-0.405,0.328-0.734,0.734-0.734 c0.055,0,0.104,0.02,0.156,0.031c-0.01-0.047-0.028-0.091-0.028-0.141c0-0.027,0.013-0.051,0.016-0.077 c-0.048,0.01-0.092,0.029-0.143,0.029c-0.405,0-0.734-0.328-0.734-0.734c0-0.405,0.328-0.734,0.734-0.734 c0.405,0,0.734,0.328,0.734,0.734c0,0.04-0.017,0.074-0.023,0.113c0.036-0.006,0.07-0.022,0.108-0.022 c0.056,0,0.106,0.019,0.158,0.032c-0.007-0.041-0.025-0.079-0.025-0.123c0-0.405,0.328-0.734,0.734-0.734 c0.405,0,0.734,0.328,0.734,0.734c0,0.405-0.328,0.734-0.734,0.734c-0.069,0-0.131-0.021-0.194-0.039 c0.004,0.03,0.018,0.057,0.018,0.088c0,0.053-0.019,0.101-0.03,0.151c0.067-0.02,0.133-0.042,0.206-0.042 c0.405,0,0.734,0.328,0.734,0.734c0,0.405-0.328,0.734-0.734,0.734c-0.405,0-0.734-0.328-0.734-0.734 c0-0.066,0.021-0.125,0.038-0.186c-0.056,0.015-0.11,0.035-0.171,0.035c-0.043,0-0.08-0.017-0.12-0.024 c0.015,0.058,0.035,0.113,0.035,0.176c0,0.405-0.328,0.734-0.734,0.734C27.098,30.782,26.769,30.454,26.769,30.048z M26.484,29.6 c0,0-0.097-0.376-0.012-0.788c0,0,0.23,0.327,0.376,0.4C26.653,29.382,26.484,29.6,26.484,29.6z"/><path fill="#263238" d="M28.321,31.535c-1.291,0-2.341-1.051-2.341-2.342s1.05-2.341,2.341-2.341 c1.292,0,2.342,1.05,2.342,2.341S29.613,31.535,28.321,31.535z M28.321,26.952c-1.236,0-2.242,1.006-2.242,2.241 c0,1.236,1.006,2.242,2.242,2.242c1.236,0,2.242-1.006,2.242-2.242C30.563,27.958,29.558,26.952,28.321,26.952z M28.291,31.147 c-0.112,0-0.237-0.01-0.367-0.036l-0.113-0.023l0.094-0.066c0.088-0.062,0.329-0.247,0.384-0.357l0.034-0.066l0.049,0.056 c0.165,0.188,0.379,0.355,0.381,0.357l0.081,0.062l-0.099,0.026C28.723,31.101,28.541,31.147,28.291,31.147z M28.058,31.032 c0.228,0.029,0.433,0.007,0.55-0.011c-0.069-0.059-0.172-0.15-0.268-0.253C28.269,30.861,28.145,30.965,28.058,31.032z M29.188,30.832c-0.432,0-0.783-0.352-0.783-0.783c0-0.041,0.007-0.079,0.016-0.115c-0.047,0.01-0.102,0.018-0.149,0.008 c0.009,0.033,0.015,0.068,0.015,0.107c0,0.432-0.352,0.783-0.784,0.783s-0.783-0.352-0.783-0.783c0-0.433,0.351-0.784,0.783-0.784 c0.031,0,0.059,0.005,0.086,0.012c-0.005-0.021-0.009-0.045-0.009-0.07c0-0.003,0-0.007,0-0.01 c-0.024,0.006-0.05,0.011-0.078,0.011c-0.432,0-0.783-0.352-0.783-0.783s0.351-0.783,0.783-0.783s0.784,0.352,0.784,0.783 c0,0.016-0.002,0.03-0.005,0.045c0.042-0.01,0.088-0.002,0.129,0.008c-0.003-0.017-0.006-0.034-0.006-0.053 c0-0.432,0.351-0.783,0.783-0.783s0.783,0.352,0.783,0.783s-0.351,0.783-0.783,0.783c-0.045,0-0.087-0.008-0.126-0.019 c0,0.006,0,0.012,0,0.018c0,0.027-0.004,0.054-0.01,0.078c0.043-0.012,0.087-0.02,0.136-0.02c0.432,0,0.783,0.352,0.783,0.784 C29.972,30.48,29.621,30.832,29.188,30.832z M28.562,29.792l-0.031,0.117c-0.014,0.048-0.026,0.093-0.026,0.14 c0,0.377,0.307,0.684,0.684,0.684s0.684-0.307,0.684-0.684s-0.307-0.685-0.684-0.685c-0.058,0-0.112,0.017-0.17,0.033 l-0.105,0.031l0.02-0.084c0.003-0.015,0.008-0.028,0.012-0.043c0.009-0.033,0.018-0.064,0.018-0.096 c0-0.012-0.003-0.023-0.008-0.038c-0.004-0.014-0.008-0.028-0.01-0.043l-0.009-0.075l0.102,0.028 c0.051,0.016,0.099,0.029,0.15,0.029c0.377,0,0.684-0.307,0.684-0.684s-0.307-0.684-0.684-0.684s-0.684,0.307-0.684,0.684 c0,0.021,0.006,0.041,0.012,0.064c0.004,0.017,0.009,0.033,0.012,0.05l0.013,0.075l-0.074-0.018 c-0.014-0.004-0.028-0.008-0.042-0.012c-0.053-0.016-0.097-0.026-0.157-0.01c-0.015,0.005-0.031,0.009-0.047,0.012l-0.068,0.011 l0.011-0.068c0.002-0.017,0.007-0.033,0.012-0.05c0.006-0.021,0.011-0.037,0.011-0.055c0-0.377-0.307-0.684-0.684-0.684 s-0.684,0.307-0.684,0.684s0.307,0.684,0.684,0.684c0.027,0,0.054-0.008,0.083-0.016c0.017-0.005,0.033-0.01,0.051-0.013 l0.067-0.014l-0.007,0.067c-0.001,0.016-0.005,0.029-0.009,0.043c-0.003,0.012-0.006,0.021-0.006,0.03 c0,0.027,0.008,0.054,0.016,0.083c0.004,0.016,0.008,0.031,0.012,0.048l0.016,0.076l-0.076-0.018 c-0.016-0.004-0.032-0.009-0.049-0.013c-0.033-0.01-0.064-0.019-0.096-0.019c-0.377,0-0.684,0.308-0.684,0.685 s0.307,0.684,0.684,0.684s0.684-0.307,0.684-0.684c0-0.041-0.011-0.08-0.023-0.122l-0.03-0.118l0.077,0.015 c0.016,0.003,0.031,0.007,0.046,0.011c0.069,0.021,0.125,0.006,0.189-0.011L28.562,29.792z M30.209,29.724l-0.067-0.095 c-0.062-0.088-0.248-0.329-0.357-0.384l-0.066-0.033l0.056-0.049c0.188-0.165,0.355-0.379,0.357-0.381l0.062-0.08L30.22,28.8 c0.004,0.016,0.099,0.393,0.013,0.811L30.209,29.724z M29.889,29.193c0.093,0.071,0.197,0.195,0.265,0.283 c0.029-0.228,0.008-0.434-0.011-0.551C30.084,28.995,29.992,29.098,29.889,29.193z M26.461,29.712l-0.025-0.099 c-0.004-0.016-0.099-0.393-0.013-0.811l0.023-0.113l0.067,0.095c0.062,0.088,0.248,0.329,0.357,0.384l0.066,0.034l-0.056,0.049 c-0.188,0.163-0.355,0.378-0.357,0.38L26.461,29.712z M26.501,28.937c-0.029,0.228-0.008,0.433,0.011,0.55 c0.059-0.069,0.15-0.172,0.253-0.267C26.673,29.148,26.569,29.023,26.501,28.937z M28.333,27.815l-0.049-0.056 c-0.164-0.188-0.379-0.356-0.381-0.358l-0.08-0.062l0.098-0.025c0.016-0.003,0.391-0.102,0.811-0.012l0.113,0.023l-0.095,0.066 c-0.088,0.062-0.33,0.247-0.384,0.357L28.333,27.815z M28.047,27.391c0.069,0.06,0.172,0.151,0.268,0.254 c0.071-0.093,0.195-0.196,0.283-0.264C28.37,27.352,28.165,27.372,28.047,27.391z"/><path fill="#eceff1" d="M37.221,18.196c0,0-0.364,0.582,0.073,1.394c0.437,0.812,1.067,2.813,0.449,3.625 s-1.601,0.849-1.601,0.849s1.14-0.109,1.14-1.455s-1.079-2.122-1.043-3.128S37.221,18.196,37.221,18.196z"/><path fill="#263238" d="M36.144,24.114l-0.007-0.1c0.045-0.004,1.095-0.122,1.095-1.405c0-0.698-0.292-1.232-0.574-1.75 c-0.25-0.458-0.487-0.892-0.469-1.38c0.037-1.03,1.008-1.328,1.018-1.331l0.125-0.037l-0.069,0.111 c-0.003,0.006-0.342,0.569,0.074,1.345c0.454,0.844,1.072,2.854,0.444,3.679C37.157,24.068,36.185,24.113,36.144,24.114z M37.122,18.287c-0.246,0.107-0.805,0.435-0.833,1.196c-0.017,0.461,0.213,0.882,0.457,1.328c0.275,0.504,0.586,1.074,0.586,1.798 c0,0.691-0.296,1.067-0.592,1.271c0.308-0.112,0.677-0.318,0.963-0.694c0.6-0.789-0.01-2.746-0.453-3.571 C36.915,18.991,37.035,18.502,37.122,18.287z"/><path fill="#eceff1" d="M38.931,18.002l-0.57,0.861c0,0-1.455-1.31-2.122,0.618C35.875,18.766,36.615,16.498,38.931,18.002 z"/><path fill="#263238" d="M36.248,19.609l-0.053-0.105c-0.214-0.42-0.066-1.265,0.445-1.724 c0.32-0.288,1.045-0.646,2.319,0.18L39,17.987l-0.629,0.952L38.328,18.9c-0.006-0.005-0.618-0.546-1.204-0.395 c-0.36,0.093-0.642,0.427-0.837,0.992L36.248,19.609z M37.53,17.545c-0.371,0-0.638,0.143-0.824,0.31 c-0.426,0.383-0.585,1.075-0.469,1.485c0.206-0.523,0.495-0.837,0.862-0.931c0.547-0.146,1.094,0.252,1.251,0.38l0.511-0.772 C38.315,17.67,37.877,17.545,37.53,17.545z"/><g><circle cx="28.334" cy="28.636" r=".267" fill="#fdd835"/><path fill="#263238" d="M28.333,28.952c-0.175,0-0.316-0.142-0.316-0.316s0.142-0.316,0.316-0.316s0.317,0.142,0.317,0.316 S28.508,28.952,28.333,28.952z M28.333,28.419c-0.12,0-0.217,0.098-0.217,0.217s0.097,0.217,0.217,0.217s0.217-0.098,0.217-0.217 S28.453,28.419,28.333,28.419z"/></g><g><circle cx="28.928" cy="29.206" r=".267" fill="#fdd835"/><path fill="#263238" d="M28.928,29.522c-0.175,0-0.316-0.142-0.316-0.316s0.142-0.317,0.316-0.317s0.316,0.143,0.316,0.317 S29.103,29.522,28.928,29.522z M28.928,28.988c-0.12,0-0.217,0.098-0.217,0.218c0,0.119,0.097,0.217,0.217,0.217 s0.217-0.098,0.217-0.217C29.145,29.086,29.047,28.988,28.928,28.988z"/></g><g><circle cx="27.727" cy="29.206" r=".267" fill="#fdd835"/><path fill="#263238" d="M27.728,29.522c-0.175,0-0.317-0.142-0.317-0.316s0.142-0.317,0.317-0.317s0.316,0.143,0.316,0.317 S27.902,29.522,27.728,29.522z M27.728,28.988c-0.12,0-0.217,0.098-0.217,0.218c0,0.119,0.098,0.217,0.217,0.217 s0.217-0.098,0.217-0.217C27.944,29.086,27.847,28.988,27.728,28.988z"/></g><g><circle cx="28.334" cy="29.812" r=".267" fill="#fdd835"/><path fill="#263238" d="M28.333,30.129c-0.175,0-0.316-0.143-0.316-0.317s0.142-0.316,0.316-0.316s0.317,0.142,0.317,0.316 S28.508,30.129,28.333,30.129z M28.333,29.595c-0.12,0-0.217,0.098-0.217,0.217c0,0.12,0.097,0.218,0.217,0.218 s0.217-0.098,0.217-0.218C28.551,29.692,28.453,29.595,28.333,29.595z"/></g><g><polygon fill="#d50000" points="34.057,33.534 33.657,33.534 33.657,26.194 32.052,24.929 32.3,24.614 34.057,26.001"/></g><g><polygon fill="#d50000" points="33.427,33.971 33.026,33.971 33.026,26.271 34.608,24.771 34.884,25.062 33.427,26.442"/></g><g><path fill="#d50000" d="M36.872,30.189c-1.611-0.797-3.193-4.045-3.26-4.183l-0.02-0.072l-0.178-2.441l0.399-0.029 l0.175,2.402c0.172,0.348,1.654,3.269,3.061,3.964L36.872,30.189z"/></g><g><path fill="#d50000" d="M33.588,31.945c-1.209,0-2.6-0.322-4.061-1.283l0.22-0.334c4.179,2.75,7.732-0.01,7.769-0.038 l0.249,0.312C37.74,30.623,36.037,31.945,33.588,31.945z"/></g><g><path fill="#d50000" d="M30.447,30.086l-0.131-0.379c1.366-0.473,2.926-3.647,3.261-4.359l-0.959-0.758l0.248-0.314 l1.205,0.953l-0.063,0.143C33.932,25.539,32.142,29.498,30.447,30.086z"/></g><g><path fill="#eceff1" d="M31.804,19.194l-0.485-0.841l0.259-0.97l-0.259-0.404l0.129-0.986l0.582-1.067 c0,0,0.388-1.342,1.536-1.342s1.633,1.374,1.633,1.374l0.566,1.455l-0.162,1.051l0.307,1.164l-0.889,0.841L31.804,19.194z"/><path fill="#263238" d="M35.039,19.521l-3.266-0.278L31.76,19.22l-0.495-0.859l0.005-0.02l0.253-0.948l-0.256-0.401 l0.002-0.019l0.135-1.004l0.582-1.067c0-0.003,0.408-1.367,1.58-1.367c1.17,0,1.675,1.395,1.68,1.408l0.57,1.466l-0.002,0.014 l-0.16,1.04l0.312,1.183l-0.022,0.021L35.039,19.521z M31.834,19.146l3.169,0.271l0.851-0.804l-0.302-1.146l0.001-0.011 l0.16-1.037l-0.561-1.442c-0.005-0.016-0.488-1.344-1.586-1.344c-1.098,0-1.484,1.293-1.488,1.306l-0.582,1.069l-0.126,0.959 l0.261,0.407l-0.259,0.972L31.834,19.146z"/></g><g><path fill="#eceff1" d="M30.005,18.196c0,0,0.364,0.582-0.073,1.394c-0.437,0.812-1.067,2.813-0.449,3.625 s1.601,0.849,1.601,0.849s-1.14-0.109-1.14-1.455s1.079-2.122,1.043-3.128C30.951,18.475,30.005,18.196,30.005,18.196z"/><path fill="#263238" d="M31.083,24.114c-0.041-0.001-1.013-0.046-1.639-0.868c-0.627-0.824-0.009-2.835,0.445-3.679 c0.417-0.775,0.078-1.339,0.074-1.345l-0.069-0.111l0.125,0.037c0.01,0.003,0.981,0.301,1.018,1.331 c0.018,0.488-0.218,0.922-0.469,1.38c-0.282,0.518-0.574,1.052-0.574,1.75c0,1.283,1.05,1.401,1.095,1.405L31.083,24.114z M30.105,18.287c0.086,0.215,0.207,0.704-0.128,1.327c-0.443,0.825-1.053,2.782-0.453,3.571c0.287,0.376,0.656,0.582,0.964,0.694 c-0.296-0.203-0.592-0.579-0.592-1.271c0-0.724,0.311-1.294,0.586-1.798c0.243-0.446,0.473-0.867,0.457-1.328 C30.91,18.722,30.351,18.395,30.105,18.287z"/></g><g><path fill="#eceff1" d="M28.296,18.002l0.57,0.861c0,0,1.455-1.31,2.122,0.618C31.351,18.766,30.612,16.498,28.296,18.002z"/><path fill="#263238" d="M30.979,19.609l-0.039-0.111c-0.195-0.565-0.477-0.899-0.837-0.992 c-0.589-0.151-1.198,0.39-1.204,0.395l-0.043,0.039l-0.032-0.049l-0.598-0.903l0.042-0.027c1.273-0.824,2-0.468,2.319-0.18 c0.511,0.459,0.659,1.304,0.445,1.724L30.979,19.609z M29.883,18.379c0.081,0,0.162,0.009,0.244,0.03 c0.367,0.094,0.656,0.407,0.862,0.931c0.117-0.41-0.042-1.103-0.469-1.485c-0.36-0.323-1.025-0.555-2.155,0.162l0.511,0.772 C29.009,18.681,29.423,18.379,29.883,18.379z"/></g><g><circle cx="38.893" cy="28.636" r=".267" fill="#cfd8dc"/><path fill="#263238" d="M38.893,28.952c-0.175,0-0.316-0.142-0.316-0.316s0.142-0.316,0.316-0.316s0.316,0.142,0.316,0.316 S39.068,28.952,38.893,28.952z M38.893,28.419c-0.12,0-0.217,0.098-0.217,0.217s0.097,0.217,0.217,0.217s0.217-0.098,0.217-0.217 S39.013,28.419,38.893,28.419z"/></g><g><circle cx="38.299" cy="29.206" r=".267" fill="#cfd8dc"/><path fill="#263238" d="M38.299,29.522c-0.175,0-0.316-0.142-0.316-0.316s0.142-0.317,0.316-0.317s0.316,0.143,0.316,0.317 S38.474,29.522,38.299,29.522z M38.299,28.988c-0.12,0-0.217,0.098-0.217,0.218c0,0.119,0.097,0.217,0.217,0.217 s0.217-0.098,0.217-0.217C38.516,29.086,38.418,28.988,38.299,28.988z"/></g><g><circle cx="39.499" cy="29.206" r=".267" fill="#cfd8dc"/><path fill="#263238" d="M39.5,29.522c-0.175,0-0.317-0.142-0.317-0.316s0.142-0.317,0.317-0.317s0.316,0.143,0.316,0.317 S39.674,29.522,39.5,29.522z M39.5,28.988c-0.12,0-0.217,0.098-0.217,0.218c0,0.119,0.098,0.217,0.217,0.217 s0.217-0.098,0.217-0.217C39.716,29.086,39.619,28.988,39.5,28.988z"/></g><g><circle cx="38.893" cy="29.812" r=".267" fill="#cfd8dc"/><path fill="#263238" d="M38.893,30.129c-0.175,0-0.316-0.143-0.316-0.317s0.142-0.316,0.316-0.316s0.316,0.142,0.316,0.316 S39.068,30.129,38.893,30.129z M38.893,29.595c-0.12,0-0.217,0.098-0.217,0.217c0,0.12,0.097,0.218,0.217,0.218 s0.217-0.098,0.217-0.218C39.11,29.692,39.013,29.595,38.893,29.595z"/></g><g><path fill="#d50000" d="M33.284,35.723c0,0-0.109-1.589,0.561-1.557c0.67,0.031,0.514,1.573,0.514,1.573 S33.954,36.065,33.284,35.723z"/><path fill="#263238" d="M33.877,35.931c-0.169,0-0.376-0.041-0.616-0.163l-0.025-0.014l-0.002-0.027 c-0.003-0.046-0.072-1.111,0.292-1.482c0.089-0.091,0.202-0.132,0.321-0.129c0.125,0.006,0.233,0.06,0.32,0.16 c0.345,0.399,0.246,1.425,0.242,1.468l-0.002,0.021l-0.017,0.014C34.379,35.786,34.195,35.931,33.877,35.931z M33.333,35.691 c0.549,0.271,0.9,0.074,0.979,0.02c0.013-0.15,0.071-1.033-0.22-1.37c-0.069-0.08-0.15-0.121-0.249-0.126 c-0.006,0-0.011,0-0.017,0c-0.088,0-0.163,0.032-0.228,0.099C33.296,34.621,33.324,35.52,33.333,35.691z"/></g><g><path fill="#fdd835" d="M33.611,34.461c0,0-0.093-0.592,0-0.919c0.105-0.368,0.452-0.343,0.545,0s-0.078,0.981-0.078,0.981 L33.611,34.461z"/><path fill="#263238" d="M34.116,34.579l-0.548-0.073l-0.006-0.037c-0.004-0.024-0.094-0.606,0.001-0.94 c0.053-0.187,0.175-0.303,0.318-0.303c0,0,0.001,0,0.001,0c0.145,0.001,0.271,0.12,0.321,0.304c0.096,0.352-0.07,0.98-0.078,1.007 L34.116,34.579z M33.655,34.416l0.386,0.052c0.035-0.146,0.143-0.637,0.067-0.912c-0.038-0.14-0.126-0.229-0.225-0.23 c0,0,0,0-0.001,0c-0.097,0-0.182,0.089-0.223,0.23C33.583,33.822,33.637,34.283,33.655,34.416z"/></g><g><path fill="#fdd835" d="M33.033,34.747c0,0-0.097-0.614,0-0.954c0.109-0.382,0.469-0.356,0.566,0 c0.097,0.356-0.081,1.019-0.081,1.019L33.033,34.747z"/><path fill="#263238" d="M33.555,34.867l-0.565-0.075l-0.006-0.037c-0.004-0.025-0.098-0.629,0.001-0.976 c0.055-0.193,0.181-0.312,0.329-0.312c0,0,0.001,0,0.001,0c0.149,0.001,0.279,0.124,0.331,0.313 c0.1,0.364-0.073,1.017-0.081,1.044L33.555,34.867z M33.077,34.702l0.403,0.054c0.036-0.15,0.148-0.662,0.07-0.95 c-0.04-0.145-0.132-0.238-0.235-0.239c0,0-0.001,0-0.001,0c-0.102,0-0.191,0.092-0.233,0.24 C33.001,34.085,33.058,34.566,33.077,34.702z"/></g><g><path fill="#d50000" d="M32.693,36.056c0,0-0.113-1.649,0.582-1.617s0.534,1.633,0.534,1.633S33.388,36.412,32.693,36.056z"/><path fill="#263238" d="M33.308,36.27c-0.175,0-0.39-0.042-0.638-0.168l-0.025-0.014l-0.002-0.027 c-0.003-0.047-0.075-1.153,0.302-1.538c0.092-0.094,0.204-0.143,0.333-0.133c0.13,0.006,0.241,0.062,0.331,0.165 c0.357,0.415,0.254,1.478,0.25,1.522l-0.002,0.021l-0.017,0.014C33.828,36.121,33.638,36.27,33.308,36.27z M32.741,36.025 c0.575,0.281,0.939,0.076,1.02,0.02c0.013-0.154,0.075-1.073-0.229-1.425c-0.072-0.083-0.157-0.126-0.26-0.131 c-0.006,0-0.012,0-0.018,0c-0.092,0-0.17,0.034-0.238,0.104C32.703,34.914,32.732,35.85,32.741,36.025z"/></g><g><path fill="#263238" d="M35.973,26.947c-0.073,0-0.154-0.014-0.222-0.056c-0.082-0.052-0.13-0.136-0.145-0.251 c-0.046-0.366-0.479-0.815-0.483-0.819l0.071-0.07c0.019,0.02,0.46,0.478,0.511,0.878c0.01,0.084,0.042,0.143,0.099,0.178 c0.111,0.07,0.295,0.032,0.356,0.011l0.032,0.096C36.186,26.915,36.088,26.947,35.973,26.947z"/></g><g><path fill="#263238" d="M31.24,26.947c-0.115,0-0.213-0.032-0.22-0.034l0.031-0.096c0.002,0.002,0.225,0.075,0.357-0.011 c0.056-0.035,0.088-0.094,0.099-0.178c0.051-0.4,0.492-0.858,0.511-0.878l0.071,0.07c-0.004,0.004-0.437,0.453-0.483,0.819 c-0.015,0.114-0.063,0.199-0.145,0.251C31.394,26.934,31.313,26.947,31.24,26.947z"/></g><g><path fill="#fdd835" d="M31.751,14.049l0.691,0.667l0.291-0.412l0.146,0.388l0.461,0.049c0,0-0.315-0.509,0.024-0.582 c-0.121-0.461,0.655-0.243,0.461,0.049c0.461-0.073,0.485,0.364,0.024,0.534c0.461,0.097,0.534,0.049,0.534,0.049l0.121-0.461 l0.315,0.412l0.667-0.679l-0.182,0.946l0.303,0.327l-0.036,0.424l0.267,0.267l-0.073,0.267c0,0-1.116-0.582-2.207-0.558 c-1.091,0.024-1.94,0.34-2.134,0.631c-0.291-0.655,0.097-0.558,0.097-0.558l0.109-0.606l0.182-0.291L31.751,14.049z"/><path fill="#263238" d="M31.415,16.469l-0.037-0.083c-0.125-0.282-0.146-0.468-0.062-0.567 c0.048-0.057,0.111-0.068,0.165-0.065l0.107-0.578l0.174-0.277l-0.069-0.976l0.743,0.718l0.312-0.442l0.168,0.447l0.335,0.036 c-0.056-0.111-0.13-0.302-0.073-0.438c0.017-0.04,0.053-0.091,0.128-0.12c-0.024-0.153,0.052-0.222,0.103-0.249 c0.133-0.075,0.341-0.011,0.437,0.093c0.051,0.056,0.07,0.119,0.058,0.183c0.007-0.001,0.014-0.001,0.021-0.001 c0.185,0,0.277,0.09,0.301,0.185c0.031,0.119-0.037,0.275-0.218,0.387c0.208,0.037,0.3,0.034,0.334,0.028l0.14-0.531l0.342,0.447 l0.743-0.756l-0.208,1.083l0.301,0.325l-0.036,0.424l0.271,0.271l-0.097,0.354l-0.055-0.029c-0.011-0.005-1.072-0.553-2.117-0.553 c-0.021,0-0.043,0.001-0.065,0.001c-1.073,0.024-1.907,0.328-2.094,0.608L31.415,16.469z M31.472,15.853 c-0.026,0-0.06,0.006-0.081,0.031c-0.023,0.027-0.061,0.118,0.046,0.386c0.27-0.277,1.059-0.562,2.119-0.585 c0.022-0.001,0.045-0.001,0.067-0.001c0.932,0,1.874,0.424,2.108,0.537l0.049-0.181l-0.263-0.263l0.036-0.426l-0.305-0.329 l0.004-0.025l0.15-0.782l-0.591,0.602l-0.288-0.377l-0.101,0.381l-0.016,0.011c-0.026,0.017-0.137,0.05-0.571-0.042l-0.17-0.035 l0.163-0.061c0.228-0.084,0.322-0.235,0.296-0.335c-0.023-0.088-0.135-0.132-0.296-0.102l-0.113,0.018l0.063-0.095 c0.034-0.052,0.03-0.099-0.012-0.146c-0.074-0.08-0.234-0.119-0.315-0.072c-0.054,0.028-0.068,0.091-0.044,0.184l0.013,0.051 l-0.051,0.011c-0.054,0.012-0.089,0.036-0.105,0.075c-0.051,0.121,0.064,0.353,0.113,0.432l0.054,0.087l-0.593-0.062L32.72,14.41 l-0.27,0.382l-0.639-0.617l0.052,0.748l-0.186,0.297l-0.117,0.649l-0.052-0.013C31.509,15.856,31.493,15.853,31.472,15.853z"/></g><g><path fill="#fdd835" d="M31.012,16.062l0.849,0.606l-0.327,0.4l0.255,0.133l0.497-0.437l-0.291-0.23l0.23-0.303 l0.206,0.218l-0.036,0.243l0.243,0.206l0.243,0.073l0.194-0.085l-0.182-0.327l0.449-0.255l-0.073-0.23l0.291-0.146l0.558,0.206 l-0.121,0.146l0.315,0.23l-0.267,0.364l0.437,0.133l0.424-0.291l-0.146-0.23l0.315-0.158l0.085,0.303l-0.097,0.133l0.364,0.424 l0.17-0.085l-0.243-0.558l0.849-0.473l0.085,0.121l-0.23,0.534l0.194,0.097l-0.218,0.182l-0.243-0.036l-0.024,0.158l0.182,0.218 l-0.182,0.23l-0.024,0.4l0.315,0.364l-0.218,0.121c0,0-0.303-0.643-2.267-0.631s-2.292,0.57-2.292,0.57l-0.073-0.097l0.279-0.412 l-0.012-0.364l-0.194-0.218l0.109-0.121l-0.352-0.182l-0.061-0.218l0.243-0.036l0.012-0.146l-0.315-0.388L31.012,16.062z"/><path fill="#263238" d="M35.815,18.532l-0.023-0.048c-0.002-0.006-0.32-0.603-2.17-0.603c-0.017,0-0.034,0-0.052,0 c-1.897,0.013-2.246,0.541-2.249,0.546l-0.039,0.063l-0.139-0.186l0.29-0.428l-0.011-0.329l-0.211-0.238l0.096-0.106l-0.314-0.162 l-0.082-0.294l0.26-0.039l0.007-0.086l-0.325-0.399l0.144-0.234l0.936,0.669l-0.322,0.395l0.169,0.089l0.426-0.374l-0.282-0.224 l0.296-0.39l0.263,0.279l-0.036,0.238l0.213,0.182l0.215,0.065l0.127-0.056l-0.179-0.324l0.457-0.258l-0.073-0.232l0.349-0.175 l0.02,0.008l0.624,0.23l-0.132,0.159l0.312,0.229l-0.254,0.347l0.346,0.106l0.365-0.25l-0.149-0.237l0.419-0.208l0.108,0.384 l-0.088,0.121l0.313,0.364l0.092-0.046l-0.241-0.556l0.04-0.022l0.888-0.494l0.127,0.181l-0.223,0.516l0.22,0.11l-0.294,0.245 l-0.215-0.032l-0.014,0.086l0.194,0.232l-0.198,0.249l-0.022,0.364l0.342,0.396L35.815,18.532z M33.623,17.782 c1.651,0,2.123,0.464,2.232,0.614l0.123-0.068l-0.289-0.333l0.027-0.437l0.167-0.21l-0.17-0.205l0.035-0.229l0.27,0.04 l0.142-0.118l-0.167-0.085l0.238-0.551l-0.043-0.062l-0.77,0.429l0.243,0.56l-0.247,0.124l-0.025-0.03l-0.389-0.453l0.106-0.146 L35.042,16.4l-0.212,0.106l0.142,0.224l-0.484,0.332l-0.527-0.161l0.279-0.38l-0.317-0.232l0.11-0.132l-0.471-0.174L33.328,16.1 l0.072,0.229l-0.441,0.25l0.184,0.332l-0.261,0.114l-0.018-0.005l-0.26-0.083l-0.264-0.224l0.037-0.246l-0.149-0.158l-0.165,0.218 l0.3,0.237l-0.568,0.499l-0.339-0.179l0.333-0.406l-0.762-0.544l-0.051,0.082l0.306,0.376l-0.018,0.205l-0.226,0.033l0.04,0.144 l0.39,0.201l-0.123,0.136l0.176,0.199l0.013,0.397l-0.009,0.014l-0.259,0.383l0.013,0.018c0.141-0.146,0.664-0.528,2.289-0.539 C33.587,17.782,33.605,17.782,33.623,17.782z"/></g><g><path fill="#fdd835" d="M36.189,18.511l-0.182,0.218l-0.073,0.243l-0.255-0.061l0.061,0.352l-0.315,0.206l-0.049,0.691 l-3.516-0.012l-0.146-0.764l-0.279-0.23l0.012-0.315l-0.194,0.036l-0.012-0.255l-0.255-0.255l0.23-0.133l0.255,0.388l0.303-0.133 l0.23,0.23l-0.133,0.255l0.521-0.109l-0.218-0.291l0.243-0.279l0.243,0.255l-0.121,0.267c0,0,0.255,0.158,0.764-0.061 c-0.255-0.133-0.255-0.558-0.049-0.558c0.073-0.255,0.582-0.388,0.667-0.012c0.327,0.206,0.267,0.546,0,0.558 c0.303,0.279,0.691,0.049,0.752,0c-0.121-0.206-0.121-0.364-0.121-0.364l0.279-0.194l0.218,0.303l-0.17,0.23 c0,0-0.024,0.291,0.424,0.255c0,0-0.121-0.267,0.073-0.412c0.194-0.146,0.315,0.036,0.315,0.036l0.376-0.376L36.189,18.511z"/><path fill="#263238" d="M35.423,20.21h-0.046l-3.558-0.012l-0.15-0.787l-0.284-0.234l0.011-0.277l-0.189,0.035 l-0.013-0.293l-0.288-0.286l0.328-0.19l0.257,0.393l0.296-0.13l0.281,0.28l-0.102,0.193l0.341-0.071l-0.195-0.26l0.305-0.352 l0.304,0.319l-0.114,0.251c0.08,0.028,0.278,0.068,0.594-0.048c-0.122-0.112-0.166-0.295-0.133-0.427 c0.022-0.091,0.078-0.15,0.152-0.165c0.06-0.142,0.236-0.249,0.415-0.249c0.004,0,0.008,0,0.012,0 c0.16,0.005,0.278,0.099,0.32,0.252c0.211,0.141,0.251,0.324,0.22,0.44c-0.021,0.08-0.075,0.141-0.148,0.173 c0.229,0.135,0.479,0.014,0.57-0.041c-0.104-0.194-0.104-0.34-0.104-0.347v-0.026l0.34-0.237l0.269,0.373l-0.182,0.247 c0.001,0.022,0.01,0.073,0.053,0.116c0.05,0.049,0.135,0.074,0.247,0.074c0.001,0,0.003,0,0.005,0 c-0.032-0.118-0.035-0.295,0.112-0.405c0.072-0.054,0.146-0.073,0.216-0.063c0.058,0.01,0.102,0.041,0.131,0.067l0.392-0.391 l0.161,0.388l-0.194,0.233l-0.083,0.277l-0.227-0.054l0.053,0.309l-0.321,0.211L35.423,20.21z M31.902,20.099l3.429,0.012 l0.046-0.67l0.309-0.201l-0.068-0.395l0.283,0.067l0.068-0.215l0.163-0.194l-0.081-0.194l-0.366,0.365l-0.034-0.051 c0,0-0.041-0.058-0.105-0.068c-0.043-0.006-0.089,0.008-0.139,0.045c-0.16,0.12-0.058,0.349-0.057,0.352l0.03,0.064l-0.071,0.006 c-0.178,0.013-0.314-0.019-0.397-0.102c-0.089-0.089-0.082-0.201-0.081-0.206l0.001-0.015l0.009-0.011l0.148-0.201l-0.168-0.234 l-0.215,0.149c0.006,0.05,0.028,0.169,0.112,0.313l0.022,0.037l-0.034,0.027c-0.09,0.075-0.499,0.29-0.816-0.002L33.8,18.696 l0.12-0.005c0.086-0.004,0.149-0.05,0.169-0.124c0.023-0.087-0.014-0.229-0.194-0.342l-0.018-0.011l-0.004-0.021 c-0.037-0.164-0.161-0.192-0.231-0.194c-0.003,0-0.006,0-0.009,0c-0.147,0-0.297,0.095-0.33,0.21l-0.01,0.036h-0.038 c-0.057,0-0.081,0.051-0.091,0.093c-0.03,0.122,0.028,0.3,0.163,0.371l0.093,0.049L33.323,18.8 c-0.527,0.226-0.798,0.064-0.81,0.058l-0.037-0.023l0.125-0.276l-0.181-0.19l-0.18,0.207l0.242,0.322l-0.702,0.146l0.165-0.314 l-0.18-0.181l-0.311,0.136L31.202,18.3l-0.133,0.077l0.222,0.222l0.01,0.217l0.199-0.037l-0.014,0.354l0.274,0.225L31.902,20.099z"/></g><g><ellipse cx="33.637" cy="20.148" fill="#d50000" rx="1.764" ry=".497"/><path fill="#263238" d="M33.637,20.695c-0.879,0-1.814-0.191-1.814-0.547s0.935-0.547,1.814-0.547s1.814,0.191,1.814,0.547 S34.516,20.695,33.637,20.695z M33.637,19.701c-1.01,0-1.714,0.235-1.714,0.447s0.704,0.447,1.714,0.447s1.714-0.235,1.714-0.447 S34.647,19.701,33.637,19.701z"/></g></svg>