<svg xmlns="http://www.w3.org/2000/svg"  viewBox="0 0 48 48" width="30px" height="30px"><path fill="#283593" d="M44,24c0,11.046-8.954,20-20,20S4,35.046,4,24c0-2.216,0.36-4.348,1.026-6.341 C6.311,13.812,14.489,11,14.489,11s0.04-4.693,1.507-5.334C18.447,4.594,21.154,4,24,4C35.046,4,44,12.954,44,24z"/><path fill="#fff" d="M16,8.594V5.675c-1.432,0.626-2.767,1.424-4,2.352V8.31l-0.206-0.128 c-3.105,2.399-5.483,5.683-6.753,9.483L12,13.32V18h4v-4.965L23.949,18H25v-2.609L21.171,13H25V9h-4.421L25,6.238V4.05 C24.667,4.034,24.338,4,24,4c-0.235,0-0.464,0.027-0.697,0.035L16,8.594z"/><path fill="#e53935" d="M13,12v6h2v-6h10v-2H15V6.157c-0.689,0.348-1.36,0.725-2,1.148V10H9.729 c-0.613,0.625-1.174,1.299-1.701,2H13z"/><path fill="#e53935" d="M11.641,13H9.898l-3.972,2.479c-0.229,0.484-0.437,0.977-0.627,1.481L11.641,13z"/><path fill="#e53935" d="M24.213,4.011L16.223,9h1.746L25,4.609V4.05C24.738,4.037,24.478,4.014,24.213,4.011z"/><polygon fill="#e53935" points="25,15.934 20.301,13 18.559,13 25,17.02"/><path fill="#e3f2fd" d="M34.558,25.839c0,0-1.087,0.016-1.509,0.617c-0.422,0.6-0.422,0.6-0.422,0.6l0.211,0.438 c0,0,1.201-0.487,1.801-0.503C35.24,26.975,34.558,25.839,34.558,25.839z"/><path fill="#263238" d="M32.838,27.544c-0.019,0-0.037-0.011-0.045-0.028l-0.211-0.438 c-0.008-0.017-0.006-0.035,0.004-0.05l0.422-0.601c0.432-0.615,1.504-0.638,1.55-0.638h0c0.018,0,0.034,0.009,0.043,0.024 c0.048,0.079,0.463,0.788,0.296,1.092c-0.047,0.087-0.134,0.133-0.256,0.136c-0.584,0.016-1.772,0.494-1.784,0.499 C32.851,27.543,32.844,27.544,32.838,27.544z M32.685,27.061l0.178,0.37c0.225-0.089,1.23-0.476,1.775-0.489 c0.086-0.003,0.142-0.03,0.172-0.084c0.113-0.207-0.15-0.746-0.279-0.968c-0.173,0.008-1.076,0.075-1.44,0.594L32.685,27.061z"/><path fill="#e3f2fd" d="M34.769,24.151c0,0-0.438,1.249-0.438,1.477c0,0.227,0.114,1.412,0.016,2.158 c-0.097,0.746-0.032,2.045,0.081,2.483c0.114,0.438,0.276,1.266,1.087,1.412s1.185-0.763,1.185-0.763l0.146-2.694l-0.535-2.548 l-0.049-1.558L34.769,24.151z"/><path fill="#263238" d="M35.688,31.746c-0.058,0-0.118-0.005-0.181-0.017c-0.797-0.144-0.991-0.911-1.107-1.369 l-0.02-0.079c-0.119-0.459-0.18-1.754-0.083-2.502c0.074-0.566,0.025-1.399-0.001-1.848c-0.009-0.145-0.015-0.249-0.015-0.304 c0-0.233,0.423-1.441,0.44-1.493c0.007-0.02,0.025-0.033,0.046-0.033l1.493-0.032c0,0,0,0,0.001,0c0.027,0,0.049,0.021,0.05,0.048 l0.049,1.558l0.535,2.538c0.001,0.005,0.001,0.009,0.001,0.014l-0.146,2.694c0,0.006-0.001,0.011-0.003,0.016 C36.743,30.945,36.405,31.746,35.688,31.746z M34.805,24.2c-0.128,0.368-0.424,1.254-0.424,1.428c0,0.052,0.007,0.16,0.015,0.298 c0.027,0.451,0.076,1.291,0.001,1.867c-0.095,0.724-0.034,2.022,0.08,2.463l0.021,0.079c0.11,0.436,0.294,1.164,1.027,1.297 c0.733,0.125,1.087-0.635,1.126-0.726l0.145-2.679l-0.534-2.54l-0.048-1.518L34.805,24.2z"/><polygon fill="#fafafa" points="37.382,32.849 37.365,32.475 35.921,31.518 34.363,31.502 33.893,31.421 33.584,31.031 31.589,31.047 31.232,32.005 31.816,33.206 34.023,33.206 34.023,32.865"/><path fill="#263238" d="M34.022,33.256h-2.207c-0.019,0-0.037-0.011-0.045-0.028l-0.584-1.201 c-0.006-0.012-0.007-0.026-0.002-0.039l0.357-0.957c0.007-0.02,0.026-0.032,0.046-0.032l1.996-0.017h0 c0.015,0,0.03,0.007,0.039,0.019l0.296,0.375l0.452,0.078l1.55,0.016c0.01,0,0.019,0.003,0.027,0.008l1.444,0.957 c0.013,0.009,0.021,0.023,0.022,0.04l0.016,0.373c0.001,0.014-0.004,0.026-0.014,0.036s-0.022,0.016-0.036,0.016l-3.309,0.017 v0.291C34.072,33.233,34.05,33.256,34.022,33.256z M31.847,33.156h2.125v-0.291c0-0.027,0.022-0.05,0.049-0.05l3.307-0.017 l-0.013-0.296l-1.41-0.935l-1.543-0.017l-0.479-0.082c-0.012-0.002-0.023-0.008-0.031-0.018l-0.293-0.371l-1.938,0.017 l-0.337,0.904L31.847,33.156z"/><polygon fill="#6d4c41" points="28.668,28.11 27.24,28.224 24.368,31.68 23.93,32.313 23.995,32.573 23.784,32.914 24.108,33.108 25.001,32.638 24.708,33.076 25.114,33.449 25.536,33.319 25.925,32.832 26.461,33.222 27.013,33.189 27.224,33.011 27.581,33.482 28.051,33.206 28.165,33.4 28.635,33.319 28.911,33.433 29.284,32.978 29.641,33.141 30.631,31.648"/><path fill="#263238" d="M27.581,33.531c-0.015,0-0.03-0.007-0.04-0.02l-0.325-0.429l-0.171,0.145 c-0.008,0.007-0.019,0.011-0.029,0.012l-0.552,0.032c-0.013-0.002-0.023-0.002-0.032-0.01L25.935,32.9l-0.359,0.45 c-0.006,0.008-0.015,0.014-0.024,0.017l-0.422,0.13c-0.017,0.003-0.035,0.002-0.048-0.011l-0.406-0.373 c-0.018-0.017-0.021-0.044-0.008-0.064l0.183-0.275l-0.719,0.379c-0.015,0.009-0.034,0.009-0.049-0.001l-0.324-0.195 c-0.011-0.007-0.02-0.019-0.023-0.031c-0.003-0.013,0-0.026,0.006-0.038l0.2-0.322l-0.06-0.239 c-0.003-0.014-0.001-0.028,0.007-0.04l0.438-0.633l2.875-3.461c0.009-0.01,0.021-0.017,0.035-0.018l1.428-0.113 c0.021,0.004,0.038,0.008,0.048,0.025l1.963,3.537c0.009,0.017,0.008,0.036-0.002,0.052l-0.99,1.493 c-0.013,0.021-0.04,0.029-0.062,0.019l-0.323-0.146l-0.349,0.425c-0.014,0.018-0.036,0.023-0.058,0.014l-0.263-0.107l-0.457,0.078 c-0.017,0.008-0.041-0.005-0.051-0.023l-0.088-0.151l-0.427,0.25C27.598,33.529,27.589,33.531,27.581,33.531z M27.224,32.961 c0.002,0,0.003,0,0.005,0c0.014,0.002,0.026,0.009,0.035,0.02l0.33,0.436l0.432-0.253c0.012-0.008,0.025-0.01,0.038-0.006 c0.013,0.004,0.024,0.012,0.03,0.023l0.096,0.165l0.437-0.075c0.008-0.004,0.018-0.001,0.027,0.003l0.242,0.099l0.35-0.425 c0.014-0.02,0.039-0.023,0.059-0.015l0.319,0.145l0.949-1.432l-1.933-3.482l-1.375,0.108l-2.858,3.441l-0.422,0.61l0.059,0.238 c0.003,0.013,0.001,0.026-0.006,0.038l-0.184,0.297l0.256,0.154l0.868-0.457c0.021-0.01,0.046-0.006,0.061,0.011 c0.015,0.017,0.017,0.042,0.004,0.061l-0.268,0.403l0.353,0.324l0.38-0.116l0.379-0.476c0.016-0.021,0.046-0.025,0.068-0.009 l0.521,0.379l0.517-0.03l0.198-0.168C27.2,32.965,27.212,32.961,27.224,32.961z"/><polygon fill="#43a047" points="29.658,31.275 29.301,31.453 29.366,31.615 29.317,31.94 29.528,31.875 29.641,32.264 29.82,32.281 29.755,32.816 29.966,32.768 29.966,33.108 30.226,33.043 30.242,33.498 30.566,33.287 30.858,33.757 31.037,33.449 31.28,33.692 31.459,33.417 31.735,33.579 31.848,33.352 32.351,33.611 32.4,33.319 32.757,33.368 32.546,33.06 32.741,32.978 32.319,32.719 32.481,32.605 32.092,32.264 32.351,32.135 31.929,31.859 32.157,31.68 31.54,31.388"/><path fill="#263238" d="M30.858,33.808c-0.017,0-0.033-0.009-0.042-0.023l-0.265-0.428l-0.282,0.184 c-0.016,0.009-0.034,0.01-0.05,0.002s-0.026-0.024-0.027-0.042l-0.014-0.394l-0.2,0.051c-0.016,0.004-0.031,0-0.043-0.01 c-0.012-0.009-0.019-0.023-0.019-0.039V32.83l-0.15,0.035c-0.015,0.004-0.032,0-0.044-0.012c-0.012-0.011-0.019-0.027-0.017-0.043 l0.059-0.485l-0.127-0.011c-0.021-0.002-0.038-0.016-0.043-0.036l-0.1-0.341l-0.163,0.051c-0.018,0.002-0.035,0.001-0.047-0.01 c-0.013-0.012-0.019-0.028-0.017-0.046l0.047-0.312l-0.06-0.149c-0.01-0.024,0.001-0.052,0.024-0.063l0.357-0.179 c0.008-0.003,0.017-0.006,0.025-0.005l1.882,0.114c0.006,0,0.013,0.002,0.019,0.005l0.617,0.292 c0.016,0.007,0.026,0.022,0.028,0.039c0.002,0.018-0.005,0.034-0.019,0.045l-0.172,0.135l0.363,0.238 c0.015,0.01,0.023,0.027,0.022,0.045s-0.011,0.034-0.027,0.042l-0.193,0.097l0.333,0.291c0.012,0.011,0.018,0.025,0.017,0.041 c0,0.016-0.009,0.029-0.021,0.038l-0.1,0.069l0.357,0.22c0.016,0.01,0.025,0.028,0.023,0.047s-0.013,0.035-0.031,0.042 l-0.138,0.058l0.176,0.258c0.011,0.017,0.011,0.038,0.001,0.055c-0.011,0.017-0.03,0.023-0.049,0.023l-0.309-0.043L32.4,33.619 c-0.002,0.017-0.013,0.029-0.027,0.037c-0.015,0.006-0.031,0.007-0.045-0.001l-0.458-0.236l-0.09,0.183 c-0.006,0.013-0.018,0.021-0.031,0.025c-0.012,0.005-0.027,0.003-0.04-0.005l-0.234-0.138l-0.153,0.235 c-0.008,0.013-0.022,0.021-0.037,0.022c-0.014,0.002-0.03-0.004-0.041-0.015l-0.197-0.197l-0.146,0.253 C30.893,33.798,30.877,33.808,30.858,33.808C30.859,33.808,30.859,33.808,30.858,33.808z M30.566,33.237 c0.003,0,0.007,0,0.011,0.001c0.013,0.003,0.025,0.011,0.032,0.022l0.248,0.399l0.137-0.236c0.008-0.013,0.021-0.022,0.037-0.024 c0.014,0,0.031,0.003,0.042,0.015l0.2,0.199l0.145-0.224c0.015-0.022,0.045-0.029,0.067-0.016l0.229,0.135l0.089-0.18 c0.006-0.012,0.017-0.021,0.029-0.025c0.013-0.003,0.026-0.003,0.039,0.004l0.442,0.228l0.038-0.224 c0.005-0.026,0.029-0.042,0.056-0.042l0.245,0.034l-0.147-0.216c-0.008-0.013-0.011-0.028-0.006-0.043 c0.004-0.014,0.015-0.025,0.029-0.031l0.104-0.044l-0.339-0.208c-0.014-0.009-0.023-0.024-0.023-0.042 c0-0.017,0.007-0.032,0.021-0.042l0.11-0.077l-0.341-0.298c-0.013-0.012-0.019-0.028-0.017-0.045 c0.002-0.016,0.013-0.03,0.027-0.038l0.182-0.091L31.902,31.9c-0.014-0.009-0.022-0.023-0.022-0.04 c-0.001-0.016,0.006-0.031,0.019-0.041l0.164-0.128l-0.535-0.253l-1.859-0.113l-0.304,0.152l0.048,0.119 c0.003,0.008,0.004,0.018,0.003,0.026l-0.037,0.246l0.135-0.042c0.013-0.002,0.027-0.002,0.038,0.004 c0.012,0.006,0.021,0.017,0.024,0.03l0.104,0.356l0.144,0.013c0.014,0.001,0.026,0.008,0.035,0.019 c0.008,0.011,0.012,0.023,0.011,0.037l-0.057,0.466l0.142-0.033c0.015-0.004,0.03,0,0.042,0.01 c0.012,0.01,0.019,0.023,0.019,0.039v0.276l0.198-0.05c0.015-0.004,0.03-0.001,0.042,0.009c0.012,0.009,0.019,0.023,0.02,0.038 l0.013,0.367l0.25-0.163C30.547,33.24,30.557,33.237,30.566,33.237z"/><path fill="#dd2c00" d="M25.974,36.629l0.032,0.844c0,0,1.071,0.114,1.817,0.649c0.146-0.682,0.227-1.249,0.227-1.249 S26.704,36.354,25.974,36.629z"/><path fill="#263238" d="M27.824,38.172c-0.01,0-0.021-0.003-0.029-0.009c-0.727-0.521-1.783-0.639-1.793-0.64 c-0.024-0.003-0.043-0.023-0.044-0.048l-0.033-0.844c-0.001-0.021,0.012-0.041,0.032-0.049c0.741-0.277,2.057,0.222,2.113,0.243 c0.021,0.009,0.035,0.031,0.031,0.054c0,0.006-0.083,0.577-0.228,1.253c-0.003,0.017-0.015,0.03-0.031,0.036 C27.836,38.171,27.83,38.172,27.824,38.172z M26.055,37.429c0.204,0.027,1.07,0.162,1.736,0.609 c0.113-0.538,0.185-0.997,0.205-1.132c-0.218-0.078-1.327-0.458-1.971-0.241L26.055,37.429z"/><path fill="#dd2c00" d="M35.888,36.435l-0.032,0.844c0,0-1.071,0.114-1.817,0.649c-0.146-0.682-0.227-1.249-0.227-1.249 S35.158,36.159,35.888,36.435z"/><path fill="#263238" d="M34.038,37.978c-0.006,0-0.012-0.001-0.018-0.003c-0.016-0.006-0.027-0.02-0.031-0.036 c-0.145-0.676-0.227-1.248-0.228-1.254c-0.003-0.022,0.01-0.045,0.031-0.054c0.056-0.021,1.376-0.522,2.113-0.243 c0.02,0.008,0.033,0.027,0.032,0.049l-0.033,0.844c-0.001,0.024-0.02,0.045-0.044,0.048c-0.011,0.001-1.067,0.119-1.793,0.641 C34.059,37.975,34.048,37.978,34.038,37.978z M33.866,36.711c0.021,0.135,0.092,0.594,0.205,1.133 c0.666-0.447,1.532-0.583,1.736-0.61l0.03-0.764C35.192,36.255,34.084,36.633,33.866,36.711z"/><polygon fill="#263238" points="27.094,26.747 28.652,25.92 28.684,27.072 27.532,27.818"/><path fill="#263238" d="M27.532,27.868c-0.005,0-0.01-0.001-0.015-0.002c-0.014-0.005-0.025-0.016-0.031-0.029 l-0.438-1.071c-0.01-0.023,0-0.051,0.023-0.062l1.558-0.827c0.016-0.007,0.035-0.008,0.049,0.001 c0.015,0.009,0.024,0.024,0.024,0.042l0.033,1.152c0,0.017-0.008,0.033-0.022,0.043l-1.152,0.746 C27.551,27.865,27.542,27.868,27.532,27.868z M27.157,26.77l0.398,0.974l1.078-0.697l-0.03-1.044L27.157,26.77z"/><rect width="3.943" height=".73" x="28.635" y="25.125" fill="#7b1fa2"/><path fill="#263238" d="M32.579,25.904h-3.943c-0.028,0-0.05-0.022-0.05-0.05v-0.729c0-0.027,0.022-0.05,0.05-0.05h3.943 c0.028,0,0.05,0.022,0.05,0.05v0.729C32.628,25.882,32.606,25.904,32.579,25.904z M28.685,25.805h3.844v-0.63h-3.844V25.805z"/><path fill="#fafafa" d="M28.293,25.698c0,0,0.004,0.822,0.004,3.029c0,2.108,2.243,3.256,2.445,3.356v0.019 c0,0,0.017-0.009,0.019-0.01c0.002,0.001,0.019,0.01,0.019,0.01v-0.019c0.202-0.099,2.445-1.247,2.445-3.356 c0-2.207,0.051-3.002,0.051-3.002L28.293,25.698z"/><path fill="#3949ab" d="M31.95,30.025l-0.596-0.728l-0.603,0.736l-0.603-0.736l-0.603,0.736l-0.603-0.736l-0.418,0.511 c0.131,0.329,0.298,0.634,0.503,0.893l0.518-0.633l0.551,0.672l-0.471,0.575c0.289,0.252,0.558,0.442,0.767,0.569l0.358-0.438 l0.364,0.445c0.208-0.126,0.478-0.316,0.769-0.567l-0.478-0.584l0.544-0.664l0.527,0.644c0.206-0.257,0.375-0.557,0.509-0.885 l-0.44-0.538L31.95,30.025z M30.752,31.413l-0.551-0.673l0.551-0.672l0.551,0.672L30.752,31.413z"/><polygon fill="#3949ab" points="28.327,27.045 28.936,27.789 28.327,28.533 28.944,29.287 29.56,28.533 28.952,27.789 29.56,27.045 28.97,26.324 29.477,25.705 28.406,25.699 28.918,26.324"/><polygon fill="#3949ab" points="31.929,27.045 32.538,27.789 31.929,28.533 32.546,29.287 33.163,28.533 32.554,27.789 33.163,27.045 32.572,26.324 33.063,25.724 32.024,25.718 32.52,26.324"/><polygon fill="#007d2a" points="30.761,31.34 32.654,25.722 28.772,25.701 28.717,25.741"/><polygon fill="#ffd600" points="29.765,26.896 30.086,28.875 30.342,26.914"/><path fill="#ffd600" d="M30.667,26.301v0.376c0,0,0.376-0.046,0.312,0.229c-0.064,0.275-0.282,0-0.282,0l-0.091,0.227 l0.231,0.137l-0.326,0.157l-0.279-0.229L30.086,27.5l0.266,0.247l0.438-0.2l0.012,0.157l-0.422,0.391l-0.545-0.162l0.05,0.418 l0.568,0.11l0.376-0.476v0.293l0.22,0.312l-0.238,0.302l0.147,0.651L30.8,29.8l-0.284-0.018l0.082,0.192l-0.11,0.037l0.211,0.137 l-0.055,0.192l0.211-0.027l0.192-0.321l0.092-0.348l0.165,0.018l-0.229-0.678l0.101-0.174c0,0,0.357,0.119,0.431-0.156 c0.073-0.275-0.211-0.724-0.101-0.898c0.11-0.174,0.265-0.11,0.265-0.11l0.241-0.614c0,0-0.433,0.193-0.598,0.532 s0.165,0.861,0.018,0.999c-0.147,0.137-0.156,0.092-0.211,0.018c-0.055-0.073-0.119-1.228-0.119-1.228l0.156,0.147l-0.034-0.367 l0.2,0.091l-0.086-0.309l0.218-0.068l-0.44-0.481l-0.192-0.027l-0.037,0.11L30.667,26.301z"/><path fill="#ffd600" d="M31.091,28.563c0,0-0.676,0.083-0.648,0.083c0.027,0,0.165,0.44,0.165,0.44l-0.156-0.055 l-0.238-0.165l0.128,0.284l-0.229,0.009l0.211,0.147l-0.137,0.119l0.797-0.092l-0.046-0.44l0.137-0.174L31.091,28.563z"/><polygon fill="#ffd600" points="29.994,26.089 29.618,26.217 29.518,25.86 29.45,26.209 29.086,26.076 29.353,26.349 29.147,26.61 29.432,26.488 29.563,26.841 29.637,26.492 29.957,26.685 29.765,26.346"/><polygon fill="#ffd600" points="31.434,26 31.725,26.27 31.502,26.546 31.827,26.456 31.9,26.822 31.992,26.41 32.258,26.532 32.092,26.272 32.395,25.961 32.004,26.106 31.9,25.787 31.803,26.055"/><path fill="#78909c" d="M26.878,24.925c0,0,0.247-0.247,0.284-0.376s0.082-0.449,0.082-0.449s0.174-0.092,0.183-0.192 c0.009-0.101-0.046-0.348-0.312-0.33c-0.266,0.018-0.522,0.009-0.522,0.009s-0.119-0.275-0.431-0.128 c-0.312,0.147-0.394,0.174-0.706,0.247c-0.312,0.073-0.202,0.889-0.202,0.889s-0.238,0.788-0.174,1.347 c-0.257,0.312-0.22,0.999-0.22,0.999s-0.476,1.045-0.504,1.393c-0.504,0.22-0.898,0.761-0.971,1.732 c-0.073,0.971,0.806,1.979,1.924,2.3c0.816,0.476,2.373,0.513,2.776,0.385c0.403-0.128,0.046-0.229-0.385-0.211 s-1.292-0.852-1.915-0.797c0.266-0.357,0-0.797,0-0.797s0.385-0.33,0.284-0.907c0.541-0.018,0.935-0.843,0.935-0.843 s-0.009,0.348,0.156,0.495c-0.174,0.348,0.101,0.513,0.101,0.513s-0.128,0.339,0.027,0.586c-0.183,0.33-0.027,0.568-0.027,0.568 s0.724-0.834,0.843-2.218c0,0,0.174-0.834-0.266-1.393c0.156-0.687-0.476-1.393-0.476-1.393L26.878,24.925z"/><path fill="#263238" d="M27.442,32.863c-0.657,0-1.587-0.122-2.156-0.454c-1.162-0.332-2.023-1.365-1.949-2.347 c0.084-1.118,0.57-1.576,0.974-1.763c0.047-0.359,0.448-1.253,0.5-1.368c-0.004-0.097-0.018-0.695,0.219-1.004 c-0.054-0.532,0.146-1.238,0.175-1.336c-0.016-0.127-0.093-0.854,0.241-0.934c0.312-0.073,0.39-0.101,0.695-0.244 c0.111-0.054,0.215-0.063,0.307-0.027c0.095,0.036,0.151,0.11,0.176,0.152c0.075,0.001,0.28,0.005,0.489-0.011 c0.104-0.012,0.198,0.023,0.263,0.091c0.081,0.083,0.109,0.211,0.102,0.294c-0.009,0.103-0.133,0.187-0.187,0.219 c-0.012,0.078-0.049,0.321-0.081,0.432c-0.033,0.117-0.209,0.308-0.275,0.375l0.473,1.391c0.072,0.083,0.621,0.741,0.486,1.407 c0.431,0.569,0.268,1.38,0.261,1.414c-0.118,1.379-0.847,2.232-0.854,2.241c-0.01,0.012-0.027,0.015-0.041,0.017 c-0.016-0.001-0.03-0.01-0.039-0.022c-0.007-0.011-0.162-0.255,0.013-0.595c-0.118-0.215-0.058-0.475-0.029-0.569 c-0.072-0.061-0.229-0.233-0.102-0.521c-0.082-0.091-0.118-0.225-0.133-0.332c-0.14,0.235-0.445,0.665-0.839,0.716 c0.061,0.477-0.19,0.779-0.28,0.87c0.055,0.107,0.193,0.434,0.03,0.736c0.34,0.015,0.729,0.251,1.076,0.462 c0.286,0.173,0.556,0.337,0.733,0.337c0.004,0,0.008,0,0.012,0c0.058-0.003,0.583-0.021,0.612,0.139 c0.015,0.087-0.104,0.136-0.21,0.17C27.975,32.839,27.736,32.863,27.442,32.863z M26.335,23.466c-0.046,0-0.096,0.013-0.15,0.038 c-0.312,0.146-0.398,0.177-0.716,0.252c-0.218,0.051-0.19,0.633-0.164,0.833c0.001,0.007,0,0.015-0.001,0.021 c-0.002,0.008-0.234,0.784-0.172,1.326c0.001,0.014-0.002,0.027-0.011,0.038c-0.241,0.292-0.209,0.957-0.209,0.964 c0,0.009-0.001,0.017-0.004,0.023c-0.004,0.011-0.473,1.041-0.5,1.376c-0.001,0.019-0.013,0.034-0.03,0.042 c-0.384,0.167-0.859,0.597-0.941,1.69c-0.069,0.92,0.778,1.929,1.888,2.248c0.811,0.472,2.344,0.512,2.748,0.385 c0.084-0.026,0.119-0.047,0.134-0.059c-0.049-0.029-0.232-0.065-0.501-0.055c-0.005,0-0.01,0.001-0.016,0.001 c-0.205,0-0.475-0.164-0.785-0.353c-0.347-0.21-0.738-0.447-1.058-0.447c-0.018,0-0.036,0-0.054,0.002 c-0.018-0.004-0.038-0.008-0.048-0.025s-0.008-0.038,0.003-0.055c0.243-0.326,0-0.737-0.003-0.742 c-0.012-0.021-0.008-0.048,0.01-0.063c0.015-0.013,0.362-0.319,0.268-0.859c-0.002-0.015,0.001-0.029,0.011-0.04 c0.009-0.012,0.022-0.019,0.037-0.019c0.504-0.018,0.888-0.808,0.892-0.815c0.01-0.021,0.036-0.031,0.057-0.027 c0.023,0.006,0.039,0.026,0.038,0.05c0,0.004-0.006,0.327,0.139,0.457c0.017,0.015,0.021,0.039,0.012,0.06 c-0.151,0.301,0.072,0.441,0.082,0.447c0.021,0.013,0.029,0.038,0.021,0.061c-0.001,0.003-0.117,0.32,0.023,0.543 c0.01,0.016,0.01,0.035,0.001,0.051c-0.112,0.201-0.088,0.362-0.06,0.448c0.164-0.217,0.684-0.986,0.782-2.126 c0.002-0.015,0.165-0.824-0.255-1.357c-0.01-0.012-0.013-0.027-0.01-0.042c0.148-0.655-0.459-1.343-0.465-1.35 c-0.004-0.005-0.008-0.011-0.01-0.018l-0.486-1.429c-0.006-0.018-0.001-0.037,0.012-0.051c0.066-0.066,0.244-0.26,0.271-0.354 c0.035-0.123,0.081-0.439,0.081-0.442c0.002-0.016,0.012-0.03,0.026-0.037c0.062-0.033,0.152-0.103,0.157-0.153 s-0.011-0.149-0.074-0.214c-0.044-0.046-0.105-0.06-0.185-0.062c-0.265,0.02-0.524,0.01-0.528,0.01 c-0.019-0.001-0.036-0.013-0.044-0.03c0,0-0.042-0.093-0.136-0.128C26.388,23.471,26.362,23.466,26.335,23.466z"/><path fill="#263238" d="M25.797,24.33l-0.247,0.202c0,0,0.128,0.302,0.504,0.321c0.348,0.367,0.825,0.073,0.825,0.073 l0.266-0.339c0,0-0.412-0.092-0.55-0.275c-0.137-0.183-0.623,0.348-0.623,0.348S25.834,24.596,25.797,24.33z"/><path fill="#263238" d="M26.476,25.086c-0.144,0-0.304-0.044-0.445-0.185c-0.387-0.029-0.522-0.337-0.527-0.351 c-0.009-0.021-0.003-0.044,0.014-0.059l0.248-0.201c0.014-0.011,0.033-0.013,0.05-0.008c0.017,0.007,0.028,0.022,0.031,0.04 c0.022,0.16,0.082,0.237,0.118,0.271c0.095-0.1,0.371-0.371,0.549-0.371c0.003,0,0.006,0,0.008,0.001 c0.046,0.002,0.085,0.022,0.112,0.058c0.125,0.167,0.517,0.255,0.521,0.256c0.017,0.004,0.03,0.016,0.036,0.032 c0.006,0.016,0.003,0.034-0.007,0.048l-0.266,0.34c-0.004,0.004-0.008,0.008-0.013,0.012 C26.901,24.971,26.709,25.086,26.476,25.086z M25.613,24.544c0.043,0.074,0.173,0.245,0.443,0.259 c0.013,0.001,0.025,0.006,0.034,0.016c0.296,0.311,0.694,0.104,0.755,0.069l0.213-0.272c-0.13-0.037-0.393-0.126-0.503-0.273 c-0.01-0.014-0.023-0.018-0.041-0.019c-0.121,0-0.373,0.226-0.505,0.371c-0.015,0.015-0.039,0.021-0.059,0.011 c-0.006-0.003-0.131-0.063-0.186-0.283L25.613,24.544z"/><path fill="#263238" d="M25.733,24.953c0,0,0.037,0.77,0.742,0.632C26.081,25.393,25.733,24.953,25.733,24.953z"/><path fill="#263238" d="M26.314,25.651c-0.14,0-0.261-0.039-0.36-0.117c-0.25-0.195-0.27-0.563-0.271-0.579 c-0.001-0.021,0.012-0.041,0.032-0.049s0.043,0,0.057,0.016c0.003,0.005,0.346,0.434,0.725,0.618 c0.019,0.01,0.03,0.03,0.028,0.052c-0.003,0.021-0.019,0.038-0.04,0.042C26.425,25.646,26.368,25.651,26.314,25.651z M25.813,25.122c0.03,0.108,0.089,0.245,0.202,0.334c0.081,0.063,0.181,0.095,0.298,0.096 C26.107,25.421,25.926,25.243,25.813,25.122z"/><path fill="#263238" d="M26.796,26.043l0.907,0.971l-0.275-0.577C27.428,26.437,27.346,26.043,26.796,26.043z"/><path fill="#263238" d="M27.703,27.064c-0.014,0-0.027-0.005-0.037-0.016l-0.907-0.972 c-0.014-0.015-0.017-0.036-0.009-0.054c0.008-0.019,0.026-0.03,0.046-0.03c0.583,0,0.68,0.43,0.681,0.435l0.271,0.565 c0.011,0.022,0.003,0.049-0.017,0.062C27.723,27.062,27.713,27.064,27.703,27.064z M26.918,26.101l0.601,0.644l-0.136-0.285 C27.377,26.436,27.309,26.15,26.918,26.101z"/><path fill="#263238" d="M25.302,26.172c0,0,1.246,0.037,1.796,0.944c0.449,0.073,0.806,0.687,0.806,0.687 s-0.312-0.321-0.641-0.412c0.376,0.412,0.504,0.641,0.559,1.008s-0.33,0.687-0.541,0.596s-0.009-0.266-0.229-0.467 c-0.22-0.202-0.577-0.037-0.577-0.037s0.339,0.046,0.431,0.284s0.156,0.348,0.018,0.385c-0.137,0.037-0.834,0.202-1.246-0.101 s0.101-0.312,0.266-0.577s0.376-0.348,0.137-0.431c-0.238-0.082-0.476-0.431-0.422-0.641c0.055-0.211-0.257-0.302-0.385-0.577 C25.147,26.557,25.137,26.217,25.302,26.172z"/><path fill="#263238" d="M26.34,29.287c-0.236,0-0.493-0.043-0.692-0.189c-0.125-0.092-0.18-0.166-0.177-0.24 c0.004-0.092,0.098-0.149,0.197-0.21c0.085-0.051,0.181-0.109,0.233-0.193c0.053-0.086,0.111-0.152,0.157-0.206 c0.035-0.04,0.082-0.095,0.08-0.112l0,0c0,0-0.007-0.016-0.074-0.039c-0.267-0.092-0.513-0.472-0.453-0.7 c0.022-0.087-0.037-0.148-0.145-0.249c-0.083-0.078-0.177-0.167-0.237-0.295c-0.104-0.222-0.131-0.475-0.066-0.614 c0.027-0.06,0.07-0.1,0.125-0.114c0.005-0.002,0.014,0.001,0.015-0.002c0.052,0.001,1.263,0.047,1.826,0.948 c0.456,0.092,0.804,0.682,0.819,0.707c0.013,0.022,0.007,0.05-0.013,0.065c-0.019,0.016-0.048,0.013-0.066-0.005 c-0.002-0.003-0.193-0.196-0.428-0.32c0.275,0.325,0.381,0.55,0.43,0.873c0.038,0.25-0.109,0.462-0.247,0.567 c-0.125,0.095-0.261,0.129-0.363,0.082c-0.134-0.059-0.138-0.152-0.141-0.235c-0.003-0.075-0.006-0.154-0.102-0.241 c-0.106-0.098-0.253-0.096-0.364-0.075c0.11,0.043,0.242,0.124,0.298,0.269l0.031,0.079c0.057,0.143,0.091,0.229,0.057,0.298 c-0.018,0.036-0.052,0.06-0.103,0.073C26.834,29.234,26.6,29.287,26.34,29.287z M25.309,26.223 c-0.023,0.008-0.041,0.027-0.055,0.057c-0.052,0.112-0.023,0.34,0.066,0.53c0.052,0.111,0.138,0.192,0.214,0.265 c0.109,0.103,0.212,0.199,0.173,0.348c-0.047,0.18,0.171,0.506,0.389,0.581c0.056,0.019,0.122,0.049,0.138,0.107 c0.018,0.065-0.032,0.123-0.101,0.202c-0.044,0.052-0.099,0.115-0.148,0.194c-0.064,0.104-0.171,0.169-0.266,0.227 c-0.073,0.044-0.147,0.09-0.149,0.129c-0.001,0.02,0.016,0.066,0.136,0.155c0.392,0.286,1.071,0.129,1.204,0.093 c0.015-0.004,0.034-0.011,0.039-0.021c0.014-0.028-0.02-0.115-0.06-0.216l-0.032-0.081c-0.08-0.208-0.387-0.252-0.391-0.252 c-0.022-0.003-0.039-0.021-0.042-0.042c-0.003-0.022,0.008-0.044,0.028-0.053c0.016-0.008,0.391-0.178,0.632,0.044 c0.126,0.116,0.13,0.229,0.134,0.312c0.003,0.076,0.005,0.114,0.081,0.147c0.067,0.03,0.168,0.003,0.262-0.07 c0.116-0.089,0.24-0.266,0.209-0.472c-0.054-0.355-0.176-0.576-0.547-0.981c-0.015-0.017-0.017-0.041-0.005-0.061 c0.011-0.019,0.035-0.031,0.056-0.021c0.123,0.034,0.242,0.098,0.345,0.165c-0.139-0.153-0.326-0.31-0.531-0.343 c-0.014-0.003-0.027-0.012-0.035-0.023C26.549,26.305,25.417,26.228,25.309,26.223z"/><g><path fill="#263238" d="M23.543,30.643l0.247-0.513c0,0,0.137-0.925,0.605-1.026c0.467-0.101,1.035,0.476,1.035,0.476 s-0.605-0.385-0.935-0.202c-0.33,0.183-0.275,0.706-0.275,0.706s0.293,0.082,0.266,0.651c0.339,0.073,0.128,0.321,0.284,0.596 c0.156,0.275,0.11,0.22,0.339,0.312c0.229,0.092,0.202,0.724,0.202,0.724s-0.962-0.385-1.246-0.715 C23.781,31.321,23.543,30.643,23.543,30.643z"/><path fill="#263238" d="M25.312,32.416c-0.006,0-0.013-0.001-0.019-0.003c-0.04-0.017-0.977-0.394-1.266-0.729 c-0.287-0.333-0.521-0.995-0.532-1.023c-0.004-0.013-0.003-0.026,0.002-0.038l0.244-0.507c0.016-0.098,0.165-0.957,0.642-1.061 c0.484-0.106,1.058,0.466,1.082,0.49c0.018,0.019,0.019,0.047,0.003,0.066c-0.016,0.021-0.045,0.025-0.066,0.011 c-0.005-0.004-0.585-0.366-0.883-0.199c-0.255,0.142-0.256,0.52-0.251,0.627c0.082,0.041,0.28,0.188,0.269,0.647 c0.203,0.059,0.208,0.195,0.213,0.327c0.003,0.09,0.007,0.184,0.063,0.282l0.033,0.059c0.089,0.158,0.089,0.158,0.194,0.198 c0.024,0.009,0.052,0.019,0.086,0.032c0.254,0.102,0.236,0.704,0.233,0.772c0,0.017-0.009,0.031-0.022,0.04 C25.331,32.413,25.321,32.416,25.312,32.416z M23.597,30.646c0.041,0.112,0.258,0.684,0.506,0.973 c0.23,0.267,0.938,0.579,1.16,0.673c0-0.231-0.043-0.552-0.172-0.603c-0.034-0.014-0.061-0.024-0.084-0.032 c-0.14-0.053-0.147-0.066-0.247-0.243l-0.033-0.059c-0.068-0.119-0.072-0.234-0.076-0.327c-0.005-0.139-0.008-0.208-0.175-0.244 c-0.024-0.005-0.041-0.026-0.039-0.051c0.025-0.517-0.22-0.599-0.23-0.602c-0.019-0.006-0.034-0.022-0.036-0.043 c-0.002-0.022-0.055-0.557,0.3-0.754c0.168-0.093,0.398-0.055,0.594,0.015c-0.193-0.128-0.442-0.241-0.66-0.197 c-0.429,0.093-0.564,0.976-0.566,0.985c0,0.005-0.002,0.01-0.004,0.014L23.597,30.646z"/></g><g><path fill="#263238" d="M25.412,31.129c0,0-0.128-0.183-0.321-0.22c-0.192-0.037-0.211-0.247,0.055-0.238 c0.266,0.009,0.678,0.861,0.678,0.861l-0.037,0.211c0,0-0.165-0.348-0.403-0.376c-0.238-0.027-0.55,0.101-0.55,0.101l-0.174-0.137 C24.661,31.331,25.11,31.065,25.412,31.129z"/><path fill="#263238" d="M25.788,31.793c-0.019,0-0.037-0.011-0.045-0.028c-0.001-0.003-0.156-0.324-0.364-0.348 c-0.021-0.003-0.043-0.004-0.065-0.004c-0.211,0-0.457,0.1-0.459,0.101c-0.018,0.008-0.036,0.004-0.05-0.007L24.63,31.37 c-0.013-0.01-0.02-0.025-0.019-0.042s0.01-0.031,0.024-0.04c0.016-0.01,0.357-0.21,0.654-0.219 c-0.051-0.046-0.123-0.095-0.208-0.111c-0.133-0.025-0.193-0.116-0.185-0.193c0.008-0.072,0.081-0.149,0.25-0.144 c0.288,0.01,0.678,0.799,0.722,0.89c0.005,0.009,0.006,0.02,0.004,0.03l-0.037,0.211c-0.004,0.021-0.021,0.038-0.042,0.041 C25.792,31.793,25.791,31.793,25.788,31.793z M25.314,31.313c0.026,0,0.052,0.001,0.077,0.004c0.167,0.02,0.296,0.17,0.372,0.282 l0.01-0.06c-0.156-0.32-0.459-0.813-0.627-0.819c-0.005,0-0.01,0-0.015,0c-0.087,0-0.13,0.028-0.133,0.055 c-0.003,0.03,0.035,0.071,0.104,0.085c0.21,0.039,0.346,0.231,0.352,0.24c0.012,0.017,0.012,0.039,0,0.056 c-0.011,0.018-0.032,0.028-0.052,0.021c-0.218-0.045-0.519,0.093-0.65,0.161l0.092,0.072 C24.917,31.384,25.123,31.313,25.314,31.313z"/></g><g><path fill="#263238" d="M25.128,30.35c0,0,0.412,0.009,0.66,0.596c0.101-0.092,0.266-0.586,0.082-0.88 c-0.183-0.293-0.486-0.202-0.486-0.202s0.412,0.238,0.412,0.596C25.495,30.194,25.128,30.35,25.128,30.35z"/><path fill="#263238" d="M25.788,30.995c-0.003,0-0.007,0-0.011-0.001c-0.016-0.004-0.029-0.015-0.035-0.029 c-0.231-0.546-0.6-0.563-0.615-0.564c-0.023-0.001-0.043-0.018-0.047-0.041c-0.004-0.022,0.008-0.046,0.029-0.055 c0.015-0.006,0.327-0.135,0.624,0.046c-0.07-0.265-0.37-0.441-0.373-0.443c-0.018-0.01-0.027-0.029-0.025-0.049 c0.002-0.02,0.016-0.036,0.035-0.042c0.004-0.001,0.341-0.1,0.543,0.224c0.191,0.306,0.031,0.832-0.091,0.942 C25.812,30.991,25.8,30.995,25.788,30.995z M25.337,30.356c0.138,0.063,0.319,0.199,0.46,0.489 c0.081-0.154,0.175-0.522,0.031-0.753c-0.09-0.145-0.212-0.185-0.303-0.191c0.13,0.104,0.322,0.3,0.322,0.559 c0,0.02-0.011,0.037-0.029,0.046c-0.019,0.007-0.039,0.005-0.054-0.009C25.62,30.371,25.458,30.35,25.337,30.356z"/></g><g><path fill="#263238" d="M27.52,32.645c-0.001,0-0.002,0-0.003,0c-0.071-0.004-1.75-0.104-2.26-0.429 c-0.021-0.013-0.029-0.039-0.019-0.062c0.008-0.019,0.2-0.451,0.548-0.461c0.005,0,0.01,0,0.015,0 c0.333,0,0.929,0.322,0.954,0.336l0.792,0.523c0.019,0.013,0.027,0.036,0.02,0.058C27.561,32.631,27.542,32.645,27.52,32.645z M25.35,32.154c0.423,0.232,1.537,0.342,1.984,0.377l-0.629-0.416c-0.002-0.001-0.594-0.322-0.902-0.322c-0.004,0-0.008,0-0.013,0 C25.56,31.8,25.402,32.055,25.35,32.154z"/></g><g><path fill="#263238" d="M34.623,23.94c0,0,0.162-0.73,0.763-0.714s1.168,0.162,1.201,1.59 c0.974,1.282,1.006,4.138,0.341,6.507c0.584,0.422,1.12,0.665,1.12,0.665s-1.136,0.909-1.915-0.146 c-0.957-0.114-0.974-0.584-0.974-0.584s0.471,0.422,0.925,0.065c0.454-0.357,0.081-0.86,0.081-0.86s0.341-0.438,0.26-0.795 c-0.081-0.357-0.633-0.633-0.633-0.633s0.195,0.552-0.016,0.86c0.195,0.568,0,0.892-0.097,0.909 c-0.097,0.016-0.73-0.438-0.844-0.909c-0.114-0.471-0.325-1.947-0.178-2.385c0.146-0.438,0.454-0.73,0.698-0.909 c0.243-0.178,0.227-0.438-0.016-0.698c-0.243-0.26-0.633-0.617-0.357-0.86c0.276-0.243,0.682-0.471,0.682-0.471 s-0.746-0.081-0.99-0.13C34.623,24.249,34.623,23.94,34.623,23.94z"/><path fill="#263238" d="M37.062,32.402c-0.05,0-0.101-0.003-0.152-0.01c-0.312-0.041-0.583-0.21-0.805-0.503 c-0.968-0.121-0.996-0.608-0.996-0.629c-0.001-0.021,0.01-0.039,0.029-0.047c0.017-0.011,0.039-0.006,0.054,0.008 c0.019,0.016,0.444,0.389,0.861,0.062c0.41-0.322,0.085-0.772,0.072-0.792c-0.014-0.018-0.013-0.042,0-0.06 c0.003-0.005,0.325-0.424,0.25-0.754c-0.054-0.237-0.343-0.442-0.501-0.539c0.045,0.181,0.101,0.525-0.044,0.763 c0.161,0.489,0.031,0.765-0.013,0.838c-0.039,0.065-0.086,0.105-0.132,0.113c-0.003,0-0.007,0.001-0.012,0.001 c-0.167,0-0.778-0.489-0.889-0.947c-0.106-0.438-0.332-1.95-0.177-2.413c0.119-0.357,0.36-0.672,0.715-0.933 c0.093-0.068,0.145-0.149,0.153-0.24c0.011-0.116-0.05-0.249-0.176-0.384l-0.067-0.071c-0.191-0.199-0.407-0.426-0.398-0.641 c0.003-0.083,0.041-0.157,0.111-0.219c0.182-0.161,0.417-0.313,0.56-0.4c-0.231-0.026-0.667-0.078-0.845-0.114 c-0.019-0.004-0.034-0.018-0.039-0.037c-0.05-0.198-0.05-0.502-0.05-0.515c0-0.004,0-0.007,0.001-0.011 c0.001-0.008,0.174-0.753,0.792-0.753c0.007,0,0.014,0,0.021,0c0.584,0.015,1.211,0.154,1.249,1.622 c1.033,1.38,0.958,4.305,0.349,6.504c0.562,0.401,1.078,0.638,1.083,0.64c0.016,0.008,0.027,0.022,0.029,0.04 c0.002,0.017-0.005,0.034-0.019,0.045C38.057,32.044,37.603,32.402,37.062,32.402z M35.26,31.39 c0.083,0.136,0.303,0.335,0.878,0.403c0.014,0.002,0.026,0.009,0.034,0.021c0.208,0.28,0.46,0.442,0.75,0.48 c0.442,0.057,0.868-0.188,1.027-0.297c-0.17-0.084-0.599-0.307-1.051-0.633c-0.017-0.013-0.024-0.034-0.019-0.055 c0.716-2.549,0.576-5.267-0.333-6.463c-0.006-0.009-0.01-0.019-0.01-0.029c-0.032-1.396-0.563-1.525-1.152-1.541 c-0.006,0-0.012,0-0.018,0c-0.513,0-0.678,0.607-0.693,0.67c0,0.04,0.004,0.282,0.041,0.454c0.266,0.048,0.946,0.122,0.954,0.123 c0.021,0.003,0.039,0.019,0.043,0.04s-0.005,0.043-0.024,0.054c-0.004,0.002-0.404,0.227-0.673,0.464 c-0.05,0.044-0.076,0.093-0.078,0.148c-0.007,0.173,0.202,0.392,0.371,0.568l0.068,0.071c0.146,0.156,0.216,0.315,0.203,0.462 c-0.011,0.118-0.078,0.226-0.193,0.311c-0.339,0.249-0.567,0.546-0.68,0.884c-0.138,0.416,0.06,1.86,0.18,2.358 c0.109,0.453,0.704,0.867,0.79,0.87c0.003,0,0.029-0.014,0.059-0.064c0.081-0.135,0.123-0.41-0.004-0.777 c-0.005-0.016-0.003-0.032,0.006-0.045c0.195-0.284,0.013-0.811,0.011-0.815c-0.006-0.02-0.001-0.041,0.014-0.054 c0.015-0.015,0.037-0.015,0.056-0.008c0.023,0.012,0.574,0.291,0.659,0.667c0.074,0.325-0.171,0.701-0.248,0.808 c0.075,0.121,0.308,0.568-0.111,0.897C35.783,31.624,35.442,31.495,35.26,31.39z"/></g><g><path fill="#ff8f00" d="M34.753,23.599l-1.022,0.519c0,0,0.714,0.276,1.314,0.162 C35.645,24.167,34.753,23.599,34.753,23.599z"/><path fill="#263238" d="M34.729,24.358c-0.51,0-0.993-0.184-1.017-0.192c-0.019-0.008-0.031-0.024-0.032-0.044 c-0.001-0.021,0.01-0.038,0.027-0.048l1.022-0.52c0.015-0.007,0.033-0.008,0.049,0.003c0.094,0.06,0.563,0.371,0.52,0.6 c-0.017,0.087-0.1,0.146-0.246,0.173C34.948,24.351,34.838,24.358,34.729,24.358z M33.859,24.11 c0.22,0.069,0.733,0.206,1.177,0.122c0.07-0.014,0.156-0.041,0.166-0.095c0.022-0.114-0.244-0.344-0.452-0.48L33.859,24.11z"/></g><g><path fill="#ffd600" d="M35.175,23.551l0.081,0.195c0,0,0.811,0.195,1.249,0.746c0.016-0.26-0.26-0.535-0.26-0.535 l0.909,0.454l-0.422-0.519l0.503-0.276l-0.503-0.049l0.276-0.325C37.008,23.242,35.905,23.551,35.175,23.551z"/></g><g><path fill="#ff8f00" d="M36.067,31.697c0,0,0.162,0.243-0.422,0.357c-0.584,0.114-1.087,0.032-1.087,0.032l-0.195-0.162 l0.243-0.146l-0.422-0.292l1.152-0.081L36.067,31.697z"/><path fill="#263238" d="M34.994,32.164c-0.258,0-0.432-0.026-0.444-0.028c-0.009-0.002-0.017-0.006-0.024-0.012 l-0.194-0.162c-0.013-0.01-0.02-0.025-0.018-0.042c0.001-0.016,0.01-0.03,0.024-0.039l0.177-0.106l-0.358-0.248 c-0.018-0.012-0.025-0.034-0.02-0.055c0.006-0.021,0.023-0.035,0.045-0.036l1.152-0.081c0.007,0.001,0.015,0,0.022,0.003 l0.73,0.292c0.009,0.004,0.018,0.011,0.023,0.02c0.021,0.03,0.046,0.103,0.013,0.182c-0.049,0.116-0.206,0.201-0.467,0.252 C35.41,32.15,35.18,32.164,34.994,32.164z M34.579,32.038c0.083,0.014,0.541,0.068,1.057-0.033 c0.296-0.058,0.374-0.146,0.394-0.193c0.013-0.032,0.007-0.061,0.001-0.076l-0.702-0.28l-0.999,0.07l0.305,0.211 c0.014,0.01,0.022,0.025,0.021,0.043c0,0.017-0.009,0.032-0.024,0.041l-0.184,0.11L34.579,32.038z"/></g><g><path fill="#ffab00" d="M28.489,37.035l-0.665,1.087c0,0-0.097-1.817-0.811-2.596c-0.714-0.779-1.379-0.828-1.379-0.828 v-1.087c0,0,0.406-0.243,0.86-0.081C26.948,33.692,28.327,34.861,28.489,37.035z"/><path fill="#263238" d="M27.824,38.172c-0.004,0-0.008,0-0.012-0.001c-0.021-0.006-0.037-0.024-0.038-0.046 c-0.001-0.019-0.105-1.809-0.798-2.564c-0.69-0.754-1.34-0.812-1.347-0.812c-0.026-0.002-0.046-0.023-0.046-0.05v-1.087 c0-0.018,0.009-0.034,0.024-0.043c0.018-0.011,0.432-0.253,0.903-0.085c0.465,0.166,1.866,1.361,2.029,3.548 c0.001,0.011-0.001,0.021-0.007,0.03l-0.665,1.087C27.857,38.163,27.841,38.172,27.824,38.172z M25.683,34.654 c0.166,0.025,0.747,0.161,1.367,0.838c0.603,0.657,0.771,2.011,0.812,2.472l0.576-0.941c-0.165-2.128-1.514-3.285-1.961-3.445 c-0.363-0.13-0.702,0.019-0.794,0.064V34.654z"/></g><g><path fill="#ffab00" d="M33.373,36.84l0.665,1.087c0,0,0.097-1.817,0.811-2.596c0.714-0.779,1.379-0.828,1.379-0.828 v-1.087c0,0-0.406-0.243-0.86-0.081S33.535,34.666,33.373,36.84z"/><path fill="#263238" d="M34.038,37.978c-0.017,0-0.033-0.009-0.042-0.023l-0.665-1.087c-0.006-0.009-0.008-0.02-0.007-0.03 c0.163-2.187,1.564-3.382,2.029-3.548c0.472-0.172,0.885,0.074,0.903,0.085c0.015,0.009,0.024,0.025,0.024,0.043v1.087 c0,0.026-0.02,0.048-0.046,0.05c-0.007,0.001-0.656,0.059-1.347,0.812c-0.693,0.757-0.797,2.547-0.798,2.565 c-0.001,0.021-0.016,0.04-0.038,0.046C34.046,37.978,34.042,37.978,34.038,37.978z M33.424,36.828L34,37.77 c0.041-0.461,0.21-1.814,0.812-2.473c0.62-0.676,1.201-0.812,1.367-0.837v-1.013c-0.091-0.047-0.428-0.192-0.793-0.064 C34.938,33.543,33.589,34.7,33.424,36.828z"/></g><g><path fill="#ffab00" d="M25.309,36.792c0,0,1.752-2.921,5.663-2.921s5.614,2.726,5.614,2.726l-0.763,0.714 c0,0-1.671-2.402-4.803-2.402s-5.014,2.564-5.014,2.564L25.309,36.792z"/><path fill="#263238" d="M26.007,37.523c-0.013,0-0.025-0.005-0.035-0.014l-0.698-0.682 c-0.016-0.017-0.02-0.042-0.008-0.062c0.018-0.03,1.812-2.945,5.706-2.945c3.894,0,5.64,2.722,5.657,2.749 c0.013,0.021,0.009,0.047-0.008,0.062l-0.763,0.714c-0.011,0.01-0.027,0.015-0.04,0.014c-0.014-0.002-0.027-0.01-0.036-0.021 c-0.017-0.023-1.694-2.38-4.762-2.38c-3.069,0-4.955,2.519-4.973,2.544c-0.009,0.012-0.022,0.02-0.037,0.021 C26.01,37.523,26.008,37.523,26.007,37.523z M25.373,36.784l0.628,0.614c0.274-0.346,2.13-2.539,5.019-2.539 c2.88,0,4.554,2.041,4.81,2.376l0.691-0.646c-0.215-0.312-1.95-2.668-5.549-2.668C27.361,33.921,25.583,36.463,25.373,36.784z"/></g><g><path fill="#263238" d="M30.78,32.152c-0.006,0-0.013-0.001-0.019-0.004c-0.015,0.008-0.032,0.006-0.045-0.003 c-0.011-0.007-0.02-0.019-0.022-0.031c-0.352-0.178-2.447-1.327-2.447-3.388c0-2.206-0.004-3.028-0.004-3.028 c0-0.013,0.005-0.026,0.015-0.035c0.009-0.01,0.022-0.015,0.035-0.015c0,0,0,0,0,0l4.984,0.026c0.014,0,0.027,0.006,0.036,0.016 s0.014,0.023,0.013,0.037c0,0.008-0.051,0.82-0.051,2.999c0,2.061-2.095,3.21-2.447,3.388c-0.003,0.013-0.011,0.024-0.022,0.031 C30.798,32.15,30.789,32.152,30.78,32.152z M28.343,25.748c0,0.209,0.003,1.083,0.003,2.979c0,2.053,2.153,3.181,2.415,3.311 c0.262-0.13,2.415-1.258,2.415-3.311c0-1.875,0.037-2.74,0.048-2.952L28.343,25.748z"/></g><g><polygon fill="#a1887f" points="28.784,15.506 28.482,15.826 28.528,16.11 28.335,16.083 28.345,15.735 28.674,15.341 28.72,15.157 28.638,15.093 28.436,15.276 28.436,15.038 28.335,14.992 28.271,15.414 28.106,15.286 27.969,15.396 28.171,15.652 28.088,16.01 27.841,15.753 27.822,15.396 28.143,15.038 28.171,14.681 28.015,14.69 27.969,14.928 27.822,15.002 27.786,14.727 27.657,14.791 27.639,15.167 27.575,15.185 27.52,14.919 27.373,15.011 27.437,15.377 27.557,15.469 27.584,15.826 28.088,16.303 28.482,16.339 28.592,16.779 28.784,16.715 28.674,16.248 28.931,16.266 28.748,15.9 28.968,15.698"/><path fill="#263238" d="M28.592,16.829c-0.008,0-0.017-0.002-0.024-0.006c-0.012-0.007-0.021-0.019-0.024-0.032 l-0.102-0.404l-0.359-0.034c-0.011-0.001-0.021-0.006-0.029-0.014l-0.504-0.477c-0.009-0.009-0.015-0.02-0.016-0.032 l-0.026-0.335l-0.102-0.078c-0.01-0.008-0.016-0.02-0.019-0.031l-0.064-0.366c-0.003-0.021,0.005-0.04,0.023-0.051l0.146-0.092 c0.014-0.01,0.031-0.011,0.046-0.004c0.015,0.007,0.026,0.02,0.029,0.036l0.026,0.128l0.012-0.248 c0-0.019,0.011-0.034,0.027-0.043l0.128-0.064c0.015-0.006,0.031-0.007,0.046,0.001c0.014,0.007,0.024,0.021,0.026,0.037 l0.027,0.206l0.062-0.03l0.041-0.215c0.004-0.022,0.023-0.039,0.046-0.04l0.156-0.01c0.013-0.004,0.028,0.004,0.039,0.015 s0.015,0.024,0.014,0.039l-0.027,0.357c-0.001,0.011-0.005,0.021-0.013,0.029l-0.307,0.342l0.017,0.318l0.17,0.177l0.056-0.244 l-0.187-0.237c-0.017-0.021-0.013-0.053,0.008-0.07l0.138-0.11c0.017-0.015,0.042-0.017,0.062,0l0.098,0.076l0.051-0.338 c0.002-0.016,0.012-0.028,0.025-0.036c0.014-0.007,0.029-0.009,0.045-0.002l0.101,0.046c0.018,0.009,0.029,0.026,0.029,0.046 v0.125l0.118-0.107c0.018-0.017,0.045-0.019,0.064-0.002l0.083,0.064c0.016,0.012,0.022,0.032,0.018,0.051l-0.046,0.184 c-0.001,0.008-0.005,0.015-0.01,0.021l-0.319,0.38l-0.007,0.287l0.081,0.012l-0.035-0.218c-0.002-0.016,0.002-0.031,0.013-0.042 l0.303-0.32c0.009-0.01,0.022-0.016,0.036-0.016l0,0c0.014,0,0.027,0.006,0.036,0.016l0.183,0.192 c0.009,0.01,0.014,0.022,0.014,0.036s-0.006,0.026-0.016,0.035l-0.192,0.176l0.167,0.332c0.008,0.016,0.007,0.035-0.003,0.05 c-0.009,0.015-0.025,0.022-0.042,0.022c-0.001,0-0.002,0-0.003,0l-0.189-0.013l0.095,0.4c0.006,0.025-0.008,0.051-0.033,0.06 l-0.193,0.064C28.603,16.828,28.597,16.829,28.592,16.829z M28.11,16.255l0.377,0.035c0.021,0.002,0.039,0.018,0.043,0.038 l0.097,0.387l0.098-0.033l-0.1-0.422c-0.003-0.016,0-0.032,0.011-0.044c0.01-0.013,0.028-0.013,0.042-0.018l0.169,0.012 l-0.145-0.288c-0.01-0.021-0.005-0.044,0.011-0.06l0.183-0.167l-0.112-0.117l-0.25,0.265l0.042,0.26 c0.002,0.016-0.002,0.031-0.014,0.043c-0.011,0.012-0.029,0.014-0.042,0.015l-0.192-0.027c-0.025-0.004-0.044-0.025-0.043-0.051 l0.009-0.349c0-0.012,0.004-0.022,0.012-0.031l0.322-0.385l0.036-0.141l-0.024-0.019l-0.17,0.155 c-0.015,0.014-0.036,0.017-0.054,0.009c-0.018-0.008-0.03-0.026-0.03-0.046V15.07l-0.011-0.005l-0.054,0.356 c-0.002,0.018-0.014,0.032-0.031,0.039c-0.016,0.005-0.036,0.003-0.049-0.008l-0.134-0.104l-0.068,0.055l0.171,0.218 c0.009,0.013,0.013,0.027,0.009,0.043l-0.083,0.357c-0.004,0.018-0.018,0.031-0.036,0.036c-0.017,0.009-0.036,0.001-0.049-0.014 l-0.247-0.257c-0.008-0.008-0.013-0.02-0.014-0.031l-0.019-0.357c-0.001-0.014,0.004-0.026,0.013-0.036l0.31-0.345l0.021-0.283 l-0.06,0.004l-0.039,0.2c-0.003,0.015-0.013,0.028-0.027,0.035l-0.146,0.073c-0.015,0.006-0.031,0.007-0.046-0.001 c-0.014-0.008-0.024-0.021-0.026-0.037l-0.027-0.206l-0.04,0.02l-0.017,0.347c-0.001,0.022-0.016,0.041-0.037,0.046 l-0.064,0.018c-0.014,0.007-0.027,0.003-0.04-0.005c-0.012-0.008-0.02-0.02-0.022-0.033L27.485,15l-0.057,0.035l0.055,0.314 l0.104,0.079c0.011,0.009,0.018,0.022,0.019,0.036l0.026,0.338L28.11,16.255z"/><polygon fill="#a1887f" points="29.325,15.506 29.628,15.826 29.582,16.11 29.774,16.083 29.765,15.735 29.435,15.341 29.389,15.157 29.472,15.093 29.673,15.276 29.673,15.038 29.774,14.992 29.838,15.414 30.003,15.286 30.141,15.396 29.939,15.652 30.022,16.01 30.269,15.753 30.287,15.396 29.967,15.038 29.939,14.681 30.095,14.69 30.141,14.928 30.287,15.002 30.324,14.727 30.452,14.791 30.471,15.167 30.535,15.185 30.59,14.919 30.736,15.011 30.672,15.377 30.553,15.469 30.526,15.826 30.022,16.303 29.628,16.339 29.518,16.779 29.325,16.715 29.435,16.248 29.179,16.266 29.362,15.9 29.142,15.698"/><path fill="#263238" d="M29.518,16.829c-0.005,0-0.011-0.001-0.016-0.002l-0.192-0.064 c-0.024-0.009-0.039-0.034-0.033-0.06l0.095-0.4l-0.189,0.013c-0.018-0.003-0.035-0.007-0.045-0.022 c-0.01-0.015-0.011-0.033-0.003-0.05l0.167-0.332l-0.192-0.176c-0.01-0.01-0.016-0.022-0.016-0.035 c0-0.014,0.004-0.026,0.014-0.036l0.183-0.192c0.009-0.01,0.022-0.016,0.036-0.016l0,0c0.014,0,0.027,0.006,0.036,0.016 l0.302,0.32c0.011,0.011,0.016,0.026,0.013,0.042l-0.035,0.218l0.081-0.012l-0.007-0.287l-0.319-0.38 c-0.005-0.006-0.009-0.013-0.01-0.021l-0.045-0.184c-0.005-0.019,0.002-0.039,0.018-0.051l0.082-0.064 c0.019-0.017,0.046-0.015,0.064,0.002l0.118,0.107v-0.125c0-0.02,0.011-0.037,0.029-0.046l0.101-0.046 c0.014-0.008,0.03-0.006,0.044,0.002c0.014,0.008,0.023,0.021,0.025,0.036l0.051,0.338l0.098-0.076 c0.018-0.017,0.044-0.015,0.062,0l0.137,0.11c0.021,0.018,0.025,0.049,0.008,0.07l-0.187,0.237l0.056,0.244l0.171-0.177 l0.017-0.318l-0.307-0.342c-0.007-0.008-0.012-0.019-0.013-0.029l-0.027-0.357c-0.001-0.015,0.004-0.028,0.014-0.039 c0.01-0.011,0.02-0.018,0.039-0.015l0.156,0.01c0.023,0.001,0.042,0.018,0.046,0.04l0.041,0.214l0.062,0.031l0.027-0.206 c0.002-0.016,0.012-0.03,0.026-0.037c0.015-0.008,0.032-0.007,0.046-0.001l0.128,0.064c0.016,0.009,0.026,0.024,0.027,0.042 l0.012,0.249l0.027-0.128c0.003-0.017,0.014-0.03,0.029-0.036c0.015-0.007,0.032-0.006,0.046,0.004l0.146,0.092 c0.018,0.011,0.026,0.03,0.023,0.051l-0.064,0.366c-0.002,0.012-0.009,0.023-0.019,0.031l-0.102,0.078l-0.026,0.335 c-0.001,0.013-0.006,0.023-0.016,0.032l-0.504,0.477c-0.008,0.008-0.019,0.013-0.029,0.014l-0.359,0.034l-0.102,0.404 c-0.003,0.014-0.012,0.025-0.024,0.032C29.534,16.827,29.526,16.829,29.518,16.829z M29.384,16.682l0.098,0.033l0.097-0.387 c0.005-0.021,0.022-0.036,0.043-0.038L30,16.255l0.478-0.452l0.026-0.338c0.001-0.014,0.008-0.027,0.019-0.036l0.104-0.079 l0.055-0.314l-0.057-0.036l-0.041,0.195c-0.002,0.014-0.011,0.025-0.023,0.033c-0.011,0.008-0.024,0.012-0.039,0.005 l-0.064-0.018c-0.021-0.005-0.036-0.023-0.037-0.045l-0.017-0.348l-0.039-0.02l-0.027,0.206 c-0.002,0.016-0.012,0.029-0.026,0.037c-0.015,0.008-0.031,0.007-0.046,0.001l-0.147-0.073 c-0.014-0.007-0.024-0.021-0.027-0.035l-0.038-0.2l-0.06-0.004l0.021,0.283l0.31,0.345c0.009,0.01,0.014,0.022,0.013,0.036 l-0.019,0.357c0,0.012-0.005,0.023-0.014,0.032l-0.248,0.257c-0.013,0.013-0.032,0.021-0.049,0.013 c-0.018-0.005-0.031-0.019-0.036-0.037l-0.082-0.357c-0.003-0.015,0-0.029,0.009-0.042l0.171-0.218l-0.068-0.055l-0.134,0.104 c-0.014,0.011-0.034,0.014-0.049,0.008c-0.017-0.007-0.028-0.021-0.031-0.039l-0.054-0.356l-0.012,0.005v0.206 c0,0.02-0.012,0.038-0.03,0.046c-0.019,0.007-0.04,0.005-0.054-0.009l-0.17-0.155l-0.023,0.019l0.035,0.141l0.322,0.385 c0.007,0.009,0.012,0.02,0.012,0.031l0.009,0.349c0.001,0.025-0.018,0.047-0.043,0.051l-0.192,0.027 c-0.014-0.001-0.032-0.003-0.042-0.015c-0.011-0.012-0.016-0.027-0.014-0.043l0.042-0.26l-0.249-0.265l-0.112,0.117l0.182,0.167 c0.017,0.016,0.021,0.039,0.011,0.06l-0.144,0.288l0.169-0.012c0.014,0.005,0.031,0.005,0.042,0.018 c0.01,0.012,0.014,0.028,0.011,0.044L29.384,16.682z"/><polygon fill="#757575" points="28.739,21.425 29.032,20.454 29.1,20.417 29.408,20.252 29.582,20.335 29.829,20.463 30.168,20.069 30.599,20.307 30.828,20.27 31.121,19.904 31.515,20.353 31.753,20.316 31.772,20.472 32.019,20.298 32.331,20.509 32.193,20.747 32.532,21.581 28.711,21.691"/><path fill="#263238" d="M28.711,21.74c-0.014,0-0.027-0.006-0.037-0.016c-0.01-0.011-0.015-0.025-0.013-0.039 l0.028-0.266c0-0.004,0.001-0.007,0.002-0.01l0.293-0.971c0.004-0.013,0.012-0.023,0.024-0.029l0.376-0.202 c0.014-0.008,0.03-0.009,0.045-0.001l0.174,0.083l0.214,0.11l0.313-0.363c0.016-0.019,0.042-0.021,0.062-0.012l0.416,0.23 l0.193-0.031l0.281-0.352c0.009-0.012,0.023-0.019,0.038-0.019c0,0,0,0,0.001,0c0.014,0,0.028,0.006,0.038,0.017l0.376,0.428 l0.211-0.032c0.014,0,0.027,0.002,0.038,0.01c0.011,0.009,0.018,0.021,0.02,0.034l0.008,0.072l0.179-0.126 c0.018-0.011,0.041-0.012,0.057,0l0.312,0.211c0.022,0.015,0.029,0.043,0.016,0.066l-0.125,0.217l0.33,0.812 c0.006,0.015,0.004,0.032-0.004,0.046c-0.009,0.014-0.024,0.022-0.041,0.022l-3.821,0.109 C28.712,21.74,28.711,21.74,28.711,21.74z M28.788,21.435l-0.021,0.204l3.692-0.105l-0.312-0.768 c-0.006-0.014-0.004-0.03,0.003-0.044l0.114-0.197l-0.245-0.166L31.8,20.513c-0.015,0.01-0.032,0.013-0.049,0.005 c-0.016-0.008-0.027-0.022-0.029-0.04l-0.012-0.104l-0.188,0.028c-0.017,0-0.034-0.004-0.045-0.017l-0.354-0.403l-0.256,0.319 c-0.008,0.01-0.019,0.017-0.031,0.019l-0.229,0.037c-0.011,0.002-0.022-0.001-0.032-0.006l-0.395-0.219l-0.312,0.362 c-0.015,0.019-0.04,0.022-0.061,0.012l-0.397-0.199l-0.335,0.181L28.788,21.435z"/><path fill="#8d6e63" d="M29.114,20.014l0.156-0.238l0.046-1.054l-0.284,0.128l0.092-0.348l-0.312,0.037l0.293-0.44 l-0.275,0.055l0.137-0.192l-0.229-0.027l0.238-0.266l-0.046-0.257c0,0-0.275-0.174-0.376-0.348 c-0.266,0.009-0.586-0.302-0.586-0.302s0.046-0.22,0.596-0.092c0.348-0.339,0.761-0.33,0.971-0.037 c0.339-0.165,0.687-0.009,0.687-0.009s-0.046,0.348-0.687,0.348c0.009,0.247-0.092,0.302-0.092,0.302s0.165,0.055,0.229,0.266 c0.385-0.128,0.751,0.156,0.751,0.156l0.412-0.018c0,0,0.559-0.321,1.109,0.073c0.183,0.137,0.119,0.504,0.376,0.733 c-0.192,0.073-0.476-0.018-0.476-0.018l0.027,0.183l0.321,0.367l-0.082,0.889l0.073,0.183l-0.412,0.385l-0.018-0.156 l-0.156,0.027l0.33-0.925l-0.367-0.403l-0.247,0.449l-0.128,0.541l-0.33,0.394l-0.082-0.046l-0.009-0.357l0.367-0.55v-0.385 l-0.238-0.321l-0.247,0.101l-0.348,0.009l-0.119,0.999l0.027,0.449l-0.312,0.284l-0.147-0.055l0.037-0.348l0.119-0.476 l0.037-0.22v-0.669H29.82l-0.183,0.174l-0.055,0.687l0.037,0.367l-0.247,0.321l-0.247,0.082L29.114,20.014z"/><path fill="#263238" d="M29.893,20.632c-0.006,0-0.012-0.001-0.018-0.003l-0.146-0.055 c-0.021-0.008-0.035-0.029-0.032-0.052l0.037-0.349l0.121-0.483l0.036-0.216l0-0.611H29.84l-0.155,0.147l-0.054,0.668 l0.037,0.357c0.001,0.013-0.002,0.025-0.01,0.035l-0.247,0.321c-0.006,0.008-0.014,0.014-0.024,0.018l-0.248,0.082 c-0.014,0.002-0.032,0.002-0.044-0.007c-0.013-0.01-0.021-0.024-0.021-0.04l-0.009-0.431c0-0.01,0.002-0.02,0.008-0.028 l0.148-0.227l0.042-0.959l-0.21,0.096C29.035,18.904,29.014,18.9,29,18.889c-0.015-0.013-0.021-0.032-0.016-0.051l0.073-0.277 l-0.239,0.028c-0.018-0.001-0.038-0.007-0.048-0.023s-0.01-0.038,0.001-0.054l0.226-0.341l-0.157,0.031 c-0.021,0.007-0.041-0.004-0.052-0.021s-0.011-0.04,0.001-0.057l0.088-0.123l-0.145-0.018c-0.019-0.002-0.034-0.015-0.041-0.032 c-0.006-0.018-0.003-0.037,0.01-0.051l0.222-0.248l-0.038-0.211c-0.062-0.042-0.26-0.18-0.358-0.328 c-0.276-0.012-0.58-0.304-0.593-0.316c-0.013-0.012-0.018-0.029-0.014-0.046c0.001-0.007,0.015-0.065,0.089-0.112 c0.11-0.071,0.293-0.078,0.541-0.024c0.191-0.178,0.405-0.265,0.616-0.248c0.152,0.014,0.287,0.086,0.386,0.205 c0.342-0.148,0.677,0,0.692,0.006c0.02,0.009,0.032,0.03,0.029,0.053c-0.002,0.016-0.057,0.373-0.687,0.391 c-0.002,0.121-0.032,0.195-0.061,0.239c0.055,0.035,0.131,0.102,0.179,0.219c0.349-0.091,0.663,0.113,0.736,0.166l0.383-0.017 c0.086-0.043,0.626-0.296,1.152,0.082c0.099,0.074,0.134,0.199,0.171,0.33c0.041,0.145,0.082,0.293,0.208,0.406 c0.013,0.012,0.019,0.029,0.016,0.046c-0.003,0.018-0.015,0.031-0.032,0.038c-0.144,0.056-0.331,0.025-0.433,0.003l0.014,0.094 l0.311,0.354c0.009,0.011,0.014,0.024,0.012,0.038l-0.082,0.877l0.069,0.172c0.008,0.02,0.003,0.041-0.012,0.055l-0.413,0.385 c-0.014,0.013-0.036,0.017-0.051,0.011c-0.018-0.007-0.03-0.022-0.033-0.041l-0.012-0.103l-0.104,0.018 c-0.017,0.007-0.036-0.002-0.047-0.017c-0.012-0.014-0.015-0.032-0.009-0.049l0.319-0.897l-0.299-0.33l-0.211,0.383 l-0.126,0.534c-0.002,0.008-0.005,0.015-0.01,0.021l-0.33,0.394c-0.016,0.019-0.041,0.022-0.063,0.012l-0.083-0.046 c-0.015-0.009-0.025-0.025-0.025-0.043l-0.009-0.357c0-0.01,0.002-0.021,0.008-0.028l0.358-0.538v-0.353l-0.206-0.276 l-0.211,0.086c-0.006,0.003-0.012,0.004-0.018,0.004l-0.305,0.009l-0.114,0.955l0.027,0.44c0.001,0.015-0.005,0.029-0.016,0.04 l-0.312,0.284C29.917,20.628,29.905,20.632,29.893,20.632z M29.8,20.494l0.082,0.03l0.271-0.247l-0.026-0.426l0.119-1.007 c0.003-0.024,0.023-0.043,0.048-0.044l0.339-0.01l0.239-0.097c0.021-0.012,0.045-0.002,0.059,0.016l0.238,0.32 c0.006,0.009,0.01,0.02,0.01,0.03v0.385c0,0.01-0.003,0.02-0.008,0.027l-0.358,0.537l0.008,0.312l0.021,0.013l0.295-0.354 l0.125-0.529c0.001-0.004,0.003-0.009,0.005-0.013l0.248-0.449c0.008-0.014,0.022-0.023,0.038-0.025 c0.019-0.001,0.032,0.004,0.043,0.017l0.366,0.403c0.012,0.014,0.016,0.032,0.01,0.05l-0.301,0.845l0.071-0.012 c0.013-0.003,0.028,0,0.039,0.009c0.011,0.008,0.018,0.021,0.02,0.034l0.006,0.057l0.315-0.294l-0.061-0.15 c-0.003-0.007-0.004-0.016-0.003-0.023l0.081-0.868l-0.307-0.35c-0.006-0.008-0.01-0.017-0.012-0.025l-0.027-0.184 c-0.003-0.018,0.004-0.035,0.017-0.046c0.013-0.012,0.032-0.015,0.047-0.01c0.002,0.001,0.199,0.062,0.365,0.039 c-0.101-0.12-0.14-0.262-0.176-0.389c-0.034-0.12-0.062-0.223-0.134-0.276c-0.517-0.371-1.033-0.082-1.054-0.07 c-0.007,0.004-0.015,0.007-0.023,0.007l-0.412,0.018c-0.009-0.003-0.023-0.004-0.033-0.01c-0.003-0.004-0.353-0.272-0.705-0.147 c-0.013,0.002-0.027,0.003-0.039-0.004c-0.012-0.006-0.021-0.017-0.025-0.029c-0.055-0.182-0.191-0.23-0.197-0.233 c-0.019-0.006-0.032-0.022-0.034-0.043c-0.001-0.02,0.008-0.038,0.025-0.048l0,0c0,0,0.073-0.052,0.066-0.257 c0-0.014,0.004-0.027,0.014-0.037c0.01-0.01,0.022-0.015,0.036-0.015c0.465,0,0.593-0.187,0.626-0.269 c-0.098-0.032-0.356-0.096-0.604,0.024c-0.022,0.013-0.048,0.005-0.062-0.016c-0.083-0.116-0.201-0.185-0.338-0.196 c-0.015-0.001-0.03-0.002-0.045-0.002c-0.171,0-0.352,0.084-0.513,0.241c-0.012,0.012-0.032,0.017-0.046,0.013 c-0.369-0.086-0.487-0.009-0.522,0.032c0.08,0.07,0.316,0.264,0.513,0.264c0.003,0,0.007,0.002,0.011,0 c0.018,0,0.034,0.009,0.043,0.024c0.094,0.162,0.356,0.329,0.359,0.331c0.012,0.007,0.02,0.02,0.022,0.033l0.046,0.257 c0.002,0.016-0.002,0.03-0.012,0.042l-0.174,0.194l0.133,0.016c0.018,0.002,0.033,0.014,0.04,0.029 c0.007,0.017,0.005,0.035-0.005,0.05l-0.064,0.09l0.151-0.03c0.021-0.004,0.041,0.004,0.051,0.021 c0.011,0.017,0.011,0.038,0,0.055l-0.233,0.351l0.204-0.024c0.015,0,0.033,0.005,0.043,0.017 c0.011,0.013,0.015,0.03,0.011,0.046l-0.065,0.247l0.188-0.086c0.016-0.006,0.034-0.005,0.048,0.005 c0.015,0.01,0.023,0.025,0.022,0.043l-0.046,1.054c0,0.009-0.003,0.018-0.008,0.025l-0.147,0.226l0.007,0.348l0.169-0.057 l0.226-0.293l-0.035-0.347l0.055-0.696c0.001-0.013,0.006-0.023,0.015-0.032l0.183-0.174c0.01-0.009,0.022-0.014,0.035-0.014 h0.119c0.028,0,0.05,0.022,0.05,0.05v0.669l-0.037,0.228l-0.12,0.48L29.8,20.494z"/><path fill="#fafafa" d="M26.109,19.088c0,0-0.128,0.696,0.376,1.1c-0.651-0.137-0.843-0.137-1.063-0.174 s-0.669-0.229-0.825-0.33c-0.037,0.742,0.522,1.393,2.135,1.457c-0.293,0.376-0.101,0.871,0.559,0.971 c-0.284-0.348-0.128-0.715,0.147-0.742c0.275-0.027,0.504-0.018,0.504-0.018S27.868,19.693,26.109,19.088z"/><path fill="#263238" d="M27.291,22.162c-0.002,0-0.005,0-0.007,0c-0.348-0.054-0.602-0.221-0.696-0.458 c-0.066-0.167-0.047-0.352,0.053-0.518c-0.846-0.046-1.447-0.258-1.789-0.632c-0.219-0.239-0.321-0.533-0.304-0.874 c0.001-0.018,0.011-0.033,0.027-0.042c0.016-0.007,0.036-0.006,0.05,0.003c0.146,0.096,0.591,0.287,0.806,0.322 c0.064,0.012,0.125,0.019,0.197,0.027c0.149,0.019,0.346,0.043,0.697,0.113c-0.37-0.419-0.269-0.998-0.264-1.024 c0.003-0.015,0.012-0.027,0.024-0.034c0.013-0.008,0.028-0.01,0.042-0.004c1.771,0.608,1.866,2.29,1.866,2.308 c0.001,0.014-0.004,0.027-0.014,0.037s-0.022,0.015-0.036,0.015c0,0-0.001,0-0.002,0c-0.003,0-0.229-0.009-0.497,0.019 c-0.1,0.01-0.185,0.075-0.226,0.174c-0.06,0.145-0.018,0.326,0.113,0.487c0.013,0.016,0.015,0.038,0.005,0.056 C27.326,22.153,27.309,22.162,27.291,22.162z M24.645,19.77c0.004,0.278,0.098,0.519,0.28,0.718 c0.335,0.366,0.944,0.569,1.809,0.604c0.019,0.001,0.036,0.012,0.043,0.028c0.008,0.018,0.005,0.037-0.006,0.052 c-0.122,0.156-0.155,0.337-0.091,0.496c0.07,0.177,0.25,0.309,0.499,0.372c-0.095-0.163-0.116-0.337-0.055-0.484 c0.055-0.133,0.17-0.221,0.308-0.234c0.169-0.017,0.32-0.021,0.414-0.021c0.015,0,0.028,0,0.041,0.001 c-0.032-0.282-0.259-1.604-1.736-2.144c-0.016,0.171-0.026,0.68,0.365,0.992c0.018,0.015,0.024,0.039,0.014,0.061 c-0.01,0.021-0.032,0.034-0.056,0.027c-0.458-0.097-0.69-0.126-0.86-0.146c-0.073-0.009-0.136-0.017-0.201-0.028 C25.211,20.03,24.84,19.876,24.645,19.77z"/><path fill="#2962ff" d="M26.356,21.984c0,0-0.183,1.255,1.714,2.007c0.055-0.476,0.476-0.577,0.687-0.266 c0.476-0.476,0.192-1.127-0.422-1.008c0-0.788-0.073-1.649-0.568-2.016c-0.266,0.871-0.183,2.071-0.183,2.071 S27.263,22.213,26.356,21.984z"/><path fill="#263238" d="M28.07,24.041c-0.006,0-0.013-0.001-0.019-0.003c-1.912-0.758-1.747-2.048-1.745-2.061 c0.002-0.015,0.01-0.027,0.021-0.035c0.011-0.008,0.025-0.012,0.04-0.007c0.647,0.163,1.001,0.489,1.159,0.675 c-0.012-0.362-0.014-1.246,0.192-1.924c0.005-0.016,0.017-0.027,0.032-0.033c0.014-0.004,0.032-0.003,0.045,0.008 c0.508,0.376,0.585,1.255,0.588,1.997c0.262-0.033,0.486,0.073,0.596,0.278c0.134,0.252,0.06,0.575-0.189,0.823 c-0.01,0.011-0.022,0.017-0.04,0.015c-0.015-0.002-0.028-0.01-0.037-0.021c-0.083-0.123-0.203-0.176-0.324-0.149 c-0.144,0.035-0.249,0.187-0.272,0.394c-0.002,0.016-0.011,0.029-0.024,0.037C28.088,24.039,28.079,24.041,28.07,24.041z M26.402,22.048c-0.005,0.246,0.078,1.235,1.628,1.873c0.042-0.217,0.168-0.373,0.337-0.414 c0.143-0.036,0.288,0.019,0.393,0.141c0.186-0.209,0.238-0.465,0.132-0.664c-0.097-0.184-0.303-0.263-0.547-0.218 c-0.015,0.005-0.03-0.001-0.042-0.01c-0.012-0.01-0.018-0.024-0.018-0.039c0-0.701-0.058-1.545-0.492-1.93 c-0.235,0.845-0.161,1.971-0.16,1.981c0.001,0.023-0.013,0.045-0.035,0.052c-0.022,0.005-0.046-0.003-0.058-0.022 C27.538,22.792,27.231,22.277,26.402,22.048z"/><path fill="#fafafa" d="M29.527,23.331c0,0-0.871,1.026-1.943,0.422c0.376,0.962,1.1,1.045,2.117,0.357 C30.718,23.423,29.527,23.331,29.527,23.331z"/><path fill="#263238" d="M28.546,24.61c-0.1,0-0.195-0.014-0.284-0.042c-0.312-0.097-0.557-0.365-0.725-0.797 c-0.008-0.021-0.002-0.042,0.014-0.057c0.016-0.014,0.041-0.015,0.057-0.006c1.024,0.578,1.846-0.37,1.88-0.41 c0.01-0.014,0.024-0.021,0.042-0.018c0.057,0.004,0.557,0.05,0.624,0.303c0.042,0.16-0.097,0.346-0.426,0.567 C29.277,24.457,28.88,24.61,28.546,24.61z M27.684,23.86c0.153,0.328,0.357,0.534,0.608,0.613 c0.353,0.107,0.818-0.026,1.38-0.404c0.277-0.188,0.414-0.351,0.385-0.46c-0.039-0.146-0.367-0.211-0.51-0.227 C29.42,23.52,28.64,24.295,27.684,23.86z"/><g><path fill="#fafafa" d="M35.251,19.088c0,0,0.128,0.696-0.376,1.1c0.651-0.137,0.843-0.137,1.063-0.174 s0.669-0.229,0.825-0.33c0.037,0.742-0.522,1.393-2.135,1.457c0.293,0.376,0.101,0.871-0.559,0.971 c0.284-0.348,0.128-0.715-0.147-0.742c-0.275-0.027-0.504-0.018-0.504-0.018S33.492,19.693,35.251,19.088z"/><path fill="#263238" d="M34.069,22.162c-0.018,0-0.034-0.009-0.043-0.025c-0.01-0.018-0.008-0.04,0.005-0.056 c0.131-0.161,0.173-0.343,0.113-0.487c-0.041-0.099-0.125-0.164-0.226-0.174c-0.268-0.026-0.494-0.018-0.497-0.019 c0,0-0.001,0-0.002,0c-0.013,0-0.026-0.005-0.036-0.015s-0.015-0.023-0.014-0.037c0-0.018,0.095-1.699,1.866-2.308 c0.014-0.005,0.029-0.003,0.042,0.004s0.021,0.02,0.024,0.034c0.005,0.026,0.106,0.605-0.264,1.024 c0.352-0.07,0.548-0.095,0.697-0.113c0.071-0.009,0.133-0.016,0.197-0.026c0.214-0.036,0.659-0.228,0.806-0.323 c0.016-0.008,0.034-0.009,0.05-0.003c0.016,0.009,0.026,0.024,0.027,0.042c0.017,0.341-0.085,0.635-0.304,0.874 c-0.342,0.374-0.943,0.586-1.789,0.632c0.1,0.166,0.119,0.35,0.053,0.517c-0.095,0.238-0.348,0.405-0.696,0.459 C34.074,22.162,34.071,22.162,34.069,22.162z M33.514,21.3c0.093,0,0.244,0.004,0.414,0.021 c0.138,0.014,0.253,0.102,0.308,0.234c0.061,0.147,0.04,0.321-0.055,0.484c0.25-0.063,0.429-0.195,0.499-0.372 c0.063-0.16,0.03-0.34-0.091-0.496c-0.011-0.015-0.014-0.034-0.006-0.052c0.008-0.017,0.025-0.027,0.043-0.028 c0.865-0.034,1.474-0.237,1.809-0.604c0.182-0.199,0.276-0.439,0.28-0.718c-0.195,0.106-0.566,0.261-0.768,0.294 c-0.065,0.011-0.128,0.019-0.201,0.027c-0.17,0.021-0.402,0.05-0.86,0.146c-0.022,0.008-0.045-0.006-0.056-0.027 c-0.01-0.021-0.004-0.046,0.014-0.061c0.392-0.313,0.381-0.821,0.365-0.993c-1.477,0.54-1.704,1.862-1.736,2.145 C33.485,21.3,33.499,21.3,33.514,21.3z"/><path fill="#2962ff" d="M35.004,21.984c0,0,0.183,1.255-1.714,2.007c-0.055-0.476-0.476-0.577-0.687-0.266 c-0.476-0.476-0.192-1.127,0.422-1.008c0-0.788,0.073-1.649,0.568-2.016c0.266,0.871,0.183,2.071,0.183,2.071 S34.096,22.213,35.004,21.984z"/><path fill="#263238" d="M33.29,24.041c-0.009,0-0.018-0.002-0.026-0.007c-0.013-0.008-0.022-0.021-0.024-0.037 c-0.023-0.207-0.128-0.358-0.272-0.394c-0.118-0.025-0.241,0.026-0.324,0.149c-0.008,0.012-0.022,0.02-0.037,0.021 c-0.015,0.002-0.03-0.004-0.04-0.015c-0.249-0.248-0.323-0.571-0.189-0.823c0.108-0.206,0.329-0.312,0.596-0.278 c0.003-0.742,0.08-1.621,0.588-1.997c0.013-0.011,0.03-0.012,0.045-0.008c0.016,0.006,0.027,0.018,0.032,0.033 c0.207,0.678,0.205,1.562,0.193,1.924c0.157-0.186,0.511-0.512,1.158-0.675c0.014-0.004,0.028,0,0.04,0.007 c0.012,0.008,0.02,0.021,0.021,0.035c0.002,0.013,0.167,1.303-1.744,2.061C33.303,24.04,33.296,24.041,33.29,24.041z M32.906,23.496c0.028,0,0.057,0.004,0.086,0.011c0.169,0.041,0.295,0.197,0.337,0.414c1.551-0.638,1.633-1.627,1.628-1.873 c-0.829,0.229-1.135,0.744-1.138,0.75c-0.012,0.02-0.037,0.027-0.058,0.022c-0.022-0.007-0.037-0.028-0.035-0.052 c0-0.011,0.074-1.137-0.161-1.981c-0.434,0.385-0.491,1.229-0.491,1.93c0,0.015-0.006,0.029-0.018,0.039 c-0.012,0.009-0.028,0.014-0.042,0.01c-0.246-0.049-0.45,0.033-0.547,0.218c-0.106,0.199-0.054,0.455,0.132,0.664 C32.683,23.55,32.793,23.496,32.906,23.496z"/><g><path fill="#fafafa" d="M31.833,23.331c0,0,0.871,1.026,1.943,0.422c-0.376,0.962-1.1,1.045-2.117,0.357 C30.642,23.423,31.833,23.331,31.833,23.331z"/><path fill="#263238" d="M32.813,24.61c-0.334,0-0.73-0.153-1.182-0.459c-0.329-0.222-0.468-0.407-0.426-0.567 c0.066-0.253,0.567-0.299,0.624-0.303c0.015-0.003,0.032,0.004,0.042,0.018c0.034,0.04,0.856,0.989,1.88,0.41 c0.018-0.009,0.042-0.008,0.057,0.006c0.016,0.015,0.021,0.036,0.014,0.057c-0.168,0.432-0.413,0.7-0.725,0.797 C33.008,24.597,32.914,24.61,32.813,24.61z M31.812,23.383c-0.143,0.016-0.472,0.08-0.51,0.227 c-0.029,0.109,0.108,0.272,0.385,0.46c0.562,0.378,1.027,0.512,1.38,0.404c0.251-0.079,0.456-0.285,0.608-0.613 C32.721,24.295,31.939,23.52,31.812,23.383z"/></g></g><g><path fill="#757575" d="M32.565,24.77c-0.261-0.092-0.42,0.027-0.42,0.027l-0.494-0.22c0,0,0.037-1.512,0.83-2.584 c0.019-0.257-0.047-0.385-0.047-0.385l-1.807-0.018l0,0h-0.002h-0.001l0,0l-1.807,0.018c0,0-0.065,0.128-0.047,0.385 c0.793,1.072,0.83,2.584,0.83,2.584l-0.494,0.22c0,0-0.159-0.119-0.42-0.027c-0.41,0.174-0.131,0.935-0.131,0.935 s0.187,0,0.327,0c-0.215-0.678,0.243-0.403,0.504,0c0.841-0.039,1.153,0.251,1.228,0.34v0.027c0,0,0.005-0.007,0.011-0.014 c0.006,0.008,0.011,0.014,0.011,0.014v-0.027c0.075-0.088,0.387-0.379,1.228-0.34c0.261-0.403,0.718-0.678,0.504,0 c0.14,0,0.327,0,0.327,0S32.976,24.944,32.565,24.77z"/><path fill="#263238" d="M30.637,26.121c-0.007,0-0.014,0-0.021,0c-0.005,0-0.009-0.001-0.014-0.002 c-0.021-0.006-0.036-0.025-0.036-0.048v-0.008c-0.085-0.091-0.362-0.312-1.027-0.312c-0.048,0-0.097,0.001-0.149,0.003 c-0.001,0-0.001,0-0.002,0c-0.017,0-0.033-0.009-0.042-0.022c-0.172-0.265-0.388-0.411-0.444-0.387 c-0.024,0.012-0.048,0.098,0.03,0.345c0.004,0.015,0.002,0.031-0.007,0.044c-0.01,0.013-0.024,0.021-0.041,0.021h-0.326 c-0.021,0-0.04-0.013-0.047-0.032c-0.012-0.033-0.291-0.808,0.158-0.998c0.228-0.079,0.384-0.016,0.443,0.017l0.439-0.195 c-0.012-0.226-0.109-1.562-0.819-2.522c-0.006-0.007-0.009-0.017-0.01-0.025c-0.02-0.268,0.049-0.405,0.052-0.411 c0.008-0.017,0.025-0.027,0.044-0.027l1.807-0.019l1.811,0.019c0.019,0,0.036,0.011,0.044,0.027 c0.003,0.006,0.072,0.144,0.052,0.411c0,0.009-0.004,0.019-0.01,0.025c-0.709,0.96-0.807,2.297-0.819,2.522l0.439,0.195 c0.06-0.033,0.215-0.098,0.44-0.018c0.001,0,0.002,0,0.003,0.001c0.449,0.19,0.17,0.965,0.158,0.998 c-0.007,0.02-0.026,0.032-0.047,0.032h-0.327c-0.016,0-0.031-0.008-0.041-0.021c-0.009-0.013-0.012-0.029-0.007-0.044 c0.078-0.247,0.054-0.333,0.03-0.345c-0.055-0.024-0.272,0.122-0.443,0.387c-0.009,0.014-0.025,0.022-0.042,0.022 c-0.001,0-0.001,0-0.002,0c-0.052-0.002-0.102-0.003-0.149-0.003c-0.667,0-0.942,0.222-1.027,0.312v0.008 c0,0.021-0.014,0.041-0.035,0.048C30.647,26.12,30.642,26.121,30.637,26.121z M29.536,25.65c0.676,0,0.982,0.225,1.09,0.332 c0.113-0.113,0.444-0.358,1.213-0.329c0.146-0.216,0.4-0.475,0.554-0.398c0.091,0.043,0.105,0.174,0.042,0.399h0.224 c0.046-0.143,0.203-0.703-0.113-0.838c-0.229-0.08-0.366,0.017-0.372,0.021c-0.014,0.012-0.034,0.013-0.05,0.006l-0.495-0.22 c-0.018-0.009-0.03-0.027-0.029-0.047c0-0.016,0.047-1.529,0.831-2.601c0.01-0.165-0.016-0.271-0.032-0.317l-1.773-0.019 l-1.775,0.019c-0.016,0.046-0.042,0.152-0.032,0.317c0.785,1.071,0.831,2.585,0.831,2.601c0,0.02-0.011,0.038-0.029,0.047 l-0.494,0.22c-0.018,0.008-0.036,0.005-0.05-0.006c-0.005-0.004-0.142-0.101-0.374-0.021c-0.314,0.134-0.157,0.695-0.111,0.838 h0.223c-0.063-0.226-0.049-0.356,0.042-0.399c0.15-0.075,0.409,0.183,0.555,0.398C29.456,25.651,29.497,25.65,29.536,25.65z"/></g><g><path fill="#263238" d="M30.581,25.122c-0.002,0-0.004,0-0.007,0c-0.338-0.047-0.999-0.506-1.027-0.525 c-0.022-0.016-0.028-0.047-0.012-0.069c0.015-0.023,0.046-0.028,0.07-0.013c0.006,0.005,0.649,0.451,0.969,0.506 c0.417-0.19,1.051-0.501,1.057-0.504c0.026-0.014,0.055-0.002,0.067,0.022c0.012,0.025,0.002,0.056-0.023,0.067 c-0.006,0.003-0.656,0.321-1.073,0.512C30.595,25.121,30.588,25.122,30.581,25.122z"/></g><g><path fill="#263238" d="M30.635,25.662c-0.008,0-0.016-0.002-0.023-0.006c-0.404-0.21-0.995-0.171-1.003-0.171 c-0.014,0-0.032-0.006-0.043-0.019l-0.482-0.617c-0.017-0.022-0.013-0.054,0.009-0.07c0.022-0.019,0.053-0.012,0.07,0.008 l0.466,0.597c0.122-0.003,0.624-0.015,1.004,0.172c0.359-0.208,0.953-0.243,1.084-0.248l0.376-0.536 c0.016-0.023,0.046-0.029,0.07-0.013c0.022,0.016,0.028,0.047,0.012,0.069l-0.391,0.557c-0.009,0.014-0.024,0.021-0.04,0.021 c-0.007,0-0.715,0.021-1.084,0.249C30.653,25.66,30.645,25.662,30.635,25.662z"/></g><g><path fill="#fafafa" d="M28.711,21.361c0,0,2.392-0.486,3.684,0.046c0.238,0.128,0.293,0.678-0.009,0.605 c-0.302-0.073-2.602-0.257-3.583-0.018C28.455,22.057,28.363,21.508,28.711,21.361z"/><path fill="#263238" d="M32.437,22.068c-0.02,0-0.041-0.003-0.063-0.008c-0.283-0.068-2.585-0.256-3.56-0.019 c-0.169,0.031-0.306-0.057-0.356-0.224c-0.052-0.174,0.012-0.41,0.233-0.503c0.003-0.002,0.006-0.002,0.01-0.003 c0.097-0.02,2.422-0.484,3.713,0.048c0.19,0.103,0.272,0.407,0.207,0.576C32.588,22.021,32.521,22.068,32.437,22.068z M30.253,21.823c0.96,0,1.956,0.095,2.144,0.14c0.065,0.016,0.108-0.004,0.13-0.062c0.049-0.127-0.021-0.378-0.156-0.451 c-1.23-0.507-3.522-0.066-3.645-0.041c-0.164,0.072-0.211,0.249-0.172,0.381c0.014,0.045,0.071,0.186,0.239,0.154 C29.161,21.854,29.702,21.823,30.253,21.823z"/></g><g><path fill="#2962ff" d="M29.215,21.343c0,0-0.247,0.339,0.055,0.522c0.302,0.183,0.651,0,0.651,0s-0.275-0.44-0.073-0.651 C29.554,21.095,29.215,21.343,29.215,21.343z"/><path fill="#263238" d="M29.574,21.997c-0.104,0-0.219-0.022-0.33-0.089c-0.093-0.057-0.149-0.132-0.168-0.225 c-0.036-0.183,0.093-0.362,0.099-0.37c0.003-0.004,0.007-0.008,0.011-0.011c0.014-0.012,0.363-0.268,0.68-0.135 c0.015,0.006,0.026,0.02,0.03,0.035c0.003,0.017-0.001,0.033-0.013,0.045c-0.172,0.181,0.078,0.587,0.08,0.591 c0.007,0.012,0.009,0.026,0.006,0.039c-0.004,0.014-0.013,0.025-0.025,0.031C29.934,21.915,29.774,21.997,29.574,21.997z M29.251,21.379c-0.02,0.03-0.102,0.162-0.077,0.285c0.013,0.065,0.053,0.116,0.122,0.158c0.212,0.128,0.453,0.059,0.554,0.02 c-0.062-0.115-0.194-0.403-0.084-0.601C29.541,21.192,29.294,21.35,29.251,21.379z"/></g><g><path fill="#2962ff" d="M30.571,21.168c0,0,0.092,0.55,0,0.641c0.531,0.101,0.678,0.037,0.678,0.037 s0.367-0.44,0.037-0.632C30.956,21.022,30.571,21.168,30.571,21.168z"/><path fill="#263238" d="M31.07,21.917c-0.109,0-0.272-0.013-0.508-0.059c-0.019-0.003-0.033-0.017-0.039-0.034 s0-0.037,0.013-0.05c0.044-0.044,0.028-0.344-0.014-0.598c-0.004-0.023,0.009-0.046,0.031-0.055 c0.017-0.007,0.411-0.154,0.758,0.049c0.088,0.052,0.141,0.124,0.157,0.214c0.04,0.226-0.172,0.483-0.181,0.494 c-0.005,0.006-0.011,0.011-0.019,0.014C31.26,21.896,31.207,21.917,31.07,21.917z M30.644,21.772 c0.382,0.065,0.536,0.04,0.576,0.031c0.038-0.049,0.178-0.244,0.15-0.401c-0.011-0.062-0.046-0.108-0.109-0.146 c-0.247-0.144-0.531-0.082-0.633-0.054C30.649,21.343,30.684,21.625,30.644,21.772z"/></g><g><path fill="#2962ff" d="M31.909,21.26c0,0,0.192,0.357-0.046,0.669c0.302,0.046,0.541,0.128,0.541,0.128 s0.44-0.275,0.064-0.641C32.276,21.333,31.909,21.26,31.909,21.26z"/><path fill="#263238" d="M32.404,22.107c-0.005,0-0.011-0.001-0.017-0.003c-0.002,0-0.238-0.082-0.531-0.126 c-0.018-0.003-0.032-0.015-0.039-0.031c-0.006-0.017-0.004-0.035,0.007-0.049c0.216-0.282,0.043-0.611,0.042-0.615 c-0.009-0.017-0.008-0.038,0.004-0.053c0.011-0.017,0.03-0.024,0.05-0.02c0.015,0.003,0.374,0.075,0.569,0.159 c0.005,0.002,0.011,0.006,0.015,0.01c0.123,0.12,0.178,0.245,0.165,0.373c-0.022,0.21-0.229,0.342-0.238,0.347 C32.422,22.105,32.413,22.107,32.404,22.107z M31.948,21.892c0.215,0.038,0.386,0.091,0.447,0.11 c0.045-0.033,0.159-0.131,0.173-0.261c0.01-0.093-0.033-0.188-0.128-0.283c-0.128-0.053-0.331-0.103-0.448-0.129 C32.033,21.45,32.076,21.674,31.948,21.892z"/></g><g><path fill="#263238" d="M30.626,25.662c-0.028,0-0.05-0.022-0.05-0.05v-3.749c0-0.027,0.022-0.05,0.05-0.05 s0.05,0.022,0.05,0.05v3.749C30.676,25.64,30.654,25.662,30.626,25.662z"/></g><g><polygon fill="#7b1fa2" points="30.59,22.882 29.884,22.506 29.627,22.781 30.599,23.459 31.497,22.845 31.259,22.534"/><path fill="#263238" d="M30.599,23.509c-0.01,0-0.02-0.003-0.029-0.009l-0.971-0.678c-0.012-0.009-0.02-0.021-0.021-0.036 c-0.001-0.014,0.003-0.028,0.013-0.039l0.257-0.275c0.015-0.017,0.041-0.02,0.06-0.01l0.683,0.363l0.645-0.335 c0.022-0.011,0.048-0.006,0.062,0.014l0.238,0.312c0.008,0.011,0.012,0.024,0.01,0.038c-0.002,0.014-0.01,0.025-0.021,0.033 L30.627,23.5C30.618,23.506,30.608,23.509,30.599,23.509z M29.703,22.773l0.896,0.625l0.826-0.564l-0.181-0.236l-0.631,0.328 c-0.015,0.009-0.032,0.008-0.046,0l-0.672-0.357L29.703,22.773z"/></g><g><polygon fill="#bdbdbd" points="28.583,22.332 30.608,23.725 32.612,22.351 32.404,22.057 30.59,23.359 28.766,22.03"/><path fill="#263238" d="M30.608,23.774c-0.01,0-0.02-0.003-0.028-0.009l-2.025-1.393 c-0.022-0.015-0.028-0.044-0.015-0.067l0.183-0.302c0.007-0.012,0.02-0.02,0.033-0.022c0.013-0.005,0.028,0,0.039,0.009 l1.794,1.307l1.785-1.28c0.011-0.008,0.024-0.014,0.038-0.008c0.013,0.002,0.025,0.009,0.032,0.02l0.208,0.293 c0.008,0.012,0.011,0.024,0.009,0.038c-0.002,0.013-0.01,0.024-0.021,0.032l-2.004,1.374 C30.627,23.771,30.618,23.774,30.608,23.774z M28.65,22.317l1.958,1.347l1.934-1.326l-0.149-0.21l-1.773,1.271 c-0.018,0.012-0.041,0.013-0.059-0.001l-1.78-1.296L28.65,22.317z"/></g></g><g><path fill="#dd2c00" d="M25.633,33.611c0,0-0.097,0.714,0.99,0.649c-0.195,1.201-1.395,1.249-1.395,1.249 s-0.308-0.26-0.292-0.6c0.406-0.276,0.471-1.136,0.471-1.136L25.633,33.611z"/><path fill="#263238" d="M25.228,35.56c-0.012,0-0.023-0.004-0.032-0.012c-0.013-0.011-0.327-0.279-0.31-0.641 c0-0.017,0.009-0.03,0.021-0.039c0.382-0.259,0.449-1.09,0.449-1.099c0.001-0.015,0.009-0.028,0.021-0.037l0.227-0.162 c0.016-0.012,0.037-0.014,0.055-0.002c0.017,0.011,0.026,0.03,0.024,0.05c0,0.002-0.026,0.212,0.13,0.38 c0.153,0.163,0.426,0.235,0.807,0.213c0.016,0.006,0.03,0.005,0.04,0.017c0.01,0.011,0.015,0.026,0.012,0.041 c-0.199,1.227-1.43,1.291-1.443,1.291C25.229,35.56,25.228,35.56,25.228,35.56z M24.985,34.936c0,0.26,0.204,0.47,0.261,0.523 c0.156-0.013,1.116-0.127,1.317-1.146c-0.38,0.008-0.659-0.07-0.824-0.249c-0.114-0.123-0.147-0.264-0.155-0.356l-0.129,0.093 C25.44,33.943,25.354,34.66,24.985,34.936z"/></g><g><path fill="#dd2c00" d="M36.229,33.417c0,0,0.097,0.714-0.99,0.649c0.195,1.201,1.395,1.249,1.395,1.249 s0.308-0.26,0.292-0.6c-0.406-0.276-0.471-1.136-0.471-1.136L36.229,33.417z"/><path fill="#263238" d="M36.634,35.365c0,0-0.001,0-0.002,0c-0.013,0-1.244-0.064-1.443-1.292 c-0.002-0.015,0.002-0.03,0.012-0.041c0.01-0.012,0.023-0.013,0.04-0.017c0.386,0.023,0.655-0.05,0.809-0.214 c0.156-0.168,0.129-0.376,0.129-0.378c-0.003-0.02,0.006-0.039,0.023-0.05c0.017-0.012,0.038-0.01,0.055,0.002l0.227,0.162 c0.012,0.009,0.02,0.022,0.021,0.037c0,0.009,0.068,0.839,0.449,1.099c0.013,0.009,0.021,0.023,0.021,0.039 c0.017,0.361-0.297,0.63-0.31,0.641C36.657,35.361,36.646,35.365,36.634,35.365z M35.299,34.118 c0.2,1.009,1.166,1.133,1.317,1.146c0.057-0.053,0.26-0.263,0.261-0.522c-0.369-0.276-0.456-0.992-0.469-1.135l-0.129-0.093 c-0.008,0.093-0.041,0.233-0.155,0.356C35.958,34.048,35.676,34.131,35.299,34.118z"/></g><g><ellipse cx="26.187" cy="23.987" fill="#fafafa" rx=".213" ry=".103" transform="rotate(-14.175 26.183 23.983)"/><path fill="#263238" d="M26.114,24.15c-0.05,0-0.094-0.01-0.126-0.029c-0.029-0.018-0.048-0.041-0.055-0.069 c-0.021-0.086,0.072-0.178,0.217-0.214c0.093-0.024,0.182-0.019,0.238,0.015c0.028,0.018,0.047,0.042,0.054,0.07 c0.007,0.028,0.002,0.059-0.015,0.087c-0.033,0.056-0.109,0.103-0.202,0.126C26.186,24.146,26.148,24.15,26.114,24.15z M26.26,23.924c-0.025,0-0.055,0.003-0.086,0.012c-0.102,0.025-0.148,0.078-0.145,0.092c0.035,0.022,0.098,0.03,0.171,0.011 c0.076-0.019,0.126-0.054,0.141-0.08l0.004-0.012c0-0.001-0.002-0.004-0.009-0.008C26.322,23.93,26.295,23.924,26.26,23.924z"/></g></svg>