<svg xmlns="http://www.w3.org/2000/svg"  viewBox="0 0 48 48" width="500px" height="500px"><path fill="#c62828" d="M44,24c0,2.28-0.38,4.46-1.09,6.5L26,43.9c-0.66,0.07-1.32,0.1-2,0.1C12.95,44,4,35.05,4,24 S12.95,4,24,4c0.66,0,1.32,0.03,1.96,0.09L42.91,17.5C43.62,19.54,44,21.72,44,24z"/><path fill="#e0e1e2" d="M42.91,17.5H25.96V4.09C33.87,4.87,40.42,10.23,42.91,17.5z"/><path fill="#2e7d32" d="M42.91,30.5C40.43,37.75,33.89,43.12,26,43.9V30.5H42.91z"/><path fill="#e0e1e2" d="M19.704,18.58l-0.093,0.034c-0.56-0.458-2.561-2.34-2.739-2.518c0.034-0.144,0.076-0.28,0.076-0.449 v-0.28c0.144-0.187,0.28-0.356,0.407-0.517h0.068V14.9c0,0.161,0.22,0.297,0.5,0.297c0.22,0,0.407-0.085,0.475-0.203h0.263v0.178 c0,0.093,0.085,0.17,0.187,0.17h1.814c0.102,0,0.187-0.076,0.187-0.17v-0.856c0-0.093-0.085-0.17-0.187-0.17h-1.814 c-0.102,0-0.187,0.076-0.187,0.17v0.178h-0.246c-0.042-0.136-0.237-0.246-0.492-0.246c-0.017,0-0.034,0.008-0.051,0.008 c1.204-2.077,2.001-3.841,1.781-3.943s-1.374,1.501-2.577,3.578l0.076,0.034c-0.068,0.093-0.127,0.187-0.203,0.288l-0.008-1.212 c-0.246,0-0.415-0.153-0.415-0.305h-0.059v-0.297h-0.059v-0.594h-0.059v-0.398h0.017v-0.22c0.017,0,0.025-0.017,0.042-0.017 l0.008-0.008c0.093-0.025,0.178-0.059,0.237-0.102c0,0,0-0.008-0.008-0.017c0.059-0.042,0.11-0.093,0.136-0.153 c0.017,0,0.034,0.017,0.051,0.017c0.093,0,0.17-0.068,0.17-0.153c0-0.076-0.076-0.144-0.17-0.144c-0.017,0-0.025,0.008-0.034,0.008 c-0.025-0.076-0.076-0.144-0.153-0.204l0.008-0.008c-0.059-0.042-0.144-0.076-0.237-0.11h-0.008 c-0.034-0.008-0.068-0.017-0.102-0.025c0-0.008,0-0.008,0-0.017c0-0.076-0.076-0.144-0.17-0.144c-0.093,0-0.17,0.068-0.17,0.144 c0,0.008,0,0.008,0,0.017c-0.034,0.008-0.068,0.017-0.102,0.025h-0.008c-0.093,0.034-0.178,0.068-0.237,0.11l0.008,0.008 c-0.076,0.059-0.127,0.127-0.153,0.204c-0.008,0-0.017-0.008-0.034-0.008c-0.093,0-0.17,0.068-0.17,0.144 c0,0.085,0.076,0.153,0.17,0.153c0.017,0,0.034-0.017,0.051-0.017c0.025,0.059,0.076,0.11,0.136,0.153 c-0.008,0.008-0.008,0.017-0.008,0.017c0.042,0.051,0.127,0.093,0.229,0.119v0.229h0.017v0.398h-0.059v0.594h-0.059v0.305h-0.059 c0,0.144-0.17,0.297-0.415,0.297c0,0,0,1.128,0,1.238c-0.085-0.119-0.153-0.212-0.22-0.314l0.076-0.034 c-1.204-2.077-2.366-3.68-2.578-3.578c-0.22,0.102,0.56,1.831,1.747,3.883h-0.008c-0.246,0-0.449,0.11-0.483,0.246h-0.271v-0.127 c0-0.093-0.076-0.17-0.178-0.17h-1.823c-0.093,0-0.178,0.076-0.178,0.17v0.856c0,0.093,0.085,0.17,0.178,0.17h1.823 c0.102,0,0.178-0.076,0.178-0.17v-0.229h0.288c0.068,0.119,0.246,0.203,0.466,0.203c0.229,0,0.407-0.085,0.475-0.203 c0.051,0.042,0.119,0.076,0.195,0.076c0.008,0,0.008,0,0.008-0.008c0.085,0.11,0.178,0.22,0.271,0.331 c-0.017,0.17-0.042,0.271-0.085,0.305H14.88c-0.008,0.008-0.008,0.017-0.008,0.025c-0.424,0.025-1.28,0.042-2.009,0.11V15.74 l-0.331,0.051c-0.008,0.008-0.008,0.017-0.008,0.025c-0.5,0.059-0.89,0.161-0.89,0.322c0,0.187,0.381,0.365,0.89,0.526 c0,0.008,0,0.017,0.008,0.025l0.331,0.102v-0.034c0.475,0.119,1.017,0.229,1.492,0.297c-0.712,0.67-1.306,1.179-1.764,1.56 l-0.102-0.034c-0.729,0.805-1.509,1.153-1.229,1.297c0.085,0.051,0.246,0.034,0.432-0.008c0.034-0.008,0.068-0.025,0.102-0.034 c0.449-0.127,1.06-0.449,1.645-1l-0.025-0.008c0.577-0.458,1.221-1.043,1.882-1.687c0.543-0.008,0.958-0.127,1.229-0.373 c0.042,0.042,0.076,0.076,0.119,0.119c0.755,0.755,1.492,1.424,2.137,1.942l-0.025,0.008c0.585,0.551,1.204,0.873,1.645,1 c0.034,0.008,0.076,0.025,0.102,0.034c0.195,0.042,0.356,0.059,0.441,0.008C21.222,19.733,20.433,19.386,19.704,18.58z M17.78,14.222l0.076,0.034c-0.034,0-0.076,0.008-0.11,0.008C17.754,14.248,17.771,14.239,17.78,14.222z M17.619,14.824 c0.017-0.008,0.025-0.017,0.025-0.034v-0.187c0-0.017-0.008-0.017-0.017-0.025c0.017-0.119,0.136-0.22,0.297-0.22 c0.127,0,0.212,0.068,0.254,0.153c-0.017,0.008-0.034,0.034-0.034,0.076v0.322c0,0.025,0.017,0.034,0.025,0.051 c-0.051,0.068-0.136,0.127-0.246,0.127c-0.17,0-0.305-0.11-0.305-0.237V14.824z M14.532,14.892h0.008 c-0.051,0.076-0.136,0.144-0.254,0.144c-0.11,0-0.195-0.059-0.246-0.136c0.008-0.008,0.025-0.017,0.025-0.042v-0.322 c0-0.042-0.017-0.059-0.034-0.076c0.042-0.085,0.127-0.153,0.254-0.153c0.144,0,0.254,0.085,0.28,0.187h-0.034 c-0.008,0-0.017,0.034-0.017,0.076v0.254C14.515,14.867,14.524,14.892,14.532,14.892z"/></svg>