<svg xmlns="http://www.w3.org/2000/svg"  viewBox="0 0 48 48" width="30px" height="30px"><path fill="#7cb342" d="M42.838,30.667H12V31v2v2v2v2v0.973C15.345,42.49,19.491,44,24,44 C32.704,44,40.089,38.429,42.838,30.667z"/><rect width="2" height="2" x="10" y="17" fill="#eceff1"/><rect width="2" height="2" x="10" y="13" fill="#eceff1"/><rect width="2" height="2" x="8" y="15" fill="#eceff1"/><rect width="2" height="2" x="8" y="23" fill="#eceff1"/><rect width="2" height="2" x="10" y="21" fill="#eceff1"/><rect width="2" height="2" x="10" y="25" fill="#eceff1"/><rect width="2" height="2" x="8" y="27" fill="#eceff1"/><rect width="2" height="2" x="8" y="19" fill="#eceff1"/><rect width="2" height="2" x="6" y="17" fill="#eceff1"/><rect width="2" height="2" x="10" y="33" fill="#eceff1"/><path fill="#eceff1" d="M6,15.326C5.737,15.871,5.498,16.429,5.284,17H6V15.326z"/><polygon fill="#eceff1" points="10,29 10,31 12,31 12,30.667 12,29"/><path fill="#eceff1" d="M12,11V9h-1.198C10.531,9.239,10.258,9.476,10,9.729V11H12z"/><path fill="#eceff1" d="M5.284,31C5.498,31.571,5.737,32.129,6,32.674V31H5.284z"/><rect width="2" height="2" x="8" y="31" fill="#eceff1"/><path fill="#eceff1" d="M6,27H4.249c0.102,0.679,0.238,1.345,0.407,2H6V27z"/><path fill="#eceff1" d="M6,23H4.05C4.034,23.333,4,23.662,4,24s0.034,0.667,0.05,1H6V23z"/><path fill="#eceff1" d="M10,13v-2H8.82C8.533,11.335,8.264,11.683,8,12.036V13H10z"/><rect width="2" height="2" x="6" y="21" fill="#eceff1"/><path fill="#eceff1" d="M6,19H4.656c-0.169,0.655-0.304,1.321-0.407,2H6V19z"/><path fill="#eceff1" d="M8,33H6.157c0.348,0.689,0.725,1.36,1.148,2H8V33z"/><path fill="#eceff1" d="M10,35H8v0.964C8.264,36.317,8.533,36.665,8.82,37H10V35z"/><path fill="#eceff1" d="M8,13H7.305c-0.423,0.64-0.8,1.311-1.148,2H8V13z"/><rect width="2" height="2" x="6" y="29" fill="#eceff1"/><rect width="2" height="2" x="6" y="25" fill="#eceff1"/><path fill="#eceff1" d="M12,37h-2v1.271c0.258,0.253,0.531,0.49,0.802,0.729H12V37z"/><path fill="#ff3d00" d="M8,12.036C7.763,12.354,7.524,12.669,7.305,13H8V12.036z"/><path fill="#ff3d00" d="M10,9.729C9.587,10.134,9.197,10.56,8.82,11H10V9.729z"/><path fill="#ff3d00" d="M12,8.027C11.588,8.337,11.188,8.66,10.802,9H12V8.027z"/><rect width="2" height="2" x="10" y="11" fill="#ff3d00"/><path fill="#ff3d00" d="M8,17v-2H6.157C6.103,15.108,6.052,15.217,6,15.326V17H8z"/><rect width="2" height="2" x="8" y="13" fill="#ff3d00"/><rect width="2" height="2" x="10" y="15" fill="#ff3d00"/><path fill="#ff3d00" d="M6,17H5.284c-0.244,0.652-0.453,1.318-0.629,2H6V17z"/><rect width="2" height="2" x="6" y="19" fill="#ff3d00"/><rect width="2" height="2" x="8" y="17" fill="#ff3d00"/><rect width="2" height="2" x="10" y="19" fill="#ff3d00"/><path fill="#ff3d00" d="M6,21H4.249c-0.099,0.657-0.165,1.324-0.199,2H6V21z"/><rect width="2" height="2" x="6" y="23" fill="#ff3d00"/><rect width="2" height="2" x="8" y="21" fill="#ff3d00"/><rect width="2" height="2" x="10" y="23" fill="#ff3d00"/><path fill="#ff3d00" d="M6,25H4.05c0.034,0.676,0.099,1.343,0.199,2H6V25z"/><rect width="2" height="2" x="6" y="27" fill="#ff3d00"/><rect width="2" height="2" x="8" y="25" fill="#ff3d00"/><rect width="2" height="2" x="10" y="27" fill="#ff3d00"/><path fill="#ff3d00" d="M6,29H4.656c0.176,0.682,0.385,1.348,0.629,2H6V29z"/><path fill="#ff3d00" d="M8,31H6v1.674C6.052,32.783,6.103,32.892,6.157,33H8V31z"/><rect width="2" height="2" x="8" y="29" fill="#ff3d00"/><rect width="2" height="2" x="10" y="31" fill="#ff3d00"/><path fill="#ff3d00" d="M7.305,35C7.524,35.331,7.763,35.646,8,35.964V35H7.305z"/><rect width="2" height="2" x="8" y="33" fill="#ff3d00"/><rect width="2" height="2" x="10" y="35" fill="#ff3d00"/><path fill="#ff3d00" d="M8.82,37c0.377,0.439,0.767,0.866,1.18,1.271V37H8.82z"/><path fill="#ff3d00" d="M10.802,39c0.386,0.34,0.786,0.663,1.198,0.973V39H10.802z"/><path fill="#ff3d00" d="M12,11v2v2v2v2v2v2v2v2v2v1.667h30.838C43.577,28.579,44,26.341,44,24c0-11.046-8.954-20-20-20 c-4.509,0-8.655,1.51-12,4.027V9V11z"/></svg>