<svg xmlns="http://www.w3.org/2000/svg"  viewBox="0 0 48 48" width="50px" height="50px"><path fill="#ff6d00" d="M24,4C15.296,4,7.911,9.571,5.162,17.333h37.675C40.089,9.571,32.704,4,24,4z"/><path fill="#eceff1" d="M42.838,30.667C43.577,28.579,44,26.341,44,24c0-2.341-0.423-4.579-1.162-6.667H5.162 C4.423,19.421,4,21.659,4,24c0,2.341,0.423,4.579,1.162,6.667H42.838z"/><circle cx="24" cy="24" r="5" fill="#ff6d00"/><path fill="#00c853" d="M23.999,44h0.002c8.704,0,16.088-5.571,18.836-13.333H5.162C7.911,38.429,15.295,43.999,23.999,44z"/></svg>