<svg xmlns="http://www.w3.org/2000/svg"  viewBox="0 0 48 48" width="500px" height="500px"><path fill="#eceff1" d="M44,24c0,11.046-8.954,20-20,20S4,35.046,4,24c0-2.216,0.36-4.348,1.026-6.341 C6.311,13.812,14.489,11,14.489,11s0.04-4.693,1.507-5.334C18.447,4.594,21.154,4,24,4C35.046,4,44,12.954,44,24z"/><path fill="#283593" d="M35.565,38.486c-1.731,0-2.66,0.609-3.407,1.099c-0.642,0.421-1.106,0.725-2.156,0.725 c-1.05,0-1.514-0.304-2.155-0.725c-0.746-0.489-1.675-1.099-3.405-1.099c-1.731,0-2.66,0.609-3.407,1.099 c-0.642,0.421-1.106,0.725-2.156,0.725c-1.051,0-1.514-0.304-2.156-0.725c-0.746-0.489-1.675-1.099-3.406-1.099 c-1.095,0-1.869,0.244-2.479,0.548c0.724,0.635,1.49,1.22,2.301,1.746c0.063-0.003,0.11-0.014,0.178-0.014 c1.05,0,1.514,0.304,2.156,0.725c0.746,0.489,1.675,1.099,3.407,1.099s2.66-0.609,3.407-1.099 c0.642-0.421,1.106-0.725,2.156-0.725c1.05,0,1.513,0.304,2.155,0.725c0.746,0.49,1.675,1.099,3.406,1.099 c1.731,0,2.66-0.609,3.406-1.099c0.438-0.287,0.804-0.511,1.318-0.63c0.965-0.615,1.868-1.312,2.71-2.078 C36.932,38.608,36.33,38.486,35.565,38.486z"/><path fill="#283593" d="M13.317,34.288c1.05,0,1.514,0.304,2.156,0.725c0.746,0.489,1.675,1.099,3.407,1.099 s2.66-0.609,3.407-1.099c0.642-0.421,1.106-0.725,2.156-0.725c1.05,0,1.513,0.304,2.155,0.725c0.746,0.49,1.675,1.099,3.406,1.099 c1.731,0,2.66-0.609,3.406-1.099c0.642-0.421,1.106-0.725,2.156-0.725s1.515,0.304,2.157,0.725c0.559,0.366,1.221,0.8,2.245,0.995 c0.528-0.701,1.018-1.43,1.452-2.199c-0.098,0.006-0.179,0.023-0.289,0.023c-1.051,0-1.515-0.304-2.157-0.725 c-0.747-0.489-1.676-1.099-3.407-1.099s-2.66,0.609-3.407,1.099c-0.642,0.421-1.106,0.725-2.156,0.725 c-1.05,0-1.514-0.304-2.155-0.725c-0.746-0.489-1.675-1.099-3.405-1.099c-1.731,0-2.66,0.609-3.407,1.099 c-0.642,0.421-1.106,0.725-2.156,0.725c-1.051,0-1.514-0.304-2.156-0.725c-0.746-0.489-1.675-1.099-3.406-1.099 c-1.731,0-2.66,0.609-3.406,1.099c-0.642,0.421-1.106,0.725-2.156,0.725c-0.567,0-0.96-0.094-1.306-0.242 c0.483,0.882,1.045,1.712,1.651,2.507c1.507-0.076,2.367-0.628,3.061-1.083C11.803,34.593,12.267,34.288,13.317,34.288z"/><path fill="#283593" d="M15.473,8.691c0.746,0.489,1.675,1.099,3.407,1.099s2.66-0.609,3.407-1.099 c0.642-0.421,1.106-0.725,2.156-0.725c1.05,0,1.513,0.304,2.155,0.725c0.746,0.49,1.675,1.099,3.406,1.099 c1.731,0,2.66-0.609,3.406-1.099c0.642-0.421,1.106-0.725,2.156-0.725c0.15,0,0.266,0.019,0.395,0.031 c-0.893-0.669-1.838-1.267-2.838-1.781c-0.37,0.18-0.68,0.383-0.963,0.569c-0.642,0.421-1.106,0.725-2.156,0.725 c-1.05,0-1.514-0.304-2.155-0.725c-0.746-0.489-1.675-1.099-3.405-1.099c-1.731,0-2.66,0.609-3.407,1.099 c-0.642,0.421-1.106,0.725-2.156,0.725c-1.051,0-1.514-0.304-2.156-0.725c-0.347-0.227-0.738-0.479-1.226-0.685 c-0.371,0.509-0.604,1.336-0.752,2.169C14.989,8.386,15.22,8.525,15.473,8.691z"/><path fill="#283593" d="M7.755,29.222c1.731,0,2.66-0.609,3.406-1.099c0.642-0.421,1.106-0.725,2.156-0.725 s1.514,0.304,2.156,0.725c0.746,0.489,1.675,1.099,3.407,1.099s2.66-0.609,3.407-1.099c0.642-0.421,1.106-0.725,2.156-0.725 c1.05,0,1.513,0.304,2.155,0.725c0.746,0.49,1.675,1.099,3.406,1.099c1.731,0,2.66-0.609,3.406-1.099 c0.642-0.421,1.106-0.725,2.156-0.725s1.515,0.304,2.157,0.725c0.747,0.489,1.676,1.099,3.408,1.099 c0.98,0,1.697-0.197,2.275-0.456c0.234-0.956,0.412-1.933,0.503-2.938c-0.226,0.129-0.431,0.263-0.623,0.388 c-0.642,0.421-1.106,0.725-2.156,0.725c-1.051,0-1.515-0.304-2.157-0.725c-0.747-0.489-1.676-1.099-3.407-1.099 s-2.66,0.609-3.407,1.099c-0.642,0.421-1.106,0.725-2.156,0.725c-1.05,0-1.514-0.304-2.155-0.725 c-0.746-0.489-1.675-1.099-3.405-1.099c-1.731,0-2.66,0.609-3.407,1.099c-0.642,0.421-1.106,0.725-2.156,0.725 c-1.051,0-1.514-0.304-2.156-0.725c-0.746-0.489-1.675-1.099-3.406-1.099c-1.731,0-2.66,0.609-3.406,1.099 c-0.642,0.421-1.106,0.725-2.156,0.725s-1.514-0.304-2.156-0.725c-0.415-0.272-0.893-0.578-1.527-0.799 c0.066,0.942,0.183,1.868,0.375,2.769C5.177,28.664,6.097,29.222,7.755,29.222z"/><path fill="#283593" d="M32.158,13.262c-0.642,0.421-1.106,0.725-2.156,0.725c-1.05,0-1.514-0.304-2.155-0.725 c-0.746-0.489-1.675-1.099-3.405-1.099c-1.731,0-2.66,0.609-3.407,1.099c-0.642,0.421-1.106,0.725-2.156,0.725 c-1.051,0-1.514-0.304-2.156-0.725c-0.746-0.489-1.675-1.099-3.406-1.099c-1.731,0-2.66,0.609-3.406,1.099 c-0.463,0.304-0.84,0.542-1.405,0.654c-0.949,0.625-1.823,1.333-2.483,2.102c0.476,0.149,1.038,0.25,1.732,0.25 c1.731,0,2.66-0.609,3.406-1.099c0.642-0.421,1.106-0.725,2.156-0.725s1.514,0.304,2.156,0.725 c0.746,0.489,1.675,1.099,3.407,1.099s2.66-0.609,3.407-1.099c0.642-0.421,1.106-0.725,2.156-0.725 c1.05,0,1.513,0.304,2.155,0.725c0.746,0.49,1.675,1.099,3.406,1.099c1.731,0,2.66-0.609,3.406-1.099 c0.642-0.421,1.106-0.725,2.156-0.725s1.515,0.304,2.157,0.725c0.747,0.489,1.676,1.099,3.408,1.099 c0.48,0,0.893-0.05,1.263-0.128c-0.321-0.749-0.698-1.466-1.104-2.164c-0.057,0.002-0.098,0.012-0.158,0.012 c-1.051,0-1.515-0.304-2.157-0.725c-0.747-0.489-1.676-1.099-3.407-1.099S32.905,12.772,32.158,13.262z"/><path fill="#283593" d="M4.348,21.646c0.746,0.489,1.675,1.099,3.407,1.099c1.731,0,2.66-0.609,3.406-1.099 c0.642-0.421,1.106-0.725,2.156-0.725s1.514,0.304,2.156,0.725c0.746,0.489,1.675,1.099,3.407,1.099s2.66-0.609,3.407-1.099 c0.642-0.421,1.106-0.725,2.156-0.725c1.05,0,1.513,0.304,2.155,0.725c0.746,0.49,1.675,1.099,3.406,1.099 c1.731,0,2.66-0.609,3.406-1.099c0.642-0.421,1.106-0.725,2.156-0.725s1.515,0.304,2.157,0.725 c0.747,0.489,1.676,1.099,3.408,1.099c1.279,0,2.119-0.333,2.772-0.704c-0.081-0.831-0.223-1.642-0.402-2.44 c-0.073,0.047-0.145,0.093-0.214,0.139c-0.642,0.421-1.106,0.725-2.156,0.725c-1.051,0-1.515-0.304-2.157-0.725 c-0.747-0.489-1.676-1.099-3.407-1.099s-2.66,0.609-3.407,1.099c-0.642,0.421-1.106,0.725-2.156,0.725 c-1.05,0-1.514-0.304-2.155-0.725c-0.746-0.489-1.675-1.099-3.405-1.099c-1.731,0-2.66,0.609-3.407,1.099 c-0.642,0.421-1.106,0.725-2.156,0.725c-1.051,0-1.514-0.304-2.156-0.725c-0.746-0.489-1.675-1.099-3.406-1.099 c-1.731,0-2.66,0.609-3.406,1.099c-0.642,0.421-1.106,0.725-2.156,0.725s-1.514-0.304-2.156-0.725 c-0.294-0.193-0.618-0.402-1.006-0.588c-0.193,0.775-0.326,1.572-0.425,2.38C4.228,21.57,4.285,21.604,4.348,21.646z"/><path fill="#8d6e63" d="M34.754,37.34h-0.004c-0.225,0-0.408-0.183-0.408-0.408V20.035c0-0.225,0.183-0.408,0.408-0.408 h0.004c0.225,0,0.408,0.183,0.408,0.408v16.897C35.162,37.157,34.98,37.34,34.754,37.34z"/><path fill="#263238" d="M34.754,37.39h-0.003c-0.253,0-0.458-0.205-0.458-0.458V20.035c0-0.253,0.205-0.458,0.458-0.458 c0.256,0,0.461,0.205,0.461,0.458v16.896C35.212,37.185,35.007,37.39,34.754,37.39z M34.754,19.677 c-0.2,0-0.361,0.161-0.361,0.358v16.896c0,0.197,0.161,0.358,0.358,0.358h0.003c0.197,0,0.358-0.161,0.358-0.358V20.035 C35.112,19.838,34.951,19.677,34.754,19.677z"/><path fill="#d32f2f" d="M37.538,28.408c0,0-0.327-0.69-0.926-0.626c-0.279-0.405-1.01-0.722-1.942-0.158 c-0.92-0.564-1.642-0.247-1.917,0.158c-0.591-0.065-0.914,0.626-0.914,0.626l0.535,1.424l2.296-0.18l2.325,0.18L37.538,28.408z"/><path fill="#263238" d="M32.342,29.885l-0.014-0.035l-0.543-1.443l0.01-0.02c0.013-0.028,0.315-0.659,0.88-0.659 c0.019,0,0.036,0.001,0.055,0.002c0.279-0.381,1.004-0.723,1.941-0.164c0.949-0.558,1.683-0.217,1.966,0.164 c0.019-0.001,0.037-0.002,0.056-0.002c0.572,0,0.878,0.631,0.891,0.659l0.01,0.02l-0.008,0.02l-0.556,1.459l-2.362-0.183 L32.342,29.885z M34.667,29.603l2.296,0.177l0.521-1.368c-0.057-0.106-0.364-0.633-0.866-0.579l-0.029,0.003l-0.017-0.024 c-0.249-0.361-0.953-0.699-1.875-0.144l-0.025,0.016l-0.026-0.016c-0.852-0.521-1.556-0.29-1.85,0.144l-0.017,0.024l-0.03-0.003 c-0.023-0.003-0.047-0.004-0.07-0.004c-0.454,0-0.73,0.482-0.783,0.583l0.514,1.368L34.667,29.603z"/><path fill="#ffca28" d="M32.207,29.746l0.129,0.971c0,0,3.765-0.162,4.757,0.022c0.065-0.485,0.086-1.014,0.086-1.014 S33.965,29.562,32.207,29.746z"/><path fill="#263238" d="M37.094,30.788c-0.003,0-0.006,0-0.009-0.001c-0.978-0.181-4.709-0.021-4.747-0.021 c-0.001,0-0.001,0-0.002,0c-0.025,0-0.046-0.019-0.05-0.043l-0.129-0.971c-0.002-0.014,0.002-0.027,0.011-0.038 c0.008-0.011,0.021-0.017,0.034-0.019c1.741-0.182,4.947-0.025,4.98-0.022c0.027,0.001,0.048,0.024,0.047,0.052 c0,0.006-0.022,0.537-0.086,1.02c-0.002,0.014-0.01,0.025-0.021,0.033C37.114,30.785,37.104,30.788,37.094,30.788z M35.233,30.6 c0.743,0,1.438,0.021,1.817,0.081c0.048-0.378,0.07-0.773,0.076-0.909c-0.408-0.019-3.241-0.143-4.863,0.02l0.116,0.874 C32.655,30.653,34.009,30.6,35.233,30.6z"/><path fill="#ffca28" d="M31.592,28.214l0.669-0.119l-0.194,0.863l0.399-0.572l0.205,0.734l-0.496-0.054 c0,0,0.475,0.809,0.949,0.173c-0.108-0.183-0.324-0.507-0.324-0.507l0.302-0.076c0,0-0.108-0.291,0.129-0.658 c0.183,0.205,0.216,0.518,0.173,0.69c0.248-0.032,0.302-0.032,0.302-0.032l-0.291,0.572c0,0,0.744,0.615,1.154-0.27 c-0.302,0.129-0.496,0.216-0.496,0.216l0.011-0.852l0.442,0.324l-0.28-0.593l0.96-0.022l-0.356,0.604l0.529-0.356l-0.022,0.885 l-0.496-0.237c0,0,0.345,0.982,1.133,0.259c-0.065-0.14-0.28-0.561-0.28-0.561l0.313,0.076c0,0-0.14-0.399,0.183-0.701 c0.259,0.41,0.108,0.744,0.108,0.744l0.399-0.129l-0.432,0.615c0,0,0.248,0.647,0.917-0.108c-0.248,0.054-0.464,0.043-0.464,0.043 l0.216-0.788l0.356,0.518l-0.054-0.831l0.55,0.183l-0.658,1.575H32.25L31.592,28.214z"/><path fill="#263238" d="M37.147,29.871H32.25c-0.021,0-0.039-0.012-0.046-0.031l-0.658-1.607 c-0.006-0.014-0.005-0.029,0.002-0.043c0.008-0.013,0.021-0.022,0.035-0.024l0.669-0.119c0.016-0.007,0.033,0.001,0.045,0.015 c0.012,0.012,0.017,0.029,0.013,0.045l-0.139,0.615l0.254-0.362c0.012-0.016,0.028-0.027,0.05-0.021 c0.019,0.003,0.034,0.017,0.039,0.035l0.205,0.733c0.005,0.017,0.001,0.033-0.01,0.046c-0.01,0.012-0.023,0.018-0.038,0.018 c-0.002,0-0.004,0-0.005,0l-0.39-0.042c0.084,0.112,0.249,0.294,0.438,0.305c0.006,0,0.011,0,0.017,0 c0.115,0,0.227-0.066,0.332-0.198c-0.11-0.183-0.304-0.472-0.306-0.476c-0.009-0.013-0.011-0.03-0.005-0.045 c0.006-0.016,0.019-0.027,0.035-0.031l0.252-0.062c-0.021-0.105-0.041-0.354,0.149-0.649c0.01-0.014,0.027-0.017,0.042-0.022 c0.014,0,0.027,0.006,0.037,0.017c0.166,0.186,0.223,0.465,0.197,0.665c0.188-0.022,0.235-0.023,0.24-0.023 c0.018,0,0.033,0.009,0.043,0.023c0.009,0.015,0.01,0.033,0.002,0.049l-0.272,0.534c0.088,0.062,0.339,0.217,0.596,0.16 c0.15-0.034,0.28-0.14,0.385-0.313c-0.227,0.099-0.365,0.16-0.365,0.16c-0.016,0.008-0.034,0.005-0.048-0.004 c-0.015-0.01-0.022-0.025-0.022-0.043l0.011-0.853c0-0.019,0.011-0.035,0.027-0.044c0.017-0.007,0.037-0.007,0.052,0.005 l0.283,0.207L34.2,28.073c-0.008-0.016-0.007-0.033,0.002-0.048c0.01-0.015,0.025-0.023,0.042-0.023l0.961-0.021h0.001 c0.018,0,0.034,0.009,0.043,0.024c0.01,0.016,0.01,0.035,0,0.051l-0.244,0.414l0.345-0.232c0.017-0.01,0.035-0.011,0.053-0.003 c0.016,0.009,0.026,0.026,0.025,0.045l-0.021,0.885c0,0.018-0.009,0.033-0.023,0.042c-0.015,0.01-0.033,0.011-0.048,0.002 l-0.371-0.178c0.067,0.126,0.196,0.31,0.39,0.357c0.175,0.048,0.367-0.029,0.579-0.216c-0.077-0.161-0.262-0.521-0.265-0.525 c-0.009-0.017-0.007-0.038,0.006-0.054c0.012-0.015,0.029-0.022,0.051-0.018l0.232,0.057c-0.025-0.142-0.038-0.433,0.218-0.67 c0.011-0.01,0.018-0.016,0.041-0.014c0.015,0.002,0.027,0.011,0.035,0.023c0.188,0.299,0.171,0.559,0.142,0.693l0.308-0.1 c0.021-0.005,0.043,0.001,0.056,0.019c0.013,0.017,0.014,0.04,0.001,0.058l-0.415,0.591c0.026,0.053,0.102,0.176,0.235,0.199 c0.127,0.025,0.299-0.057,0.483-0.236c-0.181,0.023-0.318,0.017-0.326,0.018c-0.015-0.001-0.028-0.008-0.037-0.021 c-0.01-0.013-0.012-0.028-0.008-0.043l0.216-0.787c0.005-0.019,0.021-0.032,0.039-0.035c0.017-0.01,0.039,0.004,0.05,0.021 l0.254,0.368l-0.043-0.65c-0.001-0.017,0.006-0.032,0.02-0.043c0.013-0.01,0.03-0.012,0.046-0.008l0.551,0.184 c0.014,0.005,0.024,0.015,0.03,0.027s0.006,0.027,0,0.04l-0.658,1.575C37.186,29.859,37.168,29.871,37.147,29.871z M32.283,29.771 h4.831l0.624-1.495l-0.429-0.143l0.05,0.757c0.002,0.022-0.012,0.043-0.033,0.05s-0.045,0-0.058-0.019l-0.296-0.429l-0.17,0.621 c0.08-0.001,0.228-0.009,0.388-0.043c0.023-0.004,0.043,0.005,0.054,0.023s0.009,0.042-0.006,0.059 c-0.252,0.285-0.482,0.413-0.68,0.377c-0.226-0.041-0.317-0.275-0.321-0.285c-0.006-0.016-0.004-0.032,0.006-0.046l0.346-0.492 l-0.257,0.083c-0.02,0.003-0.04,0-0.053-0.015c-0.014-0.015-0.017-0.036-0.009-0.054c0.006-0.012,0.124-0.288-0.071-0.643 c-0.239,0.268-0.132,0.589-0.127,0.604c0.006,0.018,0.002,0.036-0.01,0.05c-0.013,0.014-0.033,0.021-0.049,0.016l-0.207-0.05 c0.068,0.133,0.187,0.366,0.232,0.466c0.009,0.02,0.004,0.043-0.012,0.058c-0.249,0.229-0.486,0.315-0.698,0.264 c-0.352-0.088-0.51-0.524-0.516-0.543c-0.007-0.02-0.002-0.04,0.014-0.054c0.015-0.015,0.037-0.017,0.055-0.008l0.427,0.204 l0.017-0.711l-0.447,0.302c-0.02,0.014-0.045,0.011-0.062-0.005s-0.021-0.041-0.009-0.062l0.311-0.527L34.323,28.1l0.248,0.524 c0.01,0.021,0.005,0.046-0.013,0.06c-0.018,0.016-0.042,0.018-0.062,0.002l-0.364-0.267l-0.009,0.678 c0.082-0.036,0.231-0.102,0.426-0.185c0.017-0.01,0.04-0.005,0.056,0.011c0.014,0.016,0.018,0.037,0.009,0.057 c-0.128,0.276-0.303,0.442-0.519,0.491c-0.358,0.081-0.698-0.192-0.713-0.205c-0.018-0.015-0.023-0.04-0.013-0.061l0.251-0.492 c-0.045,0.005-0.112,0.013-0.21,0.025c-0.023-0.001-0.033-0.005-0.044-0.017c-0.011-0.013-0.016-0.029-0.012-0.045 c0.034-0.138,0.017-0.399-0.118-0.591c-0.173,0.31-0.093,0.543-0.089,0.553c0.005,0.014,0.004,0.028-0.003,0.041 s-0.019,0.021-0.032,0.025l-0.232,0.058c0.067,0.103,0.206,0.315,0.286,0.45c0.011,0.018,0.009,0.039-0.003,0.056 c-0.131,0.175-0.276,0.264-0.432,0.264c-0.008,0-0.016,0-0.023,0c-0.327-0.019-0.568-0.423-0.578-0.44 c-0.01-0.017-0.01-0.037,0.001-0.053c0.009-0.014,0.025-0.022,0.042-0.022c0.002,0,0.004,0,0.005,0l0.424,0.046l-0.156-0.561 l-0.339,0.484c-0.014,0.021-0.039,0.028-0.062,0.018c-0.021-0.01-0.033-0.033-0.028-0.057l0.178-0.79l-0.534,0.095L32.283,29.771z"/><rect width=".766" height="1.607" x="34.343" y="26.499" fill="#ffca28"/><path fill="#263238" d="M35.108,28.155h-0.766c-0.027,0-0.05-0.022-0.05-0.05v-1.607c0-0.027,0.022-0.05,0.05-0.05h0.766 c0.027,0,0.05,0.022,0.05,0.05v1.607C35.158,28.133,35.136,28.155,35.108,28.155z M34.393,28.056h0.666v-1.508h-0.666V28.056z"/><path fill="#ffca28" d="M37.657,26.639c-0.69-0.744-1.553-0.356-1.845-0.194c-0.232,0.129-0.832,0.087-1.071,0.065l0-0.011 c0,0-0.021,0.002-0.053,0.006c-0.031-0.003-0.053-0.006-0.053-0.006l0,0.011c-0.239,0.023-0.839,0.064-1.071-0.065 c-0.291-0.162-1.154-0.55-1.845,0.194c-0.69,0.744-0.076,1.672-0.076,1.672l0.356-0.097c0,0-0.518-0.895-0.011-1.392 c0.507-0.496,1.133-0.291,1.467-0.108c0.292,0.16,1.045,0.123,1.231,0.111c0.186,0.012,0.939,0.049,1.231-0.111 c0.334-0.183,0.96-0.388,1.467,0.108c0.507,0.496-0.011,1.392-0.011,1.392l0.356,0.097C37.732,28.311,38.347,27.383,37.657,26.639 z"/><path fill="#263238" d="M37.732,28.36c-0.004,0-0.009,0-0.013-0.002l-0.356-0.097c-0.016-0.004-0.027-0.015-0.033-0.028 c-0.006-0.015-0.005-0.031,0.003-0.045c0.005-0.008,0.492-0.867,0.019-1.33c-0.514-0.505-1.156-0.239-1.407-0.101 c-0.29,0.159-0.976,0.134-1.259,0.117c-0.276,0.019-0.962,0.042-1.252-0.117c-0.252-0.139-0.895-0.403-1.407,0.101 c-0.474,0.463,0.014,1.322,0.019,1.33c0.008,0.014,0.009,0.03,0.003,0.044c-0.006,0.015-0.018,0.025-0.033,0.029l-0.356,0.097 c-0.022,0.01-0.043-0.002-0.055-0.021c-0.006-0.01-0.629-0.969,0.08-1.733c0.697-0.751,1.566-0.393,1.906-0.204 c0.219,0.122,0.808,0.082,1.019,0.061c0.01-0.008,0.023-0.017,0.034-0.013c0,0,0.021,0.003,0.051,0.006 c0.021-0.003,0.042-0.006,0.042-0.006c0.015,0.001,0.031,0.003,0.041,0.014l0,0c0.219,0.02,0.795,0.06,1.011-0.062 c0.341-0.188,1.212-0.544,1.906,0.204c0.709,0.765,0.087,1.724,0.081,1.733C37.765,28.353,37.749,28.36,37.732,28.36z M32.691,26.249c-0.304,0-0.637,0.103-0.934,0.424c-0.596,0.641-0.188,1.415-0.09,1.58l0.26-0.071 c-0.107-0.21-0.432-0.946,0.028-1.396c0.564-0.55,1.255-0.264,1.526-0.116c0.272,0.15,0.99,0.117,1.203,0.105 c0.218,0.012,0.937,0.045,1.21-0.105c0.271-0.147,0.962-0.435,1.526,0.116c0.459,0.449,0.136,1.186,0.028,1.396l0.26,0.071 c0.098-0.165,0.505-0.939-0.091-1.58c-0.646-0.697-1.464-0.361-1.783-0.185c-0.246,0.136-0.851,0.095-1.1,0.07 c-0.008-0.001-0.015-0.003-0.021-0.007c-0.015,0-0.038,0.001-0.055-0.001c-0.005,0.004-0.012,0.007-0.019,0.008 c-0.247,0.024-0.854,0.065-1.101-0.07C33.368,26.393,33.05,26.249,32.691,26.249z"/><polygon fill="#ffca28" points="34.601,25.269 34.192,25.506 34.181,24.805 34.58,25.075 34.397,24.675 35.044,24.665 34.828,25.085 35.249,24.816 35.216,25.528 34.796,25.258 35.022,25.668 34.375,25.668"/><path fill="#263238" d="M35.022,25.718h-0.647c-0.018,0-0.034-0.009-0.043-0.024s-0.01-0.034-0.001-0.05l0.136-0.239 l-0.25,0.145c-0.016,0.01-0.034,0.009-0.05,0.001c-0.016-0.009-0.025-0.025-0.025-0.043l-0.011-0.701 c0-0.019,0.01-0.036,0.026-0.045c0.015-0.01,0.036-0.008,0.052,0.003l0.251,0.169l-0.109-0.236 c-0.007-0.015-0.006-0.033,0.004-0.047c0.009-0.015,0.024-0.023,0.041-0.023l0.647-0.011h0.001c0.018,0,0.033,0.009,0.042,0.023 c0.01,0.015,0.011,0.033,0.003,0.049l-0.132,0.255l0.265-0.169c0.017-0.009,0.036-0.011,0.053-0.001 c0.016,0.009,0.025,0.026,0.024,0.045l-0.032,0.712c-0.001,0.019-0.011,0.034-0.026,0.042c-0.018,0.009-0.035,0.007-0.051-0.002 l-0.255-0.163l0.132,0.237c0.009,0.016,0.008,0.034-0.001,0.05S35.04,25.718,35.022,25.718z M34.461,25.618h0.477l-0.186-0.336 c-0.011-0.021-0.007-0.045,0.01-0.061c0.019-0.017,0.042-0.019,0.062-0.006l0.348,0.223l0.023-0.529l-0.339,0.218 c-0.02,0.013-0.045,0.011-0.061-0.005c-0.018-0.016-0.021-0.04-0.012-0.06l0.178-0.346l-0.487,0.008l0.152,0.329 c0.009,0.02,0.004,0.044-0.014,0.059c-0.017,0.015-0.041,0.017-0.061,0.003l-0.319-0.216l0.008,0.521l0.336-0.194 c0.02-0.011,0.045-0.009,0.061,0.008c0.016,0.016,0.02,0.04,0.009,0.06L34.461,25.618z"/><path fill="#fff" d="M32.39,31.234c0,0,2.211,0.766,4.66,0.011c0.658-0.28-0.065-0.572-0.065-0.572 s-3.873-0.28-4.65,0.043C32.12,30.803,32.012,31.137,32.39,31.234z"/><path fill="#263238" d="M34.779,31.625c-1.363,0-2.352-0.325-2.404-0.343c-0.172-0.045-0.276-0.146-0.284-0.279 c-0.009-0.137,0.086-0.276,0.227-0.333c0.778-0.322,4.513-0.057,4.672-0.046l0.015,0.004c0.038,0.015,0.371,0.154,0.373,0.358 c0.001,0.116-0.1,0.217-0.307,0.305C36.259,31.541,35.471,31.625,34.779,31.625z M34.079,30.611c-0.762,0-1.447,0.036-1.724,0.151 c-0.099,0.039-0.171,0.142-0.165,0.234c0.006,0.088,0.081,0.155,0.212,0.188l0.004,0.002c0.022,0.008,2.224,0.751,4.63,0.01 c0.156-0.067,0.241-0.14,0.24-0.21c-0.001-0.113-0.217-0.229-0.303-0.265C36.85,30.715,35.358,30.611,34.079,30.611z"/><g><path fill="#263238" d="M32.941,31.209l-0.002-0.1c0.121-0.003,2.998-0.074,3.696,0l-0.012,0.1 C35.935,31.133,32.972,31.209,32.941,31.209z"/></g><g><circle cx="34.709" cy="26.121" r=".453" fill="#ffca28"/><path fill="#263238" d="M34.709,26.624c-0.277,0-0.503-0.226-0.503-0.503s0.226-0.503,0.503-0.503s0.503,0.226,0.503,0.503 S34.986,26.624,34.709,26.624z M34.709,25.718c-0.223,0-0.403,0.181-0.403,0.403s0.181,0.403,0.403,0.403s0.403-0.181,0.403-0.403 S34.932,25.718,34.709,25.718z"/></g><g><rect width=".809" height=".432" x="34.299" y="29.929" fill="#1e88e5"/><path fill="#263238" d="M35.158,30.41H34.25v-0.531h0.908V30.41z M34.35,30.311h0.709v-0.332H34.35V30.311z"/></g><g><path fill="#43a047" d="M33.545,30.312h-0.293c-0.092,0-0.166-0.074-0.166-0.166v-0.001c0-0.092,0.074-0.166,0.166-0.166 h0.293c0.092,0,0.166,0.074,0.166,0.166v0.001C33.712,30.238,33.637,30.312,33.545,30.312z"/><path fill="#263238" d="M33.545,30.361h-0.293c-0.119,0-0.216-0.097-0.216-0.216c0-0.12,0.097-0.217,0.216-0.217h0.293 c0.12,0,0.217,0.097,0.217,0.216C33.762,30.265,33.665,30.361,33.545,30.361z M33.252,30.028c-0.064,0-0.116,0.052-0.116,0.116 c0,0.065,0.052,0.117,0.116,0.117h0.293c0.064,0,0.117-0.052,0.117-0.116c0-0.065-0.053-0.117-0.117-0.117H33.252z"/></g><g><path fill="#43a047" d="M36.167,30.312h-0.293c-0.092,0-0.166-0.074-0.166-0.166v-0.001c0-0.092,0.074-0.166,0.166-0.166 h0.293c0.092,0,0.166,0.074,0.166,0.166v0.001C36.333,30.238,36.259,30.312,36.167,30.312z"/><path fill="#263238" d="M36.167,30.361h-0.294c-0.119,0-0.216-0.097-0.216-0.216c0-0.12,0.097-0.217,0.216-0.217h0.294 c0.119,0,0.216,0.097,0.216,0.216C36.383,30.265,36.286,30.361,36.167,30.361z M35.873,30.028c-0.064,0-0.116,0.052-0.116,0.116 c0,0.065,0.052,0.117,0.116,0.117h0.294c0.064,0,0.116-0.052,0.116-0.116c0-0.065-0.052-0.117-0.116-0.117H35.873z"/></g><g><polygon fill="#d32f2f" points="32.638,30.139 32.223,30.021 32.147,30.29 32.304,30.506"/><path fill="#263238" d="M32.299,30.585L32.093,30.3l0.096-0.341l0.54,0.155L32.299,30.585z M32.202,30.28l0.106,0.146 l0.238-0.262l-0.29-0.083L32.202,30.28z"/></g><g><polygon fill="#d32f2f" points="36.791,30.145 37.164,30.01 37.282,30.247 37.12,30.533"/><path fill="#263238" d="M37.128,30.62l-0.422-0.498l0.481-0.175l0.151,0.301l-0.013,0.023L37.128,30.62z M36.876,30.167 l0.236,0.279l0.113-0.2l-0.087-0.174L36.876,30.167z"/></g><g><path fill="#43a047" d="M33.544,16.39l0.539,0.561l-0.712-1.92h0.453l-0.669-1.661l0.475,0.129l-0.043-1.036l0.518,0.367 l0.539-0.518l0.173,0.82l0.453-0.173l-0.28,1.208l0.496-0.086l-0.302,1.532l0.302-0.065l-0.302,0.906l0.28,0.022l-0.216,1.251 l0.626-1.424l0.129,0.173l0.583-1.661l0.216,0.237l0.647-1.122l0.237,0.151l0.777-0.777l0.129,0.432l0.928-0.259l-0.432,0.82 l0.734,0.086l-1.014,0.604l0.216,0.173l-0.971,0.647l0.28,0.173l-1.338,0.971l0.28,0.259l-1.036,0.432l0.367,0.173l-0.712,0.345 l0.453,0.151l0.755-0.647l-0.043,0.237l0.971-0.841l0.065,0.259l0.604-0.539l0.345,0.388l1.122-0.647l-0.022,0.345l0.863,0.086 l-0.539,0.475l0.734,0.432l-0.863,0.259l0.259,0.259l-1.446,0.216l0.173,0.194h-1.036l0.086,0.216l-0.949,0.194l0.108,0.237 h-0.798l0.216,0.28l-1.467-0.043l1.64,0.475l-0.518,0.216l1.683,0.367L37.773,20.9l1.295,0.432l-0.086,0.086l1.1,0.432L39.866,22 l0.798,0.539h-0.82l0.583,0.647l-0.539-0.194l-0.022,0.41l-0.539-0.41l-0.022,0.388l-0.669-0.82l0.129,0.367l-0.798-0.647 l0.022,0.453l-0.755-0.82l0.108,0.367l-0.992-1.316l0.043,0.539l-0.669-0.798l-0.043,0.259l-0.82-0.626l0.69,0.69l-0.259,0.086 l0.777,0.755h-0.324l0.863,0.798h-0.367l0.82,0.626l-0.583-0.108l0.475,0.561l-0.496,0.022v0.626l-0.453-0.453l-0.237,0.432 l-0.237-0.755l-0.388,0.518l-0.065-1.143l-0.302,0.324l-0.108-1.23l-0.41,0.475l-0.086-1.187l-0.259,0.259l-0.086-0.561 l-0.28,0.604l-0.194-0.69l-0.345,0.906l-0.237-0.173l-0.302,0.798l-0.259-0.28l-0.259,0.626L31.71,22.69l-0.604,0.69l-0.151-0.496 l-0.69,0.841l0.129-0.755l-0.475,0.086l0.561-0.669l-0.151-0.28l0.755-0.194l-0.518-0.345l1.251-0.41l-0.475-0.194l0.863-0.367 l-0.345-0.216l1.057-0.129l-0.41-0.28l0.712-0.302l-1.057,0.216l0.259-0.28l-1.187,0.259l0.302-0.259l-1.359,0.302l0.561-0.259 l-1.359,0.129l0.345-0.259l-1.208,0.065l0.604-0.367l-1.079-0.367l1.295-0.151l-0.345-0.647l0.906,0.539l0.086-0.388l1.057,0.432 l-0.043-0.302l1.036,0.432l0.086-0.194l0.928,0.345l-0.432-0.475l-1.122-0.216l0.453-0.194l-1.036-0.173l0.453-0.259l-1.014-0.216 l0.453-0.151l-1.057-0.324l0.345-0.086l-0.82-0.453l0.604-0.022l-0.755-0.712l0.841,0.065l-0.065-0.561l0.583,0.583l0.28-0.647 c0,0,0.151,0.647,0.259,0.82c0.108,0.173,0.518-0.108,0.518-0.108l0.475,0.647l0.108-0.518l0.539,1.23l0.194-0.345l0.432,0.949 l0.173-0.388l0.453,0.755l0.086-0.453L33.544,16.39z"/><path fill="#263238" d="M36.507,24.516l-0.491-0.492L35.754,24.5l-0.243-0.774l-0.412,0.55l-0.065-1.163l-0.299,0.32 l-0.107-1.225l-0.412,0.477l-0.087-1.198l-0.251,0.252l-0.076-0.495l-0.269,0.577l-0.188-0.675l-0.315,0.826l-0.237-0.173 l-0.307,0.812l-0.261-0.283l-0.255,0.613l-0.251-0.184l-0.633,0.724l-0.15-0.493l-0.751,0.916l0.149-0.871l-0.54,0.099 l0.627-0.749l-0.165-0.307l0.062-0.017l0.647-0.166l-0.511-0.341l1.22-0.399l-0.459-0.188l0.885-0.377l-0.384-0.239l1.066-0.131 l-0.376-0.258l0.336-0.143l-0.721,0.147l0.258-0.277l-1.227,0.267l0.302-0.258l-1.618,0.359l0.717-0.331l-1.244,0.118l0.355-0.267 l-1.242,0.067l0.683-0.415l-1.187-0.404l1.441-0.167l-0.395-0.741l1,0.596l0.084-0.378l1.031,0.42l-0.044-0.303l1.072,0.446 l0.086-0.192l0.778,0.29l-0.281-0.31l-1.267-0.243l0.446-0.191l-1.005-0.168l0.461-0.264l-1.064-0.227l0.479-0.16l-1.081-0.33 l0.396-0.099l-0.865-0.479l0.665-0.023l-0.772-0.727l0.923,0.07l-0.074-0.644l0.632,0.632l0.312-0.719l0.034,0.147 c0.001,0.007,0.15,0.642,0.252,0.806c0.011,0.016,0.024,0.025,0.046,0.029c0.117,0.025,0.329-0.102,0.402-0.152l0.04-0.027 l0.437,0.596l0.116-0.561l0.563,1.28l0.192-0.343l0.426,0.938l0.167-0.375l0.436,0.725l0.059-0.311l-0.526-1.479l0.535,0.556 L33.3,14.981h0.451l-0.679-1.686l0.506,0.137l-0.044-1.068l0.566,0.401l0.574-0.552l0.18,0.852l0.486-0.186l-0.285,1.226 l0.494-0.085l-0.015,0.071l-0.288,1.457l0.314-0.067l-0.311,0.929l0.272,0.021l-0.155,0.902l0.494-1.128l0.125,0.167l0.58-1.652 l0.226,0.249l0.639-1.108l0.248,0.158l0.808-0.809l0.14,0.465l0.992-0.276l-0.452,0.858l0.808,0.095l-1.078,0.643l0.213,0.17 l-0.963,0.642l0.277,0.172l-0.061,0.043l-1.288,0.936l0.292,0.271l-1.003,0.418l0.36,0.169l-0.696,0.337l0.31,0.104l0.841-0.721 l-0.043,0.236l0.926-0.801l0.063,0.257l0.58-0.518l0.352,0.396l1.167-0.674l-0.024,0.391l0.93,0.093l-0.574,0.505l0.772,0.454 l-0.892,0.268l0.27,0.271l-1.452,0.217l0.185,0.208h-1.073l0.081,0.203l-0.946,0.193l0.115,0.251h-0.775l0.218,0.283l-1.178-0.034 l1.397,0.404l-0.502,0.21l1.705,0.372l-0.548,0.182l1.228,0.409l-0.089,0.091l1.117,0.437l-0.233,0.163l0.873,0.59h-0.87 l0.64,0.712l-0.662-0.238l-0.023,0.437l-0.54-0.41l-0.023,0.424l-0.568-0.697l0.093,0.263l-0.85-0.688l0.023,0.479l-0.703-0.764 l0.125,0.425l-1.056-1.397l0.043,0.523l-0.7-0.836l-0.038,0.234l-0.293-0.223l0.22,0.219l-0.258,0.086l0.806,0.783h-0.318 l0.863,0.799h-0.348l0.87,0.664l-0.651-0.121l0.449,0.532l-0.55,0.023V24.516z M35.992,23.859l0.415,0.414v-0.552l0.442-0.02 l-0.5-0.591l0.515,0.096l-0.771-0.588h0.387l-0.863-0.799h0.328l-0.747-0.727l0.26-0.086l-0.633-0.634l0.065-0.075l0.754,0.576 l0.048-0.285l0.638,0.762l-0.045-0.555l0.931,1.233l-0.092-0.308l0.809,0.875l-0.021-0.427l0.748,0.606l-0.167-0.472l0.77,0.943 l0.02-0.354l0.54,0.41l0.02-0.384l0.416,0.15l-0.524-0.583h0.769l-0.723-0.488l0.198-0.14l-1.084-0.425l0.083-0.083l-1.36-0.454 l0.487-0.162l-1.66-0.362l0.533-0.222l-1.882-0.545l1.756,0.052l-0.214-0.277h0.822l-0.102-0.224l0.952-0.195l-0.091-0.229h0.997 l-0.159-0.181l1.438-0.215l-0.248-0.247l0.833-0.25l-0.694-0.409l0.506-0.444l-0.797-0.079l0.019-0.301l-1.077,0.621l-0.338-0.382 l-0.629,0.562l-0.065-0.261l-1.016,0.881l0.043-0.238l-0.671,0.574l-0.595-0.199l0.728-0.353l-0.374-0.177l1.067-0.445 l-0.269-0.247l0.05-0.035l1.277-0.928l-0.283-0.174l0.979-0.653l-0.219-0.174l0.949-0.566l-0.659-0.077l0.411-0.782l-0.863,0.241 l-0.118-0.398l-0.747,0.746l-0.227-0.145l-0.656,1.136l-0.204-0.226l-0.586,1.67l-0.135-0.179l-0.756,1.722l0.276-1.602 l-0.29-0.022l0.02-0.061l0.275-0.823l-0.291,0.062l0.303-1.534l-0.498,0.087l0.017-0.074L35.2,13.04l-0.42,0.16l-0.166-0.789 l-0.504,0.483l-0.034-0.023l-0.435-0.308l0.042,1.002l-0.443-0.121l0.659,1.637h-0.455l0.77,2.077l-0.545-0.565l0.38,1.066 l-0.003,0.014l-0.11,0.582l-0.471-0.785l-0.179,0.402l-0.438-0.961l-0.194,0.347l-0.517-1.179l-0.099,0.475l-0.514-0.7 c-0.089,0.056-0.294,0.177-0.438,0.142c-0.047-0.01-0.085-0.035-0.109-0.074c-0.079-0.127-0.178-0.486-0.229-0.69l-0.251,0.579 l-0.532-0.534l0.055,0.479l-0.761-0.059l0.739,0.697l-0.544,0.02l0.773,0.427l-0.293,0.073l1.034,0.316l-0.428,0.143l0.963,0.205 l-0.445,0.254l1.065,0.178l-0.46,0.197l0.978,0.188l0.582,0.64l-1.077-0.401l-0.086,0.196l-0.046-0.02l-0.954-0.397l0.044,0.301 l-1.084-0.441l-0.088,0.397l-0.812-0.482l0.295,0.554l-1.146,0.134l0.97,0.33l-0.524,0.319l1.174-0.063l-0.335,0.251l1.474-0.14 l-0.404,0.187l1.101-0.244l-0.304,0.26l1.148-0.251l-0.262,0.283l0.905-0.185l0.029,0.095l-0.628,0.267l0.444,0.303l-1.049,0.129 l0.308,0.192l-0.842,0.357l0.49,0.199l-1.284,0.421l0.526,0.351l-0.803,0.206l0.138,0.254l-0.494,0.589l0.409-0.075l-0.11,0.641 l0.63-0.768l0.152,0.499l0.574-0.657l0.224,0.162l0.265-0.639l0.257,0.277l0.297-0.783l0.237,0.173l0.376-0.986l0.198,0.706 l0.294-0.632l0.096,0.626l0.267-0.266l0.085,1.175l0.408-0.473l0.109,1.236l0.305-0.328l0.063,1.124l0.365-0.485l0.231,0.735 L35.992,23.859z"/></g><g><path fill="#283593" d="M24,4C15.129,4,7.618,9.781,5,17.777V18h20V4.042C24.667,4.025,24.337,4,24,4z"/></g><g><path fill="#fff" d="M16,8.594V5.675c-1.432,0.626-2.767,1.424-4,2.352V8.31l-0.206-0.128 c-3.105,2.399-5.483,5.683-6.753,9.483L12,13.32V18h4v-4.965L23.949,18H25v-2.609L21.171,13H25V9h-4.421L25,6.238V4.05 C24.667,4.034,24.338,4,24,4c-0.235,0-0.464,0.027-0.697,0.035L16,8.594z"/></g><g><path fill="#e53935" d="M13,12v6h2v-6h10v-2H15V6.157c-0.689,0.348-1.36,0.725-2,1.148V10H9.729 c-0.613,0.625-1.174,1.299-1.701,2H13z"/></g><g><path fill="#e53935" d="M11.641,13H9.898l-3.972,2.479c-0.229,0.484-0.437,0.977-0.627,1.481L11.641,13z"/></g><g><path fill="#e53935" d="M24.213,4.011L16.223,9h1.746L25,4.609V4.05C24.738,4.037,24.478,4.014,24.213,4.011z"/></g><g><polygon fill="#e53935" points="25,15.934 20.301,13 18.559,13 25,17.02"/></g></svg>