<svg xmlns="http://www.w3.org/2000/svg"  viewBox="0 0 48 48" width="30px" height="30px"><path fill="#ffeb3b" d="M32,5.675C29.549,4.604,26.846,4,24,4s-5.549,0.604-8,1.675v36.649C18.451,43.396,21.154,44,24,44 s5.549-0.604,8-1.675V5.675z"/><path fill="#d50000" d="M44,24c0-8.199-4.939-15.237-12-18.325v36.649C39.061,39.237,44,32.199,44,24z"/><path fill="#43a047" d="M4,24c0,8.199,4.939,15.237,12,18.325V5.675C8.939,8.763,4,15.801,4,24z"/><polygon fill="#43a047" points="24,18.11 25.457,22.413 30,22.469 26.358,25.185 27.708,29.523 24,26.898 20.292,29.523 21.642,25.185 18,22.469 22.543,22.413"/></svg>