<svg xmlns="http://www.w3.org/2000/svg"  viewBox="0 0 48 48" width="50px" height="50px"><path fill="#283593" d="M8.033,36c3.649,4.848,9.431,8,15.967,8s12.318-3.152,15.967-8H8.033z"/><path fill="#283593" d="M43.07,30c0.596-1.896,0.93-3.908,0.93-6c0-11.046-8.954-20-20-20S4,12.954,4,24 c0,2.092,0.333,4.104,0.93,6H43.07z"/><polygon fill="#fff" points="19.108,17.348 20.267,20.898 24,20.903 20.983,23.102 22.132,26.654 19.108,24.464 16.084,26.654 17.232,23.102 14.215,20.903 17.949,20.898"/><polygon fill="#fff" points="12.324,11.921 13.162,14.486 15.859,14.49 13.679,16.079 14.509,18.646 12.324,17.064 10.138,18.646 10.968,16.079 8.788,14.49 11.486,14.486"/><g><path fill="#fdd835" d="M8.038,36h31.924c1.344-1.791,2.388-3.814,3.074-6H4.964C5.651,32.186,6.694,34.209,8.038,36z"/></g></svg>