<svg xmlns="http://www.w3.org/2000/svg"  viewBox="0 0 48 48" width="100px" height="100px"><circle cx="24" cy="24" r="20" fill="#ff3d00"/><path fill="#eceff1" d="M23.918,23.77c-6.508-2.738-3.621-11.18,2.602-10.754c-1.258,0.645-1.441,1.848-0.723,2.961	c0.805,1.246-0.074,3.25-1.164,3.738C22.848,20.52,22.488,22.656,23.918,23.77z"/><path fill="#ff3d00" d="M23.566,17.676l-0.367,0.57l-0.133-0.664l-0.66-0.172l0.598-0.332l-0.043-0.676l0.5,0.461l0.637-0.25	l-0.285,0.617l0.43,0.523L23.566,17.676z"/><path fill="#ff3d00" d="M23.953,23.699c-0.785-0.402-1.422-1.242-1.695-2.246c-0.316-1.148-0.137-2.383,0.5-3.387	l-0.137-0.086c-0.656,1.043-0.848,2.324-0.52,3.516c0.293,1.063,0.941,1.914,1.781,2.344L23.953,23.699z"/><path fill="#eceff1" d="M23.926,23.77C24.531,16.762,33.48,16.887,35,22.91c-1.004-0.992-2.211-0.793-3.051,0.23	c-0.941,1.148-3.129,0.938-3.934,0.055C26.699,21.75,24.547,22.07,23.926,23.77z"/><path fill="#ff3d00" d="M29.637,21.555l-0.66-0.172l0.594-0.328l-0.039-0.68l0.5,0.461l0.633-0.25l-0.285,0.617l0.434,0.523	l-0.676-0.078l-0.367,0.57L29.637,21.555z"/><path fill="#ff3d00" d="M24.004,23.785c0.141-0.871,0.746-1.73,1.617-2.301c1-0.656,2.238-0.867,3.391-0.574l0.039-0.156	c-1.199-0.301-2.48-0.086-3.52,0.594c-0.922,0.605-1.535,1.484-1.688,2.41L24.004,23.785z"/><path fill="#eceff1" d="M23.926,23.777c6.883-1.594,9.527,6.922,4.246,10.223c0.637-1.258,0.074-2.34-1.164-2.816	c-1.387-0.539-1.859-2.676-1.27-3.707C26.715,25.781,25.742,23.84,23.926,23.777z"/><path fill="#ff3d00" d="M27.809,28.504l-0.043-0.68l0.5,0.461l0.633-0.25l-0.285,0.617l0.434,0.527l-0.676-0.082	l-0.367,0.574l-0.133-0.668l-0.66-0.168L27.809,28.504z"/><path fill="#ff3d00" d="M23.937,23.855c0.875-0.133,1.883,0.172,2.699,0.82c0.934,0.746,1.516,1.852,1.594,3.035l0.164-0.012	c-0.086-1.227-0.688-2.375-1.656-3.145c-0.863-0.688-1.891-1-2.824-0.855L23.937,23.855z"/><path fill="#eceff1" d="M23.922,23.781c3.645,6.023-3.668,11.164-8.453,7.176c1.398,0.219,2.254-0.648,2.332-1.973	c0.086-1.477,1.98-2.586,3.148-2.344C22.867,27.039,24.422,25.52,23.922,23.781z"/><path fill="#ff3d00" d="M20.605,28.914l0.637-0.246l-0.289,0.613l0.438,0.527l-0.68-0.082l-0.363,0.574l-0.133-0.668	l-0.66-0.168l0.594-0.332l-0.043-0.68L20.605,28.914z"/><path fill="#ff3d00" d="M23.848,23.816c0.398,0.785,0.418,1.836,0.051,2.809c-0.422,1.113-1.301,2.008-2.406,2.449	l0.063,0.148c1.145-0.457,2.055-1.383,2.496-2.543c0.387-1.027,0.367-2.098-0.059-2.938L23.848,23.816z"/><path fill="#eceff1" d="M23.914,23.773c-4.625,5.32-11.797-0.02-9.465-5.785c0.227,1.391,1.316,1.938,2.602,1.602	c1.441-0.379,3.086,1.074,3.215,2.254C20.48,23.785,22.41,24.785,23.914,23.773z"/><path fill="#ff3d00" d="M17.984,22.227l0.434,0.52l-0.676-0.078l-0.367,0.574l-0.133-0.668l-0.66-0.168l0.598-0.332	l-0.043-0.676l0.5,0.457l0.633-0.246L17.984,22.227z"/><path fill="#ff3d00" d="M23.859,23.719c-0.629,0.621-1.625,0.961-2.668,0.914c-1.195-0.055-2.32-0.609-3.082-1.52	l-0.125,0.102c0.793,0.945,1.961,1.52,3.199,1.578c1.102,0.051,2.121-0.297,2.789-0.961L23.859,23.719z"/></svg>