<svg xmlns="http://www.w3.org/2000/svg"  viewBox="0 0 48 48" width="30px" height="30px"><path fill="#d50000" d="M40.695,35H7.305c3.578,5.419,9.715,9,16.695,9S37.117,40.419,40.695,35z"/><path fill="#d50000" d="M24,4c-6.98,0-13.117,3.581-16.695,9h33.39C37.117,7.581,30.98,4,24,4z"/><path fill="#3f51b5" d="M44,24c0-4.066-1.221-7.843-3.305-11H7.305C5.221,16.157,4,19.934,4,24s1.221,7.843,3.305,11h33.39 C42.779,31.843,44,28.066,44,24z M24,32c-4.417,0-8-3.583-8-8c0-4.417,3.583-8,8-8s8,3.583,8,8C32,28.417,28.417,32,24,32z"/><circle cx="24" cy="24" r="8" fill="#eceff1"/></svg>