<svg xmlns="http://www.w3.org/2000/svg"  viewBox="0 0 48 48" width="100px" height="100px" fill-rule="evenodd" clip-rule="evenodd"><circle cx="24" cy="24" r="20" fill="#ff3d00"/><path fill="#424242" fill-rule="evenodd" d="M25.134,32.993c-0.263-0.228-0.582-0.69-0.577-1.135 c0.023-0.332,0.251-0.525,0.399-0.119c0.208,0.447,0.654,1.187,1.269,0.753c0.269-0.197,0.264-0.487-0.104-0.454 c-0.455-0.031-0.734-0.281-0.938-0.926c-0.037-0.355,0.11-0.346,0.316-0.117c0.264,0.304,0.791,0.762,1.371,0.516 c0.323-0.135,0.413-0.414-0.074-0.483c-0.461,0.007-0.838-0.292-1.213-0.749c-0.205-0.253,0.098-0.507,0.28-0.292 c0.162,0.14,0.39,0.396,0.585,0.432c0.226,0.044,0.505,0.022,0.814-0.142c0.334-0.279,0.226-0.481-0.18-0.527 c-0.314,0.015-0.485,0.135-0.89-0.135c-0.728-0.492-1.307-1.15-1.397-1.941c-0.059-0.52,0.22-0.678,0.453-0.618 c0.632,0.162,1.046,1.344,1.484,1.994c0.143,0.187,0.275,0.19,0.368,0.133c0.176-0.151,0.316-0.274,0.491-0.443 c0,0,1.287,0.231,1.988,0.46l-0.781,0.278c-0.296-0.163-0.652,0.013-0.652,0.296c-0.28,0.193-0.257,0.42-0.136,0.639 c0.037-0.152,0.068-0.35,0.289-0.376c0.315,0.131,0.683-0.056,0.683-0.302l0.921-0.362l0.93,0.527c0,0.356,0.337,0.469,0.688,0.373 c0.166,0.102,0.272,0.281,0.327,0.471c0.104-0.275,0.082-0.469-0.08-0.603c0.093-0.355-0.405-0.697-0.79-0.469l-0.669-0.384 l1.145-0.032c0.133,0.235,0.614,0.248,0.754,0c0.12-0.033,0.221-0.054,0.455,0.12c-0.074-0.281-0.217-0.401-0.432-0.401 c-0.163-0.289-0.754-0.288-0.84,0.038l-1.193,0.033l0.708-0.504c0.264,0.156,0.635-0.018,0.709-0.301 c0.105-0.125,0.235-0.184,0.491-0.099c-0.132-0.234-0.317-0.303-0.653-0.144c-0.306-0.232-0.709,0.049-0.648,0.283l-0.942,0.641 c-0.684-0.204-1.921-0.522-1.921-0.522c0.148-0.155,0.297-0.299,0.444-0.456c0.053-0.092-0.028-0.199-0.141-0.222 c-1.105-0.228-1.737-0.673-2.12-1.805c-0.16-0.474,0.186-0.616,0.305-0.326c0.165,0.403,0.347,0.844,0.842,1.185 c0.171,0.119,0.68,0.022,0.379-0.264c-0.312-0.257-0.446-0.367-0.6-0.992c0-0.316,0.323-0.459,0.503-0.155 c0.193,0.623,0.212,0.89,0.561,1.291c0.264,0.304,0.609,0.507,0.78,0.503c0.308-0.004,0.617-0.337,0.206-0.578 c-0.605-0.242-0.825-0.571-0.914-0.886c-0.097-0.549,0.009-0.815,0.34-0.545c0.47,0.534,1.367,1.528,1.836,1.991 c0.527,0.403,1.131,0.416,1.611,0.007c0.275-0.317,0.178-0.658-0.253-0.585c-0.972,0.082-1.709-0.401-2.516-1.705 c-0.158-0.295-0.202-0.718,0.148-0.403c0.403,0.545,0.99,1.008,1.536,1.207c0.548,0.197,1.001,0.088,1.176-0.084 c0.211-0.211,0.156-0.744-0.21-0.616c-0.301,0.106-0.726,0.133-1.167-0.038c-0.442-0.173-0.901-0.545-1.389-1.176 c-0.167-0.357-0.113-0.658,0.225-0.474c0.799,0.678,1.83,1.227,2.356,0.897c0.388-0.242,0.394-0.861-0.097-0.822 c-0.99,0.135-1.365-0.084-2.315-0.924c-0.217-0.162-0.202-0.572,0.143-0.31c0.799,0.516,1.891,0.718,2.319,0.447 c0.386-0.242,0.329-0.979-0.321-0.718c-0.52,0.317-1.094,0.308-2.244-0.514c-0.29-0.242-0.074-0.556,0.165-0.421 c0.925,0.527,2.272,0.753,2.623-0.319c0.136-0.41-0.11-0.649-0.472-0.365c-0.795,0.735-1.696,0.374-2.2,0.004 c-0.144-0.085-0.409-0.516,0.056-0.436c1.204,0.275,2.395,0.036,2.612-0.817c0.126-0.277-0.122-0.766-0.561-0.357 c-0.578,0.571-1.191,0.591-1.962,0.587c-0.392-0.082-0.396-0.514-0.067-0.578c0.609,0.013,1.209-0.253,1.689-0.523 c0.47-0.27,0.86-0.649,0.984-1.174c0.076-0.469-0.377-0.968-0.65-0.469c-0.403,0.729-1.295,1.415-2.288,1.539 c-0.051-0.087-0.182-0.308-0.342-0.246c-0.291,0.113-0.639,0.264-0.996,0.434c-0.77,0.366-1.091,0.542-0.999,1.174 c0.097,0.659-0.412,1.076-0.832,0.961c-0.366-0.099-0.568-0.429-0.503-1.003c0.053-0.457,0.512-1.01,1.029-1.3 c0.335-0.187,0.84-0.29,1.449-0.425c0.37-0.073,0.559-0.217,0.581-0.368c0,0-0.253,0.185-0.658,0.158 c-0.192-0.014-0.32-0.098-0.368-0.184c0.141-0.029,0.396,0.005,0.626,0.005c0.305-0.003,1.014-0.071,1.202-0.501 c0.058-0.283-0.128-0.334-0.301-0.153c-0.186,0.196-0.263,0.373-0.637,0.438c-0.227,0.04-0.455,0.087-0.747,0.015 c0.165-0.196,0.427-0.396,0.65-0.359c0.073,0.012,0.171,0.08,0.249,0.202c0.048-0.31-0.037-0.66-0.866-0.514 c0.013-0.235-0.481-0.337-0.778-0.332c-0.169,0.004-0.513,0.104-0.762,0.223c-0.394,0.122-0.784,0.211-1.244,0.244 c0.266,0.228,0.316,0.242,0.583,0.434c-0.403,0.151-0.714,0.461-0.856,0.665c0,0,0.47-0.013,0.589,0.04 c-0.492,0.144-0.713,0.23-0.973,0.496c0.091,0.015,0.227,0.042,0.286,0.064c0.061,0.022,0.045,0.062-0.004,0.1 c-0.106,0.081-0.544,0.589-0.671,0.711c-0.128-0.122-0.566-0.63-0.671-0.711c-0.049-0.038-0.065-0.077-0.004-0.1 c0.058-0.022,0.195-0.049,0.286-0.064c-0.26-0.266-0.481-0.352-0.973-0.496c0.119-0.053,0.589-0.04,0.589-0.04 c-0.141-0.204-0.453-0.514-0.856-0.665c0.266-0.193,0.316-0.206,0.583-0.434c-0.459-0.033-0.849-0.122-1.244-0.244 c-0.249-0.119-0.593-0.219-0.762-0.223c-0.297-0.005-0.791,0.097-0.778,0.332c-0.83-0.146-0.914,0.204-0.866,0.514 c0.078-0.122,0.176-0.189,0.249-0.202c0.223-0.037,0.485,0.163,0.65,0.359c-0.292,0.071-0.52,0.024-0.747-0.015 c-0.374-0.066-0.451-0.243-0.637-0.438c-0.174-0.182-0.359-0.131-0.301,0.153c0.188,0.43,0.897,0.498,1.202,0.501 c0.229,0,0.485-0.033,0.626-0.005c-0.048,0.086-0.177,0.17-0.368,0.184c-0.406,0.028-0.658-0.158-0.658-0.158 c0.022,0.151,0.21,0.295,0.581,0.368c0.609,0.135,1.114,0.238,1.449,0.425c0.518,0.29,0.976,0.843,1.029,1.3 c0.066,0.574-0.136,0.904-0.503,1.003c-0.42,0.115-0.928-0.301-0.832-0.961c0.092-0.632-0.229-0.808-0.999-1.174 c-0.357-0.17-0.704-0.321-0.996-0.434c-0.16-0.062-0.29,0.159-0.342,0.246c-0.992-0.124-1.884-0.81-2.288-1.539 c-0.273-0.498-0.726,0-0.65,0.469c0.124,0.525,0.513,0.904,0.984,1.174c0.481,0.27,1.081,0.536,1.689,0.523 c0.329,0.064,0.325,0.496-0.067,0.578c-0.771,0.004-1.384-0.015-1.962-0.587c-0.439-0.41-0.687,0.08-0.561,0.357 c0.217,0.853,1.408,1.092,2.612,0.817c0.465-0.08,0.201,0.351,0.056,0.436c-0.504,0.37-1.405,0.731-2.2-0.004 c-0.361-0.283-0.609-0.044-0.472,0.365c0.351,1.072,1.698,0.846,2.623,0.319c0.238-0.135,0.454,0.179,0.165,0.421 c-1.15,0.822-1.724,0.831-2.244,0.514c-0.65-0.261-0.706,0.477-0.321,0.718c0.429,0.27,1.52,0.068,2.319-0.447 c0.344-0.262,0.359,0.148,0.143,0.31c-0.951,0.839-1.325,1.058-2.315,0.924c-0.491-0.04-0.485,0.58-0.097,0.822 c0.526,0.33,1.557-0.219,2.356-0.897c0.338-0.184,0.392,0.117,0.226,0.474c-0.487,0.631-0.946,1.003-1.389,1.176 c-0.442,0.17-0.866,0.144-1.167,0.038c-0.366-0.128-0.421,0.404-0.21,0.616c0.176,0.173,0.628,0.281,1.176,0.084 c0.546-0.199,1.133-0.662,1.536-1.207c0.349-0.315,0.306,0.108,0.148,0.403c-0.808,1.305-1.544,1.788-2.516,1.705 c-0.431-0.073-0.529,0.268-0.253,0.585c0.481,0.41,1.085,0.396,1.611-0.007c0.47-0.463,1.367-1.458,1.836-1.991 c0.331-0.27,0.437-0.004,0.34,0.545c-0.089,0.315-0.31,0.645-0.914,0.886c-0.411,0.242-0.102,0.574,0.206,0.578 c0.171,0.005,0.515-0.199,0.78-0.503c0.349-0.401,0.368-0.669,0.561-1.291c0.18-0.304,0.503-0.161,0.503,0.155 c-0.154,0.625-0.288,0.735-0.6,0.992c-0.301,0.286,0.208,0.383,0.379,0.264c0.496-0.341,0.678-0.782,0.842-1.185 c0.119-0.29,0.465-0.148,0.305,0.326c-0.383,1.132-1.015,1.577-2.12,1.805c-0.113,0.022-0.194,0.13-0.141,0.221 c0.147,0.157,0.297,0.301,0.444,0.456c0,0-1.238,0.317-1.921,0.522l-0.942-0.641c0.061-0.234-0.342-0.514-0.648-0.283 c-0.335-0.158-0.521-0.089-0.653,0.145c0.256-0.085,0.385-0.026,0.491,0.099c0.074,0.283,0.445,0.457,0.709,0.301l0.708,0.504 l-1.193-0.033c-0.085-0.326-0.676-0.327-0.84-0.038c-0.215,0-0.358,0.12-0.432,0.401c0.234-0.174,0.335-0.153,0.455-0.12 c0.14,0.248,0.62,0.235,0.754,0l1.145,0.032l-0.669,0.384c-0.385-0.228-0.883,0.114-0.79,0.469 c-0.162,0.135-0.184,0.329-0.08,0.603c0.056-0.191,0.162-0.369,0.327-0.471c0.351,0.096,0.688-0.016,0.688-0.373l0.93-0.527 l0.921,0.362c0,0.246,0.367,0.433,0.683,0.302c0.221,0.027,0.252,0.224,0.289,0.376c0.12-0.219,0.143-0.445-0.136-0.639 c0-0.283-0.357-0.459-0.652-0.296l-0.781-0.278c0.701-0.228,1.988-0.46,1.988-0.46c0.176,0.168,0.316,0.292,0.491,0.443 c0.093,0.058,0.225,0.055,0.368-0.133c0.437-0.649,0.851-1.831,1.484-1.994c0.232-0.06,0.512,0.098,0.453,0.618 c-0.09,0.791-0.669,1.448-1.397,1.941c-0.405,0.27-0.576,0.151-0.89,0.135c-0.405,0.046-0.513,0.248-0.18,0.527 c0.309,0.164,0.589,0.186,0.814,0.142c0.195-0.036,0.423-0.292,0.585-0.432c0.182-0.215,0.485,0.04,0.28,0.292 c-0.375,0.456-0.752,0.755-1.213,0.749c-0.487,0.068-0.396,0.348-0.074,0.483c0.581,0.246,1.107-0.213,1.371-0.516 c0.205-0.228,0.353-0.237,0.316,0.117c-0.204,0.644-0.483,0.894-0.938,0.926c-0.368-0.033-0.373,0.257-0.104,0.454 c0.615,0.434,1.061-0.306,1.269-0.753c0.147-0.406,0.375-0.212,0.399,0.119c0.004,0.445-0.315,0.907-0.577,1.135 C22.603,33.221,24,34.672,24,34.672S25.397,33.221,25.134,32.993L25.134,32.993z M27.007,16.565c-0.218,0-0.352,0.076-0.352,0.169 c0,0.094,0.134,0.17,0.352,0.17c0.216,0,0.353-0.083,0.353-0.177C27.36,16.634,27.223,16.565,27.007,16.565L27.007,16.565z M20.993,16.565c0.218,0,0.352,0.076,0.352,0.169c0,0.094-0.134,0.17-0.352,0.17c-0.216,0-0.353-0.083-0.353-0.177 C20.639,16.634,20.777,16.565,20.993,16.565L20.993,16.565z" clip-rule="evenodd"/></svg>