<svg xmlns="http://www.w3.org/2000/svg"  viewBox="0 0 48 48" width="30px" height="30px"><path fill="#ffeb3b" d="M43.598,28H25H4.402c0.601,2.961,1.873,5.671,3.626,8h31.946C41.725,33.671,42.997,30.961,43.598,28 z"/><path fill="#ffeb3b" d="M25,20h18.598c-0.601-2.961-1.873-5.671-3.626-8H25V20z"/><path fill="#4caf50" d="M39.973,12C36.512,7.401,31.124,4.354,25,4.05V12H39.973z"/><path fill="#4caf50" d="M39.973,36H8.027c3.649,4.85,9.436,8,15.973,8S36.323,40.85,39.973,36z"/><path fill="#4caf50" d="M25,28h18.598C43.861,26.707,44,25.37,44,24s-0.139-2.707-0.402-4H25V28z"/><path fill="#ff3d00" d="M25,20v-8V4.05C24.667,4.034,24.338,4,24,4C12.954,4,4,12.954,4,24c0,1.37,0.139,2.707,0.402,4H25 V20z"/><path fill="#fff" d="M15,11.039L16.488,16h4.82l-3.898,2.457l1.488,4.582L15,20.207l-3.898,2.832l1.488-4.582L8.691,16	h4.82L15,11.039z"/></svg>