<svg xmlns="http://www.w3.org/2000/svg"  viewBox="0 0 48 48" width="50px" height="50px"><path fill="#ff3d00" d="M32,5.675C29.549,4.604,26.846,4,24,4s-5.549,0.604-8,1.675v36.649C18.451,43.396,21.154,44,24,44 s5.549-0.604,8-1.675V5.675z"/><path fill="#ffc107" d="M44,24c0-8.199-4.939-15.237-12-18.325v36.649C39.061,39.237,44,32.199,44,24z"/><path fill="#7cb342" d="M4,24c0,8.199,4.939,15.237,12,18.325V5.675C8.939,8.763,4,15.801,4,24z"/><path fill="#ffeb3b" d="M24,18.488l1.18,3.75H29l-3.09,2.129L27.09,28L24,25.754L20.91,28l1.18-3.633L19,22.238h3.82	L24,18.488z"/></svg>