<svg xmlns="http://www.w3.org/2000/svg"  viewBox="0 0 48 48" width="500px" height="500px"><path fill="#eceff1" d="M16,31h26.716C43.532,28.818,44,26.467,44,24s-0.468-4.818-1.284-7H16V31z"/><path fill="#388e3c" d="M24,4c-2.846,0-5.549,0.604-8,1.675V17h26.716C39.875,9.412,32.579,4,24,4z"/><path fill="#424242" d="M16,42.325C18.451,43.396,21.154,44,24,44c8.579,0,15.875-5.412,18.716-13H16V42.325z"/><path fill="#f44336" d="M16,17V5.675C8.939,8.763,4,15.801,4,24c0,8.199,4.939,15.237,12,18.325V31V17z"/></svg>