<svg xmlns="http://www.w3.org/2000/svg"  viewBox="0 0 48 48" width="100px" height="100px"><path fill="#283593" d="M6.697,14h34.605C37.843,8.028,31.398,4,24,4S10.157,8.028,6.697,14z"/><path fill="#eceff1" d="M44,24c0-3.647-0.992-7.056-2.697-10H6.697C4.992,16.944,4,20.353,4,24H44z"/><path fill="#43a047" d="M41.302,34C43.008,31.056,44,27.647,44,24H4c0,3.647,0.992,7.056,2.698,10H41.302z"/><path fill="#fdd835" d="M24,44c7.398,0,13.843-4.028,17.302-10H6.698C10.157,39.972,16.602,44,24,44z"/><path fill="#d50000" d="M32,42.325V5.675C29.549,4.604,26.846,4,24,4v40C26.846,44,29.549,43.396,32,42.325z"/><polygon fill="#fdd835" points="17.535,11.351 19.618,13 18.88,10.309 20.964,8.662 18.425,8.662 17.535,6.123 16.778,8.662 14.088,8.662 16.342,10.309 15.432,13"/></svg>