<svg xmlns="http://www.w3.org/2000/svg"  viewBox="0 0 48 48" width="30px" height="30px"><path fill="#eceff1" d="M10,36h29.973c1.752-2.329,3.024-5.039,3.626-8H23.333L10,36z"/><path fill="#eceff1" d="M23.333,20h20.265c-0.601-2.961-1.873-5.671-3.626-8H10L23.333,20z"/><path fill="#3f51b5" d="M39.973,12C36.323,7.15,30.537,4,24,4c-6.17,0-11.683,2.797-15.352,7.189L10,12H39.973z"/><path fill="#3f51b5" d="M39.973,36H10l-1.352,0.811C12.317,41.203,17.83,44,24,44C30.537,44,36.323,40.85,39.973,36z"/><path fill="#3f51b5" d="M30,24l-6.667,4h20.265C43.861,26.707,44,25.37,44,24s-0.139-2.707-0.402-4H23.333L30,24z"/><path fill="#d50000" d="M23.333,28L30,24l-6.667-4L10,12l-1.352-0.811C5.749,14.659,4,19.124,4,24 c0,4.876,1.749,9.341,4.648,12.811L10,36L23.333,28z"/><path fill="#fff" d="M13,19l1.117,3.723h3.613l-2.922,1.84L15.926,28L13,25.875L10.074,28l1.117-3.438l-2.922-1.84h3.613	L13,19z"/></svg>