<svg xmlns="http://www.w3.org/2000/svg"  viewBox="0 0 48 48" width="50px" height="50px"><path fill="#ff3d00" d="M7.387,35.135C10.977,40.481,17.076,44,24,44c11.046,0,20-8.954,20-20 c0-4.243-1.33-8.17-3.583-11.406L7.387,35.135z"/><path fill="#ffd600" d="M40.616,12.87C37.026,7.522,30.925,4,24,4C12.954,4,4,12.954,4,24c0,4.245,1.331,8.173,3.586,11.411 L40.616,12.87z"/><path fill="#fff" d="M21.496,34.251c-0.057,0-0.114-0.004-0.172-0.013c-0.711-0.026-1.312-0.535-1.454-1.238 c-0.023-0.103-0.112-0.218-0.197-0.328c-0.096-0.124-0.186-0.241-0.195-0.354c-0.107-0.273-0.101-0.528,0.022-0.725 c0.143-0.228,0.427-0.361,0.845-0.397c-0.114-0.046-0.058-0.155-0.009-0.252c-0.062-0.059-0.129-0.147-0.118-0.239 c0.003-0.02,0.008-0.037,0.017-0.054c-0.087-0.026-0.142-0.088-0.155-0.148c-0.006-0.026-0.004-0.057,0.009-0.087 c-0.169-0.029-0.264-0.173-0.269-0.279c0-0.011,0-0.021,0.001-0.03c-0.106,0.031-0.136,0.127-0.17,0.234 c-0.034,0.11-0.072,0.235-0.219,0.235l-0.062-0.01l-0.02-0.062c0.038-0.091-0.017-0.18-0.074-0.273 c-0.042-0.069-0.085-0.141-0.092-0.216c-0.056,0.157-0.235,0.225-0.421,0.225c-0.14,0-0.277-0.039-0.397-0.112 c0.243-0.095,0.298-0.213,0.351-0.327c0.04-0.087,0.082-0.177,0.193-0.187c0.167,0,0.203-0.034,0.203-0.048 c0.003-0.046-0.119-0.147-0.231-0.161c-0.164-0.021-0.234-0.039-0.244-0.1c-0.01-0.059,0.057-0.096,0.12-0.126 c0.093-0.023,0.179-0.033,0.264-0.033c0.146,0,0.29,0.028,0.425,0.084c-0.001-0.161,0.014-0.365-0.023-0.561 c0,0.06-0.067,0.071-0.137,0.071c-0.115,0-0.229-0.032-0.328-0.092c-0.034,0.037-0.119,0.055-0.207,0.055 c-0.051,0-0.102-0.006-0.151-0.018c-0.131,0.104-0.326,0.19-0.518,0.275c-0.355,0.155-0.69,0.303-0.818,0.6 c-0.106,0.249-0.299,0.35-0.521,0.466c-0.229,0.12-0.515,0.271-0.809,0.637c-0.208,0.26-0.475,0.3-0.756,0.344 c-0.269,0.041-0.573,0.087-0.892,0.331c-0.022-0.346,0.164-0.418,0.379-0.503c0.202-0.079,0.454-0.178,0.694-0.502l-0.223,0.103 c-0.351,0.021-0.579,0.2-0.8,0.374c-0.206,0.162-0.4,0.315-0.669,0.315c-0.07,0-0.146-0.011-0.221-0.033 c0.291-0.159,0.408-0.351,0.532-0.554c0.031-0.052,0.063-0.104,0.099-0.153c-0.01,0.01-0.019,0.021-0.027,0.031 c-0.138,0.166-0.294,0.354-0.54,0.362c-0.19,0.008-0.332,0.142-0.481,0.282c-0.178,0.167-0.378,0.356-0.691,0.356l0,0 c-0.229,0-0.359,0.138-0.523,0.312c-0.226,0.24-0.506,0.538-1.131,0.592c-0.382,0.043-0.799,0.283-1.167,0.495 c-0.347,0.2-0.646,0.374-0.883,0.374c-0.081,0-0.152-0.021-0.211-0.063c0.637-0.307,1.182-0.729,1.548-1.276 c0.379-0.438,0.811-0.594,1.158-0.718c0.337-0.121,0.604-0.217,0.717-0.509c-0.273,0.298-0.682,0.442-1.105,0.479 c-0.201,0.018-0.404,0.155-0.618,0.301c-0.248,0.168-0.504,0.343-0.786,0.343c-0.082,0-0.162-0.016-0.24-0.045 c0.358-0.192,0.669-0.411,0.877-0.711c0.182-0.204,0.418-0.261,0.646-0.315c0.219-0.053,0.443-0.107,0.631-0.285 c0.297-0.278,0.593-0.334,0.879-0.39c0.297-0.057,0.578-0.11,0.855-0.406c-0.027,0.015-0.06,0.017-0.093,0.017 c-0.008,0-0.016,0-0.023,0c-0.237,0-0.469,0.066-0.67,0.191c-0.139,0.074-0.293,0.084-0.426,0.084l-0.308-0.006 c-0.148,0-0.322,0.012-0.477,0.102c-0.066-0.356,0.303-0.411,0.693-0.469c0.267-0.04,0.568-0.085,0.794-0.212 c0.341-0.186,0.722-0.29,1.107-0.307c-0.052-0.018-0.103-0.038-0.152-0.059c-0.241-0.098-0.49-0.198-0.819-0.198 c-0.138,0-0.279,0.017-0.432,0.052c-0.042,0.011-0.087,0.017-0.133,0.017c-0.158,0-0.307-0.065-0.451-0.128 c-0.134-0.059-0.261-0.114-0.385-0.114c-0.092,0-0.175,0.031-0.255,0.097c-0.083-0.098-0.054-0.163,0.003-0.222 c0.115-0.118,0.313-0.189,0.531-0.189c0.121,0,0.246,0.021,0.372,0.062c0.094,0.031,0.179,0.046,0.268,0.046 c0.079,0,0.151-0.012,0.228-0.023c0.087-0.013,0.178-0.026,0.285-0.026c0.242,0,0.511,0.073,0.845,0.232 c0.074,0.027,0.167,0.041,0.28,0.041c0.12,0,0.247-0.015,0.376-0.03c0.135-0.016,0.271-0.032,0.403-0.032 c0.05,0,0.096,0.003,0.14,0.007c-0.071-0.015-0.15-0.024-0.233-0.024h-0.079l-0.062-0.067c0.112-0.237,0.573-0.263,0.767-0.263 c0.242,0,0.494,0.035,0.715,0.1c-0.125-0.048-0.18-0.178-0.199-0.316c0.084-0.026,0.14-0.03,0.191-0.03 c0.022,0,0.045,0.001,0.067,0.001c0.098,0,0.2-0.014,0.306-0.027c0.088-0.012,0.177-0.024,0.266-0.028 c-0.086-0.079-0.147-0.183-0.176-0.299c0.083-0.035,0.124-0.039,0.157-0.039c0.009,0,0.018,0,0.026,0 c0.115,0,0.205-0.065,0.3-0.135c0.053-0.039,0.107-0.078,0.168-0.109c-0.034,0.015-0.08,0.021-0.133,0.021 c-0.189,0-0.462-0.09-0.548-0.25c0.084-0.052,0.124-0.056,0.157-0.056c0.007,0,0.012,0,0.018,0c0.131,0,0.23-0.065,0.345-0.141 c0.127-0.083,0.27-0.178,0.48-0.195c-0.056-0.233,0.118-0.491,0.387-0.59c-0.13-0.018-0.188-0.17-0.172-0.322 c0.014-0.188,0.043-0.341,0.128-0.45c-0.113,0.002-0.209,0.023-0.309,0.045c-0.157,0.034-0.335,0.074-0.506,0.074 c-0.229,0-0.396-0.071-0.512-0.216c0.093-0.048,0.155-0.054,0.209-0.054c0.016,0,0.045,0.001,0.046,0.001 c0.288,0,0.519-0.163,0.763-0.336c0.224-0.157,0.455-0.32,0.732-0.345c-0.139-0.078-0.184-0.265-0.164-0.449 c0.053-0.244,0.268-0.417,0.51-0.417c-0.104-0.047-0.133-0.236-0.091-0.352l0.012-0.03l0.104-0.071 c-0.078-0.053-0.028-0.177,0.075-0.238l-0.134-0.012c-0.024,0-0.062,0.007-0.126,0.022c-0.025,0.001-0.049,0.002-0.071,0.002 c-0.104,0-0.164-0.016-0.223-0.031c-0.072-0.019-0.147-0.038-0.22-0.038c-0.071,0-0.131,0.018-0.188,0.057 c-0.09-0.259,0.086-0.283,0.272-0.309c0.153-0.021,0.344-0.047,0.528-0.17c0.125-0.061,0.252-0.089,0.384-0.089 c0.192,0,0.378,0.062,0.53,0.179c-0.081-0.091-0.041-0.228,0.058-0.318c0.115-0.087,0.247-0.131,0.386-0.131 c0.102,0,0.202,0.024,0.292,0.071c-0.013-0.095,0.006-0.19,0.055-0.274c0.058-0.101,0.151-0.173,0.264-0.202 c0.064-0.016,0.129-0.022,0.193-0.022c0.138,0,0.272,0.032,0.395,0.096c-0.004-0.016-0.003-0.032-0.002-0.048 c0.006-0.077,0.009-0.123-0.118-0.203c-0.228-0.142-0.466-0.313-0.398-0.559c0.189,0.182,0.434,0.23,0.691,0.281l0.16,0.033 c0.265,0.076,0.482,0.26,0.601,0.505c-0.016-0.099,0.088-0.149,0.2-0.149c0.243,0.021,0.397,0.111,0.493,0.255 c-0.004-0.09,0.104-0.138,0.215-0.138c0.044,0,0.086,0.007,0.128,0.021c0.146,0.024,0.283,0.116,0.367,0.248 c0.004-0.062,0.088-0.087,0.175-0.087c0.061,0,0.12,0.013,0.176,0.036c0.105,0.037,0.203,0.095,0.285,0.169 c-0.029-0.136-0.019-0.166-0.1-0.262c-0.101-0.117-0.271-0.314-0.154-0.526c0.109,0.109,0.299,0.251,0.534,0.345 c0.119,0.048,0.162,0.154,0.208,0.269c0.054,0.132,0.108,0.269,0.289,0.356c0.144,0.061,0.237,0.202,0.237,0.359 c0.004-0.102,0.107-0.136,0.212-0.136c0.075,0,0.151,0.019,0.219,0.052c0.221,0.108,0.34,0.265,0.356,0.389 c0.032-0.039,0.101-0.053,0.184-0.053c0.098,0,0.217,0.019,0.354,0.056c0.165,0.044,0.284,0.104,0.368,0.171 c-0.007-0.054,0-0.107,0.022-0.159c0.248,0.162,0.482,0.264,0.725,0.264c0.044,0,0.089-0.004,0.133-0.011 c0.012,0,0.023,0,0.034,0c0.11,0,0.19,0.007,0.262,0.021c-0.109-0.041-0.17-0.15-0.202-0.271 c-0.022-0.064-0.028-0.139-0.018-0.212c-0.013,0.07-0.085,0.076-0.156,0.076c-0.211,0-0.42-0.056-0.604-0.162 c-0.177-0.116-0.378-0.249-0.568-0.249c-0.035,0-0.068,0.005-0.101,0.014c0.021-0.235,0.181-0.254,0.295-0.254 c0.074,0,0.154,0.01,0.233,0.02c0.071,0.009,0.143,0.018,0.207,0.018c0.099,0,0.157-0.021,0.189-0.071l0.089-0.117 c-0.023,0.013-0.048,0.018-0.073,0.018c-0.077,0.001-0.158-0.052-0.227-0.119c-0.201-0.165-0.26-0.457-0.138-0.691 c-0.053,0.019-0.104,0.027-0.152,0.027c-0.147,0-0.279-0.078-0.376-0.194c-0.147-0.141-0.202-0.354-0.14-0.551 c-0.061,0.098-0.187,0.115-0.314,0.115c-0.048,0-0.096-0.003-0.144-0.008c-0.271,0.011-0.492,0.229-0.509,0.506 c-0.379-0.406-0.189-0.608-0.023-0.787c0.091-0.098,0.177-0.189,0.184-0.314c0.012-0.109,0.046-0.218,0.097-0.317 c-0.301,0.092-0.629,0.217-0.9,0.436c0.112-0.511,0.506-0.842,0.984-0.945c-0.013-0.007-0.017-0.032-0.023-0.077 c-0.02-0.131-0.001-0.243,0.05-0.308l0.014-0.017l0.095-0.043c-0.117-0.043-0.13-0.192-0.071-0.322 c0.057-0.173,0.151-0.265,0.289-0.276c-0.087-0.053-0.07-0.187-0.001-0.292l-0.061,0.086c-0.03,0.005-0.067,0.007-0.107,0.007 c-0.166,0-0.388-0.041-0.634-0.088c-0.301-0.057-0.643-0.122-0.963-0.122c-0.324,0-0.573,0.067-0.761,0.204 c-0.035-0.368,0.289-0.524,0.911-0.524c0.22,0,0.473,0.02,0.751,0.054c0.299-0.236,0.713-0.372,1.129-0.372 c0.068,0,0.137,0.004,0.204,0.011c-0.202-0.041-0.277-0.271-0.193-0.474c0.241,0.326,0.62,0.365,1.021,0.406 c0.268,0.028,0.544,0.057,0.774,0.171l0.155-0.021c-1.046-0.389-2.118-0.713-2.686-0.713c-0.216,0-0.304,0.046-0.341,0.084 c-0.077,0.081-0.056,0.131-0.049,0.147c0.052,0.119,0.321,0.203,0.448,0.203c0.03,0.161-0.06,0.214-0.188,0.214 c-0.217,0-0.489-0.148-0.621-0.338c-0.089-0.128-0.109-0.265-0.061-0.396c0.099-0.261,0.421-0.404,0.909-0.404 c0.498,0,1.128,0.147,1.823,0.425c-0.112-0.118-0.096-0.307-0.021-0.471c-0.039,0.007-0.082,0.009-0.127,0.009 c-0.102,0-0.214-0.011-0.328-0.011c-0.086,0-0.173,0.006-0.258,0.02c0.042-0.187,0.188-0.239,0.388-0.239 c0.132,0,0.289,0.022,0.469,0.067c0.035-0.059,0.132-0.107,0.234-0.13c-0.355-0.103-0.744-0.206-1.137-0.206 c-0.148,0-0.297,0.015-0.443,0.044c-0.001-0.246,0.193-0.342,0.503-0.342c0.181,0,0.394,0.033,0.615,0.096 c0.04-0.102,0.209-0.164,0.436-0.164c0.441,0,1.076,0.235,1.656,0.614c-0.076-0.083-0.048-0.201,0.007-0.31 c-0.21-0.11-0.476-0.221-0.753-0.257c0.079-0.116,0.163-0.125,0.247-0.125c0.246,0,0.482,0.074,0.685,0.215 c-0.034-0.024-0.001-0.051,0.035-0.074c-0.429-0.182-0.923-0.329-1.429-0.341c0.09-0.153,0.24-0.185,0.424-0.185 c0.72,0,1.746,0.442,2.217,0.839c0.146,0.123,0.361,0.18,0.589,0.24c0.329,0.087,0.702,0.186,0.994,0.509 c0.134-0.097,0.337-0.14,0.547-0.14c0.333,0,0.66,0.112,0.923,0.318c-0.013-0.088,0.094-0.152,0.211-0.16 c0.043-0.008,0.091-0.012,0.139-0.012c0.359,0,0.682,0.24,0.784,0.584c0.001-0.042,0.057-0.045,0.111-0.045 c0.282,0,0.552,0.087,0.781,0.251c0.124-0.104,0.274-0.157,0.393-0.157c0.103,0,0.185,0.04,0.237,0.116 c0.078-0.093,0.238-0.134,0.399-0.135c0.084-0.165,0.082-0.304,0.079-0.45c-0.004-0.205-0.009-0.416,0.334-0.724 c0.271-0.245,0.28-0.425,0.289-0.599c0.009-0.18,0.018-0.365,0.299-0.582c0.242-0.174,0.575-0.413,0.56-0.596 c0.25,0.237,0.073,0.425-0.114,0.623c-0.198,0.211-0.424,0.45-0.356,0.853c0.047,0.272-0.039,0.418-0.139,0.586 c-0.092,0.154-0.206,0.346-0.256,0.707c0.052-0.127,0.165-0.224,0.263-0.337c0.167-0.262,0.465-0.27,0.781-0.277 c0.313-0.008,0.638-0.017,0.919-0.25c0.046,0.422-0.288,0.539-0.611,0.652c-0.221,0.077-0.449,0.158-0.582,0.32 c-0.137,0.184-0.314,0.341-0.514,0.452c0.216-0.098,0.459-0.158,0.679-0.269c0.441-0.291,0.787-0.33,1.067-0.33 c0.09,0,0.439,0.017,0.528,0.017c0.197,0,0.439-0.019,0.738-0.155c-0.059,0.411-0.577,0.472-1.127,0.536 c-0.374,0.044-0.761,0.089-1.001,0.23c-0.477,0.31-1.027,0.511-1.591,0.582c0.038,0.085-0.003,0.125-0.075,0.139 c0.068,0.023,0.074,0.071,0.07,0.102c-0.011,0.063-0.075,0.107-0.169,0.117c0.062,0.022,0.063,0.071,0.06,0.095 c-0.011,0.066-0.076,0.112-0.171,0.12c0.376,0.259,0.234,0.585,0.109,0.873c-0.071,0.164-0.139,0.318-0.125,0.474 c0.149-0.042,0.253-0.055,0.354-0.08c0.215-0.069,0.331-0.168,0.325-0.277c-0.007-0.128-0.172-0.251-0.314-0.28 c0.086-0.136,0.186-0.157,0.287-0.157c0.199,0,0.384,0.083,0.495,0.221c0.089,0.111,0.121,0.249,0.091,0.387 c0.134-0.148,0.234-0.276,0.206-0.407c-0.025-0.119-0.153-0.216-0.284-0.216h-0.166l0.111-0.091 c0.085-0.057,0.184-0.09,0.286-0.096c0.001,0,0.002,0,0.002,0c0.344,0,0.599,0.24,0.618,0.547l0.07-0.049 c0.595,0,1.021,0.143,1.138,0.382c0.044,0.09,0.066,0.238-0.082,0.429c-0.083-0.147-0.11-0.235-0.174-0.303 c-0.097-0.102-0.278-0.153-0.538-0.153c-0.465,0-1.059,0.166-1.371,0.265c-0.328,0.108-0.672,0.163-1.02,0.163 c-0.24,0-0.481-0.026-0.716-0.079c0.09,0.278,0.124,0.661-0.214,0.904c0.015-0.37-0.015-0.705-0.159-0.998l-0.426-0.141 c-0.077,0.054-0.187,0.123-0.288,0.203c0.025-0.005,0.051-0.008,0.075-0.008c0.167,0,0.32,0.116,0.426,0.275 c0.137,0.122,0.156,0.349,0.036,0.505c0.189,0.046,0.252,0.318,0.208,0.516c-0.04,0.177-0.157,0.291-0.315,0.305 c0-0.176-0.064-0.238-0.183-0.34c-0.045-0.038-0.092-0.078-0.129-0.123c0.011,0.031-0.021,0.062-0.052,0.092 c-0.141,0.136-0.215,0.219-0.093,0.35l0.138,0.147l-0.271-0.085c-0.118-0.041-0.213-0.126-0.268-0.239 c-0.053-0.108-0.061-0.231-0.023-0.346c-0.067,0.191-0.259,0.269-0.462,0.269c-0.119,0-0.238-0.028-0.346-0.081 c0.177-0.098,0.255-0.198,0.346-0.314c0.063-0.081,0.128-0.164,0.223-0.218c-0.011,0.004-0.021,0.005-0.031,0.005 c-0.054,0-0.102-0.04-0.144-0.089c-0.338-0.367-0.798-0.611-1.295-0.685c-0.138,0.063-0.31,0.097-0.486,0.097 c-0.169,0-0.334-0.031-0.491-0.092c-0.068-0.016-0.146-0.024-0.224-0.024c-0.277,0-0.546,0.114-0.737,0.314 c0.021-0.015,0.044-0.021,0.068-0.021c0.04,0,0.084,0.015,0.13,0.025c0.333,0.091,0.498,0.289,0.658,0.481 c0.152,0.183,0.297,0.355,0.581,0.433c-0.062,0.108-0.117,0.113-0.168,0.113c-0.275,0-0.456-0.147-0.665-0.318 c-0.188-0.154-0.402-0.33-0.742-0.447l-0.215-0.09c-0.171-0.009-0.357-0.041-0.539-0.092l0.181,0.073 c0.224,0.269,0.418,0.501,0.784,0.609c0.505,0.103,0.983,0.304,1.417,0.594c0.511,0.248,1.087,0.38,1.662,0.38 c0.083,0,0.166-0.002,0.25-0.008c0.077-0.018,0.176-0.044,0.283-0.073c0.274-0.073,0.617-0.165,0.889-0.165 c0.133,0,0.237,0.021,0.32,0.064c0.036-0.218,0.18-0.439,0.356-0.637c0.004,0.008,0.007,0.015,0.01,0.022 c0.078-0.54,0.547-0.959,1.107-0.959c0.056-0.007,0.106-0.01,0.157-0.01c0.537,0,1.008,0.364,1.145,0.885 c0.024-0.003,0.048-0.004,0.07-0.004c0.305,0,0.416,0.227,0.492,0.381c0.048,0.097,0.079,0.155,0.125,0.155 c0.217,0.158,0.302,0.368,0.258,0.547c-0.038,0.154-0.164,0.261-0.354,0.302c-0.069,0.388-0.449,0.686-0.886,0.688 c-0.148,0.201-0.421,0.327-0.708,0.327c-0.044,0-0.087-0.003-0.131-0.009c-0.039,0.007-0.092,0.011-0.145,0.011 c-0.169,0-0.338-0.039-0.49-0.113c-0.295-0.003-0.594-0.146-0.8-0.385c-0.229,0.015-0.461,0.16-0.882,0.424l-0.179,0.111 c-0.254,0.135-0.537,0.205-0.821,0.205c-0.091,0-0.182-0.007-0.271-0.021c0.067,0.056,0.141,0.181,0.22,0.312 c0.139,0.233,0.296,0.498,0.076,0.726c-0.153-0.293-0.352-0.512-0.612-0.611c0.139,0.055,0.076,0.17,0.021,0.271 c-0.069,0.126-0.134,0.245-0.014,0.428c-0.051,0.021-0.093,0.03-0.128,0.03c-0.057,0-0.098-0.021-0.138-0.045 c-0.303-0.188-0.436-0.541-0.35-0.868c-0.083,0.1-0.217,0.147-0.359,0.147c-0.09,0-0.177-0.02-0.259-0.058 c0.05-0.102,0.086-0.115,0.119-0.133c0.091-0.049,0.157-0.131,0.188-0.23s0.02-0.204-0.029-0.296 c-0.111-0.035-0.255-0.063-0.402-0.063c-0.211,0-0.416,0.06-0.593,0.174c0.046,0.104,0.06,0.26,0.062,0.415 c0.011,0.206,0,0.413-0.033,0.613c-0.065,0.442-0.249,0.859-0.531,1.206c-0.109,0.13-0.154,0.22-0.198,0.308 c-0.061,0.121-0.118,0.236-0.326,0.42c-0.115,0.106-0.217,0.238-0.178,0.684c0.039-0.008,0.078-0.011,0.116-0.011 c0.222,0,0.417,0.116,0.545,0.293c0.005-0.038,0.068-0.048,0.133-0.048c0.128,0,0.251,0.039,0.355,0.111 c0.04-0.038,0.13-0.055,0.222-0.055c0.222,0,0.432,0.096,0.578,0.263c-0.006-0.021,0.031-0.023,0.069-0.023 c0.229,0,0.45,0.085,0.62,0.238c0.012-0.145,0.179-0.243,0.359-0.243c0.043,0,0.086,0.006,0.128,0.018 c-0.064-0.021-0.05-0.089-0.018-0.152c0.071-0.139,0.213-0.225,0.368-0.225c0.065,0,0.131,0.016,0.188,0.045 c-0.115-0.076-0.098-0.212-0.019-0.322c0.094-0.13,0.258-0.207,0.439-0.207c0.058,0,0.114,0.008,0.17,0.023 c0.135-0.098,0.332-0.151,0.531-0.151c0.301,0,0.583,0.118,0.794,0.331c-0.086,0.061-0.137,0.064-0.179,0.064 c-0.007,0-0.015,0-0.021,0c-0.162,0-0.243,0.076-0.337,0.163c-0.096,0.088-0.203,0.188-0.399,0.188 c0.065,0.08,0.048,0.193-0.048,0.301l0.067,0.082c0.033-0.108,0.16-0.146,0.291-0.146c0.092,0,0.181,0.019,0.265,0.055 c0.021-0.025,0.086-0.038,0.15-0.038c0.183,0,0.351,0.099,0.438,0.258c0.347,0.134,0.516,0.547,0.366,0.904 c-0.154-0.189-0.268-0.244-0.378-0.297c-0.063-0.03-0.124-0.06-0.171-0.11c-0.018,0.014-0.038,0.025-0.062,0.035 c0.516,0.169,0.915,0.609,1.017,1.168c0.002,0.044,0.001,0.08-0.002,0.117c-0.048,0.678-0.617,1.209-1.295,1.209l-0.145-0.003 c-0.241,0-0.472-0.054-0.679-0.15c-0.069,0.052-0.147,0.058-0.229,0.058c-0.399,0-0.883-0.148-0.999-0.475 c-0.002,0-0.003,0-0.005,0c-0.335,0-0.636-0.309-0.657-0.687c-0.169-0.104-0.271-0.28-0.26-0.447 c0.005-0.081,0.037-0.188,0.152-0.291c-0.094-0.02-0.18-0.068-0.271-0.119c-0.122-0.068-0.248-0.14-0.399-0.14 c-0.062,0-0.123,0.011-0.188,0.034c-0.044,0.017-0.101,0.024-0.168,0.024c-0.255,0-0.723-0.132-0.795-0.324 c-0.003,0.058-0.095,0.068-0.168,0.068c-0.208,0-0.553-0.091-0.652-0.286c0.007,0.028-0.033,0.034-0.079,0.034 c-0.228,0-0.572-0.152-0.622-0.369c-0.005,0.025-0.039,0.029-0.073,0.029c-0.272,0-0.546-0.202-0.563-0.416l-0.063,0.056 c-0.02,0.248-0.202,0.425-0.454,0.447c0.035-0.229-0.04-0.384-0.09-0.486c-0.025-0.052-0.045-0.092-0.04-0.126 c-0.007,0.004-0.053,0.004-0.064,0.004c-0.102,0-0.194,0.061-0.293,0.124c-0.112,0.074-0.229,0.149-0.376,0.149 c-0.118,0-0.237-0.05-0.363-0.153l-0.107-0.089l0.206,0.004c0.164,0,0.232-0.101,0.318-0.228 c0.078-0.116,0.171-0.253,0.357-0.319c-0.207-0.061-0.295-0.134-0.369-0.196c-0.069-0.058-0.12-0.1-0.257-0.116 c0.009-0.138,0.087-0.17,0.185-0.17c0.127,0,0.274,0.053,0.393,0.141c0.053,0.013,0.09,0.018,0.119,0.018 c0.037,0,0.061-0.008,0.087-0.017c0.061-0.02,0.129-0.043,0.212-0.043c0.064,0,0.13,0.015,0.197,0.043 c-0.136-0.1-0.135-0.294-0.027-0.444c-0.043,0.019-0.089,0.026-0.137,0.026c-0.11,0-0.229-0.044-0.342-0.104 c-0.042,0.038-0.133,0.057-0.226,0.057c-0.053,0-0.105-0.006-0.156-0.018c-0.108-0.032-0.21-0.076-0.304-0.131 c-0.033,0.02-0.103,0.026-0.171,0.026c-0.387-0.005-0.729-0.117-1.019-0.324c-0.025,0.025-0.096,0.035-0.165,0.035 c-0.353-0.03-0.624-0.121-0.86-0.267c-0.285-0.011-0.578-0.115-0.824-0.298c-0.015,0.001-0.029,0.001-0.044,0.001 c-0.22,0-0.423-0.075-0.587-0.205c-0.05,0.02-0.13,0.024-0.203,0.024c-0.342,0-0.587-0.093-0.728-0.276 c-0.007,0.087-0.116,0.132-0.232,0.132c-0.229-0.007-0.381-0.053-0.51-0.142c0.033,0.099-0.073,0.188-0.202,0.211 c-0.053,0.017-0.113,0.025-0.174,0.025c-0.106,0-0.211-0.027-0.305-0.078c0.066,0.088,0.001,0.204-0.104,0.279 c-0.053,0.034-0.111,0.051-0.171,0.051c-0.019,0-0.037-0.001-0.055-0.004c0.022,0.023,0.021,0.063,0.014,0.103 c-0.057,0.104-0.142,0.169-0.237,0.194c0.082,0.031,0.092,0.146,0.06,0.255c0.006,0.068-0.042,0.148-0.119,0.188 c0.115,0.006,0.105,0.154,0.06,0.351c-0.065,0.138-0.081,0.283-0.048,0.421c0.088,0.198,0.17,0.333,0.241,0.473l0.28,0.077 c0.033-0.082,0.151-0.139,0.28-0.146c-0.161-0.167-0.084-0.459,0.137-0.607c0.021-0.27,0.252-0.469,0.519-0.469l0.101,0.004 c0.373,0,0.726,0.144,0.994,0.402l-0.67,0.141c0.01,0.129-0.121,0.264-0.288,0.304c0.095,0.047,0.106,0.162,0.055,0.264 c0.103-0.088,0.238-0.116,0.376-0.116c0.146-0.053,0.279-0.085,0.411-0.085c0.086,0,0.17,0.013,0.252,0.038 c0.017-0.012,0.062-0.02,0.106-0.023c0.002,0,0.003,0,0.005,0c0.454,0,0.787,0.312,0.816,0.708 c0.277,0.155,0.483,0.468,0.542,0.82c0.003,0.083-0.004,0.159-0.021,0.232c-0.092,0.418-0.468,0.721-0.894,0.721 c-0.066,0-0.133-0.007-0.197-0.021c-0.083-0.009-0.167-0.024-0.248-0.046c-0.082,0.052-0.166,0.059-0.25,0.059 c-0.249,0-0.494-0.063-0.711-0.184c-0.079-0.069-0.187-0.113-0.3-0.161c-0.19-0.078-0.405-0.167-0.515-0.371 c-0.048,0.006-0.094,0.009-0.137,0.009c-0.192,0-0.351-0.053-0.491-0.138c-0.053,0.401-0.051,0.855,0.081,1.284 c0.264,0.013,0.495,0.26,0.522,0.565c0.129,0.004,0.216,0.075,0.268,0.173c0.051,0.098,0.061,0.21,0.028,0.315 c0.05-0.018,0.1-0.026,0.148-0.026c0.129,0,0.252,0.058,0.355,0.144c-0.019-0.087,0.109-0.147,0.266-0.147 c0.167,0,0.334,0.069,0.449,0.186c0.002,0,0.005,0,0.008,0c0.403,0,0.721,0.336,0.711,0.737c0.253,0.298,0.251,0.776-0.016,1.104 c-0.087-0.192-0.101-0.354-0.13-0.513c-0.02-0.109-0.117-0.187-0.212-0.261c-0.098-0.077-0.189-0.148-0.198-0.257 c-0.025,0.008-0.052,0.011-0.078,0.011c-0.141,0-0.295-0.093-0.396-0.233c-0.021,0.062-0.118,0.089-0.218,0.089 c-0.03,0-0.06-0.002-0.089-0.007c0.244,0.09,0.373,0.345,0.363,0.613c0.141,0.172,0.141,0.445-0.01,0.649 c0.002,0.082-0.054,0.178-0.143,0.237c0.025,0.071,0.021,0.118,0.015,0.166C22.518,33.843,22.043,34.251,21.496,34.251z M33.929,30.027c-0.004,0.039-0.015,0.079-0.029,0.117c0.027-0.006,0.084-0.008,0.089-0.008 C33.967,30.102,33.947,30.064,33.929,30.027z M33.688,29.562c0.028,0,0.055,0.01,0.079,0.027 c-0.002-0.062,0.002-0.123,0.01-0.184c-0.035,0.051-0.075,0.104-0.119,0.16C33.668,29.563,33.679,29.562,33.688,29.562z M33.976,28.907c0.015-0.021,0.03-0.04,0.047-0.06c-0.013,0.001-0.024,0.001-0.037,0.001l-0.018-0.012 C33.973,28.859,33.976,28.883,33.976,28.907z M34.531,28.4c-0.013,0.037-0.028,0.073-0.048,0.107 c0.032-0.032,0.068-0.058,0.108-0.078C34.571,28.422,34.551,28.412,34.531,28.4z M35.294,28.347l0.013-0.001 c-0.005-0.006-0.009-0.012-0.012-0.019C35.295,28.334,35.295,28.341,35.294,28.347z M26.706,23.466 c0.009-0.008,0.032-0.012,0.063-0.012c0.004,0,0.008,0,0.012,0c-0.033-0.017-0.062-0.034-0.089-0.053 C26.699,23.425,26.703,23.446,26.706,23.466z M37.087,22.231c-0.008-0.026,0.018-0.051,0.048-0.073l-0.099,0.025 C37.054,22.198,37.071,22.214,37.087,22.231z M38.333,21.603c-0.065,0.135-0.156,0.255-0.269,0.354 c0.032,0.014,0.047,0.055,0.048,0.104c0.053-0.191,0.245-0.299,0.452-0.302c-0.001,0-0.003,0-0.004,0 C38.422,21.76,38.361,21.692,38.333,21.603z M36.392,21.934c-0.013-0.007-0.024-0.016-0.036-0.024 c0.001,0.007,0.002,0.016,0.002,0.023C36.369,21.933,36.381,21.933,36.392,21.934z M29.518,19.46 c-0.091,0.001-0.181,0.01-0.27,0.024c0.043,0.019,0.049,0.088,0.06,0.155c0.164,0.082,0.338,0.222,0.494,0.38 c0.033-0.037,0.113-0.068,0.191-0.106c-0.105-0.012-0.186-0.11-0.265-0.208C29.659,19.62,29.591,19.536,29.518,19.46z M30.063,19.576c0.103,0.115,0.212,0.224,0.326,0.326c0.267-0.027,0.325-0.148,0.382-0.266c0.023-0.048,0.047-0.096,0.083-0.135 c-0.157,0.074-0.326,0.087-0.496,0.087C30.26,19.589,30.162,19.584,30.063,19.576z M33.678,19.358 c0.062,0.066,0.114,0.109,0.253,0.117c0.144,0.008,0.262,0.088,0.386,0.174c0.087,0.06,0.178,0.12,0.28,0.159 c0.058-0.107,0.162-0.215,0.285-0.291L33.678,19.358z M36.035,19.714c0.121,0.036,0.247,0.061,0.373,0.075 c-0.111-0.111-0.165-0.265-0.172-0.43c-0.035,0.08-0.086,0.152-0.143,0.219C36.067,19.616,36.047,19.663,36.035,19.714z M36.026,19.763l0.01-0.001l-0.008-0.018C36.027,19.75,36.027,19.757,36.026,19.763z M35.495,19.556l0.072,0.022l0.086-0.048 c-0.026-0.002-0.043-0.019-0.052-0.041C35.567,19.514,35.532,19.536,35.495,19.556z M34.168,18.479 c-0.332,0.006-0.628,0.206-0.757,0.514c0.568,0.034,1.174,0.192,1.761,0.401c0.306-0.143,0.35-0.26,0.396-0.384 c0.021-0.058,0.043-0.117,0.086-0.17l-0.062,0.066c-0.159,0.092-0.361,0.144-0.564,0.144h-0.333l0.236-0.101 c0.143-0.088,0.164-0.211,0.103-0.3l-0.339-0.1c-0.069,0.156-0.238,0.299-0.434,0.392C34.238,18.754,34.226,18.605,34.168,18.479 z M29.391,18.957c0.111,0.021,0.231,0.105,0.337,0.21c0.208-0.012,0.373-0.061,0.516-0.152c-0.08,0.021-0.162,0.031-0.245,0.031 c-0.193,0-0.392-0.053-0.583-0.131L29.391,18.957z M27.713,16.15c0.051,0.119,0.246,0.284,0.551,0.461 c0.042-0.073,0.164-0.117,0.286-0.119C28.268,16.407,27.993,16.269,27.713,16.15z M28.051,15.873 c-0.109,0.04-0.189,0.058-0.268,0.085c0.41,0.043,0.813,0.214,1.115,0.349c-0.278-0.141-0.554-0.312-0.854-0.417L28.051,15.873z M30.175,15.741c0.201,0.138,0.393,0.299,0.575,0.471c0.146-0.014,0.281-0.026,0.414-0.052l-0.159,0.018 c-0.159-0.084-0.314-0.166-0.469-0.234C30.413,15.88,30.293,15.812,30.175,15.741z M29.761,16.124c0.15,0,0.32,0.021,0.489,0.052 c-0.178-0.086-0.331-0.231-0.505-0.354c-0.071-0.038-0.142-0.082-0.21-0.132c0,0.151,0.034,0.302,0.101,0.439 C29.676,16.126,29.717,16.124,29.761,16.124z M27.378,15.314c-0.077,0-0.15,0.011-0.217,0.032l0.315,0.041 c0.477,0.151,0.951,0.351,1.407,0.59C28.258,15.572,27.757,15.314,27.378,15.314z M29.586,15.428 c0.128,0.048,0.253,0.108,0.375,0.179c-0.102-0.067-0.201-0.137-0.298-0.21L29.586,15.428z"/><path fill="#424242" d="M38.264,13.903c0.289,0.49-0.704,0.672-0.57,1.487c0.086,0.497-0.288,0.518-0.394,1.279 c0.132-0.08,0.25-0.181,0.35-0.299c0.312-0.488,1.103-0.03,1.694-0.521c-0.056,0.595-0.924,0.488-1.264,0.903 c-0.134,0.18-0.304,0.33-0.499,0.44c0.252-0.005,0.5-0.067,0.725-0.18c0.417-0.275,0.741-0.325,1.046-0.325 c0.177,0,0.348,0.017,0.526,0.017c0.23,0,0.473-0.029,0.76-0.161c-0.199,0.554-1.582,0.329-2.173,0.679 c-0.474,0.308-1.011,0.505-1.571,0.575c0.083,0.078,0.004,0.143-0.131,0.143c-0.035,0-0.074-0.004-0.115-0.014 c0.296,0.095,0.219,0.23,0.037,0.23c-0.029,0-0.06-0.003-0.093-0.011c0.212,0.09,0.168,0.211,0.019,0.224 c0.505,0.504-0.101,0.943-0.062,1.401c0.032,0.002,0.063,0.003,0.095,0.003c0.108,0,0.216-0.013,0.321-0.039 c0.637-0.205,0.303-0.595,0.008-0.655c0.093-0.04,0.187-0.058,0.278-0.058c0.331,0,0.604,0.245,0.537,0.546 c0.541-0.244,0.269-0.662-0.03-0.662c-0.009,0-0.018,0-0.027,0.001c0.078-0.052,0.169-0.083,0.262-0.088 c0.011-0.001,0.023-0.001,0.034-0.001c0.28,0,0.516,0.218,0.533,0.501c0.041-0.001,0.081-0.002,0.12-0.002 c0.885,0,1.34,0.312,1.016,0.73c0.019-0.359-0.279-0.476-0.672-0.476c-0.445,0-1.014,0.15-1.385,0.267 C37.312,19.946,36.973,20,36.633,20c-0.236,0-0.473-0.026-0.706-0.078c0.027,0.309,0.07,0.681-0.254,0.913 c0.095-0.326,0.065-0.675-0.084-0.98l-0.455-0.165c-0.119,0.058-0.232,0.129-0.336,0.211c0.201,0.042,0.377,0.162,0.49,0.333 c0.127,0.116,0.144,0.311,0.038,0.447c0.305,0.178,0.281,0.771-0.071,0.801c0.1-0.213-0.176-0.307-0.287-0.469 c-0.126,0.161-0.414,0.304-0.201,0.532c-0.028-0.004-0.055-0.01-0.081-0.019c-0.217-0.076-0.332-0.314-0.256-0.531 c-0.139,0.139-0.325,0.212-0.514,0.212c-0.11,0-0.22-0.025-0.323-0.076c0.311-0.005,0.356-0.352,0.605-0.46 c-0.075-0.032-0.142-0.082-0.195-0.144c-0.349-0.379-0.817-0.627-1.327-0.702c-0.158,0.064-0.325,0.097-0.492,0.097 c-0.16,0-0.321-0.03-0.473-0.089c-0.081-0.019-0.162-0.028-0.243-0.028c-0.288,0-0.569,0.117-0.773,0.33 c0.07,0.04,0.145,0.07,0.222,0.088c0.627,0.171,0.633,0.751,1.238,0.913c-0.055,0.01-0.107,0.015-0.155,0.015 c-0.495,0-0.664-0.512-1.39-0.763L30.4,20.3c-0.184-0.012-0.367-0.043-0.545-0.093c0.286,0.329,0.485,0.645,0.937,0.778 c0.502,0.102,0.978,0.302,1.403,0.588c0.528,0.256,1.107,0.388,1.692,0.388c0.084,0,0.167-0.003,0.251-0.008 c0.305-0.067,0.801-0.238,1.168-0.238c0.115,0,0.217,0.017,0.297,0.058c0.103-0.237,0.244-0.456,0.417-0.648 c-0.017,0.121-0.007,0.245,0.031,0.362c-0.017-0.073-0.023-0.149-0.019-0.224c0.005-0.587,0.483-1.059,1.069-1.059 c0.003,0,0.007,0,0.01,0c0.049-0.006,0.098-0.009,0.146-0.009c0.509,0,0.965,0.343,1.096,0.847c0.009,0,0.018,0,0.027,0 c0.561,0,0.501,0.57,0.709,0.57c0.003,0,0.007,0,0.01,0c0.29,0.243,0.304,0.661-0.118,0.751 c-0.101,0.401-0.461,0.684-0.875,0.687c-0.178,0.209-0.438,0.326-0.708,0.326c-0.041,0-0.082-0.003-0.123-0.008 c-0.05,0.007-0.101,0.011-0.152,0.011c-0.162,0-0.322-0.036-0.469-0.108c-0.302-0.008-0.587-0.144-0.783-0.373 c-0.019-0.002-0.037-0.003-0.056-0.003c-0.254,0-0.528,0.192-1.069,0.529c-0.246,0.13-0.52,0.197-0.795,0.197 c-0.088,0-0.176-0.007-0.263-0.02c0.028,0.33,0.557,0.736,0.251,1.052c-0.075-0.291-0.288-0.525-0.569-0.628 c0.17,0.233-0.288,0.4-0.041,0.777c-0.069-0.018-0.135-0.047-0.197-0.085c-0.341-0.21-0.451-0.651-0.253-0.996 c0.004-0.006,0.008-0.013,0.012-0.02c-0.004,0.007-0.008,0.013-0.012,0.02c-0.106,0.171-0.291,0.268-0.482,0.268 c-0.08,0-0.161-0.017-0.238-0.053c0.042-0.008,0.083-0.023,0.121-0.044c0.213-0.115,0.293-0.381,0.178-0.594 c-0.143-0.061-0.295-0.09-0.446-0.09c-0.217,0-0.432,0.061-0.62,0.182c0.024,0.151,0.037,0.305,0.039,0.458 c0.01,0.202-0.001,0.405-0.034,0.604c-0.063,0.434-0.243,0.843-0.521,1.183c-0.263,0.313-0.168,0.412-0.518,0.721 c-0.129,0.118-0.234,0.267-0.195,0.725c0.022-0.002,0.043-0.003,0.065-0.003c0.239,0,0.464,0.114,0.606,0.31 c0.057-0.018,0.115-0.027,0.173-0.027c0.115,0,0.23,0.035,0.327,0.102c0.082-0.03,0.166-0.045,0.25-0.045 c0.203,0,0.402,0.086,0.54,0.246c0.036-0.004,0.072-0.007,0.108-0.007c0.216,0,0.426,0.08,0.587,0.226 c0.081-0.145,0.233-0.23,0.392-0.23c0.038,0,0.077,0.005,0.115,0.015c-0.002-0.062,0.012-0.123,0.04-0.178 c0.064-0.126,0.192-0.198,0.324-0.198c0.056,0,0.113,0.013,0.166,0.04c-0.099-0.294,0.145-0.524,0.444-0.524 c0.051,0,0.104,0.007,0.157,0.021c0.169-0.1,0.357-0.149,0.544-0.149c0.278,0,0.553,0.108,0.759,0.316 c-0.062-0.014-0.117-0.02-0.165-0.02c-0.362,0-0.38,0.351-0.737,0.351c-0.015,0-0.03-0.001-0.047-0.002 c0.094,0.187-0.01,0.329-0.176,0.43c-0.018,0.008-0.035,0.018-0.053,0.03c0.018-0.01,0.036-0.019,0.053-0.03 c0.046-0.022,0.091-0.033,0.126-0.033c0.038,0,0.065,0.014,0.067,0.042c0.103-0.067,0.221-0.101,0.34-0.101 c0.084,0,0.167,0.017,0.246,0.051c0.056-0.023,0.114-0.034,0.171-0.034c0.159,0,0.312,0.085,0.394,0.232 c0.005,0.002,0.01,0.004,0.014,0.006c0.332,0.139,0.489,0.522,0.35,0.854c-0.102-0.313-0.347-0.292-0.466-0.422 c-0.103,0.033-0.208,0.053-0.299,0.053c-0.111,0-0.201-0.03-0.242-0.103c-0.062,0.048-0.131,0.083-0.206,0.104l0.064-0.005 c0.038-0.003,0.075-0.004,0.112-0.004c0.702,0,1.312,0.501,1.44,1.202c0.001,0.035,0,0.07-0.003,0.105 c-0.047,0.659-0.596,1.162-1.247,1.162c-0.03,0-0.06-0.001-0.091-0.003c-0.018,0.001-0.035,0.001-0.053,0.001 c-0.668,0-1.263-0.432-1.467-1.073c0.017,0.113,0.005,0.229-0.035,0.336c0.445,0.058,0.098,0.388,0.879,0.611 c-0.08,0.021-0.179,0.032-0.286,0.032c-0.372,0-0.842-0.134-0.951-0.441c-0.357-0.028-0.639-0.316-0.659-0.673 c-0.31-0.231-0.382-0.569-0.003-0.784c-0.024,0.005-0.047,0.007-0.069,0.007c-0.243,0-0.444-0.268-0.755-0.268 c-0.063,0-0.131,0.011-0.204,0.038c-0.04,0.014-0.092,0.021-0.151,0.021c-0.289,0-0.741-0.159-0.755-0.319 c-0.03,0.042-0.109,0.062-0.209,0.062c-0.222,0-0.54-0.099-0.614-0.271c-0.032,0.013-0.072,0.02-0.116,0.02 c-0.225,0-0.561-0.161-0.578-0.357c-0.038,0.011-0.078,0.016-0.118,0.016c-0.238,0-0.497-0.178-0.513-0.37l-0.117,0.01 c-0.047,0.208-0.179,0.423-0.455,0.447c0.157-0.293-0.166-0.566-0.049-0.576c-0.05-0.023-0.096-0.032-0.14-0.032 c-0.236,0-0.41,0.273-0.668,0.273c-0.096,0-0.204-0.038-0.331-0.143c0.023,0.003,0.045,0.004,0.066,0.004 c0.424,0,0.304-0.586,0.933-0.586c0.008,0,0.016,0,0.024,0c-0.697-0.112-0.543-0.329-0.901-0.373 c0.036-0.047,0.101-0.07,0.179-0.07c0.111,0,0.248,0.046,0.363,0.13c0.039,0.029,0.077,0.04,0.114,0.04 c0.097,0,0.196-0.071,0.334-0.071c0.072,0,0.155,0.019,0.254,0.078c-0.136-0.133-0.155-0.346-0.043-0.501 c-0.173-0.017-0.342-0.069-0.496-0.15c-0.079,0.033-0.164,0.05-0.249,0.05c-0.049,0-0.097-0.006-0.145-0.017 c-0.101-0.031-0.199-0.072-0.29-0.125c-0.064,0.013-0.13,0.02-0.196,0.02c-0.009,0-0.019,0-0.028,0 c-0.345-0.004-0.68-0.113-0.961-0.315c-0.065,0.017-0.131,0.026-0.198,0.026c-0.023,0-0.046-0.001-0.068-0.003 c-0.271-0.026-0.532-0.114-0.763-0.257c-0.296-0.016-0.582-0.118-0.82-0.294c-0.015,0.001-0.03,0.001-0.044,0.001 c-0.212,0-0.419-0.072-0.585-0.205c-0.085,0.009-0.163,0.013-0.235,0.013c-0.37,0-0.577-0.113-0.688-0.256 c-0.073,0.073-0.171,0.112-0.272,0.112c-0.025,0-0.049-0.002-0.074-0.007c-0.001,0-0.002,0-0.002,0 c-0.145,0-0.287-0.044-0.406-0.126c-0.037,0.106-0.129,0.184-0.24,0.203c-0.054,0.016-0.11,0.024-0.165,0.024 c-0.097,0-0.193-0.024-0.279-0.072c-0.008,0.113-0.066,0.217-0.158,0.282c-0.043,0.028-0.092,0.043-0.142,0.043 c-0.035,0-0.07-0.007-0.104-0.022c0.019,0.051,0.024,0.106,0.014,0.16c-0.044,0.077-0.116,0.133-0.201,0.157 c0.044,0.089,0.053,0.192,0.025,0.288c0.003,0.066-0.034,0.128-0.094,0.158c0.081,0.068,0.08,0.186,0.033,0.384 c-0.067,0.138-0.084,0.295-0.048,0.444l0.007,0.085c0.088,0.127,0.167,0.26,0.238,0.398l0.309,0.102 c0.077-0.086,0.184-0.137,0.299-0.144c-0.109-0.217-0.039-0.48,0.162-0.615c0-0.014,0.002-0.027,0.004-0.04 c0.036-0.245,0.246-0.421,0.486-0.421c0.024,0,0.048,0.002,0.072,0.005c0.01,0,0.019,0,0.029,0c0.358,0,0.702,0.139,0.96,0.388 c-0.138,0.012-0.437,0.038-0.639,0.055c-0.031,0.15-0.146,0.269-0.296,0.305c0.087,0.12,0.063,0.288-0.053,0.38 c0.151-0.088,0.322-0.134,0.496-0.134c0.017,0,0.034,0,0.051,0.001c0.113-0.058,0.237-0.087,0.361-0.087 c0.079,0,0.159,0.012,0.236,0.036c0.041-0.011,0.083-0.018,0.126-0.021c0.018-0.001,0.035-0.002,0.052-0.002 c0.372,0,0.686,0.287,0.714,0.663c-0.001-0.001-0.003-0.002-0.004-0.003c-0.063-0.062-0.144-0.102-0.232-0.115 c0.082,0.03,0.16,0.069,0.232,0.115c0.001,0.001,0.003,0.003,0.004,0.004c0-0.001,0-0.001,0-0.002 c0.286,0.184,0.486,0.481,0.543,0.825c0.002,0.072-0.005,0.144-0.02,0.214c-0.089,0.405-0.447,0.681-0.845,0.681 c-0.062,0-0.124-0.007-0.187-0.02c-0.059-0.006-0.117-0.016-0.174-0.028c0,0,0,0,0,0c0,0,0,0,0,0 c-0.086-0.018-0.171-0.043-0.253-0.075c0.08,0.037,0.166,0.062,0.253,0.075c0,0,0,0,0,0c-0.11,0.027-0.223,0.04-0.334,0.04 c-0.238,0-0.475-0.06-0.686-0.178c-0.198-0.176-0.63-0.204-0.795-0.511c-0.032,0.003-0.064,0.004-0.096,0.004 c-0.193,0-0.383-0.053-0.55-0.153c-0.128,0.438-0.126,0.905,0.008,1.341c0.28,0.044,0.495,0.273,0.52,0.556 c0.02,0.003,0.039,0.007,0.058,0.013c0.192,0.06,0.299,0.264,0.24,0.455c0.015-0.001,0.029-0.001,0.044-0.001 c0.173,0,0.342,0.06,0.475,0.171c0.05-0.088,0.166-0.135,0.298-0.135c0.14,0,0.298,0.054,0.413,0.171c0.007,0,0.015,0,0.022,0 c0.005,0,0.01,0,0.016,0c0.378,0.009,0.676,0.324,0.667,0.702c0.251,0.314,0.249,0.762-0.004,1.074 c0.002-0.164-0.012-0.328-0.042-0.49c-0.042-0.243-0.393-0.331-0.409-0.513c-0.191-0.001-0.371-0.093-0.483-0.248 c-0.08,0.045-0.169,0.068-0.259,0.068c-0.06,0-0.12-0.01-0.178-0.031c0.256,0.131,0.413,0.398,0.403,0.685 c0.137,0.185,0.137,0.437,0,0.622c-0.007,0.091-0.055,0.175-0.131,0.226c0.005,0.064,0.005,0.064,0.005,0.064 c-0.001,0.045-0.005,0.09-0.012,0.135c-0.081,0.529-0.537,0.907-1.056,0.907c-0.054,0-0.109-0.004-0.164-0.013 c-0.692-0.025-1.275-0.521-1.413-1.199c-0.052-0.232-0.375-0.483-0.391-0.675c-0.207-0.54,0-0.998,0.821-1.069 c-0.075-0.122,0.012-0.227,0.066-0.349c-0.201-0.095-0.177-0.257-0.047-0.284c0.007-0.001,0.015-0.002,0.022-0.003 c-0.008,0.001-0.015,0.002-0.022,0.003c-0.013,0.001-0.026,0.002-0.038,0.002c-0.192,0-0.281-0.175-0.121-0.247 c-0.019,0.003-0.038,0.004-0.056,0.004c-0.265,0-0.358-0.312-0.219-0.324c-0.01-0.001-0.02-0.001-0.03-0.001 c-0.385,0-0.227,0.48-0.473,0.48c-0.011,0-0.023-0.001-0.036-0.003c0.08-0.189-0.149-0.352-0.162-0.512 c-0.133,0.118-0.301,0.179-0.47,0.179c-0.128,0-0.257-0.035-0.372-0.106c0.418-0.004,0.319-0.403,0.522-0.421 c0.003,0,0.006,0,0.008,0c0.45,0,0.17-0.284-0.035-0.309c-0.206-0.025-0.273-0.052-0.108-0.13 c0.08-0.019,0.162-0.028,0.243-0.028c0.138,0,0.276,0.027,0.405,0.08c0.067-0.198,0.083-0.41,0.044-0.616 c-0.06,0.021-0.123,0.031-0.185,0.031c-0.105,0-0.21-0.029-0.302-0.085c-0.074,0.032-0.154,0.048-0.234,0.048 c-0.046,0-0.093-0.005-0.139-0.016c-0.488,0.321-1.187,0.424-1.393,0.904c-0.206,0.48-0.741,0.364-1.323,1.091 c-0.388,0.484-0.974,0.159-1.639,0.667c0.104-0.535,0.643-0.259,1.143-0.936l-0.266,0.023c-0.695,0.04-0.937,0.69-1.465,0.69 c-0.064,0-0.133-0.01-0.207-0.031c0.569-0.124,0.518-0.721,0.994-0.923c-0.024-0.006-0.047-0.009-0.069-0.009 c-0.313,0-0.458,0.601-0.877,0.617c-0.447,0.017-0.619,0.638-1.172,0.638c-0.002,0-0.005,0-0.007,0c-0.002,0-0.004,0-0.006,0 c-0.553,0-0.583,0.813-1.645,0.904c-0.743,0.082-1.572,0.868-2.045,0.868c-0.069,0-0.13-0.017-0.182-0.054 c0.638-0.223,1.185-0.647,1.56-1.208c0.723-0.835,1.634-0.602,1.88-1.235c-0.344,0.234-0.742,0.375-1.156,0.411 c-0.456,0.04-0.897,0.643-1.4,0.643c-0.073,0-0.147-0.013-0.223-0.041c0.365-0.1,0.685-0.325,0.901-0.636 c0.333-0.372,0.873-0.215,1.269-0.592c0.606-0.567,1.208-0.179,1.784-0.851c-0.067-0.01-0.133-0.015-0.2-0.015 c-0.245,0-0.487,0.069-0.697,0.2c-0.119,0.063-0.256,0.076-0.401,0.076c-0.099,0-0.202-0.006-0.304-0.006 c-0.173,0-0.346,0.017-0.504,0.109c0.014-0.463,0.974-0.277,1.537-0.594c0.366-0.2,0.775-0.303,1.189-0.303 c0.108,0,0.216,0.007,0.324,0.021c0.003,0,0.006,0.001,0.009,0.001c-0.003,0-0.006-0.001-0.009-0.001 c-0.483-0.066-0.813-0.376-1.402-0.376c-0.132,0-0.278,0.016-0.441,0.053c-0.041,0.011-0.082,0.015-0.122,0.015 c-0.291,0-0.563-0.241-0.836-0.241c-0.095,0-0.19,0.029-0.286,0.108c-0.004-0.139,0.219-0.322,0.566-0.322 c0.108,0,0.228,0.018,0.356,0.06c0.108,0.036,0.199,0.048,0.282,0.048c0.171,0,0.312-0.05,0.513-0.05 c0.193,0,0.441,0.046,0.823,0.228c0.092,0.034,0.194,0.046,0.302,0.046c0.246,0,0.523-0.063,0.779-0.063 c0.144,0,0.283,0.02,0.406,0.082c-0.058-0.119-0.255-0.2-0.499-0.2c-0.032,0-0.064,0.001-0.097,0.004 c0.075-0.158,0.374-0.235,0.722-0.235c0.242,0,0.507,0.037,0.738,0.11c-0.094-0.108-0.153-0.241-0.173-0.383 c0.066,0.02,0.136,0.027,0.209,0.027c0.204,0,0.428-0.058,0.648-0.058c0.029,0,0.057,0.001,0.086,0.003 c-0.145-0.072-0.251-0.205-0.289-0.362c0.049,0.016,0.094,0.023,0.135,0.023c0.199,0,0.319-0.163,0.49-0.249 c-0.294-0.05-0.582-0.154-0.659-0.297c0.047,0.013,0.091,0.018,0.131,0.018c0.299,0,0.444-0.304,0.829-0.337 c-0.009-0.263,0.153-0.502,0.4-0.593c-0.102-0.092-0.154-0.227-0.139-0.364c0.019-0.27,0.071-0.424,0.214-0.512l-0.086,0.007 c-0.017-0.003-0.036-0.005-0.057-0.005c-0.185,0-0.512,0.123-0.808,0.123c-0.182,0-0.353-0.046-0.473-0.197 c0.075,0.02,0.147,0.028,0.215,0.028c0.582,0,0.947-0.633,1.5-0.681c-0.095-0.146-0.136-0.321-0.118-0.494 c0.047-0.22,0.241-0.372,0.46-0.372c0.022,0,0.045,0.002,0.067,0.005c-0.176-0.178-0.146-0.449-0.039-0.458 c-0.027-0.094,0.013-0.195,0.097-0.245c-0.08-0.067-0.09-0.105-0.159-0.105c-0.031,0-0.073,0.007-0.138,0.023 c-0.022,0.005-0.045,0.008-0.068,0.008c-0.134,0-0.282-0.076-0.435-0.076c-0.072,0-0.144,0.017-0.217,0.066 c-0.017-0.32,0.431-0.112,0.857-0.396c0.113-0.054,0.235-0.081,0.356-0.081c0.197,0,0.392,0.071,0.546,0.207 c-0.053-0.125-0.023-0.269,0.076-0.361c0.105-0.078,0.228-0.117,0.351-0.117c0.136,0,0.271,0.047,0.381,0.14 c-0.013-0.024-0.022-0.049-0.029-0.075c-0.056-0.205,0.066-0.417,0.271-0.472c0.06-0.014,0.12-0.02,0.18-0.02 c0.16,0,0.318,0.047,0.453,0.138c-0.046-0.157,0.076-0.243-0.151-0.384c-0.227-0.142-0.433-0.296-0.376-0.505 c0.13,0.257,0.486,0.28,0.792,0.351c0.248,0.071,0.454,0.245,0.567,0.477c0.06-0.077,0.151-0.12,0.245-0.12 c0.022,0,0.045,0.002,0.067,0.007c0.156,0.012,0.297,0.095,0.384,0.224c0.066-0.074,0.16-0.115,0.256-0.115 c0.037,0,0.075,0.006,0.112,0.019c0.141,0.024,0.265,0.107,0.342,0.228c0.066-0.042,0.141-0.064,0.217-0.064 c0.053,0,0.106,0.011,0.156,0.032c0.1,0.035,0.193,0.088,0.271,0.159c0.042-0.143,0.091-0.19-0.028-0.33 c-0.12-0.14-0.241-0.301-0.148-0.47c0.022,0.127,0.249,0.279,0.472,0.367c0.222,0.088,0.135,0.45,0.494,0.623 c0.127,0.054,0.209,0.177,0.209,0.315c0.077-0.057,0.169-0.086,0.261-0.086c0.067,0,0.135,0.015,0.197,0.047 c0.26,0.127,0.369,0.322,0.321,0.424c-0.005,0.007-0.01,0.014-0.014,0.022c0.006-0.007,0.01-0.014,0.014-0.022 c0.036-0.047,0.109-0.083,0.241-0.083c0.087,0,0.198,0.016,0.342,0.054c0.396,0.106,0.521,0.31,0.535,0.48 c0,0,0.172,0.006,0.282,0.04c0.111,0.033,0.28,0.126,0.287,0.211c0.026-0.077,0.149-0.141-0.237-0.259 c-0.386-0.117-0.489-0.323-0.418-0.49c0.177,0.189,0.424,0.294,0.679,0.294c0.047,0,0.093-0.004,0.14-0.011 c0.02-0.001,0.039-0.001,0.059-0.001c0.097,0,0.193,0.012,0.288,0.036c-0.103-0.093-0.176-0.213-0.212-0.347 c-0.021-0.062-0.026-0.127-0.016-0.192c-0.069,0.012-0.138,0.019-0.206,0.019c-0.202,0-0.402-0.053-0.578-0.155 c-0.117-0.073-0.355-0.255-0.593-0.255c-0.038,0-0.077,0.005-0.115,0.015c0.06-0.124,0.176-0.157,0.308-0.156 c0.143,0,0.306,0.037,0.44,0.037c0.1,0,0.184-0.021,0.232-0.094l0.087-0.115c-0.115-0.026-0.22-0.084-0.304-0.167 c-0.187-0.154-0.241-0.418-0.13-0.633c-0.017,0.001-0.034,0.002-0.052,0.002c-0.185,0-0.362-0.082-0.483-0.224 c-0.136-0.13-0.186-0.325-0.129-0.504c-0.117,0.033-0.239,0.05-0.361,0.05c-0.047,0-0.093-0.002-0.14-0.007 c-0.302,0.012-0.547,0.251-0.564,0.553c-0.419-0.63,0.24-0.707,0.26-1.096c0.012-0.104,0.044-0.205,0.092-0.298 c-0.357,0.019-0.698,0.15-0.977,0.374c0.185-0.445,0.58-0.77,1.053-0.863c-0.004-0.042,0.014,0.042-0.011-0.128 c-0.025-0.17,0.017-0.302,0.113-0.31c-0.07-0.104-0.081-0.237-0.03-0.352c0.051-0.155,0.13-0.237,0.247-0.247 c-0.038-0.105-0.024-0.221,0.037-0.314l-0.106,0.009c-0.031,0.005-0.066,0.007-0.103,0.007c-0.37,0-1.015-0.21-1.597-0.21 c-0.293,0-0.571,0.053-0.789,0.214c0.042-0.312,0.388-0.434,0.941-0.434c0.218,0,0.468,0.019,0.744,0.053 c0.332-0.243,0.73-0.372,1.137-0.372c0.083,0,0.166,0.005,0.249,0.016c-0.19-0.091-0.276-0.315-0.194-0.509 c0.264,0.578,1.155,0.319,1.727,0.603l0.181-0.016c-1.067-0.501-2.124-0.813-2.69-0.813c-0.181,0-0.312,0.032-0.377,0.1 c-0.256,0.27,0.254,0.434,0.436,0.434c0.007,0,0.014,0,0.02-0.001c-0.031,0.08-0.109,0.115-0.207,0.115 c-0.295,0-0.766-0.316-0.634-0.666c0.089-0.236,0.392-0.372,0.862-0.372c0.458,0,1.075,0.129,1.805,0.422 c-0.042-0.166-0.027-0.341,0.043-0.497c-0.163-0.048-0.331-0.073-0.499-0.073c-0.089,0-0.179,0.007-0.267,0.02 c0.083-0.098,0.221-0.14,0.396-0.14c0.134,0,0.29,0.024,0.457,0.066c0.073-0.064,0.162-0.109,0.257-0.13 c-0.352-0.201-0.747-0.304-1.147-0.304c-0.151,0-0.303,0.015-0.454,0.045c0.054-0.174,0.256-0.244,0.513-0.244 c0.183,0,0.395,0.035,0.601,0.094c0.086-0.11,0.244-0.162,0.449-0.162c0.419,0,1.033,0.217,1.629,0.606 c0.001-0.114,0.028-0.227,0.079-0.329c-0.23-0.177-0.503-0.291-0.791-0.329c0.08-0.017,0.16-0.025,0.24-0.025 c0.233,0,0.462,0.071,0.656,0.206c0.027-0.028,0.057-0.052,0.09-0.072c-0.437-0.273-0.939-0.422-1.454-0.433 c0.11-0.059,0.256-0.085,0.424-0.085c0.675,0,1.702,0.421,2.184,0.826c0.37,0.312,1.091,0.207,1.578,0.745 c0.187-0.083,0.386-0.124,0.584-0.124c0.318,0,0.633,0.105,0.892,0.308c0.052-0.087,0.143-0.143,0.245-0.15 c0.046-0.008,0.091-0.012,0.136-0.012c0.334,0,0.638,0.219,0.737,0.549c0.053-0.007,0.105-0.01,0.158-0.01 c0.269,0,0.532,0.084,0.753,0.242c0.171-0.098,0.312-0.148,0.421-0.148c0.087,0,0.153,0.031,0.197,0.094 c0.135-0.074,0.287-0.113,0.441-0.113c0.314-0.467-0.122-0.676,0.445-1.187c0.568-0.511,0.052-0.767,0.586-1.178 C37.868,14.41,38.284,14.138,38.264,13.903 M28.86,16.021c-0.591-0.506-1.094-0.757-1.481-0.757 c-0.083,0-0.161,0.012-0.234,0.035l0.312,0.134C27.941,15.588,28.411,15.785,28.86,16.021 M30.754,16.248 c0.141,0,0.281-0.013,0.42-0.04c-0.214-0.11-0.416-0.222-0.617-0.312c-0.311-0.16-0.608-0.346-0.885-0.557l-0.104,0.041 c0.413,0.247,0.798,0.538,1.148,0.868C30.729,16.248,30.742,16.248,30.754,16.248 M30.241,16.225 c-0.133-0.17-0.291-0.319-0.467-0.443c-0.101-0.054-0.196-0.118-0.284-0.19c-0.018,0.193,0.018,0.386,0.102,0.56 C29.809,16.163,30.027,16.187,30.241,16.225 M28.878,16.353c-0.23-0.23-0.51-0.404-0.817-0.509l0.001,0.011 c-0.101,0.004-0.201,0.023-0.296,0.058C28.176,16.048,28.577,16.217,28.878,16.353 M28.239,16.654 c0.089-0.07,0.199-0.11,0.312-0.113c-0.283-0.186-0.585-0.343-0.899-0.47C27.624,16.246,27.934,16.477,28.239,16.654 M37.112,17.351l0.113-0.063l-0.106,0.009C37.121,17.315,37.119,17.334,37.112,17.351 M35.155,19.441l0.081-0.05 c0.427-0.155,0.321-0.393,0.479-0.546l-0.128,0.011C35.416,18.951,35.223,19,35.027,19c-0.027,0-0.055-0.001-0.082-0.003 c0.025-0.008,0.048-0.019,0.068-0.034c0.111-0.078,0.138-0.231,0.06-0.342l-0.364-0.119c-0.121,0.169-0.283,0.305-0.471,0.395 c0.05-0.155,0.036-0.324-0.04-0.469c-0.005,0-0.01,0-0.015,0c-0.357,0-0.68,0.214-0.819,0.544 C33.974,19.077,34.573,19.234,35.155,19.441 M29.765,19.205c0.179,0,0.354-0.052,0.505-0.149 c-0.301-0.017-0.598-0.086-0.876-0.204l-0.047,0.079l0.003,0.032c0.127,0.059,0.243,0.14,0.342,0.239 C29.717,19.205,29.741,19.205,29.765,19.205 M36.325,19.056c-0.056,0.18-0.147,0.346-0.27,0.49 c-0.044,0.062-0.07,0.135-0.078,0.211l0.021-0.002c0.132,0.04,0.267,0.068,0.404,0.083 C36.278,19.597,36.25,19.317,36.325,19.056c0.003-0.009,0.005-0.018,0.008-0.027C36.33,19.038,36.327,19.047,36.325,19.056 M34.579,19.856l0.043-0.003c0.071-0.119,0.169-0.22,0.286-0.293l-1.365-0.269c0.128,0.118,0.158,0.223,0.385,0.235 C34.155,19.538,34.324,19.76,34.579,19.856 M35.523,19.603l0.138-0.023c-0.017-0.062-0.023-0.128-0.016-0.192 c-0.051,0.049-0.109,0.09-0.172,0.122L35.523,19.603 M29.766,20.055c0.085-0.025,0.169-0.058,0.249-0.097 c-0.176-0.178-0.312-0.381-0.477-0.549c-0.1,0.001-0.2,0.01-0.298,0.026c0.001,0.072,0.007,0.143,0.018,0.213 C29.443,19.763,29.613,19.9,29.766,20.055 M30.983,19.482c-0.206,0.038-0.415,0.057-0.624,0.057 c-0.138,0-0.276-0.008-0.414-0.025c0.126,0.152,0.264,0.294,0.412,0.426l0.044,0.007C30.88,19.906,30.751,19.542,30.983,19.482 c0.011-0.002,0.021-0.004,0.032-0.006C31.003,19.477,30.993,19.479,30.983,19.482 M38.05,22.144 c0.094-0.202,0.296-0.333,0.519-0.335c-0.189-0.08-0.203-0.24-0.217-0.4c-0.056,0.197-0.167,0.375-0.321,0.51 C38.066,21.99,38.073,22.07,38.05,22.144 M36.308,21.983c0.012-0.001,0.023-0.001,0.035-0.001c0.073,0,0.145,0.011,0.215,0.033 c-0.107-0.065-0.199-0.152-0.269-0.256C36.305,21.832,36.312,21.908,36.308,21.983 M37.075,22.293 c0.024-0.036,0.054-0.068,0.089-0.094l-0.25-0.032C36.977,22.197,37.031,22.239,37.075,22.293 M34.374,28.579 c0.132-0.078,0.276-0.134,0.426-0.166c-0.009,0.001-0.018,0.001-0.027,0.001c-0.098,0-0.193-0.032-0.271-0.093 C34.48,28.416,34.436,28.504,34.374,28.579 M34.165,28.769c-0.058,0.02-0.118,0.03-0.179,0.03c-0.029,0-0.058-0.002-0.087-0.007 c0.103,0.206-0.105,0.524-0.28,0.744c0.102,0.046,0.179,0.132,0.214,0.239c-0.009-0.045-0.013-0.092-0.012-0.138 C33.797,29.31,33.924,28.99,34.165,28.769 M38.127,13.473l0.037,0.438c0.013,0.155-0.331,0.402-0.477,0.507l-0.06,0.044 c-0.301,0.232-0.311,0.438-0.32,0.62c-0.008,0.171-0.016,0.333-0.273,0.564c-0.359,0.323-0.354,0.556-0.35,0.761 c0.003,0.133,0.005,0.249-0.085,0.402c-0.125,0.007-0.248,0.038-0.363,0.089c-0.058-0.047-0.132-0.072-0.219-0.072 c-0.114,0-0.254,0.044-0.416,0.13c-0.226-0.147-0.487-0.225-0.758-0.225c-0.03,0-0.06,0.001-0.09,0.003 c-0.132-0.323-0.452-0.542-0.805-0.542c-0.051,0-0.102,0.004-0.153,0.014c-0.089,0.006-0.177,0.046-0.245,0.111 c-0.256-0.175-0.563-0.271-0.874-0.271c-0.193,0-0.381,0.035-0.559,0.105c-0.294-0.293-0.651-0.388-0.969-0.472 c-0.231-0.061-0.431-0.114-0.569-0.231c-0.478-0.402-1.519-0.85-2.249-0.85c-0.192,0-0.35,0.032-0.471,0.096l-0.339,0.18 l0.383,0.008c0.231,0.005,0.459,0.039,0.679,0.1c-0.077,0.002-0.154,0.011-0.23,0.027l-0.479,0.102 c-0.15-0.034-0.29-0.053-0.418-0.053c-0.209,0-0.374,0.051-0.481,0.149c-0.204-0.053-0.4-0.082-0.569-0.082 c-0.422,0-0.564,0.171-0.608,0.314l-0.05,0.161l0.165-0.033c0.143-0.029,0.289-0.043,0.434-0.043 c0.313,0,0.624,0.067,0.909,0.195c-0.015,0.009-0.029,0.019-0.044,0.03c-0.164-0.038-0.309-0.057-0.432-0.057 c-0.216,0-0.375,0.059-0.472,0.175l-0.167,0.199c-0.306-0.071-0.588-0.107-0.837-0.107c-0.51,0-0.85,0.155-0.956,0.437 c-0.055,0.147-0.032,0.3,0.066,0.442c0.139,0.201,0.43,0.359,0.661,0.359c0.148,0,0.257-0.065,0.301-0.18l0.057-0.149 l-0.159,0.013c0,0-0.001,0-0.001,0c-0.135,0-0.375-0.083-0.413-0.172c-0.004-0.009-0.015-0.036,0.039-0.093 c0.02-0.021,0.089-0.069,0.304-0.069c0.182,0,0.417,0.034,0.686,0.096c-0.056,0.143-0.042,0.297,0.028,0.423 c-0.415,0.003-0.812,0.129-1.151,0.368c-0.277-0.033-0.512-0.049-0.718-0.049c-0.24,0-0.969,0-1.04,0.521l-0.032,0.234 l0.19-0.139c0.178-0.131,0.417-0.194,0.73-0.194c0.315,0,0.655,0.064,0.954,0.121c0.252,0.048,0.47,0.089,0.643,0.089 c0.02,0,0.04-0.001,0.059-0.002c-0.008,0.042-0.009,0.085-0.005,0.128c-0.101,0.045-0.176,0.141-0.224,0.287 c-0.048,0.106-0.05,0.229-0.008,0.341c-0.007,0.007-0.013,0.014-0.019,0.021c-0.06,0.076-0.082,0.199-0.06,0.345 c0.002,0.013,0.004,0.024,0.005,0.034c-0.468,0.12-0.854,0.453-1.04,0.904l-0.15,0.361l0.305-0.244 c0.222-0.178,0.481-0.292,0.758-0.335c-0.017,0.055-0.029,0.112-0.036,0.169c-0.006,0.113-0.082,0.195-0.17,0.289 c-0.161,0.173-0.382,0.41-0.074,0.874l0.166,0.248l0.018-0.298c0.015-0.252,0.216-0.449,0.468-0.459 c0.036,0.005,0.086,0.008,0.136,0.008c0.08,0,0.16-0.007,0.238-0.02c-0.005,0.165,0.06,0.329,0.183,0.446 c0.113,0.135,0.28,0.224,0.462,0.247c-0.051,0.222,0.025,0.463,0.207,0.613c0.057,0.057,0.127,0.105,0.204,0.14l-0.003,0.004 c-0.019,0.028-0.049,0.054-0.152,0.054c-0.062,0-0.131-0.009-0.201-0.018c-0.081-0.01-0.163-0.02-0.239-0.02 c-0.073,0-0.296,0-0.398,0.213l-0.097,0.2l0.214-0.061c0.027-0.008,0.057-0.012,0.087-0.012c0.175,0,0.368,0.127,0.483,0.203 l0.056,0.037c0.194,0.112,0.411,0.17,0.631,0.17c0.035,0,0.07-0.001,0.105-0.004c0.004,0.037,0.012,0.074,0.023,0.109 c0.017,0.062,0.041,0.123,0.073,0.18c-0.018-0.001-0.036-0.001-0.054-0.001c-0.021,0-0.043,0.001-0.064,0.002 c-0.052,0.007-0.094,0.01-0.135,0.01c-0.229,0-0.449-0.096-0.606-0.263l-0.105-0.112l-0.06,0.141 c-0.012,0.028-0.02,0.056-0.025,0.085c-0.08-0.048-0.181-0.092-0.307-0.125c-0.142-0.038-0.266-0.057-0.368-0.057 c-0.057,0-0.108,0.006-0.153,0.018c-0.051-0.128-0.183-0.259-0.365-0.349c-0.074-0.037-0.157-0.057-0.241-0.057 c-0.065,0-0.129,0.011-0.188,0.034c-0.042-0.113-0.128-0.206-0.243-0.255c-0.159-0.077-0.208-0.199-0.26-0.328 c-0.048-0.118-0.097-0.241-0.236-0.296c-0.249-0.099-0.401-0.235-0.41-0.291l-0.048-0.283l-0.138,0.252 c-0.132,0.242,0.057,0.464,0.16,0.583c0.04,0.047,0.053,0.068,0.05,0.099c-0.057-0.036-0.119-0.065-0.184-0.088 c-0.055-0.024-0.121-0.038-0.189-0.038c-0.065,0-0.128,0.012-0.187,0.036c-0.091-0.105-0.216-0.176-0.354-0.199 c-0.031-0.012-0.079-0.02-0.128-0.02c-0.087,0-0.172,0.026-0.243,0.073c-0.103-0.105-0.24-0.17-0.389-0.182 c-0.015-0.004-0.045-0.008-0.075-0.008c-0.079,0-0.155,0.022-0.22,0.063c-0.132-0.201-0.332-0.35-0.565-0.417 c-0.058-0.013-0.112-0.024-0.167-0.035c-0.246-0.049-0.478-0.095-0.564-0.265l-0.117-0.232l-0.068,0.251 c-0.082,0.302,0.232,0.499,0.42,0.616c0.087,0.054,0.098,0.079,0.097,0.129c-0.109-0.045-0.226-0.068-0.345-0.068 c-0.068,0-0.136,0.008-0.202,0.023c-0.129,0.035-0.234,0.115-0.298,0.227c-0.039,0.069-0.061,0.144-0.064,0.221 c-0.076-0.028-0.156-0.043-0.238-0.043c-0.149,0-0.291,0.047-0.411,0.136c-0.072,0.067-0.118,0.151-0.134,0.239 c-0.131-0.069-0.278-0.105-0.428-0.105c-0.139,0-0.273,0.03-0.399,0.091c-0.187,0.123-0.372,0.149-0.52,0.169 c-0.182,0.025-0.408,0.056-0.394,0.322l0.009,0.177l0.147-0.1c0.049-0.033,0.1-0.049,0.161-0.049 c0.066,0,0.134,0.018,0.207,0.037c0.074,0.019,0.151,0.039,0.228,0.039c0.032,0,0.062-0.003,0.091-0.01 c0.036-0.009,0.088-0.02,0.114-0.02c0.004,0.001,0.008,0.003,0.012,0.006c-0.039,0.055-0.06,0.121-0.059,0.189 c-0.024,0.022-0.043,0.053-0.057,0.089c-0.032,0.088-0.029,0.212,0.023,0.33c-0.217,0.045-0.395,0.216-0.443,0.439 c-0.017,0.155,0.005,0.305,0.063,0.44c-0.227,0.057-0.422,0.195-0.612,0.329c-0.238,0.168-0.462,0.327-0.735,0.327 c-0.063,0-0.125-0.008-0.19-0.025l-0.291-0.076l0.188,0.235c0.126,0.158,0.306,0.234,0.551,0.234 c0.176,0,0.357-0.04,0.516-0.075c0.074-0.016,0.146-0.032,0.206-0.041c-0.052,0.107-0.074,0.24-0.085,0.395 c-0.013,0.118,0.016,0.237,0.08,0.337c-0.191,0.116-0.317,0.315-0.338,0.539c-0.175,0.034-0.301,0.117-0.414,0.191 c-0.113,0.074-0.202,0.133-0.317,0.133c-0.034,0-0.068-0.005-0.105-0.015l-0.223-0.059l0.109,0.203 c0.081,0.151,0.304,0.243,0.496,0.297c-0.079,0.057-0.151,0.102-0.238,0.102c-0.033,0-0.067-0.006-0.104-0.018l-0.17-0.055 l0.042,0.174c0.022,0.091,0.062,0.174,0.118,0.246c-0.056,0.006-0.112,0.013-0.167,0.02c-0.106,0.014-0.205,0.027-0.298,0.027 c-0.07,0-0.128-0.008-0.18-0.023l-0.149-0.045l0.021,0.155c0.01,0.073,0.03,0.144,0.058,0.211 c-0.17-0.034-0.35-0.052-0.524-0.052c-0.203,0-0.687,0.028-0.812,0.292l-0.037,0.079c-0.031,0.003-0.061,0.007-0.091,0.011 c-0.131,0.015-0.254,0.03-0.37,0.03c-0.107,0-0.195-0.013-0.267-0.04c-0.333-0.159-0.608-0.235-0.858-0.235 c-0.112,0-0.208,0.015-0.293,0.028c-0.075,0.012-0.146,0.022-0.22,0.022c-0.083,0-0.163-0.014-0.251-0.043 c-0.131-0.043-0.262-0.066-0.388-0.066c-0.23,0-0.442,0.076-0.566,0.204c-0.066,0.068-0.101,0.147-0.099,0.221l0.006,0.203 l0.157-0.129c0.071-0.058,0.142-0.085,0.223-0.085c0.114,0,0.236,0.053,0.365,0.11c0.149,0.065,0.303,0.132,0.471,0.132 c0.05,0,0.1-0.006,0.147-0.018c0.146-0.033,0.283-0.05,0.417-0.05c0.298,0,0.531,0.086,0.753,0.175 c-0.318,0.041-0.628,0.141-0.911,0.295c-0.219,0.123-0.516,0.167-0.779,0.206c-0.412,0.061-0.8,0.118-0.811,0.473l-0.005,0.18 l0.156-0.091c0.144-0.084,0.31-0.096,0.453-0.096c0.051,0,0.102,0.002,0.152,0.003c0.051,0.002,0.102,0.003,0.152,0.003 c0.139,0,0.302-0.01,0.447-0.088c0.192-0.12,0.405-0.183,0.624-0.188c-0.233,0.197-0.472,0.243-0.723,0.291 c-0.293,0.056-0.596,0.114-0.904,0.402c-0.178,0.169-0.387,0.219-0.608,0.273c-0.235,0.057-0.479,0.115-0.668,0.326 c-0.21,0.301-0.51,0.512-0.853,0.606L8.79,31.64l0.287,0.109c0.084,0.032,0.171,0.048,0.258,0.048 c0.297,0,0.56-0.179,0.815-0.351c0.209-0.142,0.406-0.275,0.594-0.292c0.102-0.009,0.203-0.024,0.303-0.045 c-0.341,0.123-0.75,0.287-1.111,0.704c-0.368,0.549-0.905,0.964-1.518,1.179l-0.181,0.063l0.155,0.112 c0.067,0.049,0.148,0.073,0.241,0.073c0.249,0,0.554-0.176,0.907-0.38c0.364-0.21,0.776-0.448,1.149-0.489 c0.642-0.055,0.929-0.361,1.161-0.607c0.162-0.172,0.279-0.297,0.473-0.297c0.347,0,0.555-0.196,0.739-0.37 c0.018-0.017,0.035-0.033,0.053-0.05l0.317,0.092c0.08,0.023,0.159,0.035,0.235,0.035c0.285,0,0.496-0.166,0.7-0.326 c0.215-0.169,0.437-0.345,0.771-0.364l0.024-0.002c-0.179,0.173-0.355,0.243-0.515,0.305c-0.219,0.086-0.426,0.167-0.489,0.491 l-0.05,0.258l0.209-0.16c0.309-0.236,0.593-0.279,0.869-0.322c0.292-0.045,0.567-0.087,0.787-0.362 c0.287-0.358,0.556-0.499,0.793-0.623c0.231-0.121,0.431-0.226,0.544-0.491c0.119-0.278,0.446-0.422,0.791-0.573 c0.179-0.079,0.363-0.16,0.529-0.264c0.039,0.007,0.079,0.01,0.119,0.01c0.078,0,0.154-0.013,0.226-0.038 c0.096,0.049,0.202,0.075,0.31,0.075c0.034,0,0.068-0.003,0.102-0.008c0.011,0.121,0.002,0.244-0.027,0.363 c-0.11-0.033-0.223-0.05-0.339-0.05c-0.09,0-0.179,0.01-0.266,0.031c-0.078,0.035-0.185,0.086-0.168,0.187 c0.018,0.108,0.149,0.123,0.287,0.14c0.07,0.008,0.147,0.061,0.177,0.096c-0.021,0.006-0.06,0.014-0.13,0.014 c-0.157,0.012-0.209,0.125-0.252,0.216c-0.053,0.113-0.094,0.203-0.28,0.205l-0.345,0.003l0.293,0.182 c0.128,0.079,0.275,0.121,0.425,0.121c0.149,0,0.294-0.041,0.42-0.118c0.015,0.029,0.032,0.057,0.049,0.084 c0.062,0.1,0.097,0.166,0.071,0.228l-0.05,0.118l0.126,0.02c0.019,0.003,0.036,0.004,0.052,0.004 c0.183,0,0.233-0.163,0.267-0.27c0.024-0.078,0.043-0.134,0.078-0.168c0.025,0.104,0.111,0.22,0.25,0.265 c-0.002,0.02-0.001,0.04,0.003,0.061c0.016,0.073,0.068,0.132,0.141,0.167c-0.001,0.006-0.002,0.013-0.003,0.019 c-0.01,0.087,0.033,0.171,0.117,0.235c-0.032,0.063-0.068,0.14-0.065,0.225c-0.369,0.052-0.625,0.188-0.762,0.407 c-0.13,0.207-0.139,0.474-0.028,0.772c0.017,0.121,0.107,0.239,0.203,0.363c0.082,0.107,0.167,0.217,0.188,0.31 c0.147,0.724,0.767,1.25,1.507,1.277c0.049,0.008,0.109,0.013,0.168,0.013c0.571,0,1.068-0.426,1.155-0.992 c0.007-0.049,0.012-0.098,0.013-0.147l-0.002-0.022c0.066-0.062,0.11-0.145,0.124-0.234c0.141-0.209,0.143-0.479,0.004-0.69 c-0.001-0.199-0.073-0.388-0.198-0.536c0.035-0.007,0.07-0.018,0.104-0.031c0.114,0.122,0.268,0.201,0.435,0.22 c0.039,0.082,0.117,0.144,0.193,0.204c0.087,0.069,0.178,0.14,0.193,0.23c0.029,0.155,0.043,0.313,0.04,0.472l-0.004,0.287 l0.181-0.223c0.274-0.337,0.284-0.824,0.027-1.171c-0.009-0.416-0.344-0.757-0.764-0.768h0 c-0.123-0.109-0.285-0.171-0.453-0.171c-0.127,0-0.237,0.036-0.313,0.101c-0.116-0.075-0.249-0.121-0.387-0.133 c0.002-0.078-0.016-0.155-0.053-0.226c-0.057-0.109-0.154-0.19-0.272-0.227c-0.053-0.273-0.26-0.492-0.53-0.56 c-0.101-0.363-0.109-0.742-0.023-1.108c0.152,0.069,0.317,0.106,0.485,0.106c0.014,0,0.028,0,0.043-0.001 c0.124,0.18,0.326,0.264,0.506,0.338c0.11,0.045,0.213,0.088,0.277,0.145c0.242,0.137,0.496,0.203,0.753,0.203 c0.113,0,0.226-0.013,0.336-0.038c0.054,0.011,0.108,0.019,0.162,0.025c0.058,0.013,0.128,0.021,0.198,0.021 c0.45,0,0.846-0.319,0.943-0.759c0.017-0.077,0.024-0.157,0.022-0.238c-0.06-0.363-0.258-0.677-0.549-0.879 c-0.054-0.4-0.4-0.706-0.809-0.706c-0.02,0-0.039,0.001-0.059,0.002c-0.039,0.003-0.078,0.009-0.116,0.017 c-0.078-0.022-0.158-0.032-0.239-0.032c-0.132,0-0.263,0.03-0.382,0.086c-0.01,0-0.02,0-0.03,0c-0.099,0-0.196,0.014-0.291,0.04 c0.003-0.044-0.002-0.088-0.015-0.131c0.108-0.056,0.192-0.151,0.235-0.266c0.197-0.017,0.448-0.038,0.572-0.049l0.218-0.019 l-0.157-0.152c-0.278-0.268-0.643-0.416-1.03-0.416l-0.031,0c-0.012-0.003-0.041-0.005-0.07-0.005 c-0.291,0-0.543,0.218-0.585,0.507c0,0,0,0,0,0.001c-0.178,0.143-0.254,0.376-0.201,0.593c-0.07,0.022-0.135,0.058-0.191,0.106 l-0.213-0.07c-0.063-0.119-0.134-0.237-0.211-0.35l-0.005-0.059c-0.033-0.141-0.019-0.275,0.038-0.392 c0.037-0.148,0.065-0.297,0.012-0.411c0.036-0.045,0.057-0.101,0.058-0.161c0.021-0.081,0.022-0.166,0.001-0.246 c0.067-0.038,0.124-0.094,0.162-0.162l0.008-0.014l0.003-0.016c0.004-0.019,0.006-0.038,0.007-0.057 c0.065-0.003,0.127-0.023,0.182-0.059c0.082-0.058,0.142-0.136,0.175-0.226c0.067,0.021,0.137,0.033,0.207,0.033 c0.066,0,0.131-0.01,0.194-0.028c0.098-0.016,0.189-0.075,0.25-0.16c0.113,0.057,0.238,0.087,0.367,0.087 c0.014,0.004,0.045,0.007,0.076,0.007c0.094,0,0.184-0.026,0.261-0.076c0.156,0.146,0.39,0.22,0.698,0.22 c0.064,0,0.132-0.003,0.206-0.01c0.178,0.13,0.394,0.201,0.614,0.201l0.013,0c0.242,0.171,0.524,0.271,0.82,0.292 c0.237,0.143,0.508,0.232,0.784,0.258c0.026,0.002,0.052,0.004,0.078,0.004c0.059,0,0.119-0.006,0.177-0.018 c0.291,0.197,0.629,0.303,0.981,0.307l0.029,0c0.06,0,0.12-0.005,0.178-0.015c0.087,0.048,0.181,0.087,0.279,0.116 c0.061,0.014,0.117,0.021,0.174,0.021c0.084,0,0.165-0.014,0.244-0.041c0.112,0.055,0.23,0.095,0.351,0.119 c-0.026,0.08-0.03,0.165-0.013,0.246c-0.016-0.002-0.032-0.002-0.048-0.002c-0.091,0-0.167,0.025-0.228,0.045 c-0.042,0.014-0.078,0.026-0.106,0.026c-0.014,0-0.031-0.002-0.054-0.02c-0.127-0.094-0.285-0.15-0.422-0.15 c-0.114,0-0.206,0.039-0.259,0.109l-0.104,0.138l0.172,0.021c0.123,0.015,0.164,0.049,0.232,0.106 c0.062,0.052,0.134,0.111,0.269,0.165c-0.129,0.078-0.205,0.19-0.267,0.283c-0.091,0.135-0.145,0.206-0.277,0.206 c-0.017,0-0.035-0.001-0.054-0.004l-0.342-0.043l0.266,0.219c0.135,0.111,0.265,0.166,0.395,0.166 c0.161,0,0.29-0.084,0.403-0.157c0.092-0.06,0.179-0.116,0.265-0.116c0.007,0,0.014,0,0.021,0.001 c0.008,0.029,0.023,0.06,0.039,0.092c0.048,0.099,0.114,0.234,0.042,0.368l-0.088,0.163l0.184-0.016 c0.238-0.02,0.418-0.165,0.508-0.403c0.101,0.188,0.351,0.316,0.569,0.316c0.016,0,0.032-0.001,0.048-0.002 c0.101,0.21,0.429,0.343,0.648,0.343c0.025,0,0.048-0.002,0.07-0.005c0.139,0.176,0.454,0.256,0.661,0.256 c0.067,0,0.124-0.008,0.17-0.023c0.154,0.176,0.558,0.279,0.794,0.279c0.073,0,0.135-0.009,0.184-0.027 c0.059-0.021,0.115-0.032,0.17-0.032c0.139,0,0.254,0.065,0.376,0.133c0.065,0.036,0.131,0.074,0.201,0.1 c-0.079,0.094-0.104,0.189-0.109,0.263c-0.011,0.173,0.085,0.353,0.264,0.5c0.042,0.364,0.325,0.658,0.686,0.714 c0.156,0.309,0.615,0.449,1.02,0.449c0.105,0,0.202-0.01,0.285-0.029c0.194,0.079,0.405,0.122,0.624,0.122l0.057-0.001 c0.022,0.002,0.055,0.003,0.087,0.003c0.705,0,1.297-0.551,1.346-1.255c0.003-0.039,0.004-0.076,0.003-0.114 c-0.057-0.314-0.2-0.59-0.402-0.806c0.142-0.372-0.032-0.793-0.396-0.955c-0.101-0.157-0.275-0.253-0.463-0.253 c-0.058,0-0.115,0.009-0.169,0.027c-0.079-0.029-0.163-0.044-0.248-0.044c-0.088,0-0.175,0.016-0.256,0.047 c0.029-0.06,0.04-0.124,0.033-0.189c0.164-0.025,0.264-0.118,0.347-0.195c0.09-0.084,0.161-0.15,0.303-0.15 c0.043,0,0.091,0.006,0.143,0.018l0.336,0.077l-0.243-0.245c-0.221-0.223-0.516-0.345-0.83-0.345 c-0.195,0-0.387,0.049-0.559,0.142c-0.047-0.01-0.094-0.015-0.142-0.015c-0.198,0-0.378,0.085-0.481,0.228 c-0.055,0.077-0.084,0.165-0.086,0.258c-0.014-0.001-0.029-0.002-0.043-0.002c-0.175,0-0.333,0.097-0.413,0.253 c-0.018,0.035-0.031,0.071-0.039,0.109c-0.009,0-0.018-0.001-0.027-0.001c-0.159,0-0.309,0.069-0.412,0.186 c-0.165-0.118-0.363-0.182-0.568-0.182c-0.023,0-0.045,0.001-0.068,0.002c-0.153-0.154-0.361-0.241-0.58-0.241 c-0.081,0-0.16,0.012-0.237,0.035c-0.103-0.06-0.22-0.092-0.34-0.092c-0.045,0-0.091,0.005-0.135,0.014 c-0.154-0.18-0.378-0.288-0.615-0.296c-0.015-0.348,0.071-0.459,0.169-0.549c0.214-0.189,0.274-0.308,0.336-0.434 c0.042-0.085,0.086-0.172,0.19-0.296c0.29-0.355,0.478-0.781,0.543-1.233c0.034-0.204,0.046-0.414,0.035-0.624 c-0.002-0.131-0.012-0.266-0.031-0.402c0.156-0.087,0.331-0.133,0.511-0.133c0.128,0,0.253,0.023,0.373,0.069 c0.066,0.158,0.002,0.345-0.152,0.427c-0.029,0.016-0.06,0.027-0.093,0.034l-0.3,0.06l0.278,0.129 c0.089,0.041,0.183,0.062,0.28,0.062c0.102,0,0.2-0.023,0.289-0.065c-0.026,0.308,0.118,0.608,0.394,0.778 c0.07,0.043,0.146,0.075,0.224,0.096l0.253,0.067l-0.144-0.219c-0.104-0.158-0.051-0.254,0.015-0.376 c0.027-0.049,0.058-0.106,0.072-0.169c0.168,0.109,0.291,0.278,0.342,0.476l0.045,0.173l0.124-0.128 c0.246-0.255,0.071-0.549-0.069-0.785c-0.044-0.074-0.089-0.15-0.119-0.22c0.043,0.003,0.085,0.005,0.128,0.005 c0.292,0,0.583-0.072,0.842-0.209l0.182-0.113c0.415-0.261,0.644-0.404,0.84-0.404c0.003,0,0.006,0,0.008,0 c0.209,0.226,0.499,0.361,0.807,0.375c0.153,0.071,0.323,0.109,0.493,0.109c0.051,0,0.101-0.003,0.152-0.01 c0.041,0.005,0.082,0.007,0.123,0.007c0.287,0,0.559-0.119,0.754-0.328c0.42-0.022,0.783-0.303,0.909-0.703 c0.236-0.071,0.31-0.23,0.333-0.324c0.049-0.197-0.042-0.427-0.232-0.586l-0.032-0.027l-0.041,0.004 c-0.022-0.007-0.059-0.082-0.081-0.128c-0.084-0.169-0.208-0.421-0.581-0.441c-0.165-0.503-0.636-0.848-1.171-0.848 c-0.053,0-0.106,0.003-0.159,0.01c-0.001,0-0.001,0-0.002,0c-0.563,0-1.038,0.407-1.143,0.944l-0.008,0.009 c-0.159,0.177-0.291,0.374-0.394,0.587c-0.07-0.021-0.152-0.031-0.246-0.031c-0.097,0-0.202,0.011-0.31,0.029l-0.156-0.167 c-0.082-0.088-0.07-0.127,0.09-0.28c0.012-0.012,0.024-0.023,0.036-0.035c0.025,0.024,0.052,0.047,0.078,0.069 c0.13,0.111,0.15,0.146,0.121,0.209l-0.074,0.157l0.173-0.015c0.18-0.015,0.314-0.144,0.359-0.344 c0.017-0.078,0.02-0.164,0.006-0.25l0.101-0.073c0.32-0.229,0.328-0.581,0.307-0.87c0.196,0.036,0.396,0.054,0.595,0.054 c0.353,0,0.701-0.056,1.036-0.166c0.309-0.098,0.897-0.262,1.354-0.262c0.242,0,0.415,0.048,0.501,0.138 c0.054,0.056,0.077,0.133,0.072,0.233l-0.017,0.32l0.196-0.253c0.164-0.212,0.138-0.379,0.087-0.482 c-0.128-0.26-0.559-0.409-1.182-0.409c-0.011,0-0.022,0-0.033,0c-0.062-0.287-0.318-0.5-0.62-0.5c-0.013,0-0.027,0-0.04,0.001 c-0.111,0.007-0.218,0.043-0.311,0.105l-0.199,0.132c-0.071-0.023-0.148-0.035-0.226-0.035c-0.108,0-0.215,0.022-0.317,0.067 l-0.05,0.021c0.049-0.187,0.048-0.391-0.106-0.6c0.031-0.027,0.051-0.062,0.057-0.102c0.003-0.018,0.004-0.045-0.007-0.078 c0.064-0.027,0.106-0.075,0.116-0.135c0.004-0.024,0.003-0.056-0.013-0.09c0.042-0.022,0.072-0.052,0.087-0.091 c0.003-0.008,0.007-0.02,0.009-0.035c0.529-0.084,1.043-0.281,1.493-0.574c0.227-0.134,0.609-0.179,0.978-0.222 c0.565-0.066,1.099-0.128,1.235-0.507l0.081-0.225l-0.217,0.1c-0.29,0.134-0.526,0.152-0.718,0.152 c-0.087,0-0.173-0.004-0.259-0.008c-0.089-0.004-0.177-0.009-0.268-0.009c-0.288,0-0.644,0.041-1.101,0.342 c-0.092,0.046-0.191,0.083-0.294,0.111c0.074-0.069,0.141-0.145,0.202-0.227c0.122-0.148,0.343-0.226,0.558-0.302 c0.322-0.113,0.687-0.242,0.726-0.652l0.023-0.241l-0.186,0.155c-0.268,0.223-0.583,0.231-0.888,0.239 c-0.315,0.008-0.641,0.016-0.826,0.306c-0.035,0.04-0.074,0.08-0.117,0.118c0.055-0.197,0.13-0.325,0.199-0.441 c0.105-0.177,0.195-0.33,0.145-0.621c-0.062-0.377,0.144-0.596,0.344-0.808c0.183-0.194,0.39-0.414,0.214-0.713L38.127,13.473 L38.127,13.473z M29.004,15.597c-0.311-0.189-0.626-0.334-0.917-0.426l0.274,0.037c0.244,0.032,0.477,0.123,0.68,0.264 C29.026,15.512,29.013,15.554,29.004,15.597L29.004,15.597z M29.658,16.055c-0.035-0.085-0.058-0.175-0.067-0.266 c0.044,0.029,0.09,0.056,0.136,0.081c0.089,0.063,0.175,0.135,0.256,0.215C29.875,16.072,29.767,16.062,29.658,16.055 L29.658,16.055z M26.15,16.072l0.249-0.038c0.083-0.013,0.168-0.019,0.252-0.019c0.124,0,0.247,0.014,0.368,0.041 c-0.026,0.089-0.037,0.181-0.034,0.274C26.693,16.219,26.413,16.133,26.15,16.072L26.15,16.072z M30.756,16.148 c-0.036-0.033-0.072-0.066-0.108-0.098c0.064,0.031,0.128,0.063,0.192,0.097C30.811,16.148,30.784,16.148,30.756,16.148 L30.756,16.148z M28.234,16.536c-0.167-0.101-0.281-0.186-0.356-0.256c0.143,0.067,0.283,0.141,0.419,0.222 C28.276,16.512,28.255,16.523,28.234,16.536L28.234,16.536z M27.087,17.028c-0.041-0.005-0.081-0.009-0.121-0.013 c-0.37-0.038-0.694-0.072-0.85-0.31C26.415,16.785,26.746,16.895,27.087,17.028L27.087,17.028z M33.516,18.898 c0.134-0.214,0.363-0.352,0.619-0.368c0.041,0.107,0.044,0.227,0.009,0.337l-0.05,0.154 C33.903,18.974,33.71,18.933,33.516,18.898L33.516,18.898z M34.172,19.04l0.11-0.053c0.18-0.086,0.339-0.212,0.464-0.368 l0.26,0.085c0.027,0.062,0.007,0.137-0.05,0.177c-0.012,0.009-0.026,0.015-0.041,0.02l-0.501,0.158l0.524,0.037 c0.03,0.002,0.059,0.003,0.089,0.003c0.168,0,0.335-0.034,0.489-0.098c-0.042,0.114-0.084,0.212-0.314,0.295l-0.058,0.034 C34.825,19.219,34.5,19.122,34.172,19.04L34.172,19.04z M37.615,19.018l0.123-0.011c0.001,0,0.001,0,0.002,0 c0.125,0,0.233,0.08,0.253,0.175c0.016,0.072-0.021,0.145-0.104,0.21c-0.014-0.083-0.05-0.161-0.106-0.231 C37.738,19.104,37.681,19.056,37.615,19.018L37.615,19.018z M29.735,19.105c-0.016-0.015-0.033-0.03-0.05-0.045 c0.055,0.015,0.11,0.029,0.166,0.041c-0.028,0.003-0.057,0.004-0.085,0.004C29.755,19.105,29.745,19.105,29.735,19.105 L29.735,19.105z M36.65,19.674c0.013-0.115,0.065-0.235,0.12-0.361c0.022-0.051,0.045-0.104,0.066-0.159l0.116,0.024 c0.137,0.028,0.27,0.142,0.276,0.234c0.005,0.083-0.103,0.166-0.294,0.228C36.845,19.662,36.748,19.674,36.65,19.674 L36.65,19.674z M29.344,19.522c0.051-0.006,0.102-0.01,0.153-0.011c0.066,0.071,0.128,0.147,0.191,0.224 c0.051,0.062,0.103,0.126,0.158,0.188c-0.017,0.007-0.034,0.013-0.052,0.019c-0.135-0.132-0.284-0.251-0.443-0.353 C29.348,19.566,29.346,19.544,29.344,19.522L29.344,19.522z M34.572,19.745c-0.081-0.037-0.155-0.088-0.227-0.137 c-0.041-0.028-0.082-0.056-0.125-0.082l0.459,0.091C34.64,19.656,34.604,19.699,34.572,19.745L34.572,19.745z M36.097,19.68 c0.01-0.027,0.024-0.053,0.04-0.076c0.021-0.025,0.041-0.05,0.06-0.076c0.01,0.063,0.025,0.125,0.045,0.185 C36.193,19.704,36.145,19.693,36.097,19.68L36.097,19.68z M30.358,19.639c0.122,0,0.244-0.006,0.366-0.019 c-0.053,0.11-0.102,0.205-0.322,0.227c-0.075-0.068-0.148-0.139-0.217-0.212C30.243,19.637,30.301,19.639,30.358,19.639 L30.358,19.639z M35.017,19.869c0.04-0.025,0.082-0.049,0.124-0.071l0.375,0.136c0.124,0.274,0.146,0.582,0.061,0.872 l-0.002,0.007c-0.029-0.059-0.067-0.113-0.117-0.158c0.074-0.166,0.036-0.368-0.102-0.495 C35.278,20.038,35.159,19.936,35.017,19.869L35.017,19.869z M30.877,20.108c0.168-0.13,0.378-0.202,0.592-0.202 c0.074,0,0.148,0.008,0.22,0.025c0.149,0.059,0.321,0.091,0.496,0.091c0.173,0,0.343-0.031,0.504-0.094 c0.475,0.076,0.915,0.312,1.242,0.666c0.025,0.029,0.053,0.056,0.084,0.081c-0.053,0.048-0.096,0.104-0.136,0.155 c-0.096,0.123-0.161,0.198-0.286,0.2l-0.411,0.007l0.369,0.183c0.114,0.056,0.24,0.086,0.367,0.086 c0.141,0,0.276-0.035,0.396-0.1c0.027,0.184,0.153,0.348,0.341,0.414c0.031,0.011,0.065,0.019,0.101,0.024l0.14,0.019 c-0.169,0.033-0.34,0.079-0.491,0.12c-0.106,0.028-0.204,0.055-0.287,0.073c-0.066,0.003-0.148,0.006-0.23,0.006 c-0.568,0-1.138-0.131-1.649-0.378c-0.143-0.096-0.292-0.183-0.447-0.26c0.064,0.018,0.134,0.029,0.21,0.029 c0.054,0,0.112-0.005,0.174-0.017l0.429-0.081l-0.422-0.114c-0.269-0.072-0.409-0.239-0.556-0.416 c-0.157-0.188-0.335-0.402-0.681-0.497C30.922,20.122,30.899,20.115,30.877,20.108L30.877,20.108z M31.57,21.122 c-0.242-0.102-0.496-0.181-0.759-0.234c-0.312-0.092-0.495-0.287-0.69-0.519c0.085,0.014,0.17,0.024,0.255,0.03l0.196,0.083 c0.337,0.117,0.547,0.289,0.733,0.441C31.395,20.996,31.481,21.066,31.57,21.122L31.57,21.122z M38.294,21.77 c0.01-0.015,0.02-0.031,0.03-0.047c0.005,0.009,0.011,0.019,0.017,0.028C38.325,21.757,38.309,21.763,38.294,21.77L38.294,21.77 z M13.159,31.008c0.111-0.099,0.219-0.173,0.353-0.179c0.099-0.004,0.185-0.034,0.26-0.079 c-0.081,0.093-0.181,0.164-0.333,0.197L13.159,31.008L13.159,31.008z"/><path fill="#424242" d="M33.235,18.244l-0.041-0.018c-0.275-0.111-0.43-0.261-0.46-0.443 c-0.046-0.279,0.212-0.539,0.325-0.638c0.067-0.057,0.177-0.074,0.314-0.051c0.239,0.041,0.554,0.205,0.69,0.44l0.029,0.051 l-0.055,0.021c-0.005,0.002-0.581,0.229-0.782,0.598L33.235,18.244z M33.263,17.185c-0.062,0-0.109,0.013-0.138,0.037 c-0.078,0.068-0.331,0.309-0.292,0.545c0.022,0.138,0.144,0.256,0.359,0.351c0.193-0.311,0.604-0.513,0.754-0.579 c-0.133-0.183-0.395-0.312-0.589-0.345C33.323,17.188,33.291,17.185,33.263,17.185z"/><path fill="#424242" d="M34.159,17.229l-0.021-0.008c-0.025-0.009-0.618-0.227-0.691-0.528 c-0.023-0.096,0.005-0.188,0.083-0.273l0.074,0.068c-0.056,0.061-0.075,0.119-0.061,0.182c0.049,0.198,0.437,0.385,0.607,0.45 l0.407-0.226l0.049,0.088L34.159,17.229z"/><path fill="#424242" d="M33.596,17.202c0,0-0.295,0.433-0.02,0.632c0.166-0.098,0.445-0.273,0.445-0.273 S33.958,17.32,33.596,17.202z"/><path fill="#424242" d="M34.536,16.558c0,0-0.428,0.12-0.342,0.505c0.134-0.153,0.491-0.221,0.491-0.221L34.536,16.558z"/><path fill="#424242" d="M20.145,26.437c-0.146-0.813,0.053-1.479,0.572-1.921c0.747-0.637,2.094-0.746,3.437-0.277 c2.062,0.718,4.277,1.025,4.3,1.028l-0.014,0.1c-0.022-0.003-2.247-0.312-4.319-1.034c-1.308-0.456-2.619-0.354-3.338,0.26 c-0.491,0.418-0.678,1.051-0.54,1.827L20.145,26.437z"/><path fill="#424242" d="M26.274,19.9c-0.39,0-0.678-0.123-0.685-0.126l0.041-0.092c0.051,0.022,1.265,0.54,2.038-0.714 c0.821-1.327,2.33-0.622,2.345-0.614l-0.043,0.09c-0.06-0.028-1.442-0.675-2.216,0.577C27.313,19.734,26.727,19.9,26.274,19.9z"/><path fill="#424242" d="M26.84,18.009c-0.205,0-0.296-0.026-0.304-0.028l0.028-0.096c0.005,0,0.42,0.115,1.546-0.173 c0.281-0.071,0.503-0.159,0.698-0.237c0.626-0.249,1.002-0.398,2.204,0.334l-0.053,0.086c-1.157-0.706-1.518-0.563-2.114-0.327 c-0.198,0.079-0.424,0.169-0.71,0.242C27.501,17.971,27.088,18.009,26.84,18.009z"/><path fill="#263238" d="M13.157,30.055l-0.021-0.098c0.021-0.006,2.094-0.592,3.657-1.942 c0.446-0.386,0.668-1.076,0.925-1.875c0.327-1.02,0.699-2.176,1.652-3.073c2.264-2.068,5.171-0.397,6.566,0.408 c0.284,0.164,0.508,0.293,0.659,0.354c0.445,0.18,0.827,0.193,1.104,0.037c0.247-0.139,0.409-0.409,0.47-0.783 c0.124-0.769-1.698-2.852-1.716-2.872l0.074-0.066c0.077,0.087,1.872,2.14,1.741,2.954c-0.066,0.405-0.246,0.7-0.521,0.854 c-0.306,0.172-0.716,0.161-1.189-0.032c-0.158-0.063-0.385-0.194-0.672-0.359c-1.376-0.793-4.24-2.439-6.448-0.422 c-0.935,0.879-1.302,2.022-1.626,3.03c-0.261,0.813-0.486,1.517-0.955,1.921c-1.001,0.865-2.209,1.42-2.965,1.711 c1.168-0.281,3.471-1.008,5.248-2.646l0.068,0.074C16.714,29.529,13.192,30.05,13.157,30.055z"/><path fill="#424242" d="M30.492,25.73L30.4,25.689c0.592-1.33,0.613-2.339-0.912-4.166 c-1.512-1.809-0.973-2.656-0.948-2.691l0.083,0.056c-0.006,0.009-0.516,0.828,0.941,2.571 C31.124,23.326,31.101,24.362,30.492,25.73z"/><path fill="#424242" d="M20.324,32.923l-0.096-0.031c0.131-0.406,0.35-0.68,0.651-0.812 c0.495-0.216,1.033,0.025,1.056,0.037l-0.043,0.09c-0.004-0.001-0.518-0.234-0.974-0.034 C20.646,32.292,20.445,32.545,20.324,32.923z"/><path fill="#424242" d="M22.811,28.726c-0.186-0.232-0.256-0.465-0.209-0.689c0.083-0.398,0.503-0.624,0.521-0.633 l0.047,0.088c-0.004,0.002-0.396,0.214-0.47,0.566c-0.04,0.193,0.023,0.397,0.189,0.605L22.811,28.726z"/><g><path fill="#424242" d="M31.443,23.394l-0.1-0.004c0.027-0.691-0.581-1.797-0.588-1.808l0.088-0.049 C30.869,21.579,31.472,22.674,31.443,23.394z"/></g></svg>