<svg xmlns="http://www.w3.org/2000/svg"  viewBox="0 0 48 48" width="100px" height="100px"><path fill="#b71c1c" d="M4,24c0,0.507,0.039,1.005,0.076,1.503l34.778,11.856C42.043,33.816,43,29.142,43,24 s-0.957-9.816-4.146-13.359L4.076,22.497C4.039,22.995,4,23.493,4,24z"/><path fill="#1a237e" d="M4.076,22.497l34.778-11.856C35.193,6.573,29.903,4,24,4C13.462,4,4.847,12.156,4.076,22.497z"/><path fill="#1a237e" d="M24,44c5.903,0,11.193-2.573,14.854-6.641L4.076,25.503C4.847,35.844,13.462,44,24,44z"/><path fill="#eceff1" d="M5.803,24l34.373,11.699C42.57,32.409,44,28.378,44,24s-1.43-8.409-3.824-11.699L5.803,24z"/><polygon fill="#ffca28" points="31.519,25.489 29.936,25.51 29.915,26.124 31.498,26.124"/><path fill="#263238" d="M31.498,26.174h-1.583c-0.014,0-0.026-0.005-0.036-0.015c-0.009-0.01-0.014-0.023-0.014-0.037 l0.021-0.614c0.001-0.026,0.022-0.048,0.049-0.048l1.583-0.021h0c0.014,0,0.026,0.005,0.036,0.015 c0.01,0.01,0.015,0.023,0.014,0.037l-0.021,0.635C31.547,26.152,31.525,26.174,31.498,26.174z M29.967,26.074h1.483l0.018-0.534 l-1.483,0.02L29.967,26.074z"/><path fill="#795548" d="M37.345,19.514l-1.5,0.014c0,0,1.375-0.083,1.75-0.68c-0.819,0.236-0.722,0.125-0.722,0.125 s1.236-0.542,1.305-0.944c0,0-1.208,0.417-1.847,0.347c-0.639-0.069,0.722-1.125,0.722-1.125s1.25-0.958,1.292-1.472 c-0.181,0.167-0.333,0.25-0.333,0.25s0.389-0.486,0.167-0.819c-0.333,0.25-1.014,0.708-1.014,0.708s0.236-0.167,0.347-0.722 c-0.514,0.278-1.361,0.861-1.361,0.861l0.097-0.389c0,0-1.778,1.583-3.486,2.083c-0.222-0.167,0.042-0.375,0.042-0.375 l-1.583,0.958l-0.139-0.278c0,0-1.861,0.889-2.194,1.667c-0.333,0.778,0.403,0.792,0.403,0.792s-0.847,0.639-0.569,1.194 s0.986-0.056,0.986-0.056l0.625-0.125l-0.597,0.722l0.944,0.93l2.222-0.292c0,0-0.028,1.139,0.819,1.417 c-0.222,0.653-0.625,1.694-0.625,1.694s0.528,0.556,0.514,0.736c-0.014,0.181,0.181-0.181,0.181-0.181l0.486,0.153l0.083-0.375 l0.153-0.014l0.194-0.792l0.292,0.069l-0.083-0.583l0.556-0.458l-0.389-2.694l2.986-1.805L37.345,19.514z"/><path fill="#263238" d="M33.626,26.837c-0.008,0-0.014-0.002-0.021-0.003c-0.053-0.016-0.048-0.081-0.046-0.103 c0.008-0.109-0.288-0.474-0.5-0.698c-0.014-0.014-0.018-0.034-0.01-0.052c0.004-0.011,0.386-0.999,0.608-1.646 c-0.715-0.271-0.796-1.155-0.805-1.391l-2.167,0.285c-0.015-0.001-0.031-0.004-0.042-0.014l-0.944-0.93 c-0.019-0.018-0.02-0.047-0.003-0.067l0.507-0.614l-0.474,0.095c-0.067,0.056-0.439,0.347-0.748,0.284 c-0.132-0.027-0.235-0.112-0.306-0.252c-0.238-0.477,0.275-0.993,0.493-1.182c-0.107-0.022-0.26-0.079-0.349-0.216 c-0.099-0.153-0.092-0.365,0.021-0.629c0.337-0.786,2.142-1.655,2.219-1.692c0.025-0.011,0.055-0.001,0.066,0.022l0.115,0.229 l1.537-0.93c0.023-0.014,0.052-0.008,0.067,0.015c0.015,0.021,0.011,0.051-0.01,0.067c-0.032,0.025-0.113,0.107-0.112,0.185 c0,0.034,0.017,0.065,0.05,0.095c1.67-0.499,3.424-2.049,3.441-2.064c0.016-0.016,0.04-0.018,0.059-0.006 c0.019,0.012,0.028,0.034,0.022,0.055l-0.065,0.262c0.246-0.167,0.855-0.573,1.257-0.79c0.018-0.009,0.037-0.009,0.054,0.004 c0.016,0.011,0.023,0.031,0.019,0.05c-0.044,0.221-0.107,0.382-0.169,0.498c0.228-0.156,0.557-0.384,0.757-0.534 c0.01-0.008,0.028-0.012,0.038-0.009c0.014,0.002,0.026,0.01,0.033,0.021c0.145,0.218,0.059,0.486-0.036,0.668 c0.039-0.031,0.082-0.067,0.127-0.108c0.015-0.014,0.038-0.018,0.056-0.008c0.019,0.009,0.029,0.028,0.028,0.049 c-0.043,0.53-1.259,1.468-1.311,1.508c-0.39,0.303-0.918,0.805-0.87,0.974c0.009,0.033,0.051,0.054,0.123,0.062 c0.624,0.071,1.813-0.34,1.826-0.345c0.015-0.007,0.036-0.002,0.048,0.009c0.014,0.011,0.02,0.029,0.017,0.046 c-0.056,0.328-0.767,0.71-1.132,0.888c0.102-0.021,0.255-0.058,0.486-0.125c0.021-0.006,0.042,0.001,0.054,0.018 c0.012,0.017,0.013,0.039,0.002,0.057c-0.204,0.325-0.679,0.502-1.089,0.598l0.796-0.007h0c0.011,0,0.021,0.003,0.03,0.01 l0.722,0.542c0.014,0.01,0.021,0.026,0.02,0.042c0,0.017-0.01,0.032-0.024,0.041l-2.958,1.788l0.384,2.661 c0.002,0.018-0.004,0.035-0.018,0.046l-0.534,0.44l0.079,0.556c0.002,0.017-0.003,0.032-0.016,0.044s-0.028,0.015-0.045,0.012 l-0.243-0.058l-0.183,0.743c-0.005,0.021-0.022,0.036-0.044,0.038L34.4,26.38l-0.075,0.339c-0.003,0.014-0.012,0.025-0.024,0.032 c-0.012,0.008-0.025,0.008-0.04,0.005l-0.447-0.142C33.707,26.807,33.657,26.837,33.626,26.837z M33.659,26.761L33.659,26.761 L33.659,26.761z M33.153,25.987c0.114,0.122,0.45,0.494,0.5,0.696c0.029-0.041,0.064-0.1,0.092-0.152 c0.011-0.021,0.037-0.028,0.059-0.024l0.434,0.137l0.071-0.321c0.005-0.021,0.022-0.037,0.044-0.039l0.117-0.011l0.187-0.757 c0.006-0.027,0.034-0.044,0.06-0.037l0.22,0.053l-0.073-0.511c-0.002-0.017,0.004-0.034,0.018-0.045l0.534-0.44l-0.385-2.667 c-0.003-0.02,0.006-0.04,0.023-0.05l2.922-1.767l-0.649-0.487l-1.482,0.013h0c-0.027,0-0.049-0.021-0.05-0.048 c-0.001-0.027,0.02-0.05,0.047-0.052c0.012-0.001,1.166-0.077,1.618-0.541c-0.58,0.16-0.608,0.112-0.632,0.076 c-0.017-0.026-0.009-0.056,0.007-0.074c0.005-0.006,0.011-0.01,0.018-0.013c0.306-0.134,1.063-0.518,1.241-0.818 c-0.306,0.099-1.225,0.372-1.768,0.316c-0.117-0.013-0.187-0.058-0.209-0.134c-0.083-0.294,0.74-0.951,0.906-1.08 c0.012-0.009,1.016-0.783,1.232-1.29c-0.124,0.098-0.214,0.148-0.219,0.151c-0.019,0.011-0.046,0.007-0.062-0.012 c-0.016-0.018-0.016-0.045-0.001-0.063c0.003-0.004,0.328-0.417,0.19-0.714c-0.344,0.253-0.963,0.671-0.97,0.676 c-0.022,0.015-0.054,0.01-0.069-0.013c-0.016-0.022-0.01-0.053,0.012-0.069c0.002-0.001,0.191-0.143,0.303-0.583 c-0.51,0.289-1.252,0.799-1.26,0.805c-0.017,0.012-0.04,0.012-0.057,0c-0.017-0.012-0.025-0.033-0.02-0.053l0.059-0.237 c-0.429,0.361-1.939,1.568-3.385,1.991c-0.016,0.005-0.031,0.002-0.044-0.008c-0.072-0.054-0.108-0.118-0.109-0.19 c0-0.021,0.003-0.042,0.008-0.062l-1.385,0.838c-0.012,0.006-0.027,0.009-0.04,0.005c-0.014-0.004-0.025-0.013-0.031-0.025 l-0.117-0.233c-0.282,0.14-1.832,0.933-2.126,1.619c-0.099,0.232-0.109,0.412-0.029,0.536c0.115,0.178,0.385,0.187,0.387,0.187 c0.021,0,0.04,0.014,0.046,0.035c0.007,0.02,0,0.042-0.017,0.055c-0.008,0.006-0.811,0.621-0.555,1.132 c0.057,0.114,0.133,0.179,0.235,0.199c0.288,0.051,0.669-0.267,0.673-0.27c0.007-0.005,0.015-0.009,0.023-0.011l0.625-0.125 c0.022-0.005,0.042,0.005,0.053,0.023c0.011,0.019,0.009,0.042-0.004,0.058l-0.568,0.687l0.894,0.881l2.198-0.289 c0.016,0.002,0.029,0.003,0.04,0.013c0.011,0.01,0.017,0.024,0.017,0.038c0,0.011-0.016,1.105,0.785,1.368 c0.013,0.004,0.023,0.013,0.029,0.025c0.006,0.012,0.007,0.026,0.002,0.039C33.568,24.906,33.22,25.813,33.153,25.987z"/><path fill="#ffca28" d="M32.665,25.812l-1.104-0.635c0,0-0.26,0.031-0.26,0.729s0.302,0.687,0.302,0.687l1.062-0.5V25.812z"/><path fill="#263238" d="M31.602,26.643c-0.016,0-0.091-0.004-0.168-0.079c-0.122-0.117-0.183-0.338-0.183-0.658 c0-0.721,0.273-0.774,0.304-0.778c0.012,0,0.021,0.001,0.031,0.007l1.104,0.635c0.016,0.009,0.025,0.025,0.025,0.043v0.281 c0,0.02-0.011,0.037-0.028,0.045l-1.062,0.5C31.617,26.641,31.612,26.644,31.602,26.643z M31.554,25.23 c-0.045,0.021-0.204,0.134-0.204,0.675c0,0.562,0.2,0.629,0.243,0.637l1.022-0.48v-0.221L31.554,25.23z"/><path fill="#fff" d="M36.942,19.611l1.528-0.722h0.5c0,0,0.417-0.153,0.556,0c0.139,0.153,0.5,0.083,0.597,0.264 c0.097,0.181,0.458,0.125,0.292,0.667s-0.028,0.68-0.5,0.778c-0.472,0.097-2.43,0.028-2.43,0.028L36.942,19.611z"/><path fill="#263238" d="M38.812,20.699c-0.632,0-1.283-0.022-1.33-0.024c-0.018,0-0.034-0.011-0.042-0.026l-0.542-1.014 c-0.007-0.012-0.008-0.026-0.003-0.039c0.004-0.013,0.014-0.024,0.026-0.03l1.527-0.722c0.007-0.003,0.014-0.004,0.021-0.004 h0.491c0.075-0.026,0.452-0.149,0.602,0.016c0.054,0.06,0.161,0.081,0.264,0.102c0.136,0.027,0.277,0.055,0.34,0.172 c0.023,0.042,0.068,0.07,0.121,0.103c0.135,0.083,0.302,0.187,0.175,0.602c-0.044,0.143-0.066,0.258-0.084,0.351 c-0.051,0.264-0.075,0.384-0.453,0.461C39.725,20.687,39.273,20.699,38.812,20.699z M37.514,20.576 c0.245,0.008,1.96,0.061,2.39-0.028c0.313-0.064,0.327-0.132,0.375-0.383c0.019-0.095,0.042-0.213,0.087-0.361 c0.105-0.341-0.01-0.412-0.131-0.487c-0.06-0.037-0.121-0.075-0.156-0.141c-0.041-0.075-0.153-0.098-0.271-0.121 c-0.12-0.024-0.243-0.049-0.319-0.132c-0.093-0.104-0.401-0.023-0.501,0.013c-0.005,0.002-0.011,0.003-0.017,0.003h-0.489 l-1.47,0.695L37.514,20.576z"/><path fill="#795548" d="M32.538,25.824l-1.187,0.281c0,0-0.062,0.406,0.281,0.458c0.417-0.156,1.062-0.5,1.062-0.5 L32.538,25.824z"/><path fill="#ffca28" d="M36.508,26.562l-6.864,0.989l0.094,0.219l6.864-0.792C36.602,26.979,36.977,26.51,36.508,26.562z"/><path fill="#263238" d="M29.738,27.82c-0.02,0-0.038-0.012-0.046-0.03l-0.093-0.219c-0.006-0.015-0.005-0.03,0.002-0.044 c0.007-0.014,0.021-0.022,0.036-0.025l6.864-0.989c0.001,0,0.001,0,0.002,0c0.142-0.016,0.233,0.013,0.272,0.084 c0.076,0.139-0.098,0.368-0.134,0.413c-0.008,0.011-0.02,0.017-0.033,0.019l-6.864,0.792C29.742,27.82,29.74,27.82,29.738,27.82z M29.716,27.592l0.053,0.125l6.807-0.785c0.066-0.089,0.142-0.23,0.111-0.287c-0.017-0.031-0.082-0.045-0.172-0.032L29.716,27.592 z"/><path fill="#ffca28" d="M36.972,26.291l-4.375-0.198l0.04-0.385l4.355,0.104C36.992,25.812,37.19,26.166,36.972,26.291z"/><path fill="#263238" d="M36.972,26.341c-0.001,0-0.001,0-0.002,0l-4.375-0.198c-0.014,0-0.026-0.007-0.036-0.018 c-0.009-0.01-0.013-0.023-0.012-0.037l0.04-0.385c0.003-0.025,0.024-0.045,0.05-0.045c0,0,0.001,0,0.001,0l4.355,0.104 c0.018,0,0.034,0.01,0.042,0.025c0.009,0.017,0.219,0.399-0.039,0.547C36.989,26.339,36.98,26.341,36.972,26.341z M32.652,26.045 l4.307,0.195c0.126-0.088,0.038-0.306,0.002-0.38l-4.279-0.102L32.652,26.045z"/><path fill="#ffca28" d="M33.592,26.343l-0.437,0.521c0,0,0.469,0.073,0.458,0.375s-0.281,0.146-0.281,0.146 s-0.146,0.406-0.531,0.333c-0.198,0.219-0.292,0.115-0.531,0.042c-0.219,0.198-0.583-0.01-0.667-0.104 c-0.083-0.094-0.115-0.51,0.146-0.698c0.26-0.187,0.989-0.281,1.323-0.667c0.333-0.385,0.333-0.385,0.333-0.385L33.592,26.343z"/><path fill="#263238" d="M32.573,27.899c-0.065,0-0.129-0.024-0.199-0.05c-0.029-0.011-0.06-0.022-0.094-0.034 c-0.073,0.056-0.166,0.084-0.265,0.076c-0.201-0.011-0.393-0.138-0.451-0.203c-0.056-0.063-0.084-0.21-0.068-0.357 c0.02-0.178,0.099-0.325,0.222-0.414c0.104-0.074,0.268-0.131,0.457-0.197c0.309-0.108,0.658-0.23,0.858-0.461l0.333-0.386 c0.012-0.014,0.026-0.019,0.046-0.018c0.017,0.003,0.031,0.015,0.038,0.03l0.188,0.438c0.007,0.018,0.004,0.037-0.008,0.052 l-0.384,0.458c0.145,0.039,0.426,0.147,0.417,0.408c-0.003,0.105-0.038,0.177-0.101,0.212c-0.069,0.039-0.151,0.02-0.205-0.001 c-0.067,0.139-0.222,0.324-0.468,0.324c-0.023,0-0.046-0.002-0.071-0.005C32.726,27.867,32.648,27.899,32.573,27.899z M32.269,27.71c0.005,0,0.01,0.001,0.015,0.002c0.046,0.015,0.088,0.029,0.125,0.044c0.154,0.056,0.218,0.08,0.354-0.071 c0.012-0.014,0.028-0.022,0.046-0.016c0.339,0.06,0.47-0.285,0.475-0.301c0.005-0.015,0.016-0.025,0.03-0.03 c0.013-0.006,0.028-0.005,0.042,0.004c0.025,0.015,0.111,0.047,0.157,0.024c0.038-0.021,0.047-0.082,0.049-0.129 c0.008-0.254-0.412-0.323-0.417-0.323c-0.018-0.003-0.033-0.016-0.039-0.032s-0.003-0.036,0.009-0.05l0.417-0.498l-0.144-0.336 l-0.28,0.325c-0.218,0.252-0.596,0.384-0.9,0.49c-0.183,0.064-0.34,0.119-0.432,0.186c-0.135,0.097-0.171,0.257-0.181,0.343 c-0.016,0.141,0.017,0.25,0.043,0.28c0.05,0.056,0.22,0.161,0.381,0.17c0.081,0.001,0.159-0.02,0.214-0.069 C32.245,27.714,32.257,27.71,32.269,27.71z"/><path fill="#ffca28" d="M34.102,24.614l-0.333,0.521l-0.771,0.01L32.436,25.5l0.062,0.656c0,0,0.104,0.167,0.375,0.104 c0.125,0.26,0.552,0.083,0.635,0.042c0.146,0.146,0.417,0,0.521-0.062c-0.219-0.146-0.125-0.51-0.125-0.51l0.531,0.021 l-0.448-0.385l0.615-0.854l-0.344-0.156L34.102,24.614z"/><path fill="#263238" d="M33.13,26.449c-0.047,0-0.094-0.006-0.137-0.021c-0.062-0.021-0.111-0.059-0.146-0.111 c-0.28,0.041-0.387-0.127-0.392-0.135c-0.004-0.007-0.006-0.014-0.007-0.021l-0.062-0.655c-0.002-0.019,0.007-0.037,0.023-0.047 l0.562-0.354c0.008-0.005,0.017-0.008,0.026-0.008l0.744-0.011l0.318-0.497l0.156-0.26c0.013-0.021,0.041-0.031,0.063-0.02 l0.344,0.156c0.014,0.006,0.024,0.018,0.028,0.033c0.004,0.014,0.001,0.03-0.008,0.042l-0.587,0.817l0.413,0.354 c0.016,0.014,0.021,0.036,0.014,0.057c-0.007,0.02-0.029,0.033-0.048,0.031l-0.489-0.019c-0.015,0.092-0.036,0.318,0.112,0.417 c0.014,0.01,0.022,0.026,0.022,0.043c0,0.018-0.009,0.033-0.024,0.042c-0.239,0.143-0.434,0.171-0.555,0.078 C33.436,26.389,33.28,26.449,33.13,26.449z M32.873,26.21c0.019,0,0.037,0.011,0.045,0.028c0.022,0.047,0.058,0.078,0.108,0.095 c0.175,0.064,0.458-0.075,0.46-0.076c0.019-0.008,0.042-0.006,0.057,0.01c0.097,0.094,0.273,0.032,0.399-0.036 c-0.169-0.181-0.09-0.5-0.086-0.515c0.006-0.021,0.025-0.037,0.048-0.037c0,0,0.001,0,0.002,0l0.388,0.015l-0.339-0.291 c-0.02-0.017-0.023-0.046-0.008-0.067l0.579-0.804l-0.248-0.113l-0.133,0.222c0,0,0,0-0.001,0.001l-0.333,0.521 c-0.009,0.014-0.024,0.022-0.042,0.022l-0.757,0.011l-0.524,0.331l0.058,0.61c0.024,0.029,0.117,0.121,0.315,0.074 C32.866,26.21,32.869,26.21,32.873,26.21z M34.102,24.614h0.001H34.102z"/><path fill="#263238" d="M33.508,26.352c-0.013,0-0.026-0.005-0.036-0.016c-0.421-0.443-0.038-0.925-0.034-0.93 c0.017-0.022,0.049-0.023,0.07-0.008c0.021,0.018,0.025,0.049,0.008,0.07c-0.014,0.018-0.332,0.419,0.028,0.799 c0.019,0.02,0.019,0.052-0.002,0.07C33.533,26.348,33.521,26.352,33.508,26.352z"/><path fill="#263238" d="M32.873,26.31c-0.02,0-0.038-0.012-0.046-0.03c-0.196-0.468,0.176-1.024,0.192-1.048 c0.016-0.022,0.047-0.028,0.069-0.013c0.023,0.016,0.029,0.046,0.014,0.069c-0.004,0.005-0.357,0.535-0.183,0.952 c0.011,0.025-0.001,0.055-0.026,0.065C32.886,26.309,32.879,26.31,32.873,26.31z"/><path fill="#263238" d="M32.269,27.81c-0.01,0-0.02-0.003-0.029-0.009c-0.022-0.016-0.028-0.047-0.012-0.07 c0.224-0.316-0.047-0.622-0.059-0.636c-0.019-0.021-0.017-0.052,0.003-0.07c0.02-0.02,0.052-0.019,0.071,0.004 c0.003,0.003,0.336,0.377,0.066,0.761C32.3,27.803,32.285,27.81,32.269,27.81z"/><path fill="#263238" d="M32.8,27.768c-0.01,0-0.021-0.003-0.03-0.01c-0.022-0.017-0.027-0.048-0.01-0.07 c0.058-0.077,0.079-0.158,0.065-0.245c-0.036-0.221-0.291-0.4-0.293-0.402c-0.023-0.016-0.028-0.047-0.013-0.069 c0.016-0.024,0.047-0.029,0.069-0.013c0.012,0.008,0.292,0.205,0.335,0.468c0.019,0.114-0.009,0.223-0.083,0.322 C32.831,27.761,32.815,27.768,32.8,27.768z"/><path fill="#263238" d="M33.332,27.435c-0.026,0-0.048-0.021-0.05-0.047c-0.019-0.275-0.493-0.443-0.498-0.445 c-0.026-0.009-0.04-0.037-0.031-0.063c0.01-0.025,0.037-0.038,0.064-0.03c0.022,0.007,0.542,0.191,0.564,0.533 c0.002,0.027-0.019,0.051-0.046,0.053C33.334,27.435,33.333,27.435,33.332,27.435z"/><path fill="#ffca28" d="M29.478,25.572c0,0-1.552-0.198-2-0.625c-0.635,0.292-1.906,0.604-2.531,0.635 c0.906,0.177,2.427,0.896,2.427,0.896s1.271-0.5,2.073-0.479C29.603,25.895,29.478,25.572,29.478,25.572z"/><path fill="#263238" d="M27.374,26.528c-0.007,0-0.015-0.001-0.021-0.005c-0.015-0.007-1.525-0.718-2.415-0.892 c-0.024-0.005-0.042-0.027-0.04-0.053c0.002-0.024,0.022-0.045,0.047-0.046c0.633-0.032,1.901-0.351,2.513-0.631 c0.021-0.007,0.041-0.005,0.056,0.009c0.431,0.411,1.956,0.609,1.971,0.611c0.018,0.003,0.034,0.015,0.041,0.032 c0.005,0.015,0.137,0.361-0.05,0.486c-0.008,0.005-0.018,0.008-0.028,0.008c0,0-0.001,0-0.001,0c-0.016,0-0.031,0-0.047,0 c-0.785,0-1.993,0.472-2.006,0.477C27.386,26.527,27.38,26.528,27.374,26.528z M25.25,25.604c0.841,0.229,1.963,0.745,2.125,0.82 c0.167-0.064,1.265-0.476,2.021-0.476c0.011,0,0.022,0,0.033,0c0.076-0.067,0.04-0.24,0.01-0.33 c-0.223-0.03-1.521-0.222-1.972-0.611C26.927,25.248,25.923,25.514,25.25,25.604z"/><path fill="#795548" d="M25.759,25.601c0,0,1.281,0.104,1.729,0.396c0.406-0.25,1.583-0.292,1.969-0.24 c0.385,0.052-0.01,0.198-0.01,0.198s-1.687,0.25-2.073,0.479c-0.323-0.115-1.167-0.479-1.167-0.479S26.249,25.788,25.759,25.601z"/><path fill="#ffca28" d="M29.54,25.125c0,0-0.448,0.698,0.01,1.417l0.427-0.021c0,0,0.219-0.229,0.208-0.708 s-0.229-0.667-0.229-0.667L29.54,25.125z"/><path fill="#263238" d="M29.551,26.591c-0.017,0-0.033-0.009-0.042-0.022c-0.47-0.737-0.016-1.463-0.011-1.471 c0.01-0.015,0.027-0.022,0.044-0.022l0.417,0.021c0.011,0,0.021,0.005,0.03,0.012c0.009,0.009,0.236,0.208,0.247,0.703 c0.011,0.494-0.212,0.734-0.222,0.744c-0.009,0.01-0.021,0.016-0.034,0.016l-0.427,0.021 C29.552,26.591,29.552,26.591,29.551,26.591z M29.568,25.177c-0.069,0.125-0.355,0.713,0.01,1.312l0.375-0.018 c0.044-0.056,0.191-0.273,0.183-0.659c-0.009-0.385-0.159-0.572-0.201-0.618L29.568,25.177z"/><path fill="#ffca28" d="M34.602,28.687c0,0,0.031,0.5-0.687,0.219c-0.719-0.281-1.229-0.031-1.646-0.042 c-0.417-0.01-1.125-0.5-1.802-0.219c-0.677,0.281-1.052,0.26-0.906-0.042c0.146-0.302,0.125-0.51-0.094-0.594 c0.354-0.177,0.323-0.427,0.323-0.427l-0.083-0.115c0,0-0.781-0.312-1.031,0.073c-0.354-0.198-0.771,0.146-0.781,0.365 c-0.448,0.104-0.448,0.417-0.333,0.594c-0.385,0.25-0.24,0.625,0.187,0.771c0.344,0.76,0.906,0.5,0.906,0.5 s0.156,0.594,1.239,0.323c0.417,0.698,1.552,0.229,1.552,0.229s0.708,0.208,1.552,0.125c0.844-0.083,0.531,0.542,0.531,0.542 s0.667-0.344,0.24-0.667c0.531-0.083,0.906,0.615,1.521,0.229c-0.312-0.115-0.792-0.49-0.792-0.49s0.448-0.229,1.052,0.031 c-0.5-0.396-1.104-0.385-1.104-0.385s0.667-0.354,1.01-0.135c-0.417-0.344-1.146-0.125-1.458-0.073 C35.102,29.135,34.956,28.905,34.602,28.687z"/><path fill="#263238" d="M33.529,31.038c-0.013,0-0.025-0.005-0.035-0.015c-0.015-0.015-0.019-0.038-0.01-0.058 c0.001-0.002,0.106-0.218,0.013-0.354c-0.069-0.1-0.242-0.139-0.494-0.114c-0.77,0.075-1.439-0.091-1.554-0.122 c-0.146,0.058-1.154,0.421-1.579-0.226c-0.911,0.217-1.178-0.171-1.245-0.316c-0.078,0.025-0.241,0.058-0.424-0.011 c-0.201-0.075-0.365-0.247-0.489-0.513c-0.238-0.087-0.399-0.25-0.421-0.43c-0.018-0.146,0.054-0.285,0.204-0.396 c-0.055-0.109-0.063-0.231-0.021-0.337c0.038-0.095,0.134-0.218,0.375-0.282c0.025-0.125,0.142-0.265,0.298-0.352 c0.171-0.094,0.356-0.107,0.513-0.036c0.291-0.361,1.032-0.069,1.065-0.057c0.009,0.004,0.017,0.01,0.022,0.018l0.083,0.115 c0.005,0.007,0.008,0.015,0.009,0.023c0.001,0.011,0.026,0.245-0.268,0.431c0.05,0.035,0.086,0.08,0.108,0.135 c0.047,0.119,0.022,0.281-0.075,0.482c-0.021,0.044-0.041,0.103-0.012,0.133c0.066,0.072,0.356,0.048,0.854-0.158 c0.467-0.194,0.947-0.035,1.333,0.093c0.192,0.063,0.357,0.118,0.489,0.122c0.125,0.002,0.257-0.019,0.399-0.04 c0.333-0.053,0.75-0.117,1.263,0.084c0.246,0.097,0.429,0.11,0.529,0.035c0.097-0.071,0.09-0.202,0.09-0.204 c-0.001-0.019,0.008-0.036,0.024-0.046c0.017-0.01,0.036-0.01,0.052,0c0.149,0.093,0.298,0.206,0.281,0.354 c-0.015,0.121-0.141,0.236-0.398,0.358c0.326-0.045,0.71-0.042,0.977,0.179c0.021,0.017,0.024,0.046,0.009,0.067 s-0.046,0.028-0.067,0.013c-0.211-0.134-0.568-0.028-0.783,0.058c0.225,0.029,0.6,0.117,0.935,0.382 c0.02,0.016,0.024,0.043,0.012,0.064c-0.013,0.021-0.04,0.03-0.063,0.021c-0.432-0.186-0.781-0.111-0.931-0.063 c0.144,0.107,0.476,0.344,0.708,0.429c0.018,0.007,0.031,0.022,0.033,0.042c0.002,0.019-0.007,0.037-0.023,0.047 c-0.381,0.24-0.688,0.082-0.958-0.059c-0.157-0.082-0.308-0.16-0.469-0.168c0.055,0.065,0.079,0.137,0.073,0.212 c-0.022,0.252-0.393,0.446-0.409,0.455C33.545,31.036,33.537,31.038,33.529,31.038z M33.143,30.39c0.214,0,0.36,0.056,0.437,0.166 c0.069,0.101,0.063,0.225,0.042,0.317c0.105-0.075,0.23-0.188,0.24-0.303c0.006-0.073-0.034-0.142-0.123-0.208 c-0.016-0.013-0.023-0.032-0.018-0.052s0.021-0.034,0.041-0.038c0.237-0.034,0.443,0.069,0.642,0.173 c0.246,0.128,0.479,0.248,0.771,0.111c-0.307-0.144-0.69-0.441-0.708-0.456c-0.014-0.01-0.021-0.026-0.019-0.044 c0.001-0.017,0.012-0.032,0.027-0.04c0.015-0.008,0.303-0.153,0.728-0.079c-0.393-0.186-0.757-0.183-0.756-0.181c0,0,0,0-0.001,0 c-0.023,0-0.043-0.016-0.048-0.037c-0.006-0.022,0.004-0.046,0.025-0.057c0.02-0.011,0.337-0.177,0.653-0.207 c-0.31-0.062-0.668,0.013-0.912,0.062c-0.06,0.013-0.113,0.023-0.158,0.031c-0.003,0-0.006,0-0.008,0 c-0.022,0-0.043-0.016-0.048-0.038c-0.006-0.025,0.008-0.051,0.033-0.06c0.665-0.219,0.817-0.374,0.828-0.466 c0.007-0.061-0.046-0.129-0.166-0.212c-0.013,0.062-0.045,0.144-0.124,0.201c-0.131,0.094-0.34,0.089-0.624-0.022 c-0.489-0.192-0.873-0.132-1.212-0.079c-0.147,0.022-0.291,0.041-0.417,0.041c-0.147-0.004-0.319-0.061-0.518-0.127 c-0.37-0.123-0.831-0.275-1.264-0.096c-0.292,0.123-0.807,0.302-0.965,0.136c-0.038-0.04-0.069-0.114-0.005-0.245 c0.084-0.175,0.108-0.311,0.072-0.402c-0.022-0.056-0.068-0.097-0.138-0.123c-0.019-0.007-0.031-0.024-0.032-0.044 c-0.001-0.021,0.01-0.039,0.027-0.048c0.277-0.138,0.296-0.317,0.296-0.364l-0.066-0.092c-0.101-0.036-0.749-0.263-0.957,0.06 c-0.015,0.021-0.043,0.028-0.066,0.017c-0.185-0.104-0.365-0.033-0.455,0.017c-0.139,0.077-0.247,0.209-0.252,0.306 c-0.001,0.022-0.017,0.042-0.039,0.047c-0.177,0.041-0.294,0.121-0.339,0.23c-0.042,0.105-0.009,0.218,0.036,0.287 c0.015,0.023,0.008,0.055-0.015,0.069c-0.143,0.093-0.213,0.209-0.199,0.327c0.018,0.146,0.162,0.281,0.375,0.354 c0.013,0.004,0.024,0.014,0.029,0.026c0.113,0.25,0.262,0.411,0.441,0.479c0.211,0.081,0.398-0.003,0.399-0.004 c0.014-0.006,0.029-0.007,0.042,0.001c0.013,0.006,0.023,0.018,0.027,0.032c0.006,0.021,0.167,0.541,1.179,0.287 c0.021-0.006,0.043,0.004,0.055,0.023c0.39,0.652,1.479,0.212,1.49,0.209c0.011-0.005,0.022-0.005,0.033-0.002 c0.007,0.003,0.711,0.207,1.533,0.123C33.046,30.393,33.096,30.39,33.143,30.39z"/><path fill="#795548" d="M29.353,26.072l0.779,0.019c0,0-0.039,0.37-0.195,0.399c-0.156,0.029-0.399,0.019-0.399,0.019 S29.343,26.306,29.353,26.072z"/><path fill="#795548" d="M28.103,28.072c0,0-0.25,0.896,0.875,0.844c0.135-0.219,0.031-0.927,0.437-1.167 c-0.708,0.156-0.76,0.719-0.76,0.719S28.113,28.343,28.103,28.072z"/><path fill="#795548" d="M29.228,28.926c0,0,0.219,0.646,1.104,0.51c0.885-0.135,0.906-0.323,1.187-0.25 c-0.333-0.437-0.948-0.281-1.187-0.187C30.092,29.093,29.488,29.187,29.228,28.926z"/><path fill="#795548" d="M28.353,28.937c0,0,0.323,0.26,0.562,0.51C28.405,29.52,28.019,29.145,28.353,28.937z"/><path fill="#795548" d="M29.842,29.718c0,0,0.146,0.26,0.708,0.281c0.083,0.271,0.667,0.344,0.667,0.344l-0.125-0.323 c0,0,0.667,0.312,1.469,0.083c-0.865-0.187-1.229-0.437-1.771-0.281c0.094-0.187,0.156-0.187,0.156-0.187l-0.76-0.062 C30.186,29.572,30.321,29.718,29.842,29.718z"/><path fill="#795548" d="M31.54,29.426c0,0,0.781,0.583,2.198,0.208c-0.208-0.042-0.229-0.156-0.229-0.156 s-0.75,0.094-0.885,0.073c0.198-0.146,0.292-0.146,0.292-0.146L31.54,29.426z"/><path fill="#795548" d="M32.623,29.03c0,0,0.49,0.271,0.687,0.302s0.385,0.01,0.542-0.146 C33.581,29.197,33.175,28.812,32.623,29.03z"/><path fill="#795548" d="M32.852,30.02c0,0,0.479-0.208,0.792-0.083c0.312,0.125,0.573,0.135,0.573,0.135 s-0.437,0.167-0.792,0.073C33.071,30.051,32.852,30.02,32.852,30.02z"/><path fill="#5d4037" d="M38.067,20.056l-1.236-0.042l0.069,0.236l-0.861-0.278l0.139,0.264l-0.569-0.139l0.069-0.653 c0,0,0.514-0.194,0.75-0.639c-0.167,0.139-0.542,0.167-0.542,0.167s1.319-0.722,1.472-1.18c-0.514,0.222-0.625,0.25-0.625,0.25 s0.528-0.347,0.542-0.708c0,0,0.833-0.319,0.889-0.889c-0.792,0.361-1.597,0.847-1.597,0.847l-2.472,2.083L33.429,19.5 c0,0-0.028-0.417-0.444-0.333c-0.042-0.472-0.667,0-0.667,0s-0.056-0.083-0.278-0.069c0.528-0.389,0.444-0.431,0.389-0.694 c0.708-0.403,0.375-1.028,0.375-1.028s-0.347,0.917-1.625,1.167c-0.375,0.472-1.083,0.889-1.083,0.889l0.25,0.375 c0,0,1.375,0.111,1.43,0.805c0.056,0.694-0.389,0.889-0.903,0.708c-0.167,0.389-0.944,1.278-0.944,1.278l0.569,0.694 c0,0,1.361-0.278,2.403-0.403c0.583,0.431,1.514,0.68,1.764,0.68c-0.583,0.694-0.819,0.972-0.75,1.305 c0.444-0.431,0.347-0.306,0.347-0.306s0.125,0.5,0.375,0.68c0.069-0.333,0.139-0.458,0.139-0.458l0.139,0.222l0.389-0.556 l0.25,0.444c0,0,0.278-0.486,0.403-1.125c0.333,0.194,0.292,0.139,0.292,0.139l-0.083-0.472c0,0,0.583-0.181,0.764-0.528 c-0.181,0.042-0.625-0.042-0.625-0.042s0.417-0.333,0.528-0.625c-0.653,0.083-1.805-0.181-1.805-0.181s0.708-0.139,1.361-0.736 c0.903,0.042,1.069-0.639,1.069-0.639S38.512,20.625,38.067,20.056z"/><path fill="#263238" d="M34.637,25.3c-0.01,0-0.021-0.003-0.029-0.01c-0.209-0.15-0.333-0.5-0.376-0.645 c-0.047,0.042-0.131,0.12-0.282,0.266c-0.013,0.012-0.032,0.018-0.049,0.012c-0.018-0.005-0.031-0.02-0.034-0.038 c-0.072-0.344,0.153-0.624,0.698-1.273c-0.339-0.045-1.133-0.277-1.677-0.67c-1.025,0.124-2.365,0.397-2.379,0.399 c-0.016,0.006-0.037-0.002-0.048-0.017l-0.569-0.694c-0.016-0.019-0.015-0.046,0.001-0.064c0.008-0.009,0.774-0.888,0.936-1.265 c0.01-0.024,0.038-0.038,0.062-0.028c0.262,0.092,0.492,0.08,0.643-0.036c0.15-0.115,0.217-0.33,0.193-0.621 c-0.051-0.645-1.371-0.759-1.384-0.76c-0.015-0.001-0.029-0.009-0.038-0.022l-0.25-0.375c-0.008-0.012-0.01-0.025-0.007-0.039 c0.003-0.013,0.012-0.025,0.023-0.032c0.007-0.004,0.705-0.417,1.069-0.877c0.007-0.009,0.018-0.016,0.029-0.018 c1.233-0.242,1.584-1.126,1.588-1.135c0.008-0.019,0.03-0.032,0.047-0.032c0.019,0,0.035,0.01,0.044,0.026 c0.004,0.006,0.338,0.653-0.362,1.076c0.003,0.014,0.007,0.027,0.01,0.04c0.051,0.21,0.051,0.303-0.313,0.585 c0.067,0.01,0.111,0.031,0.139,0.05c0.102-0.072,0.395-0.254,0.575-0.176c0.068,0.03,0.112,0.092,0.131,0.183 c0.112-0.016,0.213,0.008,0.291,0.068c0.1,0.077,0.139,0.194,0.153,0.263l0.603-0.113l2.462-2.074 c0.015-0.01,0.823-0.497,1.609-0.854c0.015-0.008,0.034-0.006,0.05,0.005c0.014,0.01,0.022,0.028,0.021,0.045 c-0.053,0.538-0.737,0.854-0.892,0.918c-0.022,0.198-0.175,0.385-0.316,0.518c0.085-0.035,0.194-0.08,0.332-0.14 c0.017-0.009,0.039-0.005,0.054,0.009c0.015,0.013,0.02,0.034,0.014,0.052c-0.117,0.351-0.858,0.833-1.252,1.068 c0.09-0.023,0.182-0.058,0.242-0.108c0.019-0.015,0.045-0.016,0.064,0c0.019,0.015,0.023,0.041,0.012,0.062 c-0.212,0.4-0.632,0.601-0.748,0.65l-0.062,0.58l0.419,0.103l-0.087-0.166c-0.009-0.018-0.007-0.04,0.006-0.056 c0.012-0.016,0.035-0.023,0.053-0.015l0.771,0.249l-0.042-0.145c-0.005-0.016-0.001-0.032,0.008-0.045 c0.01-0.012,0.03-0.02,0.041-0.019l1.236,0.042c0.015,0,0.029,0.007,0.038,0.019c0.115,0.148,0.148,0.281,0.096,0.396 c-0.109,0.245-0.577,0.308-0.709,0.32c-0.05,0.139-0.28,0.644-1.028,0.644c-0.02,0-0.04,0-0.06-0.001 c-0.445,0.402-0.909,0.595-1.167,0.679c0.359,0.07,1.114,0.199,1.586,0.138c0.017,0.001,0.035,0.005,0.045,0.019 c0.011,0.014,0.014,0.032,0.008,0.048c-0.084,0.222-0.33,0.46-0.46,0.576c0.14,0.021,0.384,0.054,0.5,0.024 c0.019-0.006,0.038,0.002,0.051,0.018c0.012,0.016,0.014,0.037,0.005,0.054c-0.161,0.31-0.611,0.489-0.751,0.539l0.076,0.43 c0.003,0.017,0,0.036-0.011,0.048c-0.028,0.029-0.041,0.046-0.295-0.1c-0.13,0.605-0.383,1.052-0.395,1.072 c-0.009,0.016-0.025,0.025-0.043,0.025l0,0c-0.018,0-0.035-0.01-0.043-0.025l-0.211-0.375l-0.343,0.49 c-0.009,0.014-0.025,0.021-0.041,0.021c-0.012,0.004-0.033-0.008-0.042-0.023l-0.088-0.141c-0.025,0.069-0.062,0.186-0.099,0.36 c-0.003,0.017-0.015,0.03-0.031,0.037C34.649,25.299,34.643,25.3,34.637,25.3z M34.315,24.576 c0.023,0.083,0.122,0.408,0.291,0.581c0.064-0.276,0.124-0.386,0.126-0.391c0.009-0.015,0.025-0.025,0.042-0.025 c0.015-0.001,0.034,0.009,0.044,0.023l0.099,0.158l0.346-0.494c0.01-0.014,0.026-0.018,0.043-0.021 c0.017,0,0.033,0.01,0.041,0.025l0.205,0.364c0.082-0.162,0.262-0.555,0.355-1.03c0.003-0.016,0.014-0.029,0.028-0.036 c0.014-0.006,0.031-0.006,0.046,0.002c0.1,0.058,0.164,0.092,0.204,0.112l-0.07-0.394c-0.004-0.025,0.01-0.049,0.035-0.057 c0.005-0.001,0.469-0.148,0.68-0.419c-0.215,0.006-0.521-0.051-0.536-0.053c-0.019-0.004-0.035-0.018-0.039-0.037 c-0.005-0.019,0.002-0.039,0.017-0.051c0.004-0.003,0.337-0.271,0.477-0.527c-0.662,0.051-1.688-0.18-1.734-0.19 c-0.023-0.005-0.039-0.026-0.039-0.05c0-0.023,0.017-0.043,0.04-0.048c0.007-0.001,0.703-0.145,1.337-0.725 c0.01-0.009,0.026-0.011,0.036-0.013c0.026,0.001,0.052,0.001,0.077,0.001c0.782,0,0.935-0.577,0.941-0.603 c0.005-0.021,0.023-0.036,0.045-0.038c0.155-0.01,0.575-0.078,0.659-0.265c0.033-0.074,0.01-0.167-0.07-0.275l-1.143-0.039 l0.05,0.169c0.005,0.018,0,0.037-0.013,0.05c-0.014,0.014-0.034,0.019-0.05,0.012l-0.745-0.24l0.082,0.156 c0.009,0.018,0.007,0.039-0.005,0.054c-0.012,0.015-0.032,0.021-0.051,0.018l-0.569-0.139c-0.024-0.006-0.041-0.029-0.038-0.054 l0.069-0.653c0.002-0.019,0.015-0.035,0.032-0.042c0.004-0.001,0.375-0.145,0.62-0.457c-0.177,0.064-0.378,0.08-0.39,0.081 c-0.001,0-0.003,0-0.004,0c-0.022,0-0.042-0.014-0.048-0.036c-0.007-0.022,0.003-0.047,0.024-0.058 c0.012-0.006,1.093-0.602,1.388-1.036c-0.404,0.172-0.5,0.197-0.505,0.198c-0.023,0.005-0.048-0.006-0.058-0.028 c-0.01-0.022-0.002-0.048,0.019-0.062c0.005-0.003,0.506-0.337,0.519-0.668c0-0.02,0.013-0.038,0.032-0.045 c0.008-0.003,0.715-0.28,0.841-0.756c-0.752,0.351-1.498,0.8-1.505,0.805l-2.466,2.078c-0.007,0.006-0.015,0.009-0.023,0.011 l-0.667,0.125c-0.012,0.003-0.028,0-0.04-0.01c-0.011-0.009-0.018-0.022-0.019-0.036c0-0.001-0.013-0.163-0.123-0.246 c-0.064-0.049-0.151-0.062-0.262-0.042c-0.013,0.005-0.028,0-0.04-0.009s-0.019-0.021-0.02-0.036 c-0.007-0.083-0.033-0.132-0.079-0.153c-0.13-0.058-0.411,0.116-0.507,0.188c-0.011,0.008-0.025,0.013-0.039,0.009 c-0.014-0.002-0.026-0.01-0.033-0.021l0,0c0,0-0.045-0.057-0.233-0.048c-0.021-0.003-0.042-0.012-0.05-0.033s0-0.044,0.017-0.057 c0.445-0.328,0.432-0.383,0.388-0.565c-0.006-0.024-0.012-0.05-0.018-0.079c-0.004-0.021,0.005-0.043,0.024-0.054 c0.498-0.283,0.453-0.675,0.396-0.858c-0.135,0.254-0.564,0.879-1.593,1.086c-0.328,0.404-0.878,0.759-1.04,0.859l0.208,0.312 c0.194,0.019,1.397,0.165,1.452,0.85c0.033,0.412-0.108,0.612-0.232,0.708c-0.169,0.132-0.415,0.155-0.693,0.066 c-0.18,0.368-0.769,1.058-0.906,1.217l0.523,0.638c0.205-0.041,1.43-0.284,2.377-0.397c0.013-0.001,0.025,0.002,0.036,0.01 c0.565,0.417,1.482,0.671,1.734,0.671c0.02,0,0.037,0.011,0.045,0.029s0.005,0.038-0.007,0.053l-0.015,0.018 c-0.499,0.594-0.736,0.876-0.735,1.148c0.305-0.294,0.311-0.288,0.351-0.252C34.313,24.523,34.33,24.543,34.315,24.576z"/><g><polygon fill="#fff" points="31.207,22.416 30.644,22.875 31.29,23.229 30.207,23.562 29.498,24.229 27.999,24.291 28.061,23.687 29.603,21.896 29.665,22.291 30.04,21.875 30.103,22.25 30.561,22.125 30.457,22.396"/><path fill="#263238" d="M27.999,24.341c-0.014,0-0.027-0.005-0.037-0.016c-0.01-0.011-0.015-0.025-0.013-0.04l0.062-0.604 c0.001-0.01,0.005-0.02,0.012-0.027l1.542-1.792c0.013-0.015,0.034-0.021,0.052-0.015c0.019,0.005,0.033,0.021,0.036,0.04 l0.046,0.292l0.305-0.339c0.013-0.014,0.031-0.021,0.051-0.014c0.018,0.005,0.032,0.021,0.035,0.04l0.053,0.32l0.405-0.11 c0.019-0.005,0.038,0.001,0.05,0.015c0.013,0.014,0.016,0.034,0.01,0.052l-0.079,0.205l0.679,0.019 c0.021,0,0.039,0.014,0.046,0.034c0.007,0.02,0,0.042-0.016,0.055l-0.505,0.412l0.581,0.318c0.018,0.01,0.028,0.029,0.026,0.049 s-0.016,0.037-0.035,0.043l-1.072,0.33l-0.7,0.659c-0.009,0.008-0.02,0.013-0.032,0.013L28,24.341 C28,24.341,27.999,24.341,27.999,24.341z M28.109,23.708l-0.055,0.532l1.424-0.06l0.694-0.654c0.005-0.005,0.012-0.009,0.02-0.011 l0.97-0.298l-0.542-0.297c-0.015-0.008-0.024-0.023-0.026-0.04s0.005-0.033,0.018-0.043l0.458-0.374l-0.616-0.018 c-0.016,0-0.031-0.009-0.04-0.022c-0.009-0.014-0.011-0.031-0.005-0.046l0.069-0.178l-0.363,0.099 c-0.014,0.004-0.028,0.002-0.04-0.006c-0.012-0.007-0.02-0.02-0.022-0.034l-0.045-0.273l-0.306,0.34 c-0.013,0.013-0.036,0.019-0.051,0.014c-0.019-0.005-0.032-0.021-0.035-0.04l-0.046-0.29L28.109,23.708z"/></g><g><path fill="#263238" d="M28.341,24.01c-0.012,0-0.024-0.004-0.033-0.013c-0.021-0.019-0.022-0.05-0.004-0.07l0.729-0.812 c0.017-0.021,0.049-0.024,0.07-0.004c0.021,0.019,0.022,0.05,0.004,0.07l-0.729,0.812C28.369,24.005,28.355,24.01,28.341,24.01z"/></g><g><path fill="#263238" d="M28.426,23.912c-0.021,0-0.039-0.013-0.046-0.032c-0.008-0.019-0.002-0.041,0.013-0.055 l0.385-0.354c0.018-0.017,0.046-0.019,0.065-0.002c0.079,0.065,0.192,0.206,0.113,0.317C28.875,23.903,28.53,23.912,28.426,23.912 z M28.811,23.577l-0.251,0.23c0.148-0.011,0.287-0.038,0.314-0.078C28.903,23.688,28.851,23.619,28.811,23.577z"/></g><g><polygon fill="#ffca28" points="29.336,23.961 27.982,24.127 27.764,24.534 27.774,24.856 28.461,24.95 28.243,24.669 28.878,24.409 28.743,24.617 28.461,24.867 29.211,24.513"/><path fill="#263238" d="M28.461,25c-0.002,0-0.004,0-0.007,0l-0.688-0.094c-0.024-0.003-0.042-0.023-0.043-0.048 l-0.01-0.323c0-0.009,0.001-0.018,0.006-0.025l0.219-0.406c0.008-0.014,0.022-0.024,0.038-0.026l1.354-0.167 c0.016,0.002,0.032,0.004,0.043,0.016c0.011,0.012,0.015,0.029,0.012,0.045l-0.125,0.552c-0.003,0.015-0.014,0.027-0.027,0.034 l-0.741,0.35l0.009,0.012c0.012,0.016,0.014,0.038,0.004,0.056C28.496,24.991,28.479,25,28.461,25z M27.823,24.812l0.524,0.072 L28.203,24.7c-0.009-0.012-0.013-0.028-0.009-0.043s0.015-0.028,0.029-0.034l0.635-0.26c0.022-0.007,0.044-0.002,0.058,0.015 s0.015,0.041,0.003,0.059l-0.135,0.208c-0.002,0.003-0.005,0.007-0.009,0.01l-0.021,0.019l0.414-0.195l0.104-0.459l-1.258,0.155 l-0.2,0.372L27.823,24.812z M28.323,24.69l0.107,0.138l0.275-0.244l0.044-0.068L28.323,24.69z"/></g><g><path fill="#263238" d="M38.603,20.092c-0.021,0-0.041-0.013-0.047-0.034c-0.009-0.026,0.005-0.055,0.032-0.063 l1.823-0.598c0.026-0.008,0.055,0.005,0.063,0.032c0.009,0.026-0.005,0.055-0.032,0.063l-1.823,0.598 C38.613,20.091,38.608,20.092,38.603,20.092z"/></g><g><path fill="#263238" d="M38.932,19.494c-0.02,0-0.039-0.012-0.047-0.032c-0.01-0.026,0.003-0.055,0.029-0.064l0.867-0.329 c0.027-0.007,0.055,0.003,0.064,0.029s-0.003,0.055-0.029,0.064l-0.867,0.329C38.943,19.493,38.938,19.494,38.932,19.494z"/></g><g><path fill="#263238" d="M37.946,19.524c-0.019,0-0.037-0.011-0.045-0.029c-0.012-0.025,0-0.055,0.025-0.066l0.657-0.299 c0.023-0.013,0.054,0,0.066,0.025c0.012,0.025,0,0.055-0.025,0.066l-0.657,0.299C37.96,19.522,37.953,19.524,37.946,19.524z"/></g><g><path fill="#263238" d="M34.748,24.424c-0.01,0-0.019-0.002-0.028-0.008c-0.023-0.015-0.029-0.046-0.014-0.069l0.796-1.193 l-0.645-0.134c-0.012-0.002-0.023-0.01-0.03-0.02l-0.292-0.408l-0.825-0.383c-0.009-0.004-0.016-0.011-0.021-0.019l-0.398-0.626 l-1.548,0.438c-0.025,0.007-0.054-0.008-0.062-0.035c-0.007-0.027,0.008-0.054,0.035-0.062l1.584-0.448 c0.021-0.004,0.043,0.003,0.056,0.021l0.41,0.646l0.824,0.382c0.008,0.004,0.015,0.009,0.02,0.016l0.288,0.403l0.698,0.146 c0.016,0.003,0.03,0.015,0.036,0.03c0.006,0.016,0.004,0.033-0.005,0.047l-0.837,1.255C34.78,24.417,34.764,24.424,34.748,24.424z"/></g><g><path fill="#263238" d="M34.659,21.526c-0.007,0-0.014-0.001-0.02-0.004l-1.823-0.807 c-0.016-0.007-0.026-0.021-0.029-0.038l-0.144-0.862l-1.729-0.322c-0.018-0.003-0.033-0.017-0.038-0.034 c-0.006-0.018-0.001-0.037,0.011-0.05l0.717-0.747c0.019-0.02,0.051-0.021,0.071-0.001c0.02,0.019,0.021,0.051,0.001,0.071 l-0.653,0.68l1.672,0.312c0.021,0.004,0.037,0.021,0.04,0.041l0.145,0.87l1.798,0.795c0.025,0.011,0.037,0.041,0.026,0.066 C34.696,21.515,34.678,21.526,34.659,21.526z"/></g><g><path fill="#263238" d="M33.762,20.331c-0.015,0-0.029-0.006-0.039-0.019c-0.017-0.022-0.014-0.053,0.008-0.07l1.853-1.464 c0.022-0.018,0.053-0.013,0.07,0.008c0.017,0.022,0.014,0.053-0.008,0.07l-1.853,1.464C33.784,20.327,33.773,20.331,33.762,20.331 z"/></g><g><path fill="#263238" d="M34.479,20.391c-0.015,0-0.03-0.006-0.04-0.02c-0.017-0.021-0.013-0.053,0.009-0.07l0.777-0.598 c0.021-0.018,0.053-0.014,0.07,0.009c0.017,0.021,0.013,0.053-0.009,0.07l-0.777,0.598C34.5,20.387,34.49,20.391,34.479,20.391z"/></g><g><path fill="#263238" d="M34.838,20.898c-0.017,0-0.034-0.009-0.043-0.025c-0.014-0.024-0.005-0.054,0.019-0.068 l0.568-0.329c0.023-0.013,0.054-0.006,0.068,0.019c0.014,0.024,0.005,0.054-0.019,0.068l-0.568,0.329 C34.855,20.896,34.846,20.898,34.838,20.898z"/></g></svg>