<svg xmlns="http://www.w3.org/2000/svg"  viewBox="0 0 48 48" width="30px" height="30px"><path fill="#ff1744" d="M44,24c0-0.507-0.039-1.005-0.076-1.503L9.146,10.641C5.957,14.184,4,18.858,4,24 s1.957,9.816,5.146,13.359l34.778-11.856C43.961,25.005,44,24.507,44,24z"/><path fill="#1e88e5" d="M43.924,25.503L9.146,37.359C12.807,41.427,18.097,44,24,44C34.538,44,43.153,35.844,43.924,25.503z"/><path fill="#4caf50" d="M24,4c-5.903,0-11.193,2.573-14.854,6.641l34.778,11.856C43.153,12.156,34.538,4,24,4z"/><path fill="#ffeb3b" d="M14.242,30.902c-0.602,0.172-0.949,0.648-0.941,1.098l2.965-0.012	c0.027-0.484-0.363-0.93-0.957-1.105c2.902-0.063,5.426-1.172,5.883-1.883c-0.453-0.199-0.977,0.121-1.352,0.047	c0.887-0.418,3.547-2.172,3.113-4.055c-0.336,1.047-1.355,1.91-1.789,2.145c0.996-1.539,2.352-3.141,1.176-4.383	c0.059,0.719-0.449,1.512-0.676,1.57c0.578-1.625,1.129-3.668-0.121-5.012c0.164,0.488,0.098,1.859-0.129,1.918	c-0.066-1.102-0.254-3.43-1.395-3.395c0.363,0.328,0.523,1.227,0.531,2.133c-0.262-0.621-0.555-1.09-1.188-1.547	c-0.512-1-1.422-1.828-2.332-2.426c0.102,0.73,0.188,1.305,1.184,2.059c-0.52-0.031-1.039-1.035-1.594-1.066	c-0.441-0.02-0.789,0.41-1.512,0.164c0.082,0.242,0.418,0.352,0.488,0.527c-0.152,0.109-0.52-0.016-0.824-0.176	c0.418,0.582,1.07,0.926,1.621,0.809c0.656-0.129,1.359-0.063,2.031,0.328c-0.172,0.09-0.84,0.09-1.266,0.035	c0.387,0.402,0.648,0.668,1.324,0.664c0.605-0.004,0.922-0.328,1.078-0.129c0.379,0.461,0.633,0.918,0.953,1.457	c-0.703,0.078-0.488-0.809-1.27-1.262c-0.438,0.926,0.504,2.023,1.145,2.48c0.008,0.695,0.109,1.277,0.398,1.809	c0.195,0.371,0.445,0.754,0.352,1.598c-0.383-0.285-0.758-1.246-0.621-2.012c-0.48,0.133-0.668,0.996-0.441,1.43	c0.168,0.332,0.281,0.965,0.086,1.246c-0.191,0.266-0.211,0.234-0.207,0.801c0.008,0.336-0.18,0.738-0.48,1.016	c0.063-0.238,0.133-0.648,0.063-0.902c-0.238,0.41-0.836,0.84-1.023,1.281c-0.188,0.445-0.234,1.219-1.129,1.395	c-1.152,0.234-1.551,0.438-2.289,0.746c-0.082-0.574,0.164-1.773,0.633-1.703c0.461,0.082,1.855-0.488,1.355-1.688	c-0.098,0.379-0.426,0.746-0.781,0.762c0.383-0.508,1.066-1.035,0.734-1.887c-0.184,0.363-0.477,0.797-0.918,1.043	c0.473-0.93,0.055-1.207-0.508-0.441c-0.215,0.293-0.344,0.883-0.477,1.633c-0.223-0.609-0.207-1.41-0.469-2.063	c-0.273-0.707,0.363-0.891,0.66-0.836c0.734,0.199,1.961,0.199,1.871-1.035c-0.316,0.418-0.875,0.547-1.473,0.395	c0.672-0.5,1.207-1.445,0.453-1.938c-0.023,0.523-0.422,1.109-0.949,1.379c-0.125-0.441-0.125-0.91-0.02-1.422	c-0.297,0.316-0.512,0.977-0.684,1.73c-0.012-0.746,0.125-1.281,0.227-1.68c0.156-0.582,0.539-0.203,1.129-0.16	c0.566,0.031,1.348-0.285,1.199-1.07c-0.195,0.309-0.59,0.43-0.996,0.398c0.488-0.305,1.34-0.84,0.875-1.668	c-0.199,0.313-0.262,0.582-0.828,0.68c0.148-0.352,0.172-0.844,0.613-1.039c-0.789-0.16-1.238,0.367-1.469,1.191	c-0.09-0.574-0.203-0.781-0.223-1.203c0.426-0.48,0.469-1.422-0.453-1.633c-0.055,0.484-0.035,0.602,0.066,0.996	c-0.43-0.262-1.039-0.406-1.445-0.035c0.273,0.301,0.699,0.57,1.355,0.238c-0.156,0.52-0.559,0.43-1.113,0.23	c0.34,0.648,0.766,0.766,1.238,0.691c0.246,0.66,0.258,1.164-0.465,2.133c0.035-0.602-0.008-1.051-0.477-1.535	c-0.398-0.398-0.727,0.02-0.098,0.906c-0.383-0.281-0.813-0.863-0.941-1.441c-0.125,0.715-0.012,1.559,0.379,2.031	c-0.188,0.199-0.395-0.023-0.703-0.512c0.117,1.566,0.773,1.867,1.652,1.52c0.027,0.859,0.027,1.656,0.078,2.695	c-0.516-0.754-1.168-1.316-1.531-1.457c-0.113,0.422,0.313,0.973,0.551,1.277C12.789,25.703,12,25.09,12,25.09	c-0.078,0.699,0.805,1.348,1.379,1.637c-0.676-0.031-0.969-0.289-1.406-0.715c0.008,1.938,2.059,1.602,2.441,1.301	c0.051,0.957,0.121,2.059,0.176,3.012c-0.582-0.102-0.535-0.281-1.031-0.328c-1.375-0.055-2.469-1.684-2.828-2.883	c-0.105,0.195-0.023,0.402-0.117,0.645c-0.223-0.586-0.508-1.348-0.891-1.703c0.098,0.344,0.105,0.691,0.074,1.336	c-0.133-0.418-0.254-0.543-0.262-1.031c0.008-0.375,0.352-0.652,0.332-1.18c-0.012-0.383-0.355-1.219-0.406-1.863	c-0.168,0.664-0.273,1.363-0.527,1.777c0.129-0.711,0.086-1.199,0.301-1.68c0.246-0.5,0.457-0.949,0.293-1.457	c-0.16,0.195-0.105,0.375-0.5,0.852c-0.086-0.52,0.512-1.348,1.094-1.68c0.41-0.223,0.93-1.012,0.594-1.551	c-0.387,0.281-0.563,0.664-1.105,1.316c0.387-1.551,1.398-1.957,2.609-1.961c0.266,0,0.809-0.102,0.957-0.461	c-0.34,0.133-0.742,0.148-1.102,0.078c0.262-0.391,0.813-0.34,1.324-0.344c0.402-0.004,1.031-0.059,1.285-0.641	c-0.492,0.215-1.258,0.262-1.738,0.105c0.766-0.402,1.965-0.445,2.582-0.98c-0.703-0.531-2.457,0.125-3.566,0.902	c0.309-0.289,0.801-0.805,1.07-1.215c-0.605-0.301-2.141,1.434-2.668,2.465c-0.504,0.289-0.703,0.742-0.898,1.059	c0.27-0.922,0.297-1.59,0.52-2.352c-1.719,0.605-1.004,3.848-1.379,4.625c0.043-0.859,0.008-1.957-0.336-2.527	c-0.531,0.414-0.574,2.84-0.074,4.859c-0.18-0.539-0.52-1.043-0.629-1.703c-0.785,1.461,0.461,3.18,1.5,4.539	C8.281,26.93,7.508,26.035,7,25.285c0.141,2.613,2.812,3.152,3.227,3.797c-0.563-0.27-1.637-0.797-2.094-0.242	c0.742,0.176,1.336,0.379,1.813,0.695C10.641,30.422,11.953,30.809,14.242,30.902z"/></svg>