<svg xmlns="http://www.w3.org/2000/svg"  viewBox="0 0 48 48" width="50px" height="50px"><path fill="#283593" d="M44,24c0,11.046-8.954,20-20,20S4,35.046,4,24c0-2.216,0.36-4.348,1.026-6.341 C6.311,13.812,14.489,11,14.489,11s0.04-4.693,1.507-5.334C18.447,4.594,21.154,4,24,4C35.046,4,44,12.954,44,24z"/><path fill="#fff" d="M16,8.594V5.675c-1.432,0.626-2.767,1.424-4,2.352V8.31l-0.206-0.128 c-3.105,2.399-5.483,5.683-6.753,9.483L12,13.32V18h4v-4.965L23.949,18H25v-2.609L21.171,13H25V9h-4.421L25,6.238V4.05 C24.667,4.034,24.338,4,24,4c-0.235,0-0.464,0.027-0.697,0.035L16,8.594z"/><path fill="#e53935" d="M13,12v6h2v-6h10v-2H15V6.157c-0.689,0.348-1.36,0.725-2,1.148V10H9.729 c-0.613,0.625-1.174,1.299-1.701,2H13z"/><path fill="#e53935" d="M11.641,13H9.898l-3.972,2.479c-0.229,0.484-0.437,0.977-0.627,1.481L11.641,13z"/><path fill="#e53935" d="M24.213,4.011L16.223,9h1.746L25,4.609V4.05C24.738,4.037,24.478,4.014,24.213,4.011z"/><polygon fill="#e53935" points="25,15.934 20.301,13 18.559,13 25,17.02"/><path fill="#fff" d="M27.596,23.824c0,0,1.452-1.356,3.383-1.293c1.931,0.064,3,0.495,3.479,1.356 C31.234,23.968,27.596,23.824,27.596,23.824z"/><circle cx="26.209" cy="31.739" r="1.092" fill="#e53935"/><path fill="#fdd835" d="M23.223,34.984l-0.783-2.349l0.788-0.301c0.15,0.391,0.464,0.698,0.884,0.864 c0.451,0.178,0.966,0.175,1.448-0.01c0.965-0.369,1.487-1.353,1.166-2.193l1.864-0.714c0.715,1.868-0.324,4.008-2.317,4.771 c-0.476,0.183-0.971,0.273-1.463,0.273c-0.489,0-0.975-0.09-1.432-0.27C23.325,35.033,23.275,35.007,23.223,34.984z"/><ellipse cx="35.175" cy="31.739" fill="#e53935" rx="1.045" ry="1.092"/><path fill="#fdd835" d="M38.127,34.984l0.783-2.349l-0.788-0.301c-0.15,0.391-0.464,0.698-0.884,0.864 c-0.451,0.178-0.966,0.175-1.448-0.01c-0.965-0.369-1.488-1.353-1.166-2.193l-1.864-0.714c-0.715,1.868,0.324,4.008,2.317,4.771 c0.476,0.183,0.971,0.273,1.463,0.273c0.489,0,0.975-0.09,1.432-0.27C38.025,35.033,38.075,35.007,38.127,34.984z"/><path fill="#fff" d="M26.992,24.447v6.885c0,0.702,0.599,0.978,1.246,1.246l2.547,0.978l2.437-0.978 c0.654-0.221,1.246-0.599,1.246-1.246v-6.885H26.992"/><path fill="#3949ab" d="M34.531,29.472c0,0-0.757-0.557-1.9-0.557c-1.088,0-1.246,0.557-1.9,0.557 c-0.757,0-0.757-0.557-1.9-0.557c-1.143,0-1.9,0.557-1.9,0.557v-1.115c0,0,0.757-0.557,1.9-0.557s1.136,0.557,1.9,0.557 c0.654,0,0.757-0.557,1.9-0.557c1.088,0,1.9,0.557,1.9,0.557V29.472"/><path fill="#e53935" d="M26.992,23.793v3.668c0,0,0.757-0.67,1.9-0.67c1.136,0,1.136,0.526,1.9,0.526 c0.654,0,0.757-0.526,1.9-0.526c1.088,0,1.9,0.67,1.9,0.67v-3.668H26.992"/><path fill="#3949ab" d="M34.531,31.42c0,0-0.757-0.501-1.9-0.501c-1.088,0-1.246,0.501-1.9,0.501 c-0.757,0-0.757-0.501-1.9-0.501c-1.143,0-1.9,0.501-1.9,0.501v-1.058c0,0,0.757-0.501,1.9-0.501s1.136,0.501,1.9,0.501 c0.654,0,0.757-0.501,1.9-0.501c1.088,0,1.9,0.501,1.9,0.501V31.42"/><path fill="#3949ab" d="M28.893,31.817c-0.544,0-0.978,0.33-1.301,0.493c0.165,0.113,0.434,0.226,0.702,0.332l2.547,1.002 l2.492-1.002c0.22-0.113,0.265-0.169,0.478-0.332c-0.379-0.169-0.533-0.493-1.077-0.493c-1.088,0-1.246,0.671-1.9,0.671 c-0.861-0.007-0.861-0.648-1.942-0.648"/><path fill="#43a047" d="M29.974,32.03c-0.021,0-0.04-0.006-0.058-0.018c-0.036-0.026-0.052-0.072-0.037-0.114l0.308-0.908 l-0.76-0.555c-0.035-0.025-0.05-0.071-0.036-0.112c0.013-0.041,0.052-0.068,0.095-0.068h0.903l0.254-0.852 c0.013-0.042,0.05-0.07,0.094-0.071c0,0,0.001,0,0.002,0c0.042,0,0.08,0.026,0.095,0.066l0.3,0.856h0.851 c0.043,0,0.08,0.026,0.095,0.066c0.014,0.041,0.001,0.085-0.032,0.111l-0.705,0.558l0.251,0.914 c0.011,0.042-0.006,0.086-0.041,0.109c-0.018,0.012-0.036,0.017-0.056,0.017c-0.022,0-0.044-0.007-0.062-0.021l-0.694-0.55 l-0.703,0.551C30.018,32.023,29.995,32.03,29.974,32.03z"/><path fill="#fdd835" d="M30.738,29.431l0.323,0.923h0.923l-0.757,0.599l0.268,0.978l-0.757-0.599l-0.764,0.599 l0.331-0.978l-0.819-0.599h0.978L30.738,29.431 M30.738,29.231c-0.002,0-0.003,0-0.005,0c-0.087,0.002-0.162,0.06-0.187,0.143 l-0.233,0.78h-0.829c-0.087,0-0.163,0.056-0.19,0.138s0.002,0.172,0.072,0.224l0.701,0.512l-0.284,0.839 c-0.028,0.084,0.002,0.176,0.074,0.227c0.035,0.025,0.075,0.037,0.116,0.037c0.044,0,0.087-0.014,0.123-0.043l0.64-0.502 l0.633,0.501c0.036,0.029,0.08,0.043,0.124,0.043c0.038,0,0.077-0.011,0.11-0.033c0.072-0.048,0.105-0.136,0.083-0.22 l-0.233-0.85l0.654-0.517c0.067-0.053,0.093-0.142,0.065-0.223s-0.104-0.134-0.189-0.134h-0.781l-0.276-0.789 C30.898,29.285,30.823,29.231,30.738,29.231L30.738,29.231z"/><path fill="#43a047" d="M28.136,29.531c-0.02,0-0.039-0.005-0.056-0.017c-0.036-0.024-0.053-0.069-0.04-0.111l0.25-0.86 l-0.708-0.604c-0.032-0.027-0.044-0.071-0.029-0.11c0.015-0.04,0.052-0.065,0.094-0.065h0.852l0.3-0.856 c0.015-0.04,0.053-0.066,0.095-0.066c0.001,0,0.002,0,0.003,0c0.043,0.001,0.081,0.03,0.093,0.071l0.248,0.852h0.848 c0.042,0,0.079,0.025,0.094,0.065c0.015,0.039,0.003,0.083-0.029,0.11l-0.705,0.602l0.302,0.858c0.015,0.042,0,0.089-0.036,0.114 c-0.018,0.013-0.038,0.019-0.059,0.019c-0.021,0-0.044-0.007-0.062-0.021l-0.696-0.544l-0.695,0.544 C28.18,29.524,28.157,29.531,28.136,29.531z"/><path fill="#fdd835" d="M28.893,26.939l0.268,0.923h0.923l-0.757,0.647l0.324,0.922l-0.757-0.592l-0.757,0.592 l0.268-0.922l-0.757-0.647h0.923L28.893,26.939 M28.893,26.739c-0.085,0-0.161,0.054-0.189,0.134l-0.276,0.789h-0.781 c-0.084,0-0.159,0.052-0.188,0.131c-0.029,0.079-0.006,0.167,0.058,0.221l0.659,0.563l-0.232,0.798 c-0.024,0.083,0.008,0.173,0.08,0.222c0.034,0.023,0.073,0.034,0.112,0.034c0.044,0,0.087-0.014,0.123-0.042l0.634-0.496 l0.634,0.496c0.036,0.028,0.08,0.042,0.123,0.042c0.041,0,0.082-0.012,0.117-0.038c0.072-0.052,0.101-0.145,0.072-0.229 l-0.278-0.793l0.653-0.558c0.064-0.054,0.087-0.143,0.058-0.221s-0.104-0.131-0.188-0.131h-0.773l-0.227-0.779 c-0.024-0.083-0.1-0.142-0.187-0.144C28.896,26.739,28.894,26.739,28.893,26.739L28.893,26.739z"/><path fill="#43a047" d="M33.395,29.531c-0.021,0-0.043-0.007-0.062-0.021l-0.702-0.544l-0.695,0.544 c-0.018,0.014-0.04,0.021-0.062,0.021c-0.02,0-0.039-0.005-0.056-0.017c-0.036-0.024-0.053-0.069-0.04-0.111l0.249-0.86 l-0.708-0.604c-0.031-0.027-0.043-0.071-0.028-0.11c0.015-0.04,0.052-0.065,0.094-0.065h0.902l0.248-0.852 c0.012-0.042,0.051-0.071,0.096-0.071l0,0c0.044,0,0.083,0.028,0.096,0.071l0.254,0.852h0.896c0.042,0,0.079,0.025,0.094,0.065 c0.015,0.039,0.003,0.083-0.028,0.11l-0.708,0.604l0.256,0.86c0.013,0.041-0.003,0.086-0.039,0.11 C33.434,29.525,33.414,29.531,33.395,29.531z"/><path fill="#fdd835" d="M32.631,26.939l0.275,0.923h0.971l-0.757,0.647l0.275,0.922l-0.764-0.592l-0.757,0.592 l0.268-0.922l-0.757-0.647h0.978L32.631,26.939 M32.631,26.739C32.631,26.739,32.631,26.739,32.631,26.739 c-0.089,0-0.167,0.059-0.192,0.144l-0.227,0.779h-0.827c-0.084,0-0.159,0.052-0.188,0.131c-0.029,0.079-0.006,0.167,0.058,0.221 l0.659,0.563l-0.232,0.798c-0.024,0.083,0.008,0.173,0.08,0.221c0.034,0.023,0.073,0.034,0.112,0.034 c0.044,0,0.087-0.014,0.123-0.042l0.635-0.496l0.641,0.497c0.036,0.028,0.079,0.042,0.122,0.042c0.039,0,0.079-0.012,0.113-0.035 c0.072-0.049,0.103-0.139,0.079-0.222l-0.238-0.798l0.658-0.563c0.064-0.054,0.087-0.143,0.058-0.221 c-0.029-0.079-0.104-0.131-0.188-0.131h-0.822l-0.233-0.78C32.797,26.797,32.719,26.739,32.631,26.739L32.631,26.739z"/><path fill="#fdd835" d="M33.39,26.452l-0.098-0.055c-0.026-0.125,0.021-0.162,0.066-0.199l-0.086,0.048 c-0.102-0.093-0.084-0.147-0.035-0.195c-0.078-0.067-0.023-0.125,0.035-0.125c0.051,0,0.098,0.01,0.152,0.021 c0.073,0.016,0.157,0.033,0.281,0.033c0.061-0.119,0.061-0.244-0.232-0.244c-0.056,0-0.121,0.004-0.195,0.014 c-0.134,0.027-0.285,0.041-0.423,0.041c-0.145,0-0.271-0.016-0.355-0.043c0.065,0.111,0.067,0.146,0.106,0.186 c0.065,0.066,0.073,0.216,0.007,0.282c-0.072,0.072-0.198,0.105-0.397,0.105c-0.116,0-0.24-0.011-0.35-0.021 c-0.083-0.008-0.156-0.015-0.211-0.015c-0.047,0-0.146,0-0.185,0.041c-0.094,0.065-0.163,0.078-0.206,0.078 c-0.097,0-0.148-0.059-0.148-0.113c0-0.002,0-0.004,0-0.005l-0.037,0.009c-0.039,0-0.092-0.018-0.119-0.099l-0.007-0.022 l0.004-0.094c0.008-0.014,0.02-0.024,0.032-0.032l0.028-0.11c0.04-0.043,0.074-0.058,0.113-0.058c0.046,0,0.09,0.021,0.146,0.046 c0.086,0.04,0.202,0.095,0.385,0.095c0.036,0,0.079,0.006,0.123,0.013c0.04,0.006,0.08,0.012,0.115,0.012 c0.087-0.024,0.067-0.046-0.048-0.084l-0.114-0.024c-0.118-0.021-0.168-0.038-0.339-0.209c-0.292,0.213-0.985,0.235-1.267,0.235 c-0.301,0.277-0.678,0.437-1.028,0.437c-0.042,0-0.084-0.002-0.125-0.007c-0.305-0.035-0.566-0.187-0.707-0.268 c-0.04-0.022-0.086-0.049-0.099-0.052h-0.034l-0.082-0.075c-0.005-0.012-0.008-0.024-0.008-0.036 c-0.046-0.006-0.087-0.035-0.103-0.074l-0.013-0.031l0.043-0.09l0.02-0.001l-0.05-0.043c-0.017-0.041-0.006-0.085,0.03-0.121 c0.065-0.023,0.109-0.028,0.15-0.028c0.144,0,0.277,0.063,0.408,0.194c0.102,0.15,0.413,0.15,0.619,0.15 c0.054,0,0.198,0,0.226-0.021c-0.592-0.227-0.986-0.559-1.223-0.758c-0.087-0.073-0.177-0.148-0.203-0.153h-0.033l-0.085-0.075 c-0.017-0.041-0.006-0.085,0.03-0.12l0.015-0.015l0.069-0.027l-0.059-0.059c-0.017-0.041-0.006-0.085,0.03-0.12l0.015-0.015 l0.058-0.02c-0.056-0.058-0.061-0.093-0.047-0.127l0.013-0.03l0.107-0.044c0.082,0,0.206,0.073,0.266,0.192 c0.053,0.25,0.432,0.78,0.77,0.882c-0.1-0.076-0.266-0.352-0.266-0.535c-0.007,0.007-0.013,0.011-0.02,0.011 c-0.041,0-0.091-0.113-0.091-0.176l-0.01-0.104c0.049-0.017,0.086-0.023,0.119-0.023c0.041,0,0.076,0.011,0.121,0.025 c-0.005-0.034,0.103-0.112,0.308-0.112c0.147,0,0.282,0.047,0.359,0.125c0.026-0.067,0.08-0.092,0.12-0.092 c0.087,0.063,0.085,0.112,0.057,0.197c0.002,0.061-0.063,0.127-0.122,0.185l0.015,0.075c0.092,0.147,0.473,0.272,0.897,0.272 c0.226,0,0.454-0.034,0.662-0.1c0.244-0.062,0.483-0.094,0.712-0.094c0.146,0,0.28,0.013,0.4,0.038 c0.349-0.001,0.802-0.094,0.841-0.157l0,0c-0.006,0-0.05-0.049-0.336-0.049c-0.129,0-0.283,0.01-0.454,0.029 c-0.327,0.066-0.643,0.103-0.908,0.103c-0.684,0-0.827-0.229-0.827-0.421c0-0.306,0.302-0.488,0.807-0.488 c0.168,0,0.337,0.023,0.451,0.062c0.125,0.024,0.311,0.038,0.477,0.038c0.136,0,0.251-0.009,0.316-0.024 c-0.002,0.001-0.003,0.002-0.004,0.003l0.015,0.046l0.031-0.063l0.016,0.048l-0.035,0.064l-0.026-0.095 c-0.245,0.183-0.465,0.224-0.664,0.224c-0.114,0-0.217-0.014-0.317-0.034c-0.062-0.013-0.146-0.02-0.239-0.02 c-0.342,0-0.568,0.082-0.568,0.136c0.005,0.03,0.188,0.117,0.706,0.117c0.226,0,0.474-0.018,0.702-0.056 c0.188-0.06,0.371-0.09,0.538-0.09c0.416,0,0.641,0.191,0.641,0.372c0,0.196-0.334,0.403-0.674,0.432 c0.211,0.02,0.502,0.042,0.853,0.042l0.104-0.001c0.118,0,0.183,0.066,0.205,0.095c0.13,0.37-0.143,0.745-0.217,0.818 c-0.13,0.071-0.224,0.12-0.269,0.165l-0.015,0.015l-0.104,0.041H33.39z"/><path fill="#424242" d="M31.487,24.167c0.17,0,0.33,0.024,0.435,0.06c0.134,0.027,0.323,0.041,0.493,0.041 c0.134,0,0.255-0.009,0.327-0.026c-0.286,0.093-0.497,0.128-0.679,0.128c-0.11,0-0.209-0.013-0.307-0.033 c-0.067-0.014-0.155-0.021-0.249-0.021c-0.282,0-0.618,0.062-0.618,0.186c0,0.107,0.339,0.168,0.755,0.168 c0.228,0,0.48-0.018,0.711-0.057c0.201-0.063,0.379-0.088,0.529-0.088c0.38,0,0.59,0.165,0.59,0.322 c0,0.178-0.362,0.385-0.702,0.385c-0.068,0-0.135-0.008-0.198-0.027c0.187,0.145,0.819,0.165,1.125,0.165 c0.043,0,0.08,0,0.108-0.001c0.001,0,0.003,0,0.004,0c0.11,0,0.161,0.077,0.162,0.077c0.11,0.324-0.145,0.682-0.214,0.751 c-0.103,0.055-0.214,0.11-0.268,0.165c-0.027,0.027-0.055,0.041-0.083,0.041s-0.055-0.014-0.083-0.041 c-0.055-0.055,0.055-0.11,0.11-0.165c-0.055,0-0.11,0-0.165,0c-0.055,0-0.055-0.055,0-0.11c-0.11,0-0.055-0.11,0-0.11 c0.11,0,0.213,0.055,0.434,0.055c0.055,0,0.11,0,0.11-0.11c0-0.136-0.075-0.235-0.343-0.235c-0.058,0-0.124,0.005-0.201,0.014 c-0.134,0.027-0.282,0.041-0.417,0.041c-0.135,0-0.257-0.014-0.34-0.041c0,0.158,0,0.214,0.055,0.268 c0.055,0.055,0.062,0.158,0.007,0.213c-0.071,0.071-0.21,0.091-0.363,0.091c-0.204,0-0.434-0.036-0.56-0.036 c-0.055,0-0.166,0-0.221,0.055c-0.067,0.047-0.125,0.064-0.17,0.064c-0.062,0-0.098-0.032-0.098-0.064 c0-0.055,0.055-0.055,0.11-0.055c-0.01-0.024-0.026-0.032-0.046-0.032c-0.043,0-0.102,0.041-0.151,0.041 c-0.03,0-0.056-0.015-0.072-0.064c-0.055-0.11,0.055-0.11,0.165-0.11c-0.11,0-0.165,0-0.11-0.11 c0.022-0.022,0.044-0.031,0.068-0.031c0.097,0,0.228,0.141,0.531,0.141c0.069,0,0.165,0.024,0.238,0.024 c0.036,0,0.067-0.006,0.085-0.024c0.103-0.055,0.047-0.103-0.118-0.158c-0.213-0.055-0.213,0-0.434-0.221 c-0.379,0.221-1.191,0.221-1.301,0.221c-0.334,0.289-0.702,0.436-1.029,0.436c-0.04,0-0.08-0.002-0.119-0.007 c-0.419-0.048-0.748-0.319-0.808-0.319c-0.055,0-0.11-0.055-0.055-0.11c0,0,0.11,0,0.165,0c-0.018-0.018-0.043-0.024-0.07-0.024 c-0.053,0-0.114,0.024-0.151,0.024c-0.055,0-0.11-0.055-0.055-0.11h0.22c-0.055-0.055-0.11-0.055-0.165-0.055 s-0.11-0.055-0.055-0.11c0.041-0.01,0.079-0.015,0.116-0.015c0.162,0,0.283,0.09,0.373,0.18c0.11,0.165,0.434,0.165,0.654,0.165 c0.103,0,0.268,0,0.268-0.055c-0.923-0.434-1.356-0.978-1.467-0.978c-0.055,0-0.11-0.055-0.055-0.11 c0.023-0.023,0.046-0.036,0.073-0.036c0.038,0,0.083,0.027,0.148,0.091c0,0,0,0,0,0c0,0,0,0,0,0c-0.055-0.055,0-0.165-0.11-0.165 c-0.055,0-0.11-0.055-0.055-0.11c0.023-0.023,0.055-0.036,0.089-0.036c0.048,0,0.099,0.027,0.131,0.091 c-0.055-0.11-0.11-0.11-0.165-0.165c-0.055-0.055,0-0.11,0.055-0.11c0.055,0,0.166,0.055,0.221,0.165 c0.055,0.268,0.489,0.868,0.867,0.923c0,0-0.268-0.379-0.268-0.599c-0.055,0-0.11-0.11-0.11-0.165 c-0.032-0.064-0.027-0.091,0.016-0.091c0.031,0,0.08,0.013,0.149,0.036c0.055-0.055,0.158-0.11,0.323-0.11 c0.158,0,0.268,0.055,0.323,0.11c0.074-0.05,0.126-0.077,0.156-0.077c0.036,0,0.039,0.041,0.009,0.132 c0,0.055-0.055,0.11-0.11,0.165c0,0.055,0,0.055,0,0.11c0.107,0.187,0.492,0.323,0.948,0.323c0.217,0,0.45-0.031,0.677-0.102 c0.254-0.064,0.492-0.091,0.699-0.091c0.146,0,0.278,0.013,0.389,0.036c0.323,0,0.899-0.09,0.899-0.2 c0-0.071-0.148-0.105-0.385-0.105c-0.13,0-0.286,0.01-0.459,0.029c-0.31,0.063-0.628,0.102-0.903,0.102 c-0.445,0-0.777-0.102-0.777-0.37C30.731,24.274,31.13,24.167,31.487,24.167 M32.789,24.226 c-0.012,0.006-0.028,0.011-0.047,0.016C32.758,24.237,32.773,24.232,32.789,24.226 M31.487,24.067 c-0.152,0-0.372,0.018-0.555,0.104c-0.197,0.093-0.301,0.243-0.301,0.434c0,0.203,0.135,0.442,0.76,0.468 c-0.049,0.01-0.098,0.021-0.148,0.034c-0.209,0.065-0.432,0.099-0.652,0.099c-0.435,0-0.752-0.127-0.848-0.253v-0.039 c0.052-0.054,0.102-0.114,0.109-0.188c0.023-0.071,0.036-0.143-0.004-0.199c-0.024-0.033-0.062-0.052-0.104-0.052 c-0.04,0-0.084,0.015-0.15,0.055c-0.065-0.042-0.172-0.088-0.329-0.088c-0.17,0-0.28,0.051-0.345,0.098 c-0.057-0.017-0.095-0.024-0.127-0.024c-0.071,0-0.105,0.038-0.119,0.06c-0.035,0.057-0.013,0.12,0.004,0.158 c0.009,0.067,0.05,0.157,0.114,0.205c0.015,0.097,0.059,0.205,0.109,0.302c-0.249-0.192-0.48-0.54-0.515-0.713l-0.003-0.013 l-0.006-0.012c-0.069-0.138-0.212-0.221-0.31-0.221c-0.073,0-0.14,0.043-0.166,0.106c-0.017,0.042-0.015,0.086,0.005,0.126 c-0.007,0.005-0.014,0.011-0.02,0.018c-0.05,0.05-0.065,0.116-0.041,0.175c0.003,0.008,0.007,0.015,0.011,0.022 c-0.009,0.007-0.018,0.015-0.026,0.023c-0.05,0.05-0.065,0.116-0.041,0.175c0.026,0.063,0.093,0.106,0.166,0.106 c0.01,0.008,0.095,0.079,0.169,0.141c0.202,0.17,0.518,0.437,0.987,0.691c-0.185-0.001-0.454-0.009-0.529-0.121 c-0.153-0.156-0.299-0.224-0.457-0.224c-0.046,0-0.093,0.006-0.14,0.018l-0.027,0.007l-0.02,0.02 c-0.05,0.05-0.065,0.115-0.041,0.175c0.004,0.009,0.008,0.017,0.013,0.025c-0.027,0.044-0.032,0.094-0.013,0.14 c0.019,0.045,0.058,0.08,0.105,0.096c0.001,0.005,0.003,0.01,0.005,0.015c0.026,0.063,0.093,0.106,0.166,0.106 c0,0.004,0.03,0.022,0.07,0.045c0.144,0.083,0.411,0.237,0.727,0.273c0.042,0.005,0.086,0.007,0.13,0.007 c0.352,0,0.73-0.155,1.066-0.436c0.183-0.001,0.494-0.012,0.789-0.065c-0.008,0.02-0.016,0.046-0.017,0.073 c-0.01,0.009-0.019,0.02-0.027,0.032c-0.021,0.034-0.037,0.091,0.004,0.172c0.033,0.103,0.119,0.118,0.158,0.119 c0.026,0.065,0.098,0.109,0.188,0.109c0.072,0,0.151-0.028,0.227-0.082c0.031-0.028,0.081-0.037,0.163-0.037 c0.053,0,0.125,0.007,0.206,0.014c0.111,0.01,0.236,0.022,0.354,0.022c0.214,0,0.351-0.038,0.433-0.12 c0.046-0.046,0.07-0.112,0.067-0.182c-0.003-0.066-0.03-0.128-0.074-0.172c-0.014-0.014-0.021-0.027-0.023-0.072 c0.084,0.012,0.17,0.016,0.238,0.016c0.146,0,0.301-0.015,0.438-0.043c0.064-0.008,0.127-0.012,0.181-0.012 c0.243,0,0.243,0.081,0.243,0.135c0,0.004,0,0.007,0,0.01c-0.004,0-0.007,0-0.01,0c-0.119,0-0.2-0.017-0.271-0.032 c-0.055-0.012-0.107-0.023-0.163-0.023c-0.086,0-0.164,0.08-0.164,0.168c0,0.03,0.01,0.059,0.027,0.082 c-0.007,0.031-0.006,0.061,0.006,0.089c0.014,0.035,0.042,0.06,0.078,0.073c-0.004,0.011-0.006,0.023-0.007,0.035 c-0.002,0.04,0.013,0.079,0.044,0.11c0.047,0.047,0.098,0.07,0.153,0.07c0.055,0,0.107-0.024,0.153-0.07 c0.039-0.039,0.131-0.088,0.213-0.131l0.031-0.017l0.013-0.007l0.011-0.011c0.078-0.078,0.367-0.476,0.238-0.854l-0.013-0.038 l-0.018-0.009c-0.036-0.039-0.108-0.097-0.225-0.097l-0.112,0.001c-0.193,0-0.369-0.007-0.521-0.02 c0.22-0.088,0.396-0.238,0.396-0.403c0-0.21-0.237-0.422-0.69-0.422c-0.172,0-0.36,0.031-0.559,0.093 c-0.201,0.033-0.448,0.053-0.681,0.053c-0.365,0-0.566-0.045-0.637-0.078c0.059-0.027,0.241-0.075,0.5-0.075 c0.089,0,0.17,0.007,0.229,0.019c0.116,0.024,0.22,0.035,0.328,0.035c0.205,0,0.43-0.042,0.706-0.131 c0.026-0.006,0.047-0.014,0.064-0.022l-0.077-0.184l-0.042,0.014c-0.062,0.014-0.173,0.022-0.3,0.022 c-0.176,0-0.353-0.015-0.473-0.039C31.835,24.091,31.661,24.067,31.487,24.067L31.487,24.067z M32.157,25.021 c0.089-0.014,0.181-0.03,0.273-0.049c0.162-0.018,0.312-0.027,0.439-0.027c0.087,0,0.15,0.005,0.195,0.011 c-0.161,0.048-0.466,0.094-0.708,0.094C32.299,25.036,32.231,25.027,32.157,25.021L32.157,25.021z M31.275,25.87 c0.05-0.017,0.097-0.035,0.14-0.056c0.107,0.101,0.166,0.136,0.243,0.156c-0.17-0.001-0.275-0.05-0.361-0.09 C31.29,25.877,31.283,25.874,31.275,25.87L31.275,25.87z"/><path fill="#fdd835" d="M31.972,20.106l1.083-1.173l-1.552,0.599l0.401-1.68l-1.034,1.356l-0.575-1.467l-0.117,1.57 l-1.184-1.136l0.739,1.93h-1.034c0,0,1.093,0.672,1.377,0.893h1.72c0.637-0.368,1.435-0.893,1.435-0.893H31.972z"/><path fill="#3949ab" d="M32.876,22.541c-0.204-0.026-0.339-0.035-0.422,0.034c0.122,0.12,0.077,0.64,0.313,0.793 c0.165,0.094,0.566,0.08,0.636-0.164C33.495,22.979,33.468,22.661,32.876,22.541L32.876,22.541z"/><path fill="#3949ab" d="M30.565,22.539c0.062-0.067,0.193-0.094,0.461-0.106c0.289-0.014,0.472,0.017,0.574,0.183 c0.107,0.209,0.109,0.488,0.279,0.649c-0.06,0.09-0.661,0.126-0.85,0.004C30.772,23.132,30.709,22.642,30.565,22.539 L30.565,22.539z"/><path fill="#3949ab" d="M28.684,22.708c-0.009-0.107,0.146-0.128,0.546-0.157c0.398-0.05,0.423-0.03,0.58,0.245 c0.08,0.147,0.191,0.403,0.377,0.483c-0.483,0.122-0.634,0.189-0.913,0.044c-0.21-0.103-0.456-0.359-0.509-0.465 C28.736,22.795,28.73,22.729,28.684,22.708L28.684,22.708z"/><path fill="#43a047" d="M33.458,21.49c-0.084,0.025-0.141,0.06-0.257,0.074c0.044-0.054,0.004-0.097-0.104-0.103 c-0.113-0.011-0.187-0.091-0.235-0.129c-0.457-0.37-0.833-0.597-1.431-0.518c-0.024-0.013-0.047-0.025-0.071-0.038 c-0.193-0.16-0.713-0.22-0.973-0.124c-0.029,0.001-0.06,0.002-0.089,0.003c-0.186-0.078-0.497-0.047-0.621,0.064 c-0.023,0-0.044,0.001-0.067,0.002c-0.273-0.058-0.533,0.054-0.737,0.272l0,0c-0.014,0.007-0.028,0.015-0.043,0.021 c-0.091-0.039-0.257,0.02-0.324,0.064c-0.131-0.013-0.248-0.073-0.333-0.165c-0.173-0.192-0.605-0.279-0.769-0.11 c-0.064,0.042-0.153,0.042-0.219,0.062c-0.112,0-0.237,0.103-0.174,0.318c0.084-0.062,0.112,0.002,0.18,0.002 c0.043-0.02,0.024,0.021,0.028,0.064c0.009,0.107,0.273,0.324,0.496,0.303c0.246,0.001,0.365,0.086,0.413,0.129 c0.073,0.064,0.026,0.043,0.08,0.15c0.073,0.064,0.096,0.086-0.008,0.171c-0.146,0.129-0.233,0.427,0.056,0.664 c0.3,0.208,1.035,0.515,1.787-0.068c0.286,0.075,0.634,0.104,1.078,0.081c0.448-0.022,0.838-0.128,1.129-0.266 c0.121,0.195,0.174,0.316,0.205,0.418c0.03,0.084,0.147,0.161,0.301,0.126c0.156-0.013,0.339,0.035,0.433,0.091 c0.117,0.054,0.27,0.018,0.21-0.171c-0.139-0.589-0.524-0.641-0.592-0.915c0.225,0.002,0.38-0.013,0.461-0.106 c0.06-0.092,0.135-0.251,0.22-0.302C33.548,21.503,33.544,21.46,33.458,21.49z"/><path fill="#424242" d="M33.283,23.121c-0.038,0-0.079-0.009-0.118-0.027c-0.09-0.053-0.262-0.094-0.409-0.086 c-0.172,0.042-0.312-0.051-0.352-0.159c-0.032-0.106-0.085-0.219-0.177-0.371c-0.318,0.143-0.71,0.232-1.106,0.252 c-0.427,0.024-0.774-0.002-1.07-0.076c-0.864,0.653-1.673,0.16-1.826,0.055c-0.173-0.142-0.21-0.292-0.212-0.393 c-0.003-0.131,0.056-0.265,0.151-0.35c0.048-0.039,0.055-0.053,0.055-0.056c-0.003-0.004-0.028-0.025-0.046-0.04l-0.012-0.016 c-0.024-0.05-0.031-0.076-0.035-0.094c-0.003-0.013-0.003-0.015-0.033-0.042c-0.048-0.043-0.161-0.115-0.38-0.116 c-0.012,0.001-0.023,0.002-0.034,0.002c-0.14,0-0.285-0.078-0.378-0.156c-0.038-0.031-0.127-0.114-0.134-0.195 c-0.001-0.006-0.001-0.013-0.001-0.02c-0.022-0.003-0.041-0.011-0.057-0.018c-0.033-0.014-0.041-0.015-0.071,0.007l-0.058,0.043 l-0.02-0.069c-0.043-0.146-0.006-0.237,0.033-0.288c0.043-0.057,0.11-0.091,0.182-0.093c0.021-0.006,0.046-0.011,0.071-0.015 c0.046-0.009,0.094-0.017,0.128-0.039c0.061-0.064,0.165-0.101,0.305-0.099c0.2,0.004,0.417,0.093,0.529,0.217 c0.074,0.08,0.175,0.132,0.284,0.146c0.076-0.043,0.229-0.093,0.333-0.066c0.005-0.003,0.01-0.005,0.015-0.008 c0.222-0.238,0.499-0.343,0.773-0.282l0.044-0.002c0.143-0.112,0.445-0.144,0.648-0.064l0.07-0.003 c0.288-0.099,0.813-0.029,1.015,0.135l0.049,0.026c0.587-0.074,0.96,0.133,1.452,0.531c0.008,0.007,0.017,0.014,0.026,0.022 c0.046,0.039,0.103,0.088,0.182,0.096c0.085,0.005,0.139,0.03,0.159,0.076c0.002,0.004,0.004,0.009,0.006,0.015 c0.037-0.009,0.069-0.021,0.102-0.033c0.024-0.009,0.049-0.018,0.075-0.026c0.081-0.027,0.113-0.002,0.127,0.021 c0.013,0.022,0.021,0.068-0.054,0.13c-0.059,0.035-0.115,0.133-0.161,0.211c-0.017,0.028-0.033,0.056-0.048,0.079 c-0.088,0.102-0.227,0.127-0.432,0.129c0.034,0.066,0.093,0.121,0.162,0.188c0.143,0.134,0.32,0.301,0.406,0.666 c0.039,0.122-0.006,0.187-0.037,0.213C33.375,23.107,33.331,23.121,33.283,23.121z M32.803,22.906c0.159,0,0.322,0.049,0.408,0.1 c0.047,0.021,0.103,0.022,0.13-0.001c0.028-0.025,0.016-0.081,0.006-0.111c-0.08-0.341-0.238-0.489-0.378-0.621 c-0.099-0.093-0.184-0.173-0.215-0.298l-0.016-0.062l0.065,0.001c0.016,0,0.03,0,0.046,0c0.186,0,0.314-0.018,0.377-0.09 c0.011-0.016,0.025-0.042,0.042-0.069c0.038-0.065,0.08-0.137,0.127-0.188c-0.052,0.02-0.106,0.039-0.189,0.049l-0.121,0.014 l0.076-0.095c0.004-0.004,0.005-0.008,0.006-0.009l0,0c-0.005,0-0.023-0.011-0.074-0.014c-0.112-0.011-0.188-0.076-0.239-0.12 l-0.023-0.02c-0.476-0.386-0.842-0.585-1.393-0.508l-0.017,0.002l-0.086-0.047c-0.182-0.148-0.685-0.213-0.931-0.121L30.389,20.7 l-0.1,0.005L30.278,20.7c-0.168-0.07-0.46-0.042-0.568,0.055l-0.013,0.012l-0.092,0.003l-0.007-0.001 c-0.243-0.055-0.486,0.039-0.69,0.258l-0.013,0.01c-0.021,0.012-0.034,0.019-0.048,0.024l-0.02,0.007L28.81,21.06 c-0.065-0.029-0.211,0.017-0.277,0.061l-0.015,0.01L28.5,21.128c-0.14-0.014-0.27-0.078-0.365-0.181 c-0.094-0.104-0.285-0.182-0.456-0.184c-0.004,0-0.007-0.001-0.01-0.001c-0.103,0-0.184,0.027-0.23,0.076 c-0.061,0.04-0.121,0.051-0.175,0.061c-0.023,0.004-0.046,0.008-0.067,0.014l-0.014,0.002c-0.001,0-0.001,0-0.002,0 c-0.042,0-0.082,0.02-0.107,0.054c-0.026,0.035-0.036,0.083-0.029,0.142c0.046-0.013,0.078,0.003,0.104,0.014 c0.013,0.005,0.023,0.009,0.033,0.011c0.022-0.007,0.043-0.006,0.06,0.006c0.03,0.021,0.028,0.055,0.026,0.077 c0,0.008-0.001,0.018,0,0.026c0.002,0.02,0.029,0.069,0.099,0.128c0.081,0.067,0.218,0.142,0.343,0.131 c0.244,0.001,0.38,0.077,0.451,0.142c0.047,0.041,0.057,0.059,0.064,0.094c0.003,0.013,0.007,0.029,0.022,0.062 c0.04,0.035,0.073,0.066,0.072,0.113c0,0.047-0.036,0.085-0.09,0.128c-0.057,0.05-0.118,0.149-0.116,0.271 c0.002,0.115,0.062,0.224,0.173,0.314c0.141,0.097,0.908,0.564,1.725-0.068l0.02-0.016l0.023,0.006 c0.289,0.076,0.639,0.101,1.062,0.08c0.402-0.021,0.796-0.113,1.11-0.262l0.041-0.02l0.023,0.038 c0.11,0.181,0.173,0.31,0.209,0.432c0.021,0.054,0.11,0.119,0.242,0.091C32.762,22.907,32.782,22.906,32.803,22.906z"/><path fill="#e53935" d="M37.959,32.313L37.14,34.19c0.824,0.182,0.946,0.323,0.99,0.785l0.754-2.326 C38.951,32.361,38.441,32.25,37.959,32.313z"/><path fill="#e53935" d="M23.391,32.313l0.819,1.877c-0.824,0.182-0.946,0.323-0.99,0.785l-0.754-2.326 C22.399,32.361,22.909,32.25,23.391,32.313z"/><path fill="#fdd835" d="M35.955,30.998l-0.009-0.004c-0.847,2.024-2.899,3.333-5.227,3.333 c-0.014,0-0.029-0.001-0.043-0.001s-0.029,0.001-0.043,0.001c-2.329,0-4.381-1.308-5.228-3.333l-0.009,0.004l-1.646,1.169 c1.25,2.538,3.901,4.156,6.882,4.156c0.014,0,0.029-0.001,0.043-0.001s0.029,0.001,0.043,0.001c2.98,0,5.632-1.618,6.882-4.156 L35.955,30.998z"/><path fill="#424242" d="M30.719,36.373c-0.009,0-0.017,0-0.025-0.001l-0.019-0.001l-0.018,0.001 c-0.009,0.001-0.017,0.001-0.025,0.001c-3.002,0-5.656-1.604-6.928-4.184l-0.019-0.039l1.698-1.202l0.047-0.021l0.02,0.047 c0.839,2.006,2.873,3.303,5.182,3.303l0.019-0.001c0.018-0.002,0.033-0.002,0.051,0l0.018,0.001c2.309,0,4.343-1.297,5.182-3.303 l0.02-0.047l0.064,0.029l1.68,1.194l-0.019,0.038C36.374,34.77,33.72,36.373,30.719,36.373z M30.675,36.271 c0.009,0,0.017,0,0.025,0.001l0.019,0.001c2.948,0,5.557-1.566,6.818-4.091l-1.568-1.113c-0.869,2.012-2.922,3.308-5.25,3.308 c-0.009,0-0.017,0-0.025-0.001l-0.018-0.001l-0.019,0.001c-0.009,0.001-0.017,0.001-0.025,0.001c-2.327,0-4.381-1.296-5.25-3.307 l-1.569,1.112c1.262,2.524,3.87,4.091,6.819,4.091l0.018-0.001C30.658,36.271,30.666,36.271,30.675,36.271z"/><g><path fill="#424242" d="M30.028,22.647c-1.165-0.278-1.455-1.271-1.458-1.281l0.096-0.027 c0.003,0.01,0.279,0.947,1.386,1.211L30.028,22.647z"/></g><g><path fill="#424242" d="M31.062,22.22c-1.127,0-1.99-0.903-2.002-0.916l0.072-0.068c0.07,0.074,1.721,1.803,3.438,0.248 l0.066,0.074C32.095,22.049,31.554,22.22,31.062,22.22z"/></g><g><rect width=".94" height=".101" x="29.59" y="21.333" fill="#424242" transform="rotate(-58.465 30.06 21.384)"/></g><g><polygon fill="#424242" points="31.025,22.134 30.926,22.128 30.972,21.361 30.573,21.195 30.612,21.104 31.075,21.297"/></g><g><polygon fill="#424242" points="32.218,21.756 31.713,21.148 31.291,21.292 31.258,21.198 31.746,21.031 31.768,21.058 32.294,21.691"/></g></svg>