<svg xmlns="http://www.w3.org/2000/svg"  viewBox="0 0 48 48" width="30px" height="30px"><path fill="#d50000" d="M24,4C15.296,4,7.911,9.571,5.162,17.333h37.675C40.089,9.571,32.704,4,24,4z"/><path fill="#eceff1" d="M42.838,30.667C43.577,28.579,44,26.341,44,24c0-2.341-0.423-4.579-1.162-6.667H5.162 C4.423,19.421,4,21.659,4,24c0,2.341,0.423,4.579,1.162,6.667H42.838z"/><path fill="#263238" d="M24,29.243c-2.852,0-5.172-2.319-5.172-5.171S21.148,18.9,24,18.9s5.172,2.32,5.172,5.172 S26.852,29.243,24,29.243z M24,19.1c-2.741,0-4.972,2.23-4.972,4.973c0,2.741,2.23,4.972,4.972,4.972s4.972-2.23,4.972-4.972 C28.972,21.33,26.741,19.1,24,19.1z"/><path fill="#90a4ae" d="M27.171,26.209l-0.166-0.111c0.405-0.599,0.619-1.299,0.619-2.025c0-1.998-1.625-3.624-3.624-3.624 s-3.624,1.626-3.624,3.624c0,0.697,0.199,1.375,0.575,1.96l-0.168,0.107c-0.397-0.616-0.607-1.331-0.607-2.067 c0-2.108,1.715-3.823,3.824-3.823s3.824,1.715,3.824,3.823C27.824,24.839,27.598,25.577,27.171,26.209z"/><path fill="#263238" d="M24,28.391c-2.382,0-4.319-1.938-4.319-4.318c0-2.382,1.938-4.319,4.319-4.319 s4.319,1.938,4.319,4.319C28.319,26.453,26.382,28.391,24,28.391z M24,19.853c-2.327,0-4.22,1.894-4.22,4.22 s1.893,4.219,4.22,4.219s4.22-1.893,4.22-4.219S26.327,19.853,24,19.853z"/><path fill="#263238" d="M24,27.268c-1.762,0-3.196-1.434-3.196-3.195c0-1.763,1.434-3.196,3.196-3.196 s3.196,1.434,3.196,3.196C27.196,25.834,25.762,27.268,24,27.268z M24,20.976c-1.707,0-3.096,1.39-3.096,3.097 s1.389,3.096,3.096,3.096s3.096-1.389,3.096-3.096S25.707,20.976,24,20.976z"/><polygon fill="#fdd835" points="24,22.935 24.263,23.711 25.083,23.722 24.426,24.212 24.669,24.995 24,24.521 23.331,24.995 23.574,24.212 22.917,23.722 23.737,23.711"/><path fill="#263238" d="M24.761,25.121L24,24.583l-0.761,0.538l0.277-0.891l-0.748-0.557l0.932-0.012L24,22.778 l0.299,0.884l0.932,0.012l-0.748,0.557L24.761,25.121z M24,24.46l0.578,0.409l-0.21-0.676l0.567-0.424l-0.708-0.008l-0.011-0.034 L24,23.091l-0.227,0.671h-0.036l-0.672,0.008l0.567,0.424l-0.21,0.676L24,24.46z"/><path fill="#43a047" d="M23.38,21.713c0,0-0.677,0.205-0.87,0.592c0.012-0.29,0.314-0.773,0.314-0.773 s-0.483,0.375-0.568,0.991c-0.06,0.121-0.181,0.266-0.181,0.266l-0.012-0.435l0.363-0.713c0,0-0.447,0.459-0.483,0.677 s-0.109,0.423-0.109,0.423l-0.181-0.435c0,0,0.024,0.387-0.048,0.628c-0.073,0.242-0.024,0.604-0.024,0.604l-0.387-0.387 l0.302,0.58l0.205,0.495l-0.338-0.109c0,0,0.169,0.254,0.302,0.435c0.133,0.181,0.532,0.737,0.532,0.737s-0.314-0.181-0.628-0.556 c0.048,0.423,0.302,0.701,0.447,0.749c0.145,0.048,0.737,0.35,0.737,0.35s-0.592-0.024-0.822-0.145 c0.338,0.375,0.689,0.399,0.882,0.411s0.737,0.157,0.894,0.205c0.157,0.048,0.532,0.109,0.532,0.109l0.508,0.302l0.254-0.133 l-0.701-0.35c0,0-0.447,0.048-0.64-0.145c-0.193-0.193-0.302-0.218-0.302-0.218s-0.399-0.52-0.568-0.653 c0,0,0.145,0.435,0.338,0.665c-0.411-0.242-0.52-0.58-0.52-0.58l-0.036-0.653c0,0-0.169-0.387-0.35-0.52 c0.133-0.23,0.109-0.52,0.097-0.677c-0.169,0.326-0.302,0.52-0.302,0.52l-0.024,0.64c0,0-0.121-0.749-0.024-0.918 s0.822-0.858,0.822-0.858s-0.399,0.012-0.556,0.23c0.097-0.338,0.544-0.387,0.544-0.387l0.35-0.375l-0.35,0.242 c0,0-0.387,0.085-0.556,0.278c0.423-0.435,0.495-0.399,0.495-0.399L23.38,21.713z"/><g><path fill="#43a047" d="M23.09,26.547l1.051-0.338l0.242,0.073l0.242-0.109c0,0,0.266-0.725,0.798-0.786 c0.145-0.278,0.29-0.242,0.29-0.242s-0.097-0.568,0.085-0.858c0.109,0.157,0.145,0.193,0.145,0.193l0.181-0.133 c0,0-0.399-0.52-0.363-0.87c0.097-0.036,0.254,0.109,0.254,0.109l-0.012-0.399c0,0-0.568-0.145-0.677-0.399 c0.145-0.073,0.266-0.012,0.266-0.012l-0.048-0.375c0,0-0.773-0.036-1.015-0.375c0.218-0.048,0.363-0.036,0.363-0.036 l-0.205-0.399l0.568,0.193l-0.169-0.35c0,0,0.508,0.205,0.471,0.544c0.133-0.157,0.085-0.133,0.085-0.133s0.278,0.205,0.375,0.592 c0.109-0.266,0.109-0.459,0.109-0.459l0.181,0.532l0.109-0.157c0,0,0.157,0.508-0.048,0.882c0.193-0.145,0.193-0.145,0.193-0.145 s0,0.302-0.024,0.411c0.157-0.145,0.254-0.266,0.254-0.266s0.036,0.858-0.423,1.16c0.036,0.193,0.012,0.314,0.012,0.314 l0.302-0.169l-0.29,0.58l0.363-0.157c0,0-0.363,0.64-0.798,0.604c-0.073,0.109-0.302,0.29-0.302,0.29l0.544,0.036 c0,0-0.326,0.302-0.628,0.23c-0.181,0.205-0.326,0.278-0.773,0.205c-0.447-0.073-1.353,0.326-1.353,0.326L23.09,26.547z"/></g><g><path fill="#0d47a1" d="M23.999,44h0.002c8.704,0,16.088-5.571,18.836-13.333H5.162C7.911,38.429,15.295,43.999,23.999,44z"/></g></svg>