<svg xmlns="http://www.w3.org/2000/svg"  viewBox="0 0 48 48" width="50px" height="50px"><path fill="#1b5e20" d="M10.802,39c3.524,3.103,8.134,5,13.198,5s9.675-1.897,13.198-5H10.802z"/><path fill="#1b5e20" d="M24,4c-5.064,0-9.675,1.897-13.198,5h26.396C33.675,5.897,29.064,4,24,4z"/><path fill="#ffd600" d="M41.303,14c-1.092-1.884-2.48-3.57-4.104-5H10.802c-0.644,0.568-1.251,1.174-1.818,1.819L13.225,14 H41.303z"/><path fill="#ffd600" d="M41.302,34H13.225l-4.241,3.181c0.567,0.645,1.173,1.252,1.818,1.819h26.396 C38.823,37.57,40.211,35.884,41.302,34z"/><path fill="#d50000" d="M13.225,34h28.078c0.897-1.548,1.584-3.226,2.042-5H19.892L13.225,34z"/><path fill="#d50000" d="M19.892,19h23.452c-0.458-1.774-1.145-3.452-2.042-5H13.225L19.892,19z"/><path fill="#263238" d="M25.135,22.932L26.557,24l-1.422,1.068L19.892,29h23.452C43.757,27.399,44,25.73,44,24 s-0.243-3.399-0.656-5H19.892L25.135,22.932z"/><path fill="#263238" d="M19.892,29l5.243-3.932L26.557,24l-1.422-1.068L19.892,19l-6.667-5l-4.241-3.181 c-0.294,0.335-0.575,0.679-0.847,1.033L24.333,24L8.137,36.147c0.272,0.354,0.553,0.699,0.847,1.033L13.225,34L19.892,29z"/><path fill="#eceff1" d="M24.333,24L8.137,11.853C5.553,15.223,4,19.425,4,24s1.553,8.777,4.137,12.147L24.333,24z"/><g><path fill="#d40000" d="M11.5,16.289l4.016,12.363L5,21.012h13L7.484,28.652L11.5,16.289z"/><path fill="#fc0" d="M9.91,27.117l0.703-0.125l1.297-0.051l0.477,0.043l1.07,0.18l0.082-0.109v-0.77l0.121-0.664 l0.223-0.672l0.23-0.535l0.297-0.555l0.492,0.121h0.125l0.012-0.094l-1.023-0.879l-1.074-0.82l-1.547-1.16l-0.141-0.039 l-0.172-1.207l-0.121-0.371l-0.16-0.137l-0.309-0.102l-0.344,0.012l-0.156,0.09l-0.328,0.074l-0.172,0.023l-0.117,0.137 L9.363,19.68l0.477,0.012l0.121,0.051l-0.012,0.051l-0.273,0.039l-0.125,0.039l0.152,0.113l0.152,0.059l0.203,0.074l0.039,0.137 l0.02,1.852l-0.109,0.285l-0.039,0.535l0.16,0.641L9.727,24.02l-0.223,0.406l-0.035,0.258L9.348,24.93l-0.02,0.16l0.082,0.164 l0.305,1.02l0.16,0.832L9.91,27.117z"/><path d="M10.281,19.137c-0.121,0-0.18,0.02-0.301,0.086c-0.109,0.063-0.242,0.102-0.328,0.102c-0.18,0-0.324,0.129-0.324,0.289 v0.109l0.262-0.008c0.754,0.023,0.066,0.094,0.012,0.102c-0.188,0.035,0.039,0.188,0.262,0.262c0.234,0.078,0.227,0.031,0.227,1.07 c0,0.848-0.008,0.969-0.074,1.168c-0.094,0.285-0.094,0.715,0,0.996c0.039,0.113,0.07,0.219,0.07,0.238 c0.004,0.016-0.109,0.152-0.246,0.309c-0.25,0.277-0.402,0.578-0.402,0.785c0,0.051-0.035,0.133-0.074,0.184 c-0.09,0.121-0.094,0.328-0.004,0.41c0.094,0.082,0.473,1.559,0.477,1.836c0,0.102,0.016,0.102,0.598-0.016 c0.469-0.094,1.574-0.117,2.137-0.039c0.258,0.035,0.559,0.086,0.668,0.113c0.348,0.09,0.328,0.105,0.328-0.309 c0-0.645,0.117-1.258,0.367-1.91c0.113-0.301,0.41-0.902,0.488-0.996c0.008-0.008,0.133,0.016,0.281,0.051 c0.301,0.078,0.383,0.063,0.383-0.066c0-0.074-0.309-0.328-1.809-1.508c-1.012-0.793-1.844-1.414-1.883-1.414 c-0.043,0-0.082-0.023-0.094-0.047c-0.008-0.027-0.055-0.332-0.105-0.684c-0.051-0.348-0.121-0.695-0.152-0.766 c-0.094-0.211-0.293-0.32-0.609-0.344C10.371,19.137,10.324,19.137,10.281,19.137z M10.293,19.211c0.039,0,0.086,0.004,0.137,0.004 c0.477,0.027,0.566,0.156,0.688,1c0.051,0.328,0.09,0.629,0.09,0.676c0,0.055-0.066,0.121-0.23,0.234 c-0.246,0.164-0.563,0.465-0.715,0.68l-0.094,0.125l-0.016-0.297c-0.012-0.164-0.012-0.543,0-0.844 c0.02-0.625,0.004-0.684-0.203-0.754c-0.164-0.055-0.383-0.113-0.316-0.152c0.066-0.043,0.133-0.012,0.313-0.059 c0.063-0.016,0.059-0.012,0.047-0.066c-0.016-0.098-0.109-0.141-0.379-0.125c-0.211,0.012-0.238,0.004-0.227-0.051 c0.031-0.117,0.148-0.191,0.328-0.211c0.094-0.008,0.234-0.051,0.309-0.094C10.109,19.23,10.176,19.215,10.293,19.211z M11.355,21.059c0.008,0,0.02,0,0.027,0.004c0.121,0.016,3.629,2.758,3.629,2.836c0,0.031-0.027,0.055-0.063,0.055 c-0.035,0-0.93-0.254-1.984-0.563c-1.684-0.492-1.926-0.57-2-0.66c-0.102-0.125-0.105-0.316-0.008-0.445 c0.039-0.051,0.07-0.117,0.07-0.145c0-0.082-0.18,0.129-0.211,0.254c-0.043,0.145,0.035,0.387,0.141,0.465 C11,22.891,11.32,23,11.672,23.105c0.598,0.176,0.637,0.195,0.668,0.293c0.074,0.238-0.176,0.512-0.535,0.594 c-0.117,0.023-0.27,0.094-0.371,0.168c-0.406,0.309-0.691,0.492-0.93,0.594c-0.141,0.059-0.273,0.129-0.301,0.152 c-0.023,0.023-0.059,0.133-0.078,0.246c-0.043,0.23-0.063,0.27-0.133,0.27c-0.039,0-0.043-0.023-0.016-0.098 c0.051-0.141,0.047-0.316-0.008-0.316c-0.031,0-0.051,0.051-0.051,0.133c0,0.07-0.02,0.152-0.047,0.176 c-0.039,0.039-0.043,0.012-0.027-0.168c0.012-0.117,0.008-0.215-0.012-0.215c-0.031,0-0.094,0.18-0.117,0.336 c-0.016,0.094-0.016,0.094-0.043-0.016C9.648,25.168,9.656,25.109,9.719,25c0.043-0.078,0.078-0.191,0.078-0.254 c0-0.09,0.07-0.18,0.402-0.52c0.223-0.223,0.48-0.5,0.574-0.617c0.16-0.199,0.172-0.223,0.164-0.426 c-0.004-0.117-0.016-0.223-0.027-0.234c-0.043-0.047-0.102,0.184-0.078,0.305c0.02,0.113,0,0.152-0.234,0.426 c-0.141,0.168-0.379,0.418-0.531,0.559c-0.277,0.262-0.379,0.402-0.379,0.535c0,0.039-0.031,0.145-0.07,0.234 c-0.035,0.09-0.059,0.18-0.047,0.203c0.016,0.023,0.004,0.023-0.023-0.004c-0.031-0.031-0.031-0.086-0.008-0.203 c0.02-0.094,0.027-0.18,0.02-0.195c-0.039-0.066-0.086,0.02-0.109,0.195c-0.012,0.102-0.039,0.18-0.055,0.168 c-0.051-0.035-0.035-0.223,0.027-0.316c0.035-0.047,0.074-0.164,0.094-0.258c0.047-0.266,0.16-0.477,0.414-0.762 c0.125-0.145,0.23-0.27,0.23-0.277c0-0.004-0.035-0.113-0.074-0.234c-0.098-0.285-0.102-0.715-0.016-0.977 c0.09-0.273,0.277-0.547,0.574-0.836C10.934,21.238,11.207,21.063,11.355,21.059z M12.43,23.359 c0.031-0.004,0.063,0.012,0.066,0.031c0,0.004,0.004,0.004,0.004,0.008c-0.004,0.023-0.035,0.039-0.07,0.035 c-0.027,0-0.047-0.016-0.051-0.035C12.379,23.379,12.398,23.363,12.43,23.359z M12.605,23.383c0.035-0.004,0.066,0.008,0.07,0.031 c0.004,0.004,0.004,0.008,0.004,0.008c0,0.023-0.031,0.043-0.063,0.043c-0.035,0-0.063-0.02-0.063-0.043 C12.555,23.402,12.574,23.387,12.605,23.383z M12.793,23.414c0,0,0.004,0,0.008,0c0.031,0,0.063,0.016,0.063,0.039v0.004 c-0.004,0.023-0.035,0.039-0.066,0.035c-0.027,0-0.051-0.016-0.055-0.035C12.742,23.438,12.762,23.422,12.793,23.414z M12.961,23.449c0.004,0,0.004,0,0.008,0c0.035,0,0.063,0.016,0.066,0.039v0.004c0,0.023-0.027,0.043-0.063,0.043 c-0.035,0-0.063-0.02-0.063-0.043C12.91,23.473,12.934,23.453,12.961,23.449z M12.512,23.492c0.035-0.004,0.066,0.012,0.07,0.031 c0.004,0.004,0.004,0.008,0.004,0.012c0,0.023-0.031,0.039-0.063,0.039c-0.035,0-0.063-0.016-0.063-0.039 C12.461,23.516,12.48,23.496,12.512,23.492z M12.688,23.523c0.035-0.004,0.066,0.008,0.07,0.031 c0.004,0.004,0.004,0.004,0.004,0.008c0,0.023-0.031,0.039-0.063,0.039c-0.035,0-0.063-0.016-0.063-0.039 C12.637,23.543,12.66,23.523,12.688,23.523z M13.059,23.535c0.035-0.004,0.066,0.012,0.07,0.035c0.004,0,0.004,0.004,0.004,0.008 c0,0.023-0.031,0.039-0.063,0.039c-0.035,0-0.063-0.016-0.063-0.039C13.008,23.559,13.031,23.539,13.059,23.535z M12.863,23.539 c0.031-0.004,0.066,0.012,0.07,0.031c0,0.004,0,0.008,0,0.008c0,0.023-0.027,0.043-0.063,0.043c-0.031,0-0.059-0.02-0.059-0.043 C12.813,23.559,12.836,23.543,12.863,23.539z M13.227,23.582c0.004-0.008,0.262,0.055,0.57,0.145l0.559,0.16l-0.109,0.195 c-0.059,0.105-0.133,0.246-0.164,0.313c-0.066,0.137-0.09,0.141-0.426,0.063c-0.375-0.086-0.961-0.168-1.563-0.215l-0.574-0.047 l0.215-0.082c0.121-0.047,0.293-0.125,0.383-0.172c0.145-0.078,0.199-0.09,0.418-0.074c0.324,0.023,0.539-0.035,0.621-0.168 C13.188,23.641,13.219,23.59,13.227,23.582z M12.594,23.621c0.035-0.004,0.066,0.012,0.07,0.031c0,0.004,0,0.008,0,0.012 c0,0.023-0.027,0.039-0.059,0.039c-0.035,0-0.063-0.016-0.063-0.039S12.563,23.625,12.594,23.621z M12.996,23.621 c0.035-0.004,0.066,0.012,0.07,0.031c0.004,0.004,0.004,0.008,0.004,0.012c0,0.023-0.031,0.039-0.063,0.039 c-0.035,0-0.063-0.016-0.063-0.039S12.965,23.625,12.996,23.621z M12.418,23.625c0.004,0,0.004,0,0.008,0 c0.035,0,0.063,0.016,0.063,0.039c0,0,0,0,0,0.004c0,0.023-0.027,0.043-0.059,0.043c-0.035,0-0.063-0.02-0.063-0.043 C12.367,23.648,12.387,23.629,12.418,23.625z M12.801,23.633c0.031-0.004,0.063,0.012,0.07,0.031c0,0.004,0,0.008,0,0.008 c0,0.023-0.027,0.043-0.063,0.043c-0.035,0-0.063-0.02-0.063-0.043C12.746,23.652,12.77,23.637,12.801,23.633z M12.328,23.719 h0.004c0.031-0.004,0.063,0.012,0.07,0.031c0,0.004,0,0.008,0,0.008c-0.004,0.023-0.035,0.039-0.066,0.039 c-0.031-0.004-0.051-0.02-0.055-0.039C12.281,23.738,12.301,23.723,12.328,23.719z M12.508,23.719h0.004 c0.035,0,0.063,0.016,0.066,0.039v0.004c-0.004,0.023-0.035,0.039-0.066,0.035c-0.031,0-0.051-0.016-0.055-0.035 C12.453,23.742,12.477,23.723,12.508,23.719z M12.691,23.727c0.035-0.004,0.066,0.012,0.074,0.035v0.004 c0,0.023-0.027,0.043-0.063,0.043s-0.063-0.02-0.063-0.043C12.645,23.746,12.664,23.73,12.691,23.727z M12.891,23.73h0.004 c0.031-0.004,0.063,0.012,0.07,0.035c0,0.004,0,0.004,0,0.008c-0.004,0.023-0.035,0.039-0.07,0.035 c-0.027,0-0.047-0.016-0.051-0.035S12.863,23.734,12.891,23.73z M11.441,24.309c0.246-0.008,1.102,0.055,1.508,0.117 c0.355,0.051,0.98,0.168,1.004,0.184c0.004,0.004-0.051,0.176-0.121,0.379c-0.074,0.207-0.141,0.398-0.148,0.426 c-0.008,0.039-0.055,0.047-0.176,0.027c-0.594-0.094-2.309-0.086-2.969,0.012c-0.375,0.059-0.43,0.055-0.398-0.023 c0.016-0.039,0.047-0.152,0.07-0.254l0.043-0.191l0.398-0.203c0.219-0.117,0.461-0.262,0.539-0.324 c0.082-0.063,0.164-0.129,0.184-0.141C11.383,24.313,11.406,24.309,11.441,24.309z M9.516,25.324c0.016,0,0.063,0.023,0.113,0.055 c0.066,0.043,0.152,0.082,0.191,0.082c0.188,0,0.289,0.262,0.445,1.145c0.023,0.125,0.047,0.262,0.059,0.309 c0.016,0.07-0.008,0.086-0.168,0.121c-0.199,0.047-0.25,0.051-0.25,0.023c0-0.078-0.203-0.98-0.289-1.301 c-0.059-0.219-0.109-0.41-0.109-0.426c0-0.004,0-0.004,0.004-0.004C9.512,25.324,9.512,25.324,9.516,25.324z M11.559,25.457h0.207 l-0.07,0.078c-0.121,0.141-0.18,0.152-0.262,0.059c-0.043-0.047-0.078-0.098-0.078-0.109 C11.355,25.469,11.445,25.457,11.559,25.457z M11.992,25.457h0.391l-0.086,0.094c-0.105,0.117-0.113,0.117-0.219,0L11.992,25.457z M12.578,25.457h0.09c0.051,0,0.141,0.012,0.199,0.023l0.113,0.023l-0.102,0.09c-0.059,0.051-0.109,0.09-0.117,0.09 c-0.008-0.004-0.051-0.055-0.098-0.117L12.578,25.457z M13.184,25.484l0.09,0.023c0.051,0.012,0.156,0.023,0.234,0.023h0.145 l-0.105,0.094c-0.063,0.051-0.117,0.094-0.129,0.094c-0.012,0-0.07-0.051-0.129-0.117L13.184,25.484z M11.027,25.496 c0.008,0,0.016,0,0.02,0.004c0.004,0.008-0.023,0.059-0.07,0.113l-0.082,0.102l-0.105-0.086l-0.105-0.09l0.176-0.027 C10.93,25.504,10.996,25.496,11.027,25.496z M11.191,25.508c0-0.004,0.051,0.043,0.113,0.102l0.117,0.105l-0.215,0.012 l-0.211,0.012l0.098-0.109C11.148,25.566,11.191,25.512,11.191,25.508z M12.484,25.508c0.016,0,0.031,0.012,0.047,0.023 c0.031,0.027,0.074,0.082,0.094,0.121c0.031,0.059,0.02,0.066-0.066,0.063c-0.055,0-0.137-0.016-0.188-0.027l-0.082-0.023 l0.094-0.09C12.43,25.527,12.461,25.508,12.484,25.508z M11.883,25.508c0.043-0.004,0.07,0.023,0.113,0.094 c0.055,0.082,0.051,0.082-0.141,0.082L11.66,25.68l0.105-0.094C11.816,25.539,11.852,25.516,11.883,25.508z M13.098,25.523 l0.086,0.086c0.098,0.094,0.113,0.152,0.043,0.145c-0.023-0.008-0.113-0.016-0.199-0.023l-0.156-0.012L13.098,25.523z M10.586,25.57c0.02,0,0.07,0.043,0.113,0.09l0.082,0.094l-0.172,0.023c-0.098,0.012-0.211,0.031-0.25,0.039 c-0.055,0.012-0.039-0.02,0.063-0.117C10.496,25.629,10.57,25.57,10.586,25.57z M10.32,25.574c0.012,0,0.023,0.004,0.031,0.004 c0.059,0.012,0.055,0.027-0.043,0.121l-0.113,0.109l-0.031-0.09c-0.027-0.074-0.02-0.098,0.043-0.121 C10.238,25.586,10.281,25.578,10.32,25.574z M13.602,25.703c0.016-0.004,0.02,0.012,0.012,0.039 c-0.023,0.059-0.086,0.074-0.086,0.02c0-0.02,0.023-0.043,0.051-0.055C13.59,25.703,13.598,25.703,13.602,25.703z M12.078,25.816 c0.551,0,1.105,0.012,1.242,0.031c0.227,0.027,0.242,0.039,0.242,0.121c0,0.102-0.031,0.105-0.324,0.051 c-0.09-0.016-0.449-0.047-0.801-0.074c-0.609-0.047-1.363-0.02-2.035,0.066c-0.137,0.016-0.168,0.012-0.168-0.035 C10.23,25.879,10.957,25.816,12.078,25.816z M11.344,26.023h0.387l-0.086,0.094c-0.105,0.113-0.113,0.113-0.219,0L11.344,26.023z M11.84,26.023l0.102,0.098c0.055,0.059,0.102,0.109,0.102,0.113c0,0.008-0.094,0.012-0.207,0.012h-0.207l0.105-0.113L11.84,26.023 z M11.992,26.023h0.391l-0.086,0.094c-0.105,0.113-0.113,0.113-0.219,0L11.992,26.023z M11.078,26.027c0.016,0,0,0.031-0.051,0.102 c-0.047,0.066-0.098,0.121-0.109,0.121c-0.012,0-0.059-0.043-0.105-0.098l-0.086-0.094h0.129c0.074,0,0.16-0.012,0.195-0.023 C11.063,26.027,11.07,26.027,11.078,26.027z M11.223,26.059l0.094,0.086c0.051,0.047,0.098,0.086,0.102,0.09 c0.008,0.004-0.078,0.012-0.188,0.02l-0.199,0.012l0.094-0.102L11.223,26.059z M12.465,26.059l0.102,0.117 c0.113,0.121,0.102,0.129-0.156,0.078l-0.121-0.023l0.086-0.086L12.465,26.059z M12.609,26.059h0.168 c0.184,0,0.207,0.031,0.105,0.129c-0.086,0.078-0.086,0.078-0.188-0.035L12.609,26.059z M10.422,26.098 c0.082,0,0.082,0.008-0.027,0.113c-0.082,0.078-0.09,0.082-0.113,0.02C10.254,26.16,10.316,26.102,10.422,26.098z M13.191,26.109 c0.031,0,0.086,0.004,0.152,0.016l0.152,0.027l-0.09,0.086l-0.086,0.09l-0.078-0.102c-0.043-0.059-0.074-0.109-0.066-0.117 C13.176,26.109,13.184,26.109,13.191,26.109z M10.625,26.145c0.02-0.004,0.039,0.012,0.078,0.047 c0.07,0.07,0.074,0.074,0.012,0.102c-0.035,0.016-0.117,0.027-0.176,0.027l-0.105,0.004l0.098-0.102 C10.578,26.172,10.602,26.148,10.625,26.145z M13.059,26.164c0.027-0.004,0.047,0.02,0.082,0.07l0.063,0.09h-0.148 c-0.098,0-0.145-0.016-0.133-0.043c0.008-0.023,0.043-0.066,0.082-0.094C13.027,26.172,13.043,26.164,13.059,26.164z M13.516,26.258c0.008,0.004,0.012,0.016,0.012,0.039c0,0.07-0.059,0.117-0.09,0.07c-0.008-0.02,0.004-0.055,0.035-0.082 C13.496,26.266,13.508,26.258,13.516,26.258z M11.664,26.344c0.621,0,1.309,0.043,1.707,0.117l0.121,0.023v0.313 c0,0.23-0.012,0.316-0.047,0.313c-0.023-0.004-0.184-0.035-0.352-0.074c-0.512-0.113-1.09-0.16-1.738-0.133 c-0.328,0.012-0.672,0.039-0.766,0.055l-0.168,0.031l-0.043-0.262c-0.023-0.145-0.035-0.27-0.027-0.273 c0.004-0.008,0.164-0.035,0.352-0.059C10.945,26.359,11.293,26.348,11.664,26.344z"/><path d="M12.91,24.555c-0.211,0-0.359,0.156-0.359,0.375c0,0.344,0.383,0.508,0.617,0.266S13.242,24.555,12.91,24.555z M12.91,24.645c0.156-0.008,0.289,0.113,0.289,0.289c0,0.207-0.238,0.352-0.422,0.254c-0.195-0.102-0.18-0.43,0.023-0.52 C12.84,24.652,12.875,24.645,12.91,24.645z"/><path d="M11.477,24.512c-0.211,0-0.363,0.156-0.363,0.375c0,0.344,0.387,0.512,0.621,0.27 C11.969,24.91,11.809,24.512,11.477,24.512z M11.477,24.602c0.156-0.008,0.293,0.113,0.293,0.289c0,0.207-0.242,0.352-0.426,0.254 c-0.195-0.102-0.18-0.43,0.023-0.52C11.402,24.609,11.441,24.602,11.477,24.602z"/><path d="M10.285,19.379c-0.063,0.004-0.113,0.059-0.113,0.125c0,0.07,0.055,0.125,0.125,0.125c0.066,0,0.121-0.055,0.121-0.125 s-0.055-0.125-0.121-0.125C10.293,19.375,10.289,19.379,10.285,19.379z M10.297,19.422c0.043,0,0.078,0.039,0.078,0.082 s-0.035,0.082-0.082,0.082s-0.082-0.039-0.082-0.082c0-0.047,0.035-0.082,0.082-0.082C10.293,19.422,10.293,19.422,10.297,19.422z"/></g></svg>