<svg xmlns="http://www.w3.org/2000/svg"  viewBox="0 0 48 48" width="100px" height="100px"><circle cx="23.989" cy="24" r="20" fill="#eceff1"/><path fill="#d50000" d="M21.074,9.472c-0.839,3.273-0.567,7.019,3.126,9.484c3.399-2.13,4.154-6.221,3.158-9.484 C26.341,9.462,22.123,9.21,21.074,9.472z"/><path fill="#ffb300" d="M28.575,6.335c-0.367-0.021-0.703,0.315-0.724,0.661c-0.399-0.325-0.598,0.052-0.577,0.252 c0.021,0.199-0.231,0.378-0.231,0.378S27.306,7.71,27.484,7.5c0.178-0.21,0.273-0.115,0.273-0.115l-0.115,0.346 c0,0-0.283,0.073-0.168,0.231c-0.913,0.399-1.112-0.399-1.028-0.367c0.084,0.031,0.325-0.178,0.346-0.42 c0.021-0.241-0.178-0.42-0.409-0.451c-0.231-0.031-0.462,0.199-0.472,0.42c-0.011,0.22,0.283,0.388,0.283,0.388 s-0.336,0.483-0.955,0.493c-0.619,0.011-0.776-0.42-0.776-0.42l0.189-0.126l-0.147-0.094c0,0-0.011-0.042,0.011-0.231 c0.021-0.189,0.21-0.094,0.231,0.094c0.021,0.189,0.42,0.262,0.42,0.262s-0.084-0.294,0.021-0.588 c0.105-0.294-0.304-0.514-0.598-0.357c0.178-0.587-0.336-0.871-0.336-0.871h-0.011c0,0-0.514,0.283-0.336,0.871 c-0.294-0.157-0.703,0.063-0.598,0.357C23.414,7.217,23.33,7.51,23.33,7.51s0.399-0.073,0.42-0.262 c0.021-0.189,0.21-0.283,0.231-0.094c0.021,0.189,0.011,0.231,0.011,0.231l-0.147,0.094l0.189,0.126c0,0-0.157,0.43-0.776,0.42 c-0.619-0.01-0.955-0.493-0.955-0.493s0.294-0.168,0.283-0.388c-0.011-0.22-0.241-0.451-0.472-0.42 c-0.231,0.031-0.43,0.21-0.409,0.451c0.021,0.241,0.262,0.451,0.346,0.42s-0.115,0.766-1.028,0.367 c0.115-0.157-0.168-0.231-0.168-0.231l-0.115-0.346c0,0,0.094-0.094,0.273,0.115c0.178,0.21,0.441,0.126,0.441,0.126 S21.2,7.447,21.221,7.248c0.021-0.199-0.178-0.577-0.577-0.252c-0.021-0.346-0.357-0.682-0.724-0.661 c0.378,0.797,0.64,1.479,0.64,1.479s-0.073,0.168,0.115,0.21c0.094,0.262,0.136,0.409,0.136,0.409s-0.168,0.157,0.053,0.21 l-0.126,0.441l0.273,0.315c0,0-0.136,0.262,0.031,0.241c0.629-0.21,5.214-0.168,6.41,0c0.21,0.042,0.031-0.241,0.031-0.241 l0.273-0.315l-0.126-0.441c0.22-0.052,0.052-0.21,0.052-0.21s0.042-0.147,0.136-0.409c0.189-0.042,0.115-0.21,0.115-0.21 S28.197,7.133,28.575,6.335z"/><path fill="#ffb300" d="M27.295,11.906c0.147,0.063,0.147,0.063,0.147,0.063l-0.115-0.231l0.105-0.042l-0.178-0.073 l0.094-0.084l-0.241-0.063l0.115-0.105l-0.262-0.084l-0.042-0.136l-0.199,0.084l-0.703,0.021c0,0-0.054-0.12-0.166-0.24 c0.348,0.039,0.911,0.067,1.236-0.106c0.493-0.262,0.294-0.65,0.053-0.703c-0.241-0.052-0.902,0.031-1.29,0.115 c-0.388,0.084-1.081,0.273-1.5,0.178c-0.42-0.094-0.378-0.189-0.042-0.294c0.22,0.136,0.692,0.147,0.902-0.011 c0.084,0.105,0.136,0.094,0.136,0.094l0.042-0.189c0,0,0.703,0.21,0.923-0.325c0,0-0.126,0.189-0.399,0.199 c0.031-0.147-0.031-0.262-0.031-0.262s0.063,0.304-0.315,0.252c-0.378-0.052-0.944-0.084-1.521,0.126 c-0.577,0.21-0.052,0.535,0.115,0.556c0.168,0.021,0.997,0.157,2.014-0.21c-0.052,0.231,0.178,0.22,0.178,0.22l0.021-0.262 c0,0,0.094,0.189,0.22,0.252c-0.021-0.094,0.073-0.252,0.073-0.252s0.063,0.22,0.21,0.22c-0.073-0.115-0.063-0.231,0.168-0.241 c0.231-0.011,0.189,0.325-0.147,0.42c-0.336,0.094-1.542-0.021-1.542-0.021c-0.462-0.021-0.462-0.021-0.462-0.021l-1.427,0.157 l-0.053-0.336c0,0,0.157-0.094,0.199-0.294c-0.073-0.084-0.231-0.031-0.231-0.031s-0.084-0.294-0.241-0.378 c-0.178,0.063-0.409,0.231-0.409,0.231l-0.136-0.168c0,0-0.157,0.262-0.021,0.367c-0.094,0.199-0.21,0.262-0.21,0.262l0.136,0.094 l-0.199,0.294l-0.451-0.42c0,0-0.147-0.105-0.052-0.283c0.094-0.178-0.168-0.357-0.168-0.357l-0.031,0.178l-0.378-0.105l0.084,0.22 l-0.304,0.126c0,0,0.147,0.199,0.304,0.178c0.157-0.021,0.21,0.168,0.21,0.168l-0.157,0.126l0.231,0.042l-0.094,0.126l0.283,0.084 l-0.136,0.157l0.325,0.011L21.85,11.34l0.273,0.021l0.189,0.189c0,0-0.304,0.115-0.493,0.241c-0.126,0.073-0.294-0.22-0.43-0.22 c-0.136,0-0.262,0.084-0.262,0.084l0.241,0.063c0,0-0.357,0.136-0.357,0.252c0.147,0,0.147,0,0.147,0s0,0.136,0.199,0.084 c-0.084,0.063-0.168,0.283-0.168,0.283l0.157-0.073c0,0,0.189,0.073,0.283-0.147c0.094-0.22,0.178,0.021,0.178,0.021l-0.021,0.115 l0.283-0.189l-0.01,0.126l0.252-0.178l0.021,0.126l0.22-0.22l0.031,0.178l0.21-0.283c0,0,0.189,0.01,0.304-0.189 c0.336,0.052,0.682-0.021,1.479-0.556c0.136,0.168,0.021,0.357,0.021,0.357s0.304,0.031,0.021,0.189 c-0.283,0.157-0.462,0.21-0.462,0.21s-0.315-0.157-0.504-0.063c0.136,0.094,0.241,0.178,0.241,0.178l-0.168,0.22l0.346,0.052 l-0.053,0.252l0.325-0.157c0,0,0.031-0.21,0.136-0.283c0.063,0.157,0.073,0.199,0.073,0.199l0.157-0.273l0.01,0.157l0.231-0.283 l0.063,0.22l0.094-0.273l0.22-0.073c0,0-0.252-0.115-0.126-0.42c0.273,0.304,0.566,0.514,1.385,0.294 c0.168,0.22,0.42,0.378,0.42,0.378s-0.483,0.115-0.472,0.325c0.189-0.084,0.357-0.011,0.357-0.011s-0.063,0.115-0.042,0.252 c0.136-0.168,0.315-0.21,0.315-0.21l0.126,0.199l0.178-0.283C27.474,12.221,27.306,12.064,27.295,11.906z"/><path fill="#ffb300" d="M27.023,14.45c0.138,0.059,0.138,0.059,0.138,0.059l-0.108-0.217l0.099-0.039l-0.168-0.069 l0.089-0.079l-0.227-0.059l0.108-0.099l-0.247-0.079l-0.039-0.128l-0.187,0.079l-0.661,0.02c0,0-0.05-0.112-0.156-0.226 c0.328,0.037,0.856,0.063,1.162-0.1c0.464-0.247,0.276-0.611,0.049-0.661c-0.227-0.049-0.848,0.03-1.213,0.108 c-0.365,0.079-1.016,0.256-1.41,0.168c-0.394-0.089-0.355-0.178-0.039-0.276c0.207,0.128,0.651,0.138,0.848-0.01 c0.079,0.099,0.128,0.089,0.128,0.089l0.039-0.178c0,0,0.661,0.197,0.868-0.306c0,0-0.118,0.178-0.375,0.187 c0.03-0.138-0.03-0.247-0.03-0.247s0.059,0.286-0.296,0.237c-0.355-0.049-0.888-0.079-1.43,0.118 c-0.542,0.197-0.049,0.503,0.108,0.523c0.158,0.02,0.937,0.148,1.894-0.197c-0.049,0.217,0.168,0.207,0.168,0.207l0.02-0.247 c0,0,0.089,0.178,0.207,0.237c-0.02-0.089,0.069-0.237,0.069-0.237s0.059,0.207,0.197,0.207c-0.069-0.108-0.059-0.217,0.158-0.227 c0.217-0.01,0.177,0.306-0.138,0.395c-0.316,0.089-1.45-0.02-1.45-0.02c-0.434-0.02-0.434-0.02-0.434-0.02l-1.341,0.148 l-0.049-0.316c0,0,0.148-0.089,0.187-0.276c-0.069-0.079-0.217-0.03-0.217-0.03s-0.079-0.276-0.227-0.355 c-0.168,0.059-0.385,0.217-0.385,0.217l-0.128-0.158c0,0-0.148,0.247-0.02,0.345c-0.089,0.187-0.197,0.247-0.197,0.247l0.128,0.089 l-0.187,0.276l-0.424-0.394c0,0-0.138-0.099-0.049-0.266c0.089-0.168-0.158-0.335-0.158-0.335l-0.03,0.168l-0.355-0.099 l0.079,0.207l-0.286,0.118c0,0,0.138,0.187,0.286,0.168c0.148-0.02,0.197,0.158,0.197,0.158l-0.148,0.118l0.217,0.039l-0.089,0.118 l0.266,0.079l-0.128,0.148l0.306,0.01l-0.108,0.128l0.256,0.02l0.177,0.178c0,0-0.286,0.108-0.464,0.227 c-0.118,0.069-0.276-0.207-0.404-0.207c-0.128,0-0.247,0.079-0.247,0.079l0.227,0.059c0,0-0.335,0.128-0.335,0.237 c0.138,0,0.138,0,0.138,0s0,0.128,0.187,0.079c-0.079,0.059-0.158,0.266-0.158,0.266l0.148-0.069c0,0,0.178,0.069,0.266-0.138 c0.089-0.207,0.168,0.02,0.168,0.02l-0.02,0.108l0.266-0.178l-0.01,0.118l0.237-0.168l0.02,0.118l0.207-0.207l0.03,0.168 l0.197-0.266c0,0,0.177,0.01,0.286-0.178c0.316,0.049,0.641-0.02,1.391-0.523c0.128,0.158,0.02,0.335,0.02,0.335 s0.286,0.03,0.02,0.178c-0.266,0.148-0.434,0.197-0.434,0.197s-0.296-0.148-0.473-0.059c0.128,0.089,0.227,0.168,0.227,0.168 l-0.158,0.207l0.325,0.049l-0.049,0.237l0.306-0.148c0,0,0.03-0.197,0.128-0.266c0.059,0.148,0.069,0.187,0.069,0.187l0.148-0.256 l0.01,0.148l0.217-0.266l0.059,0.207l0.089-0.256l0.207-0.069c0,0-0.237-0.108-0.118-0.395c0.256,0.286,0.533,0.483,1.302,0.276 c0.158,0.207,0.395,0.355,0.395,0.355s-0.454,0.108-0.444,0.306c0.178-0.079,0.335-0.01,0.335-0.01s-0.059,0.108-0.039,0.237 c0.128-0.158,0.296-0.197,0.296-0.197l0.118,0.187l0.168-0.266C27.19,14.746,27.033,14.598,27.023,14.45z"/><path fill="#ffb300" d="M26.15,16.548c0.096,0.041,0.096,0.041,0.096,0.041l-0.076-0.151l0.069-0.027l-0.117-0.048 l0.062-0.055l-0.158-0.041l0.076-0.069l-0.172-0.055l-0.027-0.089l-0.131,0.055l-0.46,0.014c0,0-0.035-0.078-0.109-0.157 c0.228,0.026,0.596,0.044,0.809-0.069c0.323-0.172,0.192-0.426,0.034-0.46c-0.158-0.034-0.591,0.021-0.845,0.076 c-0.254,0.055-0.708,0.179-0.982,0.117c-0.275-0.062-0.247-0.124-0.027-0.192c0.144,0.089,0.453,0.096,0.591-0.007 c0.055,0.069,0.089,0.062,0.089,0.062l0.027-0.124c0,0,0.46,0.137,0.604-0.213c0,0-0.082,0.124-0.261,0.131 c0.021-0.096-0.021-0.172-0.021-0.172s0.041,0.199-0.206,0.165c-0.247-0.034-0.618-0.055-0.996,0.082 c-0.378,0.137-0.034,0.35,0.076,0.364c0.11,0.014,0.653,0.103,1.319-0.137c-0.034,0.151,0.117,0.144,0.117,0.144l0.014-0.172 c0,0,0.062,0.124,0.144,0.165c-0.014-0.062,0.048-0.165,0.048-0.165s0.041,0.144,0.137,0.144c-0.048-0.076-0.041-0.151,0.11-0.158 s0.124,0.213-0.096,0.275c-0.22,0.062-1.01-0.014-1.01-0.014c-0.302-0.014-0.302-0.014-0.302-0.014l-0.934,0.103l-0.034-0.22 c0,0,0.103-0.062,0.131-0.192c-0.048-0.055-0.151-0.021-0.151-0.021s-0.055-0.192-0.158-0.247 c-0.117,0.041-0.268,0.151-0.268,0.151l-0.089-0.11c0,0-0.103,0.172-0.014,0.24c-0.062,0.131-0.137,0.172-0.137,0.172l0.089,0.062 l-0.131,0.192l-0.295-0.275c0,0-0.096-0.069-0.034-0.185c0.062-0.117-0.11-0.234-0.11-0.234l-0.021,0.117l-0.247-0.069l0.055,0.144 l-0.199,0.082c0,0,0.096,0.131,0.199,0.117c0.103-0.014,0.137,0.11,0.137,0.11l-0.103,0.082l0.151,0.027l-0.062,0.082l0.185,0.055 l-0.089,0.103l0.213,0.007l-0.076,0.089l0.179,0.014l0.124,0.124c0,0-0.199,0.076-0.323,0.158 c-0.082,0.048-0.192-0.144-0.282-0.144c-0.089,0-0.172,0.055-0.172,0.055l0.158,0.041c0,0-0.234,0.089-0.234,0.165 c0.096,0,0.096,0,0.096,0s0,0.089,0.131,0.055c-0.055,0.041-0.11,0.185-0.11,0.185l0.103-0.048c0,0,0.124,0.048,0.185-0.096 c0.062-0.144,0.117,0.014,0.117,0.014l-0.014,0.076l0.185-0.124l-0.007,0.082l0.165-0.117l0.014,0.082l0.144-0.144l0.021,0.117 l0.137-0.185c0,0,0.124,0.007,0.199-0.124c0.22,0.034,0.447-0.014,0.969-0.364c0.089,0.11,0.014,0.234,0.014,0.234 s0.199,0.021,0.014,0.124c-0.185,0.103-0.302,0.137-0.302,0.137s-0.206-0.103-0.33-0.041c0.089,0.062,0.158,0.117,0.158,0.117 l-0.11,0.144l0.227,0.034l-0.034,0.165l0.213-0.103c0,0,0.021-0.137,0.089-0.185c0.041,0.103,0.048,0.131,0.048,0.131l0.103-0.179 l0.007,0.103l0.151-0.185l0.041,0.144l0.062-0.179l0.144-0.048c0,0-0.165-0.076-0.082-0.275c0.179,0.199,0.371,0.337,0.907,0.192 c0.11,0.144,0.275,0.247,0.275,0.247s-0.316,0.076-0.309,0.213c0.124-0.055,0.234-0.007,0.234-0.007s-0.041,0.076-0.027,0.165 c0.089-0.11,0.206-0.137,0.206-0.137l0.082,0.131l0.117-0.185C26.267,16.754,26.157,16.651,26.15,16.548z"/><path fill="#d50000" d="M6.276,14.741L19.976,24L6.272,33.261c0.703,1.341,1.553,2.59,2.529,3.73L24,26.72l15.185,10.263 c0.976-1.141,1.825-2.39,2.526-3.732L28.024,24l13.684-9.248c-0.703-1.341-1.553-2.589-2.531-3.729L24,21.28L8.809,11.014 C7.831,12.153,6.98,13.401,6.276,14.741z"/></svg>