<svg xmlns="http://www.w3.org/2000/svg"  viewBox="0 0 48 48" width="50px" height="50px"><path fill="#d50000" d="M44,24c0-4.509-1.51-8.655-4.027-12H8.027C5.51,15.345,4,19.491,4,24c0,4.509,1.51,8.655,4.027,12 h31.946C42.49,32.655,44,28.509,44,24z"/><path fill="#eceff1" d="M38.271,10H9.729c-0.613,0.625-1.174,1.299-1.701,2h31.946C39.445,11.299,38.885,10.625,38.271,10z"/><path fill="#0d47a1" d="M24,4c-5.592,0-10.642,2.301-14.271,6h28.543C34.642,6.301,29.592,4,24,4z"/><path fill="#eceff1" d="M39.973,36H8.027c0.528,0.701,1.088,1.375,1.701,2h28.543C38.885,37.375,39.445,36.701,39.973,36z"/><path fill="#0d47a1" d="M38.271,38H9.729c3.629,3.699,8.679,6,14.271,6S34.642,41.699,38.271,38z"/><path fill="#eceff1" d="M33.333,24c0,5.156-4.177,9.333-9.333,9.333S14.667,29.156,14.667,24s4.177-9.333,9.333-9.333	S33.333,18.844,33.333,24z"/><path fill="#d50000" d="M27.286,25.068l5.312-3.865h-6.568L24,14.958l-2.031,6.245h-6.568l5.312,3.865l-2.026,6.245	L24,27.453l5.312,3.859L27.286,25.068z"/></svg>