<svg xmlns="http://www.w3.org/2000/svg"  viewBox="0 0 48 48" width="100px" height="100px"><path fill="#ffd600" d="M44,24c0-11.046-8.954-20-20-20c-0.675,0-1.342,0.036-2,0.101V24H44z"/><path fill="#388e3c" d="M44,24H22v19.899C22.658,43.964,23.325,44,24,44C35.046,44,44,35.046,44,24z"/><path fill="#e53935" d="M22,4.101C11.894,5.105,4,13.63,4,24c0,10.37,7.894,18.895,18,19.899V24V4.101z"/><path fill="#263238" d="M15.816,24.137L18.754,22h-3.633L14,18.547L12.879,22H9.246l2.938,2.137l-1.121,3.453L14,25.453	l2.937,2.137L15.816,24.137z"/></svg>