<svg xmlns="http://www.w3.org/2000/svg"  viewBox="0 0 48 48" width="50px" height="50px"><path fill="#00c853" d="M24,4C12.954,4,4,12.954,4,24c0,1.523,0.185,3,0.508,4.425L34.93,7.262C31.787,5.206,28.036,4,24,4z"/><path fill="#03a9f4" d="M24,44c11.046,0,20-8.954,20-20c0-1.523-0.185-3-0.508-4.425L13.07,40.738 C16.213,42.794,19.964,44,24,44z"/><path fill="#ffea00" d="M34.93,7.262L4.508,28.425c0.213,0.94,0.496,1.852,0.836,2.737l31.857-22.16 C36.485,8.372,35.731,7.787,34.93,7.262z"/><path fill="#ffea00" d="M10.799,38.998c0.716,0.631,1.47,1.216,2.271,1.74l30.422-21.163 c-0.213-0.94-0.496-1.852-0.836-2.737L10.799,38.998z"/><path fill="#263238" d="M37.201,9.002L5.344,31.162c1.169,3.041,3.053,5.719,5.455,7.835l31.857-22.16 C41.487,13.796,39.603,11.118,37.201,9.002z"/></svg>