<svg xmlns="http://www.w3.org/2000/svg"  viewBox="0 0 48 48" width="500px" height="500px"><circle cx="24" cy="24" r="20" fill="#00bcd4"/><path fill="#ffee58" d="M29.609,21.379c0-2.258-1.836-4.086-4.098-4.086c-2.266,0-4.102,1.828-4.102,4.086	s1.836,4.086,4.102,4.086C27.773,25.465,29.609,23.637,29.609,21.379z"/><path fill="#ffee58" d="M25.512,16.738c0.242-0.004,0.332-0.156,0.332-0.34c0-0.242-0.332-1.398-0.332-1.398	s-0.336,1.156-0.336,1.398C25.176,16.582,25.266,16.738,25.512,16.738z"/><path fill="#ffee58" d="M30.168,21.379c0.004,0.242,0.152,0.336,0.336,0.336c0.246,0,1.406-0.336,1.406-0.336	s-1.164-0.332-1.406-0.332C30.32,21.047,30.168,21.137,30.168,21.379z"/><path fill="#ffee58" d="M25.512,26.023c-0.246,0-0.336,0.152-0.336,0.336c0,0.242,0.336,1.398,0.336,1.398	s0.332-1.156,0.332-1.398C25.844,26.176,25.754,26.023,25.512,26.023z"/><path fill="#ffee58" d="M20.852,21.379c-0.004-0.242-0.156-0.332-0.336-0.332c-0.246,0-1.406,0.332-1.406,0.332	s1.16,0.336,1.406,0.336C20.695,21.715,20.852,21.621,20.852,21.379z"/><path fill="#ffee58" d="M27.293,17.09c0.227,0.09,0.367-0.016,0.438-0.184c0.094-0.223,0.23-1.422,0.23-1.422	s-0.758,0.941-0.848,1.164C27.043,16.82,27.066,16.996,27.293,17.09z"/><path fill="#ffee58" d="M29.812,23.156c-0.09,0.227,0.016,0.367,0.184,0.438c0.227,0.094,1.426,0.227,1.426,0.227	s-0.941-0.75-1.168-0.844C30.086,22.906,29.906,22.93,29.812,23.156z"/><path fill="#ffee58" d="M23.727,25.668c-0.223-0.09-0.367,0.016-0.438,0.184c-0.094,0.223-0.227,1.422-0.227,1.422	s0.754-0.941,0.844-1.164C23.977,25.938,23.953,25.762,23.727,25.668z"/><path fill="#ffee58" d="M21.207,19.602c0.09-0.223-0.016-0.367-0.184-0.438c-0.227-0.094-1.426-0.227-1.426-0.227	s0.941,0.75,1.168,0.844C20.934,19.852,21.113,19.828,21.207,19.602z"/><path fill="#ffee58" d="M28.805,18.098c0.172,0.168,0.344,0.125,0.473-0.004c0.172-0.172,0.758-1.227,0.758-1.227	s-1.059,0.582-1.23,0.754C28.676,17.75,28.633,17.926,28.805,18.098z"/><path fill="#ffee58" d="M28.805,24.66c-0.172,0.176-0.129,0.348,0,0.477c0.172,0.172,1.23,0.754,1.23,0.754	s-0.586-1.055-0.758-1.227C29.148,24.535,28.977,24.488,28.805,24.66z"/><path fill="#ffee58" d="M22.219,24.66c-0.176-0.168-0.348-0.125-0.477,0.004c-0.172,0.172-0.758,1.227-0.758,1.227	s1.059-0.582,1.23-0.754C22.344,25.008,22.391,24.836,22.219,24.66z"/><path fill="#ffee58" d="M22.219,18.098c0.168-0.176,0.125-0.348-0.004-0.477c-0.172-0.172-1.23-0.754-1.23-0.754	s0.586,1.055,0.758,1.227C21.871,18.223,22.043,18.27,22.219,18.098z"/><path fill="#ffee58" d="M29.812,19.602c0.098,0.223,0.273,0.25,0.441,0.18c0.227-0.09,1.168-0.844,1.168-0.844	s-1.199,0.137-1.426,0.227C29.828,19.234,29.719,19.379,29.812,19.602z"/><path fill="#ffee58" d="M27.293,25.668c-0.227,0.098-0.25,0.27-0.18,0.438c0.09,0.227,0.848,1.168,0.848,1.168	s-0.137-1.199-0.23-1.422C27.66,25.684,27.516,25.574,27.293,25.668z"/><path fill="#ffee58" d="M21.207,23.156c-0.098-0.223-0.273-0.25-0.441-0.18c-0.227,0.094-1.168,0.844-1.168,0.844	s1.199-0.133,1.426-0.227C21.191,23.523,21.301,23.379,21.207,23.156z"/><path fill="#ffee58" d="M23.727,17.09c0.227-0.098,0.25-0.27,0.18-0.438c-0.09-0.227-0.844-1.168-0.844-1.168	s0.133,1.199,0.227,1.422C23.359,17.074,23.504,17.184,23.727,17.09z"/><path fill="#ffee58" d="M26.418,16.824c0.238,0.047,0.359-0.086,0.395-0.262c0.047-0.238-0.055-1.441-0.055-1.441	s-0.555,1.07-0.602,1.309C26.121,16.609,26.18,16.777,26.418,16.824z"/><path fill="#ffee58" d="M30.078,22.285c-0.047,0.238,0.086,0.359,0.266,0.395c0.238,0.047,1.441-0.059,1.441-0.059	s-1.07-0.551-1.309-0.598C30.297,21.988,30.125,22.047,30.078,22.285z"/><path fill="#ffee58" d="M24.602,25.934c-0.242-0.043-0.359,0.086-0.395,0.266c-0.051,0.238,0.055,1.438,0.055,1.438	s0.555-1.07,0.602-1.309C24.898,26.148,24.84,25.98,24.602,25.934z"/><path fill="#ffee58" d="M20.941,20.473c0.047-0.238-0.086-0.355-0.266-0.391c-0.238-0.047-1.441,0.055-1.441,0.055	s1.07,0.551,1.313,0.602C20.723,20.77,20.895,20.711,20.941,20.473z"/><path fill="#ffee58" d="M28.098,17.52c0.203,0.133,0.363,0.055,0.465-0.094c0.137-0.203,0.504-1.352,0.504-1.352	s-0.926,0.777-1.059,0.98C27.906,17.203,27.895,17.383,28.098,17.52z"/><path fill="#ffee58" d="M29.383,23.957c-0.133,0.203-0.059,0.363,0.094,0.465c0.203,0.137,1.355,0.5,1.355,0.5	s-0.781-0.918-0.98-1.055C29.699,23.766,29.52,23.758,29.383,23.957z"/><path fill="#ffee58" d="M22.922,25.238c-0.203-0.133-0.363-0.055-0.465,0.098c-0.137,0.199-0.504,1.348-0.504,1.348	s0.926-0.777,1.059-0.98C23.113,25.555,23.125,25.375,22.922,25.238z"/><path fill="#ffee58" d="M21.637,18.801c0.133-0.203,0.059-0.363-0.094-0.465c-0.203-0.137-1.355-0.5-1.355-0.5	s0.781,0.918,0.98,1.055C21.32,18.992,21.504,19.004,21.637,18.801z"/><path fill="#ffee58" d="M29.383,18.801c0.137,0.199,0.313,0.191,0.465,0.09c0.203-0.137,0.98-1.055,0.98-1.055	s-1.148,0.363-1.352,0.5C29.324,18.438,29.246,18.598,29.383,18.801z"/><path fill="#ffee58" d="M28.098,25.238c-0.203,0.137-0.191,0.316-0.09,0.465c0.133,0.203,1.059,0.98,1.059,0.98	s-0.367-1.148-0.504-1.348C28.461,25.184,28.301,25.105,28.098,25.238z"/><path fill="#ffee58" d="M21.637,23.957c-0.137-0.199-0.316-0.191-0.465-0.09c-0.203,0.137-0.984,1.055-0.984,1.055	s1.152-0.363,1.355-0.5C21.695,24.32,21.773,24.16,21.637,23.957z"/><path fill="#ffee58" d="M22.922,17.52c0.199-0.137,0.191-0.316,0.09-0.465c-0.133-0.203-1.059-0.98-1.059-0.98	s0.367,1.148,0.504,1.352C22.559,17.574,22.719,17.652,22.922,17.52z"/><path fill="#ffee58" d="M30.078,20.473c0.051,0.238,0.219,0.297,0.398,0.262c0.238-0.047,1.309-0.598,1.309-0.598	s-1.203-0.105-1.441-0.059C30.164,20.117,30.031,20.234,30.078,20.473z"/><path fill="#ffee58" d="M26.418,25.934c-0.238,0.051-0.297,0.215-0.262,0.395c0.047,0.238,0.602,1.309,0.602,1.309	s0.102-1.199,0.055-1.438C26.777,26.02,26.656,25.887,26.418,25.934z"/><path fill="#ffee58" d="M20.941,22.285c-0.051-0.238-0.219-0.297-0.395-0.262c-0.242,0.047-1.313,0.602-1.313,0.602	s1.203,0.102,1.441,0.055C20.855,22.645,20.988,22.523,20.941,22.285z"/><path fill="#ffee58" d="M24.602,16.824c0.238-0.047,0.297-0.215,0.262-0.395c-0.047-0.238-0.602-1.309-0.602-1.309	s-0.102,1.199-0.055,1.438C24.242,16.738,24.363,16.871,24.602,16.824z"/><path fill="#ffee58" d="M24.777,30.23c-0.109,0.004-0.215,0.02-0.32,0.051c-0.141,0.02-0.277,0.07-0.422,0.094l-0.055,0.008	l-0.098,0.012c0.008,0.023,0.012,0.051,0.012,0.078s-0.004,0.055-0.012,0.074c-0.004,0.023-0.023,0.051-0.039,0.066	c-0.02,0.02-0.043,0.039-0.066,0.051c-0.023,0.016-0.055,0.02-0.082,0.02c-0.023,0.004-0.055,0-0.082-0.008	c-0.023-0.012-0.051-0.027-0.074-0.047c-0.027,0.008-0.059,0.012-0.086,0.016c-0.027,0-0.055,0-0.078,0	c-0.027-0.008-0.059-0.02-0.086-0.031c-0.027-0.008-0.055-0.023-0.078-0.039c-0.105,0.063-0.219,0.117-0.281,0.227	c-0.039,0.047-0.043,0.102-0.051,0.16c-0.008,0.07,0.012,0.145,0.043,0.211c0.012,0.02,0.02-0.07,0.055-0.082	c0.059-0.047,0.129-0.082,0.203-0.102c0.063-0.027,0.055,0.004,0.027,0.051c-0.008,0.027-0.043,0.121,0.008,0.074	c0.203-0.09,0.434-0.109,0.656-0.125c0.32-0.035,0.645-0.043,0.969-0.047c0.305,0.004,0.609,0.008,0.914,0.02	c0.145,0.004,0.293,0.035,0.438,0.012c0.035-0.008,0.086-0.012,0.109-0.031c-0.066-0.035-0.145-0.039-0.215-0.047h-0.582	c-0.16-0.016-0.328-0.02-0.48-0.078c-0.043-0.016-0.078-0.055-0.117-0.016c-0.059,0.02-0.121,0.035-0.18,0.039	c-0.109,0.008-0.215-0.016-0.313-0.055c0.07-0.098,0.156-0.184,0.234-0.273c-0.063-0.012-0.125-0.023-0.188-0.039	C24.566,30.395,24.672,30.309,24.777,30.23z"/><path fill="#ffee58" d="M29.523,31.277c-0.223,0.133-0.391-0.102-0.574-0.172c-0.133,0.07-0.145,0.309-0.27,0.422	c-0.145,0.168-0.328-0.047-0.313-0.211c-0.176,0.148-0.266,0.484-0.551,0.441c-0.133-0.109-0.234-0.34-0.336-0.078	c-0.086,0.129-0.309,0.309-0.426,0.117c-0.035-0.172-0.121-0.371-0.215-0.102c-0.063,0.191-0.27,0.332-0.469,0.25	c-0.109-0.09,0.09-0.418-0.051-0.395c-0.207,0.137-0.328,0.477-0.617,0.449c-0.109-0.125,0.07-0.34-0.055-0.477	C25.504,31.707,25.344,31.98,25.09,32c-0.121-0.098,0.008-0.379-0.07-0.422c-0.258,0.156-0.531,0.43-0.855,0.344	c0.125-0.48,0.656-0.652,1.098-0.688c0.766-0.094,1.57,0.078,2.305-0.199c0.121-0.07,0.406-0.172,0.305-0.34	c-0.09-0.133,0.234-0.078,0.27-0.234c-0.02-0.195,0.148-0.168,0.313-0.184c0.742-0.035,1.477,0.121,2.219,0.148	c0.055,0.359-0.344,0.613-0.668,0.5c-0.152,0.027-0.383-0.352-0.34-0.078C29.633,30.992,29.652,31.184,29.523,31.277 M23.203,30.543	c0.176,0.156,0.293-0.031,0.453-0.098c0.539-0.188,1.012-0.508,1.477-0.832c0.277-0.23,0.523-0.531,0.898-0.605	c0.738-0.223,1.52-0.195,2.258-0.398c0.563-0.77,1.52-1.043,2.32-1.484c0.18-0.055,0.246-0.203,0.305-0.367	c0.305-0.48,0.723-0.906,1.215-1.195c0.23-0.129,0.512-0.199,0.773-0.141c-0.02,0.313-0.199,0.59-0.418,0.805	c0.18-0.004,0.332-0.117,0.512-0.109c0.063,0.32-0.285,0.488-0.469,0.688c0.102,0.023,0.496,0.055,0.281,0.16	c-0.273,0.188-0.586,0.316-0.84,0.539c0.234,0.043,0.258,0.09,0.023,0.176c-0.129,0.086-0.379,0.117-0.402,0.285	c0.176,0.109-0.078,0.215-0.18,0.254c-0.191,0.043-0.391,0.125-0.137,0.27c-0.098,0.145-0.301,0.172-0.469,0.16	c0.051,0.16,0.125,0.344-0.086,0.414c-0.477,0.359-1.035,0.621-1.633,0.68c0.746,0.059,1.516-0.082,2.152-0.484	c0.086-0.102,0.527-0.207,0.281-0.289c-0.117-0.051-0.367-0.105-0.383-0.191c0.344-0.215,0.781-0.137,1.152-0.262	c0.012-0.121-0.281-0.09-0.391-0.117c-0.262-0.02-0.246-0.086,0.004-0.109c0.32-0.086,0.68-0.102,0.945-0.309	c-0.215-0.098-0.492-0.012-0.723-0.094c0.395-0.172,0.855-0.188,1.211-0.445c0.16-0.18-0.207-0.125-0.313-0.117	c-0.219,0.035-0.32-0.066-0.074-0.156c0.426-0.313,0.957-0.512,1.254-0.965c0.07-0.098,0.168-0.402-0.059-0.293	c-0.293,0.098-0.551,0.43-0.887,0.324c0.66-0.508,1.289-1.094,1.742-1.801c0.023-0.203-0.297-0.223-0.383-0.066	c-0.426,0.41-0.809,0.895-1.355,1.148c0.523-0.5,0.953-1.094,1.332-1.711c0.078-0.184,0.297-0.402,0.18-0.609	c-0.191-0.156-0.43-0.012-0.527,0.176c-0.332,0.43-0.582,0.934-1.008,1.281c0.375-0.707,0.758-1.461,0.77-2.277	c0-0.168-0.035-0.414-0.266-0.383c-0.18,0.031-0.137,0.301-0.211,0.438c-0.168,0.559-0.242,1.164-0.582,1.652	c0.078-0.453,0.211-0.926,0.109-1.383c-0.051-0.207-0.379-0.117-0.34,0.086c-0.395,2-1.742,3.746-3.5,4.758	c-0.809,0.457-1.707,0.75-2.625,0.883c-0.246,0.055-0.512,0.02-0.746,0.105c-0.57,0.438-0.918,1.164-1.641,1.395	c-0.324,0.16-0.746,0.191-0.977,0.492C23.207,30.453,23.203,30.5,23.203,30.543"/><path fill="#ffee58" d="M25.367,28.512c-0.105,0.195-0.168,0.418-0.305,0.59c-0.414-0.375-1.012-0.363-1.535-0.387	c-0.43-0.023-0.898-0.066-1.234-0.371c-0.352-0.289-0.641-0.66-1.031-0.895c-0.359-0.094-0.723-0.219-1.008-0.461	c-0.617-0.5-0.969-1.246-1.57-1.762c-0.117-0.113-0.25-0.199-0.379-0.293c-0.121,0.031-0.066,0.293-0.215,0.156	c-0.082-0.059-0.285-0.063-0.305,0.02c0.184,0.242,0.367,0.516,0.395,0.824c-0.125,0.016-0.352-0.023-0.41,0.02	c0.164,0.25,0.379,0.473,0.621,0.648c-0.117,0.02-0.344,0.008-0.391,0.055c0.242,0.195,0.5,0.395,0.816,0.445	c0.066,0.086-0.094,0.25,0.039,0.32c0.078,0.031,0.332,0.086,0.156,0.172c-0.121,0.082-0.074,0.273,0.078,0.266	c0.098,0.051,0.316,0.063,0.336,0.148c-0.086,0.09-0.355,0.191-0.125,0.277c0.211,0.117,0.457,0.195,0.703,0.203	c-0.125,0.102-0.273,0.16-0.402,0.258c0.566,0.328,1.191,0.547,1.809,0.758c0.246,0.082,0.496,0.156,0.754,0.207	c-0.742-0.043-1.461-0.262-2.137-0.563c-0.352-0.152-0.703-0.301-1.063-0.434c0.156-0.082,0.34-0.102,0.504-0.172	c-0.34-0.066-0.711-0.09-1.008-0.277c0.047-0.078,0.219-0.082,0.316-0.125c0.18-0.043,0.289-0.094,0.035-0.109	c-0.254-0.07-0.547-0.039-0.773-0.191c0.016-0.094,0.25-0.063,0.348-0.102c0.121-0.02,0.254-0.039,0.352-0.121	c-0.395-0.164-0.914-0.047-1.223-0.395c-0.074-0.133,0.223-0.027,0.305-0.047c0.211,0,0.441,0.066,0.645-0.02	c-0.578-0.25-1.195-0.488-1.637-0.957c-0.047-0.074-0.191-0.277-0.074-0.305c0.34,0.047,0.59,0.418,0.957,0.363	c0.047-0.066-0.215-0.172-0.281-0.27c-0.531-0.457-1.051-0.949-1.426-1.551c-0.023-0.199,0.289-0.227,0.375-0.074	c0.406,0.395,0.773,0.852,1.285,1.117c0.18,0.086-0.105-0.102-0.141-0.172c-0.473-0.543-0.918-1.117-1.246-1.758	c-0.059-0.117-0.156-0.324,0.02-0.387c0.176-0.09,0.348,0.031,0.438,0.184c0.344,0.434,0.602,0.949,1.031,1.309	c-0.367-0.707-0.758-1.453-0.77-2.27c0.012-0.16,0.02-0.398,0.234-0.391c0.18-0.027,0.152,0.203,0.211,0.313	c0.18,0.598,0.258,1.25,0.613,1.777c-0.078-0.445-0.195-0.902-0.117-1.355c0.016-0.148,0.184-0.191,0.293-0.102	c0.09,0.215,0.109,0.48,0.191,0.711c0.457,1.563,1.488,2.941,2.828,3.863c1.105,0.758,2.418,1.207,3.758,1.285	C25.125,28.504,25.246,28.504,25.367,28.512"/><path fill="#ffee58" d="M23.738,30.516c0,0.039-0.031,0.07-0.07,0.07s-0.07-0.031-0.07-0.07s0.031-0.074,0.07-0.074	S23.738,30.477,23.738,30.516z"/><path fill="#ffee58" d="M8.223,12.215c0.168,0,0.336-0.16,0.336-0.391c0-0.127-0.057-0.246-0.146-0.339 c-0.056,0.069-0.105,0.144-0.16,0.214c0.025,0.036,0.052,0.074,0.052,0.11c0,0.113-0.074,0.137-0.156,0.137 c-0.029,0-0.043-0.015-0.06-0.027c-0.056,0.074-0.111,0.148-0.166,0.222c-0.047,0.138,0.026,0.204,0.144,0.234 c-0.035-0.063-0.051-0.148-0.02-0.211C8.094,12.195,8.172,12.215,8.223,12.215z"/><path fill="#ffee58" d="M11,17.59c0-0.27-0.051-0.438-0.184-0.695c0,0-1.059-2.078-1.473-2.883 c-0.051-0.102-0.066-0.215-0.066-0.383c0-0.258,0.266-0.469,0.543-0.477c0.254-0.004,0.531,0.223,0.531,0.484 c0,0.32-0.176,0.461-0.355,0.461c-0.219,0-0.309-0.086-0.309-0.234c0-0.102,0.055-0.145,0.129-0.145 c0.188,0,0.137,0.242,0.137,0.242c0.094-0.02,0.168-0.113,0.125-0.227c0.07-0.012,0.133-0.047,0.184-0.102 c-0.051-0.047-0.109-0.082-0.184-0.094c0.043-0.137-0.016-0.203-0.141-0.234c0.023,0.055,0.027,0.102,0.016,0.148 c-0.199-0.055-0.508,0.031-0.508,0.359s0.238,0.602,0.688,0.531c-0.105,0.051-0.16,0.148-0.172,0.258 c0.082-0.031,0.172-0.035,0.172-0.035c-0.055,0.09-0.125,0.164-0.121,0.336c0.082-0.035,0.16-0.102,0.266-0.059 c-0.168,0.309,0.039,0.738,0.563,0.84c-0.191-0.211-0.285-0.441-0.285-0.668c0-0.738,0.219-0.863,0.219-1.379 c0-0.212-0.116-0.437-0.34-0.597c0.147-0.04,0.243-0.108,0.297-0.204c-0.004-0.001-0.009-0.001-0.013-0.002 c0.001,0,0.013-0.002,0.013-0.002c-0.105-0.133-0.172-0.172-0.352-0.184c0.199-0.098,0.402-0.309,0.402-0.637 c0-0.508-0.223-0.719-0.223-1.289c0-0.32,0.277-0.723,0.277-0.723c-0.488,0.047-0.73,0.473-0.594,0.813 c-0.078,0.012-0.148-0.004-0.211-0.059c-0.035,0.094,0.023,0.203,0.098,0.297c-0.063,0.031-0.105,0.012-0.203-0.008 c0.012,0.098,0.07,0.203,0.223,0.301c-0.438-0.109-0.707,0.18-0.707,0.48c0,0.23,0.168,0.391,0.336,0.391 c0.051,0,0.129-0.02,0.176-0.051c0.031,0.063,0.016,0.148-0.02,0.211c0.121-0.031,0.199-0.098,0.145-0.242 c0.094-0.008,0.168-0.035,0.219-0.094c-0.051-0.063-0.129-0.098-0.219-0.094c0.066-0.133-0.008-0.207-0.117-0.266 c0,0,0.07,0.266-0.109,0.266c-0.082,0-0.156-0.023-0.156-0.137c0-0.098,0.09-0.23,0.301-0.223c0.207,0.008,0.379,0.137,0.379,0.449 c0,0.289-0.25,0.434-0.574,0.441c-0.293,0.012-0.52-0.141-0.52-0.426c0-0.383,0.586-1.254,0.586-1.594 c0-0.165-0.107-0.278-0.244-0.341c-0.093,0.097-0.179,0.199-0.271,0.298c0.028,0.003,0.058,0.002,0.077,0.024 C9.561,10.59,9.193,11.203,9,11.652c-0.075-0.175-0.174-0.373-0.263-0.561c-0.082,0.097-0.167,0.192-0.247,0.291 c0.12,0.258,0.229,0.509,0.229,0.67c0,0.285-0.227,0.438-0.52,0.426c-0.174-0.004-0.323-0.051-0.427-0.136 c-0.067,0.092-0.139,0.18-0.204,0.273c0.018,0.011,0.035,0.025,0.053,0.034c-0.042,0.003-0.063,0.015-0.095,0.022 c-0.058,0.085-0.118,0.168-0.175,0.254c0.055,0.049,0.121,0.09,0.215,0.115c-0.224,0.16-0.34,0.385-0.34,0.597 c0,0.516,0.219,0.641,0.219,1.379c0,0.227-0.094,0.457-0.285,0.668c0.523-0.102,0.73-0.531,0.563-0.84 c0.105-0.043,0.184,0.023,0.266,0.059c0.004-0.172-0.066-0.246-0.121-0.336c0,0,0.09,0.004,0.172,0.035 c-0.012-0.109-0.066-0.207-0.172-0.258c0.449,0.07,0.688-0.203,0.688-0.531s-0.309-0.414-0.508-0.359 c-0.012-0.047-0.008-0.094,0.016-0.148c-0.125,0.031-0.184,0.098-0.141,0.234c-0.074,0.012-0.133,0.047-0.184,0.094 c0.051,0.055,0.113,0.09,0.184,0.102c-0.043,0.113,0.031,0.207,0.125,0.227c0,0-0.051-0.242,0.137-0.242 c0.074,0,0.129,0.043,0.129,0.145c0,0.148-0.09,0.234-0.309,0.234c-0.18,0-0.355-0.141-0.355-0.461 c0-0.262,0.277-0.488,0.531-0.484c0.277,0.008,0.543,0.219,0.543,0.477c0,0.168-0.016,0.281-0.066,0.383 c-0.414,0.805-1.473,2.883-1.473,2.883C7.051,17.152,7,17.32,7,17.59c0,0.455,0.325,0.8,0.92,0.826C7.325,18.442,7,18.788,7,19.246 c0,0.27,0.051,0.438,0.184,0.695c0,0,1.059,2.078,1.473,2.883c0.051,0.098,0.066,0.211,0.066,0.379 c0,0.262-0.266,0.473-0.543,0.477c-0.254,0.008-0.531-0.223-0.531-0.484c0-0.316,0.176-0.457,0.355-0.457 c0.219,0,0.309,0.086,0.309,0.23c0,0.102-0.055,0.145-0.129,0.145c-0.188,0-0.137-0.238-0.137-0.238 c-0.094,0.02-0.168,0.109-0.125,0.223c-0.07,0.016-0.133,0.047-0.184,0.102c0.051,0.047,0.109,0.082,0.184,0.098 c-0.043,0.137,0.016,0.203,0.141,0.23c-0.023-0.051-0.027-0.102-0.016-0.145c0.199,0.051,0.508-0.035,0.508-0.363 c0-0.324-0.238-0.598-0.688-0.531c0.105-0.047,0.16-0.145,0.172-0.258c-0.082,0.031-0.172,0.035-0.172,0.035 c0.055-0.086,0.125-0.164,0.121-0.336c-0.082,0.039-0.16,0.102-0.266,0.063c0.168-0.313-0.039-0.742-0.563-0.844 c0.191,0.215,0.285,0.441,0.285,0.672c0,0.738-0.219,0.863-0.219,1.375c0,0.213,0.117,0.444,0.342,0.6 C7.42,23.835,7.323,23.904,7.27,24c0.054,0.096,0.151,0.165,0.299,0.205c-0.226,0.156-0.342,0.387-0.342,0.6 c0,0.512,0.219,0.637,0.219,1.375c0,0.23-0.094,0.457-0.285,0.672c0.523-0.102,0.73-0.531,0.563-0.844 c0.105-0.039,0.184,0.023,0.266,0.063c0.004-0.172-0.066-0.25-0.121-0.336c0,0,0.09,0.004,0.172,0.035 c-0.012-0.113-0.066-0.211-0.172-0.258c0.449,0.066,0.688-0.207,0.688-0.531c0-0.328-0.309-0.414-0.508-0.363 c-0.012-0.043-0.008-0.094,0.016-0.145c-0.125,0.027-0.184,0.094-0.141,0.23c-0.074,0.016-0.133,0.051-0.184,0.098 c0.051,0.055,0.113,0.086,0.184,0.102c-0.043,0.113,0.031,0.203,0.125,0.223c0,0-0.051-0.238,0.137-0.238 c0.074,0,0.129,0.043,0.129,0.145c0,0.145-0.09,0.23-0.309,0.23c-0.18,0-0.355-0.141-0.355-0.457c0-0.262,0.277-0.492,0.531-0.484 c0.277,0.004,0.543,0.215,0.543,0.477c0,0.168-0.016,0.281-0.066,0.379c-0.414,0.805-1.473,2.883-1.473,2.883 C7.051,28.316,7,28.484,7,28.754c0,0.458,0.325,0.804,0.92,0.83C7.325,29.61,7,29.956,7,30.41c0,0.27,0.051,0.438,0.184,0.695 c0,0,1.059,2.078,1.473,2.883c0.051,0.102,0.066,0.215,0.066,0.383c0,0.258-0.266,0.469-0.543,0.477 c-0.254,0.004-0.531-0.223-0.531-0.484c0-0.32,0.176-0.461,0.355-0.461c0.219,0,0.309,0.086,0.309,0.234 c0,0.102-0.055,0.145-0.129,0.145c-0.188,0-0.137-0.242-0.137-0.242c-0.094,0.02-0.168,0.113-0.125,0.227 c-0.07,0.012-0.133,0.047-0.184,0.102c0.051,0.047,0.109,0.082,0.184,0.094c-0.043,0.137,0.016,0.203,0.141,0.234 c-0.023-0.055-0.027-0.102-0.016-0.148c0.199,0.055,0.508-0.031,0.508-0.359s-0.238-0.602-0.688-0.531 c0.105-0.051,0.16-0.148,0.172-0.258c-0.082,0.031-0.172,0.035-0.172,0.035c0.055-0.09,0.125-0.164,0.121-0.336 c-0.082,0.035-0.16,0.102-0.266,0.059c0.168-0.309-0.039-0.738-0.563-0.84c0.191,0.211,0.285,0.441,0.285,0.668 c0,0.738-0.219,0.863-0.219,1.379c0,0.212,0.116,0.437,0.34,0.597c-0.094,0.025-0.161,0.067-0.215,0.115 c0.057,0.086,0.117,0.169,0.175,0.254c0.031,0.007,0.053,0.019,0.095,0.022c-0.018,0.009-0.035,0.023-0.053,0.034 c0.065,0.094,0.138,0.181,0.204,0.273c0.104-0.084,0.253-0.131,0.427-0.136c0.293-0.012,0.52,0.141,0.52,0.426 c0,0.161-0.109,0.412-0.229,0.67c0.08,0.099,0.165,0.193,0.247,0.291C8.826,36.721,8.925,36.524,9,36.348 c0.193,0.449,0.561,1.062,0.43,1.214c-0.019,0.022-0.049,0.021-0.077,0.024c0.091,0.098,0.178,0.201,0.271,0.298 c0.137-0.063,0.244-0.176,0.244-0.341c0-0.34-0.586-1.211-0.586-1.594c0-0.285,0.227-0.438,0.52-0.426 c0.324,0.008,0.574,0.152,0.574,0.441c0,0.313-0.172,0.441-0.379,0.449c-0.211,0.008-0.301-0.125-0.301-0.223 c0-0.113,0.074-0.137,0.156-0.137c0.18,0,0.109,0.266,0.109,0.266c0.109-0.059,0.184-0.133,0.117-0.266 c0.09,0.004,0.168-0.031,0.219-0.094c-0.051-0.059-0.125-0.086-0.219-0.094c0.055-0.145-0.023-0.211-0.145-0.242 c0.035,0.063,0.051,0.148,0.02,0.211c-0.047-0.031-0.125-0.051-0.176-0.051c-0.168,0-0.336,0.16-0.336,0.391 c0,0.301,0.27,0.59,0.707,0.48c-0.152,0.098-0.211,0.203-0.223,0.301c0.098-0.02,0.141-0.039,0.203-0.008 c-0.074,0.094-0.133,0.203-0.098,0.297c0.063-0.055,0.133-0.07,0.211-0.059c-0.137,0.34,0.105,0.766,0.594,0.813 c0,0-0.277-0.402-0.277-0.723c0-0.57,0.223-0.781,0.223-1.289c0-0.328-0.203-0.539-0.402-0.637c0.18-0.012,0.246-0.051,0.352-0.184 c0,0-0.011-0.001-0.013-0.002c0.004-0.001,0.009-0.001,0.013-0.002c-0.054-0.096-0.15-0.164-0.297-0.204 c0.224-0.16,0.34-0.385,0.34-0.597c0-0.516-0.219-0.641-0.219-1.379c0-0.227,0.094-0.457,0.285-0.668 c-0.523,0.102-0.73,0.531-0.563,0.84c-0.105,0.043-0.184-0.023-0.266-0.059c-0.004,0.172,0.066,0.246,0.121,0.336 c0,0-0.09-0.004-0.172-0.035c0.012,0.109,0.066,0.207,0.172,0.258c-0.449-0.07-0.688,0.203-0.688,0.531s0.309,0.414,0.508,0.359 c0.012,0.047,0.008,0.094-0.016,0.148c0.125-0.031,0.184-0.098,0.141-0.234c0.074-0.012,0.133-0.047,0.184-0.094 c-0.051-0.055-0.113-0.09-0.184-0.102c0.043-0.113-0.031-0.207-0.125-0.227c0,0,0.051,0.242-0.137,0.242 c-0.074,0-0.129-0.043-0.129-0.145c0-0.148,0.09-0.234,0.309-0.234c0.18,0,0.355,0.141,0.355,0.461 c0,0.262-0.277,0.488-0.531,0.484c-0.277-0.008-0.543-0.219-0.543-0.477c0-0.168,0.016-0.281,0.066-0.383 c0.414-0.805,1.473-2.883,1.473-2.883C10.949,30.848,11,30.68,11,30.41c0-0.455-0.325-0.8-0.92-0.826 c0.594-0.026,0.92-0.372,0.92-0.83c0-0.27-0.051-0.438-0.184-0.695c0,0-1.059-2.078-1.473-2.883 c-0.051-0.098-0.066-0.211-0.066-0.379c0-0.262,0.266-0.473,0.543-0.477c0.254-0.008,0.531,0.223,0.531,0.484 c0,0.316-0.176,0.457-0.355,0.457c-0.219,0-0.309-0.086-0.309-0.23c0-0.102,0.055-0.145,0.129-0.145 c0.188,0,0.137,0.238,0.137,0.238c0.094-0.02,0.168-0.109,0.125-0.223c0.07-0.016,0.133-0.047,0.184-0.102 c-0.051-0.047-0.109-0.082-0.184-0.098c0.043-0.137-0.016-0.203-0.141-0.23c0.023,0.051,0.027,0.102,0.016,0.145 c-0.199-0.051-0.508,0.035-0.508,0.363c0,0.324,0.238,0.598,0.688,0.531c-0.105,0.047-0.16,0.145-0.172,0.258 c0.082-0.031,0.172-0.035,0.172-0.035c-0.055,0.086-0.125,0.164-0.121,0.336c0.082-0.039,0.16-0.102,0.266-0.063 c-0.168,0.313,0.039,0.742,0.563,0.844c-0.191-0.215-0.285-0.441-0.285-0.672c0-0.738,0.219-0.863,0.219-1.375 c0-0.213-0.117-0.444-0.342-0.6c0.149-0.039,0.246-0.108,0.299-0.205c-0.054-0.096-0.151-0.165-0.299-0.205 c0.226-0.156,0.342-0.387,0.342-0.6c0-0.512-0.219-0.637-0.219-1.375c0-0.23,0.094-0.457,0.285-0.672 c-0.523,0.102-0.73,0.531-0.563,0.844c-0.105,0.039-0.184-0.023-0.266-0.063c-0.004,0.172,0.066,0.25,0.121,0.336 c0,0-0.09-0.004-0.172-0.035c0.012,0.113,0.066,0.211,0.172,0.258c-0.449-0.066-0.688,0.207-0.688,0.531 c0,0.328,0.309,0.414,0.508,0.363c0.012,0.043,0.008,0.094-0.016,0.145c0.125-0.027,0.184-0.094,0.141-0.23 c0.074-0.016,0.133-0.051,0.184-0.098c-0.051-0.055-0.113-0.086-0.184-0.102c0.043-0.113-0.031-0.203-0.125-0.223 c0,0,0.051,0.238-0.137,0.238c-0.074,0-0.129-0.043-0.129-0.145c0-0.145,0.09-0.23,0.309-0.23c0.18,0,0.355,0.141,0.355,0.457 c0,0.262-0.277,0.492-0.531,0.484c-0.277-0.004-0.543-0.215-0.543-0.477c0-0.168,0.016-0.281,0.066-0.379 c0.414-0.805,1.473-2.883,1.473-2.883C10.949,19.684,11,19.516,11,19.246c0-0.458-0.325-0.804-0.92-0.83 C10.675,18.39,11,18.044,11,17.59z M8.402,12.844c-0.024-0.009-0.058-0.013-0.085-0.02c0.3-0.061,0.55-0.167,0.683-0.39 c0.133,0.223,0.383,0.329,0.683,0.39c-0.027,0.007-0.061,0.011-0.085,0.02C9.285,12.879,9.066,13.105,9,13.223 C8.934,13.105,8.715,12.879,8.402,12.844z M9.598,35.156c0.024,0.009,0.058,0.013,0.085,0.02c-0.3,0.061-0.55,0.167-0.683,0.39 c-0.133-0.223-0.383-0.329-0.683-0.39c0.027-0.007,0.061-0.011,0.085-0.02C8.715,35.121,8.934,34.895,9,34.777 C9.066,34.895,9.285,35.121,9.598,35.156z M10.602,30.453c0,0.152-0.039,0.289-0.105,0.422C10.191,31.492,9.207,33.457,9,33.867 c-0.207-0.41-1.191-2.375-1.496-2.992c-0.066-0.133-0.105-0.27-0.105-0.422c0-0.379,0.367-0.512,0.578-0.512 c0.246,0,0.5,0.18,0.5,0.402c0,0.145-0.082,0.227-0.199,0.227c-0.281,0-0.266-0.223-0.207-0.367 c-0.176,0.074-0.277,0.207-0.25,0.348c-0.098,0.012-0.195,0.059-0.281,0.148c0.07,0.082,0.152,0.145,0.281,0.148 c-0.055,0.215,0.098,0.309,0.25,0.359c-0.051-0.16-0.082-0.344,0.207-0.344c0.211,0,0.375-0.035,0.473-0.164 c0.008,0.172,0.023,0.852,0.023,0.852c0.012,0.254-0.363,0.246-0.598,0.172c0.09,0.293,0.27,0.453,0.695,0.414 C8.77,32.176,8.66,32.27,8.66,32.445c0,0.238,0.203,0.504,0.34,0.582c0.137-0.078,0.34-0.344,0.34-0.582 c0-0.18-0.109-0.27-0.211-0.309c0.426,0.039,0.605-0.121,0.695-0.414c-0.234,0.074-0.609,0.082-0.598-0.172 c0,0,0.016-0.68,0.023-0.852c0.098,0.129,0.262,0.164,0.473,0.164c0.289,0,0.258,0.184,0.207,0.344 c0.152-0.051,0.305-0.145,0.25-0.359c0.129-0.004,0.211-0.066,0.281-0.148c-0.086-0.09-0.184-0.137-0.281-0.148 c0.027-0.141-0.074-0.273-0.25-0.348c0.059,0.145,0.074,0.367-0.207,0.367c-0.117,0-0.199-0.082-0.199-0.227 c0-0.223,0.254-0.402,0.5-0.402C10.234,29.941,10.602,30.074,10.602,30.453z M8.043,29.584C8.431,29.563,8.858,29.329,9,28.902 c0.142,0.427,0.569,0.661,0.957,0.682C9.569,29.605,9.142,29.839,9,30.266C8.858,29.839,8.431,29.605,8.043,29.584z M10.496,28.293 c0.066,0.129,0.105,0.27,0.105,0.422c0,0.375-0.367,0.508-0.578,0.508c-0.246,0-0.5-0.176-0.5-0.402 c0-0.141,0.082-0.227,0.199-0.227c0.281,0,0.266,0.227,0.207,0.371c0.176-0.074,0.277-0.207,0.25-0.352 c0.098-0.012,0.195-0.055,0.281-0.148c-0.07-0.082-0.152-0.145-0.281-0.145c0.055-0.219-0.098-0.309-0.25-0.359 c0.051,0.156,0.082,0.34-0.207,0.34c-0.211,0-0.375,0.035-0.473,0.164c-0.008-0.172-0.023-0.852-0.023-0.852 c-0.012-0.254,0.363-0.246,0.598-0.172c-0.09-0.293-0.27-0.449-0.695-0.41c0.102-0.043,0.211-0.133,0.211-0.309 c0-0.242-0.203-0.504-0.34-0.582c-0.137,0.078-0.34,0.34-0.34,0.582c0,0.176,0.109,0.266,0.211,0.305 c-0.422-0.039-0.605,0.121-0.695,0.414c0.238-0.074,0.609-0.082,0.598,0.172c0,0-0.016,0.676-0.023,0.852 c-0.098-0.129-0.262-0.164-0.473-0.164c-0.285,0-0.254-0.184-0.207-0.34c-0.152,0.051-0.305,0.141-0.25,0.359 c-0.129,0-0.211,0.063-0.281,0.145c0.086,0.094,0.184,0.137,0.281,0.148c-0.027,0.145,0.074,0.277,0.25,0.352 c-0.059-0.145-0.074-0.371,0.207-0.371c0.117,0,0.199,0.086,0.199,0.227c0,0.227-0.254,0.402-0.5,0.402 c-0.211,0-0.578-0.133-0.578-0.508c0-0.152,0.039-0.293,0.105-0.422C7.809,27.676,8.793,25.711,9,25.297 C9.207,25.711,10.191,27.676,10.496,28.293z M9.598,23.988C9.612,23.993,9.632,23.995,9.647,24 c-0.015,0.005-0.035,0.007-0.049,0.012C9.285,24.043,9.066,24.273,9,24.387c-0.066-0.113-0.285-0.344-0.598-0.375 C8.389,24.007,8.369,24.005,8.354,24c0.015-0.005,0.034-0.007,0.048-0.012C8.715,23.957,8.934,23.727,9,23.613 C9.066,23.727,9.285,23.957,9.598,23.988z M10.602,19.285c0,0.152-0.039,0.293-0.105,0.422C10.191,20.324,9.207,22.289,9,22.703 c-0.207-0.414-1.191-2.379-1.496-2.996c-0.066-0.129-0.105-0.27-0.105-0.422c0-0.375,0.367-0.508,0.578-0.508 c0.246,0,0.5,0.176,0.5,0.402c0,0.141-0.082,0.227-0.199,0.227c-0.281,0-0.266-0.227-0.207-0.371 c-0.176,0.074-0.277,0.207-0.25,0.352c-0.098,0.012-0.195,0.055-0.281,0.148c0.07,0.082,0.152,0.145,0.281,0.145 c-0.055,0.219,0.098,0.309,0.25,0.359c-0.047-0.156-0.078-0.34,0.207-0.34c0.211,0,0.375-0.035,0.473-0.164 c0.008,0.176,0.023,0.852,0.023,0.852c0.012,0.254-0.359,0.246-0.598,0.172c0.09,0.293,0.273,0.453,0.695,0.414 C8.77,21.012,8.66,21.102,8.66,21.277c0,0.242,0.203,0.504,0.34,0.582c0.137-0.078,0.34-0.34,0.34-0.582 c0-0.176-0.109-0.266-0.211-0.309c0.426,0.039,0.605-0.117,0.695-0.41c-0.234,0.074-0.609,0.082-0.598-0.172 c0,0,0.016-0.68,0.023-0.852c0.098,0.129,0.262,0.164,0.473,0.164c0.289,0,0.258,0.184,0.207,0.34 c0.152-0.051,0.305-0.141,0.25-0.359c0.129,0,0.211-0.063,0.281-0.145c-0.086-0.094-0.184-0.137-0.281-0.148 c0.027-0.145-0.074-0.277-0.25-0.352c0.059,0.145,0.074,0.371-0.207,0.371c-0.117,0-0.199-0.086-0.199-0.227 c0-0.227,0.254-0.402,0.5-0.402C10.234,18.777,10.602,18.91,10.602,19.285z M8.043,18.416C8.431,18.395,8.858,18.161,9,17.734 c0.142,0.427,0.569,0.661,0.957,0.682C9.569,18.437,9.142,18.671,9,19.098C8.858,18.671,8.431,18.437,8.043,18.416z M10.023,18.059 c-0.246,0-0.5-0.18-0.5-0.402c0-0.145,0.082-0.227,0.199-0.227c0.281,0,0.266,0.223,0.207,0.367 c0.176-0.074,0.277-0.207,0.25-0.348c0.098-0.012,0.195-0.059,0.281-0.148c-0.07-0.082-0.152-0.145-0.281-0.148 c0.055-0.215-0.098-0.309-0.25-0.359c0.051,0.16,0.082,0.344-0.207,0.344c-0.211,0-0.375,0.035-0.473,0.164 c-0.008-0.172-0.023-0.852-0.023-0.852c-0.012-0.254,0.363-0.246,0.598-0.172c-0.09-0.293-0.27-0.453-0.695-0.414 c0.102-0.039,0.211-0.129,0.211-0.309c0-0.238-0.203-0.504-0.34-0.582c-0.137,0.078-0.34,0.344-0.34,0.582 c0,0.176,0.109,0.27,0.211,0.309c-0.426-0.039-0.605,0.121-0.695,0.414c0.234-0.074,0.609-0.082,0.598,0.172 c0,0-0.016,0.68-0.023,0.852c-0.098-0.129-0.262-0.164-0.473-0.164c-0.289,0-0.258-0.184-0.207-0.344 c-0.152,0.051-0.305,0.145-0.25,0.359c-0.129,0.004-0.211,0.066-0.281,0.148c0.086,0.09,0.184,0.137,0.281,0.148 c-0.027,0.141,0.074,0.273,0.25,0.348c-0.059-0.145-0.074-0.367,0.207-0.367c0.117,0,0.199,0.082,0.199,0.227 c0,0.223-0.254,0.402-0.5,0.402c-0.211,0-0.578-0.133-0.578-0.512c0-0.152,0.039-0.289,0.105-0.422 C7.809,16.508,8.793,14.543,9,14.133c0.207,0.41,1.191,2.375,1.496,2.992c0.066,0.133,0.105,0.27,0.105,0.422 C10.602,17.926,10.234,18.059,10.023,18.059z"/><path fill="#ffee58" d="M7.922,35.859c0.055,0.074,0.11,0.148,0.166,0.222c0.017-0.012,0.031-0.027,0.06-0.027 c0.082,0,0.156,0.023,0.156,0.137c0,0.036-0.027,0.074-0.052,0.11c0.055,0.07,0.104,0.144,0.16,0.214 c0.089-0.094,0.146-0.212,0.146-0.339c0-0.23-0.168-0.391-0.336-0.391c-0.051,0-0.129,0.02-0.176,0.051 c-0.031-0.063-0.016-0.148,0.02-0.211C7.948,35.656,7.875,35.722,7.922,35.859z"/></svg>