<svg xmlns="http://www.w3.org/2000/svg"  viewBox="0 0 48 48" width="30px" height="30px"><path fill="#43a047" d="M24,4C15.296,4,7.911,9.571,5.162,17.333h37.675C40.089,9.571,32.704,4,24,4z"/><path fill="#eceff1" d="M42.838,30.667C43.577,28.579,44,26.341,44,24c0-2.341-0.423-4.579-1.162-6.667H5.162 C4.423,19.421,4,21.659,4,24c0,2.341,0.423,4.579,1.162,6.667H42.838z"/><path fill="#e53935" d="M23.999,44h0.002c8.704,0,16.088-5.571,18.836-13.333H5.162C7.911,38.429,15.295,43.999,23.999,44z"/><path fill="#1976d2" d="M4,24c0,5.587,2.296,10.634,5.99,14.262L21.4,24L9.99,9.738C6.296,13.366,4,18.413,4,24z"/><path fill="#424242" d="M30.272,28.327c-0.006,0-0.013-0.001-0.019-0.004c-0.013-0.005-0.023-0.016-0.028-0.028 c-0.22-0.28-0.499-0.423-0.827-0.423h-1.056c-0.668,0-1.211-0.537-1.211-1.198v-6.508c0-0.027,0.022-0.05,0.05-0.05h6.188 c0.028,0,0.05,0.022,0.05,0.05v6.508c0,0.661-0.543,1.198-1.211,1.198h-1.057c-0.33,0-0.609,0.144-0.83,0.427 c-0.005,0.01-0.014,0.019-0.024,0.022c-0.001,0.001-0.003,0.002-0.005,0.002C30.285,28.326,30.279,28.327,30.272,28.327z M27.231,20.216v6.458c0,0.605,0.499,1.099,1.111,1.099h1.056c0.346,0,0.641,0.143,0.876,0.425 c0.236-0.282,0.53-0.425,0.876-0.425h1.057c0.613,0,1.111-0.493,1.111-1.099v-6.458H27.231z"/><path fill="#8d6e63" d="M29.522,22.697c0,0,0.479,0.117,0.503,0.841c0.023,0.725,0.07,1.952-0.444,3.296 c-0.082,0.257,0,0.654,0.549,0.432c0.222,0.339,0.432-0.012,0.432-0.012s0.561,0.175,0.386-0.28 c-0.175-0.456-0.432-1.145-0.432-2.244c0-1.098-0.14-1.496,0.771-1.975c0.07-0.117-0.035-0.292-0.035-0.292l-0.783,0.491 l0.035-0.491l-0.292,0.058l-0.023,0.386l-0.467-0.456L29.522,22.697z"/><path fill="#424242" d="M30.336,27.464c-0.082,0-0.157-0.046-0.225-0.137c-0.276,0.102-0.423,0.041-0.498-0.029 c-0.124-0.114-0.13-0.323-0.081-0.479c0.506-1.321,0.466-2.53,0.443-3.252l0-0.027c-0.022-0.675-0.447-0.79-0.465-0.794 l-0.076-0.02l0.282-0.35l0.428,0.418l0.02-0.314l0.394-0.079l-0.033,0.458l0.743-0.466l0.026,0.044 c0.005,0.008,0.119,0.203,0.035,0.343l-0.007,0.013l-0.012,0.006c-0.769,0.405-0.763,0.739-0.749,1.546 c0.002,0.118,0.004,0.246,0.004,0.386c0,1.11,0.269,1.809,0.43,2.226c0.054,0.14,0.049,0.244-0.014,0.311 c-0.099,0.107-0.31,0.068-0.398,0.046c-0.039,0.052-0.127,0.149-0.243,0.151C30.339,27.464,30.338,27.464,30.336,27.464z M30.149,27.205l0.022,0.034c0.054,0.083,0.11,0.125,0.165,0.125c0,0,0.001,0,0.002,0c0.083-0.002,0.159-0.098,0.181-0.135 l0.021-0.034l0.037,0.012c0.065,0.02,0.265,0.062,0.332-0.009c0.042-0.045,0.02-0.138-0.007-0.207 c-0.163-0.423-0.436-1.132-0.436-2.261c0-0.139-0.002-0.266-0.004-0.384c-0.015-0.821-0.021-1.198,0.789-1.629 c0.026-0.057,0.002-0.135-0.019-0.183l-0.82,0.514l0.038-0.524l-0.19,0.038l-0.027,0.457l-0.506-0.494l-0.121,0.149 c0.143,0.064,0.451,0.271,0.47,0.861l0.001,0.027c0.024,0.73,0.063,1.952-0.448,3.288c-0.038,0.119-0.038,0.288,0.054,0.373 c0.083,0.077,0.231,0.075,0.43-0.004L30.149,27.205z"/><path fill="#43a047" d="M29.92,22.475c0,0-0.047,0.584-0.444,0.538c0.105,0.526-0.596,0.409-0.923,0.07 c-0.199,0.269-0.818,0.187-0.748-0.117c0.07-0.304,0.631-0.327,0.631-0.327s0.093-0.245,0.269-0.28 c-0.175-0.327,0.035-0.771,0.362-0.76c-0.035-0.444,0.456-0.432,0.456-0.432s0.14-0.409,0.409-0.351 c0.28-0.339,0.795-0.175,0.853,0.339c0.386-0.164,0.421,0.245,0.421,0.245s0.386-0.444,0.725,0.012 c0.339-0.164,0.304,0.339,0.304,0.339s0.538-0.035,0.479,0.316c0.409,0.245,0.292,0.573,0.012,0.654 c-0.175,0.503-0.561,0.152-0.561,0.152s-0.608,0.362-0.725-0.058c-0.292,0.187-0.748-0.257-0.748-0.257 S30.095,22.615,29.92,22.475z"/><path fill="#424242" d="M29.193,23.421c-0.203,0-0.458-0.102-0.638-0.267c-0.156,0.157-0.448,0.177-0.634,0.092 c-0.132-0.061-0.193-0.17-0.166-0.292c0.068-0.295,0.52-0.353,0.646-0.363c0.029-0.062,0.106-0.206,0.233-0.263 c-0.072-0.178-0.055-0.391,0.049-0.558c0.081-0.129,0.199-0.207,0.331-0.22c0.001-0.115,0.036-0.21,0.106-0.283 c0.115-0.122,0.292-0.146,0.367-0.15c0.039-0.095,0.167-0.357,0.39-0.357c0.011,0,0.022,0,0.034,0.002 c0.137-0.149,0.332-0.21,0.517-0.153c0.202,0.06,0.35,0.24,0.396,0.478c0.104-0.032,0.194-0.026,0.269,0.018 c0.081,0.049,0.121,0.133,0.142,0.198c0.073-0.062,0.201-0.146,0.35-0.146c0.005,0,0.01,0,0.015,0 c0.127,0.005,0.243,0.07,0.345,0.193c0.084-0.031,0.155-0.028,0.214,0.011c0.107,0.073,0.124,0.248,0.125,0.339 c0.1,0.001,0.309,0.019,0.416,0.137c0.05,0.055,0.072,0.123,0.065,0.204c0.252,0.162,0.271,0.336,0.26,0.427 c-0.017,0.132-0.117,0.243-0.263,0.294c-0.058,0.152-0.143,0.244-0.253,0.271c-0.147,0.037-0.292-0.054-0.352-0.1 c-0.094,0.051-0.383,0.19-0.588,0.109c-0.072-0.029-0.126-0.082-0.159-0.158c-0.287,0.12-0.654-0.198-0.738-0.275 c-0.108,0.011-0.504,0.036-0.713-0.054c-0.02,0.111-0.073,0.316-0.212,0.43c-0.062,0.051-0.134,0.078-0.214,0.081 c0.019,0.195-0.081,0.28-0.146,0.314C29.333,23.408,29.267,23.421,29.193,23.421z M28.547,23.005l0.042,0.042 c0.206,0.215,0.582,0.335,0.752,0.244c0.084-0.044,0.113-0.134,0.086-0.269l-0.014-0.067l0.068,0.008 c0.077,0.012,0.145-0.009,0.203-0.056c0.159-0.13,0.186-0.434,0.186-0.437l0.008-0.094l0.073,0.059 c0.131,0.104,0.575,0.088,0.735,0.071l0.023-0.002l0.017,0.016c0.005,0.005,0.433,0.416,0.687,0.251l0.057-0.037l0.018,0.065 c0.021,0.076,0.061,0.125,0.121,0.149c0.159,0.064,0.437-0.064,0.53-0.12l0.031-0.019l0.028,0.024 c0,0.001,0.148,0.135,0.289,0.101c0.081-0.021,0.145-0.099,0.191-0.231l0.009-0.024l0.024-0.007 c0.121-0.035,0.204-0.119,0.216-0.219c0.016-0.119-0.072-0.245-0.24-0.346l-0.029-0.018l0.005-0.033 c0.011-0.064-0.001-0.115-0.037-0.154c-0.089-0.1-0.31-0.111-0.39-0.104l-0.057,0.004l0.004-0.058 c0.004-0.062-0.001-0.249-0.08-0.303c-0.036-0.023-0.086-0.019-0.152,0.013l-0.037,0.018l-0.024-0.032 c-0.088-0.119-0.187-0.182-0.292-0.186c-0.004,0-0.008,0-0.012,0c-0.186,0-0.341,0.175-0.343,0.177l-0.077,0.088l-0.011-0.116 c0-0.002-0.015-0.156-0.114-0.215c-0.057-0.034-0.137-0.031-0.237,0.011l-0.062,0.026l-0.008-0.066 c-0.026-0.228-0.154-0.402-0.334-0.456c-0.155-0.049-0.317,0.006-0.431,0.144l-0.02,0.023l-0.03-0.007 c-0.014-0.003-0.027-0.005-0.041-0.005c-0.197,0-0.309,0.319-0.31,0.323l-0.012,0.034l-0.037-0.001 c-0.004-0.003-0.213-0.003-0.329,0.12c-0.059,0.063-0.084,0.15-0.076,0.259l0.004,0.056l-0.056-0.002c-0.003,0-0.007,0-0.01,0 c-0.112,0-0.216,0.063-0.286,0.176c-0.096,0.153-0.104,0.354-0.021,0.511l0.032,0.06l-0.066,0.013 c-0.122,0.023-0.208,0.188-0.231,0.249l-0.012,0.031l-0.033,0.001c-0.005,0-0.523,0.025-0.584,0.288 c-0.022,0.096,0.047,0.149,0.11,0.179c0.162,0.074,0.438,0.046,0.549-0.103L28.547,23.005z"/><path fill="#424242" d="M26.189,27.024c-0.126,0-0.622-0.022-0.768-0.358c-0.096-0.222,0.037-0.647,0.165-1.06 c0.087-0.28,0.17-0.546,0.17-0.713c0-0.023,0.016-0.044,0.039-0.049c0.022-0.004,0.046,0.006,0.056,0.027 c0.003,0.005,0.28,0.568,0.631,0.885c0.387,0.35,0.176,0.758,0.174,0.762l-0.402,0.487c-0.009,0.011-0.022,0.018-0.037,0.018 C26.214,27.023,26.205,27.024,26.189,27.024z M25.839,25.062c-0.029,0.164-0.092,0.365-0.157,0.575 c-0.117,0.376-0.25,0.802-0.168,0.99c0.121,0.278,0.574,0.297,0.678,0.297l0.382-0.461c0.001-0.005,0.169-0.336-0.159-0.632 C26.16,25.601,25.947,25.256,25.839,25.062z"/><path fill="#424242" d="M26.612,26.545c-0.005,0-0.011-0.001-0.016-0.002c-0.006-0.002-0.148-0.051-0.43-0.216 c-0.042-0.023-0.098-0.05-0.135-0.026c-0.048,0.028-0.061,0.134-0.059,0.181c0.001,0.028-0.021,0.051-0.048,0.052 c0,0-0.001,0-0.001,0c-0.027,0-0.049-0.021-0.05-0.048c-0.001-0.021-0.003-0.204,0.107-0.271c0.063-0.039,0.142-0.029,0.236,0.026 c0.271,0.158,0.41,0.206,0.412,0.206c0.026,0.01,0.04,0.038,0.031,0.063C26.653,26.532,26.633,26.545,26.612,26.545z"/><path fill="#eceff1" d="M29.219,27.967c0,0-2.629,0.549-3.295-1.379c-0.012,0.421-0.304,0.912-0.304,0.912 s-0.058,1.519,3.518,1.519C29.195,28.61,29.219,27.967,29.219,27.967z"/><path fill="#424242" d="M29.137,29.069c-1.982,0-2.852-0.472-3.232-0.867c-0.344-0.357-0.335-0.69-0.335-0.704 c0-0.008,0.002-0.017,0.007-0.023c0.003-0.005,0.286-0.485,0.297-0.888c0-0.024,0.019-0.045,0.042-0.049 c0.029,0,0.047,0.011,0.055,0.033c0.645,1.865,3.212,1.354,3.238,1.348c0.015-0.004,0.031,0.001,0.042,0.011 s0.018,0.024,0.018,0.04c0,0.006-0.024,0.649-0.083,1.057C29.183,29.051,29.162,29.069,29.137,29.069z M25.669,27.514 c0.002,0.059,0.029,0.332,0.311,0.624c0.365,0.376,1.202,0.825,3.113,0.832c0.043-0.326,0.066-0.778,0.073-0.941 c-0.392,0.064-2.512,0.336-3.216-1.237C25.885,27.125,25.708,27.445,25.669,27.514z"/><path fill="#424242" d="M28.611,28.461c-0.005,0-0.01-0.001-0.014-0.002c-0.026-0.008-0.042-0.035-0.034-0.062 c0.021-0.071,0.116-0.196,0.322-0.176c0.005,0.001,0.011,0.001,0.017,0.001c0.168,0,0.27-0.269,0.271-0.271 c0.01-0.026,0.037-0.039,0.064-0.03c0.026,0.009,0.039,0.038,0.03,0.063c-0.005,0.016-0.13,0.365-0.392,0.337 c-0.175-0.017-0.211,0.092-0.215,0.104C28.652,28.447,28.632,28.461,28.611,28.461z"/><path fill="#424242" d="M34.369,27.024c-0.016,0-0.025-0.001-0.028-0.001c-0.014,0-0.027-0.007-0.037-0.018l-0.397-0.479 c-0.008-0.013-0.218-0.421,0.168-0.771c0.351-0.317,0.628-0.88,0.631-0.885c0.01-0.021,0.035-0.031,0.056-0.027 c0.023,0.005,0.039,0.025,0.039,0.049c0,0.167,0.083,0.433,0.17,0.713c0.128,0.412,0.261,0.838,0.165,1.06 C34.991,27.002,34.495,27.024,34.369,27.024z M34.719,25.062c-0.108,0.194-0.321,0.539-0.576,0.77 c-0.328,0.296-0.16,0.627-0.153,0.641l0.376,0.452c0.105,0,0.558-0.018,0.679-0.297c0.082-0.188-0.051-0.614-0.168-0.99 C34.812,25.427,34.749,25.226,34.719,25.062z"/><path fill="#424242" d="M33.946,26.545c-0.021,0-0.041-0.013-0.047-0.034c-0.009-0.025,0.005-0.054,0.031-0.063 c0.001,0,0.14-0.048,0.411-0.206c0.095-0.057,0.174-0.066,0.237-0.026c0.111,0.066,0.108,0.249,0.107,0.271 c0,0.026-0.023,0.048-0.05,0.048c0,0-0.001,0-0.001,0c-0.028-0.001-0.049-0.023-0.048-0.052c0.001-0.037-0.008-0.15-0.06-0.182 c-0.036-0.021-0.094,0.004-0.135,0.027c-0.281,0.165-0.423,0.214-0.43,0.216C33.957,26.544,33.951,26.545,33.946,26.545z"/><path fill="#eceff1" d="M31.34,27.967c0,0,2.629,0.549,3.295-1.379c0.012,0.421,0.304,0.912,0.304,0.912 s0.058,1.519-3.518,1.519C31.363,28.61,31.34,27.967,31.34,27.967z"/><path fill="#424242" d="M31.421,29.069c-0.025,0-0.046-0.019-0.049-0.043c-0.059-0.407-0.083-1.051-0.083-1.057 c0-0.016,0.006-0.03,0.018-0.04s0.025-0.017,0.042-0.011c0.026,0.006,2.594,0.518,3.238-1.348 c0.008-0.022,0.027-0.034,0.055-0.033c0.023,0.004,0.042,0.024,0.042,0.049c0.011,0.402,0.294,0.883,0.297,0.888 c0.004,0.007,0.007,0.016,0.007,0.023c0,0.014,0.009,0.347-0.335,0.704C34.273,28.598,33.403,29.069,31.421,29.069z M31.392,28.028c0.007,0.163,0.03,0.615,0.073,0.941c1.911-0.007,2.748-0.456,3.113-0.832c0.282-0.292,0.309-0.565,0.311-0.624 c-0.039-0.068-0.215-0.389-0.28-0.723C33.905,28.362,31.786,28.093,31.392,28.028z"/><path fill="#424242" d="M31.947,28.461c-0.021,0-0.042-0.014-0.048-0.035l0,0c-0.004-0.012-0.038-0.106-0.178-0.106 c-0.012,0-0.024,0-0.037,0.002c-0.259,0.029-0.386-0.321-0.392-0.337c-0.009-0.025,0.004-0.055,0.03-0.063 c0.026-0.011,0.055,0.004,0.064,0.03c0.001,0.003,0.1,0.271,0.27,0.271c0.006,0,0.011,0,0.017-0.001 c0.207-0.021,0.301,0.104,0.322,0.176c0.008,0.026-0.007,0.054-0.034,0.062C31.957,28.461,31.952,28.461,31.947,28.461z"/><polygon fill="#ffca28" points="31.067,18.304 31.252,18.618 31.617,18.621 31.437,18.939 31.617,19.256 31.252,19.259 31.067,19.574 30.882,19.259 30.517,19.256 30.697,18.939 30.517,18.621 30.882,18.618"/><path fill="#424242" d="M31.067,19.624c-0.018,0-0.034-0.009-0.043-0.024l-0.171-0.29l-0.337-0.003 c-0.018,0-0.034-0.01-0.043-0.024c-0.009-0.016-0.009-0.034,0-0.05l0.166-0.294l-0.166-0.293c-0.009-0.016-0.009-0.034,0-0.05 c0.009-0.015,0.025-0.024,0.043-0.024l0.337-0.003l0.171-0.29c0.018-0.031,0.068-0.031,0.086,0l0.171,0.29l0.337,0.003 c0.018,0,0.034,0.01,0.043,0.024c0.009,0.016,0.009,0.034,0,0.05l-0.166,0.293l0.166,0.294c0.009,0.016,0.009,0.034,0,0.05 c-0.009,0.015-0.025,0.024-0.043,0.024l-0.337,0.003L31.11,19.6C31.101,19.615,31.084,19.624,31.067,19.624z M30.602,19.207 l0.28,0.003c0.018,0,0.034,0.01,0.042,0.024l0.142,0.241l0.142-0.241c0.009-0.015,0.025-0.024,0.042-0.024l0.28-0.003 l-0.138-0.244c-0.009-0.015-0.009-0.034,0-0.049l0.138-0.243l-0.28-0.003c-0.018,0-0.034-0.01-0.042-0.024l-0.142-0.241 l-0.142,0.241c-0.009,0.015-0.025,0.024-0.042,0.024l-0.28,0.003l0.138,0.243c0.009,0.015,0.009,0.034,0,0.049L30.602,19.207z"/><polygon fill="#ffca28" points="29.509,18.304 29.694,18.618 30.059,18.621 29.879,18.939 30.059,19.256 29.694,19.259 29.509,19.574 29.324,19.259 28.959,19.256 29.139,18.939 28.959,18.621 29.324,18.618"/><path fill="#424242" d="M29.509,19.624c-0.018,0-0.034-0.009-0.043-0.024l-0.171-0.29l-0.337-0.003 c-0.018,0-0.034-0.01-0.043-0.024c-0.009-0.016-0.009-0.034,0-0.05l0.166-0.294l-0.166-0.293c-0.009-0.016-0.009-0.034,0-0.05 c0.009-0.015,0.025-0.024,0.043-0.024l0.337-0.003l0.171-0.29c0.018-0.031,0.068-0.031,0.086,0l0.171,0.29l0.337,0.003 c0.018,0,0.034,0.01,0.043,0.024c0.009,0.016,0.009,0.034,0,0.05l-0.166,0.293l0.166,0.294c0.009,0.016,0.009,0.034,0,0.05 c-0.009,0.015-0.025,0.024-0.043,0.024l-0.337,0.003l-0.171,0.29C29.543,19.615,29.526,19.624,29.509,19.624z M29.044,19.207 l0.28,0.003c0.018,0,0.034,0.01,0.042,0.024l0.142,0.241l0.142-0.241c0.009-0.015,0.025-0.024,0.042-0.024l0.28-0.003 l-0.138-0.244c-0.009-0.015-0.009-0.034,0-0.049l0.138-0.243l-0.28-0.003c-0.018,0-0.034-0.01-0.042-0.024l-0.142-0.241 l-0.142,0.241c-0.009,0.015-0.025,0.024-0.042,0.024l-0.28,0.003l0.138,0.243c0.009,0.015,0.009,0.034,0,0.049L29.044,19.207z"/><g><polygon fill="#ffca28" points="27.762,18.582 28.023,18.838 28.376,18.746 28.285,19.1 28.541,19.36 28.189,19.457 28.092,19.809 27.832,19.553 27.478,19.645 27.57,19.292 27.313,19.032 27.665,18.934"/><path fill="#424242" d="M28.092,19.859c-0.013,0-0.025-0.005-0.035-0.014l-0.24-0.236l-0.326,0.085 c-0.017,0.005-0.036,0-0.048-0.014c-0.013-0.013-0.018-0.03-0.013-0.048l0.084-0.326l-0.236-0.239 c-0.012-0.013-0.017-0.031-0.013-0.048c0.004-0.018,0.018-0.03,0.035-0.035l0.325-0.091l0.089-0.325 c0.005-0.017,0.018-0.03,0.035-0.034c0.019-0.007,0.036,0,0.048,0.013l0.24,0.236l0.326-0.086 c0.018-0.004,0.035,0.001,0.048,0.014s0.018,0.03,0.013,0.048l-0.084,0.326l0.236,0.24c0.012,0.013,0.017,0.031,0.013,0.048 c-0.005,0.018-0.018,0.031-0.035,0.035l-0.325,0.09l-0.089,0.325c-0.005,0.017-0.018,0.03-0.035,0.034 C28.101,19.859,28.097,19.859,28.092,19.859z M27.832,19.504c0.013,0,0.025,0.005,0.035,0.014l0.2,0.196l0.074-0.271 c0.005-0.017,0.018-0.03,0.035-0.034l0.27-0.074l-0.197-0.2c-0.012-0.013-0.017-0.03-0.013-0.048l0.07-0.271l-0.271,0.071 c-0.018,0.003-0.035-0.001-0.048-0.014l-0.2-0.196l-0.074,0.271c-0.005,0.017-0.018,0.03-0.035,0.034l-0.27,0.075l0.197,0.199 c0.012,0.013,0.017,0.03,0.013,0.048l-0.07,0.271l0.271-0.071C27.823,19.504,27.827,19.504,27.832,19.504z M27.666,18.935h0.001 H27.666z"/></g><g><polygon fill="#ffca28" points="26.199,19.05 26.506,19.247 26.833,19.085 26.816,19.45 27.12,19.652 26.796,19.819 26.773,20.184 26.465,19.986 26.138,20.148 26.156,19.784 25.852,19.582 26.176,19.414"/><path fill="#424242" d="M26.773,20.233c-0.009,0-0.019-0.003-0.027-0.008l-0.284-0.182l-0.302,0.149 c-0.016,0.006-0.035,0.005-0.049-0.003c-0.015-0.01-0.023-0.026-0.022-0.044l0.016-0.336l-0.281-0.187 c-0.015-0.01-0.023-0.027-0.022-0.045s0.011-0.033,0.027-0.041l0.299-0.155l0.021-0.336c0.001-0.018,0.011-0.033,0.027-0.042 c0.014-0.007,0.035-0.006,0.049,0.003l0.284,0.182l0.302-0.149c0.015-0.008,0.034-0.006,0.049,0.003 c0.015,0.01,0.023,0.026,0.022,0.044l-0.016,0.336l0.281,0.187c0.015,0.01,0.023,0.027,0.022,0.045s-0.011,0.033-0.027,0.041 l-0.299,0.155l-0.021,0.336c-0.001,0.018-0.011,0.033-0.027,0.042C26.789,20.231,26.781,20.233,26.773,20.233z M26.465,19.937 c0.009,0,0.019,0.003,0.027,0.008l0.236,0.151l0.018-0.279c0.001-0.018,0.011-0.033,0.027-0.041l0.249-0.129l-0.234-0.155 c-0.015-0.01-0.023-0.026-0.022-0.044l0.013-0.279l-0.251,0.124c-0.015,0.006-0.035,0.005-0.049-0.003l-0.236-0.151l-0.018,0.279 c-0.001,0.018-0.011,0.033-0.027,0.041l-0.249,0.13l0.233,0.154c0.015,0.01,0.023,0.026,0.022,0.044l-0.013,0.279l0.251-0.124 C26.45,19.938,26.458,19.937,26.465,19.937z M26.176,19.414h0.001H26.176z"/></g><g><polygon fill="#ffca28" points="32.808,18.582 32.548,18.838 32.195,18.746 32.286,19.1 32.03,19.36 32.382,19.457 32.479,19.809 32.739,19.553 33.092,19.645 33.001,19.292 33.257,19.032 32.905,18.934"/><path fill="#424242" d="M32.479,19.859c-0.004,0-0.009,0-0.013-0.002c-0.017-0.004-0.03-0.018-0.035-0.034l-0.089-0.325 l-0.324-0.09c-0.017-0.004-0.03-0.018-0.035-0.035c-0.004-0.017,0-0.035,0.013-0.048l0.236-0.24l-0.084-0.326 c-0.004-0.018,0-0.035,0.013-0.048s0.03-0.018,0.048-0.014l0.326,0.086l0.24-0.236c0.012-0.013,0.032-0.02,0.048-0.013 c0.018,0.004,0.031,0.018,0.036,0.034l0.089,0.325l0.325,0.091c0.017,0.005,0.031,0.018,0.035,0.035 c0.004,0.017,0,0.035-0.013,0.048l-0.236,0.239l0.084,0.326c0.004,0.018,0,0.035-0.013,0.048c-0.012,0.014-0.03,0.019-0.048,0.014 l-0.326-0.085l-0.24,0.236C32.504,19.854,32.491,19.859,32.479,19.859z M32.125,19.335l0.27,0.074 c0.017,0.004,0.03,0.018,0.035,0.034l0.074,0.271l0.2-0.196c0.013-0.012,0.031-0.018,0.048-0.013l0.271,0.071l-0.07-0.271 c-0.004-0.018,0-0.035,0.013-0.048l0.197-0.199l-0.27-0.075c-0.017-0.004-0.03-0.018-0.035-0.034l-0.074-0.271l-0.2,0.196 c-0.013,0.013-0.03,0.017-0.048,0.014l-0.271-0.071l0.07,0.271c0.004,0.018,0,0.035-0.013,0.048L32.125,19.335z"/></g><g><polygon fill="#ffca28" points="34.372,19.05 34.064,19.247 33.737,19.085 33.755,19.45 33.45,19.652 33.775,19.819 33.798,20.184 34.105,19.986 34.432,20.148 34.415,19.784 34.719,19.582 34.395,19.414"/><path fill="#424242" d="M33.798,20.233c-0.008,0-0.016-0.002-0.022-0.005c-0.016-0.009-0.026-0.024-0.027-0.042 l-0.021-0.336l-0.299-0.155c-0.016-0.008-0.026-0.023-0.027-0.041s0.007-0.035,0.022-0.045l0.281-0.187l-0.016-0.336 c-0.001-0.018,0.008-0.034,0.022-0.044c0.015-0.008,0.034-0.01,0.049-0.003l0.302,0.149l0.284-0.182 c0.014-0.009,0.034-0.01,0.049-0.003c0.016,0.009,0.026,0.024,0.027,0.042l0.021,0.336l0.299,0.155 c0.016,0.008,0.026,0.023,0.027,0.041s-0.007,0.035-0.022,0.045l-0.281,0.187l0.016,0.336c0.001,0.018-0.008,0.034-0.022,0.044 c-0.015,0.009-0.033,0.01-0.049,0.003l-0.302-0.149l-0.284,0.182C33.817,20.23,33.807,20.233,33.798,20.233z M33.549,19.646 l0.249,0.13c0.016,0.008,0.026,0.023,0.027,0.041l0.018,0.279l0.236-0.151c0.014-0.01,0.034-0.01,0.049-0.003l0.251,0.124 l-0.013-0.279c-0.001-0.018,0.007-0.034,0.022-0.044l0.233-0.154l-0.249-0.13c-0.016-0.008-0.026-0.023-0.027-0.041l-0.018-0.279 l-0.236,0.151c-0.015,0.008-0.034,0.009-0.049,0.003l-0.251-0.124l0.013,0.279c0.001,0.018-0.007,0.034-0.022,0.044L33.549,19.646 z"/></g><g><path fill="#eceff1" d="M28.623,28.517c0.561,0.444,3.031,0.53,3.331,0c-0.035,0.491,0,0.876,0,0.876 c-0.362,0.327-2.284,0.668-3.342,0C28.611,28.984,28.623,28.517,28.623,28.517z"/><path fill="#424242" d="M30.233,29.823c-0.587,0-1.201-0.105-1.649-0.389c-0.014-0.009-0.023-0.024-0.023-0.042 c0-0.404,0.011-0.872,0.012-0.877c0-0.02,0.011-0.036,0.029-0.044c0.016-0.011,0.037-0.007,0.052,0.006 c0.382,0.303,1.813,0.455,2.685,0.284c0.308-0.061,0.506-0.154,0.571-0.27c0.011-0.021,0.036-0.028,0.058-0.023 c0.022,0.007,0.037,0.028,0.035,0.052c-0.034,0.48,0,0.863,0,0.867c0.001,0.016-0.004,0.031-0.016,0.042 C31.762,29.634,31.022,29.823,30.233,29.823z M28.661,29.365c1.051,0.641,2.868,0.299,3.241,0.006 c-0.006-0.085-0.023-0.364-0.006-0.716c-0.112,0.088-0.292,0.156-0.538,0.204c-0.789,0.154-2.168,0.058-2.687-0.25 C28.667,28.761,28.661,29.076,28.661,29.365z"/></g></svg>