<svg xmlns="http://www.w3.org/2000/svg"  viewBox="0 0 48 48" width="100px" height="100px"><circle cx="23.989" cy="24" r="20" fill="#fbc02d"/><circle cx="23.989" cy="24" r="18.011" fill="#d50000"/><polygon fill="#fbc02d" points="32.221,27.351 32.193,27.744 31.868,27.5 31.719,27.961 32.139,27.961 31.936,28.462 32.315,28.57 32.383,28.015 32.654,28.232 32.789,27.853 32.424,27.798 32.613,27.487"/><path fill="#ef6c00" d="M32.315,28.62c-0.004,0-0.009,0-0.014-0.002l-0.379-0.108c-0.014-0.004-0.025-0.014-0.031-0.026 s-0.007-0.027-0.001-0.04l0.175-0.433h-0.346c-0.016,0-0.031-0.008-0.041-0.021s-0.012-0.029-0.007-0.045l0.149-0.461 c0.005-0.016,0.017-0.027,0.032-0.032c0.015-0.004,0.033-0.002,0.045,0.008l0.251,0.188l0.021-0.301 c0.001-0.015,0.009-0.029,0.022-0.038c0.013-0.007,0.031-0.01,0.043-0.005l0.393,0.136c0.015,0.005,0.026,0.016,0.031,0.03 c0.005,0.014,0.004,0.029-0.004,0.043l-0.15,0.247l0.291,0.042c0.015,0.003,0.028,0.011,0.036,0.024 c0.008,0.013,0.009,0.028,0.004,0.042l-0.136,0.379c-0.005,0.016-0.018,0.027-0.033,0.031c-0.017,0.007-0.033,0.001-0.045-0.009 l-0.201-0.16l-0.057,0.466c-0.002,0.015-0.01,0.027-0.022,0.036C32.335,28.617,32.325,28.62,32.315,28.62z M32.003,28.429 l0.27,0.077l0.061-0.496c0.002-0.019,0.014-0.033,0.031-0.04c0.018-0.009,0.036-0.004,0.05,0.007l0.216,0.172l0.091-0.255 l-0.305-0.045c-0.017-0.003-0.031-0.014-0.038-0.028c-0.007-0.016-0.006-0.033,0.003-0.048l0.157-0.258l-0.272-0.095l-0.023,0.328 c-0.001,0.018-0.012,0.034-0.029,0.042c-0.018,0.008-0.036,0.006-0.051-0.006l-0.269-0.202l-0.106,0.329h0.351 c0.017,0,0.032,0.008,0.042,0.021c0.009,0.015,0.011,0.031,0.005,0.047L32.003,28.429z"/><circle cx="31.774" cy="29.735" r="1.395" fill="#1e88e5"/><path fill="#ef6c00" d="M31.773,31.229c-0.824,0-1.495-0.67-1.495-1.494s0.671-1.495,1.495-1.495s1.495,0.671,1.495,1.495 S32.598,31.229,31.773,31.229z M31.773,28.439c-0.714,0-1.295,0.582-1.295,1.296s0.581,1.295,1.295,1.295s1.295-0.581,1.295-1.295 S32.487,28.439,31.773,28.439z"/><polygon fill="#fbc02d" points="30.541,28.977 31.57,29.221 31.855,28.259 32.505,28.476 32.288,29.356 33.223,29.64 33.02,30.399 30.297,29.722"/><path fill="#ef6c00" d="M33.02,30.449c-0.004,0-0.008,0-0.012-0.001l-2.722-0.678c-0.013-0.004-0.025-0.013-0.032-0.024 c-0.006-0.013-0.008-0.026-0.003-0.04l0.244-0.745c0.008-0.024,0.035-0.04,0.059-0.033l0.983,0.233l0.271-0.917 c0.004-0.013,0.013-0.023,0.025-0.029s0.027-0.007,0.039-0.004l0.65,0.217c0.025,0.009,0.039,0.034,0.033,0.06l-0.205,0.835 l0.889,0.271c0.026,0.008,0.041,0.035,0.034,0.061l-0.203,0.759C33.062,30.435,33.042,30.449,33.02,30.449z M30.362,29.687 l2.622,0.652l0.178-0.664l-0.888-0.271c-0.025-0.008-0.04-0.034-0.034-0.06l0.206-0.836l-0.557-0.187l-0.27,0.913 c-0.007,0.025-0.033,0.041-0.06,0.034l-0.984-0.233L30.362,29.687z"/><path fill="#fbc02d" d="M27.674,30.327c0,0,2.023,0.939,2.348,1.192c0.325,0.253,0.325,0.451,0.921,0.217 c0.596-0.235,2.348-0.885,2.348-0.885s0.09-0.722-0.126-1.174c-0.253,0.74-0.451,0.993-0.451,0.993s-0.199,0.181-0.488,0.181 s0.163-0.361,0.163-0.361s0.144-0.542-0.036-0.993c-0.108,0.397-0.253,0.451-0.253,0.451L31.81,30.2c0,0-0.217,0.758-0.831,0.542 c-0.614-0.217-0.524-1.535-0.524-1.535l-0.217,0.397c0,0-0.253,0.181-0.235,0.488c0.018,0.307,0.433,0.867,0.433,0.867h-0.289 l-2.095-1.716L27.674,30.327z"/><path fill="#ef6c00" d="M30.527,31.939c-0.176,0-0.278-0.083-0.41-0.205c-0.044-0.041-0.094-0.088-0.157-0.137 c-0.25-0.194-1.632-0.856-2.328-1.18c-0.047-0.021-0.069-0.075-0.052-0.124l0.379-1.084c0.011-0.03,0.036-0.055,0.067-0.063 c0.032-0.006,0.065-0.001,0.09,0.02l2.067,1.693h0.062c-0.131-0.198-0.328-0.53-0.341-0.762c-0.019-0.308,0.189-0.504,0.256-0.559 l0.207-0.38c0.023-0.042,0.07-0.061,0.116-0.048s0.075,0.056,0.072,0.103c-0.023,0.346,0.014,1.277,0.458,1.434 c0.135,0.048,0.253,0.044,0.361-0.01c0.239-0.123,0.339-0.462,0.34-0.465c0.005-0.019,0.016-0.035,0.03-0.048l0.289-0.253 c0.009-0.008,0.02-0.015,0.031-0.019l0,0c-0.001,0,0.104-0.064,0.191-0.384c0.012-0.041,0.048-0.071,0.091-0.073 c0.037,0.006,0.083,0.022,0.099,0.062c0.191,0.477,0.046,1.032,0.04,1.056c-0.005,0.021-0.018,0.039-0.034,0.053 c-0.074,0.059-0.147,0.131-0.188,0.182c0.223-0.013,0.375-0.146,0.384-0.152l0,0c-0.002,0,0.187-0.257,0.424-0.952 c0.013-0.038,0.048-0.065,0.089-0.067c0.043-0.007,0.079,0.02,0.096,0.057c0.227,0.472,0.139,1.198,0.135,1.229 c-0.004,0.037-0.029,0.068-0.064,0.081c-0.018,0.007-1.757,0.652-2.346,0.884C30.781,31.906,30.639,31.939,30.527,31.939z M27.798,30.274c0.389,0.182,1.989,0.935,2.285,1.165c0.068,0.053,0.122,0.104,0.17,0.148c0.17,0.158,0.233,0.217,0.652,0.055 c0.529-0.208,1.981-0.749,2.291-0.864c0.012-0.137,0.031-0.485-0.037-0.797c-0.208,0.541-0.361,0.741-0.369,0.75 c-0.021,0.021-0.242,0.219-0.566,0.219c-0.125,0-0.172-0.057-0.188-0.104c-0.036-0.101,0.052-0.24,0.262-0.412 c0.019-0.086,0.065-0.338,0.033-0.606c-0.071,0.13-0.14,0.184-0.176,0.204l-0.259,0.226c-0.034,0.1-0.16,0.418-0.431,0.558 c-0.156,0.083-0.332,0.088-0.52,0.022c-0.451-0.16-0.565-0.808-0.59-1.239l-0.029,0.055c-0.007,0.014-0.018,0.024-0.03,0.033 c-0.008,0.006-0.208,0.154-0.193,0.4c0.014,0.228,0.303,0.664,0.414,0.813c0.022,0.03,0.026,0.07,0.009,0.104 s-0.052,0.055-0.089,0.055h-0.289c-0.023,0-0.045-0.008-0.063-0.022l-1.984-1.625L27.798,30.274z"/><path fill="#fbc02d" d="M22.13,31.591c0,0-0.777,1.065-1.336,1.21c0.289,0.524,1.047,0.289,1.047,0.289 s-0.379,0.433-0.488,0.849c0.614-0.09,1.029-0.343,1.029-0.343s-0.253,0.379-0.253,0.849c0.451-0.325,0.903-0.379,0.903-0.379 s-0.379,0.524-0.054,1.029c0.307-0.397,0.632-0.578,0.632-0.578s0.108,0.74,0.506,1.138c0.397-0.506,0.578-1.156,0.578-1.156 l0.506,0.578c0,0,0.542-0.596,0.217-1.011c0.614,0.343,0.74,0.47,0.74,0.47s0.163-0.451-0.036-0.758 c0.506,0.199,0.867,0.126,0.867,0.126s-0.036-0.542-0.361-0.777c0.668,0.09,0.939-0.271,0.939-0.271s-1.174-0.578-1.535-1.354 S22.13,31.591,22.13,31.591z"/><path fill="#ef6c00" d="M24.117,35.754c-0.026,0-0.052-0.01-0.071-0.029c-0.308-0.308-0.45-0.796-0.505-1.042 c-0.117,0.086-0.304,0.241-0.483,0.474c-0.02,0.026-0.051,0.034-0.083,0.038c-0.032-0.001-0.062-0.019-0.08-0.046 c-0.231-0.359-0.147-0.721-0.054-0.938c-0.165,0.048-0.41,0.141-0.652,0.315c-0.031,0.021-0.071,0.025-0.104,0.008 c-0.034-0.017-0.055-0.052-0.055-0.089c0-0.245,0.064-0.466,0.129-0.628c-0.188,0.079-0.461,0.173-0.791,0.221 c-0.033,0.008-0.066-0.007-0.089-0.032c-0.022-0.024-0.031-0.06-0.022-0.092c0.066-0.252,0.222-0.505,0.344-0.677 c-0.273,0.023-0.685-0.007-0.895-0.388c-0.015-0.026-0.017-0.059-0.004-0.088c0.012-0.028,0.037-0.049,0.067-0.057 c0.431-0.111,1.07-0.884,1.28-1.172c0.014-0.02,0.034-0.033,0.057-0.038c0.371-0.092,3.631-0.863,4.016-0.035 c0.342,0.734,1.477,1.3,1.488,1.306c0.027,0.014,0.046,0.038,0.053,0.066c0.007,0.029,0,0.06-0.017,0.083 c-0.011,0.015-0.241,0.312-0.774,0.326c0.188,0.277,0.215,0.637,0.216,0.655c0.003,0.05-0.031,0.095-0.08,0.104 c-0.013,0.004-0.295,0.058-0.711-0.06c0.07,0.301-0.039,0.611-0.045,0.628c-0.012,0.032-0.039,0.056-0.072,0.063 c-0.033,0.01-0.068-0.003-0.093-0.026c-0.003-0.004-0.097-0.091-0.469-0.311c0.049,0.41-0.323,0.827-0.343,0.849 c-0.019,0.021-0.046,0.032-0.074,0.032c0,0,0,0-0.001,0c-0.028,0-0.056-0.013-0.074-0.034l-0.39-0.445 c-0.082,0.232-0.257,0.659-0.54,1.02c-0.018,0.022-0.044,0.036-0.073,0.038C24.121,35.754,24.119,35.754,24.117,35.754z M23.611,34.417c0.015,0,0.03,0.003,0.044,0.01c0.029,0.015,0.05,0.043,0.055,0.075c0.001,0.007,0.093,0.612,0.4,0.994 c0.331-0.468,0.486-1.019,0.488-1.024c0.01-0.036,0.038-0.062,0.074-0.071c0.034-0.01,0.073,0.004,0.097,0.032l0.427,0.487 c0.123-0.166,0.344-0.534,0.142-0.794c-0.029-0.037-0.028-0.091,0.003-0.127c0.031-0.035,0.084-0.045,0.125-0.021 c0.332,0.186,0.524,0.31,0.633,0.386c0.028-0.143,0.046-0.367-0.062-0.532c-0.023-0.037-0.021-0.084,0.006-0.118 c0.027-0.033,0.071-0.046,0.114-0.029c0.324,0.127,0.584,0.137,0.718,0.13c-0.026-0.155-0.101-0.458-0.307-0.606 c-0.037-0.026-0.051-0.075-0.034-0.118c0.017-0.042,0.063-0.066,0.106-0.062c0.399,0.05,0.637-0.063,0.755-0.149 c-0.32-0.177-1.151-0.682-1.455-1.335c-0.235-0.506-2.41-0.188-3.751,0.137c-0.124,0.165-0.722,0.939-1.238,1.171 c0.285,0.315,0.855,0.146,0.861,0.144c0.044-0.012,0.089,0.005,0.113,0.041c0.024,0.038,0.021,0.087-0.009,0.12 c-0.003,0.004-0.276,0.319-0.415,0.655c0.496-0.101,0.825-0.298,0.829-0.301c0.039-0.022,0.091-0.019,0.124,0.017 c0.032,0.034,0.037,0.086,0.011,0.125c-0.002,0.003-0.169,0.259-0.221,0.599c0.402-0.237,0.759-0.283,0.776-0.285 c0.045,0.004,0.078,0.016,0.098,0.049c0.02,0.034,0.018,0.077-0.005,0.109c-0.012,0.018-0.276,0.394-0.117,0.791 c0.283-0.326,0.552-0.478,0.564-0.484C23.577,34.421,23.594,34.417,23.611,34.417z"/><path fill="#fbc02d" d="M22.527,30.543c0,0-0.397,0.361-0.542,0.885c-0.144,0.524,0.072,0.488,0.072,0.488l0.47-0.343 c0,0-0.217,0.506-0.054,0.722s0.524-0.325,0.524-0.325s-0.181,0.65,0.108,0.795c0.289,0.144,0.56-0.632,0.56-0.632 s0.036,1.228,0.451,1.246s0.65-0.777,0.596-1.318c0.199,0.722,0.47,0.867,0.578,0.795c0.108-0.072-0.018-0.903-0.018-0.903 s0.361,0.524,0.542,0.433c0.181-0.09-0.072-0.813-0.072-0.813s0.379,0.325,0.542,0.307s-0.144-0.777-0.144-0.777l-0.704-0.939 L22.527,30.543z"/><path fill="#ef6c00" d="M24.13,33.479c-0.006,0-0.012,0-0.018-0.001c-0.336-0.015-0.467-0.553-0.517-0.952 c-0.082,0.143-0.189,0.285-0.313,0.335c-0.076,0.031-0.152,0.026-0.222-0.007c-0.191-0.097-0.228-0.335-0.218-0.546 c-0.083,0.075-0.177,0.135-0.268,0.138c-0.059-0.002-0.136-0.03-0.182-0.092c-0.103-0.137-0.09-0.347-0.053-0.521l-0.223,0.163 c-0.013,0.009-0.027,0.015-0.042,0.018c-0.044,0.004-0.116-0.005-0.169-0.063c-0.086-0.096-0.091-0.275-0.016-0.549 c0.15-0.546,0.553-0.918,0.57-0.934c0.015-0.014,0.034-0.022,0.055-0.025l2.908-0.379c0.031-0.001,0.071,0.012,0.093,0.04 l0.704,0.939c0.005,0.007,0.009,0.014,0.013,0.022c0.102,0.251,0.259,0.694,0.171,0.842c-0.024,0.041-0.062,0.065-0.108,0.071 c-0.101,0.011-0.244-0.062-0.369-0.142c0.067,0.268,0.094,0.557-0.067,0.637c-0.136,0.071-0.303-0.043-0.442-0.186 c0.057,0.563-0.034,0.624-0.071,0.648c-0.058,0.038-0.129,0.045-0.205,0.017c-0.083-0.031-0.216-0.123-0.35-0.392 c-0.048,0.291-0.154,0.581-0.316,0.753C24.373,33.423,24.254,33.479,24.13,33.479z M23.665,32.033c0.005,0,0.01,0,0.015,0.001 c0.048,0.007,0.083,0.048,0.085,0.096c0.014,0.458,0.136,1.14,0.356,1.149c0.003,0,0.006,0,0.009,0 c0.069,0,0.136-0.034,0.199-0.102c0.197-0.208,0.324-0.705,0.284-1.107c-0.005-0.052,0.03-0.099,0.081-0.108 c0.056-0.011,0.102,0.022,0.115,0.072c0.156,0.565,0.334,0.697,0.386,0.725c0.023,0.012,0.04,0.018,0.042,0.012 c0.02-0.056-0.011-0.466-0.062-0.804c-0.007-0.046,0.019-0.091,0.062-0.107c0.043-0.019,0.092-0.003,0.119,0.036 c0.159,0.229,0.349,0.401,0.41,0.401c0.002,0,0.004,0,0.006-0.001c0.04-0.053-0.016-0.384-0.123-0.689 c-0.015-0.043,0-0.09,0.038-0.115c0.037-0.026,0.087-0.023,0.122,0.006c0.14,0.119,0.329,0.247,0.425,0.277 c-0.004-0.106-0.08-0.37-0.181-0.621l-0.661-0.883l-2.817,0.367c-0.082,0.082-0.375,0.397-0.491,0.817 c-0.061,0.22-0.047,0.312-0.036,0.346l0.422-0.309c0.038-0.025,0.086-0.024,0.121,0.003c0.036,0.028,0.048,0.076,0.03,0.117 c-0.075,0.175-0.159,0.499-0.066,0.623c0.002,0,0.004,0,0.007,0c0.091,0,0.252-0.17,0.354-0.321 c0.027-0.041,0.081-0.055,0.125-0.035c0.045,0.021,0.068,0.07,0.055,0.117c-0.051,0.187-0.105,0.598,0.057,0.679 c0.019,0.01,0.035,0.011,0.057,0.001c0.13-0.053,0.291-0.368,0.363-0.576C23.585,32.06,23.623,32.033,23.665,32.033z M22.058,31.916h0.002H22.058z"/><path fill="#fbc02d" d="M23.196,28.864l-0.397,0.74c0,0-0.488,0.451-0.506,0.813s0.144,0.578,0.47,0.307 c-0.235,0.686,0.181,0.65,0.506,0.307c-0.181,0.885,0.433,0.957,0.596,0.271c0.072,0.885,0.614,0.65,0.596,0.018 c0.307,0.614,0.777,0.451,0.578-0.235c0.415,0.56,0.777,0.199,0.578-0.397c0.524,0.524,0.578-0.289,0.361-0.578 c-0.217-0.289-0.415-0.488-0.415-0.488l-0.415-0.939L23.196,28.864z"/><path fill="#ef6c00" d="M24.167,31.982c-0.074,0-0.244-0.035-0.341-0.333c-0.118,0.175-0.275,0.231-0.4,0.207 c-0.157-0.035-0.307-0.209-0.29-0.584c-0.157,0.103-0.308,0.127-0.416,0.062c-0.111-0.067-0.15-0.203-0.116-0.405 c-0.093,0.03-0.167,0.015-0.219-0.012c-0.135-0.067-0.206-0.252-0.193-0.506c0.019-0.367,0.444-0.792,0.525-0.869l0.39-0.726 c0.016-0.03,0.045-0.05,0.079-0.053l1.95-0.181c0.036-0.005,0.083,0.02,0.101,0.06l0.408,0.922 c0.049,0.05,0.222,0.232,0.411,0.485c0.164,0.218,0.2,0.687,0.012,0.85c-0.053,0.047-0.153,0.095-0.3,0.024 c0.021,0.238-0.049,0.428-0.199,0.506c-0.049,0.025-0.192,0.078-0.385-0.056c0.001,0.235-0.098,0.364-0.208,0.407 c-0.112,0.045-0.284,0.016-0.448-0.174c-0.057,0.217-0.187,0.365-0.349,0.374C24.176,31.982,24.172,31.982,24.167,31.982z M23.864,31.202c0.002,0,0.005,0,0.007,0c0.049,0.004,0.088,0.042,0.092,0.092c0.029,0.36,0.136,0.488,0.203,0.488 c0.001,0,0.002,0,0.003,0c0.073-0.004,0.199-0.161,0.191-0.459c-0.001-0.047,0.03-0.089,0.076-0.1 c0.048-0.012,0.094,0.011,0.114,0.052c0.14,0.279,0.293,0.346,0.354,0.321c0.062-0.024,0.127-0.177,0.038-0.484 c-0.013-0.046,0.008-0.096,0.052-0.117c0.043-0.021,0.096-0.009,0.125,0.03c0.164,0.22,0.297,0.262,0.359,0.228 c0.093-0.048,0.134-0.261,0.044-0.534c-0.015-0.044,0.003-0.092,0.042-0.116c0.041-0.023,0.091-0.019,0.124,0.015 c0.114,0.114,0.213,0.165,0.251,0.132c0.088-0.076,0.079-0.418-0.042-0.579c-0.209-0.279-0.404-0.476-0.406-0.478 c-0.009-0.009-0.016-0.019-0.021-0.03l-0.387-0.872l-1.825,0.169l-0.372,0.692c-0.005,0.01-0.012,0.019-0.02,0.026 c-0.127,0.118-0.461,0.481-0.474,0.744c-0.009,0.186,0.035,0.293,0.083,0.317c0.044,0.019,0.127-0.013,0.223-0.093 c0.034-0.028,0.083-0.03,0.121-0.005c0.037,0.025,0.053,0.072,0.038,0.114c-0.096,0.28-0.063,0.39-0.033,0.407 c0.047,0.03,0.205-0.024,0.371-0.2c0.031-0.032,0.079-0.042,0.119-0.021c0.04,0.021,0.061,0.065,0.052,0.108 c-0.083,0.409,0.019,0.592,0.103,0.61c0.074,0.011,0.227-0.087,0.297-0.383C23.777,31.233,23.818,31.202,23.864,31.202z M22.798,29.604h0.002H22.798z"/><path fill="#fbc02d" d="M16.523,30.887c-0.664-0.637-0.447-1.409-0.447-1.409s-0.623-0.284-0.284-0.718 c-0.921-0.542-0.813-2.167-0.935-2.749c-0.122-0.582-0.623-0.731-0.623-0.731s0.19-0.23,0.582-0.122 c0-0.217,0.298-0.352,0.298-0.352s-0.122,0.691,0.081,1.084s1.178,1.937,1.002,2.668c0.42,0.19,0.325,0.664,0.325,0.664 s0.596,0.488,0.596,1.449C17.119,31.631,16.523,30.887,16.523,30.887z"/><path fill="#ef6c00" d="M16.917,31.262c-0.204,0-0.414-0.241-0.467-0.308c-0.575-0.555-0.526-1.2-0.487-1.424 c-0.109-0.063-0.309-0.206-0.36-0.414c-0.026-0.109-0.01-0.219,0.05-0.327c-0.68-0.479-0.772-1.539-0.834-2.25 c-0.018-0.206-0.033-0.384-0.059-0.508c-0.108-0.515-0.536-0.65-0.554-0.656c-0.032-0.01-0.057-0.035-0.067-0.066 c-0.009-0.032-0.003-0.067,0.019-0.093c0.008-0.011,0.199-0.236,0.582-0.178c0.075-0.204,0.322-0.318,0.334-0.324 c0.034-0.016,0.074-0.011,0.103,0.012c0.029,0.022,0.044,0.06,0.038,0.097c-0.001,0.007-0.114,0.663,0.071,1.021 c0.03,0.059,0.078,0.143,0.136,0.245c0.348,0.616,0.983,1.742,0.89,2.414c0.291,0.172,0.339,0.488,0.32,0.681 c0.144,0.137,0.589,0.632,0.589,1.487c0,0.215-0.023,0.509-0.223,0.579C16.97,31.258,16.943,31.262,16.917,31.262z M14.435,25.262 c0.176,0.102,0.434,0.315,0.52,0.729c0.029,0.136,0.044,0.319,0.063,0.531c0.061,0.7,0.153,1.758,0.825,2.152 c0.025,0.015,0.042,0.039,0.047,0.067s-0.001,0.058-0.02,0.08c-0.068,0.088-0.092,0.169-0.073,0.247 c0.038,0.157,0.244,0.283,0.32,0.318c0.044,0.021,0.068,0.07,0.055,0.117c-0.008,0.029-0.19,0.726,0.42,1.311 c0.003,0.003,0.006,0.007,0.009,0.01c0.103,0.129,0.264,0.268,0.329,0.235c0.033-0.012,0.089-0.106,0.089-0.39 c0-0.904-0.553-1.367-0.559-1.372c-0.028-0.023-0.042-0.061-0.035-0.097c0.003-0.016,0.072-0.399-0.268-0.554 c-0.044-0.02-0.067-0.067-0.056-0.114c0.141-0.583-0.532-1.774-0.855-2.347c-0.06-0.106-0.108-0.192-0.139-0.252 c-0.142-0.275-0.139-0.672-0.118-0.92c-0.041,0.042-0.072,0.091-0.072,0.143c0,0.031-0.015,0.061-0.04,0.079 c-0.025,0.02-0.059,0.024-0.087,0.018C14.63,25.208,14.513,25.23,14.435,25.262z"/><path fill="#fbc02d" d="M19.764,29.55l-0.993,0.415l0.722,0.09c0,0-0.524,0.506-0.867,0.506s-1.336-0.054-1.517,0 c-0.181,0.054-1.047,0.361-1.047,0.867c0,0.506,0.506,0.433,0.506,0.433s-0.325,0.343,0.253,0.614 c-0.09,0.524,0.957,0.451,1.21,0.09c0.253-0.361,0.271-0.722,0.668-1.084s1.661-1.011,1.661-1.011l0.018-0.849L19.764,29.55z"/><path fill="#ef6c00" d="M17.303,32.95c-0.123,0-0.237-0.018-0.328-0.056c-0.169-0.069-0.261-0.198-0.26-0.36 c-0.192-0.103-0.304-0.229-0.332-0.375c-0.014-0.076-0.003-0.145,0.016-0.202c-0.086-0.013-0.188-0.044-0.273-0.117 c-0.109-0.095-0.164-0.232-0.164-0.411c0-0.623,1.073-0.949,1.119-0.963c0.132-0.042,0.546-0.031,1.117-0.015 c0.174,0.006,0.329,0.011,0.428,0.011c0.181,0,0.449-0.184,0.634-0.335l-0.501-0.062c-0.045-0.006-0.081-0.041-0.087-0.086 s0.019-0.089,0.061-0.105l0.993-0.416c0.016-0.007,0.035-0.007,0.05-0.008l0.614,0.072c0.051,0.006,0.089,0.05,0.088,0.102 l-0.018,0.849c-0.001,0.037-0.021,0.07-0.054,0.087c-0.013,0.007-1.257,0.648-1.64,0.997c-0.23,0.209-0.323,0.416-0.423,0.636 c-0.063,0.141-0.128,0.285-0.23,0.432C17.964,32.835,17.61,32.95,17.303,32.95z M16.568,31.762c0.037,0,0.071,0.021,0.089,0.054 c0.02,0.038,0.013,0.084-0.016,0.114c0,0.001-0.081,0.09-0.061,0.193c0.019,0.094,0.116,0.184,0.283,0.262 c0.041,0.02,0.064,0.063,0.056,0.107c-0.011,0.065-0.01,0.159,0.132,0.218c0.262,0.108,0.758-0.003,0.897-0.201 c0.091-0.13,0.15-0.261,0.212-0.398c0.103-0.229,0.21-0.465,0.47-0.702c0.36-0.327,1.382-0.869,1.63-0.999l0.015-0.698 l-0.498-0.059l-0.622,0.261l0.35,0.043c0.039,0.005,0.07,0.031,0.083,0.068c0.012,0.036,0.002,0.076-0.025,0.104 c-0.057,0.055-0.563,0.533-0.937,0.533c-0.101,0-0.258-0.004-0.435-0.01c-0.374-0.011-0.941-0.027-1.053,0.006 c-0.272,0.081-0.976,0.377-0.976,0.771c0,0.117,0.032,0.205,0.095,0.26c0.112,0.097,0.295,0.074,0.296,0.074 C16.559,31.762,16.563,31.762,16.568,31.762z"/><path fill="#fbc02d" d="M23.159,28.719c0,0-0.975,0.578-1.806,1.842c-0.307-0.271-0.307-1.228-0.307-1.228 s-0.975,0.072-1.427-0.397c0.65-0.199,1.499-0.686,1.643-1.3C21.408,27.022,23.159,28.719,23.159,28.719z"/><path fill="#ef6c00" d="M21.354,30.661c-0.024,0-0.048-0.009-0.066-0.024c-0.279-0.246-0.33-0.929-0.339-1.2 c-0.274,0.013-1.008-0.023-1.4-0.431c-0.024-0.025-0.033-0.061-0.024-0.095c0.009-0.033,0.034-0.06,0.067-0.07 c0.667-0.204,1.445-0.676,1.575-1.228c0.024-0.103,0.087-0.173,0.177-0.199c0.024-0.008,0.051-0.011,0.08-0.011 c0.496,0,1.583,1.028,1.807,1.244c0.022,0.022,0.033,0.053,0.029,0.084c-0.003,0.031-0.021,0.059-0.048,0.074 c-0.009,0.006-0.967,0.582-1.773,1.811c-0.016,0.024-0.042,0.041-0.07,0.044C21.362,30.661,21.358,30.661,21.354,30.661z M21.046,29.233c0.025,0,0.049,0.009,0.068,0.026c0.021,0.019,0.032,0.046,0.032,0.073c0,0.223,0.038,0.792,0.199,1.061 c0.66-0.965,1.382-1.506,1.653-1.689c-0.555-0.522-1.357-1.159-1.6-1.099c-0.01,0.003-0.028,0.009-0.039,0.053 c-0.153,0.653-0.974,1.109-1.541,1.316c0.45,0.311,1.211,0.258,1.219,0.259C21.042,29.233,21.044,29.233,21.046,29.233z"/><path fill="#fbc02d" d="M21.227,30.146l-1.282,0.957c0,0-0.217-0.777,0.126-1.3c-0.307,0.054-1.084-0.361-1.084-0.361 l1.21-0.47l1.77,0.054L21.227,30.146z"/><path fill="#ef6c00" d="M19.945,31.203c-0.011,0-0.022-0.001-0.032-0.005c-0.031-0.011-0.055-0.036-0.064-0.068 c-0.009-0.03-0.188-0.693,0.056-1.231c-0.364-0.052-0.895-0.332-0.964-0.369c-0.034-0.019-0.055-0.055-0.052-0.094 c0.002-0.039,0.027-0.073,0.063-0.087l1.21-0.469c0.013-0.005,0.028-0.001,0.039-0.007l1.77,0.054 c0.036,0.001,0.069,0.021,0.086,0.054s0.015,0.071-0.005,0.101l-0.741,1.12c-0.006,0.01-0.015,0.019-0.023,0.025l-1.282,0.957 C19.987,31.196,19.966,31.203,19.945,31.203z M20.071,29.703c0.033,0,0.065,0.017,0.083,0.045c0.022,0.033,0.022,0.076,0,0.109 c-0.229,0.351-0.186,0.833-0.145,1.072l1.143-0.853l0.632-0.956l-1.57-0.048l-0.98,0.38c0.291,0.137,0.667,0.283,0.819,0.251 C20.06,29.703,20.065,29.703,20.071,29.703z M21.227,30.146h0.002H21.227z"/><path fill="#fbc02d" d="M25.191,28.719c0,0,0.975,0.578,1.806,1.842c0.307-0.271,0.307-1.228,0.307-1.228 s0.975,0.072,1.427-0.397c-0.65-0.199-1.499-0.686-1.643-1.3C26.943,27.022,25.191,28.719,25.191,28.719z"/><path fill="#ef6c00" d="M26.997,30.661c-0.004,0-0.009,0-0.013-0.001c-0.029-0.003-0.055-0.02-0.07-0.044 c-0.807-1.229-1.764-1.805-1.773-1.811c-0.027-0.016-0.045-0.043-0.048-0.074c-0.004-0.031,0.007-0.062,0.029-0.084 c0.236-0.229,1.437-1.377,1.887-1.233c0.09,0.026,0.153,0.097,0.177,0.199c0.13,0.552,0.908,1.023,1.575,1.228 c0.033,0.011,0.059,0.037,0.067,0.07c0.009,0.034,0,0.069-0.024,0.095c-0.393,0.407-1.132,0.443-1.4,0.431 c-0.009,0.271-0.06,0.954-0.339,1.2C27.045,30.652,27.021,30.661,26.997,30.661z M25.352,28.704 c0.271,0.184,0.993,0.725,1.653,1.689c0.161-0.269,0.199-0.838,0.199-1.061c0-0.027,0.012-0.055,0.032-0.073 c0.02-0.02,0.044-0.029,0.075-0.026c0.009,0.001,0.77,0.053,1.219-0.259c-0.566-0.207-1.387-0.663-1.541-1.316 c-0.011-0.044-0.028-0.05-0.039-0.053C26.716,27.547,25.907,28.182,25.352,28.704z"/><path fill="#fbc02d" d="M27.123,30.146l1.282,0.957c0,0,0.217-0.777-0.126-1.3c0.307,0.054,1.084-0.361,1.084-0.361 l-1.21-0.47l-1.77,0.054L27.123,30.146z"/><path fill="#ef6c00" d="M28.406,31.203c-0.021,0-0.042-0.007-0.06-0.02l-1.282-0.957c-0.009-0.007-0.017-0.016-0.023-0.025 l-0.741-1.12c-0.02-0.029-0.022-0.068-0.005-0.101s0.05-0.053,0.086-0.054l1.77-0.054c0.014,0.005,0.026,0.002,0.039,0.007 l1.21,0.469c0.037,0.014,0.062,0.048,0.063,0.087c0.002,0.039-0.018,0.075-0.052,0.094c-0.07,0.037-0.6,0.317-0.964,0.369 c0.245,0.538,0.065,1.201,0.056,1.231c-0.009,0.032-0.033,0.058-0.064,0.068C28.428,31.202,28.417,31.203,28.406,31.203z M27.197,30.077l1.143,0.853c0.041-0.239,0.083-0.723-0.145-1.072c-0.022-0.033-0.022-0.076,0-0.109s0.06-0.053,0.101-0.044 c0.158,0.037,0.53-0.114,0.82-0.251l-0.981-0.38l-1.57,0.048L27.197,30.077z"/><path fill="#fbc02d" d="M16.568,30.941c0,0-0.163,0.47,0.163,0.578c0.325,0.108,0.488-0.524,0.488-0.524 s0.361,0.036,0.253,0.47c-0.108,0.433-0.722,0.397-0.722,0.397"/><path fill="#ef6c00" d="M16.785,31.962c-0.023,0-0.039-0.001-0.042-0.001c-0.055-0.003-0.097-0.05-0.094-0.105 c0.003-0.055,0.043-0.104,0.105-0.094c0.003,0.002,0.533,0.024,0.619-0.321c0.028-0.113,0.022-0.2-0.018-0.26 c-0.02-0.028-0.046-0.048-0.071-0.061c-0.048,0.139-0.152,0.376-0.324,0.47c-0.083,0.045-0.173,0.052-0.261,0.023 c-0.101-0.033-0.178-0.1-0.223-0.191c-0.104-0.209-0.013-0.483-0.003-0.514c0.019-0.053,0.073-0.083,0.127-0.062 c0.052,0.019,0.08,0.075,0.062,0.127c-0.021,0.062-0.063,0.247-0.007,0.361c0.022,0.044,0.056,0.072,0.107,0.09 c0.036,0.013,0.068,0.01,0.102-0.009c0.135-0.073,0.233-0.353,0.257-0.445c0.013-0.047,0.066-0.071,0.106-0.074 c0.019,0.002,0.187,0.022,0.29,0.169c0.076,0.108,0.093,0.252,0.05,0.425C17.458,31.929,16.94,31.962,16.785,31.962z"/><path fill="#fbc02d" d="M17.651,31.681c0,0,0.415,0.09,0,0.415c-0.415,0.325-0.65,0.307-0.65,0.307"/><path fill="#ef6c00" d="M17.009,32.504c-0.007,0-0.013-0.001-0.016-0.001c-0.055-0.004-0.096-0.053-0.092-0.107 c0.004-0.056,0.047-0.105,0.107-0.092l0,0l0,0c0.007,0,0.217-0.001,0.581-0.286c0.156-0.122,0.146-0.177,0.146-0.177 c-0.005-0.022-0.062-0.053-0.106-0.062c-0.054-0.013-0.087-0.065-0.075-0.119c0.012-0.054,0.062-0.091,0.119-0.076 c0.022,0.005,0.221,0.053,0.258,0.213c0.027,0.119-0.044,0.243-0.218,0.38C17.324,32.48,17.076,32.504,17.009,32.504z"/><path fill="#fbc02d" d="M17.39,32.566c0,0,0.298,0.677,0.176,0.989c0.366-0.054,0.433-0.244,0.433-0.244l0.339,0.271 l-0.068-0.461l0.488-0.135c0,0-0.637-0.217-0.907-0.704C17.579,31.794,17.39,32.566,17.39,32.566z"/><path fill="#ef6c00" d="M18.338,33.682c-0.022,0-0.044-0.007-0.062-0.021l-0.256-0.205 c-0.07,0.074-0.201,0.163-0.439,0.198c-0.035,0.007-0.07-0.009-0.093-0.036c-0.022-0.028-0.028-0.065-0.015-0.099 c0.087-0.224-0.096-0.734-0.174-0.912c-0.009-0.02-0.011-0.042-0.006-0.063c0.028-0.115,0.137-0.492,0.352-0.521 c0.112-0.011,0.208,0.057,0.293,0.211c0.249,0.448,0.847,0.657,0.853,0.659c0.042,0.015,0.069,0.054,0.068,0.098 c-0.001,0.044-0.031,0.082-0.073,0.094l-0.403,0.111l0.055,0.373c0.006,0.041-0.014,0.081-0.049,0.102 C18.372,33.678,18.355,33.682,18.338,33.682z M17.495,32.559c0.054,0.129,0.218,0.549,0.198,0.864 c0.171-0.056,0.211-0.144,0.213-0.148c0.012-0.028,0.038-0.052,0.068-0.06c0.03-0.007,0.062-0.002,0.087,0.018l0.141,0.112 l-0.031-0.209c-0.007-0.05,0.024-0.098,0.072-0.111l0.22-0.061c-0.221-0.116-0.527-0.322-0.7-0.634 c-0.057-0.103-0.092-0.11-0.092-0.11C17.63,32.224,17.545,32.378,17.495,32.559z"/><path fill="#fbc02d" d="M17.597,18.751c0,0-0.542-1.499-0.596-3.756c-0.975,1.3-0.144,4.19-0.144,4.19 s-1.084-1.625-0.885-3.178c-0.614,1.463-0.325,3.341,0.686,4.461c0,0-1.463-1.409-1.571-2.889 c-0.524,2.095,1.269,4.041,1.643,4.063c0,0-1.77-1.084-2.275-2.564c-0.072,1.824,1.372,2.835,2.095,3.088 c-0.831-0.199-2.293-1.354-2.293-1.354s0.144,1.535,2.257,1.986c-0.795-0.018-1.878-0.415-2.275-0.831 c0.488,1.246,1.878,1.734,2.673,1.806c-0.65,0.144-2.438-0.578-2.438-0.578s0.289,1.264,2.655,1.264 c-0.795,0.307-2.095,0-2.095,0s0.65,1.228,2.799,0.74c-0.903,0.433-2.149,0.307-2.149,0.307s0.506,1.463,2.546,0.271 c-1.156,0.74-1.824,0.795-1.824,0.795s0.65,1.156,2.438-0.054c-1.011,0.686-1.535,0.813-1.535,0.813s1.156,0.993,2.275-0.488 c-0.542,0.704-0.939,1.138-0.939,1.138s1.391,0.47,2.095-1.192c-0.307,0.885-0.722,1.372-0.722,1.372s0.849,0.343,1.282-0.74 c0.433-1.084-2.149-3.142-2.149-3.142l-1.102-2.528L17.597,18.751z"/><path fill="#ef6c00" d="M20.327,28.311c-0.197,0.001-0.338-0.055-0.347-0.059c-0.03-0.012-0.052-0.038-0.06-0.069 s0-0.063,0.021-0.088c0.002-0.003,0.102-0.122,0.239-0.346c-0.723,0.598-1.556,0.33-1.567,0.325 c-0.032-0.011-0.057-0.037-0.065-0.069c-0.009-0.033,0-0.068,0.023-0.093c0.002-0.002,0.096-0.105,0.253-0.29 c-0.146,0.066-0.297,0.108-0.452,0.125c-0.65,0.076-1.11-0.325-1.129-0.342c-0.029-0.024-0.041-0.062-0.032-0.1 c0.009-0.036,0.037-0.064,0.073-0.073c0.002-0.001,0.065-0.018,0.188-0.065c-0.147,0.006-0.283-0.004-0.415-0.035 c-0.514-0.121-0.73-0.497-0.739-0.513c-0.017-0.029-0.017-0.065-0.001-0.096c0.016-0.03,0.046-0.05,0.08-0.053 c0.003,0,0.176-0.017,0.492-0.128c-0.205,0.008-0.393-0.02-0.565-0.084c-0.551-0.204-0.728-0.7-0.735-0.722 c-0.011-0.032-0.005-0.067,0.016-0.095c0.021-0.025,0.054-0.036,0.089-0.037c0.007,0.002,0.398,0.04,0.894-0.004 c-1.207-0.105-1.621-0.855-1.643-0.896c-0.019-0.035-0.015-0.077,0.009-0.108s0.062-0.046,0.102-0.036 c0.008,0.002,0.577,0.134,1.179,0.134c0.008,0,0.017,0,0.025,0c-1.631-0.261-1.873-1.231-1.884-1.278 c-0.008-0.036,0.004-0.074,0.033-0.099s0.066-0.031,0.103-0.017c0.009,0.004,0.467,0.188,0.995,0.35 c-0.557-0.292-1.088-0.752-1.36-1.448c-0.017-0.044-0.001-0.095,0.04-0.12c0.041-0.025,0.093-0.02,0.126,0.015 c0.203,0.212,0.608,0.423,1.056,0.575c-1.1-0.647-1.208-1.64-1.209-1.652c-0.004-0.04,0.017-0.078,0.052-0.098 c0.036-0.018,0.078-0.017,0.11,0.01c0.008,0.006,0.414,0.325,0.913,0.653c-0.499-0.526-0.917-1.289-0.876-2.312 c0.002-0.048,0.038-0.088,0.085-0.095c0.049-0.011,0.094,0.021,0.109,0.066c0.198,0.579,0.6,1.101,1.009,1.516 c-0.391-0.642-0.88-1.762-0.569-3.007c0.012-0.048,0.054-0.077,0.106-0.075c0.049,0.004,0.087,0.043,0.091,0.093 c0.045,0.618,0.339,1.229,0.658,1.724c-0.392-1.047-0.401-2.288,0.035-3.327c0.02-0.045,0.071-0.068,0.118-0.058 c0.048,0.013,0.08,0.06,0.073,0.109c-0.118,0.922,0.234,1.881,0.525,2.485c-0.185-0.954-0.375-2.636,0.325-3.568 c0.026-0.035,0.071-0.049,0.11-0.036c0.041,0.014,0.069,0.051,0.07,0.094c0.053,2.212,0.584,3.709,0.59,3.724 c0.002,0.007,0.004,0.013,0.005,0.02l0.45,2.984l1.086,2.494c0.259,0.209,2.6,2.142,2.16,3.241 c-0.156,0.391-0.383,0.652-0.674,0.776C20.578,28.292,20.443,28.311,20.327,28.311z M20.188,28.101 c0.235,0.041,0.725,0.018,1.019-0.719c0.333-0.831-1.417-2.467-2.119-3.026c-0.013-0.01-0.022-0.023-0.029-0.038l-1.102-2.528 c-0.003-0.008-0.006-0.017-0.007-0.025l-0.45-2.988c-0.044-0.127-0.495-1.472-0.586-3.443c-0.66,1.342,0.032,3.799,0.04,3.825 c0.014,0.047-0.009,0.098-0.054,0.118c-0.046,0.018-0.098,0.005-0.125-0.035c-0.039-0.058-0.812-1.234-0.915-2.554 c-0.299,1.302,0.029,2.777,0.874,3.713c0.036,0.04,0.034,0.102-0.005,0.14c-0.038,0.037-0.1,0.037-0.139,0 c-0.053-0.051-1.132-1.104-1.493-2.359c-0.067,1.195,0.557,2.201,0.861,2.616c0.131,0.18,0.256,0.324,0.367,0.437 c0.266,0.203,0.453,0.319,0.458,0.323c0.039,0.023,0.057,0.071,0.043,0.115c-0.014,0.044-0.057,0.064-0.101,0.069 c-0.122-0.007-0.311-0.137-0.52-0.345c-0.476-0.362-1.198-0.998-1.628-1.795c0.195,1.502,1.475,2.283,2.006,2.469 c0.05,0.018,0.078,0.072,0.062,0.123s-0.067,0.083-0.119,0.069c-0.656-0.157-1.667-0.873-2.112-1.205 c0.14,0.439,0.606,1.318,2.12,1.642c0.05,0.011,0.084,0.058,0.078,0.109c-0.006,0.051-0.048,0.088-0.099,0.088 c0,0-0.001,0-0.002,0c-0.638-0.014-1.463-0.27-1.989-0.587c0.596,0.95,1.789,1.308,2.398,1.363 c0.049,0.005,0.087,0.044,0.09,0.093c0.003,0.05-0.03,0.094-0.078,0.104c-0.539,0.124-1.771-0.308-2.276-0.498 c0.191,0.34,0.777,0.987,2.472,0.987c0.048,0,0.089,0.034,0.098,0.081c0.009,0.048-0.017,0.095-0.062,0.112 c-0.606,0.233-1.47,0.129-1.897,0.055c0.284,0.31,1.017,0.841,2.543,0.494c0.05-0.014,0.1,0.017,0.116,0.064 c0.017,0.049-0.005,0.102-0.051,0.123c-0.724,0.348-1.643,0.35-2.025,0.328c0.086,0.142,0.255,0.35,0.545,0.456 c0.459,0.168,1.06,0.04,1.783-0.383c0.047-0.028,0.107-0.013,0.136,0.034c0.028,0.046,0.014,0.106-0.031,0.136 c-0.839,0.538-1.426,0.721-1.699,0.781c0.093,0.101,0.262,0.237,0.523,0.298c0.462,0.105,1.027-0.062,1.679-0.505 c0.044-0.032,0.107-0.021,0.139,0.027c0.031,0.045,0.019,0.107-0.027,0.139c-0.669,0.453-1.127,0.666-1.369,0.76 c0.172,0.1,0.47,0.228,0.823,0.188c0.397-0.043,0.771-0.284,1.111-0.716c0.013-0.017,0.026-0.033,0.039-0.05 c0-0.001,0-0.001,0-0.001l0,0c0,0,0,0,0,0c0.033-0.046,0.096-0.055,0.14-0.019c0.044,0.033,0.052,0.096,0.019,0.14 c-0.014,0.019-0.028,0.036-0.042,0.054c-0.352,0.454-0.641,0.793-0.792,0.965c0.367,0.061,1.287,0.077,1.817-1.173 c0.021-0.051,0.077-0.071,0.128-0.055c0.05,0.02,0.076,0.075,0.058,0.127C20.61,27.466,20.332,27.901,20.188,28.101z"/><path fill="#fbc02d" d="M18.699,20.412c0,0-1.264-1.968-1.192-2.691c-0.488,0.307-0.614,0.975-0.361,1.625 c-0.397-0.74-0.415-0.831-0.415-0.831s-0.415,0.668,0.036,1.499c-0.361-0.686-0.433-0.704-0.433-0.704s-0.343,0.849,0.524,1.571 c-0.668-0.668-0.795-0.74-0.795-0.74s-0.343,0.777,0.65,1.409c-0.596-0.289-0.813-0.488-0.813-0.488s-0.126,1.047,0.957,1.409 c-0.614-0.253-0.903-0.271-0.903-0.271s-0.108,0.921,1.192,1.029c-0.704,0.018-0.867,0.09-0.867,0.09s0.253,0.668,1.047,0.722 c-0.722,0.126-0.65,0.758,0.542,0.686c-0.903,0.343-0.253,0.867,0.704,0.632c-0.813,0.199-0.758,0.831,0.415,0.524 c-0.849,0.542-0.253,1.011,0.686,0.47c-0.397,0.361-0.578,1.156,1.138,0.199c1.716-0.957,0.072-1.535,0.072-1.535l-1.95-1.571 l-0.451-1.625L18.699,20.412z"/><path fill="#ef6c00" d="M19.636,27.108c-0.13,0-0.223-0.04-0.28-0.118c-0.072-0.1-0.058-0.24,0.005-0.381 c-0.423,0.151-0.735,0.084-0.841-0.091c-0.035-0.058-0.104-0.229,0.102-0.463c-0.294,0.032-0.513-0.009-0.624-0.122 c-0.066-0.067-0.089-0.158-0.063-0.249c0.017-0.059,0.052-0.115,0.104-0.167c-0.354-0.014-0.627-0.136-0.689-0.337 c-0.021-0.067-0.034-0.208,0.136-0.354c-0.495-0.041-0.701-0.234-0.723-0.415c-0.014-0.114,0.046-0.243,0.195-0.34 c-0.568-0.192-0.763-0.691-0.773-0.717c-0.019-0.05,0.005-0.105,0.054-0.127c0.01-0.004,0.072-0.028,0.249-0.053 c-0.171-0.077-0.31-0.181-0.416-0.31c-0.256-0.313-0.218-0.662-0.216-0.677c0.006-0.053,0.062-0.082,0.105-0.088 c0.006,0,0.067,0.004,0.187,0.03c-0.412-0.472-0.347-1.072-0.346-1.08c0.004-0.037,0.029-0.068,0.064-0.082 c0.035-0.013,0.074-0.006,0.103,0.02c0.001,0.001,0.037,0.033,0.116,0.089c-0.311-0.51-0.115-0.97-0.112-0.976 c0.011-0.026,0.033-0.046,0.06-0.055c0.027-0.011,0.057-0.006,0.081,0.008c0.009,0.006,0.041,0.025,0.119,0.094 c-0.145-0.48,0.006-0.869,0.009-0.875c0.019-0.047,0.07-0.07,0.118-0.06c0.017,0.004,0.042,0.011,0.099,0.082 c-0.023-0.483,0.177-0.812,0.189-0.832c0.021-0.035,0.062-0.056,0.103-0.046c0.041,0.008,0.072,0.039,0.081,0.079l0,0 c0,0,0.013,0.039,0.089,0.192c0.001-0.447,0.188-0.834,0.536-1.053c0.032-0.02,0.074-0.02,0.106,0 c0.032,0.021,0.051,0.057,0.047,0.095c-0.057,0.564,0.83,2.087,1.176,2.627c0.013,0.021,0.019,0.045,0.015,0.069l-0.213,1.388 l0.437,1.573l1.913,1.541c0.112,0.042,0.72,0.292,0.758,0.736c0.027,0.323-0.252,0.651-0.831,0.974 C20.3,26.953,19.895,27.108,19.636,27.108z M19.674,26.254c0.031,0,0.062,0.014,0.081,0.041c0.03,0.041,0.024,0.099-0.013,0.133 c-0.177,0.161-0.271,0.379-0.223,0.445c0.051,0.072,0.376,0.076,1.245-0.407c0.497-0.277,0.749-0.548,0.729-0.782 c-0.025-0.292-0.472-0.512-0.642-0.571c-0.011-0.004-0.021-0.01-0.029-0.017l-1.951-1.571c-0.017-0.014-0.028-0.031-0.034-0.052 l-0.451-1.625c-0.004-0.014-0.005-0.027-0.002-0.042l0.21-1.371c-0.155-0.245-1.073-1.721-1.18-2.514 c-0.315,0.308-0.389,0.84-0.175,1.39c0.019,0.049-0.003,0.104-0.051,0.127c-0.048,0.021-0.105,0.004-0.13-0.044 c-0.142-0.264-0.254-0.481-0.328-0.632c-0.081,0.235-0.154,0.664,0.104,1.165c0.007,0.014,0.014,0.027,0.021,0.041 c0.026,0.049,0.007,0.109-0.041,0.135c-0.049,0.026-0.11,0.008-0.135-0.04c-0.008-0.015-0.015-0.028-0.022-0.043 c-0.13-0.244-0.218-0.395-0.277-0.486c-0.036,0.228-0.032,0.635,0.308,1.04c0.071,0.069,0.151,0.148,0.24,0.238 c0.038,0.037,0.039,0.099,0.003,0.138c-0.036,0.038-0.097,0.044-0.138,0.01c-0.097-0.081-0.179-0.163-0.249-0.246 c-0.215-0.209-0.347-0.33-0.427-0.399c-0.041,0.23-0.029,0.721,0.649,1.152c0.045,0.028,0.06,0.087,0.034,0.133 c-0.026,0.045-0.085,0.063-0.131,0.041c-0.325-0.157-0.541-0.289-0.671-0.379c0.019,0.273,0.136,0.775,0.716,1.046 c0.057,0.021,0.118,0.045,0.182,0.071c0.05,0.021,0.074,0.077,0.056,0.128c-0.02,0.05-0.074,0.079-0.125,0.06 c-0.067-0.022-0.13-0.047-0.189-0.074c-0.279-0.105-0.472-0.153-0.581-0.175c0.01,0.105,0.047,0.271,0.173,0.425 c0.184,0.222,0.495,0.353,0.926,0.389c0.053,0.004,0.093,0.05,0.092,0.103s-0.044,0.096-0.098,0.097 c-0.394,0.011-0.612,0.037-0.725,0.058c0.102,0.176,0.368,0.519,0.91,0.556c0.05,0.003,0.09,0.044,0.093,0.095 c0.002,0.05-0.033,0.095-0.083,0.104c-0.262,0.046-0.393,0.162-0.382,0.247c0.014,0.113,0.264,0.28,0.901,0.241 c0.002,0,0.004,0,0.006,0c0.047,0,0.088,0.032,0.098,0.078c0.01,0.049-0.016,0.098-0.062,0.115 c-0.282,0.106-0.386,0.228-0.364,0.299c0.039,0.123,0.428,0.284,1.005,0.143c0.001,0,0.002,0,0.003,0 c0.055-0.015,0.108,0.019,0.121,0.073c0.013,0.053-0.02,0.107-0.073,0.12l0,0l0,0c-0.287,0.07-0.444,0.195-0.469,0.282 c-0.006,0.022-0.002,0.038,0.014,0.055c0.06,0.062,0.299,0.13,0.821-0.007c0.047-0.01,0.097,0.012,0.117,0.057 c0.02,0.045,0.003,0.098-0.038,0.124c-0.294,0.188-0.399,0.367-0.35,0.447c0.06,0.098,0.404,0.158,0.933-0.148 C19.64,26.258,19.657,26.254,19.674,26.254z"/><path fill="#fbc02d" d="M21.336,24.295c0,0-0.578-0.126-0.831-0.704c-0.885,0.126-1.102-0.253-1.084-0.524 c0.018-0.271,0.795-0.361,0.758-1.029c-0.036-0.668-1.3-1.3-1.427-2.366c-0.307,0.217-0.163,0.65-0.163,0.65 s-0.578-0.217-0.74-0.018s0.235,0.686,0.235,0.686s-0.578-0.307-0.813-0.054c-0.235,0.253,0.144,0.56,0.144,0.56 s-0.451,0.126-0.433,0.361c0.018,0.235,0.596,0.415,0.596,0.415s-0.542,0.126-0.433,0.343c0.108,0.217,0.578,0.415,0.578,0.415 s-0.397,0.253-0.235,0.47s0.596,0.343,0.596,0.343s-0.163,0.235,0.018,0.361c0.181,0.126,0.56,0.072,0.56,0.072 s-0.217,0.271,0.018,0.451c0.235,0.181,0.704,0.126,0.704,0.126s-0.199,0.397,0.09,0.56c0.289,0.163,0.686-0.072,0.686-0.072 s-0.126,0.722,0.831,0.542S21.336,24.295,21.336,24.295z"/><path fill="#ef6c00" d="M20.711,26.013c-0.214,0-0.38-0.057-0.495-0.17c-0.107-0.105-0.145-0.238-0.156-0.343 c-0.159,0.062-0.417,0.126-0.634,0.002c-0.222-0.125-0.231-0.36-0.187-0.54c-0.005,0-0.01,0-0.016,0 c-0.172,0-0.436-0.023-0.605-0.154c-0.083-0.064-0.134-0.148-0.146-0.244c-0.007-0.062,0.002-0.122,0.019-0.175 c-0.005,0.001-0.01,0.001-0.014,0.001c-0.137,0-0.314-0.02-0.433-0.103c-0.151-0.106-0.145-0.265-0.102-0.386 c-0.149-0.056-0.409-0.172-0.536-0.342c-0.05-0.066-0.068-0.144-0.054-0.224c0.021-0.113,0.104-0.213,0.181-0.284 c-0.16-0.082-0.396-0.227-0.479-0.392c-0.032-0.064-0.033-0.132-0.004-0.195c0.041-0.086,0.138-0.151,0.238-0.198 c-0.184-0.087-0.393-0.225-0.407-0.401c-0.016-0.209,0.197-0.342,0.353-0.41c-0.064-0.077-0.131-0.187-0.14-0.31 c-0.007-0.102,0.028-0.198,0.103-0.278c0.159-0.17,0.417-0.146,0.623-0.089c-0.096-0.176-0.167-0.394-0.05-0.538 c0.146-0.176,0.479-0.122,0.688-0.064c-0.017-0.171,0.006-0.424,0.235-0.586c0.028-0.02,0.066-0.022,0.098-0.01 c0.032,0.015,0.055,0.045,0.059,0.08c0.066,0.553,0.466,0.994,0.819,1.384c0.317,0.35,0.59,0.651,0.608,0.988 c0.026,0.472-0.301,0.688-0.54,0.846c-0.105,0.07-0.214,0.143-0.218,0.196c-0.004,0.062,0.005,0.183,0.114,0.284 c0.109,0.101,0.345,0.207,0.856,0.134c0.047-0.012,0.088,0.017,0.106,0.059c0.229,0.525,0.755,0.646,0.76,0.646 c0.031,0.007,0.057,0.028,0.07,0.058c0.015,0.035,0.37,0.861,0.102,1.368c-0.102,0.192-0.276,0.313-0.519,0.359 C20.902,26.003,20.802,26.013,20.711,26.013z M20.161,25.243c0.02,0,0.04,0.006,0.057,0.018c0.032,0.021,0.048,0.061,0.042,0.099 c0,0.002-0.034,0.214,0.098,0.343c0.112,0.109,0.324,0.142,0.615,0.083c0.182-0.034,0.306-0.117,0.379-0.255 c0.192-0.363-0.025-0.983-0.091-1.151c-0.15-0.046-0.58-0.213-0.816-0.68c-0.435,0.054-0.752-0.014-0.947-0.194 c-0.124-0.115-0.188-0.276-0.177-0.444c0.01-0.152,0.154-0.248,0.307-0.349c0.22-0.146,0.47-0.312,0.451-0.668 c-0.014-0.268-0.266-0.545-0.557-0.866c-0.329-0.363-0.696-0.769-0.829-1.282c-0.078,0.175-0.012,0.384-0.008,0.396 c0.012,0.036,0.001,0.077-0.026,0.104c-0.028,0.025-0.068,0.033-0.104,0.021c-0.206-0.076-0.547-0.146-0.628-0.049 c-0.072,0.088,0.09,0.382,0.235,0.56c0.03,0.037,0.03,0.09,0,0.127c-0.03,0.037-0.083,0.048-0.124,0.025 c-0.132-0.07-0.544-0.233-0.692-0.075c-0.037,0.04-0.053,0.08-0.05,0.127c0.008,0.119,0.135,0.248,0.184,0.288 c0.029,0.023,0.042,0.062,0.035,0.098c-0.007,0.036-0.035,0.065-0.071,0.076c-0.15,0.042-0.368,0.153-0.36,0.257 c0.008,0.1,0.278,0.25,0.526,0.327c0.043,0.014,0.072,0.055,0.07,0.1c-0.002,0.045-0.034,0.083-0.077,0.094 c-0.134,0.031-0.336,0.111-0.368,0.181c0.068,0.153,0.36,0.316,0.529,0.389c0.034,0.015,0.058,0.047,0.061,0.083 c0.003,0.037-0.015,0.073-0.046,0.093c-0.079,0.051-0.209,0.165-0.226,0.256c-0.004,0.026,0,0.047,0.018,0.069 c0.117,0.155,0.433,0.274,0.544,0.308c0.03,0.009,0.055,0.032,0.065,0.062c0.011,0.029,0.007,0.063-0.011,0.09 c-0.011,0.016-0.102,0.156-0.007,0.223c0.12,0.084,0.399,0.068,0.488,0.056c0.042-0.007,0.08,0.013,0.101,0.049 c0.021,0.035,0.017,0.08-0.008,0.112c-0.022,0.028-0.079,0.12-0.068,0.201c0.005,0.041,0.028,0.076,0.069,0.108 c0.166,0.127,0.513,0.12,0.632,0.105c0.036,0.001,0.072,0.013,0.093,0.042c0.021,0.03,0.024,0.069,0.008,0.103 c-0.006,0.013-0.152,0.314,0.05,0.429c0.236,0.132,0.583-0.07,0.586-0.071C20.126,25.247,20.144,25.243,20.161,25.243z"/><path fill="#fbc02d" d="M30.641,18.751c0,0,0.542-1.499,0.596-3.756c0.975,1.3,0.144,4.19,0.144,4.19 s1.084-1.625,0.885-3.178c0.614,1.463,0.325,3.341-0.686,4.461c0,0,1.463-1.409,1.571-2.889c0.524,2.095-1.269,4.041-1.643,4.063 c0,0,1.77-1.084,2.275-2.564c0.072,1.824-1.372,2.835-2.095,3.088c0.831-0.199,2.293-1.354,2.293-1.354s-0.144,1.535-2.257,1.986 c0.795-0.018,1.878-0.415,2.275-0.831c-0.488,1.246-1.878,1.734-2.673,1.806c0.65,0.144,2.438-0.578,2.438-0.578 s-0.289,1.264-2.655,1.264c0.795,0.307,2.095,0,2.095,0s-0.65,1.228-2.799,0.74c0.903,0.433,2.149,0.307,2.149,0.307 s-0.506,1.463-2.546,0.271c1.156,0.74,1.824,0.795,1.824,0.795s-0.65,1.156-2.438-0.054c1.011,0.686,1.535,0.813,1.535,0.813 s-1.156,0.993-2.275-0.488c0.542,0.704,0.939,1.138,0.939,1.138s-1.391,0.47-2.095-1.192c0.307,0.885,0.722,1.372,0.722,1.372 s-0.849,0.343-1.282-0.74c-0.433-1.084,2.149-3.142,2.149-3.142l1.102-2.528L30.641,18.751z"/><path fill="#ef6c00" d="M27.912,28.311c-0.116,0-0.251-0.019-0.391-0.078c-0.291-0.124-0.518-0.385-0.674-0.776 c-0.44-1.1,1.901-3.032,2.16-3.241l1.086-2.494l0.45-2.984c0.001-0.007,0.003-0.013,0.005-0.02 c0.005-0.015,0.537-1.512,0.59-3.724c0.001-0.043,0.029-0.08,0.07-0.094c0.04-0.013,0.084,0.001,0.11,0.036 c0.7,0.933,0.511,2.612,0.326,3.567c0.291-0.605,0.642-1.564,0.524-2.484c-0.006-0.05,0.025-0.097,0.073-0.109 c0.049-0.011,0.099,0.013,0.118,0.058c0.436,1.039,0.427,2.28,0.035,3.327c0.319-0.494,0.613-1.105,0.658-1.724 c0.003-0.05,0.042-0.089,0.091-0.093c0.046,0,0.094,0.027,0.106,0.075c0.311,1.246-0.179,2.365-0.57,3.008 c0.41-0.416,0.812-0.937,1.01-1.517c0.016-0.046,0.064-0.076,0.109-0.066c0.047,0.007,0.083,0.047,0.085,0.095 c0.041,1.023-0.377,1.786-0.876,2.312c0.499-0.328,0.905-0.647,0.913-0.653c0.032-0.026,0.074-0.027,0.11-0.01 c0.035,0.02,0.056,0.058,0.052,0.098c-0.001,0.013-0.11,1.005-1.209,1.652c0.448-0.152,0.853-0.363,1.056-0.575 c0.033-0.035,0.086-0.041,0.126-0.015c0.041,0.025,0.057,0.076,0.04,0.12c-0.272,0.695-0.804,1.156-1.36,1.447 c0.528-0.161,0.985-0.345,0.994-0.349c0.034-0.015,0.073-0.008,0.103,0.017c0.028,0.024,0.041,0.062,0.033,0.099 c-0.011,0.047-0.253,1.018-1.884,1.278c0.008,0,0.017,0,0.025,0c0.602,0,1.17-0.132,1.179-0.134 c0.038-0.01,0.078,0.005,0.102,0.036c0.024,0.031,0.028,0.073,0.009,0.108c-0.021,0.041-0.437,0.791-1.643,0.896 c0.495,0.043,0.886,0.005,0.894,0.004c0.031,0,0.067,0.011,0.089,0.037c0.021,0.027,0.027,0.062,0.016,0.095 c-0.007,0.021-0.185,0.518-0.735,0.722c-0.173,0.064-0.361,0.092-0.565,0.084c0.316,0.111,0.489,0.128,0.492,0.128 c0.034,0.003,0.064,0.022,0.08,0.053c0.016,0.03,0.016,0.066-0.001,0.096c-0.009,0.016-0.226,0.392-0.739,0.513 c-0.131,0.03-0.268,0.041-0.415,0.035c0.123,0.048,0.186,0.064,0.188,0.065c0.036,0.009,0.064,0.037,0.073,0.073 c0.009,0.037-0.003,0.075-0.032,0.1c-0.019,0.017-0.483,0.417-1.129,0.342c-0.155-0.017-0.306-0.059-0.453-0.125 c0.158,0.185,0.252,0.288,0.254,0.29c0.023,0.024,0.032,0.06,0.023,0.093c-0.008,0.032-0.033,0.059-0.065,0.069 c-0.01,0.004-0.842,0.271-1.567-0.325c0.137,0.224,0.237,0.343,0.239,0.346c0.021,0.024,0.029,0.057,0.021,0.088 s-0.03,0.058-0.06,0.069C28.25,28.256,28.109,28.311,27.912,28.311z M30.739,18.775l-0.45,2.988 c-0.001,0.009-0.004,0.018-0.007,0.025l-1.102,2.528c-0.007,0.015-0.017,0.028-0.029,0.038c-0.702,0.56-2.452,2.195-2.119,3.026 c0.294,0.734,0.784,0.759,1.019,0.719c-0.144-0.199-0.422-0.635-0.646-1.28c-0.018-0.052,0.008-0.107,0.058-0.127 c0.052-0.017,0.107,0.004,0.128,0.055c0.53,1.25,1.449,1.232,1.817,1.173c-0.151-0.172-0.441-0.512-0.793-0.968 c-0.013-0.017-0.026-0.033-0.039-0.05v-0.001c0,0,0,0,0,0c-0.033-0.044-0.025-0.106,0.019-0.14 c0.044-0.034,0.106-0.026,0.14,0.019c0.013,0.017,0.026,0.033,0.039,0.049c0.34,0.434,0.714,0.675,1.113,0.718 c0.354,0.038,0.651-0.089,0.823-0.188c-0.241-0.094-0.7-0.307-1.369-0.76c-0.046-0.031-0.058-0.094-0.027-0.139 c0.031-0.048,0.093-0.06,0.139-0.027c0.655,0.444,1.224,0.613,1.684,0.504c0.257-0.062,0.424-0.197,0.518-0.297 c-0.273-0.061-0.86-0.243-1.699-0.781c-0.045-0.029-0.06-0.09-0.031-0.136c0.028-0.048,0.088-0.064,0.136-0.034 c0.724,0.423,1.323,0.552,1.783,0.383c0.29-0.106,0.459-0.314,0.545-0.456c-0.382,0.021-1.301,0.02-2.025-0.328 c-0.046-0.021-0.068-0.074-0.051-0.123c0.017-0.048,0.068-0.078,0.116-0.064c1.526,0.347,2.259-0.185,2.543-0.494 c-0.427,0.074-1.291,0.179-1.897-0.055c-0.045-0.018-0.071-0.064-0.062-0.112c0.009-0.047,0.05-0.081,0.098-0.081 c1.694,0,2.281-0.647,2.472-0.987c-0.506,0.189-1.738,0.621-2.276,0.498c-0.048-0.011-0.082-0.055-0.078-0.104 c0.003-0.049,0.042-0.088,0.09-0.093c0.609-0.056,1.802-0.413,2.398-1.363c-0.526,0.317-1.351,0.573-1.989,0.587 c-0.001,0-0.002,0-0.002,0c-0.051,0-0.093-0.037-0.099-0.088c-0.006-0.052,0.028-0.099,0.078-0.109 c1.494-0.319,1.969-1.198,2.116-1.639c-0.446,0.333-1.454,1.046-2.107,1.202c-0.052,0.013-0.104-0.019-0.119-0.069 c-0.015-0.051,0.012-0.105,0.062-0.123c0.531-0.186,1.811-0.967,2.005-2.469c-0.429,0.797-1.151,1.434-1.627,1.796 c-0.208,0.207-0.398,0.337-0.52,0.344c-0.042-0.004-0.087-0.025-0.101-0.069c-0.014-0.044,0.004-0.092,0.043-0.115 c0.006-0.004,0.192-0.119,0.458-0.323c0.111-0.112,0.236-0.257,0.367-0.437c0.305-0.415,0.929-1.421,0.861-2.616 c-0.36,1.256-1.44,2.309-1.493,2.359c-0.039,0.037-0.101,0.037-0.139,0c-0.039-0.038-0.041-0.1-0.005-0.14 c0.845-0.936,1.172-2.411,0.874-3.713c-0.103,1.319-0.876,2.496-0.915,2.554c-0.028,0.04-0.081,0.053-0.125,0.035 c-0.045-0.021-0.068-0.071-0.054-0.118c0.008-0.026,0.701-2.483,0.04-3.826C31.234,17.304,30.783,18.648,30.739,18.775z M30.189,21.749h0.002H30.189z"/><path fill="#fbc02d" d="M29.539,20.412c0,0,1.264-1.968,1.192-2.691c0.488,0.307,0.614,0.975,0.361,1.625 c0.397-0.74,0.415-0.831,0.415-0.831s0.415,0.668-0.036,1.499c0.361-0.686,0.433-0.704,0.433-0.704s0.343,0.849-0.524,1.571 c0.668-0.668,0.795-0.74,0.795-0.74s0.343,0.777-0.65,1.409c0.596-0.289,0.813-0.488,0.813-0.488s0.126,1.047-0.957,1.409 c0.614-0.253,0.903-0.271,0.903-0.271s0.108,0.921-1.192,1.029c0.704,0.018,0.867,0.09,0.867,0.09s-0.253,0.668-1.047,0.722 c0.722,0.126,0.65,0.758-0.542,0.686c0.903,0.343,0.253,0.867-0.704,0.632c0.813,0.199,0.758,0.831-0.415,0.524 c0.849,0.542,0.253,1.011-0.686,0.47c0.397,0.361,0.578,1.156-1.138,0.199c-1.716-0.957-0.072-1.535-0.072-1.535l1.95-1.571 l0.451-1.625L29.539,20.412z"/><path fill="#ef6c00" d="M28.603,27.108c-0.259,0-0.664-0.155-1.225-0.469c-0.579-0.322-0.859-0.65-0.831-0.974 c0.038-0.444,0.646-0.694,0.758-0.736l1.912-1.541l0.438-1.573l-0.213-1.388c-0.004-0.024,0.001-0.049,0.015-0.069 c0.346-0.54,1.233-2.062,1.176-2.627c-0.004-0.038,0.015-0.074,0.047-0.095c0.033-0.02,0.074-0.02,0.106,0 c0.348,0.219,0.535,0.605,0.536,1.053c0.077-0.156,0.09-0.196,0.09-0.199c0.012-0.037,0.044-0.066,0.083-0.071 c0.037-0.01,0.078,0.012,0.098,0.045c0.012,0.02,0.212,0.349,0.189,0.832c0.057-0.071,0.082-0.078,0.099-0.082 c0.049-0.011,0.099,0.013,0.118,0.06c0.002,0.006,0.153,0.395,0.009,0.875c0.079-0.068,0.11-0.088,0.12-0.094 c0.026-0.014,0.055-0.019,0.081-0.008c0.027,0.009,0.049,0.028,0.06,0.055c0.003,0.006,0.198,0.466-0.113,0.976 c0.08-0.056,0.115-0.088,0.116-0.089c0.027-0.025,0.066-0.032,0.102-0.02c0.035,0.014,0.06,0.045,0.064,0.082 c0.001,0.008,0.066,0.608-0.346,1.08c0.12-0.026,0.181-0.03,0.187-0.03c0.057,0.006,0.099,0.035,0.105,0.088 c0.002,0.015,0.04,0.363-0.216,0.677c-0.106,0.129-0.245,0.232-0.416,0.31c0.176,0.024,0.238,0.049,0.249,0.053 c0.049,0.021,0.072,0.077,0.054,0.127c-0.01,0.025-0.205,0.524-0.772,0.717c0.149,0.097,0.208,0.226,0.195,0.34 c-0.021,0.181-0.228,0.374-0.723,0.415c0.17,0.146,0.157,0.287,0.136,0.354c-0.062,0.201-0.336,0.323-0.689,0.337 c0.051,0.052,0.086,0.108,0.104,0.167c0.026,0.091,0.003,0.182-0.063,0.249c-0.11,0.113-0.329,0.154-0.624,0.122 c0.206,0.234,0.137,0.405,0.102,0.463c-0.105,0.175-0.419,0.242-0.841,0.091c0.063,0.141,0.077,0.281,0.005,0.381 C28.826,27.068,28.732,27.108,28.603,27.108z M29.644,20.435l0.211,1.371c0.002,0.015,0.001,0.028-0.002,0.042l-0.452,1.625 c-0.005,0.021-0.017,0.038-0.034,0.052l-1.95,1.571c-0.009,0.007-0.019,0.013-0.029,0.017c-0.17,0.06-0.617,0.279-0.642,0.571 c-0.02,0.234,0.232,0.505,0.729,0.782c1.084,0.604,1.238,0.417,1.244,0.407c0.048-0.066-0.046-0.284-0.223-0.445 c-0.038-0.034-0.043-0.092-0.013-0.133c0.03-0.042,0.087-0.053,0.13-0.028c0.528,0.305,0.874,0.245,0.933,0.148 c0.049-0.08-0.056-0.259-0.35-0.447c-0.042-0.026-0.058-0.079-0.038-0.124c0.02-0.045,0.069-0.066,0.117-0.057 c0.521,0.137,0.761,0.068,0.821,0.007c0.017-0.017,0.021-0.032,0.014-0.055c-0.025-0.087-0.182-0.212-0.469-0.282l0,0 c-0.054-0.013-0.086-0.067-0.073-0.12c0.014-0.054,0.064-0.086,0.121-0.073c0.001,0,0.002,0,0.003,0 c0.577,0.142,0.966-0.02,1.005-0.143c0.022-0.071-0.082-0.192-0.364-0.299c-0.046-0.018-0.072-0.066-0.062-0.115 c0.01-0.046,0.051-0.078,0.098-0.078c0.002,0,0.004,0,0.006,0c0.636,0.039,0.888-0.128,0.901-0.241 c0.01-0.085-0.12-0.201-0.382-0.247c-0.05-0.009-0.085-0.054-0.083-0.104c0.003-0.051,0.043-0.092,0.093-0.095 c0.542-0.037,0.808-0.38,0.91-0.556c-0.112-0.021-0.331-0.047-0.725-0.058c-0.053-0.001-0.096-0.044-0.098-0.097 s0.039-0.099,0.092-0.103c0.431-0.036,0.742-0.167,0.926-0.389c0.126-0.153,0.163-0.319,0.173-0.425 c-0.109,0.021-0.302,0.069-0.581,0.175c-0.059,0.027-0.122,0.052-0.189,0.074c-0.054,0.021-0.106-0.01-0.125-0.06 c-0.019-0.051,0.006-0.107,0.056-0.128c0.064-0.026,0.125-0.05,0.182-0.071c0.58-0.271,0.697-0.772,0.715-1.046 c-0.13,0.09-0.346,0.222-0.671,0.379c-0.047,0.022-0.105,0.004-0.131-0.041c-0.026-0.046-0.011-0.104,0.034-0.133 c0.678-0.432,0.69-0.922,0.649-1.152c-0.079,0.068-0.211,0.189-0.427,0.399c-0.07,0.083-0.152,0.165-0.249,0.246 c-0.042,0.034-0.103,0.028-0.138-0.01c-0.036-0.039-0.035-0.101,0.003-0.138c0.088-0.088,0.167-0.166,0.237-0.234 c0.338-0.404,0.345-0.812,0.311-1.042c-0.059,0.092-0.147,0.242-0.276,0.484c-0.007,0.015-0.015,0.028-0.022,0.043 c-0.027,0.048-0.088,0.066-0.135,0.04c-0.048-0.025-0.067-0.086-0.041-0.135c0.007-0.014,0.015-0.027,0.021-0.041 c0.257-0.501,0.184-0.93,0.104-1.165c-0.074,0.15-0.186,0.368-0.328,0.632c-0.024,0.048-0.081,0.065-0.13,0.044 c-0.048-0.022-0.07-0.078-0.051-0.127c0.214-0.55,0.141-1.082-0.175-1.39C30.717,18.714,29.799,20.189,29.644,20.435z"/><path fill="#fbc02d" d="M26.903,24.295c0,0,0.578-0.126,0.831-0.704c0.885,0.126,1.102-0.253,1.084-0.524 c-0.018-0.271-0.795-0.361-0.758-1.029c0.036-0.668,1.3-1.3,1.427-2.366c0.307,0.217,0.163,0.65,0.163,0.65 s0.578-0.217,0.74-0.018s-0.235,0.686-0.235,0.686s0.578-0.307,0.813-0.054c0.235,0.253-0.144,0.56-0.144,0.56 s0.451,0.126,0.433,0.361c-0.018,0.235-0.596,0.415-0.596,0.415s0.542,0.126,0.433,0.343s-0.578,0.415-0.578,0.415 s0.397,0.253,0.235,0.47s-0.596,0.343-0.596,0.343s0.163,0.235-0.018,0.361c-0.181,0.126-0.56,0.072-0.56,0.072 s0.217,0.271-0.018,0.451c-0.235,0.181-0.704,0.126-0.704,0.126s0.199,0.397-0.09,0.56c-0.289,0.163-0.686-0.072-0.686-0.072 s0.126,0.722-0.831,0.542S26.903,24.295,26.903,24.295z"/><path fill="#ef6c00" d="M27.527,26.013c-0.091,0-0.191-0.01-0.299-0.03c-0.242-0.046-0.417-0.167-0.519-0.359 c-0.268-0.506,0.087-1.333,0.102-1.368c0.013-0.029,0.039-0.051,0.07-0.058c0.005-0.001,0.533-0.125,0.76-0.646 c0.018-0.041,0.059-0.065,0.106-0.059c0.509,0.07,0.748-0.033,0.856-0.134c0.109-0.101,0.118-0.222,0.114-0.284 c-0.004-0.054-0.113-0.126-0.218-0.196c-0.239-0.157-0.566-0.374-0.541-0.846c0.019-0.337,0.292-0.639,0.609-0.988 c0.353-0.39,0.753-0.831,0.819-1.384c0.004-0.035,0.026-0.065,0.059-0.08c0.031-0.014,0.07-0.011,0.098,0.01 c0.229,0.162,0.251,0.415,0.235,0.586c0.21-0.058,0.542-0.113,0.688,0.064c0.118,0.145,0.046,0.362-0.049,0.538 c0.207-0.057,0.465-0.08,0.624,0.089c0.074,0.08,0.109,0.177,0.103,0.278c-0.009,0.122-0.076,0.232-0.14,0.31 c0.156,0.068,0.369,0.201,0.353,0.41c-0.014,0.177-0.223,0.314-0.407,0.401c0.1,0.047,0.197,0.112,0.238,0.198 c0.029,0.063,0.028,0.131-0.004,0.195c-0.082,0.165-0.319,0.31-0.479,0.392c0.077,0.071,0.16,0.171,0.181,0.284 c0.015,0.08-0.004,0.157-0.054,0.225c-0.127,0.169-0.386,0.285-0.536,0.341c0.044,0.121,0.05,0.279-0.101,0.386 c-0.12,0.083-0.297,0.103-0.434,0.103c-0.005,0-0.009,0-0.014-0.001c0.017,0.053,0.026,0.112,0.019,0.175 c-0.011,0.096-0.062,0.18-0.146,0.244c-0.169,0.131-0.433,0.154-0.605,0.154c-0.005,0-0.011,0-0.016,0 c0.044,0.18,0.036,0.415-0.186,0.54c-0.219,0.121-0.475,0.061-0.634-0.002c-0.011,0.104-0.049,0.237-0.156,0.343 C27.907,25.956,27.741,26.013,27.527,26.013z M26.977,24.379c-0.066,0.169-0.283,0.788-0.091,1.151 c0.073,0.138,0.196,0.221,0.378,0.255c0.292,0.059,0.503,0.026,0.615-0.083c0.132-0.129,0.099-0.341,0.098-0.343 c-0.006-0.038,0.01-0.077,0.042-0.099c0.031-0.022,0.073-0.025,0.107-0.004c0.004,0.002,0.353,0.203,0.586,0.071 c0.202-0.114,0.056-0.416,0.05-0.429c-0.017-0.033-0.013-0.072,0.008-0.103c0.021-0.029,0.055-0.041,0.093-0.042 c0.118,0.014,0.466,0.021,0.632-0.105c0.042-0.032,0.064-0.067,0.069-0.109c0.01-0.08-0.046-0.172-0.068-0.2 c-0.025-0.032-0.029-0.077-0.008-0.112s0.061-0.054,0.101-0.049c0.094,0.013,0.367,0.028,0.488-0.056 c0.095-0.066,0.003-0.207-0.007-0.223c-0.018-0.026-0.022-0.061-0.011-0.09c0.011-0.03,0.035-0.054,0.065-0.062 c0.112-0.033,0.428-0.152,0.544-0.308c0.017-0.022,0.022-0.043,0.018-0.069c-0.017-0.091-0.147-0.205-0.226-0.256 c-0.031-0.02-0.049-0.056-0.046-0.093c0.003-0.036,0.026-0.068,0.061-0.083c0.168-0.072,0.461-0.235,0.527-0.369 c-0.031-0.09-0.233-0.17-0.366-0.2c-0.044-0.011-0.076-0.049-0.078-0.094c-0.001-0.045,0.027-0.086,0.07-0.1 c0.248-0.077,0.518-0.228,0.526-0.327c0.008-0.104-0.21-0.215-0.36-0.257c-0.036-0.011-0.063-0.04-0.071-0.076 c-0.008-0.036,0.006-0.074,0.035-0.098c0.048-0.04,0.175-0.169,0.184-0.288c0.003-0.047-0.013-0.088-0.049-0.127 c-0.148-0.159-0.561,0.005-0.693,0.075c-0.04,0.022-0.093,0.012-0.124-0.025c-0.03-0.037-0.03-0.09,0-0.127 c0.145-0.178,0.307-0.472,0.235-0.56c-0.078-0.097-0.421-0.027-0.627,0.049c-0.035,0.012-0.077,0.004-0.104-0.021 c-0.027-0.026-0.038-0.067-0.025-0.104c0.003-0.012,0.07-0.222-0.008-0.396c-0.132,0.514-0.5,0.919-0.829,1.282 c-0.292,0.321-0.543,0.599-0.557,0.866c-0.02,0.356,0.23,0.521,0.451,0.668c0.153,0.101,0.297,0.196,0.307,0.349 c0.011,0.168-0.053,0.329-0.177,0.444c-0.194,0.18-0.516,0.247-0.947,0.194C27.557,24.166,27.127,24.333,26.977,24.379z"/><path fill="#fbc02d" d="M23.055,14.314c0,0-0.806,0.265-1.01,0.663c-0.204,0.398,0.071,0.908-0.173,0.969 c-0.245,0.061-0.469-0.5-0.316-0.969c0.153-0.469,0.857-0.826,1.693-0.969C24.085,13.865,23.055,14.314,23.055,14.314z"/><path fill="#ef6c00" d="M21.835,16.051c-0.079,0-0.157-0.037-0.224-0.109c-0.173-0.186-0.277-0.609-0.151-0.996 c0.157-0.479,0.835-0.875,1.771-1.036c0.272-0.046,0.406-0.047,0.44,0.064c0.02,0.067,0.047,0.16-0.576,0.433 c-0.003,0.001-0.006,0.002-0.009,0.003c-0.213,0.07-0.8,0.317-0.952,0.613c-0.087,0.171-0.074,0.371-0.061,0.549 c0.013,0.196,0.029,0.42-0.177,0.472C21.876,16.048,21.855,16.051,21.835,16.051z M23.259,14.107 c-0.846,0.146-1.478,0.5-1.608,0.9c-0.099,0.302-0.024,0.656,0.107,0.798c0.022,0.024,0.053,0.05,0.09,0.044 c0.04-0.011,0.036-0.111,0.025-0.265c-0.013-0.193-0.03-0.434,0.083-0.654c0.214-0.417,0.988-0.685,1.063-0.71 C23.099,14.187,23.184,14.146,23.259,14.107z M23.055,14.314h0.002H23.055z"/><path fill="#fbc02d" d="M23.891,14.131c0,0-0.795,0.265-0.887,0.938c-0.064,0.468,0.153,0.714-0.143,0.816 c-0.296,0.102-0.515-0.149-0.551-0.51c-0.051-0.52,0.449-1.448,1.632-1.56C23.993,14.008,23.891,14.131,23.891,14.131z"/><path fill="#ef6c00" d="M22.731,16.008c-0.083,0-0.162-0.023-0.234-0.069c-0.157-0.102-0.262-0.304-0.286-0.554 c-0.03-0.304,0.106-0.68,0.354-0.981c0.228-0.276,0.649-0.62,1.368-0.688c0.046-0.003,0.093,0.027,0.106,0.074 c0.063,0.24-0.065,0.399-0.071,0.405c-0.012,0.015-0.028,0.025-0.045,0.031c-0.007,0.003-0.738,0.255-0.82,0.856 c-0.022,0.166-0.007,0.3,0.006,0.417c0.021,0.192,0.043,0.391-0.215,0.48C22.839,15.998,22.784,16.008,22.731,16.008z M23.856,13.925c-0.592,0.081-0.943,0.37-1.137,0.605c-0.258,0.313-0.329,0.637-0.31,0.835c0.018,0.187,0.091,0.338,0.195,0.404 c0.065,0.042,0.139,0.05,0.224,0.021c0.097-0.033,0.104-0.059,0.081-0.269c-0.014-0.123-0.031-0.276-0.005-0.467 c0.089-0.651,0.759-0.945,0.921-1.007C23.838,14.025,23.856,13.982,23.856,13.925z M23.891,14.131h0.002H23.891z M23.891,14.131 h0.002H23.891z"/><path fill="#fbc02d" d="M25.225,14.314c0,0,0.806,0.265,1.01,0.663c0.204,0.398-0.071,0.908,0.173,0.969 c0.245,0.061,0.469-0.5,0.316-0.969c-0.153-0.469-0.857-0.826-1.693-0.969C24.195,13.865,25.225,14.314,25.225,14.314z"/><path fill="#ef6c00" d="M26.445,16.051c-0.021,0-0.041-0.002-0.061-0.008c-0.207-0.052-0.191-0.275-0.177-0.473 c0.012-0.177,0.026-0.377-0.062-0.548c-0.151-0.296-0.738-0.543-0.952-0.613c-0.003-0.001-0.006-0.002-0.009-0.003 c-0.624-0.272-0.597-0.365-0.576-0.433c0.034-0.111,0.169-0.111,0.439-0.064c0.937,0.161,1.615,0.558,1.771,1.036 c0.125,0.387,0.022,0.811-0.151,0.996C26.601,16.014,26.523,16.051,26.445,16.051z M25.261,14.221 c0.075,0.025,0.849,0.293,1.062,0.71c0.113,0.221,0.096,0.461,0.083,0.653c-0.01,0.153-0.014,0.255,0.026,0.266 c0.033,0.01,0.066-0.02,0.089-0.044c0.131-0.142,0.206-0.496,0.107-0.798c-0.13-0.4-0.761-0.754-1.608-0.9 C25.096,14.146,25.181,14.187,25.261,14.221z"/><path fill="#fbc02d" d="M24.388,14.131c0,0,0.795,0.265,0.887,0.938c0.064,0.468-0.153,0.714,0.143,0.816 c0.296,0.102,0.515-0.149,0.551-0.51c0.051-0.52-0.449-1.448-1.632-1.56C24.286,14.008,24.388,14.131,24.388,14.131z"/><path fill="#ef6c00" d="M25.548,16.008c-0.053,0-0.107-0.01-0.163-0.028c-0.259-0.09-0.236-0.288-0.215-0.479 c0.013-0.118,0.028-0.252,0.005-0.418c-0.082-0.602-0.812-0.854-0.82-0.856c-0.018-0.006-0.033-0.017-0.045-0.031 c-0.005-0.006-0.134-0.165-0.07-0.405c0.013-0.047,0.064-0.078,0.106-0.074c0.718,0.068,1.14,0.412,1.367,0.688 c0.249,0.302,0.384,0.679,0.354,0.982c-0.024,0.251-0.129,0.452-0.287,0.554C25.71,15.984,25.631,16.008,25.548,16.008z M24.454,14.048c0.162,0.062,0.832,0.355,0.921,1.007c0.026,0.19,0.009,0.344-0.005,0.467c-0.023,0.21-0.016,0.235,0.082,0.269 c0.082,0.028,0.157,0.021,0.223-0.02c0.104-0.067,0.177-0.219,0.195-0.405c0.02-0.198-0.052-0.521-0.31-0.836 c-0.193-0.234-0.545-0.523-1.137-0.604C24.424,13.982,24.441,14.025,24.454,14.048z"/><path fill="#fbc02d" d="M24.153,21.568l-0.506-0.867l0.379-0.307l-0.867-0.885l0.271-0.217l-0.867-0.704l0.343-0.199 l-0.795-0.397c0,0,0.668-0.199,0.56-0.813c-0.47,0.199-0.74,0.379-1.463,0.072c-0.722-0.307-0.885,0.361-0.885,0.361 s-1.3-0.181-0.993,0.777c0.578-0.542,1.047,0.09,1.047,0.09l0.65,0.289c0,0-0.524,0.307-0.975,0.018 c0.199,0.578,0.47,0.722,1.156,0.451c0.199,0.307,0.253,0.722,0.253,0.722s0.253-0.036,0.361-0.289 c0.018,0.632-0.163,1.12-0.163,1.12l0.56-0.181l-0.433,1.156l1.679,0.199L24.153,21.568z"/><path fill="#ef6c00" d="M23.466,22.065c-0.004,0-0.008,0-0.012,0l-1.679-0.199c-0.031-0.004-0.058-0.021-0.074-0.048 s-0.019-0.058-0.008-0.087l0.36-0.961l-0.362,0.116c-0.037,0.016-0.075,0.002-0.103-0.025c-0.026-0.027-0.035-0.068-0.021-0.104 c0.001-0.005,0.123-0.338,0.151-0.801c-0.118,0.084-0.234,0.102-0.242,0.103c-0.026,0.005-0.053-0.003-0.075-0.019 c-0.021-0.017-0.035-0.041-0.039-0.067c0-0.003-0.046-0.337-0.197-0.612c-0.342,0.125-0.583,0.142-0.774,0.054 c-0.188-0.086-0.321-0.27-0.433-0.596c-0.014-0.04,0-0.085,0.033-0.11c0.034-0.027,0.081-0.029,0.116-0.006 c0.234,0.148,0.493,0.115,0.669,0.062l-0.438-0.193c-0.016-0.007-0.029-0.019-0.04-0.032c-0.002-0.002-0.188-0.245-0.448-0.269 c-0.149-0.013-0.302,0.052-0.451,0.191c-0.024,0.023-0.06,0.031-0.093,0.023c-0.033-0.009-0.06-0.033-0.07-0.066 c-0.088-0.274-0.064-0.495,0.071-0.656c0.237-0.281,0.749-0.271,0.948-0.258c0.042-0.104,0.137-0.276,0.324-0.37 c0.186-0.094,0.411-0.086,0.668,0.024c0.616,0.262,0.872,0.15,1.259-0.019l0.126-0.054c0.029-0.013,0.06-0.01,0.087,0.004 c0.027,0.015,0.045,0.041,0.051,0.07c0.075,0.426-0.182,0.697-0.423,0.836l0.604,0.302c0.033,0.017,0.054,0.05,0.055,0.087 c0.001,0.037-0.018,0.071-0.05,0.09l-0.217,0.125l0.754,0.614c0.023,0.019,0.037,0.047,0.037,0.077s-0.014,0.06-0.038,0.078 l-0.184,0.147l0.789,0.806c0.02,0.021,0.03,0.048,0.028,0.076c-0.001,0.028-0.015,0.054-0.037,0.072l-0.312,0.252l0.462,0.793 c0.013,0.023,0.017,0.051,0.01,0.076c-0.007,0.026-0.023,0.048-0.046,0.062l-0.687,0.397 C23.501,22.062,23.484,22.065,23.466,22.065z M21.925,21.683l1.52,0.18l0.571-0.33l-0.456-0.78 c-0.025-0.043-0.015-0.098,0.023-0.129l0.294-0.237l-0.79-0.806c-0.02-0.021-0.03-0.048-0.028-0.076 c0.001-0.028,0.015-0.055,0.037-0.072l0.174-0.14L22.5,18.665c-0.026-0.021-0.04-0.053-0.037-0.085 c0.002-0.033,0.021-0.062,0.05-0.079l0.182-0.105l-0.629-0.313c-0.037-0.019-0.058-0.058-0.055-0.099s0.032-0.075,0.071-0.087 c0.022-0.007,0.487-0.152,0.5-0.569c-0.401,0.175-0.719,0.312-1.413,0.017c-0.201-0.085-0.369-0.095-0.499-0.03 c-0.19,0.095-0.249,0.321-0.25,0.324c-0.012,0.05-0.062,0.085-0.111,0.074c-0.172-0.023-0.666-0.037-0.85,0.181 c-0.066,0.078-0.089,0.186-0.069,0.319c0.154-0.106,0.313-0.155,0.479-0.139c0.3,0.026,0.511,0.253,0.572,0.326l0.627,0.277 c0.034,0.016,0.057,0.049,0.059,0.086c0.002,0.037-0.017,0.073-0.049,0.092c-0.02,0.012-0.42,0.236-0.838,0.125 c0.068,0.132,0.144,0.213,0.234,0.254c0.15,0.068,0.37,0.04,0.697-0.088c0.043-0.019,0.094-0.001,0.121,0.038 c0.144,0.224,0.216,0.495,0.248,0.647c0.063-0.031,0.144-0.089,0.191-0.198c0.019-0.044,0.066-0.065,0.11-0.06 c0.046,0.009,0.08,0.049,0.082,0.096c0.012,0.414-0.058,0.766-0.112,0.969l0.378-0.121c0.038-0.014,0.077-0.001,0.103,0.025 c0.026,0.028,0.035,0.068,0.021,0.104L21.925,21.683z"/><path fill="#ef6c00" d="M22.726,21.636c-0.001,0-0.003,0-0.004,0c-0.018-0.002-0.437-0.048-0.569-0.799 c-0.005-0.027,0.014-0.054,0.041-0.058c0.027-0.009,0.053,0.013,0.058,0.04c0.093,0.532,0.332,0.67,0.433,0.705l0.173-1.191 c0.002-0.017,0.012-0.03,0.027-0.038c0.014-0.007,0.033-0.006,0.046,0.001l0.614,0.344c0.024,0.014,0.033,0.044,0.019,0.068 c-0.013,0.024-0.043,0.032-0.068,0.02l-0.55-0.309l-0.17,1.174C22.772,21.618,22.75,21.636,22.726,21.636z"/><g><path fill="#ef6c00" d="M22.094,19.56c-0.013,0-0.025-0.005-0.035-0.014l-0.614-0.597c-0.02-0.02-0.021-0.051-0.001-0.071 c0.02-0.019,0.05-0.02,0.07-0.001l0.538,0.522c0.012-0.203,0.024-0.646-0.092-0.84c-0.014-0.023-0.006-0.054,0.017-0.068 c0.023-0.016,0.054-0.007,0.069,0.018c0.168,0.281,0.1,0.977,0.097,1.006c-0.002,0.02-0.015,0.035-0.033,0.042 C22.106,19.559,22.1,19.56,22.094,19.56z"/></g><g><path fill="#ef6c00" d="M21.643,18.097c-0.583,0-1.036-0.318-1.059-0.334c-0.022-0.017-0.027-0.048-0.011-0.07 c0.017-0.022,0.048-0.026,0.069-0.012c0.006,0.005,0.622,0.436,1.315,0.281c0.025-0.011,0.053,0.011,0.06,0.038 c0.006,0.026-0.011,0.054-0.038,0.06C21.864,18.085,21.751,18.097,21.643,18.097z"/></g><g><path fill="#ef6c00" d="M19.282,19.086c-0.135,0-0.285-0.027-0.476-0.108c-0.214-0.09-0.342-0.218-0.379-0.38 c-0.065-0.281,0.17-0.555,0.181-0.566c0.012-0.014,0.031-0.021,0.048-0.016c0.018,0.004,0.032,0.018,0.037,0.035 c0.001,0.003,0.102,0.337,0.359,0.471c0.129,0.066,0.278,0.074,0.444,0.019c0.657-0.217,1.459,0.009,1.492,0.019 c0.005,0.001,0.01,0.004,0.014,0.007c0.06,0.04,0.251,0.182,0.206,0.305c-0.039,0.106-0.225,0.133-0.6,0.093 c-0.444-0.049-0.703,0.011-0.933,0.063C19.54,19.058,19.417,19.086,19.282,19.086z M18.63,18.169 c-0.059,0.089-0.142,0.251-0.106,0.406c0.03,0.129,0.138,0.233,0.321,0.311c0.353,0.148,0.545,0.105,0.808,0.043 c0.225-0.051,0.506-0.115,0.966-0.065c0.459,0.051,0.495-0.024,0.496-0.027c0.011-0.03-0.067-0.118-0.162-0.184 c-0.083-0.021-0.831-0.215-1.425-0.017c-0.193,0.063-0.369,0.054-0.522-0.025C18.797,18.501,18.682,18.289,18.63,18.169z"/></g><g><path fill="#ef6c00" d="M20.649,18.164c-0.123,0-0.222-0.1-0.222-0.222s0.099-0.222,0.222-0.222s0.222,0.1,0.222,0.222 S20.772,18.164,20.649,18.164z M20.649,17.82c-0.067,0-0.122,0.055-0.122,0.122s0.055,0.122,0.122,0.122s0.123-0.055,0.123-0.122 S20.717,17.82,20.649,17.82z"/></g><g><path fill="#fbc02d" d="M24.1,21.568l0.506-0.867l-0.379-0.307l0.867-0.885l-0.271-0.217l0.867-0.704l-0.343-0.199 l0.795-0.397c0,0-0.668-0.199-0.56-0.813c0.47,0.199,0.74,0.379,1.463,0.072c0.722-0.307,0.885,0.361,0.885,0.361 s1.3-0.181,0.993,0.777c-0.578-0.542-1.047,0.09-1.047,0.09l-0.65,0.289c0,0,0.524,0.307,0.975,0.018 c-0.199,0.578-0.47,0.722-1.156,0.451c-0.199,0.307-0.253,0.722-0.253,0.722s-0.253-0.036-0.361-0.289 c-0.018,0.632,0.163,1.12,0.163,1.12l-0.56-0.181l0.433,1.156l-1.679,0.199L24.1,21.568z"/><path fill="#ef6c00" d="M24.786,22.065c-0.018,0-0.035-0.004-0.05-0.013l-0.687-0.397c-0.023-0.014-0.04-0.035-0.046-0.062 c-0.007-0.025-0.003-0.053,0.01-0.076l0.462-0.793l-0.312-0.252c-0.022-0.019-0.035-0.044-0.037-0.072 c-0.002-0.028,0.008-0.056,0.028-0.076l0.789-0.806l-0.184-0.147c-0.023-0.019-0.038-0.048-0.038-0.078s0.014-0.059,0.037-0.077 l0.754-0.614l-0.217-0.125c-0.032-0.019-0.051-0.053-0.05-0.09c0.001-0.037,0.022-0.07,0.055-0.087l0.604-0.302 c-0.242-0.139-0.499-0.41-0.423-0.836c0.005-0.029,0.024-0.056,0.051-0.07c0.028-0.013,0.059-0.017,0.087-0.004l0.125,0.054 c0.386,0.169,0.643,0.28,1.26,0.019c0.257-0.11,0.481-0.118,0.668-0.024s0.282,0.267,0.324,0.37 c0.199-0.015,0.71-0.024,0.948,0.258c0.135,0.161,0.159,0.382,0.071,0.656c-0.01,0.033-0.037,0.058-0.07,0.066 c-0.034,0.008-0.069,0-0.093-0.023c-0.149-0.14-0.305-0.215-0.453-0.19c-0.262,0.023-0.444,0.266-0.446,0.268 c-0.01,0.014-0.024,0.024-0.04,0.032l-0.437,0.193c0.175,0.053,0.436,0.086,0.668-0.062c0.035-0.023,0.082-0.021,0.116,0.006 c0.033,0.025,0.046,0.07,0.033,0.11c-0.112,0.326-0.246,0.51-0.433,0.596c-0.191,0.088-0.434,0.071-0.774-0.054 c-0.151,0.275-0.196,0.609-0.197,0.612c-0.003,0.026-0.018,0.051-0.039,0.067c-0.021,0.016-0.048,0.023-0.075,0.019 c-0.008-0.001-0.124-0.019-0.242-0.103c0.029,0.463,0.15,0.796,0.151,0.801c0.013,0.035,0.005,0.076-0.021,0.104 c-0.027,0.027-0.065,0.041-0.103,0.025l-0.363-0.116l0.361,0.961c0.011,0.028,0.008,0.061-0.008,0.087s-0.043,0.044-0.074,0.048 l-1.679,0.199C24.794,22.065,24.79,22.065,24.786,22.065z M24.236,21.532l0.571,0.33l1.519-0.18l-0.389-1.036 c-0.013-0.036-0.005-0.076,0.021-0.104c0.027-0.026,0.067-0.039,0.103-0.025l0.378,0.122c-0.054-0.204-0.124-0.556-0.112-0.97 c0.001-0.047,0.035-0.087,0.082-0.096c0.046-0.007,0.092,0.015,0.11,0.06c0.047,0.109,0.127,0.167,0.191,0.198 c0.031-0.152,0.104-0.424,0.248-0.647c0.026-0.039,0.076-0.057,0.121-0.038c0.327,0.129,0.548,0.158,0.697,0.088 c0.09-0.041,0.166-0.122,0.234-0.254c-0.422,0.111-0.818-0.112-0.838-0.125c-0.032-0.019-0.051-0.054-0.049-0.092 c0.002-0.037,0.025-0.07,0.059-0.086l0.628-0.277c0.061-0.073,0.272-0.3,0.572-0.326c0.16-0.018,0.324,0.032,0.479,0.139 c0.02-0.134-0.003-0.241-0.069-0.319c-0.184-0.218-0.676-0.205-0.85-0.181c-0.054,0.011-0.099-0.024-0.111-0.074 c0-0.003-0.06-0.229-0.25-0.324c-0.129-0.065-0.299-0.055-0.499,0.03c-0.693,0.296-1.012,0.157-1.413-0.017 c0.013,0.417,0.478,0.562,0.5,0.569c0.039,0.012,0.067,0.046,0.071,0.087s-0.018,0.08-0.055,0.099l-0.628,0.313l0.182,0.105 c0.029,0.017,0.047,0.046,0.05,0.079c0.003,0.032-0.011,0.064-0.037,0.085l-0.771,0.627l0.174,0.14 c0.022,0.018,0.036,0.044,0.037,0.072c0.002,0.028-0.008,0.056-0.028,0.076l-0.79,0.806l0.294,0.237 c0.038,0.031,0.048,0.086,0.023,0.129L24.236,21.532z"/></g><g><path fill="#ef6c00" d="M25.526,21.636c-0.024,0-0.046-0.018-0.049-0.043l-0.17-1.174l-0.55,0.309 c-0.024,0.013-0.055,0.005-0.068-0.02c-0.014-0.024-0.005-0.055,0.019-0.068l0.614-0.344c0.013-0.007,0.032-0.008,0.046-0.001 c0.015,0.008,0.025,0.021,0.027,0.038l0.173,1.191c0.102-0.035,0.34-0.173,0.433-0.705c0.005-0.027,0.032-0.049,0.058-0.04 c0.027,0.004,0.045,0.03,0.041,0.058c-0.131,0.751-0.55,0.797-0.568,0.799C25.529,21.636,25.528,21.636,25.526,21.636z"/></g><g><path fill="#ef6c00" d="M26.158,19.56c-0.006,0-0.012-0.001-0.017-0.003c-0.018-0.007-0.031-0.022-0.033-0.042 c-0.003-0.029-0.072-0.725,0.097-1.006c0.015-0.023,0.046-0.031,0.069-0.018c0.023,0.015,0.031,0.045,0.017,0.068 c-0.116,0.193-0.104,0.637-0.092,0.84l0.538-0.522c0.02-0.019,0.05-0.019,0.07,0.001c0.02,0.021,0.019,0.052-0.001,0.071 l-0.614,0.597C26.184,19.555,26.171,19.56,26.158,19.56z"/></g><g><path fill="#ef6c00" d="M26.61,18.097c-0.108,0-0.221-0.012-0.336-0.037c-0.027-0.006-0.044-0.033-0.038-0.06 c0.006-0.027,0.033-0.049,0.06-0.038c0.695,0.154,1.309-0.276,1.315-0.281c0.022-0.015,0.054-0.011,0.069,0.012 c0.016,0.022,0.011,0.054-0.011,0.07C27.646,17.778,27.193,18.097,26.61,18.097z"/></g><g><path fill="#ef6c00" d="M28.971,19.086c-0.136,0-0.258-0.028-0.394-0.06c-0.229-0.053-0.489-0.112-0.933-0.063 c-0.374,0.04-0.562,0.014-0.601-0.093c-0.045-0.123,0.146-0.265,0.206-0.305c0.004-0.003,0.009-0.006,0.014-0.007 c0.034-0.01,0.835-0.236,1.492-0.019c0.166,0.057,0.314,0.049,0.444-0.019c0.257-0.134,0.358-0.468,0.359-0.471 c0.005-0.018,0.02-0.031,0.037-0.035c0.017-0.006,0.036,0.002,0.048,0.016c0.01,0.012,0.246,0.285,0.181,0.566 c-0.037,0.162-0.165,0.29-0.379,0.38C29.255,19.059,29.106,19.086,28.971,19.086z M27.955,18.845c0.279,0,0.477,0.046,0.645,0.084 c0.263,0.062,0.455,0.105,0.808-0.043c0.183-0.077,0.291-0.182,0.321-0.311c0.036-0.155-0.047-0.316-0.106-0.406 c-0.052,0.12-0.167,0.332-0.375,0.441c-0.155,0.08-0.331,0.09-0.522,0.025c-0.594-0.198-1.343-0.005-1.426,0.017 c-0.095,0.065-0.172,0.153-0.161,0.184c0,0.003,0.035,0.078,0.496,0.027C27.752,18.851,27.858,18.845,27.955,18.845z"/></g><g><path fill="#ef6c00" d="M27.597,18.164c-0.125,0-0.227-0.102-0.227-0.228c0-0.125,0.102-0.227,0.227-0.227 s0.228,0.102,0.228,0.227C27.825,18.062,27.723,18.164,27.597,18.164z M27.597,17.81c-0.07,0-0.127,0.057-0.127,0.127 s0.057,0.128,0.127,0.128s0.128-0.058,0.128-0.128S27.667,17.81,27.597,17.81z"/></g><g><path fill="#fbc02d" d="M27.582,26.173c-0.182-0.795-0.672-2.113-0.073-3.54c-0.49-0.632-0.981-1.264-0.981-1.264 s-1.429,0.679-2.391,0.057v-0.021c-0.007,0.005-0.014,0.006-0.021,0.011c-0.007-0.004-0.015-0.006-0.021-0.011v0.021 c-0.963,0.622-2.391-0.057-2.391-0.057s-0.49,0.632-0.981,1.264c0.599,1.427,0.109,2.745-0.073,3.54 c-0.272,1.517,1.09,2.131,2.071,2.564c0.856,0.378,1.276,0.857,1.374,0.979v0.051c0,0,0.018-0.021,0.021-0.025 c0.004,0.005,0.021,0.025,0.021,0.025v-0.051c0.098-0.122,0.518-0.6,1.374-0.979C26.492,28.304,27.854,27.69,27.582,26.173z"/><path fill="#ef6c00" d="M24.137,29.867c-0.007,0-0.015-0.001-0.022-0.003c-0.02,0.005-0.038,0.002-0.055-0.004 c-0.039-0.015-0.065-0.052-0.065-0.094v-0.015c-0.134-0.158-0.543-0.582-1.314-0.923c-0.962-0.426-2.417-1.068-2.129-2.674 c0.026-0.112,0.056-0.229,0.088-0.354c0.209-0.812,0.497-1.924-0.009-3.128c-0.014-0.033-0.009-0.072,0.013-0.101l0.981-1.265 c0.029-0.036,0.08-0.048,0.122-0.029c0.013,0.007,1.365,0.636,2.269,0.08c0.009-0.014,0.02-0.024,0.033-0.031 c0.016-0.009,0.034-0.015,0.051-0.016c0.028-0.016,0.059-0.013,0.088,0.002c0.022,0.011,0.036,0.031,0.043,0.054 c0.903,0.539,2.241-0.082,2.254-0.089c0.042-0.019,0.093-0.007,0.122,0.029l0.98,1.265c0.022,0.028,0.027,0.067,0.013,0.101 c-0.506,1.204-0.219,2.315-0.009,3.128c0.033,0.125,0.062,0.242,0.087,0.35c0,0.002,0,0.003,0.001,0.005 c0.288,1.604-1.166,2.248-2.128,2.674c-0.772,0.341-1.181,0.765-1.315,0.923v0.015c0,0.042-0.026,0.08-0.065,0.095 C24.16,29.865,24.148,29.867,24.137,29.867z M20.836,22.649c0.501,1.246,0.198,2.421-0.004,3.201 c-0.032,0.124-0.062,0.239-0.085,0.345c-0.26,1.445,1.054,2.026,2.014,2.45c0.755,0.335,1.185,0.75,1.355,0.941 c0.17-0.191,0.599-0.606,1.355-0.941c0.959-0.424,2.271-1.004,2.013-2.453c-0.024-0.104-0.054-0.219-0.085-0.342 c-0.202-0.78-0.505-1.955-0.004-3.201l-0.897-1.157c-0.311,0.132-1.505,0.574-2.381,0.039c-0.881,0.538-2.072,0.093-2.382-0.039 L20.836,22.649z"/></g><g><path fill="#1e88e5" d="M27.048,26.071c-0.154-0.679-0.569-1.806-0.061-3.025c-0.415-0.54-0.83-1.08-0.83-1.08 s-1.209,0.58-2.024,0.049v-0.018c-0.006,0.004-0.012,0.005-0.018,0.009c-0.006-0.004-0.012-0.005-0.018-0.009v0.018 c-0.815,0.531-2.024-0.049-2.024-0.049s-0.415,0.54-0.83,1.08c0.507,1.219,0.092,2.346-0.061,3.025 c-0.23,1.297,0.922,1.821,1.752,2.192c0.725,0.323,1.08,0.733,1.163,0.836v0.043c0,0,0.015-0.018,0.018-0.022 c0.003,0.004,0.018,0.022,0.018,0.022v-0.043c0.083-0.104,0.438-0.513,1.163-0.836C26.126,27.892,27.279,27.368,27.048,26.071z"/></g><g><path fill="#689f38" d="M21.188,26.661c0.158,0.874,1.058,1.295,1.747,1.602c0.725,0.323,1.08,0.733,1.163,0.837v0.043 c0,0,0.015-0.018,0.018-0.022c0.003,0.004,0.018,0.022,0.018,0.022v-0.043c0.083-0.104,0.438-0.513,1.163-0.837 c0.689-0.308,1.589-0.729,1.747-1.602H21.188z"/></g><g><path fill="#fbc02d" d="M24.615,25.083c0,0-0.357,0.388,0.071,0.836c-0.194,0.326-0.214,0.377-0.214,0.377 s-0.377-0.082-0.51,0.296c0.306,0,0.857,0,0.857,0l0.286-0.469l-0.122-0.449l0.54-0.347l-0.173-0.469L24.615,25.083z"/><path fill="#ef6c00" d="M24.819,26.643h-0.857c-0.016,0-0.031-0.008-0.041-0.021c-0.009-0.014-0.012-0.03-0.006-0.046 c0.12-0.338,0.418-0.339,0.529-0.334c0.022-0.042,0.072-0.132,0.181-0.315c-0.415-0.467-0.05-0.873-0.046-0.878 c0.006-0.006,0.014-0.011,0.022-0.014l0.734-0.225c0.027-0.005,0.053,0.006,0.062,0.03l0.173,0.47c0.008,0.022,0,0.047-0.02,0.06 l-0.509,0.327l0.113,0.412c0.003,0.014,0.001,0.028-0.005,0.04l-0.286,0.47C24.853,26.634,24.837,26.643,24.819,26.643z M24.038,26.543h0.753l0.26-0.428l-0.117-0.427c-0.006-0.021,0.003-0.044,0.021-0.056l0.506-0.325l-0.143-0.388l-0.675,0.207 c-0.049,0.061-0.279,0.383,0.079,0.759c0.016,0.016,0.018,0.04,0.007,0.06c-0.184,0.31-0.209,0.368-0.21,0.371 c-0.009,0.021-0.036,0.038-0.057,0.029C24.449,26.344,24.171,26.289,24.038,26.543z"/></g><g><path fill="#fbc02d" d="M22.657,23.013c0,0,0.01,0.632,0.612,0.561c0.602-0.071-0.031-0.367-0.031-0.367 S22.831,23.329,22.657,23.013z"/><path fill="#ef6c00" d="M23.178,23.63c-0.144,0-0.265-0.042-0.359-0.125c-0.204-0.178-0.211-0.479-0.211-0.491 c0-0.023,0.015-0.043,0.037-0.049c0.022-0.009,0.046,0.004,0.057,0.023c0.151,0.278,0.507,0.176,0.523,0.171 c0.011-0.004,0.024-0.005,0.035,0.003c0.081,0.037,0.34,0.17,0.318,0.308c-0.017,0.108-0.181,0.14-0.302,0.154 C23.241,23.628,23.209,23.63,23.178,23.63z M22.736,23.181c0.024,0.083,0.068,0.18,0.148,0.25 c0.094,0.081,0.222,0.115,0.379,0.094c0.206-0.024,0.215-0.069,0.215-0.07c0.006-0.036-0.111-0.128-0.245-0.194 C23.109,23.294,22.895,23.301,22.736,23.181z"/></g><g><path fill="#fbc02d" d="M24.228,24.38c0.031,0,1.112-0.01,1.326,0.041c0.214,0.051,0.449,0.224,0.398,0.683 c0.194,0.102,0.53,0.133,0.53,0.133l0.051,0.846l-0.235,0.51h-0.836c0,0,0-0.316,0.286-0.326c0.286-0.01,0.245-0.041,0.245-0.041 l0.143-0.214l-0.051-0.245c0,0-0.806,0.224-0.918-0.581c-0.184-0.02-0.959,0.031-1.244,0.214 c-0.286,0.184-0.714,0.061-0.714,0.061l-0.275,1.091h-0.999c0,0,0.051-0.214,0.296-0.235c0.245-0.02,0.418-0.428,0.418-0.428 l0.092-0.877l1.163-0.642L24.228,24.38z"/><path fill="#ef6c00" d="M26.298,26.643h-0.836c-0.028,0-0.05-0.022-0.05-0.05c0-0.126,0.069-0.367,0.333-0.376 c0.13-0.005,0.184-0.014,0.205-0.02l0.131-0.196l-0.036-0.175c-0.115,0.022-0.398,0.054-0.626-0.095 c-0.157-0.104-0.256-0.271-0.296-0.499c-0.237-0.015-0.919,0.045-1.174,0.209c-0.245,0.157-0.578,0.105-0.705,0.08l-0.263,1.043 c-0.005,0.021-0.025,0.037-0.048,0.037h-1c-0.015,0-0.03-0.007-0.039-0.019c-0.01-0.013-0.013-0.028-0.01-0.043 c0.021-0.086,0.119-0.254,0.34-0.272c0.172-0.015,0.325-0.281,0.374-0.392l0.091-0.869c0.002-0.017,0.011-0.031,0.025-0.039 l1.163-0.643c0.008-0.004,0.021-0.009,0.026-0.006l0.341,0.011c0.337-0.004,1.134-0.002,1.321,0.041 c0.148,0.036,0.483,0.176,0.439,0.703c0.186,0.085,0.479,0.112,0.481,0.112c0.025,0.002,0.044,0.022,0.045,0.047l0.051,0.847 c0,0.008-0.001,0.017-0.004,0.023l-0.234,0.51C26.335,26.632,26.317,26.643,26.298,26.643z M25.517,26.543h0.749l0.216-0.47 l-0.047-0.792c-0.099-0.012-0.346-0.049-0.506-0.134c-0.018-0.01-0.028-0.029-0.026-0.05c0.048-0.437-0.169-0.583-0.36-0.629 c-0.123-0.029-0.609-0.049-1.297-0.039h-0.017c0,0-0.001,0-0.001,0l-0.312-0.01l-1.128,0.623l-0.089,0.851 c0,0.005-0.002,0.01-0.004,0.015c-0.007,0.018-0.188,0.437-0.459,0.459c-0.127,0.011-0.192,0.081-0.225,0.135h0.885l0.266-1.054 c0.003-0.013,0.012-0.023,0.023-0.03c0.012-0.008,0.025-0.012,0.039-0.005c0.004-0.001,0.41,0.112,0.673-0.056 c0.306-0.197,1.106-0.245,1.276-0.222c0.023,0.003,0.041,0.021,0.044,0.043c0.031,0.219,0.118,0.377,0.258,0.469 c0.252,0.165,0.594,0.072,0.597,0.071c0.015-0.006,0.028-0.002,0.039,0.005c0.012,0.008,0.021,0.02,0.023,0.033l0.051,0.245 c0.003,0.013,0,0.026-0.007,0.037l-0.133,0.2c0,0.002,0,0.005-0.001,0.007c-0.011,0.036-0.038,0.061-0.292,0.07 C25.576,26.322,25.529,26.465,25.517,26.543z"/></g><g><path fill="#fbc02d" d="M22.698,24.777c0,0-0.469,0-0.52-0.204c-0.051-0.204-0.163-0.622-0.163-0.622 s-0.153-0.041-0.224-0.102c-0.071-0.061-0.184-0.255-0.173-0.398c0.143,0.214,0.337,0.143,0.337,0.143l-0.204-0.337l0.071-0.112 l-0.112-0.204l0.275,0.112l-0.02-0.286l0.204,0.214l0.194-0.265c0,0,0.071,0.857-0.061,1.071c0.061,0.224,0.173,0.428,0.173,0.428 l0.479,0.01l0.133,0.439L22.698,24.777z"/><path fill="#ef6c00" d="M22.698,24.827c-0.052,0-0.51-0.007-0.569-0.242c-0.043-0.172-0.13-0.498-0.156-0.594 c-0.051-0.016-0.155-0.052-0.215-0.104c-0.085-0.074-0.202-0.281-0.191-0.44c0.001-0.021,0.017-0.039,0.037-0.045 c0.02-0.006,0.042,0.003,0.054,0.021c0.072,0.107,0.156,0.131,0.213,0.132l-0.165-0.271c-0.01-0.017-0.009-0.037,0.001-0.053 l0.055-0.088l-0.098-0.178c-0.01-0.019-0.007-0.042,0.007-0.058s0.037-0.021,0.056-0.013l0.201,0.081l-0.015-0.204 c-0.001-0.021,0.01-0.041,0.03-0.05c0.017-0.01,0.041-0.005,0.056,0.012l0.163,0.17l0.158-0.217 c0.013-0.018,0.036-0.027,0.054-0.019c0.02,0.005,0.034,0.022,0.036,0.044c0.007,0.087,0.066,0.836-0.057,1.081 c0.047,0.164,0.12,0.315,0.15,0.373l0.45,0.01c0.021,0,0.041,0.015,0.047,0.035l0.132,0.438c0.004,0.013,0.002,0.026-0.004,0.038 s-0.017,0.021-0.03,0.024l-0.387,0.112C22.708,24.827,22.703,24.827,22.698,24.827z M21.693,23.6 c0.034,0.092,0.092,0.179,0.13,0.212c0.051,0.044,0.165,0.081,0.205,0.092c0.017,0.004,0.03,0.018,0.035,0.035 c0,0,0.112,0.418,0.163,0.623c0.034,0.133,0.348,0.164,0.465,0.166l0.332-0.097l-0.107-0.355l-0.443-0.009 c-0.018,0-0.034-0.01-0.043-0.025c-0.004-0.009-0.116-0.212-0.178-0.44c-0.003-0.013-0.001-0.027,0.006-0.039 c0.086-0.139,0.079-0.617,0.063-0.904l-0.113,0.154c-0.009,0.014-0.028,0.025-0.041,0.021c-0.014,0-0.027-0.006-0.036-0.016 l-0.107-0.112l0.01,0.146c0.001,0.018-0.006,0.034-0.021,0.044c-0.015,0.011-0.031,0.014-0.048,0.006l-0.145-0.059l0.044,0.08 c0.009,0.017,0.008,0.036-0.002,0.051l-0.055,0.087l0.188,0.31c0.007,0.014,0.009,0.028,0.004,0.043 c-0.005,0.014-0.016,0.025-0.03,0.03C21.915,23.664,21.801,23.672,21.693,23.6z"/></g><g><path fill="#fbc02d" d="M23.524,23.727h-0.479l-0.031-0.235c0,0,0.245-0.031,0.245-0.133s-0.306-0.133-0.306-0.133 l-0.102-0.367l0.469-0.041c0,0,0.235-0.194,0.398-0.122c0.235-0.122,0.479-0.092,0.479-0.092l-0.092,0.173l0.49,0.122 l-0.306,0.255l0.296,0.275l-0.377,0.173l0.367,0.337l-0.337,0.112l0.194,0.581l-0.367-0.173l-0.051,0.459l-0.173-0.071 l-0.163,0.612l-0.224-0.163l-0.245,0.286l-0.275-0.347l-0.357,0.061l0.061-0.418c0,0-0.112-0.326,0.02-0.561 s0.296-0.49,0.632-0.418C23.442,23.829,23.524,23.727,23.524,23.727z"/><path fill="#ef6c00" d="M23.208,25.633C23.208,25.633,23.208,25.633,23.208,25.633c-0.016,0-0.03-0.007-0.039-0.019 l-0.257-0.323l-0.328,0.056c-0.014,0.005-0.032-0.002-0.043-0.013c-0.012-0.012-0.017-0.027-0.015-0.043l0.059-0.408 c-0.02-0.063-0.101-0.361,0.028-0.589c0.116-0.206,0.293-0.517,0.669-0.446c0.046-0.022,0.084-0.048,0.115-0.071h-0.353 c-0.025,0-0.046-0.019-0.05-0.043l-0.031-0.234c-0.001-0.014,0.002-0.027,0.01-0.037c0.008-0.011,0.02-0.018,0.033-0.02 c0.102-0.013,0.201-0.054,0.201-0.083c-0.005-0.025-0.127-0.068-0.261-0.082c-0.021-0.002-0.038-0.017-0.043-0.036l-0.102-0.367 c-0.004-0.015-0.001-0.03,0.007-0.042c0.008-0.013,0.022-0.021,0.037-0.021l0.455-0.04c0.052-0.039,0.252-0.177,0.414-0.128 c0.239-0.117,0.479-0.087,0.489-0.087c0.016,0.002,0.03,0.013,0.038,0.026c0.007,0.015,0.007,0.032,0,0.047l-0.062,0.116 l0.427,0.106c0.018,0.005,0.032,0.02,0.037,0.038c0.004,0.018-0.002,0.037-0.017,0.049l-0.262,0.22l0.254,0.235 c0.012,0.012,0.018,0.028,0.015,0.045c-0.002,0.017-0.013,0.03-0.028,0.037l-0.309,0.143l0.312,0.286 c0.013,0.013,0.019,0.03,0.015,0.048s-0.016,0.031-0.033,0.037l-0.289,0.095l0.178,0.535c0.006,0.019,0.001,0.04-0.014,0.053 c-0.015,0.014-0.037,0.019-0.055,0.008l-0.304-0.144l-0.043,0.39c-0.002,0.016-0.011,0.029-0.024,0.037 c-0.013,0.009-0.029,0.011-0.044,0.003l-0.121-0.049l-0.148,0.557c-0.004,0.016-0.016,0.029-0.032,0.034 c-0.014,0.007-0.032,0.004-0.046-0.007l-0.188-0.136l-0.214,0.25C23.236,25.627,23.223,25.633,23.208,25.633z M22.933,25.187 c0.015,0,0.03,0.007,0.039,0.019l0.238,0.3l0.205-0.239c0.017-0.021,0.047-0.024,0.067-0.008l0.166,0.12l0.145-0.542 c0.004-0.014,0.013-0.025,0.026-0.032c0.013-0.006,0.027-0.008,0.041-0.001l0.112,0.046l0.043-0.394 c0.002-0.016,0.011-0.03,0.025-0.038c0.015-0.007,0.031-0.01,0.046-0.001l0.261,0.123l-0.157-0.471 c-0.004-0.013-0.003-0.026,0.002-0.038c0.006-0.012,0.017-0.021,0.029-0.025l0.255-0.084l-0.304-0.279 c-0.013-0.012-0.018-0.028-0.016-0.045s0.013-0.03,0.028-0.037l0.309-0.143l-0.241-0.224c-0.01-0.01-0.016-0.024-0.016-0.038 c0-0.015,0.007-0.028,0.018-0.037l0.23-0.193l-0.394-0.098c-0.015-0.004-0.027-0.015-0.034-0.028 c-0.006-0.015-0.005-0.03,0.002-0.044l0.054-0.103c-0.086,0.001-0.233,0.015-0.375,0.089c-0.014,0.007-0.03,0.008-0.043,0.002 c-0.113-0.048-0.288,0.065-0.346,0.115c-0.008,0.006-0.017,0.01-0.027,0.011l-0.409,0.036l0.077,0.276 c0.117,0.015,0.316,0.058,0.316,0.178c0,0.111-0.152,0.157-0.239,0.175l0.019,0.143h0.435c0.019,0,0.037,0.011,0.045,0.028 c0.008,0.017,0.006,0.037-0.006,0.053c-0.003,0.005-0.091,0.112-0.252,0.188c-0.009,0.006-0.02,0.007-0.031,0.004 c-0.292-0.056-0.441,0.15-0.579,0.394c-0.12,0.212-0.018,0.517-0.017,0.52c0.002,0.008,0.003,0.016,0.002,0.023l-0.051,0.352 l0.289-0.05C22.927,25.187,22.93,25.187,22.933,25.187z M23.524,23.776h0.001H23.524z"/></g><g><polyline fill="#fbc02d" points="23.677,24.257 23.381,24.451 23.31,24.165 23.116,24.237 23.055,24.094 22.678,24.237"/><path fill="#ef6c00" d="M23.381,24.501c-0.006,0-0.012-0.001-0.018-0.003c-0.015-0.006-0.026-0.02-0.03-0.035l-0.058-0.231 l-0.142,0.052c-0.024,0.008-0.053-0.003-0.063-0.027l-0.042-0.099l-0.333,0.126c-0.026,0.008-0.054-0.003-0.064-0.029 c-0.01-0.025,0.003-0.055,0.029-0.064l0.377-0.143c0.025-0.01,0.053,0.002,0.063,0.027l0.042,0.099l0.149-0.055 c0.013-0.005,0.028-0.004,0.041,0.003s0.021,0.019,0.025,0.032l0.054,0.218l0.237-0.156c0.021-0.014,0.053-0.009,0.069,0.015 c0.015,0.023,0.008,0.054-0.015,0.069l-0.296,0.194C23.4,24.498,23.391,24.501,23.381,24.501z"/></g><g><path fill="#ef6c00" d="M23.605,25.153c-0.017,0-0.033-0.008-0.042-0.022l-0.19-0.294l-0.19,0.199 c-0.012,0.014-0.029,0.019-0.046,0.015c-0.017-0.004-0.031-0.016-0.037-0.032l-0.105-0.29l-0.199,0.216 c-0.019,0.02-0.05,0.021-0.071,0.003c-0.02-0.02-0.021-0.051-0.002-0.071l0.255-0.275c0.011-0.013,0.03-0.02,0.046-0.015 c0.017,0.003,0.031,0.016,0.037,0.032l0.105,0.291l0.179-0.187c0.009-0.011,0.022-0.016,0.036-0.016c0.001,0,0.003,0,0.005,0 c0.015,0.002,0.029,0.01,0.037,0.022l0.167,0.259l0.121-0.369c0.006-0.018,0.021-0.031,0.04-0.034 c0.02-0.001,0.037,0.006,0.048,0.021l0.132,0.184c0.016,0.022,0.011,0.054-0.011,0.07c-0.022,0.015-0.054,0.011-0.07-0.012 l-0.075-0.104l-0.123,0.375c-0.006,0.019-0.022,0.031-0.041,0.034C23.61,25.153,23.607,25.153,23.605,25.153z"/></g><g><path fill="#fbc02d" d="M23.82,22.952c0,0,0.275-0.163,0.367-0.082c0.092,0.082-0.316,0.398-0.316,0.398 s0.122,0.337-0.071,0.5"/><path fill="#ef6c00" d="M23.799,23.817c-0.014,0-0.028-0.006-0.038-0.018c-0.018-0.021-0.015-0.053,0.006-0.07 c0.165-0.139,0.058-0.441,0.057-0.445c-0.007-0.02-0.001-0.043,0.016-0.057c0.169-0.13,0.314-0.282,0.311-0.326 c-0.033-0.026-0.189,0.025-0.305,0.094c-0.024,0.014-0.055,0.006-0.068-0.018c-0.014-0.023-0.006-0.055,0.018-0.068 c0.052-0.03,0.312-0.179,0.426-0.076c0.021,0.018,0.031,0.044,0.03,0.072c-0.004,0.114-0.221,0.3-0.322,0.38 c0.027,0.098,0.083,0.368-0.097,0.521C23.822,23.813,23.811,23.817,23.799,23.817z"/></g><g><path fill="#ef6c00" d="M25.788,24.634c-0.028,0-0.05-0.022-0.05-0.05s0.022-0.05,0.05-0.05 c0.004,0,0.445-0.002,0.597-0.168c0.036-0.039,0.051-0.083,0.046-0.136c-0.013-0.154-0.317-0.18-0.61-0.204 c-0.27-0.022-0.548-0.046-0.68-0.172c-0.146-0.14-0.205-0.283-0.168-0.404c0.027-0.088,0.119-0.204,0.398-0.251 c0.026-0.007,0.053,0.013,0.058,0.04c0.004,0.027-0.014,0.054-0.041,0.058c-0.179,0.031-0.292,0.096-0.319,0.183 c-0.025,0.083,0.025,0.19,0.142,0.303c0.106,0.102,0.367,0.124,0.619,0.145c0.35,0.029,0.681,0.057,0.702,0.296 c0.007,0.08-0.018,0.151-0.072,0.211C26.277,24.632,25.808,24.634,25.788,24.634z"/></g><g><path fill="#fbc02d" d="M26.522,23.013c0,0-0.071,0.102-0.326,0.031c-0.255-0.071-0.673-0.041-0.724,0.122 c-0.051,0.163,0.275,0.326,0.673,0.224S26.522,23.013,26.522,23.013z"/><path fill="#ef6c00" d="M25.9,23.473c-0.199,0-0.352-0.063-0.426-0.142c-0.052-0.055-0.069-0.118-0.05-0.18 c0.063-0.201,0.513-0.232,0.786-0.155c0.209,0.058,0.273-0.012,0.273-0.014c0.014-0.016,0.036-0.021,0.055-0.017 c0.02,0.006,0.034,0.022,0.035,0.043c0,0.004,0.018,0.318-0.415,0.431C26.066,23.463,25.979,23.473,25.9,23.473z M25.91,23.058 c-0.192,0-0.366,0.047-0.39,0.123c-0.008,0.026,0.001,0.054,0.027,0.081c0.085,0.089,0.319,0.15,0.586,0.08 c0.21-0.054,0.291-0.158,0.321-0.234c-0.059,0.016-0.147,0.02-0.272-0.016C26.097,23.068,26.001,23.058,25.91,23.058z"/></g><g><path fill="#fbc02d" d="M23.881,13.733c0,0-0.214,1.275-0.173,1.57c0.041,0.296,0.306,0.459,0.439,0.449 c0.133-0.01,0.49-0.265,0.49-0.51c0-0.245-0.224-1.57-0.224-1.57L23.881,13.733z"/><path fill="#ef6c00" d="M24.134,15.853c-0.187,0-0.479-0.203-0.525-0.535c-0.042-0.303,0.152-1.47,0.174-1.602 c0.007-0.044,0.043-0.078,0.087-0.083l0.53-0.061c0.052-0.002,0.101,0.03,0.11,0.083c0.009,0.055,0.226,1.336,0.226,1.587 c0,0.299-0.396,0.596-0.583,0.609C24.147,15.853,24.141,15.853,24.134,15.853z M23.967,13.823 c-0.064,0.396-0.19,1.251-0.161,1.467c0.035,0.252,0.26,0.363,0.331,0.362c0.085-0.006,0.398-0.223,0.398-0.41 c0-0.18-0.138-1.041-0.208-1.46L23.967,13.823z"/></g><g><polygon fill="#fbc02d" points="24.024,12.387 24.044,12.621 23.769,12.601 23.759,12.876 24.085,12.825 24.024,13.09 24.33,13.08 24.279,12.846 24.605,12.907 24.595,12.55 24.34,12.642 24.37,12.346"/><path fill="#ef6c00" d="M24.024,13.141c-0.015,0-0.029-0.007-0.039-0.018c-0.01-0.013-0.014-0.028-0.01-0.043l0.044-0.194 l-0.253,0.04c-0.014,0.002-0.03-0.002-0.041-0.013c-0.011-0.01-0.017-0.024-0.017-0.039l0.01-0.275 c0-0.014,0.006-0.026,0.017-0.035c0.01-0.01,0.024-0.013,0.037-0.013l0.216,0.016l-0.015-0.176 c-0.002-0.026,0.017-0.051,0.044-0.054l0.347-0.041c0.016-0.001,0.03,0.004,0.041,0.015c0.011,0.01,0.016,0.025,0.015,0.04 l-0.022,0.217l0.18-0.064c0.016-0.006,0.032-0.004,0.045,0.006c0.013,0.009,0.021,0.023,0.021,0.04l0.01,0.357 c0,0.015-0.006,0.029-0.018,0.039c-0.011,0.01-0.028,0.015-0.042,0.011l-0.252-0.047l0.035,0.16c0.003,0.015,0,0.029-0.009,0.041 c-0.009,0.012-0.023,0.02-0.038,0.02l-0.306,0.011C24.025,13.141,24.024,13.141,24.024,13.141z M24.085,12.775 c0.014,0,0.027,0.006,0.037,0.016c0.011,0.013,0.016,0.029,0.012,0.045l-0.046,0.202l0.181-0.006l-0.038-0.176 c-0.003-0.017,0.001-0.033,0.013-0.046c0.011-0.012,0.03-0.019,0.045-0.014l0.265,0.05l-0.006-0.227l-0.19,0.068 c-0.018,0.005-0.035,0.002-0.048-0.008c-0.014-0.011-0.021-0.027-0.019-0.044l0.024-0.234l-0.237,0.028l0.016,0.187 c0.001,0.015-0.004,0.028-0.014,0.039s-0.022,0.019-0.04,0.015l-0.223-0.017l-0.006,0.163l0.266-0.042 C24.08,12.775,24.083,12.775,24.085,12.775z"/></g><g><path fill="#fbc02d" d="M25.533,15.467c0,0-0.408,0.398-0.816,0.428s-0.591-0.469-0.591-0.469s-0.357,0.52-0.591,0.5 s-0.826-0.459-0.826-0.459s0.082,0.459-0.347,0.5s-0.724-0.388-0.724-0.388s0.092,0.418,0.408,0.571 c0.316,0.153,0.357,0.296,0.357,0.296l3.478,0.051c0,0,0.296-0.326,0.551-0.306s0.337-0.653,0.337-0.653s-0.398,0.439-0.877,0.449 C25.411,15.997,25.533,15.467,25.533,15.467z"/><path fill="#ef6c00" d="M25.88,16.596c0,0-0.001,0-0.001,0l-3.478-0.051c-0.044,0-0.083-0.029-0.095-0.072l0,0 c0,0-0.048-0.109-0.304-0.233c-0.356-0.171-0.458-0.62-0.462-0.639c-0.01-0.047,0.014-0.094,0.058-0.113 c0.042-0.02,0.095-0.005,0.122,0.035c0.003,0.003,0.275,0.383,0.632,0.344c0.093-0.009,0.159-0.04,0.202-0.096 c0.085-0.111,0.057-0.285,0.056-0.286c-0.007-0.041,0.012-0.081,0.046-0.103c0.034-0.021,0.078-0.021,0.112,0.005 c0.22,0.163,0.625,0.427,0.775,0.439c0.002,0,0.004,0,0.006,0c0.118,0,0.361-0.263,0.494-0.457 c0.022-0.03,0.057-0.041,0.095-0.043c0.037,0.005,0.069,0.03,0.082,0.065c0.001,0.004,0.161,0.428,0.49,0.403 c0.368-0.027,0.75-0.396,0.754-0.399c0.031-0.031,0.079-0.038,0.119-0.016c0.039,0.021,0.059,0.066,0.049,0.109 c-0.013,0.059-0.031,0.23,0.045,0.323c0.042,0.052,0.111,0.065,0.211,0.074c0.43-0.009,0.802-0.412,0.806-0.416 c0.028-0.032,0.075-0.041,0.115-0.023c0.04,0.019,0.063,0.06,0.058,0.103c-0.015,0.126-0.106,0.741-0.423,0.741 c-0.013-0.001-0.024-0.002-0.036-0.002c-0.167,0-0.382,0.196-0.453,0.274C25.935,16.584,25.908,16.596,25.88,16.596z M22.463,16.346l3.375,0.05c0.088-0.089,0.328-0.306,0.569-0.306c0.013,0,0.025,0,0.035,0.001c0.057,0,0.12-0.123,0.167-0.281 c-0.174,0.129-0.43,0.271-0.717,0.276c-0.005,0.001-0.011,0.001-0.017,0.001c-0.155,0-0.274-0.05-0.354-0.148 c-0.061-0.075-0.087-0.166-0.097-0.25c-0.167,0.125-0.43,0.286-0.699,0.306c-0.318,0.026-0.517-0.212-0.616-0.378 c-0.132,0.166-0.36,0.41-0.562,0.41c-0.007,0-0.014,0-0.021-0.001c-0.182-0.016-0.519-0.229-0.719-0.366 c-0.011,0.075-0.038,0.158-0.093,0.231c-0.078,0.102-0.193,0.161-0.342,0.175c-0.137,0.012-0.263-0.015-0.371-0.062 c0.027,0.021,0.057,0.041,0.089,0.057C22.313,16.168,22.417,16.276,22.463,16.346z"/></g><g><path fill="#fbc02d" d="M25.706,17.19l0.153-0.826c0,0-1.978-0.214-3.457,0.082c0.112,0.408,0.133,0.724,0.133,0.724 L25.706,17.19z"/><path fill="#ef6c00" d="M25.707,17.29L25.707,17.29l-3.172-0.021c-0.053,0-0.096-0.041-0.099-0.093 c0-0.004-0.021-0.312-0.129-0.705c-0.008-0.026-0.003-0.056,0.011-0.079c0.014-0.023,0.038-0.04,0.065-0.045 c1.477-0.298,3.467-0.085,3.487-0.083c0.028,0.003,0.053,0.018,0.069,0.04s0.023,0.051,0.018,0.078l-0.153,0.826 C25.796,17.256,25.755,17.29,25.707,17.29z M22.626,17.07l2.998,0.02l0.118-0.637c-0.418-0.037-1.979-0.153-3.215,0.07 C22.585,16.763,22.614,16.961,22.626,17.07z"/></g><g><ellipse cx="24.105" cy="17.221" fill="#fbc02d" rx="1.591" ry=".265"/><path fill="#ef6c00" d="M24.105,17.585c-0.396,0-1.691-0.026-1.691-0.364c0-0.339,1.294-0.365,1.691-0.365 s1.691,0.026,1.691,0.365C25.796,17.559,24.502,17.585,24.105,17.585z M22.65,17.221c0.149,0.067,0.644,0.165,1.456,0.165 c0.76,0,1.297-0.09,1.457-0.165c-0.148-0.067-0.643-0.166-1.457-0.166C23.294,17.055,22.799,17.152,22.65,17.221z M25.604,17.248 h0.002H25.604z"/></g><g><ellipse cx="24.146" cy="13.483" fill="#fbc02d" rx=".5" ry=".433"/><path fill="#ef6c00" d="M24.146,14.016c-0.331,0-0.6-0.238-0.6-0.532s0.269-0.533,0.6-0.533c0.331,0,0.6,0.239,0.6,0.533 S24.477,14.016,24.146,14.016z M24.146,13.149c-0.22,0-0.399,0.15-0.399,0.334s0.179,0.333,0.399,0.333 c0.221,0,0.4-0.149,0.4-0.333S24.367,13.149,24.146,13.149z"/></g><g><polygon fill="#fbc02d" points="14.111,24.053 14.336,24.41 13.979,24.441 14.213,24.94 14.438,24.777 14.611,25.318 14.978,25.175 14.713,24.635 15.08,24.563 14.886,24.094 14.621,24.278 14.57,23.87"/><path fill="#ef6c00" d="M14.611,25.417c-0.015,0-0.029-0.003-0.043-0.01c-0.025-0.012-0.044-0.033-0.052-0.06l-0.131-0.408 l-0.112,0.082c-0.024,0.018-0.055,0.023-0.084,0.016c-0.029-0.007-0.053-0.027-0.065-0.054l-0.235-0.5 c-0.014-0.03-0.013-0.064,0.004-0.093c0.016-0.028,0.045-0.047,0.078-0.05l0.193-0.017l-0.137-0.219 c-0.016-0.024-0.02-0.056-0.01-0.084s0.031-0.051,0.058-0.062l0.459-0.183c0.029-0.011,0.062-0.01,0.088,0.007 c0.027,0.016,0.044,0.043,0.048,0.073l0.03,0.244l0.129-0.09c0.024-0.017,0.056-0.022,0.085-0.014 c0.029,0.009,0.053,0.029,0.064,0.058l0.194,0.47c0.012,0.027,0.01,0.059-0.004,0.086c-0.014,0.026-0.04,0.045-0.069,0.051 l-0.239,0.046l0.208,0.423c0.012,0.025,0.014,0.055,0.003,0.08c-0.01,0.026-0.031,0.047-0.057,0.057l-0.367,0.143 C14.635,25.415,14.623,25.417,14.611,25.417z M14.438,24.678c0.01,0,0.021,0.001,0.031,0.005c0.03,0.01,0.054,0.033,0.064,0.064 l0.141,0.438l0.167-0.064l-0.217-0.442c-0.014-0.027-0.014-0.061,0-0.089c0.014-0.027,0.04-0.047,0.07-0.054l0.247-0.048 l-0.1-0.241l-0.163,0.112c-0.028,0.021-0.065,0.023-0.098,0.009c-0.032-0.014-0.054-0.044-0.058-0.078l-0.035-0.279l-0.228,0.091 l0.161,0.256c0.018,0.029,0.02,0.066,0.004,0.098s-0.046,0.052-0.081,0.055l-0.214,0.019l0.123,0.26l0.126-0.092 C14.396,24.684,14.417,24.678,14.438,24.678z"/></g><g><path fill="#ef6c00" d="M24.133,29.243c-0.012,0-0.024-0.001-0.036-0.001c-0.011,0-0.023-0.002-0.034-0.006 c-0.04-0.014-0.066-0.052-0.066-0.094v-0.007c-0.115-0.138-0.456-0.493-1.104-0.781c-0.819-0.365-2.056-0.918-1.81-2.301 c0.022-0.097,0.048-0.197,0.075-0.305c0.177-0.692,0.419-1.64-0.007-2.665c-0.014-0.033-0.009-0.07,0.013-0.099l0.83-1.08 c0.027-0.038,0.079-0.051,0.123-0.029c0.012,0.006,1.145,0.536,1.902,0.069c0.008-0.012,0.02-0.022,0.032-0.029 c0.014-0.007,0.029-0.012,0.044-0.014c0.027-0.018,0.058-0.015,0.089,0.001c0.021,0.011,0.035,0.03,0.042,0.052 c0.757,0.452,1.875-0.074,1.887-0.079c0.042-0.021,0.093-0.009,0.122,0.029l0.83,1.08c0.022,0.028,0.027,0.065,0.013,0.099 c-0.426,1.025-0.184,1.973-0.007,2.665c0.027,0.107,0.053,0.208,0.074,0.3c0,0.002,0,0.004,0.001,0.005 c0.246,1.384-0.991,1.936-1.81,2.301c-0.647,0.288-0.989,0.644-1.104,0.781v0.007c0,0.042-0.026,0.08-0.066,0.094 C24.156,29.241,24.145,29.243,24.133,29.243z M21.358,23.062c0.421,1.066,0.165,2.069-0.005,2.736 c-0.027,0.106-0.052,0.205-0.073,0.296c-0.218,1.225,0.888,1.718,1.695,2.077c0.628,0.28,0.989,0.625,1.14,0.795 c0.152-0.17,0.513-0.515,1.141-0.795c0.807-0.359,1.911-0.852,1.694-2.08c-0.021-0.09-0.045-0.188-0.072-0.293 c-0.17-0.667-0.427-1.67-0.005-2.736l-0.747-0.973c-0.279,0.12-1.271,0.483-2.01,0.032c-0.741,0.452-1.731,0.088-2.01-0.032 L21.358,23.062z"/></g></svg>