<svg xmlns="http://www.w3.org/2000/svg"  viewBox="0 0 48 48" width="500px" height="500px"><path fill="#d50000" d="M44,24c0,11.046-8.954,20-20,20S4,35.046,4,24c0-2.216,0.36-4.348,1.026-6.341 C6.311,13.812,14.489,11,14.489,11s0.04-4.693,1.507-5.334C18.447,4.594,21.154,4,24,4C35.046,4,44,12.954,44,24z"/><path fill="#283593" d="M24,4C15.129,4,7.618,9.781,5,17.777V18h20V4.042C24.667,4.025,24.337,4,24,4z"/><path fill="#fff" d="M16,8.594V5.675c-1.432,0.626-2.767,1.424-4,2.352V8.31l-0.206-0.128 c-3.105,2.399-5.483,5.683-6.753,9.483L12,13.32V18h4v-4.965L23.949,18H25v-2.609L21.171,13H25V9h-4.421L25,6.238V4.05 C24.667,4.034,24.338,4,24,4c-0.235,0-0.464,0.027-0.697,0.035L16,8.594z"/><path fill="#e53935" d="M13,12v6h2v-6h10v-2H15V6.157c-0.689,0.348-1.36,0.725-2,1.148V10H9.729 c-0.613,0.625-1.174,1.299-1.701,2H13z"/><path fill="#e53935" d="M11.641,13H9.898l-3.972,2.479c-0.229,0.484-0.437,0.977-0.627,1.481L11.641,13z"/><path fill="#e53935" d="M24.213,4.011L16.223,9h1.746L25,4.609V4.05C24.738,4.037,24.478,4.014,24.213,4.011z"/><polygon fill="#e53935" points="25,15.934 20.301,13 18.559,13 25,17.02"/><path fill="#fff" d="M35,34.269L35,23h-6.474h-0.053H22v11.269c0,3.038,3.382,3.798,6.474,4.717 c0,0.017-0.004,0.017,0.026,0.008c0.031,0.009,0.026,0.01,0.026-0.008C31.618,38.067,35,37.307,35,34.269z"/><path fill="#263238" d="M28.524,39.05c-0.009,0-0.018-0.002-0.024-0.004c-0.021,0.008-0.039,0.007-0.056-0.007 l-0.021-0.016c-0.204-0.061-0.409-0.12-0.615-0.181c-2.88-0.841-5.858-1.711-5.858-4.574V22.95h13.1v11.318 c0,2.863-2.979,3.733-5.858,4.574c-0.208,0.062-0.417,0.122-0.623,0.184c-0.003,0.005-0.007,0.009-0.013,0.013 C28.545,39.048,28.534,39.05,28.524,39.05z M28.491,38.996L28.491,38.996L28.491,38.996z M28.511,38.98l0.003,0.005l0.005-0.01 c-0.002-0.003-0.004-0.006-0.007-0.01L28.511,38.98z M28.523,38.95v0.016l0.007-0.015C28.528,38.95,28.526,38.95,28.523,38.95z M22.05,23.05v11.219c0,2.788,2.942,3.647,5.787,4.479c0.218,0.063,0.435,0.127,0.651,0.191l0.015,0.005l0.009-0.005 c0.217-0.064,0.434-0.128,0.651-0.191c2.845-0.831,5.787-1.69,5.787-4.479V23.05H22.05z"/><path fill="#43a047" d="M22.238,35.482c0.811,2.021,3.623,2.69,6.236,3.467c0,0.017-0.004,0.017,0.026,0.008 c0.031,0.009,0.026,0.01,0.026-0.008c2.628-0.782,5.458-1.453,6.25-3.501l-0.072-0.133c0,0,0.02-0.695-0.039-1.089 c0,0-0.059,0.901-0.533,1.183c0.099-0.432-0.039-1.164-0.039-1.164l-0.434,1.202c0,0-0.099-0.695-0.217-1.014 c-0.079,0.432-0.513,1.164-0.513,1.164l-0.138-1.146c0,0-0.197,0.601-0.335,0.676c-0.02-0.563-0.336-1.146-0.336-1.146 l-3.602,0.712l-3.602-0.712c0,0-0.316,0.582-0.336,1.146c-0.138-0.075-0.336-0.676-0.336-0.676l-0.138,1.146 c0,0-0.434-0.732-0.513-1.164c-0.118,0.319-0.217,1.014-0.217,1.014l-0.434-1.202c0,0-0.138,0.732-0.04,1.164 c-0.474-0.282-0.533-1.183-0.533-1.183c-0.059,0.394-0.04,1.089-0.04,1.089L22.238,35.482z"/><path fill="#d32f2f" d="M25.23,30.929c0,0-0.266-0.188-0.543,0c-0.434-0.254-1.086,0.169-1.174,0.516 s0.049,0.723,0.049,0.723s-0.148,0.009-0.296,0.188c-0.148,0.178-0.493-0.019-0.493-0.019s0.197,0.413,0.414,0.357 c-0.148,0.263-0.01,0.432,0.03,0.554c0.039,0.122,0.039,0.423-0.089,0.451c0.276-0.056,0.407-0.197,0.355-0.451 c-0.044-0.215,0.118-0.545,0.118-0.545s0,0.47,0.079,0.592c0.079,0.122,0.207,0.376,0.109,0.498 c0.276-0.188,0.375-0.319,0.227-0.554c-0.148-0.235-0.118-0.535-0.118-0.535l0.641,0.648l0.908-1.061L25.23,30.929z"/><path fill="#263238" d="M23.539,34.023l0.211-0.262c0.066-0.082-0.012-0.285-0.111-0.439 c-0.046-0.07-0.067-0.23-0.078-0.37c-0.026,0.094-0.046,0.201-0.028,0.286c0.056,0.273-0.077,0.445-0.395,0.51l-0.021-0.098 c0.005-0.001,0.021-0.005,0.037-0.033c0.048-0.085,0.042-0.27,0.015-0.354c-0.007-0.022-0.018-0.046-0.029-0.071 c-0.045-0.103-0.11-0.25-0.032-0.446c-0.205-0.035-0.36-0.348-0.379-0.388l-0.068-0.144l0.138,0.079 c0.004,0.001,0.31,0.169,0.431,0.03c0.102-0.123,0.206-0.173,0.27-0.193c-0.035-0.119-0.105-0.414-0.034-0.698 c0.054-0.209,0.287-0.438,0.567-0.555c0.24-0.1,0.47-0.102,0.654-0.008c0.291-0.174,0.57,0.017,0.573,0.018l0.018,0.013 l0.004,0.021l0.22,1.384l-0.015,0.018l-0.943,1.104l-0.595-0.602c0.006,0.104,0.029,0.258,0.111,0.389 c0.17,0.27,0.046,0.427-0.241,0.621L23.539,34.023z M23.651,32.488v0.215c0,0.176,0.02,0.484,0.071,0.564 c0.042,0.065,0.149,0.245,0.152,0.401c0.182-0.145,0.199-0.244,0.1-0.403c-0.156-0.247-0.127-0.555-0.126-0.567l0.011-0.105 l0.677,0.685l0.858-1.002l-0.21-1.316c-0.059-0.034-0.26-0.13-0.469,0.011l-0.026,0.018l-0.027-0.016 c-0.214-0.125-0.462-0.056-0.593-0.001c-0.249,0.104-0.463,0.309-0.508,0.487c-0.083,0.327,0.047,0.689,0.048,0.692l0.023,0.063 l-0.067,0.004c-0.005,0.001-0.13,0.013-0.261,0.171c-0.104,0.126-0.284,0.099-0.411,0.056c0.074,0.109,0.189,0.231,0.281,0.201 l0.114-0.029l-0.058,0.103c-0.107,0.19-0.051,0.319,0,0.433c0.013,0.029,0.025,0.057,0.033,0.081 c0.028,0.088,0.038,0.254,0.002,0.373c0.15-0.066,0.202-0.178,0.168-0.348c-0.047-0.229,0.115-0.562,0.122-0.577L23.651,32.488z"/><path fill="#d32f2f" d="M26.72,35.145c0,0-0.632,0.028-0.849,0.188c-0.217,0.16-0.414,0.188-0.414,0.188 s-0.868-0.282-0.859,0.272c-0.582,0.047-0.444,0.535-0.345,0.61c0.099,0.075,0.188,0.282,0.533,0.122 c0,0.319,0.059,0.47,0.316,0.46c0.257-0.009,0.385-0.244,0.385-0.357c0.128,0.254,0.523,0.282,0.701-0.038 s-0.118-0.357,0.316-0.526c0.434-0.169,0.582-0.686,0.582-0.686L26.72,35.145z"/><path fill="#263238" d="M25.079,37.036c-0.102,0-0.177-0.026-0.231-0.078c-0.07-0.067-0.104-0.174-0.11-0.358 c-0.265,0.094-0.385-0.026-0.465-0.109c-0.018-0.018-0.033-0.035-0.05-0.047c-0.07-0.054-0.141-0.236-0.093-0.402 c0.034-0.115,0.136-0.258,0.42-0.293c0.008-0.113,0.052-0.2,0.133-0.261c0.232-0.172,0.694-0.042,0.777-0.019 c0.042-0.008,0.206-0.047,0.383-0.176c0.226-0.168,0.85-0.196,0.876-0.197l0.016-0.001l0.41,0.264l-0.011,0.035 c-0.006,0.022-0.16,0.543-0.612,0.719c-0.228,0.088-0.226,0.122-0.221,0.202c0.003,0.068,0.009,0.161-0.069,0.301 c-0.091,0.163-0.246,0.26-0.416,0.26c-0.004,0-0.007,0-0.01,0c-0.115-0.003-0.221-0.05-0.296-0.128 c-0.055,0.132-0.192,0.281-0.406,0.288C25.095,37.035,25.087,37.036,25.079,37.036z M24.836,36.447v0.078 c0,0.198,0.024,0.306,0.081,0.36c0.038,0.037,0.092,0.049,0.183,0.05c0.234-0.008,0.338-0.226,0.338-0.307v-0.21l0.095,0.188 c0.051,0.102,0.156,0.166,0.275,0.168c0.003,0,0.005,0,0.008,0c0.133,0,0.256-0.077,0.328-0.208 c0.064-0.114,0.061-0.185,0.057-0.246c-0.007-0.13,0.018-0.197,0.284-0.302c0.343-0.133,0.5-0.502,0.542-0.617l-0.319-0.205 c-0.098,0.006-0.621,0.041-0.806,0.177c-0.225,0.165-0.429,0.195-0.438,0.197l-0.011,0.001l-0.012-0.003 c-0.005-0.002-0.49-0.156-0.699,0c-0.064,0.048-0.096,0.121-0.094,0.224l0.001,0.047l-0.047,0.004 c-0.208,0.017-0.338,0.095-0.376,0.227c-0.038,0.128,0.021,0.267,0.057,0.294c0.02,0.016,0.04,0.035,0.061,0.057 c0.085,0.086,0.173,0.175,0.421,0.061L24.836,36.447z"/><path fill="#d32f2f" d="M31.862,30.929c0,0,0.266-0.188,0.543,0c0.434-0.254,1.086,0.169,1.174,0.516 c0.089,0.347-0.049,0.723-0.049,0.723s0.148,0.009,0.296,0.188c0.148,0.178,0.493-0.019,0.493-0.019s-0.197,0.413-0.414,0.357 c0.148,0.263,0.01,0.432-0.03,0.554s-0.039,0.423,0.089,0.451c-0.276-0.056-0.407-0.197-0.355-0.451 c0.044-0.215-0.118-0.545-0.118-0.545s0,0.47-0.079,0.592c-0.079,0.122-0.207,0.376-0.109,0.498 c-0.276-0.188-0.375-0.319-0.227-0.554c0.148-0.235,0.118-0.535,0.118-0.535l-0.641,0.648l-0.908-1.061L31.862,30.929z"/><path fill="#263238" d="M33.553,34.023l-0.278-0.189c-0.287-0.194-0.411-0.352-0.241-0.621 c0.082-0.131,0.105-0.285,0.111-0.389l-0.595,0.602l-0.035-0.042l-0.923-1.079l0.003-0.022l0.222-1.382l0.017-0.013 c0.003-0.001,0.283-0.19,0.573-0.018c0.184-0.095,0.414-0.092,0.654,0.008c0.28,0.117,0.514,0.346,0.567,0.555 c0.072,0.284,0.002,0.579-0.034,0.698c0.063,0.021,0.168,0.07,0.27,0.193c0.121,0.145,0.428-0.028,0.432-0.03l0.138-0.079 l-0.068,0.144c-0.019,0.04-0.174,0.353-0.379,0.388c0.077,0.196,0.012,0.344-0.033,0.446c-0.012,0.025-0.022,0.049-0.029,0.071 c-0.027,0.084-0.032,0.271,0.016,0.354c0.011,0.019,0.023,0.029,0.036,0.032l-0.021,0.098c-0.316-0.064-0.449-0.236-0.395-0.51 c0.018-0.085-0.002-0.192-0.028-0.287c-0.011,0.141-0.032,0.301-0.078,0.371c-0.1,0.154-0.178,0.357-0.111,0.439L33.553,34.023z M33.233,32.592l0.011,0.106c0.001,0.013,0.029,0.32-0.127,0.567c-0.1,0.159-0.082,0.259,0.1,0.403 c0.003-0.156,0.11-0.336,0.152-0.401c0.052-0.08,0.071-0.389,0.071-0.564v-0.215l0.095,0.192c0.007,0.015,0.169,0.349,0.122,0.577 c-0.034,0.17,0.019,0.281,0.169,0.348c-0.036-0.118-0.027-0.284,0.001-0.373c0.008-0.024,0.021-0.052,0.033-0.081 c0.051-0.113,0.107-0.242,0-0.433l-0.058-0.103l0.114,0.029c0.101,0.032,0.209-0.092,0.283-0.202 c-0.129,0.044-0.308,0.071-0.413-0.055c-0.131-0.158-0.256-0.17-0.262-0.171l-0.065-0.006l0.022-0.062 c0.001-0.003,0.132-0.365,0.048-0.692c-0.045-0.179-0.259-0.384-0.508-0.487c-0.131-0.055-0.379-0.124-0.593,0.001l-0.027,0.016 l-0.026-0.018c-0.209-0.141-0.409-0.044-0.468-0.011l-0.211,1.316l0.858,1.002L33.233,32.592z"/><path fill="#d32f2f" d="M30.372,35.145c0,0,0.632,0.028,0.849,0.188c0.217,0.16,0.414,0.188,0.414,0.188 s0.868-0.282,0.859,0.272c0.582,0.047,0.444,0.535,0.345,0.61c-0.099,0.075-0.188,0.282-0.533,0.122 c0,0.319-0.059,0.47-0.316,0.46c-0.257-0.009-0.385-0.244-0.385-0.357c-0.128,0.254-0.523,0.282-0.701-0.038 c-0.178-0.319,0.118-0.357-0.316-0.526s-0.582-0.686-0.582-0.686L30.372,35.145z"/><path fill="#263238" d="M32.013,37.036c-0.008,0-0.016-0.001-0.024-0.001c-0.214-0.007-0.352-0.156-0.406-0.288 c-0.075,0.078-0.182,0.126-0.297,0.128c-0.003,0-0.006,0-0.008,0c-0.171,0-0.326-0.097-0.417-0.26 c-0.078-0.14-0.072-0.232-0.068-0.301c0.004-0.081,0.006-0.114-0.222-0.202c-0.452-0.176-0.605-0.696-0.611-0.719l-0.011-0.036 l0.41-0.263l0.016,0.001c0.026,0.001,0.648,0.029,0.876,0.197c0.176,0.129,0.34,0.168,0.382,0.176 c0.083-0.022,0.543-0.152,0.777,0.019c0.081,0.061,0.125,0.147,0.133,0.261c0.284,0.035,0.386,0.178,0.42,0.293 c0.048,0.166-0.022,0.349-0.093,0.402c-0.017,0.012-0.032,0.029-0.05,0.047c-0.08,0.083-0.199,0.208-0.465,0.109 c-0.007,0.185-0.04,0.291-0.109,0.358C32.19,37.01,32.114,37.036,32.013,37.036z M31.655,36.42v0.209 c0,0.081,0.104,0.299,0.337,0.307c0.007,0,0.015,0,0.021,0c0.075,0,0.126-0.016,0.162-0.05c0.056-0.054,0.08-0.162,0.08-0.36 v-0.078l0.071,0.033c0.249,0.114,0.336,0.025,0.421-0.061c0.021-0.021,0.041-0.041,0.061-0.057 c0.036-0.027,0.095-0.166,0.057-0.294c-0.038-0.132-0.168-0.21-0.376-0.227l-0.047-0.004l0.001-0.047 c0.002-0.103-0.029-0.176-0.094-0.224c-0.209-0.156-0.694-0.002-0.699,0l-0.012,0.003l-0.011-0.001 c-0.009-0.002-0.213-0.032-0.437-0.197c-0.186-0.136-0.709-0.171-0.806-0.177l-0.319,0.205c0.042,0.115,0.198,0.484,0.541,0.617 c0.267,0.104,0.291,0.172,0.284,0.302c-0.004,0.062-0.008,0.132,0.057,0.246c0.072,0.131,0.195,0.208,0.329,0.208 c0.002,0,0.004,0,0.006,0c0.12-0.002,0.226-0.066,0.277-0.168L31.655,36.42z"/><path fill="#d32f2f" d="M32.997,27.802c-0.266-0.357-0.434-0.038-0.434-0.038s-0.257-0.3-0.484-0.066 c-0.474-0.141-0.503,0.263-0.464,0.394c-0.336-0.197-0.898-0.141-0.898-0.141l0.03-0.357c0,0-0.681,0.16-0.503-0.15 c0.178-0.31-0.217-0.47-0.217-0.47s0.424,0.019,0.454-0.31c0.03-0.329-0.395-0.432-0.395-0.432s0.109,0.141,0,0.225 c-0.109,0.084-0.336-0.085-0.336-0.413c0.326,0.009,0.612,0,0.651-0.413c0,0-0.306,0.188-0.414-0.075 c-0.109-0.263,0.247-0.545,0.247-0.545s-0.306,0.103-0.562-0.066c0.286-0.244,0.237-0.629,0.237-0.629h-0.484l0.148-0.432 l-0.484,0.122c0,0,0.039-0.31,0.03-0.385c-0.158,0.085-0.345,0.16-0.345,0.16l-0.118-0.103v-0.188l-0.109,0.094l-0.109-0.094 v0.188l-0.118,0.103c0,0-0.188-0.075-0.345-0.16c-0.01,0.075,0.03,0.385,0.03,0.385l-0.484-0.122l0.148,0.432h-0.484 c0,0-0.049,0.385,0.237,0.629c-0.257,0.169-0.563,0.066-0.563,0.066s0.355,0.282,0.247,0.545 c-0.109,0.263-0.414,0.075-0.414,0.075c0.039,0.413,0.326,0.423,0.651,0.413c0,0.329-0.227,0.498-0.336,0.413 c-0.109-0.085,0-0.225,0-0.225s-0.424,0.103-0.395,0.432c0.03,0.329,0.454,0.31,0.454,0.31s-0.395,0.16-0.217,0.47 c0.178,0.31-0.503,0.15-0.503,0.15l0.03,0.357c0,0-0.563-0.056-0.898,0.141c0.04-0.131,0.01-0.535-0.464-0.394 c-0.227-0.235-0.484,0.066-0.484,0.066s-0.168-0.319-0.434,0.038c-0.266,0.357,0.326,0.845,0.326,0.845l1.441-0.019h2.576h0.217 h2.576l1.441,0.019C32.671,28.647,33.263,28.159,32.997,27.802z"/><path fill="#263238" d="M32.688,28.696H32.67l-1.44-0.019h-5.367l-1.459,0.019l-0.015-0.012 c-0.025-0.021-0.625-0.522-0.333-0.913c0.094-0.125,0.189-0.188,0.285-0.188c0.006,0,0.012,0,0.018,0 c0.082,0.007,0.143,0.061,0.178,0.104c0.056-0.05,0.157-0.124,0.275-0.128c0.004,0,0.007,0,0.01,0 c0.074,0,0.144,0.028,0.205,0.084c0.221-0.06,0.344,0.004,0.41,0.068c0.078,0.079,0.104,0.197,0.103,0.294 c0.278-0.121,0.643-0.114,0.781-0.106l-0.03-0.368l0.067,0.016c0.193,0.047,0.427,0.057,0.466,0.006 c0.015-0.02-0.008-0.063-0.018-0.082c-0.055-0.095-0.067-0.188-0.037-0.276c0.027-0.078,0.084-0.139,0.139-0.182 c-0.154-0.032-0.325-0.126-0.345-0.342c-0.027-0.294,0.271-0.445,0.433-0.485l0.137-0.033l-0.085,0.112 c-0.008,0.011-0.076,0.104-0.009,0.156c0.023,0.02,0.062,0.008,0.08-0.002c0.076-0.037,0.157-0.151,0.172-0.32 c-0.288,0.003-0.605-0.014-0.649-0.46l-0.01-0.1l0.086,0.052c0.001,0.001,0.14,0.085,0.245,0.05 c0.043-0.015,0.075-0.048,0.098-0.102c0.093-0.225-0.229-0.483-0.232-0.486l-0.223-0.177l0.27,0.09 c0.003,0.001,0.244,0.079,0.464-0.027c-0.247-0.258-0.205-0.61-0.203-0.627l0.006-0.043h0.457l-0.155-0.453l0.502,0.127 c-0.011-0.099-0.027-0.267-0.021-0.325l0.01-0.071l0.063,0.034c0.118,0.062,0.255,0.121,0.312,0.146l0.078-0.067v-0.276 l0.158,0.139l0.158-0.139v0.276l0.079,0.067c0.058-0.024,0.193-0.083,0.312-0.146l0.063-0.034l0.01,0.071 c0.007,0.059-0.01,0.227-0.021,0.325l0.502-0.127l-0.155,0.453h0.458l0.006,0.044c0.002,0.016,0.043,0.368-0.204,0.626 c0.222,0.106,0.46,0.028,0.464,0.027l0.27-0.09l-0.223,0.177c-0.004,0.003-0.325,0.262-0.232,0.487 c0.022,0.053,0.055,0.086,0.099,0.101c0.107,0.036,0.243-0.049,0.244-0.05l0.085-0.052l-0.009,0.1 c-0.039,0.413-0.319,0.46-0.584,0.46c-0.022,0-0.044,0-0.065,0c0.015,0.168,0.096,0.282,0.171,0.32 c0.02,0.01,0.055,0.023,0.083,0.001c0.066-0.052-0.002-0.145-0.01-0.155l-0.085-0.112l0.137,0.033 c0.161,0.04,0.459,0.191,0.433,0.485c-0.02,0.216-0.191,0.31-0.346,0.342c0.055,0.043,0.111,0.104,0.139,0.182 c0.03,0.088,0.018,0.182-0.037,0.276c-0.01,0.019-0.032,0.062-0.018,0.081c0.038,0.053,0.273,0.041,0.467-0.005l0.067-0.016 l-0.031,0.368c0.14-0.008,0.503-0.015,0.781,0.106c-0.002-0.097,0.024-0.215,0.104-0.294c0.064-0.063,0.188-0.126,0.409-0.068 c0.062-0.056,0.131-0.084,0.205-0.084c0.003,0,0.006,0,0.01,0c0.118,0.004,0.22,0.078,0.275,0.128 c0.035-0.043,0.096-0.097,0.179-0.104c0.006,0,0.012,0,0.018,0c0.096,0,0.191,0.063,0.285,0.188l0,0 c0.291,0.391-0.309,0.893-0.334,0.913L32.688,28.696z M24.342,27.683c-0.062,0-0.133,0.052-0.206,0.149 c-0.214,0.286,0.22,0.69,0.304,0.765l1.422-0.019h5.369l1.422,0.019c0.084-0.074,0.518-0.479,0.305-0.765l0,0 c-0.073-0.098-0.144-0.149-0.206-0.149c-0.003,0-0.005,0-0.008,0.001c-0.083,0.006-0.136,0.103-0.137,0.104l-0.034,0.064 l-0.048-0.056c-0.001-0.001-0.117-0.134-0.248-0.137c-0.002,0-0.004,0-0.006,0c-0.057,0-0.107,0.023-0.155,0.074l-0.021,0.021 l-0.029-0.009c-0.154-0.047-0.269-0.036-0.338,0.035c-0.083,0.084-0.082,0.235-0.063,0.297l0.037,0.123l-0.11-0.065 c-0.317-0.187-0.863-0.134-0.868-0.134l-0.06,0.006l0.029-0.351c-0.141,0.028-0.421,0.062-0.503-0.046 c-0.037-0.05-0.033-0.113,0.012-0.19c0.04-0.07,0.049-0.134,0.028-0.194c-0.045-0.132-0.219-0.204-0.221-0.205l-0.265-0.107 l0.285,0.012c0.015-0.002,0.376,0.015,0.402-0.266c0.017-0.187-0.14-0.291-0.251-0.341c0.013,0.061,0.003,0.128-0.062,0.179 c-0.053,0.04-0.122,0.042-0.188,0.009c-0.114-0.056-0.229-0.22-0.229-0.461v-0.052l0.051,0.002 c0.313,0.006,0.523-0.008,0.587-0.278c-0.064,0.023-0.157,0.045-0.237,0.017c-0.072-0.023-0.127-0.076-0.16-0.157 c-0.076-0.185,0.039-0.37,0.141-0.485c-0.124,0.011-0.286-0.003-0.438-0.103l-0.056-0.037l0.051-0.043 c0.208-0.178,0.225-0.439,0.223-0.542h-0.508l0.142-0.41l-0.465,0.117l0.009-0.072c0.011-0.084,0.024-0.212,0.029-0.297 c-0.137,0.067-0.27,0.121-0.276,0.124l-0.028,0.011l-0.159-0.138v-0.101l-0.059,0.051l-0.059-0.051v0.101l-0.017,0.016 l-0.142,0.122l-0.028-0.011c-0.007-0.003-0.14-0.057-0.277-0.124c0.005,0.084,0.019,0.213,0.029,0.297l0.009,0.072l-0.465-0.117 l0.142,0.41h-0.507c-0.002,0.104,0.015,0.365,0.222,0.542l0.051,0.043l-0.056,0.037c-0.151,0.1-0.314,0.113-0.438,0.103 c0.102,0.115,0.217,0.3,0.141,0.484c-0.033,0.082-0.087,0.135-0.159,0.158c-0.085,0.028-0.175,0.007-0.237-0.017 c0.062,0.271,0.273,0.286,0.586,0.278l0.051-0.002v0.052c0,0.241-0.115,0.406-0.229,0.462c-0.068,0.031-0.137,0.029-0.187-0.01 c-0.066-0.051-0.076-0.118-0.063-0.179c-0.111,0.05-0.269,0.154-0.251,0.341c0.025,0.279,0.385,0.268,0.401,0.266l0.288-0.013 l-0.268,0.108c-0.002,0.001-0.176,0.073-0.221,0.205c-0.021,0.061-0.012,0.124,0.028,0.194c0.045,0.077,0.049,0.141,0.012,0.19 c-0.082,0.109-0.364,0.073-0.502,0.046l0.028,0.351l-0.06-0.006c-0.006-0.001-0.552-0.052-0.868,0.134l-0.11,0.065l0.037-0.123 c0.019-0.062,0.02-0.213-0.063-0.297c-0.07-0.07-0.183-0.083-0.338-0.035l-0.029,0.009l-0.021-0.021 c-0.049-0.053-0.104-0.07-0.161-0.074c-0.11,0.003-0.217,0.1-0.248,0.137l-0.048,0.056l-0.034-0.064 c-0.001-0.001-0.054-0.098-0.136-0.104C24.347,27.683,24.344,27.683,24.342,27.683z"/><path fill="#81d4fa" d="M32.582,29.323l-0.03-0.207c0,0,0.691-0.451-0.02-0.892c-0.197,0.329-0.276,0.61-0.898,0.582 c-0.622-0.028-1.855-0.723-1.855-0.723l-0.799-0.056l-0.434,0.202l-0.434-0.202l-0.799,0.056c0,0-1.234,0.695-1.855,0.723 c-0.622,0.028-0.701-0.254-0.898-0.582c-0.711,0.441-0.02,0.892-0.02,0.892l-0.03,0.207c0,0-0.661,0.103-0.414,0.629 c0.75-0.329,1.135,0.639,1.135,0.639l1.421,1.615l1.865,0.173v0.006l0.03-0.003l0.03,0.003v-0.006l1.865-0.173l1.421-1.615 c0,0,0.385-0.967,1.135-0.639C33.243,29.426,32.582,29.323,32.582,29.323z"/><path fill="#263238" d="M28.467,32.44v-0.016l-1.84-0.171l-0.013-0.015l-1.431-1.63c-0.002-0.005-0.195-0.481-0.56-0.631 c-0.16-0.064-0.329-0.06-0.508,0.02l-0.045,0.02l-0.021-0.044c-0.074-0.158-0.08-0.298-0.018-0.416 c0.1-0.186,0.34-0.256,0.432-0.276l0.021-0.142c-0.078-0.058-0.3-0.243-0.297-0.484c0.002-0.173,0.118-0.332,0.345-0.473 l0.043-0.027l0.026,0.044c0.022,0.037,0.044,0.074,0.064,0.11c0.146,0.259,0.255,0.449,0.706,0.449 c0.026,0,0.054-0.001,0.082-0.002c0.603-0.027,1.82-0.711,1.833-0.718l0.021-0.006l0.813-0.057l0.012,0.006l0.412,0.192 l0.425-0.198l0.833,0.062c0.013,0.007,1.23,0.69,1.833,0.718c0.517,0.022,0.634-0.173,0.789-0.447 c0.021-0.036,0.042-0.073,0.064-0.11l0.026-0.044l0.043,0.027c0.227,0.141,0.343,0.3,0.345,0.473 c0.002,0.241-0.22,0.427-0.298,0.484l0.021,0.142c0.093,0.021,0.333,0.091,0.432,0.277c0.062,0.117,0.058,0.257-0.017,0.415 l-0.021,0.044l-0.045-0.02c-0.178-0.079-0.35-0.084-0.508-0.02c-0.365,0.149-0.559,0.626-0.561,0.631l-0.01,0.015l-1.434,1.63 l-0.02,0.002l-1.82,0.169v0.01L28.467,32.44z M26.676,32.158l1.88,0.174l0.015-0.003l1.846-0.171l1.402-1.594 c0.029-0.069,0.231-0.521,0.612-0.679c0.171-0.068,0.352-0.07,0.54,0.002c0.041-0.109,0.042-0.204,0-0.282 c-0.098-0.184-0.394-0.232-0.396-0.232l-0.036-0.006l-0.039-0.275l0.026-0.018c0.003-0.002,0.281-0.187,0.278-0.418 c-0.001-0.126-0.087-0.248-0.254-0.361c-0.013,0.021-0.024,0.043-0.037,0.063c-0.151,0.268-0.284,0.5-0.796,0.5 c-0.027,0-0.055,0-0.084-0.002c-0.604-0.027-1.741-0.653-1.868-0.725l-0.774-0.054l-0.444,0.206l-0.443-0.206l-0.775,0.054 c-0.127,0.071-1.264,0.697-1.868,0.725c-0.029,0.002-0.057,0.002-0.084,0.002c-0.511,0-0.644-0.232-0.795-0.499 c-0.013-0.021-0.024-0.043-0.037-0.064c-0.168,0.113-0.253,0.235-0.255,0.361c-0.003,0.231,0.275,0.416,0.278,0.418l0.026,0.018 l-0.039,0.275l-0.036,0.006c-0.003,0-0.299,0.049-0.396,0.232c-0.041,0.078-0.041,0.173,0.001,0.282 c0.188-0.072,0.369-0.071,0.54-0.001c0.381,0.156,0.582,0.608,0.611,0.678L26.676,32.158z"/><path fill="#fff" d="M31.724,31.21c0,0,0.039-0.441-0.622-0.404c-0.237-0.3-0.592-0.113-0.592-0.113 s-0.118-0.291-0.474-0.169c-0.266-0.291-0.72,0.141-0.72,0.141s-0.454-0.16-0.661,0.066c-0.326-0.066-0.72,0.441-0.898,0.845 s-0.74,2.31-0.74,2.31l1.579,0.948l2.921-1.315l0.859-1.052l-0.582-0.62L31.724,31.21z"/><path fill="#263238" d="M28.593,34.892l-0.022-0.014l-1.612-0.968l0.011-0.037c0.022-0.078,0.565-1.914,0.742-2.316 c0.156-0.355,0.523-0.881,0.883-0.881c0.015,0,0.028,0.001,0.043,0.002c0.203-0.188,0.562-0.099,0.667-0.068 c0.069-0.061,0.288-0.235,0.505-0.235c0.005,0,0.01,0,0.014,0c0.088,0.004,0.164,0.035,0.228,0.095 c0.285-0.086,0.429,0.078,0.481,0.162c0.108-0.042,0.388-0.116,0.593,0.125c0.247-0.012,0.424,0.044,0.535,0.159 c0.116,0.119,0.116,0.264,0.114,0.295l0.067,0.616l0.601,0.641l-0.904,1.1L28.593,34.892z M27.075,33.864l1.523,0.914l2.887-1.299 l0.823-1.009l-0.563-0.6l-0.071-0.665c0.001-0.008,0.007-0.126-0.088-0.223c-0.094-0.097-0.262-0.136-0.481-0.127l-0.026,0.002 l-0.016-0.021c-0.209-0.266-0.518-0.106-0.529-0.1l-0.049,0.025l-0.021-0.051c-0.005-0.01-0.104-0.241-0.411-0.141l-0.031,0.011 l-0.022-0.023c-0.05-0.055-0.108-0.083-0.18-0.085c-0.004,0-0.007,0-0.011,0c-0.216,0-0.456,0.226-0.459,0.228l-0.021,0.021 l-0.029-0.011c-0.004-0.001-0.424-0.146-0.607,0.053l-0.02,0.021l-0.027-0.006c-0.016-0.003-0.032-0.005-0.049-0.005 c-0.269,0-0.612,0.411-0.793,0.822C27.642,31.962,27.155,33.596,27.075,33.864z"/><polygon fill="#fff176" points="25.082,30.234 25.102,29.511 25.319,29.314 25.497,29.548 25.862,29.22 26.039,29.276 26.336,28.976 26.562,29.069 26.582,29.314 26.957,29.163 27.5,29.717 27.391,29.933 27.914,30.215 28.211,32.037 27.806,33.887 26.069,34.037 24.707,33.652 24.253,32.76 25.092,32.131 25.546,31.154"/><path fill="#263238" d="M26.064,34.088l-0.009-0.003l-1.383-0.391l-0.011-0.02l-0.473-0.93l0.033-0.025l0.829-0.621 l0.438-0.943l-0.459-0.91l0.001-0.013l0.02-0.744l0.274-0.249l0.178,0.236l0.347-0.312l0.175,0.057l0.299-0.303l0.286,0.118 l0.016,0.207l0.344-0.138l0.023,0.023l0.567,0.58l-0.103,0.205l0.501,0.27l0.005,0.024l0.298,1.831l-0.002,0.01l-0.413,1.886 l-0.037,0.003L26.064,34.088z M24.741,33.61l1.333,0.376l1.69-0.146l0.396-1.804l-0.291-1.789l-0.544-0.293l0.114-0.227 l-0.495-0.506l-0.406,0.163l-0.023-0.281l-0.167-0.069l-0.295,0.299l-0.179-0.057l-0.384,0.346l-0.178-0.234l-0.161,0.146 l-0.019,0.688l0.469,0.932l-0.011,0.022l-0.469,0.995l-0.806,0.604L24.741,33.61z"/><polygon fill="#5d4037" points="26.493,29.473 27.461,33.07 27.687,33.042"/><path fill="#263238" d="M27.424,33.124l-0.011-0.042l-0.968-3.596l0.096-0.028l1.213,3.626L27.424,33.124z M26.974,31.067 l0.524,1.947L27.621,33L26.974,31.067z"/><path fill="#263238" d="M28.628,31.78l-0.013-0.051l-0.7-2.864l0.096-0.028l0.984,2.84L28.628,31.78z M28.265,29.875 l0.436,1.78l0.166-0.047L28.265,29.875z"/><polygon fill="#263238" points="26.641,33.348 26.256,30.137 26.355,30.125 26.74,33.336"/><polygon fill="#263238" points="28.146,32.641 26.873,29.992 26.963,29.949 28.235,32.598"/><polygon fill="#263238" points="28.161,32.045 27.746,29.547 27.846,29.531 28.261,32.029"/><polygon fill="#263238" points="29.499,31.329 28.403,29.403 28.491,29.354 29.587,31.28"/><polygon fill="#5d4037" points="26.928,29.699 26.109,29.962 26.227,30.253 27.076,29.98"/><path fill="#263238" d="M26.227,30.303c-0.02,0-0.038-0.012-0.046-0.031l-0.118-0.291 c-0.006-0.013-0.005-0.027,0.001-0.04s0.017-0.021,0.029-0.026l0.819-0.264c0.026-0.007,0.049,0.003,0.06,0.024l0.147,0.282 c0.007,0.014,0.008,0.028,0.002,0.042c-0.005,0.014-0.017,0.024-0.03,0.029l-0.849,0.272 C26.236,30.302,26.231,30.303,26.227,30.303z M26.175,29.993l0.081,0.198l0.747-0.24l-0.1-0.192L26.175,29.993z"/><g><path fill="#5d4037" d="M30.273,30.816l0.355,0.873l-0.079,0.291c0,0,0.562,0.254,0.691,0.845 c0.128,0.592-0.967,1.193-0.967,1.193l-1.964,0.394L26,33.868l0.513-0.845c0,0,0.829-0.113,1.401-0.62 c0.039-0.3,0.079-0.826,0.079-0.826L30.273,30.816z"/><path fill="#263238" d="M28.31,34.463c-0.004,0-0.008,0-0.012-0.001l-2.31-0.545c-0.016-0.004-0.028-0.015-0.034-0.029 c-0.007-0.015-0.005-0.032,0.003-0.046l0.513-0.846c0.008-0.013,0.021-0.021,0.036-0.023c0.008-0.001,0.808-0.114,1.361-0.595 c0.038-0.299,0.076-0.8,0.076-0.805c0.001-0.02,0.015-0.037,0.034-0.044l2.28-0.761c0.023-0.006,0.052,0.005,0.062,0.029 l0.354,0.873c0.005,0.01,0.005,0.021,0.002,0.031l-0.067,0.252c0.134,0.07,0.567,0.336,0.681,0.86 c0.135,0.621-0.945,1.223-0.991,1.248c-0.005,0.002-0.01,0.004-0.015,0.005l-1.964,0.395 C28.316,34.463,28.312,34.463,28.31,34.463z M26.078,33.835l2.232,0.527l1.945-0.392c0.089-0.05,1.049-0.609,0.936-1.135 c-0.121-0.56-0.657-0.808-0.662-0.81c-0.022-0.011-0.034-0.035-0.027-0.059l0.073-0.275l-0.33-0.813l-2.205,0.735 c-0.009,0.12-0.042,0.54-0.076,0.796c-0.002,0.012-0.008,0.022-0.017,0.03c-0.529,0.469-1.261,0.605-1.404,0.628L26.078,33.835z M27.914,32.403L27.914,32.403L27.914,32.403z"/></g><g><path fill="#fff" d="M24.441,33.164c0,0,0.079-0.282,0.414-0.207c0.247-0.535,0.997-0.554,1.135,0.066 c0.276-0.31,0.839-0.216,0.681,0.488c0.503-0.704,1.056-0.526,1.204-0.441s0.326,0.554,0.059,0.732 c0.247,0.282,0.868,0.479,1.184,0.019c0.316-0.46,0.76-0.845,1.224-0.77c0.257,0.056,0.316,0.216,0.316,0.216 s0.503-1.071,1.579-0.892c0.237,0.188,0.582,0.347,0.582,0.347l-0.691,1.831l-0.365,0.385l-0.464,0.066l-0.562-0.254l-0.118,0.582 l-0.849,0.488l-0.681,0.366l-0.138,0.3l-0.829,0.038l-0.148-0.47l-0.987-0.385l-0.503-0.376l-0.138-0.601l-0.266,0.16l-0.562,0.16 l-0.385-0.207l-0.385-0.92L24.441,33.164z"/><path fill="#263238" d="M28.086,36.577l-0.152-0.483l-0.977-0.383l-0.519-0.387l-0.004-0.019l-0.122-0.533l-0.22,0.13 l-0.582,0.165l-0.418-0.226l-0.007-0.016l-0.698-1.659l0.005-0.017c0.001-0.003,0.075-0.256,0.354-0.256 c0.025,0,0.053,0.002,0.081,0.006c0.127-0.242,0.366-0.394,0.62-0.394c0.022,0,0.045,0.001,0.066,0.003 c0.238,0.025,0.421,0.18,0.502,0.419c0.152-0.126,0.354-0.162,0.512-0.081c0.079,0.04,0.238,0.163,0.22,0.486 c0.558-0.634,1.127-0.322,1.152-0.309c0.113,0.065,0.215,0.279,0.222,0.468c0.005,0.131-0.035,0.24-0.113,0.314 c0.132,0.126,0.358,0.238,0.587,0.238c0.013,0,0.026-0.001,0.04-0.001c0.184-0.012,0.337-0.099,0.442-0.252 c0.23-0.335,0.704-0.885,1.272-0.792c0.163,0.036,0.255,0.11,0.305,0.168c0.143-0.246,0.664-0.991,1.591-0.844l0.023,0.011 c0.229,0.182,0.568,0.34,0.572,0.342l0.042,0.02l-0.017,0.043l-0.702,1.848l-0.377,0.397l-0.018,0.003l-0.477,0.067l-0.014-0.006 l-0.506-0.228l-0.11,0.543l-0.02,0.011l-0.849,0.488l-0.668,0.359l-0.145,0.313l-0.03,0.001L28.086,36.577z M27.012,35.627 l1.002,0.391l0.008,0.023l0.137,0.433l0.76-0.034l0.133-0.288l0.695-0.374l0.827-0.477l0.128-0.621l0.605,0.272l0.432-0.061 l0.347-0.365l0.672-1.778c-0.099-0.049-0.35-0.177-0.54-0.326c-1.015-0.16-1.493,0.824-1.514,0.866l-0.05,0.107l-0.042-0.111 c-0.002-0.005-0.057-0.135-0.28-0.185c-0.373-0.064-0.802,0.213-1.172,0.75c-0.123,0.18-0.303,0.282-0.519,0.295 c-0.266,0.015-0.572-0.111-0.744-0.309l-0.037-0.043l0.047-0.031c0.101-0.068,0.118-0.182,0.115-0.265 c-0.006-0.165-0.097-0.342-0.171-0.385c-0.025-0.014-0.6-0.327-1.139,0.428l-0.144,0.2l0.054-0.24 c0.062-0.28,0.012-0.485-0.141-0.563c-0.137-0.069-0.329-0.022-0.454,0.119l-0.064,0.072l-0.021-0.095 c-0.054-0.242-0.218-0.4-0.438-0.424c-0.204-0.024-0.473,0.083-0.603,0.368l-0.018,0.037l-0.039-0.009 c-0.248-0.055-0.33,0.102-0.351,0.156l0.677,1.609l0.352,0.188l0.536-0.151l0.32-0.192l0.149,0.649L27.012,35.627z"/></g><g><path fill="#ffca28" d="M32.661,28.159c-0.145-0.278-0.55-0.179-0.458,0.038c0.199,0.789-1.134,0.244-1.134,0.244 l-0.945-0.497c-0.286-0.15-0.625-0.185-0.938-0.095l-0.605,0.173l-0.605-0.173c-0.313-0.09-0.652-0.056-0.938,0.095l-0.945,0.497 c0,0-1.333,0.545-1.134-0.244c0.092-0.217-0.312-0.316-0.458-0.038c-0.159,0.347,0.491,1.294,1.751,0.582 c1.192-0.673,1.413-0.563,1.413-0.563s-0.398,0.357,0.08,0.545c0.318,0.113,0.836-0.244,0.836-0.244l0.001-0.032l0.001,0.032 c0,0,0.517,0.357,0.836,0.244c0.478-0.188,0.08-0.545,0.08-0.545s0.22-0.11,1.413,0.563C32.17,29.452,32.82,28.506,32.661,28.159z"/><path fill="#263238" d="M25.395,29.051c-0.366,0-0.601-0.162-0.711-0.264c-0.211-0.194-0.31-0.474-0.229-0.649 c0.101-0.192,0.311-0.238,0.45-0.172c0.104,0.05,0.144,0.147,0.1,0.25c-0.033,0.133-0.018,0.233,0.048,0.29 c0.198,0.171,0.804-0.023,1.021-0.111l0.94-0.495c0.295-0.155,0.651-0.193,0.976-0.099l0.591,0.169l0.592-0.169 c0.324-0.095,0.681-0.057,0.976,0.099l0.944,0.497c0.213,0.087,0.82,0.279,1.018,0.109c0.065-0.057,0.081-0.157,0.045-0.297 c-0.041-0.096-0.002-0.194,0.103-0.243c0.138-0.065,0.35-0.019,0.447,0.169c0.001,0.001,0.001,0.002,0.002,0.003 c0.08,0.176-0.019,0.455-0.229,0.649c-0.182,0.168-0.7,0.501-1.592-0.002c-0.779-0.441-1.133-0.541-1.278-0.561 c0.053,0.07,0.111,0.177,0.092,0.288c-0.02,0.108-0.108,0.194-0.263,0.256c-0.307,0.105-0.741-0.158-0.855-0.232 c-0.113,0.075-0.556,0.341-0.854,0.232c-0.156-0.062-0.245-0.147-0.265-0.256c-0.02-0.111,0.04-0.219,0.094-0.289 c-0.144,0.02-0.497,0.119-1.28,0.562C25.925,28.982,25.632,29.051,25.395,29.051z M24.772,28.038 c-0.079,0-0.173,0.038-0.229,0.144c-0.053,0.117,0.009,0.35,0.207,0.531c0.166,0.152,0.639,0.456,1.476-0.016 c1.152-0.65,1.42-0.586,1.46-0.564c0.015,0.008,0.024,0.021,0.027,0.038c0.002,0.017-0.004,0.033-0.017,0.044 c-0.045,0.04-0.156,0.17-0.137,0.28c0.014,0.072,0.081,0.133,0.201,0.18c0.258,0.093,0.671-0.161,0.769-0.225v-0.007 c0.001-0.026,0.022-0.048,0.049-0.048h0.001c0.026,0,0.048,0.021,0.05,0.047l0.001,0.007c0.095,0.062,0.508,0.317,0.77,0.226 c0.119-0.047,0.187-0.107,0.199-0.18c0.021-0.111-0.091-0.24-0.136-0.28c-0.013-0.011-0.019-0.027-0.017-0.044 c0.003-0.017,0.013-0.03,0.027-0.038c0.041-0.022,0.307-0.086,1.459,0.564c0.836,0.472,1.31,0.168,1.476,0.017 c0.197-0.183,0.26-0.414,0.206-0.533c-0.078-0.149-0.238-0.162-0.315-0.124c-0.032,0.015-0.08,0.05-0.051,0.12 c0.048,0.188,0.022,0.321-0.074,0.404c-0.277,0.242-1.039-0.06-1.125-0.095l-0.949-0.499c-0.272-0.144-0.604-0.177-0.901-0.091 l-0.605,0.173c-0.01,0.004-0.018,0.004-0.027,0l-0.604-0.173c-0.299-0.085-0.628-0.053-0.901,0.091l-0.945,0.497 c-0.091,0.038-0.851,0.341-1.129,0.097c-0.097-0.083-0.122-0.217-0.077-0.397c0.031-0.073-0.009-0.109-0.047-0.127 C24.838,28.045,24.807,28.038,24.772,28.038z"/></g><g><path fill="#ffca28" d="M24.539,30.027c0,0,0.089,0.225-0.316,0.244s-0.296-0.498,0.049-0.507 c0.345-0.009,1.204,0.225,1.352,1.427c0.148,1.202-1.204,1.549-1.204,1.549s0.58,1.415,0.671,1.653 c0.188,0.488,0.77,0.573,0.977,0.282c-0.237-0.113-0.069-0.432,0.168-0.357c0.237,0.075,0.217,0.31,0.217,0.31 s0.276-0.085,0.414,0.028s0.089,0.507-0.296,0.413c0.02,0.394,0.562,0.526,0.868,0.601c0.306,0.075,0.839,0.366,0.859,0.751 c0.021,0.404-0.286,0.451-0.474,0.394s-0.178-0.526,0.197-0.423c-0.109-0.244-0.464-0.394-0.888-0.516s-0.967-0.385-0.819-0.986 c-0.503,0.394-1.214,0.329-1.461-0.282c-0.247-0.61-0.829-2.01-0.829-2.01s1.283-0.225,1.194-1.362 C25.132,30.102,24.539,30.027,24.539,30.027z"/><path fill="#263238" d="M27.96,36.886c-0.054,0-0.105-0.008-0.149-0.021c-0.131-0.039-0.18-0.213-0.142-0.345 c0.028-0.1,0.108-0.19,0.253-0.19c0.001,0,0.002,0,0.003,0c-0.155-0.195-0.505-0.317-0.804-0.403 c-0.758-0.218-0.909-0.602-0.876-0.923c-0.267,0.171-0.579,0.227-0.855,0.155c-0.266-0.071-0.472-0.259-0.58-0.529 c-0.244-0.604-0.823-1.995-0.829-2.009c-0.006-0.015-0.005-0.03,0.002-0.044c0.008-0.013,0.021-0.022,0.035-0.024 c0.051-0.01,1.237-0.232,1.153-1.31c-0.066-0.854-0.426-1.086-0.574-1.146c-0.003,0.028-0.012,0.06-0.03,0.089 c-0.054,0.082-0.168,0.128-0.341,0.136c-0.007,0.001-0.015,0.001-0.022,0.001c-0.114,0-0.203-0.042-0.251-0.118 c-0.052-0.082-0.05-0.194,0.004-0.295c0.062-0.118,0.182-0.191,0.316-0.194c0.008,0,0.016-0.001,0.024-0.001 c0.428,0,1.233,0.304,1.378,1.472c0.135,1.09-0.931,1.504-1.187,1.588c0.104,0.255,0.57,1.393,0.65,1.603 c0.104,0.271,0.329,0.391,0.505,0.413c0.142,0.019,0.268-0.02,0.35-0.102c-0.093-0.071-0.104-0.179-0.071-0.264 c0.043-0.111,0.178-0.2,0.33-0.153c0.174,0.056,0.236,0.193,0.25,0.295c0.096-0.019,0.281-0.042,0.398,0.053 c0.091,0.074,0.116,0.235,0.055,0.357c-0.027,0.059-0.11,0.179-0.324,0.156c0.071,0.306,0.532,0.419,0.815,0.489 c0.355,0.087,0.882,0.399,0.903,0.798c0.012,0.221-0.071,0.333-0.142,0.388C28.134,36.865,28.044,36.886,27.96,36.886z M27.922,36.43c-0.105,0-0.144,0.069-0.157,0.117c-0.026,0.093,0.011,0.202,0.075,0.222c0.085,0.026,0.215,0.029,0.307-0.04 c0.075-0.06,0.11-0.162,0.104-0.304c-0.02-0.361-0.545-0.638-0.821-0.705c-0.313-0.077-0.885-0.218-0.906-0.646 c-0.001-0.017,0.006-0.031,0.018-0.041c0.014-0.01,0.028-0.015,0.044-0.011c0.14,0.035,0.236,0.001,0.282-0.09 c0.039-0.081,0.026-0.19-0.029-0.235c-0.097-0.08-0.298-0.041-0.368-0.02c-0.017,0.003-0.033,0-0.046-0.009 c-0.013-0.011-0.02-0.026-0.019-0.043c0.001-0.008,0.012-0.197-0.183-0.259c-0.1-0.034-0.179,0.024-0.207,0.095 c-0.011,0.026-0.035,0.116,0.076,0.17c0.014,0.006,0.023,0.019,0.027,0.032c0.003,0.015,0,0.029-0.008,0.042 c-0.1,0.14-0.28,0.21-0.479,0.183c-0.204-0.025-0.466-0.164-0.586-0.477c-0.09-0.233-0.664-1.637-0.67-1.651 c-0.006-0.013-0.005-0.028,0.001-0.041c0.007-0.013,0.019-0.022,0.032-0.026c0.054-0.014,1.309-0.351,1.167-1.495 c-0.136-1.098-0.882-1.383-1.277-1.383c-0.008,0-0.016,0-0.023,0c-0.099,0.003-0.185,0.056-0.23,0.142 c-0.037,0.069-0.04,0.144-0.008,0.194s0.098,0.069,0.186,0.071c0.172-0.008,0.236-0.054,0.261-0.091 c0.026-0.04,0.011-0.085,0.01-0.085c-0.006-0.017-0.004-0.035,0.008-0.049c0.01-0.014,0.026-0.02,0.045-0.02 c0.026,0.004,0.635,0.094,0.726,1.257c0.08,1.022-0.916,1.338-1.175,1.402c0.11,0.265,0.59,1.419,0.806,1.955 c0.098,0.24,0.28,0.406,0.515,0.47c0.281,0.075,0.606-0.003,0.868-0.209c0.019-0.016,0.04-0.015,0.059-0.003 c0.018,0.012,0.026,0.033,0.021,0.054c-0.106,0.435,0.157,0.746,0.784,0.927c0.384,0.11,0.794,0.261,0.921,0.544 c0.008,0.018,0.005,0.038-0.008,0.053c-0.014,0.016-0.032,0.022-0.052,0.016C27.977,36.434,27.947,36.43,27.922,36.43z"/></g><g><polygon fill="#263238" points="27.711,29.624 27.684,29.528 28.552,29.275 28.579,29.371"/></g><g><path fill="#81d4fa" d="M25.655,36.591c0,0,0.128,0.366,0.01,0.582c0.316-0.094,0.454-0.357,0.395-0.601 C26,36.328,25.615,36.385,25.655,36.591z"/><path fill="#263238" d="M25.562,37.256l0.059-0.106c0.107-0.194-0.012-0.538-0.013-0.542l-0.002-0.007 c-0.021-0.11,0.051-0.205,0.174-0.232c0.136-0.023,0.29,0.029,0.329,0.192c0.06,0.248-0.069,0.555-0.43,0.661L25.562,37.256z M25.703,36.578c0.013,0.037,0.096,0.296,0.046,0.51c0.206-0.101,0.312-0.296,0.262-0.504c-0.028-0.115-0.137-0.133-0.21-0.118 C25.782,36.471,25.689,36.495,25.703,36.578z"/></g><g><path fill="#81d4fa" d="M24.549,36.432c0,0-0.099,0.366-0.079,0.488c-0.286-0.263-0.336-0.441-0.217-0.732 S24.658,36.141,24.549,36.432z"/><path fill="#263238" d="M24.544,37.056l-0.107-0.099c-0.3-0.275-0.357-0.475-0.229-0.788 c0.064-0.157,0.175-0.183,0.255-0.15c0.124,0.049,0.208,0.232,0.136,0.429c-0.027,0.101-0.093,0.374-0.078,0.465L24.544,37.056z M24.399,36.106c-0.053,0-0.087,0.067-0.101,0.1c-0.098,0.242-0.071,0.395,0.124,0.598c0.017-0.153,0.07-0.356,0.079-0.385 l0.001-0.005c0.055-0.147-0.009-0.275-0.078-0.303C24.416,36.108,24.407,36.106,24.399,36.106z"/></g><g><path fill="#81d4fa" d="M25.26,36.751c0,0-0.079,0.423,0.039,0.61c-0.484-0.3-0.464-0.526-0.424-0.704 C24.914,36.479,25.27,36.422,25.26,36.751z"/><path fill="#263238" d="M25.459,37.52l-0.186-0.116c-0.498-0.309-0.492-0.553-0.447-0.757 c0.022-0.104,0.133-0.183,0.249-0.183c0.01,0,0.021,0,0.031,0.001c0.102,0.013,0.209,0.095,0.203,0.288l-0.001,0.007 c-0.021,0.112-0.056,0.435,0.033,0.575L25.459,37.52z M25.074,36.563c-0.069,0-0.138,0.045-0.15,0.104 c-0.028,0.127-0.068,0.312,0.277,0.566c-0.04-0.2,0.002-0.451,0.009-0.488c0.002-0.107-0.039-0.172-0.116-0.182 C25.088,36.563,25.081,36.563,25.074,36.563z"/></g><g><path fill="#ffca28" d="M32.553,30.027c0,0-0.089,0.225,0.316,0.244c0.405,0.019,0.296-0.498-0.049-0.507 c-0.345-0.009-1.204,0.225-1.352,1.427s1.204,1.549,1.204,1.549s-0.58,1.415-0.671,1.653c-0.188,0.488-0.77,0.573-0.977,0.282 c0.237-0.113,0.069-0.432-0.168-0.357c-0.237,0.075-0.217,0.31-0.217,0.31s-0.276-0.085-0.414,0.028 c-0.138,0.113-0.089,0.507,0.296,0.413c-0.02,0.394-0.562,0.526-0.868,0.601c-0.306,0.075-0.839,0.366-0.859,0.751 c-0.021,0.404,0.286,0.451,0.474,0.394s0.178-0.526-0.197-0.423c0.109-0.244,0.464-0.394,0.888-0.516s0.967-0.385,0.819-0.986 c0.503,0.394,1.214,0.329,1.461-0.282c0.247-0.61,0.829-2.01,0.829-2.01s-1.283-0.225-1.194-1.362 C31.961,30.102,32.553,30.027,32.553,30.027z"/><path fill="#263238" d="M29.133,36.886c-0.085,0-0.175-0.021-0.248-0.078c-0.07-0.056-0.153-0.168-0.142-0.389 c0.021-0.397,0.547-0.711,0.896-0.797c0.288-0.07,0.75-0.185,0.821-0.49c-0.205,0.024-0.295-0.097-0.324-0.155 c-0.061-0.123-0.036-0.283,0.056-0.358c0.113-0.094,0.3-0.071,0.397-0.053c0.014-0.102,0.076-0.239,0.251-0.295 c0.154-0.048,0.286,0.042,0.329,0.153c0.034,0.085,0.021,0.192-0.071,0.264c0.083,0.082,0.21,0.123,0.35,0.102 c0.176-0.022,0.401-0.143,0.505-0.413c0.08-0.21,0.546-1.348,0.65-1.603c-0.256-0.084-1.32-0.498-1.187-1.588 c0.145-1.168,0.951-1.472,1.379-1.472c0.009,0,0.017,0.001,0.024,0.001c0.135,0.003,0.253,0.076,0.316,0.194 c0.054,0.101,0.055,0.213,0.004,0.295c-0.049,0.076-0.138,0.118-0.252,0.118c-0.008,0-0.016,0-0.022-0.001 c-0.173-0.008-0.287-0.054-0.341-0.136c-0.019-0.029-0.027-0.061-0.03-0.089c-0.147,0.06-0.507,0.292-0.573,1.146 c-0.084,1.077,1.102,1.3,1.152,1.31c0.015,0.002,0.027,0.012,0.035,0.024c0.007,0.014,0.008,0.029,0.002,0.044 c-0.006,0.014-0.584,1.405-0.828,2.009c-0.108,0.271-0.315,0.458-0.582,0.529c-0.278,0.071-0.588,0.015-0.854-0.155 c0.033,0.321-0.117,0.705-0.876,0.923c-0.3,0.087-0.648,0.208-0.804,0.403c0.002,0,0.003,0,0.004,0 c0.145,0,0.225,0.091,0.253,0.189c0.038,0.133-0.012,0.307-0.143,0.346C29.237,36.878,29.186,36.886,29.133,36.886z M30.52,35.021 c0.012,0,0.022,0.004,0.032,0.012c0.012,0.01,0.019,0.024,0.018,0.041c-0.021,0.429-0.593,0.569-0.899,0.645 c-0.283,0.07-0.809,0.347-0.827,0.707c-0.007,0.142,0.027,0.244,0.104,0.304c0.09,0.071,0.221,0.066,0.306,0.04 c0.064-0.02,0.103-0.129,0.075-0.222c-0.018-0.06-0.073-0.15-0.244-0.104c-0.021,0.007-0.039,0-0.052-0.016 c-0.013-0.015-0.016-0.035-0.008-0.053c0.126-0.282,0.535-0.434,0.92-0.544c0.628-0.181,0.892-0.492,0.784-0.927 c-0.005-0.021,0.004-0.042,0.021-0.054c0.019-0.012,0.04-0.013,0.059,0.003c0.261,0.206,0.587,0.281,0.868,0.209 c0.235-0.062,0.418-0.229,0.516-0.47c0.215-0.536,0.694-1.69,0.805-1.955c-0.258-0.064-1.254-0.38-1.174-1.402 c0.091-1.163,0.698-1.253,0.725-1.257c0.016-0.001,0.035,0.005,0.045,0.02c0.011,0.014,0.014,0.032,0.008,0.048 c-0.002,0.005-0.016,0.048,0.011,0.087c0.024,0.037,0.089,0.082,0.26,0.09c0.007,0,0.013,0,0.02,0 c0.079,0,0.137-0.024,0.166-0.071c0.032-0.051,0.029-0.125-0.007-0.194c-0.047-0.086-0.133-0.139-0.23-0.142 c-0.008,0-0.016,0-0.022,0c-0.396,0-1.144,0.285-1.279,1.383c-0.141,1.145,1.113,1.481,1.167,1.495 c0.014,0.004,0.025,0.014,0.032,0.026c0.006,0.013,0.007,0.028,0.001,0.041c-0.006,0.015-0.58,1.418-0.67,1.651 c-0.12,0.312-0.381,0.451-0.586,0.477c-0.2,0.026-0.379-0.044-0.479-0.183c-0.008-0.013-0.011-0.027-0.008-0.042 c0.004-0.014,0.014-0.026,0.027-0.032c0.111-0.054,0.086-0.144,0.075-0.17c-0.028-0.07-0.111-0.13-0.206-0.095 c-0.195,0.062-0.185,0.251-0.184,0.259c0.001,0.017-0.006,0.032-0.019,0.043c-0.013,0.01-0.03,0.012-0.046,0.009 c-0.069-0.021-0.271-0.061-0.368,0.02c-0.049,0.04-0.071,0.149-0.028,0.236c0.045,0.09,0.144,0.123,0.281,0.089 C30.512,35.021,30.516,35.021,30.52,35.021z"/></g><g><path fill="#81d4fa" d="M31.437,36.591c0,0-0.128,0.366-0.01,0.582c-0.316-0.094-0.454-0.357-0.395-0.601 C31.092,36.328,31.477,36.385,31.437,36.591z"/><path fill="#263238" d="M31.529,37.256l-0.116-0.034c-0.318-0.095-0.499-0.373-0.429-0.661 c0.04-0.163,0.199-0.216,0.327-0.192c0.124,0.026,0.196,0.122,0.175,0.232l-0.002,0.007c-0.001,0.003-0.119,0.348-0.013,0.542 L31.529,37.256z M31.248,36.462c-0.065,0-0.145,0.029-0.166,0.122c-0.051,0.208,0.055,0.403,0.261,0.504 c-0.049-0.214,0.034-0.473,0.046-0.51c0.014-0.084-0.079-0.108-0.098-0.112C31.277,36.463,31.264,36.462,31.248,36.462z"/></g><g><path fill="#81d4fa" d="M32.543,36.432c0,0,0.099,0.366,0.079,0.488c0.286-0.263,0.336-0.441,0.217-0.732 S32.434,36.141,32.543,36.432z"/><path fill="#263238" d="M32.55,37.054l0.022-0.142c0.015-0.091-0.05-0.364-0.077-0.465 c-0.072-0.197,0.012-0.381,0.137-0.429c0.077-0.033,0.188-0.009,0.253,0.15c0.128,0.314,0.07,0.513-0.229,0.788L32.55,37.054z M32.693,36.106c-0.009,0-0.017,0.002-0.025,0.005c-0.069,0.027-0.133,0.155-0.078,0.303l0.001,0.005 c0.008,0.029,0.062,0.232,0.079,0.385c0.194-0.203,0.221-0.354,0.123-0.598C32.779,36.174,32.746,36.106,32.693,36.106z"/></g><g><path fill="#81d4fa" d="M31.832,36.751c0,0,0.079,0.423-0.039,0.61c0.484-0.3,0.464-0.526,0.424-0.704 C32.178,36.479,31.822,36.422,31.832,36.751z"/><path fill="#263238" d="M31.635,37.519l0.116-0.184c0.088-0.141,0.053-0.463,0.032-0.575l-0.001-0.007 c-0.006-0.193,0.102-0.275,0.203-0.288c0.011-0.001,0.021-0.001,0.031-0.001c0.116,0,0.227,0.078,0.249,0.183 c0.046,0.203,0.053,0.446-0.446,0.757L31.635,37.519z M31.882,36.746c0.007,0.037,0.049,0.288,0.01,0.488 c0.347-0.255,0.305-0.439,0.276-0.566c-0.013-0.06-0.081-0.104-0.15-0.104c-0.007,0-0.014,0-0.02,0.001 C31.921,36.574,31.88,36.639,31.882,36.746z"/></g><g><path fill="#263238" d="M28.288,25.736c-0.008,0-0.016,0-0.024-0.001c-0.129-0.013-0.219-0.128-0.259-0.232 c-0.014-0.034-0.054-0.153,0.001-0.214l0.074,0.066l-0.037-0.033l0.038,0.032c-0.017,0.03,0.024,0.197,0.132,0.261 c0.142,0.086,0.3-0.11,0.38-0.235l0.052-0.08l0.036,0.089c0.078,0.19,0.208,0.251,0.309,0.23c0.098-0.021,0.154-0.12,0.148-0.257 l0.1-0.004c0.009,0.186-0.08,0.326-0.227,0.358c-0.118,0.029-0.278-0.029-0.383-0.211C28.515,25.659,28.401,25.736,28.288,25.736z"/></g><g><polygon fill="#263238" points="28.646,24.792 28.633,24.789 27.863,24.602 27.887,24.504 28.644,24.688 29.311,24.486 29.34,24.582"/></g></svg>