<svg xmlns="http://www.w3.org/2000/svg"  viewBox="0 0 48 48" width="500px" height="500px"><path fill="#eceff1" d="M44,24c0-2.846-0.604-5.549-1.675-8H5.675C4.604,18.451,4,21.154,4,24s0.604,5.549,1.675,8h36.649 C43.396,29.549,44,26.846,44,24z"/><path fill="#388e3c" d="M42.325,32H5.675C8.763,39.061,15.801,44,24,44S39.237,39.061,42.325,32z"/><path fill="#283593" d="M24,4C15.801,4,8.763,8.939,5.675,16h36.649C39.237,8.939,32.199,4,24,4z"/><path fill="#263238" d="M28.148,26.324l-0.418,0.16l-1.656-1.934c0.324-0.559,1.105-2.066,0.879-3.285	c-0.285-1.543-1.305-2.25-3.027-2.273c-1.613,0.016-2.699,0.891-2.906,2.348c-0.172,1.207,0.598,2.703,0.898,3.234L20.297,26.5	l-0.473-0.145L19,27.906c0,0,2.035,1.125,4.992,1.094C27.238,28.965,29,27.855,29,27.855L28.148,26.324z M25.973,21.445	c0.125,0.68-0.27,1.656-0.594,2.293l-0.875-1.016L24.5,21.621h0.539l-0.734-0.605l0.004-1	C25.457,20.109,25.824,20.648,25.973,21.445z M22.008,21.48c0.152-1.051,0.895-1.391,1.598-1.465l0.008,1.02l-0.664,0.613h0.539	l-0.008,1.066l-0.867,1.035C22.297,23.117,21.914,22.152,22.008,21.48z M20.098,26.992l0.156,0.422L19.797,27.5	C19.797,27.5,20.062,27.035,20.098,26.992z M19.883,27.734l0.477-0.141l0.098,0.34L19.883,27.734z M20.578,27.004l0.672,0.18	l0.156,0.293l-0.59,0.148L20.578,27.004z M21.035,28.105l-0.086-0.254l0.555-0.16l0.309,0.582L21.035,28.105z M21.816,27.32	l0.672,0.125l0.191,0.254l-0.59,0.203L21.816,27.32z M22.297,28.336l-0.098-0.223l0.625-0.188l0.383,0.527L22.297,28.336z M23.074,27.488l1.094,0.043l0.098,0.203l-0.855,0.273L23.074,27.488z M23.746,28.473l-0.18-0.273l0.844-0.273l0.395,0.516	L23.746,28.473z M24.684,27.512l0.781-0.086l0.18,0.234l-0.672,0.285L24.684,27.512z M25.297,28.391l-0.18-0.254l0.672-0.297	l0.406,0.422L25.297,28.391z M26.008,27.383l0.719-0.191l0.191,0.18l-0.563,0.395L26.008,27.383z M26.641,28.168l-0.145-0.223	l0.543-0.359l0.348,0.41L26.641,28.168z M27.16,27.055l0.621-0.223l0.133,0.172l-0.371,0.484L27.16,27.055z M27.77,27.605	l0.266-0.348l0.227,0.402l-0.453,0.137L27.77,27.605z"/></svg>