<svg xmlns="http://www.w3.org/2000/svg"  viewBox="0 0 48 48" width="100px" height="100px"><path fill="#1976d2" d="M24,4C15.421,4,8.125,9.412,5.284,17h37.431C39.875,9.412,32.579,4,24,4z"/><path fill="#eceff1" d="M44,24c0-2.467-0.468-4.818-1.284-7H5.284C4.468,19.182,4,21.533,4,24s0.468,4.818,1.284,7h37.431	C43.532,28.818,44,26.467,44,24z"/><path fill="#1976d2" d="M42.716,31H5.284C8.125,38.588,15.421,44,24,44S39.875,38.588,42.716,31z"/><path fill="#1976d2" d="M24.473,24L24,22.547L23.527,24H22l1.234,0.898l-0.469,1.453L24,25.453l1.234,0.898l-0.469-1.453	L26,24H24.473z"/><path fill="#1976d2" d="M30.766,23.359L32,22.461l1.234,0.898l-0.469-1.453L34,21.008h-1.527L32,19.555l-0.473,1.453H30	l1.234,0.898L30.766,23.359z"/><path fill="#1976d2" d="M32.473,26.008L32,24.555l-0.473,1.453H30l1.234,0.895l-0.469,1.457L32,27.461l1.234,0.898	l-0.469-1.457L34,26.008H32.473z"/><path fill="#1976d2" d="M16,19.555l-0.473,1.453H14l1.234,0.895l-0.469,1.457L16,22.461l1.234,0.898l-0.469-1.457L18,21.008	h-1.527L16,19.555z"/><path fill="#1976d2" d="M16.473,26.008L16,24.555l-0.473,1.453H14l1.234,0.895l-0.469,1.457L16,27.461l1.234,0.898	l-0.469-1.457L18,26.008H16.473z"/></svg>