<svg xmlns="http://www.w3.org/2000/svg"  viewBox="0 0 48 48" width="500px" height="500px"><path fill="#d50000" d="M44,24c0,11.046-8.954,20-20,20S4,35.046,4,24c0.372-2.319,2.036-4.667,2.702-6.66 C7.987,13.493,14.489,11,14.489,11s1.092-4.019,2.559-4.66c2.451-1.072,4.149-1.83,6.995-1.83c0.923,0,1.788-0.367,2.678-0.246 c0.08,0.011,0.161-0.058,0.24-0.047C36.603,5.648,44,13.96,44,24z"/><path fill="#eceff1" d="M4,24h22.995V4.216C25.988,4.088,24.967,4.026,23.932,4C12.887,4.228,4,13.086,4,24z"/><polygon fill="#d50000" points="23.5,13.413 19.087,13.413 19.087,9 14.913,9 14.913,13.413 10.5,13.413 10.5,17.587 14.913,17.587 14.913,22 19.087,22 19.087,17.587 23.5,17.587"/></svg>