<svg xmlns="http://www.w3.org/2000/svg"  viewBox="0 0 48 48" width="30px" height="30px"><path fill="#d50000" d="M34.714,7.131L7.367,35.102c0.873,1.306,1.908,2.49,3.057,3.554L43.97,23.408 C43.769,16.557,40.133,10.581,34.714,7.131z"/><path fill="#ffc107" d="M24,4c-2.194,0-4.299,0.366-6.274,1.019L5.172,30.694c0.557,1.566,1.286,3.049,2.194,4.408 l27.347-27.97C31.615,5.159,27.946,4,24,4z"/><path fill="#3f51b5" d="M4,24c0,2.352,0.427,4.598,1.172,6.694L17.726,5.019C9.757,7.652,4,15.148,4,24z"/><path fill="#eceff1" d="M44,24c0-0.2-0.024-0.394-0.03-0.592L10.423,38.656c0.82,0.76,1.695,1.458,2.633,2.073l28.027-6.37 C42.922,31.335,44,27.798,44,24z"/><path fill="#43a047" d="M41.084,34.36l-28.027,6.37C16.202,42.791,19.958,44,24,44C31.248,44,37.576,40.132,41.084,34.36z"/></svg>