<svg xmlns="http://www.w3.org/2000/svg"  viewBox="0 0 48 48" width="100px" height="100px"><path fill="#42a5f5" d="M44,24c0,11.046-8.954,20-20,20S4,35.046,4,24c0-2.216,0.36-4.348,1.026-6.341 C6.311,13.812,14.489,11,14.489,11s0.04-4.693,1.507-5.334C18.447,4.594,21.154,4,24,4C35.046,4,44,12.954,44,24z"/><path fill="#283593" d="M24,4C15.129,4,7.618,9.781,5,17.777V18h20V4.042C24.667,4.025,24.337,4,24,4z"/><path fill="#fff" d="M16,8.594V5.675c-1.432,0.626-2.767,1.424-4,2.352V8.31l-0.206-0.128 c-3.105,2.399-5.483,5.683-6.753,9.483L12,13.32V18h4v-4.965L23.949,18H25v-2.609L21.171,13H25V9h-4.421L25,6.238V4.05 C24.667,4.034,24.338,4,24,4c-0.235,0-0.464,0.027-0.697,0.035L16,8.594z"/><path fill="#e53935" d="M13,12v6h2v-6h10v-2H15V6.157c-0.689,0.348-1.36,0.725-2,1.148V10H9.729 c-0.613,0.625-1.174,1.299-1.701,2H13z"/><path fill="#e53935" d="M11.641,13H9.898l-3.972,2.479c-0.229,0.484-0.437,0.977-0.627,1.481L11.641,13z"/><path fill="#e53935" d="M24.213,4.011L16.223,9h1.746L25,4.609V4.05C24.738,4.037,24.478,4.014,24.213,4.011z"/><polygon fill="#e53935" points="25,15.934 20.301,13 18.559,13 25,17.02"/><path fill="#fff" d="M29.541,22h-0.009h-6.201v10.132c0,3.226,3.524,4.953,6.201,5.865V38 c0.002,0,0.003-0.001,0.005-0.001c0.002,0,0.003,0.001,0.005,0.001v-0.003c2.241-0.683,6.202-2.369,6.202-5.865V22H29.541z"/><path fill="#e53935" d="M28.649,37.674c0.3,0.117,0.597,0.225,0.883,0.323V38c0.002,0,0.003-0.001,0.005-0.001 c0.002,0,0.003,0.001,0.005,0.001v-0.003c0.268-0.082,0.562-0.179,0.869-0.291v-5.54h5.317V30.49h-5.317v-4.454h5.317v-4.03 H23.332v4.03h5.317v4.454h-5.317v1.676h5.317V37.674z"/><path fill="#37474f" d="M29.541,38.1c-0.004-0.001-0.008-0.001-0.009,0c-0.02,0-0.038-0.005-0.054-0.016 c-4.146-1.415-6.248-3.417-6.248-5.952V22c0-0.056,0.044-0.1,0.1-0.1h12.413c0.056,0,0.1,0.044,0.1,0.1v10.132 c0,3.515-3.908,5.238-6.254,5.955C29.575,38.095,29.559,38.1,29.541,38.1z M23.43,22.1v10.032c0,2.438,2.055,4.377,6.108,5.762 c2.293-0.702,6.105-2.379,6.105-5.762V22.1H23.43z"/><path fill="#fdd835" d="M30.944,25.972c-0.423,0-0.836-0.176-0.981-0.417c-0.062-0.104-0.069-0.208-0.02-0.304 c0.081-0.155,0.211-0.238,0.376-0.238c0.195,0,0.433,0.119,0.65,0.327c0.067,0.063,0.146,0.097,0.229,0.097 c0.121,0,0.234-0.073,0.275-0.178c0.045-0.117-0.003-0.252-0.133-0.371c-0.149-0.139-0.221-0.283-0.211-0.43 c0.006-0.079,0.035-0.148,0.07-0.203c-0.183,0.122-0.521,0.312-0.948,0.603c-0.696,0.476-1.836,0.646-1.885,0.652l-0.554-0.051 l-0.256,0.179L27.3,25.21l-0.666,0.029l-1.246,0.654c-0.051-0.002-0.565-0.257-0.839-0.257l-0.14,0.017 c-0.266,0-0.562-0.366-0.574-0.382l0.791-0.581l0.193,0.382l0.582,0.24l0.88-0.738l-0.565,0.038 c-0.039-0.075,0.045-0.227,0.195-0.562c-0.046,0.005-0.091,0.007-0.133,0.007c-0.582,0-0.711-0.427-0.716-0.446l-0.249,0.087 l0.059,0.149l-0.915,0.02l-0.099-0.381c0.052-0.067,0.716-0.463,1.178-0.515c0.349,0.337,1.106,0.439,1.114,0.44l0.305-0.602 l0.096-0.693l0.479,0.503l0.542-0.402l0.128,0.664l0.534,0.058l-0.522,0.344c0.021,0.006,0.011,0.227,0.056,0.526 c0.265,0.144,0.688,0.245,1.14,0.245c0.306,0,0.618-0.045,0.931-0.133l0.722-0.201c0.611-0.17,1.15-0.318,1.494-0.441 c0.09-0.032,0.17-0.048,0.247-0.048c0.123,0,0.217,0.041,0.308,0.08c0.097,0.041,0.195,0.084,0.337,0.084 c0.05,0,0.104-0.005,0.165-0.017c0.209-0.041,0.283-0.113,0.283-0.167c-0.001-0.079-0.162-0.228-0.604-0.311 c-0.057-0.011-0.119-0.015-0.187-0.015c-0.768,0-2.123,0.631-2.137,0.637l-0.648-0.549l0.135,0.276l-0.728-0.106 c0.027,0.043,0.049,0.168,0.116,0.369c-0.68-0.042-0.933-0.427-0.852-1.146c-0.006-0.057,0.003-0.121,0.028-0.191 c0.086,0.085,0.077,0.143,0.071,0.197c-0.003,0.023-0.021,0.042-0.045,0.044c0.11,0.099,0.26,0.148,0.507,0.148 c0.308,0,0.649-0.083,0.653-0.084l0.883,0.479l1.164-0.359c0.392-0.116,0.762-0.175,1.102-0.175c0.487,0,0.736,0.122,0.747,0.127 l0.171-0.403c0.004-0.001,0.007-0.001,0.011-0.001c0.087,0,0.302,0.141,0.352,0.37c0.028,0.131-0.002,0.264-0.091,0.395 c0.041-0.017,0.087-0.024,0.133-0.024c0.141,0,0.288,0.072,0.336,0.198c0.047,0.123-0.01,0.267-0.17,0.426 c-0.079-0.111-0.089-0.165-0.115-0.193c-0.042-0.007-0.08-0.01-0.112-0.01c-0.103,0-0.157,0.026-0.158,0.027l0,0 c0.01,0-0.253,0.461-0.766,0.479c0.16,0.257,0.388,0.421,0.721,0.421c0.418,0,0.856-0.257,0.861-0.26 c0.075,0.035,0.296,0.725,0.711,1.389c-0.212,0.276-0.559,0.39-1.008,0.39c-0.307,0-0.59-0.052-0.773-0.095 c-0.037-0.479,0.688-0.521,0.934-0.522c-0.039-0.053-0.15-0.312-0.192-0.479c-0.278,0.23-0.592,0.331-0.859,0.331 c-0.679,0-0.832-0.647-0.834-0.654l-0.79,0.508l0.549,0.34c-0.002,0.084-0.281,0.458-1.083,0.714 C31.271,25.946,31.108,25.972,30.944,25.972z"/><path fill="#424242" d="M26.6,22.124l0.389,0.525l0.61-0.389l0.051,0.627l0.576,0.102l-0.542,0.254 c0,0-0.017,0.237,0.034,0.576c0.277,0.17,0.695,0.287,1.19,0.287c0.292,0,0.611-0.041,0.944-0.135 c0.898-0.254,1.744-0.474,2.218-0.643c0.09-0.032,0.165-0.045,0.231-0.045c0.237,0,0.355,0.164,0.645,0.164 c0.052,0,0.11-0.005,0.174-0.018c0.525-0.102,0.406-0.44-0.322-0.576c-0.059-0.011-0.125-0.016-0.195-0.016 c-0.788,0-2.159,0.643-2.159,0.643l-0.593-0.542l0.051,0.322l-0.711-0.169c0,0,0,0.135,0.102,0.44 c-0.552-0.095-0.839-0.409-0.753-1.163c0.024,0.194,0.258,0.249,0.512,0.249c0.318,0,0.665-0.085,0.665-0.085l0.847,0.474 c0,0,0,0,1.202-0.356c0.443-0.131,0.805-0.172,1.087-0.172c0.482,0,0.725,0.122,0.725,0.122l0.237-0.423 c0,0,0.474,0.288,0.186,0.711c0.305,0.017,0.711,0.186,0.305,0.593c0.017-0.191-0.072-0.239-0.167-0.239 c-0.099,0-0.205,0.053-0.205,0.053s-0.254,0.457-0.745,0.474c0.143,0.401,0.43,0.521,0.723,0.521 c0.437,0,0.886-0.267,0.886-0.267s0.22,0.694,0.643,1.372c-0.221,0.231-0.586,0.313-0.967,0.313c-0.26,0-0.527-0.038-0.761-0.093 c0-0.398,0.745-0.424,0.937-0.424c0.028,0,0.045,0.001,0.045,0.001s-0.152-0.339-0.203-0.542 c-0.38,0.214-0.677,0.293-0.909,0.293c-0.647,0-0.785-0.615-0.785-0.615L31.935,24.8l0.542,0.423c0,0-0.271,0.373-1.067,0.627 c-0.157,0.05-0.314,0.072-0.465,0.072c-0.613,0-1.107-0.362-0.958-0.648c0.077-0.148,0.196-0.211,0.332-0.211 c0.191,0,0.418,0.124,0.616,0.312c0.082,0.078,0.175,0.111,0.264,0.111c0.279,0,0.51-0.328,0.176-0.636 c-0.44-0.406,0-0.711,0-0.711s-0.457,0.203-1.152,0.677c-0.694,0.474-1.863,0.644-1.863,0.644l-0.542-0.051l-0.288,0.186 l-0.186-0.406h-0.711l-1.27,0.66c0,0-0.527-0.263-0.815-0.263c-0.03,0-0.058,0.003-0.082,0.009 c-0.019,0.005-0.038,0.007-0.058,0.007c-0.245,0-0.535-0.363-0.535-0.363l0.779-0.508l0.119,0.356l0.61,0.271l0.931-0.745 l-0.593-0.051c0,0,0.085-0.152,0.237-0.491c-0.711,0-0.847-0.474-0.847-0.474l-0.305,0.051l0.017,0.203l-0.864-0.034 l-0.051-0.339c0,0,0.677-0.406,1.135-0.457c0.322,0.339,1.101,0.44,1.101,0.44l0.356-0.627L26.6,22.124 M28.565,22.192 c-0.01,0.061-0.019,0.119-0.025,0.175C28.533,22.318,28.541,22.26,28.565,22.192 M26.6,22.024c-0.008,0-0.016,0.001-0.025,0.003 c-0.039,0.01-0.069,0.043-0.074,0.083l-0.099,0.692l-0.312,0.55c-0.189-0.032-0.734-0.145-0.975-0.4 c-0.019-0.02-0.045-0.031-0.073-0.031c-0.004,0-0.007,0-0.011,0.001c-0.473,0.053-1.147,0.454-1.175,0.471 c-0.035,0.021-0.053,0.061-0.047,0.101l0.051,0.339c0.007,0.047,0.047,0.083,0.095,0.085l0.864,0.034c0.001,0,0.003,0,0.004,0 c0.027,0,0.053-0.011,0.072-0.031c0.02-0.021,0.03-0.049,0.027-0.077l-0.009-0.111l0.136-0.023 c0.072,0.14,0.27,0.408,0.755,0.455c-0.11,0.237-0.171,0.348-0.172,0.35c-0.016,0.03-0.017,0.066-0.001,0.096 c0.016,0.03,0.046,0.05,0.08,0.053l0.343,0.029l-0.688,0.551l-0.514-0.228L24.748,24.7c-0.01-0.029-0.033-0.053-0.062-0.063 c-0.011-0.004-0.022-0.006-0.033-0.006c-0.019,0-0.038,0.006-0.055,0.016l-0.779,0.508c-0.024,0.015-0.04,0.04-0.044,0.068 c-0.004,0.028,0.003,0.056,0.021,0.078c0.033,0.041,0.329,0.4,0.613,0.4c0.029,0,0.057-0.004,0.083-0.011 c0.015-0.004,0.034-0.006,0.057-0.006c0.217,0,0.63,0.182,0.771,0.253c0.014,0.007,0.029,0.011,0.045,0.011 c0.016,0,0.032-0.004,0.046-0.011l1.248-0.649h0.623l0.16,0.348c0.012,0.026,0.035,0.046,0.063,0.054 c0.009,0.003,0.019,0.004,0.028,0.004c0.019,0,0.038-0.005,0.054-0.016l0.259-0.167l0.507,0.048 c0.072-0.008,1.223-0.179,1.928-0.66c0.332-0.227,0.61-0.391,0.808-0.5c-0.004,0.018-0.006,0.037-0.007,0.056 c-0.011,0.162,0.065,0.32,0.227,0.469c0.115,0.106,0.158,0.219,0.12,0.316c-0.034,0.086-0.127,0.146-0.228,0.146 c-0.07,0-0.138-0.029-0.195-0.083c-0.227-0.216-0.477-0.34-0.685-0.34c-0.185,0-0.33,0.091-0.421,0.264 c-0.058,0.11-0.05,0.235,0.021,0.353c0.157,0.26,0.579,0.441,1.025,0.441c0.169,0,0.336-0.026,0.495-0.077 c0.818-0.261,1.105-0.647,1.117-0.663c0.032-0.044,0.023-0.104-0.019-0.138l-0.422-0.33l0.625-0.343 c0.1,0.245,0.356,0.569,0.843,0.569c0.247,0,0.532-0.083,0.848-0.247c0.034,0.102,0.078,0.213,0.113,0.297 c-0.12,0.005-0.297,0.02-0.46,0.064c-0.389,0.104-0.471,0.306-0.471,0.458c0,0.046,0.032,0.087,0.077,0.097 c0.186,0.044,0.473,0.096,0.784,0.096c0.464,0,0.823-0.119,1.039-0.344c0.032-0.033,0.037-0.083,0.013-0.122 c-0.411-0.658-0.631-1.342-0.633-1.349c-0.009-0.029-0.031-0.052-0.06-0.063c-0.012-0.004-0.024-0.007-0.036-0.007 c-0.018,0-0.035,0.005-0.051,0.014c-0.004,0.003-0.432,0.253-0.835,0.253c-0.271,0-0.461-0.111-0.578-0.337 c0.383-0.075,0.607-0.381,0.67-0.479c0.034-0.014,0.089-0.032,0.136-0.032c0.017,0,0.04,0.002,0.051,0.014 c0.006,0.006,0.024,0.034,0.017,0.116c-0.004,0.042,0.019,0.082,0.057,0.099c0.014,0.006,0.028,0.009,0.042,0.009 c0.026,0,0.052-0.01,0.071-0.029c0.175-0.175,0.236-0.336,0.181-0.479c-0.057-0.148-0.226-0.23-0.401-0.265 c0.038-0.098,0.047-0.197,0.025-0.296c-0.056-0.26-0.305-0.413-0.316-0.42c-0.016-0.01-0.034-0.015-0.052-0.015 c-0.009,0-0.017,0.001-0.025,0.003c-0.026,0.007-0.049,0.024-0.062,0.048l-0.195,0.347c-0.116-0.039-0.344-0.097-0.68-0.097 c-0.344,0-0.719,0.059-1.115,0.177l-1.162,0.344l-0.81-0.454c-0.015-0.008-0.032-0.013-0.049-0.013 c-0.008,0-0.016,0.001-0.024,0.003c-0.003,0.001-0.34,0.082-0.641,0.082c-0.175,0-0.385-0.026-0.411-0.151 c0.006-0.05,0.014-0.102,0.023-0.156c0.009-0.051-0.023-0.101-0.073-0.114c-0.008-0.002-0.017-0.003-0.025-0.003 c-0.042,0-0.08,0.026-0.094,0.067c-0.026,0.075-0.037,0.145-0.031,0.207c-0.082,0.749,0.184,1.15,0.837,1.262 c0.006,0.001,0.011,0.001,0.017,0.001c0.029,0,0.057-0.013,0.076-0.035c0.023-0.027,0.03-0.063,0.019-0.097 c-0.04-0.119-0.063-0.211-0.077-0.277l0.569,0.135c0.008,0.002,0.015,0.003,0.023,0.003c0.025,0,0.049-0.009,0.068-0.027 c0.024-0.023,0.036-0.056,0.031-0.089l-0.006-0.04l0.382,0.349c0.019,0.017,0.043,0.026,0.068,0.026 c0.014,0,0.029-0.003,0.042-0.009c0.014-0.006,1.36-0.633,2.117-0.633c0.066,0,0.125,0.005,0.177,0.014 c0.421,0.078,0.563,0.212,0.564,0.262c0,0.023-0.059,0.082-0.243,0.118c-0.058,0.011-0.109,0.016-0.155,0.016 c-0.131,0-0.221-0.039-0.316-0.08c-0.096-0.041-0.195-0.084-0.328-0.084c-0.083,0-0.169,0.017-0.264,0.051 c-0.341,0.122-0.874,0.269-1.492,0.44c-0.232,0.064-0.474,0.131-0.72,0.201c-0.307,0.087-0.616,0.131-0.917,0.131 c-0.421,0-0.818-0.09-1.098-0.249c-0.028-0.205-0.03-0.368-0.028-0.449l0.487-0.228c0.039-0.018,0.062-0.06,0.057-0.104 c-0.006-0.043-0.039-0.078-0.082-0.085l-0.5-0.088l-0.045-0.55c-0.003-0.035-0.024-0.066-0.055-0.081 c-0.014-0.007-0.029-0.01-0.044-0.01c-0.019,0-0.038,0.005-0.054,0.016l-0.531,0.339l-0.334-0.45 C26.661,22.039,26.632,22.024,26.6,22.024L26.6,22.024z"/><circle cx="24.39" cy="24.503" r=".669" fill="#fff"/><path fill="#eee" d="M27.227,36.281l-0.305-0.745c0,0-0.898,0-1.236-0.559c-0.339-0.559-0.051-1.456-0.051-1.456 l-0.61-0.288c0,0,0.508-0.44,0.711-0.406c0.203,0.034,0.356,0.271,0.356,0.576c0.525,0.525,1.016,1.287,1.185,1.914 c0.491,0.474,0.864,0.796,0.864,0.796L27.227,36.281z"/><path fill="#424242" d="M27.227,36.331c-0.02,0-0.038-0.012-0.046-0.031l-0.293-0.715c-0.172-0.006-0.93-0.062-1.245-0.581 c-0.308-0.51-0.121-1.269-0.068-1.456l-0.57-0.27c-0.015-0.007-0.025-0.021-0.028-0.038c-0.002-0.017,0.004-0.033,0.017-0.045 c0.052-0.044,0.493-0.421,0.723-0.421c0.011,0,0.021,0.001,0.029,0.002c0.227,0.038,0.392,0.291,0.398,0.605 c0.543,0.549,1.015,1.312,1.18,1.908c0.479,0.462,0.849,0.781,0.852,0.784c0.015,0.013,0.021,0.032,0.016,0.051 c-0.005,0.019-0.02,0.033-0.039,0.036l-0.915,0.169C27.232,36.331,27.229,36.331,27.227,36.331z M25.117,33.222l0.539,0.254 c0.022,0.011,0.034,0.036,0.026,0.061c-0.003,0.009-0.276,0.882,0.046,1.416c0.32,0.527,1.185,0.534,1.193,0.534 c0.021,0,0.039,0.012,0.046,0.031l0.29,0.707l0.773-0.143c-0.135-0.119-0.433-0.386-0.789-0.729 c-0.006-0.007-0.011-0.015-0.013-0.023c-0.159-0.588-0.63-1.348-1.172-1.892c-0.01-0.009-0.015-0.021-0.015-0.035 c0-0.274-0.133-0.496-0.314-0.527c-0.006,0-0.012-0.001-0.018-0.001C25.584,32.874,25.305,33.067,25.117,33.222z"/><path fill="#eee" d="M26.194,33.775c0,0,0.254-0.61,0.305-0.644c0.051-0.034,1.05-0.508,1.05-0.508l-0.491,0.593 l0.373,0.017l-0.068,0.356"/><path fill="#424242" d="M26.194,33.825c-0.007,0-0.013-0.001-0.02-0.004c-0.025-0.011-0.037-0.04-0.026-0.065 c0.172-0.414,0.281-0.639,0.323-0.666c0.051-0.034,0.889-0.433,1.056-0.512c0.022-0.013,0.046-0.004,0.061,0.015 s0.015,0.044-0.001,0.062l-0.427,0.516l0.271,0.013c0.015,0.001,0.028,0.008,0.037,0.019c0.009,0.012,0.013,0.026,0.01,0.041 l-0.067,0.355c-0.005,0.026-0.024,0.048-0.059,0.039c-0.026-0.005-0.045-0.031-0.039-0.059l0.057-0.299l-0.314-0.015 c-0.02-0.001-0.036-0.013-0.044-0.029c-0.008-0.018-0.005-0.038,0.008-0.053l0.347-0.418c-0.373,0.178-0.806,0.386-0.84,0.408 c-0.029,0.031-0.17,0.342-0.286,0.621C26.232,33.813,26.214,33.825,26.194,33.825z"/><path fill="#eee" d="M26.38,33.995l1.947-1.236c0,0-0.237,0.627-0.576,0.779c0.254,0.102,0.305,0.119,0.305,0.119 s-0.474,0.44-0.779,0.491c0.508,0.102,0.508,0.102,0.508,0.102s-0.474,0.474-1.202,0.44"/><path fill="#424242" d="M26.659,34.741c-0.026,0-0.052-0.001-0.078-0.002c-0.028-0.001-0.049-0.024-0.048-0.052 s0.023-0.048,0.05-0.048c0.001,0,0.002,0,0.002,0c0.024,0.001,0.049,0.002,0.072,0.002c0.5,0,0.868-0.244,1.019-0.363 l-0.408-0.082c-0.023-0.005-0.041-0.025-0.04-0.05c0-0.024,0.018-0.044,0.042-0.049c0.224-0.037,0.556-0.306,0.691-0.424 c-0.047-0.018-0.118-0.046-0.228-0.089c-0.019-0.008-0.031-0.025-0.031-0.046c-0.001-0.02,0.011-0.038,0.029-0.047 c0.218-0.098,0.395-0.414,0.484-0.604l-1.81,1.148c-0.023,0.017-0.054,0.009-0.068-0.016c-0.015-0.022-0.008-0.054,0.016-0.068 l1.947-1.236c0.016-0.013,0.041-0.011,0.058,0.003s0.023,0.036,0.016,0.057c-0.009,0.024-0.206,0.54-0.508,0.753 c0.165,0.065,0.204,0.079,0.206,0.079c0.017,0.006,0.029,0.02,0.033,0.037s-0.002,0.035-0.015,0.048 c-0.017,0.015-0.333,0.307-0.621,0.441l0.326,0.065c0.019,0.003,0.033,0.017,0.038,0.034s0.001,0.037-0.013,0.05 C27.802,34.304,27.356,34.741,26.659,34.741z"/><path fill="#fdd835" d="M32.663,32.556c0,0-0.881,0.22-0.762,1.287c0.119,1.067,1.592,0.779,1.592,0.779 s0.847-0.406,0.762-0.999s-0.525-0.305-0.931-0.542C32.917,32.844,32.917,32.556,32.663,32.556z"/><path fill="#424242" d="M33.071,34.708c-0.272,0-0.619-0.045-0.876-0.234c-0.198-0.146-0.314-0.355-0.345-0.625 c-0.121-1.099,0.791-1.339,0.801-1.342c0.004-0.001,0.008-0.001,0.012-0.001c0.156,0,0.233,0.095,0.322,0.205 c0.079,0.097,0.177,0.218,0.363,0.327c0.139,0.081,0.281,0.096,0.42,0.111c0.245,0.026,0.477,0.052,0.536,0.466 c0.088,0.622-0.755,1.034-0.791,1.052c-0.004,0.002-0.008,0.003-0.012,0.004C33.486,34.674,33.307,34.708,33.071,34.708z M32.669,32.605c-0.08,0.022-0.827,0.256-0.719,1.231c0.026,0.241,0.129,0.428,0.304,0.557c0.425,0.312,1.146,0.194,1.223,0.181 c0.072-0.037,0.803-0.42,0.729-0.945c-0.048-0.337-0.207-0.354-0.447-0.381c-0.142-0.015-0.303-0.032-0.46-0.124 c-0.202-0.118-0.307-0.247-0.39-0.35C32.824,32.671,32.773,32.608,32.669,32.605z"/><path fill="#43a047" d="M31.698,34.672c0,0-0.119-0.728,0.119-1.067s0.864,0.085,1.152,0.271 c0.288,0.186,0.982,0.627,0.677,0.914c-0.305,0.288-1.016,0.593-1.016,0.593L31.698,34.672z"/><path fill="#424242" d="M32.629,35.434c-0.011,0-0.021-0.003-0.03-0.01l-0.932-0.711c-0.01-0.008-0.017-0.02-0.02-0.032 c-0.005-0.03-0.118-0.752,0.128-1.104c0.254-0.365,0.862,0.027,1.19,0.239l0.041,0.026c0.257,0.165,0.736,0.474,0.763,0.761 c0.008,0.085-0.022,0.16-0.091,0.224c-0.308,0.291-1.001,0.59-1.03,0.603C32.643,35.433,32.636,35.434,32.629,35.434z M31.744,34.646l0.892,0.681c0.131-0.059,0.713-0.324,0.975-0.571c0.045-0.043,0.064-0.089,0.06-0.142 c-0.022-0.239-0.51-0.553-0.718-0.687l-0.041-0.027c-0.275-0.179-0.852-0.553-1.054-0.266 C31.655,33.923,31.728,34.529,31.744,34.646z"/><path fill="#43a047" d="M32.443,34.689c0,0-0.83-0.593-1.033,0c-0.203,0.593,0.102,0.965,0.237,1.033 c0.135,0.068,0.762,0.203,1.168-0.102C33.222,35.316,32.443,34.689,32.443,34.689z"/><path fill="#424242" d="M32.161,35.86c-0.25,0-0.465-0.057-0.537-0.093c-0.146-0.074-0.477-0.47-0.262-1.095 c0.049-0.144,0.137-0.236,0.261-0.275c0.339-0.108,0.828,0.236,0.849,0.251c0.001,0.001,0.001,0.001,0.002,0.002 c0.021,0.017,0.515,0.418,0.509,0.755c-0.002,0.103-0.048,0.188-0.137,0.256C32.642,35.813,32.388,35.86,32.161,35.86z M31.769,34.476c-0.04,0-0.079,0.005-0.115,0.017c-0.094,0.03-0.157,0.1-0.197,0.214c-0.192,0.562,0.089,0.909,0.213,0.972 c0.121,0.061,0.73,0.193,1.116-0.097c0.064-0.048,0.097-0.106,0.098-0.178c0.005-0.28-0.444-0.652-0.471-0.674 C32.39,34.714,32.045,34.476,31.769,34.476z"/><path fill="#37474f" d="M33.323,33.181c-0.026,0-0.052-0.01-0.071-0.029c-0.039-0.04-0.038-0.104,0.001-0.142 c0.73-0.711,1.41-0.235,1.416-0.23c0.045,0.032,0.055,0.095,0.022,0.139c-0.032,0.045-0.096,0.056-0.14,0.023 c-0.021-0.017-0.552-0.38-1.158,0.211C33.374,33.172,33.349,33.181,33.323,33.181z"/><path fill="#8d6e63" d="M31.647,35.79c0,0-0.694-0.373-0.931,1.118C31.528,36.603,31.901,36.095,31.647,35.79z"/><path fill="#424242" d="M30.716,36.958c-0.012,0-0.022-0.004-0.031-0.011c-0.014-0.012-0.021-0.029-0.019-0.047 c0.1-0.624,0.29-1.011,0.568-1.148c0.229-0.114,0.428-0.011,0.436-0.006c0.006,0.003,0.011,0.007,0.015,0.012 c0.085,0.102,0.111,0.227,0.075,0.361c-0.081,0.308-0.475,0.628-1.026,0.836C30.728,36.957,30.722,36.958,30.716,36.958z M31.459,35.799c-0.054,0-0.116,0.011-0.182,0.043c-0.163,0.082-0.378,0.32-0.497,0.987c0.479-0.195,0.813-0.473,0.883-0.735 c0.026-0.101,0.01-0.188-0.049-0.264C31.594,35.82,31.536,35.799,31.459,35.799z"/><g><polygon fill="#8d6e63" points="32.866,28.017 32.866,29.778 32.527,30.253 33.476,30.219 33.188,29.643 33.171,28.051"/><path fill="#424242" d="M32.527,30.303c-0.019,0-0.035-0.01-0.044-0.026s-0.008-0.037,0.003-0.053l0.33-0.461v-1.745 c0-0.015,0.006-0.027,0.017-0.037c0.01-0.011,0.023-0.015,0.039-0.013l0.305,0.033c0.024,0.003,0.044,0.024,0.044,0.049 l0.017,1.581l0.283,0.565c0.008,0.016,0.007,0.033-0.002,0.048s-0.024,0.024-0.041,0.024l-0.948,0.034 C32.528,30.303,32.528,30.303,32.527,30.303z M32.916,28.073v1.705c0,0.011-0.003,0.021-0.009,0.029l-0.28,0.392l0.77-0.027 l-0.254-0.507c-0.003-0.007-0.005-0.015-0.005-0.021l-0.017-1.548L32.916,28.073z"/></g><g><polygon fill="#8d6e63" points="24.941,29.016 25.144,29.999 25.466,29.829 25.161,28.881"/><path fill="#424242" d="M25.144,30.049c-0.007,0-0.015-0.001-0.021-0.005c-0.014-0.007-0.024-0.02-0.027-0.035 l-0.203-0.982c-0.005-0.021,0.005-0.041,0.022-0.053l0.221-0.136c0.013-0.009,0.03-0.009,0.044-0.004 c0.015,0.005,0.025,0.017,0.03,0.031l0.305,0.948c0.007,0.023-0.003,0.049-0.024,0.06l-0.322,0.17 C25.159,30.047,25.151,30.049,25.144,30.049z M24.996,29.041l0.183,0.883l0.227-0.119l-0.272-0.848L24.996,29.041z"/></g><g><polygon fill="#8d6e63" points="25.94,28.153 25.906,29.66 26.245,29.728 26.211,28.051"/><path fill="#424242" d="M26.245,29.777c-0.003,0-0.007,0-0.01-0.001l-0.339-0.067c-0.023-0.005-0.041-0.025-0.04-0.05 l0.033-1.508c0-0.021,0.013-0.039,0.032-0.046l0.271-0.102c0.015-0.005,0.031-0.004,0.046,0.006 c0.013,0.009,0.021,0.023,0.021,0.04l0.034,1.677c0.001,0.015-0.006,0.029-0.018,0.039C26.269,29.773,26.257,29.777,26.245,29.777 z M25.957,29.619l0.237,0.047l-0.032-1.544l-0.174,0.065L25.957,29.619z"/></g><g><path fill="#43a047" d="M24.602,27.391c0,0-0.237-0.559-0.643-0.474c-0.406,0.085-0.169,0.847-0.169,0.847 s0.135-0.474,0.373-0.406c0.237,0.068,0.356,0.66,0.356,0.66s-0.948-0.119-0.643,0.644c0.169-0.152,0.457-0.576,0.779-0.068 s0.102,0.22,0.102,0.22s-0.643,0.119-0.61,0.61c0.491-0.271,0.881-0.017,0.881-0.017l0.135-0.525c0,0-0.423-0.508-0.288-0.965 s0.965-1.05,0.965-1.05S25.059,26.629,24.602,27.391z"/><path fill="#424242" d="M24.145,29.473c-0.008,0-0.017-0.002-0.024-0.006c-0.015-0.008-0.024-0.023-0.025-0.041 c-0.031-0.454,0.467-0.615,0.612-0.652c-0.024-0.039-0.055-0.089-0.096-0.154c-0.086-0.135-0.175-0.208-0.263-0.218 c-0.007-0.001-0.014-0.001-0.02-0.001c-0.127,0-0.247,0.123-0.345,0.223c-0.028,0.028-0.054,0.054-0.077,0.075 c-0.012,0.012-0.028,0.016-0.045,0.012c-0.016-0.004-0.028-0.015-0.035-0.03c-0.089-0.223-0.085-0.399,0.013-0.525 c0.148-0.191,0.473-0.197,0.614-0.192c-0.046-0.185-0.156-0.514-0.306-0.558c-0.011-0.003-0.021-0.004-0.032-0.004 c-0.166,0-0.278,0.373-0.279,0.377c-0.006,0.021-0.025,0.036-0.047,0.036c-0.001,0-0.001,0-0.001,0 c-0.021,0-0.041-0.014-0.048-0.035c-0.006-0.021-0.154-0.504-0.003-0.761c0.048-0.08,0.118-0.131,0.211-0.149 c0.032-0.007,0.064-0.01,0.096-0.01c0.291,0,0.484,0.286,0.563,0.431c0.478-0.694,1.237-0.473,1.244-0.471 c0.019,0.006,0.031,0.021,0.035,0.04c0.003,0.019-0.005,0.037-0.021,0.049c-0.009,0.006-0.817,0.587-0.946,1.023 c-0.126,0.425,0.274,0.913,0.278,0.918c0.011,0.013,0.015,0.029,0.011,0.045l-0.136,0.525c-0.005,0.016-0.016,0.028-0.03,0.034 c-0.016,0.005-0.031,0.003-0.046-0.005c-0.015-0.009-0.372-0.231-0.829,0.019C24.161,29.471,24.153,29.473,24.145,29.473z M24.734,28.869c-0.113,0.026-0.505,0.144-0.539,0.472c0.372-0.171,0.674-0.068,0.798-0.009l0.113-0.439 c-0.08-0.103-0.409-0.561-0.281-0.991c0.113-0.382,0.673-0.84,0.895-1.009c-0.219-0.033-0.735-0.04-1.074,0.523 c-0.009,0.016-0.025,0.024-0.043,0.024c-0.001,0-0.002,0-0.004,0c-0.019-0.001-0.035-0.013-0.042-0.03 c-0.002-0.005-0.197-0.452-0.516-0.452c-0.023,0-0.047,0.003-0.072,0.008c-0.064,0.014-0.111,0.047-0.145,0.103 c-0.081,0.139-0.056,0.373-0.024,0.527c0.067-0.148,0.195-0.341,0.376-0.287c0.258,0.074,0.378,0.636,0.391,0.699 c0.003,0.016-0.001,0.032-0.012,0.044s-0.027,0.015-0.043,0.016c-0.005,0-0.439-0.051-0.593,0.148 c-0.064,0.083-0.072,0.202-0.024,0.355c0.006-0.006,0.012-0.012,0.018-0.019c0.105-0.107,0.248-0.252,0.416-0.252 c0.011,0,0.021,0,0.031,0.001c0.121,0.013,0.231,0.1,0.336,0.265c0.205,0.324,0.207,0.337,0.161,0.369 C24.809,28.965,24.781,28.929,24.734,28.869z"/></g><g><polygon fill="#8d6e63" points="27.184,29.016 26.98,29.999 26.659,29.829 26.963,28.881"/><path fill="#424242" d="M26.98,30.049c-0.008,0-0.016-0.002-0.023-0.006l-0.322-0.17c-0.021-0.011-0.031-0.036-0.024-0.06 l0.306-0.948c0.005-0.015,0.017-0.026,0.03-0.031c0.015-0.006,0.03-0.005,0.044,0.004l0.22,0.136 c0.018,0.012,0.026,0.032,0.022,0.053l-0.203,0.982c-0.003,0.016-0.014,0.028-0.027,0.035 C26.995,30.048,26.987,30.049,26.98,30.049z M26.719,29.805l0.227,0.119l0.183-0.883l-0.136-0.084L26.719,29.805z"/></g><g><path fill="#43a047" d="M27.522,27.391c0,0,0.237-0.559,0.644-0.474c0.406,0.085,0.169,0.847,0.169,0.847 s-0.135-0.474-0.373-0.406c-0.237,0.068-0.356,0.66-0.356,0.66s0.948-0.119,0.644,0.644c-0.169-0.152-0.457-0.576-0.779-0.068 c-0.322,0.508-0.102,0.22-0.102,0.22s0.643,0.119,0.61,0.61c-0.491-0.271-0.881-0.017-0.881-0.017l-0.135-0.525 c0,0,0.423-0.508,0.288-0.965s-0.965-1.05-0.965-1.05S27.065,26.629,27.522,27.391z"/><path fill="#424242" d="M27.979,29.473c-0.009,0-0.017-0.002-0.024-0.006c-0.456-0.251-0.813-0.027-0.829-0.019 c-0.015,0.008-0.029,0.01-0.046,0.005c-0.015-0.006-0.026-0.019-0.03-0.034l-0.135-0.525c-0.004-0.016,0-0.032,0.011-0.045 c0.004-0.005,0.403-0.493,0.277-0.918c-0.129-0.437-0.938-1.018-0.946-1.023c-0.016-0.012-0.023-0.03-0.021-0.049 c0.004-0.02,0.017-0.034,0.035-0.04c0.007-0.002,0.769-0.223,1.245,0.471c0.087-0.159,0.319-0.49,0.659-0.421 c0.093,0.019,0.163,0.069,0.21,0.149c0.151,0.256,0.003,0.74-0.003,0.761c-0.007,0.021-0.026,0.035-0.048,0.035c0,0,0,0-0.001,0 c-0.021,0-0.041-0.015-0.047-0.036c-0.001-0.004-0.113-0.377-0.279-0.377c-0.01,0-0.021,0.001-0.031,0.004 c-0.15,0.044-0.261,0.373-0.307,0.558c0.146-0.005,0.467,0.001,0.615,0.193c0.097,0.125,0.101,0.302,0.012,0.524 c-0.007,0.016-0.02,0.026-0.035,0.03c-0.017,0.004-0.033,0-0.045-0.012c-0.023-0.021-0.049-0.047-0.077-0.075 c-0.103-0.104-0.23-0.241-0.364-0.222c-0.088,0.01-0.176,0.083-0.262,0.218c-0.041,0.065-0.072,0.115-0.096,0.154 c0.146,0.037,0.644,0.197,0.611,0.653c-0.001,0.017-0.011,0.032-0.026,0.04C27.996,29.471,27.987,29.473,27.979,29.473z M27.516,29.247c0.121,0,0.262,0.024,0.413,0.094c-0.033-0.328-0.426-0.445-0.538-0.472c-0.048,0.062-0.082,0.094-0.122,0.066 c-0.047-0.032-0.045-0.045,0.161-0.369c0.104-0.165,0.214-0.252,0.335-0.265c0.011-0.001,0.021-0.001,0.031-0.001 c0.168,0,0.311,0.145,0.415,0.252c0.007,0.007,0.013,0.013,0.019,0.019c0.048-0.153,0.04-0.272-0.023-0.355 c-0.156-0.201-0.59-0.148-0.594-0.148c-0.015-0.001-0.032-0.004-0.043-0.016s-0.015-0.028-0.012-0.044 c0.013-0.063,0.133-0.625,0.392-0.699c0.18-0.048,0.308,0.14,0.375,0.287c0.031-0.155,0.057-0.39-0.024-0.527 c-0.033-0.056-0.08-0.089-0.144-0.103c-0.025-0.005-0.049-0.008-0.072-0.008c-0.318,0-0.514,0.447-0.516,0.452 c-0.007,0.018-0.023,0.029-0.042,0.03c-0.002,0-0.003,0-0.004,0c-0.018,0-0.034-0.009-0.043-0.024 c-0.339-0.564-0.855-0.558-1.075-0.523c0.223,0.169,0.782,0.627,0.895,1.01c0.128,0.43-0.201,0.888-0.28,0.99l0.112,0.439 C27.204,29.297,27.34,29.247,27.516,29.247z"/></g><g><path fill="#43a047" d="M24.873,26.476c0,0,0.847,0.745,1.101,1.219c-0.491-0.068-0.83,0.102-0.677,0.508 c0.152,0.406,0.254,0.931,0.254,0.931l0.169-1.101l0.389,0.305L26.516,28l0.305,0.542c0,0-0.085-0.813-0.254-0.914 c-0.169-0.102-0.305,0.051-0.305,0.051s0.559-0.864,1.321-1.101c-0.796-0.119-1.406,0.508-1.422,0.694 C26.16,27.272,25.618,26.595,24.873,26.476z"/><path fill="#424242" d="M25.551,29.185c-0.023,0-0.045-0.017-0.049-0.04c-0.001-0.006-0.103-0.525-0.252-0.924 c-0.079-0.21-0.026-0.342,0.031-0.414c0.092-0.115,0.267-0.176,0.494-0.176c0.034,0,0.068,0.002,0.104,0.004 c-0.292-0.46-1.032-1.113-1.04-1.121c-0.017-0.015-0.021-0.038-0.012-0.059c0.009-0.021,0.029-0.029,0.053-0.028 c0.624,0.1,1.101,0.57,1.261,0.748c0.05-0.097,0.155-0.214,0.29-0.32c0.16-0.127,0.59-0.411,1.158-0.326 c0.022,0.004,0.04,0.022,0.042,0.046s-0.013,0.045-0.035,0.052c-0.536,0.167-0.976,0.66-1.176,0.919 c0.047-0.008,0.11,0.003,0.171,0.04c0.182,0.109,0.264,0.812,0.278,0.952c0.002,0.023-0.012,0.045-0.034,0.053 c-0.026,0.004-0.047-0.002-0.06-0.023l-0.274-0.489l-0.36,0.3c-0.019,0.016-0.043,0.019-0.063,0.001l-0.322-0.252l-0.155,1.017 C25.597,29.166,25.576,29.185,25.551,29.185L25.551,29.185z M25.775,27.731c-0.194,0-0.344,0.048-0.416,0.138 c-0.061,0.076-0.066,0.183-0.016,0.316c0.084,0.225,0.153,0.486,0.198,0.677l0.128-0.836c0.003-0.018,0.015-0.032,0.031-0.039 c0.017-0.006,0.034-0.003,0.05,0.008l0.357,0.279l0.375-0.312c0.011-0.01,0.025-0.016,0.041-0.011 c0.015,0.002,0.027,0.012,0.035,0.024l0.177,0.314c-0.046-0.281-0.118-0.573-0.195-0.619c-0.13-0.076-0.238,0.035-0.242,0.041 c-0.018,0.02-0.048,0.023-0.067,0.006c-0.021-0.016-0.025-0.044-0.012-0.066c0.021-0.032,0.478-0.729,1.135-1.038 c-0.417,0.01-0.732,0.219-0.861,0.32c-0.188,0.147-0.278,0.289-0.283,0.344c-0.002,0.02-0.016,0.037-0.035,0.043 c-0.019,0.004-0.041-0.001-0.054-0.017c-0.005-0.006-0.451-0.555-1.074-0.736c0.254,0.234,0.776,0.742,0.971,1.104 c0.009,0.017,0.008,0.036-0.003,0.052s-0.025,0.022-0.048,0.021C25.899,27.735,25.836,27.731,25.775,27.731z"/></g><g><path fill="#43a047" d="M32.985,28.204c0,0-1.016,0.779-1.101,1.406c-0.203-0.643,0.017-1.202,0.745-1.744 c0,0-1.236,0.169-1.524,0.931c-0.102-0.508,0-0.881,0.423-1.152c0.423-0.271,1.202-0.152,1.202-0.152s-0.982-0.474-2.066,0 c0.423-0.745,0.627-0.779,1.135-0.83c0.508-0.051,1.118,0.508,1.118,0.508l0.22-0.931l0.102,0.931c0,0,0.61-0.559,1.135-0.542 c0.525,0.017,1.033,0.931,1.033,0.931s-0.965-0.457-1.88-0.085c0.644,0.034,1.101,0.288,1.219,1.152 c-0.593-0.66-1.084-0.745-1.524-0.694c0.051,0,1.287,0.542,0.779,1.676C33.662,28.695,32.985,28.204,32.985,28.204z"/><path fill="#424242" d="M34.001,29.659c-0.021-0.003-0.04-0.013-0.047-0.032c-0.289-0.781-0.836-1.254-0.97-1.36 c-0.167,0.135-0.978,0.81-1.051,1.35c-0.003,0.023-0.022,0.041-0.046,0.043c-0.021-0.001-0.045-0.013-0.052-0.035 c-0.197-0.627-0.008-1.161,0.599-1.67c-0.355,0.084-1.078,0.317-1.283,0.859c-0.008,0.021-0.024,0.034-0.051,0.032 c-0.022-0.002-0.041-0.019-0.045-0.04c-0.112-0.562,0.024-0.934,0.445-1.203c0.236-0.151,0.573-0.187,0.836-0.187 c0.003,0,0.006,0,0.009,0c-0.377-0.094-1.002-0.166-1.661,0.122c-0.021,0.008-0.044,0.003-0.058-0.013 c-0.015-0.016-0.017-0.039-0.006-0.058c0.423-0.745,0.632-0.802,1.173-0.855c0.023-0.002,0.048-0.004,0.072-0.004 c0.413,0,0.858,0.335,1.021,0.471l0.2-0.852c0.006-0.023,0.026-0.037,0.052-0.038c0.024,0.001,0.044,0.021,0.047,0.044 l0.091,0.838c0.182-0.149,0.662-0.507,1.098-0.492c0.547,0.018,1.054,0.919,1.075,0.957c0.011,0.02,0.008,0.043-0.008,0.059 c-0.015,0.016-0.038,0.021-0.058,0.011c-0.009-0.004-0.809-0.374-1.624-0.156c0.615,0.099,0.938,0.468,1.035,1.171 c0.003,0.021-0.009,0.043-0.028,0.052c-0.021,0.011-0.045,0.004-0.059-0.012c-0.508-0.564-0.927-0.69-1.278-0.69 c-0.003,0-0.005,0-0.008,0c0.169,0.094,0.406,0.264,0.57,0.517c0.222,0.343,0.239,0.728,0.054,1.144 C34.038,29.647,34.021,29.659,34.001,29.659z M32.984,28.153c0.011,0,0.021,0.003,0.029,0.01c0.027,0.02,0.637,0.468,0.988,1.311 c0.105-0.298,0.094-0.576-0.034-0.83c-0.22-0.437-0.704-0.651-0.753-0.661c-0.026,0-0.045-0.021-0.046-0.047 c-0.002-0.026,0.021-0.05,0.047-0.053c0.375-0.042,0.862-0.009,1.453,0.589c-0.13-0.626-0.48-0.912-1.146-0.946 c-0.023-0.001-0.042-0.019-0.046-0.041c-0.004-0.023,0.008-0.046,0.03-0.055c0.724-0.299,1.471-0.088,1.776,0.027 c-0.159-0.248-0.537-0.767-0.913-0.778c-0.007,0-0.015,0-0.022,0c-0.493,0-1.07,0.523-1.076,0.529 c-0.015,0.013-0.033,0.017-0.052,0.01c-0.018-0.007-0.03-0.022-0.032-0.041l-0.07-0.643l-0.152,0.648 c-0.004,0.017-0.018,0.031-0.034,0.036c-0.017,0.004-0.035,0.002-0.049-0.011c-0.005-0.006-0.549-0.499-1.017-0.499 c-0.021,0-0.042,0.001-0.062,0.003c-0.45,0.045-0.652,0.065-1.022,0.68c1.037-0.383,1.961,0.051,1.971,0.056 c0.022,0.011,0.033,0.036,0.026,0.06c-0.008,0.024-0.033,0.035-0.056,0.035c-0.006-0.002-0.765-0.113-1.167,0.145 c-0.342,0.219-0.477,0.514-0.427,0.943c0.382-0.655,1.445-0.808,1.493-0.814c0.021-0.004,0.044,0.01,0.053,0.031 c0.009,0.021,0.002,0.045-0.016,0.059c-0.628,0.467-0.878,0.949-0.774,1.504c0.224-0.591,1.031-1.217,1.069-1.246 C32.963,28.156,32.974,28.153,32.984,28.153z"/></g></svg>