<svg xmlns="http://www.w3.org/2000/svg"  viewBox="0 0 48 48" width="50px" height="50px"><path fill="#283593" d="M44,24c0,11.046-8.954,20-20,20S4,35.046,4,24c0-2.216,0.36-4.348,1.026-6.341 C6.311,13.812,14.489,11,14.489,11s0.04-4.693,1.507-5.334C18.447,4.594,21.154,4,24,4C35.046,4,44,12.954,44,24z"/><path fill="#ffd600" d="M31.661,21h-0.055h-7.339v6.831c0,0,0.189,7.06,7.313,10.117c0,0.017,0,0.035,0,0.052 c0.019-0.008,0.035-0.018,0.054-0.026c0.019,0.008,0.035,0.018,0.054,0.026c0-0.017,0-0.035,0-0.052 C38.811,34.891,39,27.831,39,27.831V21H31.661z"/><path fill="#fafafa" d="M31.688,38.15c-0.019,0-0.037-0.004-0.054-0.011c-0.046,0.018-0.097,0.014-0.139-0.016 c-0.027-0.018-0.047-0.044-0.058-0.073c-7.049-3.079-7.319-10.145-7.321-10.216V21c0-0.083,0.067-0.15,0.15-0.15H39 c0.083,0,0.15,0.067,0.15,0.15v6.831c-0.002,0.075-0.272,7.141-7.321,10.22c-0.011,0.029-0.03,0.056-0.058,0.073 C31.746,38.142,31.717,38.15,31.688,38.15z M24.417,21.15v6.681c0.002,0.065,0.273,6.993,7.217,9.978 c6.949-2.986,7.215-9.912,7.216-9.981V21.15H24.417z"/><path fill="#8d6e63" d="M32.381,22.406c0,0,1.848,1.364,2.107,1.627c0.258,0.262,0.177-0.328,0.177-0.328 S33.006,22.485,32.381,22.406z"/><path fill="#8d6e63" d="M34.338,24.361c0,0-1.549-0.879-2.582-0.761c0.557-0.446,2.732,0.433,2.732,0.433L34.338,24.361z"/><path fill="#8d6e63" d="M34.392,24.61c0,0-1.753-0.669-2.691-0.157c1.386,0.118,1.645,0.092,2.596,0.459 S34.392,24.61,34.392,24.61z"/><path fill="#8d6e63" d="M34.243,25.122c0,0-1.685-0.472-2.392,0.42c0.544-0.223,1.726-0.341,2.419-0.131 S34.243,25.122,34.243,25.122z"/><path fill="#8d6e63" d="M34.515,21.671c0,0,0.503,1.141,0.408,1.916c-0.231-0.053-0.87-0.748-0.381-1.443 c-0.571,0.262-0.53,1.233,0.122,1.64c0.652,0.407,0.503-0.052,0.503-0.052S35.222,22.248,34.515,21.671z"/><path fill="#8d6e63" d="M37.953,22.406c0,0-1.848,1.364-2.107,1.627c-0.258,0.262-0.177-0.328-0.177-0.328 S37.328,22.485,37.953,22.406z"/><path fill="#8d6e63" d="M35.996,24.361c0,0,1.549-0.879,2.582-0.761c-0.557-0.446-2.732,0.433-2.732,0.433L35.996,24.361z"/><path fill="#8d6e63" d="M35.942,24.61c0,0,1.753-0.669,2.691-0.157c-1.386,0.118-1.645,0.092-2.596,0.459 S35.942,24.61,35.942,24.61z"/><path fill="#8d6e63" d="M36.091,25.122c0,0,1.685-0.472,2.392,0.42c-0.544-0.223-1.726-0.341-2.419-0.131 C35.371,25.62,36.091,25.122,36.091,25.122z"/><path fill="#8d6e63" d="M35.82,21.671c0,0-0.503,1.141-0.408,1.916c0.231-0.053,0.87-0.748,0.381-1.443 c0.571,0.262,0.53,1.233-0.122,1.64c-0.652,0.407-0.503-0.052-0.503-0.052S35.113,22.248,35.82,21.671z"/><path fill="#ffcc80" d="M28.439,23.626l-0.53-0.105c0,0,0.027-0.42-0.408-0.577c-0.435-0.157-0.231-0.525-0.449-0.551 s-0.666-0.446-0.666-0.446s-0.217,0.433-0.136,0.577c-0.313,0.184-0.027,0.551-0.027,0.551s-0.177,0.249,0.122,0.459 c-0.014,0.092,0.027,0.262,0.027,0.262s-0.095,0.21-0.381,0.171s-0.462,0.276-0.462,0.276s0.245-0.105,0.462-0.013 s0.476,0.092,0.476,0.092s-0.435,0.354-0.435,0.63s-0.612,0.577-0.612,0.577s0.449,0.485,0.829,0.617 c0.381,0.131,1.155,0.499,1.305,0.945s0.462,0.932,0.843,0.945s0.748-0.538,0.748-0.538L28.439,23.626z"/><path fill="#263238" d="M28.412,28.084c-0.005,0-0.01,0-0.016,0c-0.418-0.014-0.74-0.535-0.889-0.979 c-0.142-0.425-0.895-0.782-1.273-0.913c-0.388-0.134-0.831-0.61-0.85-0.63c-0.011-0.012-0.015-0.027-0.012-0.043 s0.013-0.029,0.026-0.036c0.163-0.08,0.584-0.332,0.584-0.532c0-0.215,0.229-0.462,0.362-0.587 c-0.099-0.01-0.242-0.033-0.372-0.089c-0.194-0.081-0.421,0.011-0.424,0.013c-0.019,0.009-0.043,0.003-0.057-0.013 c-0.015-0.016-0.017-0.039-0.007-0.058c0.008-0.014,0.175-0.305,0.457-0.305c0.019,0,0.037,0.002,0.057,0.004 c0.206,0.027,0.295-0.088,0.32-0.128c-0.009-0.043-0.03-0.15-0.026-0.231c-0.095-0.072-0.151-0.157-0.167-0.252 c-0.018-0.1,0.015-0.185,0.037-0.228c-0.042-0.063-0.134-0.223-0.104-0.378c0.016-0.079,0.059-0.145,0.13-0.196 c-0.042-0.178,0.116-0.51,0.151-0.58c0.007-0.014,0.021-0.024,0.036-0.026c0.016-0.004,0.03,0.002,0.043,0.013 c0.122,0.113,0.474,0.413,0.638,0.433c0.127,0.016,0.151,0.12,0.173,0.212c0.028,0.122,0.061,0.26,0.287,0.342 c0.379,0.138,0.433,0.465,0.439,0.584l0.491,0.097c0.021,0.004,0.036,0.02,0.039,0.04l0.707,3.87c0.003,0.013,0,0.025-0.007,0.036 C29.173,27.547,28.811,28.084,28.412,28.084z M25.504,25.542c0.123,0.124,0.468,0.454,0.764,0.557 c0.423,0.146,1.182,0.515,1.336,0.976c0.148,0.444,0.453,0.898,0.797,0.91c0.004,0,0.008,0,0.012,0c0.311,0,0.619-0.412,0.682-0.5 l-0.697-3.816l-0.497-0.098c-0.024-0.005-0.042-0.027-0.04-0.052c0.001-0.016,0.019-0.386-0.375-0.528 c-0.277-0.1-0.321-0.288-0.351-0.412c-0.022-0.098-0.034-0.13-0.087-0.136c-0.189-0.023-0.516-0.299-0.644-0.414 c-0.077,0.17-0.15,0.397-0.108,0.472c0.013,0.023,0.005,0.054-0.019,0.067c-0.067,0.039-0.105,0.089-0.117,0.151 c-0.029,0.15,0.103,0.324,0.104,0.326c0.014,0.017,0.015,0.041,0.002,0.06c-0.015,0.021-0.139,0.214,0.109,0.389 c0.016,0.011,0.023,0.029,0.021,0.048c-0.01,0.067,0.016,0.199,0.026,0.244c0.002,0.011,0.001,0.022-0.003,0.032 c-0.034,0.076-0.15,0.204-0.357,0.204c-0.023,0-0.049-0.002-0.075-0.005c-0.146-0.022-0.254,0.062-0.325,0.137 c0.095-0.017,0.226-0.023,0.352,0.03c0.204,0.087,0.453,0.088,0.456,0.088c0.021,0,0.04,0.013,0.047,0.033 c0.007,0.02,0.001,0.042-0.016,0.056c-0.115,0.095-0.417,0.385-0.417,0.591C26.083,25.204,25.669,25.453,25.504,25.542z"/><path fill="#4caf50" d="M30.501,29.596c0,0-0.779,0.49-0.761,0.945c0.018,0.455-0.453,0.927-0.526,1.539 c-0.072,0.612-0.109,0.997-0.381,1.574c-0.185,0.393-0.732,1.036,0.489,1.382c0.58,0.717,0.997,0.385,0.997,0.385 s0.797,0.455,1.359,0.122c0.634,0.367,1.269-0.105,1.269-0.105s0.852,0.017,1.051-0.455c0.689-0.245,0.87-0.927,0.399-1.417 c-0.471-0.49,0-0.822-0.344-1.452c-0.344-0.63-0.254-1.032-0.652-1.434s-0.381-0.927-0.598-1.05 C32.585,29.508,30.501,29.596,30.501,29.596z"/><path fill="#263238" d="M32.194,35.732c-0.163,0-0.339-0.035-0.516-0.132c-0.523,0.288-1.212-0.044-1.357-0.122 c-0.109,0.063-0.517,0.225-1.027-0.398c-0.415-0.12-0.662-0.284-0.754-0.502c-0.114-0.271,0.042-0.56,0.168-0.792 c0.029-0.054,0.058-0.105,0.08-0.153c0.257-0.545,0.301-0.918,0.367-1.482l0.009-0.076c0.037-0.311,0.175-0.589,0.297-0.835 s0.237-0.479,0.229-0.697c-0.019-0.479,0.752-0.968,0.785-0.988c0.007-0.005,0.016-0.008,0.024-0.008 c0.214-0.009,2.104-0.085,2.327,0.041c0.115,0.064,0.168,0.209,0.234,0.393c0.073,0.202,0.165,0.454,0.375,0.666 c0.236,0.238,0.307,0.477,0.389,0.752c0.06,0.2,0.127,0.428,0.272,0.692c0.168,0.308,0.15,0.55,0.134,0.764 c-0.018,0.232-0.032,0.434,0.203,0.678c0.229,0.238,0.321,0.537,0.255,0.819c-0.071,0.3-0.309,0.544-0.653,0.673 c-0.21,0.446-0.947,0.465-1.072,0.465l0,0C32.894,35.536,32.58,35.732,32.194,35.732z M31.679,35.493 c0.009,0,0.018,0.002,0.025,0.007c0.601,0.35,1.207-0.097,1.213-0.102c0.009-0.007,0.02-0.01,0.03-0.01h0.001c0,0,0.003,0,0.008,0 c0.086,0,0.822-0.013,0.996-0.425c0.005-0.013,0.016-0.022,0.029-0.027c0.323-0.115,0.545-0.337,0.609-0.609 c0.059-0.248-0.024-0.513-0.229-0.727c-0.267-0.276-0.249-0.509-0.23-0.755c0.016-0.209,0.032-0.426-0.122-0.707 c-0.15-0.275-0.22-0.508-0.28-0.713c-0.081-0.273-0.146-0.489-0.363-0.71c-0.226-0.228-0.321-0.491-0.398-0.702 c-0.06-0.164-0.106-0.293-0.189-0.339c-0.148-0.085-1.43-0.065-2.261-0.029c-0.093,0.061-0.742,0.5-0.728,0.893 c0.01,0.243-0.11,0.487-0.238,0.745c-0.124,0.251-0.253,0.51-0.287,0.803l-0.009,0.076c-0.067,0.574-0.112,0.953-0.377,1.514 c-0.022,0.049-0.052,0.103-0.082,0.158c-0.121,0.225-0.259,0.479-0.163,0.706c0.078,0.187,0.315,0.338,0.704,0.448 c0.01,0.003,0.019,0.009,0.025,0.017c0.537,0.665,0.911,0.388,0.926,0.377c0.018-0.013,0.04-0.016,0.056-0.004 c0.009,0.005,0.78,0.438,1.31,0.122C31.661,35.495,31.67,35.493,31.679,35.493z"/><path fill="#263238" d="M29.323,35.086c-0.003,0-0.006,0-0.009-0.001c-0.026-0.004-0.045-0.03-0.04-0.058 c0.007-0.042,0.182-1.052,0.449-1.297c0.208-0.189,0.187-0.461,0.168-0.699c-0.003-0.035-0.005-0.069-0.007-0.101 c-0.015-0.257-0.016-0.886,0.271-1.191c0.202-0.214,0.195-0.391,0.184-0.711c-0.004-0.083-0.007-0.175-0.007-0.278 c0-0.513,0.418-0.948,0.436-0.967c0.02-0.02,0.052-0.019,0.071-0.001c0.02,0.02,0.02,0.051,0.001,0.071 c-0.004,0.004-0.408,0.425-0.408,0.896c0,0.102,0.004,0.192,0.007,0.274c0.012,0.325,0.021,0.539-0.211,0.783 c-0.268,0.285-0.255,0.928-0.244,1.117c0.002,0.031,0.004,0.064,0.007,0.099c0.02,0.248,0.044,0.558-0.199,0.781 c-0.202,0.185-0.371,0.957-0.42,1.24C29.368,35.069,29.348,35.086,29.323,35.086z"/><path fill="#263238" d="M30.75,35.615c-0.024,0-0.046-0.019-0.05-0.043c-0.002-0.014-0.041-0.338,0.131-0.586 c0.149-0.217,0.112-0.347-0.02-0.689c-0.107-0.279,0.041-0.453,0.185-0.62c0.056-0.066,0.114-0.134,0.159-0.21 c0.147-0.249,0.014-0.538-0.136-0.789c-0.156-0.261,0.062-0.617,0.208-0.853l0.023-0.039c0.13-0.212,0.122-0.432-0.032-0.902 c-0.108-0.332-0.043-0.474,0.033-0.638c0.042-0.093,0.09-0.197,0.114-0.356c0.005-0.027,0.031-0.039,0.058-0.042 c0.027,0.005,0.046,0.03,0.042,0.058c-0.026,0.173-0.078,0.284-0.123,0.383c-0.073,0.156-0.125,0.271-0.028,0.564 c0.164,0.504,0.17,0.744,0.022,0.986l-0.024,0.039c-0.132,0.215-0.333,0.54-0.207,0.749c0.155,0.26,0.311,0.596,0.136,0.891 c-0.049,0.083-0.11,0.154-0.169,0.224c-0.142,0.165-0.253,0.296-0.167,0.521c0.136,0.354,0.188,0.521,0.008,0.781 c-0.149,0.216-0.114,0.513-0.113,0.516c0.003,0.027-0.016,0.053-0.043,0.057C30.754,35.615,30.752,35.615,30.75,35.615z"/><path fill="#263238" d="M32.947,35.488c-0.003,0-0.006,0-0.01-0.001c-0.026-0.005-0.045-0.031-0.039-0.059 c0.001-0.005,0.104-0.57-0.301-1.16c-0.319-0.469-0.247-0.618-0.09-0.809c0.04-0.048,0.081-0.098,0.114-0.162 c0.08-0.154,0.032-0.294-0.041-0.506c-0.048-0.141-0.108-0.315-0.142-0.538c-0.031-0.215-0.093-0.37-0.143-0.494 c-0.079-0.197-0.137-0.34,0.003-0.527c0.154-0.209-0.07-1.042-0.171-1.346c-0.008-0.026,0.006-0.055,0.032-0.063 c0.027-0.004,0.056,0.006,0.063,0.032c0.038,0.116,0.369,1.148,0.155,1.436c-0.105,0.144-0.064,0.246,0.01,0.432 c0.052,0.129,0.116,0.29,0.149,0.517c0.031,0.213,0.088,0.376,0.137,0.521c0.075,0.219,0.135,0.392,0.034,0.585 c-0.037,0.072-0.084,0.129-0.125,0.179c-0.123,0.149-0.205,0.248,0.095,0.688c0.429,0.626,0.321,1.212,0.316,1.236 C32.992,35.472,32.971,35.488,32.947,35.488z"/><path fill="#263238" d="M33.998,35.033c-0.007,0-0.014-0.001-0.021-0.004c-0.02-0.009-0.03-0.028-0.029-0.048 c-0.005-0.02-0.045-0.138-0.411-0.619c-0.308-0.406-0.243-0.512-0.091-0.679c0.065-0.072,0.141-0.154,0.192-0.3 c0.098-0.275-0.035-0.401-0.235-0.59c-0.104-0.099-0.223-0.209-0.329-0.362c-0.345-0.49-0.335-1.062-0.211-1.435 c0.128-0.382-0.29-1.146-0.295-1.154c-0.013-0.024-0.004-0.055,0.02-0.068c0.025-0.013,0.054-0.005,0.068,0.02 c0.018,0.033,0.443,0.812,0.303,1.234c-0.117,0.349-0.126,0.886,0.197,1.347c0.101,0.144,0.215,0.251,0.315,0.346 c0.204,0.192,0.381,0.359,0.261,0.696c-0.058,0.164-0.144,0.258-0.212,0.334c-0.121,0.132-0.176,0.192,0.097,0.551 c0.466,0.613,0.438,0.678,0.427,0.702C34.035,35.022,34.018,35.033,33.998,35.033z M33.998,34.983L33.998,34.983L33.998,34.983z"/><path fill="#e53935" d="M30.383,29.543c0,0-0.19-2.244,1.25-2.217c1.441,0.026,1.223,2.165,1.223,2.165l-1.237,0.315 L30.383,29.543z"/><path fill="#263238" d="M31.62,29.855c-0.004,0-0.007,0-0.011-0.001l-1.237-0.263c-0.021-0.005-0.037-0.022-0.039-0.045 c-0.005-0.053-0.104-1.316,0.478-1.938c0.207-0.222,0.476-0.333,0.798-0.333c0.009,0,0.018,0,0.026,0 c0.345,0.006,0.626,0.13,0.838,0.368c0.552,0.623,0.438,1.801,0.434,1.851c-0.002,0.021-0.018,0.038-0.037,0.044l-1.236,0.315 C31.629,29.855,31.624,29.855,31.62,29.855z M30.431,29.502l1.188,0.252l1.19-0.304c0.014-0.198,0.06-1.207-0.412-1.739 c-0.192-0.217-0.449-0.329-0.765-0.335c-0.008,0-0.016,0-0.023,0c-0.295,0-0.539,0.102-0.726,0.301 C30.386,28.21,30.418,29.289,30.431,29.502z"/><path fill="#e53935" d="M31.606,30.029c0,0-0.748,0.013-1.169-0.197s-0.231-0.512,0.095-0.407 c0.326,0.105,1.414,0.249,2.229,0.013c0.313-0.131,0.353,0.276,0.136,0.38C32.68,29.924,31.932,30.081,31.606,30.029z"/><path fill="#263238" d="M31.763,30.089c-0.059,0-0.113-0.003-0.16-0.011c-0.072-0.001-0.774,0.006-1.188-0.201 c-0.254-0.126-0.299-0.282-0.257-0.386c0.042-0.105,0.187-0.179,0.39-0.114c0.312,0.102,1.389,0.248,2.2,0.014 c0.165-0.071,0.271-0.002,0.313,0.091c0.055,0.122,0.01,0.309-0.143,0.382C32.736,29.952,32.145,30.089,31.763,30.089z M31.606,29.979c0.003,0,0.005,0,0.008,0c0.31,0.049,1.04-0.098,1.262-0.205c0.096-0.046,0.13-0.173,0.095-0.251 c-0.038-0.087-0.136-0.06-0.189-0.038c-0.838,0.244-1.942,0.093-2.265-0.012c-0.14-0.046-0.241-0.004-0.266,0.057 c-0.026,0.063,0.028,0.168,0.209,0.258C30.864,29.989,31.598,29.98,31.606,29.979L31.606,29.979z"/><path fill="#ef9a9a" d="M28.738,22.301c0,0-0.584,0.485-0.489,1.141c0.095,0.656-0.041,1.05-0.353,1.246 c-0.313,0.197-0.652,0.827-0.163,1.181c0.489,0.354,0.693,0.958,0.72,1.338c0.027,0.38,0.19,0.617,0.625,0.472 c0.449,0.276,0.503-0.538,0.53-0.669c0.027-0.131,0.381-0.079,0.707-0.499c0.326-0.42-0.054-0.879,0.095-1.155 c0.15-0.276-0.245-0.538-0.19-0.813c0.054-0.276-0.299-0.472-0.272-0.695c0.027-0.223-0.557-0.485-0.476-0.735 C29.554,22.865,28.738,22.301,28.738,22.301z"/><path fill="#263238" d="M29.248,27.787c-0.055,0-0.114-0.018-0.176-0.053c-0.188,0.059-0.342,0.049-0.452-0.025 c-0.126-0.084-0.199-0.251-0.217-0.497c-0.03-0.418-0.258-0.982-0.7-1.303c-0.181-0.13-0.273-0.311-0.267-0.521 c0.01-0.311,0.23-0.614,0.433-0.741c0.311-0.195,0.419-0.587,0.33-1.197c-0.098-0.676,0.482-1.166,0.507-1.187 c0.018-0.015,0.041-0.017,0.061-0.003c0.142,0.098,0.842,0.6,0.754,0.87c-0.034,0.103,0.101,0.229,0.23,0.351 c0.135,0.126,0.263,0.245,0.247,0.374c-0.011,0.085,0.053,0.174,0.12,0.269c0.086,0.123,0.185,0.262,0.15,0.431 c-0.021,0.107,0.04,0.218,0.105,0.336c0.082,0.148,0.175,0.317,0.08,0.491c-0.054,0.099-0.026,0.233,0.004,0.388 c0.046,0.228,0.103,0.511-0.104,0.774c-0.208,0.268-0.425,0.351-0.568,0.406c-0.066,0.025-0.124,0.048-0.129,0.071 c-0.003,0.015-0.006,0.038-0.011,0.067c-0.026,0.188-0.083,0.577-0.295,0.676C29.319,27.779,29.284,27.787,29.248,27.787z M29.078,27.63c0.009,0,0.019,0.002,0.026,0.007c0.082,0.05,0.147,0.061,0.205,0.036c0.162-0.075,0.216-0.442,0.238-0.6 c0.005-0.031,0.009-0.057,0.012-0.072c0.017-0.078,0.093-0.107,0.19-0.146c0.134-0.051,0.335-0.128,0.526-0.373 c0.177-0.229,0.13-0.465,0.084-0.694c-0.033-0.166-0.064-0.324,0.006-0.454c0.068-0.127,0-0.252-0.08-0.396 c-0.07-0.128-0.144-0.26-0.115-0.403c0.025-0.127-0.053-0.236-0.135-0.354c-0.075-0.105-0.152-0.216-0.138-0.338 c0.01-0.079-0.104-0.186-0.216-0.29c-0.153-0.143-0.312-0.291-0.258-0.454c0.047-0.143-0.361-0.506-0.683-0.734 c-0.112,0.106-0.521,0.532-0.443,1.071c0.094,0.653-0.029,1.077-0.377,1.295c-0.183,0.116-0.377,0.395-0.385,0.66 c-0.006,0.179,0.069,0.326,0.225,0.438c0.468,0.339,0.71,0.935,0.741,1.375c0.016,0.214,0.073,0.355,0.173,0.422 c0.09,0.061,0.22,0.062,0.387,0.006C29.067,27.631,29.073,27.63,29.078,27.63z"/><path fill="#ffcdd2" d="M28.983,22.944c0,0-0.095,0.433-0.299,0.59s0.421,0.971,0.122,1.469 c-0.299,0.499-0.122,0.945,0.027,1.273s0.326,1.115,0.217,1.351c0.408-0.551,0.299-1.194,0.177-1.614 c-0.122-0.42-0.231-0.617-0.068-1.036c0.163-0.42,0.204-0.538,0-0.971c-0.204-0.433-0.095-0.459-0.054-0.63 S28.983,22.944,28.983,22.944z"/><path fill="#263238" d="M29.051,27.678c-0.009,0-0.018-0.002-0.025-0.007c-0.022-0.013-0.03-0.041-0.021-0.063 c0.098-0.211-0.067-0.982-0.218-1.311c-0.123-0.271-0.352-0.773-0.023-1.318c0.16-0.268,0.031-0.644-0.072-0.946 c-0.085-0.251-0.153-0.449-0.038-0.537c0.187-0.145,0.28-0.559,0.281-0.562c0.005-0.02,0.021-0.035,0.04-0.038 c0.02-0.007,0.041,0.005,0.051,0.022c0.008,0.012,0.174,0.282,0.129,0.472c-0.01,0.038-0.021,0.069-0.033,0.099 c-0.038,0.098-0.068,0.175,0.083,0.498c0.208,0.441,0.172,0.573,0.002,1.011c-0.134,0.344-0.076,0.529,0.019,0.836 c0.017,0.053,0.033,0.107,0.051,0.168c0.198,0.68,0.138,1.223-0.185,1.657C29.081,27.671,29.066,27.678,29.051,27.678z M28.998,23.079c-0.046,0.146-0.138,0.382-0.284,0.495c-0.058,0.045,0.009,0.238,0.072,0.426c0.11,0.322,0.247,0.723,0.063,1.029 c-0.278,0.462-0.131,0.875,0.029,1.227c0.113,0.247,0.254,0.788,0.256,1.142c0.189-0.372,0.204-0.823,0.045-1.37 c-0.018-0.059-0.034-0.114-0.051-0.166c-0.098-0.316-0.162-0.525-0.017-0.902c0.157-0.402,0.2-0.511,0.002-0.931 c-0.17-0.363-0.132-0.463-0.086-0.577c0.01-0.026,0.021-0.053,0.028-0.086C29.076,23.284,29.038,23.169,28.998,23.079z"/><path fill="#263238" d="M27.379,23.741c-0.024,0-0.045-0.017-0.049-0.042c-0.035-0.204-0.14-0.538-0.272-0.562 c-0.022-0.004-0.039-0.021-0.041-0.044c-0.025-0.278-0.347-0.554-0.35-0.557c-0.021-0.018-0.023-0.05-0.006-0.07 c0.019-0.022,0.048-0.023,0.07-0.006c0.014,0.012,0.332,0.284,0.381,0.59c0.218,0.088,0.306,0.575,0.315,0.634 c0.005,0.026-0.014,0.053-0.041,0.057C27.385,23.741,27.382,23.741,27.379,23.741z"/><path fill="#263238" d="M26.469,24.371c-0.022,0-0.043-0.015-0.049-0.037c-0.007-0.027,0.01-0.055,0.036-0.062 c0.24-0.061,0.476-0.322,0.479-0.325c0.018-0.021,0.049-0.023,0.07-0.004c0.021,0.019,0.022,0.05,0.004,0.07 c-0.01,0.012-0.258,0.288-0.527,0.356C26.477,24.371,26.473,24.371,26.469,24.371z"/><path fill="#263238" d="M26.306,25.749c-0.003,0-0.007,0-0.01-0.001c-0.027-0.006-0.045-0.032-0.039-0.059 c0.016-0.079,0.099-0.105,0.195-0.137c0.135-0.043,0.302-0.098,0.362-0.301c0.115-0.389,0.389-0.476,0.4-0.479 c0.027-0.005,0.055,0.007,0.062,0.033s-0.007,0.055-0.033,0.062l0,0c-0.01,0.003-0.234,0.077-0.334,0.412 c-0.075,0.254-0.287,0.322-0.428,0.368c-0.055,0.018-0.123,0.04-0.128,0.061C26.35,25.733,26.329,25.749,26.306,25.749z"/><path fill="#263238" d="M27.515,23.886c-0.01,0-0.021-0.003-0.029-0.009c-0.022-0.016-0.027-0.047-0.012-0.07 c0.025-0.034,0.242-0.336,0.426-0.336c0.005,0,0.01,0.001,0.014,0.001c0.027,0.002,0.048,0.026,0.046,0.054 c-0.002,0.028-0.025,0.043-0.054,0.046c-0.002,0-0.005,0-0.007,0c-0.099,0-0.262,0.178-0.343,0.294 C27.546,23.879,27.53,23.886,27.515,23.886z"/><path fill="#263238" d="M26.373,23.847c-0.008,0-0.017-0.002-0.024-0.006c-0.023-0.014-0.032-0.044-0.02-0.068 c0.132-0.238,0.478-0.347,0.492-0.352c0.028-0.006,0.055,0.007,0.062,0.033s-0.007,0.055-0.033,0.062 c-0.003,0.001-0.322,0.102-0.434,0.305C26.408,23.838,26.391,23.847,26.373,23.847z"/><path fill="#8d6e63" d="M34.882,27.549c0,0-0.625,0.472-0.788,0.682c-0.163,0.21-0.027,0.59,0.285,0.394 c0.054,0.394,0.353,0.223,0.353,0.223s0.177,0.328,0.394,0.039c0.217,0.367,0.421-0.026,0.421-0.026s0.462,0.171,0.381-0.223 c0.367,0.144,0.353-0.289,0.245-0.38c-0.109-0.092-0.788-0.8-0.788-0.8L34.882,27.549z"/><path fill="#263238" d="M35.323,29.094c-0.072,0-0.141-0.042-0.202-0.124c-0.062,0.062-0.127,0.088-0.193,0.086 c-0.102-0.008-0.178-0.093-0.214-0.145c-0.053,0.02-0.142,0.042-0.226,0c-0.071-0.035-0.12-0.105-0.146-0.21 c-0.113,0.048-0.219,0.036-0.293-0.046c-0.102-0.112-0.1-0.32,0.005-0.454c0.165-0.213,0.771-0.673,0.797-0.692 c0.007-0.005,0.014-0.008,0.021-0.009l0.503-0.092c0.016-0.008,0.032,0.001,0.045,0.015c0.007,0.007,0.679,0.708,0.784,0.797 c0.082,0.069,0.119,0.27,0.044,0.395c-0.03,0.053-0.104,0.131-0.261,0.094c0.003,0.082-0.021,0.144-0.069,0.186 c-0.1,0.085-0.27,0.05-0.349,0.027c-0.038,0.061-0.124,0.17-0.241,0.173C35.327,29.094,35.325,29.094,35.323,29.094z M35.126,28.837c0.023,0.001,0.034,0.01,0.043,0.024c0.036,0.061,0.092,0.133,0.155,0.133c0,0,0.001,0,0.002,0 c0.08-0.002,0.155-0.113,0.178-0.156c0.012-0.021,0.038-0.031,0.062-0.023c0.054,0.019,0.222,0.062,0.289,0.003 c0.034-0.029,0.042-0.086,0.025-0.17c-0.004-0.018,0.003-0.036,0.017-0.048c0.013-0.013,0.032-0.016,0.051-0.009 c0.106,0.043,0.181,0.034,0.217-0.027c0.05-0.083,0.021-0.229-0.023-0.268c-0.101-0.085-0.661-0.668-0.773-0.785l-0.465,0.085 c-0.078,0.06-0.623,0.478-0.77,0.666c-0.082,0.107-0.071,0.258-0.009,0.327c0.052,0.056,0.131,0.054,0.229-0.006 c0.014-0.01,0.032-0.012,0.048-0.003c0.015,0.007,0.025,0.021,0.028,0.038c0.015,0.108,0.05,0.177,0.104,0.203 c0.076,0.04,0.175-0.016,0.176-0.018c0.011-0.006,0.025-0.006,0.038-0.004c0.013,0.004,0.023,0.013,0.03,0.024 c0.019,0.034,0.084,0.126,0.159,0.131c0.002,0.001,0.004,0.001,0.007,0.001c0.046,0,0.095-0.033,0.144-0.1 C35.096,28.844,35.11,28.837,35.126,28.837z"/><path fill="#8d6e63" d="M34.855,23.6c0,0,0.014-0.63-0.652-0.63c-0.666,0-0.829,0.813-0.788,1.719 c0.041,0.905,0.163,3.556-0.054,3.91c0.027-0.538-0.177-3.359-0.177-3.884s-0.19-1.85,0.979-2.007c0,0,0.924-0.157,0.979,0.945 S34.855,23.6,34.855,23.6z"/><path fill="#ffd600" d="M33.359,28.648c-0.005,0-0.01-0.001-0.015-0.002c-0.022-0.007-0.036-0.027-0.035-0.051 c0.016-0.31-0.047-1.393-0.102-2.348c-0.04-0.704-0.075-1.312-0.075-1.533c0-0.058-0.003-0.124-0.005-0.198 c-0.021-0.598-0.059-1.712,1.026-1.858c0.014-0.003,0.391-0.063,0.689,0.177c0.212,0.17,0.328,0.443,0.346,0.815 c0.021,0.428-0.013,0.516-0.084,0.527c-0.03,0.008-0.125,0.026-0.299-0.564c-0.002-0.005-0.002-0.01-0.002-0.015 c0-0.003,0.002-0.252-0.163-0.421c-0.104-0.104-0.251-0.158-0.439-0.158c-0.175,0-0.314,0.058-0.428,0.177 c-0.236,0.247-0.344,0.762-0.311,1.49l0.001,0.022c0.069,1.524,0.138,3.589-0.062,3.916C33.393,28.64,33.376,28.648,33.359,28.648 z M34.277,22.75c-0.064,0-0.106,0.007-0.107,0.007c-0.998,0.135-0.963,1.15-0.942,1.757c0.003,0.075,0.005,0.143,0.005,0.201 c0,0.219,0.037,0.854,0.075,1.527c0.039,0.67,0.081,1.402,0.098,1.89c0.075-0.877-0.009-2.72-0.04-3.418l-0.001-0.023 c-0.035-0.767,0.079-1.292,0.338-1.563c0.132-0.138,0.3-0.207,0.5-0.207c0.217,0,0.389,0.063,0.512,0.188 c0.179,0.183,0.19,0.435,0.19,0.484c0.055,0.183,0.132,0.389,0.179,0.462c0.01-0.046,0.019-0.152,0.007-0.399 c-0.017-0.342-0.12-0.591-0.308-0.741C34.609,22.774,34.401,22.75,34.277,22.75z"/><g><path fill="#8d6e63" d="M35.48,23.6c0,0-0.014-0.63,0.652-0.63c0.666,0,0.829,0.813,0.788,1.719 c-0.041,0.905-0.163,3.556,0.054,3.91c-0.027-0.538,0.177-3.359,0.177-3.884s0.19-1.85-0.979-2.007c0,0-0.924-0.157-0.979,0.945 S35.48,23.6,35.48,23.6z"/><path fill="#ffd600" d="M36.975,28.648c-0.017,0-0.033-0.009-0.043-0.023c-0.199-0.327-0.131-2.392-0.062-3.916 l0.001-0.022c0.032-0.729-0.076-1.244-0.312-1.491c-0.113-0.118-0.254-0.176-0.428-0.176c-0.188,0-0.336,0.054-0.439,0.158 c-0.165,0.169-0.163,0.418-0.163,0.421c0,0.005,0,0.01-0.002,0.015c-0.174,0.591-0.27,0.571-0.299,0.564 c-0.071-0.012-0.105-0.1-0.084-0.528c0.019-0.371,0.135-0.646,0.347-0.814c0.298-0.24,0.673-0.178,0.69-0.176 c1.083,0.146,1.045,1.26,1.024,1.857c-0.002,0.074-0.005,0.141-0.005,0.198c0,0.222-0.035,0.829-0.075,1.533 c-0.055,0.955-0.117,2.038-0.102,2.348c0.001,0.023-0.014,0.044-0.035,0.051C36.984,28.647,36.979,28.648,36.975,28.648z M36.132,22.92c0.2,0,0.368,0.069,0.5,0.207c0.259,0.271,0.373,0.797,0.339,1.563l-0.001,0.023 c-0.031,0.697-0.115,2.535-0.04,3.414c0.016-0.488,0.058-1.218,0.097-1.886c0.038-0.673,0.075-1.309,0.075-1.527 c0-0.059,0.002-0.126,0.005-0.201c0.021-0.606,0.056-1.622-0.94-1.756c-0.006-0.003-0.351-0.057-0.613,0.155 c-0.188,0.151-0.292,0.4-0.309,0.742c-0.012,0.247-0.003,0.354,0.007,0.399c0.047-0.073,0.124-0.279,0.179-0.462 c0-0.05,0.012-0.302,0.19-0.484C35.743,22.983,35.915,22.92,36.132,22.92z"/></g><g><path fill="#263238" d="M34.732,28.897c-0.004,0-0.007,0-0.011-0.001c-0.027-0.006-0.044-0.033-0.038-0.06l0.244-1.089 c0.006-0.027,0.034-0.042,0.06-0.038c0.027,0.006,0.044,0.033,0.038,0.06l-0.244,1.089C34.776,28.882,34.755,28.897,34.732,28.897 z"/></g><g><path fill="#263238" d="M35.548,28.911c-0.023,0-0.044-0.016-0.049-0.04l-0.231-1.129 c-0.006-0.026,0.012-0.053,0.039-0.059c0.024-0.009,0.053,0.012,0.059,0.039l0.231,1.129c0.006,0.026-0.012,0.053-0.039,0.059 C35.555,28.911,35.551,28.911,35.548,28.911z"/></g><g><path fill="#8d6e63" d="M35.14,23.56c0,0-0.666-0.131-0.911,0.866c-0.245,0.997,0.285,2.676,0.408,3.031 c0.122,0.354,0.829,0.328,0.951,0.066c0.122-0.262,0.748-2.414,0.489-3.149C35.82,23.639,35.521,23.6,35.14,23.56z"/><path fill="#263238" d="M35.13,27.771c-0.015,0-0.029-0.001-0.043-0.001c-0.252-0.014-0.438-0.124-0.497-0.297 c-0.069-0.201-0.67-1.997-0.409-3.059c0.244-0.995,0.909-0.908,0.966-0.904c0.379,0.039,0.707,0.073,0.979,0.847 c0.266,0.756-0.367,2.922-0.491,3.187C35.56,27.703,35.329,27.771,35.13,27.771z M35.059,23.604c-0.171,0-0.596,0.079-0.78,0.834 c-0.255,1.034,0.337,2.804,0.405,3.002c0.055,0.157,0.247,0.222,0.408,0.229c0.014,0.001,0.027,0.002,0.041,0.002 c0.191,0,0.364-0.07,0.411-0.171c0.116-0.249,0.738-2.394,0.487-3.11c-0.252-0.714-0.536-0.743-0.896-0.78 c-0.002,0-0.003,0-0.005-0.001C35.125,23.608,35.1,23.604,35.059,23.604z"/></g><g><path fill="#263238" d="M35.076,24.349c-0.235,0-0.481-0.042-0.695-0.168c-0.023-0.014-0.031-0.045-0.018-0.068 c0.013-0.023,0.044-0.032,0.068-0.018c0.597,0.351,1.509-0.012,1.519-0.016c0.024-0.015,0.054,0.002,0.064,0.027 s-0.002,0.055-0.027,0.064C35.962,24.182,35.542,24.349,35.076,24.349z"/></g><g><path fill="#263238" d="M35.14,25.037c-0.491,0-0.894-0.084-0.921-0.09c-0.026-0.006-0.044-0.032-0.038-0.06 s0.033-0.045,0.06-0.038c0.012,0.002,1.095,0.229,1.874-0.063c0.025-0.01,0.054,0.003,0.064,0.029 c0.01,0.025-0.003,0.055-0.029,0.064C35.828,25.001,35.464,25.037,35.14,25.037z"/></g><g><path fill="#263238" d="M35.19,25.896c-0.507,0-0.973-0.141-1.003-0.149c-0.026-0.008-0.041-0.036-0.033-0.062 c0.009-0.026,0.036-0.039,0.062-0.033c0.011,0.003,1.14,0.343,1.768-0.035c0.021-0.015,0.054-0.007,0.068,0.018 c0.014,0.023,0.007,0.054-0.018,0.068C35.792,25.849,35.484,25.896,35.19,25.896z"/></g><g><path fill="#263238" d="M35.149,26.633c-0.406,0-0.749-0.105-0.771-0.112c-0.026-0.009-0.041-0.036-0.033-0.062 c0.009-0.026,0.038-0.037,0.062-0.033c0.009,0.003,0.868,0.266,1.457-0.048c0.021-0.013,0.055-0.004,0.067,0.021 s0.004,0.055-0.021,0.067C35.674,26.593,35.399,26.633,35.149,26.633z"/></g><g><path fill="#263238" d="M35.129,27.206c-0.24,0-0.434-0.04-0.523-0.059c-0.019-0.004-0.032-0.007-0.038-0.008 c-0.026-0.003-0.048-0.025-0.047-0.052c0.002-0.027,0.022-0.048,0.049-0.048c0.011,0,0.021,0.002,0.057,0.009 c0.155,0.033,0.63,0.132,1.108-0.045c0.025-0.011,0.054,0.004,0.064,0.029c0.01,0.026-0.004,0.055-0.029,0.064 C35.545,27.181,35.321,27.206,35.129,27.206z"/></g><g><path fill="#fff" d="M16,8.594V5.675c-1.432,0.626-2.767,1.424-4,2.352V8.31l-0.206-0.128 c-3.105,2.399-5.483,5.683-6.753,9.483L12,13.32V18h4v-4.965L23.949,18H25v-2.609L21.171,13H25V9h-4.421L25,6.238V4.05 C24.667,4.034,24.338,4,24,4c-0.235,0-0.464,0.027-0.697,0.035L16,8.594z"/></g><g><path fill="#e53935" d="M13,12v6h2v-6h10v-2H15V6.157c-0.689,0.348-1.36,0.725-2,1.148V10H9.729 c-0.613,0.625-1.174,1.299-1.701,2H13z"/></g><g><path fill="#e53935" d="M11.641,13H9.898l-3.972,2.479c-0.229,0.484-0.437,0.977-0.627,1.481L11.641,13z"/></g><g><path fill="#e53935" d="M24.213,4.011L16.223,9h1.746L25,4.609V4.05C24.738,4.037,24.478,4.014,24.213,4.011z"/></g><g><polygon fill="#e53935" points="25,15.934 20.301,13 18.559,13 25,17.02"/></g></svg>