<svg xmlns="http://www.w3.org/2000/svg"  viewBox="0 0 48 48" width="30px" height="30px"><circle cx="24" cy="24" r="20" fill="#039be5"/><polygon fill="#e53935" points="14.677,16.318 10.089,15 14.677,13.682 15.994,9.094 17.312,13.682 21.899,15 17.312,16.318 15.994,20.906"/><path fill="#fff" d="M15.995,10l1.116,3.884L20.995,15l-3.884,1.116L15.995,20l-1.116-3.884L10.995,15l3.884-1.116 L15.995,10 M15.995,8.189l-0.481,1.673l-1.039,3.618l-3.618,1.039L9.184,15l1.673,0.481l3.618,1.039l1.039,3.618l0.481,1.673 l0.481-1.673l1.039-3.618l3.618-1.039L22.805,15l-1.673-0.481l-3.618-1.039l-1.039-3.618L15.995,8.189L15.995,8.189z"/><g><path fill="#fdd835" d="M8.013,36c0.53,0.705,1.107,1.372,1.723,2h28.527c0.617-0.628,1.193-1.295,1.723-2H8.013z"/><path fill="#fdd835" d="M6.692,34h34.616c0.373-0.644,0.706-1.313,1.007-2H5.685C5.986,32.687,6.319,33.356,6.692,34z"/></g></svg>