<svg xmlns="http://www.w3.org/2000/svg"  viewBox="0 0 48 48" width="100px" height="100px"><path fill="#fbc02d" d="M5.675,16C4.604,18.451,4,21.154,4,24s0.604,5.549,1.675,8h36.649C43.396,29.549,44,26.846,44,24 s-0.604-5.549-1.675-8H5.675z"/><path fill="#d50000" d="M24,4C15.801,4,8.763,8.939,5.675,16h36.649C39.237,8.939,32.199,4,24,4z"/><path fill="#388e3c" d="M24,44c8.199,0,15.237-4.939,18.325-12H5.675C8.763,39.061,15.801,44,24,44z"/><polygon fill="#212121" points="27.2,25.92 32.32,22.08 25.92,22.08 24,16 22.08,22.08 15.68,22.08 20.8,25.92 18.88,32 24,28.32 29.12,32"/></svg>