<svg xmlns="http://www.w3.org/2000/svg"  viewBox="0 0 48 48" width="100px" height="100px"><path fill="#eceff1" d="M24,4C12.954,4,4,12.954,4,24h20V4z"/><path fill="#eceff1" d="M24,44c11.046,0,20-8.954,20-20H24V44z"/><path fill="#01579b" d="M4,24c0,11.046,8.954,20,20,20V24H4z"/><path fill="#d32f2f" d="M24,4v20h20C44,12.954,35.046,4,24,4z"/><path fill="#01579b" d="M19,14.031h-3.055L15,11.129l-0.945,2.902H11l2.473,1.797l-0.945,2.906L15,16.941l2.473,1.793	l-0.945-2.906L19,14.031z"/><path fill="#d32f2f" d="M34.527,32.828L37,31.031h-3.055L33,28.125l-0.945,2.906H29l2.473,1.797l-0.945,2.906L33,33.938	l2.473,1.797L34.527,32.828z"/></svg>