<svg xmlns="http://www.w3.org/2000/svg"  viewBox="0 0 48 48" width="50px" height="50px"><circle cx="24" cy="24" r="20" fill="#ff3d00"/><path fill="#ffeb3b" d="M20.879,20.336c-0.777-0.645-0.738-2.102-1.582-2.809c1.066,0.105,1.309,1.797,2.184,2.371	c0.02,0.012,0.031,0.023,0.043,0.031c-0.215,0.129-0.41,0.277-0.598,0.438C20.906,20.359,20.895,20.348,20.879,20.336z M21.527,19.93c0.211-0.129,0.422-0.25,0.652-0.344c-0.008-0.012-0.016-0.02-0.027-0.031c-0.777-0.703-0.75-2.41-1.785-2.684	c0.723,0.828,0.453,2.262,1.121,3.023C21.5,19.906,21.516,19.918,21.527,19.93z M22.187,19.582c0.227-0.094,0.469-0.16,0.711-0.219	c-0.008-0.016-0.012-0.027-0.027-0.043c-0.656-0.816-0.363-2.5-1.344-2.93c0.582,0.934,0.094,2.305,0.633,3.16	C22.172,19.563,22.18,19.57,22.187,19.582z M22.879,19.316c0.008,0.02,0.016,0.031,0.023,0.043c0.242-0.055,0.488-0.082,0.742-0.098	c-0.008-0.02-0.016-0.039-0.027-0.063c-0.523-0.906,0.031-2.523-0.871-3.102C23.18,17.109,22.48,18.391,22.879,19.316z M19.578,22.156c0.098-0.23,0.227-0.445,0.355-0.66c-0.012-0.004-0.023-0.008-0.043-0.008c-1.039-0.109-2.023-1.512-3.02-1.121	c1.07,0.246,1.699,1.563,2.684,1.785C19.562,22.156,19.57,22.156,19.578,22.156z M23.629,19.199c0.004,0.023,0.012,0.039,0.02,0.059	c0.117-0.008,0.23-0.035,0.352-0.035c0.137,0,0.262,0.031,0.391,0.039c-0.004-0.02-0.008-0.039-0.016-0.063	C24,18.223,24.801,16.711,24,16C24.266,17.066,23.379,18.223,23.629,19.199z M20.344,20.871c0.016,0.008,0.031,0.016,0.047,0.02	c0.164-0.188,0.34-0.359,0.531-0.52c-0.02-0.012-0.031-0.02-0.051-0.027c-0.957-0.43-1.461-2.063-2.527-2	C19.285,18.91,19.473,20.355,20.344,20.871z M19.355,22.871c0.059-0.242,0.125-0.484,0.219-0.707c-0.008,0-0.016-0.004-0.023-0.004	c-1.043,0.055-2.234-1.172-3.16-0.633c1.098,0.078,1.922,1.281,2.93,1.344C19.332,22.871,19.344,22.871,19.355,22.871z M19.898,21.48c0.012,0.008,0.027,0.008,0.039,0.012c0.133-0.211,0.285-0.406,0.449-0.598c-0.016-0.004-0.031-0.012-0.051-0.016	c-1.012-0.273-1.762-1.809-2.809-1.582C18.547,19.711,18.961,21.105,19.898,21.48z M27.633,20.922	c0.164,0.188,0.313,0.383,0.441,0.594c0.012-0.012,0.02-0.02,0.027-0.035c0.574-0.875,2.266-1.117,2.371-2.184	c-0.707,0.844-2.164,0.805-2.809,1.582C27.652,20.891,27.645,20.906,27.633,20.922z M25.125,19.371c0-0.02,0-0.031-0.004-0.055	c-0.219-1.023,0.809-2.391,0.133-3.219c0.094,1.098-0.965,2.098-0.871,3.102c0.004,0.023,0.008,0.043,0.012,0.066	C24.645,19.285,24.887,19.313,25.125,19.371z M28.43,22.176c0.094,0.23,0.164,0.469,0.223,0.715c0.008-0.008,0.02-0.012,0.027-0.02	c0.816-0.656,2.5-0.363,2.93-1.344c-0.934,0.582-2.309,0.094-3.16,0.633C28.441,22.168,28.437,22.172,28.43,22.176z M28.684,22.879	c-0.012,0.008-0.02,0.012-0.031,0.02c0.059,0.238,0.086,0.484,0.109,0.738c0.012-0.008,0.023-0.012,0.039-0.02	c0.906-0.52,2.523,0.031,3.102-0.867C30.891,23.18,29.609,22.48,28.684,22.879z M28.801,24.371C29.777,24,31.289,24.801,32,24	c-1.066,0.266-2.223-0.621-3.199-0.371c-0.016,0.004-0.027,0.008-0.039,0.012c0.008,0.129,0.039,0.254,0.039,0.383	c0,0.125-0.027,0.238-0.035,0.359C28.777,24.379,28.785,24.379,28.801,24.371z M28.078,21.52c0.129,0.211,0.254,0.422,0.348,0.652	c0.008-0.008,0.012-0.012,0.02-0.02c0.703-0.773,2.41-0.75,2.684-1.785c-0.828,0.723-2.266,0.453-3.023,1.121	C28.094,21.5,28.09,21.508,28.078,21.52z M25.844,19.594c0.23,0.094,0.445,0.219,0.656,0.352c0.004-0.02,0.012-0.031,0.012-0.051	c0.109-1.043,1.512-2.027,1.121-3.023c-0.246,1.07-1.563,1.699-1.785,2.684C25.844,19.566,25.844,19.578,25.844,19.594z M25.129,19.371c0.242,0.059,0.48,0.125,0.707,0.219c0-0.012,0.004-0.023,0.004-0.039c-0.055-1.043,1.172-2.234,0.633-3.16	c-0.078,1.098-1.277,1.922-1.344,2.93C25.129,19.34,25.129,19.355,25.129,19.371z M26.52,19.898	c-0.008,0.016-0.012,0.031-0.016,0.047c0.215,0.133,0.41,0.281,0.598,0.445c0.008-0.02,0.016-0.031,0.02-0.055	c0.273-1.012,1.809-1.762,1.582-2.809C28.289,18.547,26.895,18.961,26.52,19.898z M27.129,20.344	c-0.008,0.016-0.016,0.031-0.023,0.051c0.191,0.16,0.363,0.332,0.527,0.523c0.008-0.016,0.016-0.027,0.023-0.047	c0.43-0.957,2.063-1.461,2-2.527C29.09,19.285,27.645,19.473,27.129,20.344z M19.242,23.609c0.023-0.25,0.055-0.496,0.113-0.73	c-0.012,0-0.023,0-0.039,0.004c-1.023,0.215-2.391-0.813-3.219-0.133c1.098-0.098,2.098,0.961,3.102,0.867	C19.215,23.617,19.227,23.613,19.242,23.609z M27.109,27.652c-0.188,0.164-0.387,0.313-0.598,0.445c0.004,0,0.004,0.004,0.008,0.004	c0.875,0.574,1.117,2.266,2.184,2.371c-0.844-0.707-0.805-2.164-1.582-2.809C27.117,27.66,27.113,27.656,27.109,27.652z M26.504,28.102c-0.207,0.129-0.422,0.254-0.652,0.352c0.77,0.703,0.746,2.406,1.781,2.676c-0.723-0.828-0.453-2.266-1.121-3.023	C26.508,28.105,26.508,28.102,26.504,28.102z M25.125,28.676c0.004,0.004,0.004,0.004,0.004,0.004c0.656,0.816,0.363,2.5,1.344,2.93	c-0.582-0.93-0.098-2.301-0.633-3.156C25.613,28.551,25.371,28.617,25.125,28.676z M25.121,28.684	c-0.004-0.004-0.004-0.004-0.004-0.004c-0.238,0.059-0.488,0.086-0.742,0.105c0.004,0.004,0.004,0.008,0.008,0.016	c0.52,0.906-0.031,2.523,0.867,3.102C24.82,30.891,25.52,29.609,25.121,28.684z M27.656,27.129	c-0.004-0.004-0.012-0.004-0.016-0.008c-0.164,0.191-0.336,0.363-0.527,0.527c0.008,0.004,0.008,0.008,0.016,0.008	c0.957,0.43,1.461,2.063,2.527,2C28.715,29.09,28.527,27.645,27.656,27.129z M28.66,25.129c-0.059,0.242-0.129,0.48-0.219,0.711	c0.004,0,0.004,0,0.008,0c1.047-0.055,2.234,1.176,3.16,0.633c-1.098-0.074-1.922-1.277-2.93-1.344	C28.672,25.129,28.668,25.129,28.66,25.129z M24.371,28.801c0-0.004-0.004-0.012-0.004-0.016c-0.125,0.012-0.242,0.039-0.367,0.039	c-0.129,0-0.25-0.027-0.379-0.039c0.004,0.004,0.004,0.008,0.008,0.016C24,29.777,23.199,31.289,24,32	C23.734,30.934,24.621,29.777,24.371,28.801z M28.762,24.391c-0.02,0.246-0.043,0.492-0.102,0.73c0.008,0,0.016,0,0.023-0.004	c1.023-0.215,2.391,0.813,3.219,0.133c-1.094,0.098-2.098-0.961-3.102-0.867C28.785,24.383,28.773,24.387,28.762,24.391z M28.102,26.52c-0.004-0.004-0.012-0.004-0.016-0.004c-0.133,0.211-0.281,0.41-0.441,0.598c0.004,0.004,0.012,0.008,0.02,0.008	c1.008,0.273,1.762,1.809,2.809,1.582C29.453,28.289,29.039,26.895,28.102,26.52z M28.437,25.844	c-0.098,0.234-0.219,0.453-0.348,0.664c0.004,0,0.008,0.004,0.016,0.004c1.043,0.109,2.027,1.508,3.023,1.121	c-1.07-0.25-1.699-1.566-2.684-1.785C28.441,25.848,28.441,25.848,28.437,25.844z M22.871,28.676	c-0.242-0.059-0.48-0.125-0.711-0.223c0.051,1.047-1.172,2.234-0.633,3.156c0.078-1.098,1.281-1.922,1.344-2.93	C22.871,28.68,22.871,28.68,22.871,28.676z M19.559,25.832c-0.094-0.23-0.164-0.469-0.223-0.715	c-0.004,0.004-0.012,0.004-0.016,0.012c-0.816,0.656-2.5,0.363-2.93,1.344c0.934-0.582,2.309-0.094,3.16-0.633	C19.555,25.836,19.555,25.836,19.559,25.832z M20.348,27.105c-0.16-0.191-0.309-0.387-0.438-0.602	c-0.004,0.008-0.008,0.008-0.012,0.016c-0.574,0.875-2.266,1.117-2.371,2.184c0.707-0.844,2.164-0.805,2.809-1.582	C20.34,27.117,20.344,27.109,20.348,27.105z M22.879,28.68c0,0,0,0,0,0.004c0.219,1.023-0.809,2.391-0.133,3.219	c-0.094-1.094,0.965-2.098,0.871-3.102c0-0.004-0.004-0.012-0.004-0.016C23.363,28.766,23.117,28.734,22.879,28.68z M19.316,25.121	c0.008-0.004,0.012-0.008,0.02-0.012c-0.059-0.238-0.082-0.488-0.102-0.742c-0.012,0.004-0.02,0.008-0.035,0.016	c-0.906,0.52-2.523-0.031-3.102,0.867C17.109,24.82,18.391,25.52,19.316,25.121z M19.906,26.496	c-0.129-0.211-0.25-0.426-0.344-0.656c-0.004,0.004-0.008,0.004-0.008,0.008c-0.703,0.773-2.41,0.75-2.684,1.785	c0.828-0.723,2.266-0.457,3.023-1.121C19.898,26.508,19.902,26.504,19.906,26.496z M19.199,24.371c0.016,0,0.023-0.008,0.035-0.012	c-0.008-0.113-0.035-0.223-0.035-0.336c0-0.141,0.031-0.27,0.043-0.41c-0.016,0.004-0.027,0.008-0.043,0.012	C18.223,24,16.711,23.199,16,24C17.066,23.734,18.223,24.621,19.199,24.371z M20.871,27.656c0-0.004,0.004-0.008,0.008-0.016	c-0.191-0.16-0.363-0.34-0.523-0.531c-0.004,0.008-0.008,0.012-0.012,0.02c-0.43,0.957-2.063,1.461-2,2.527	C18.91,28.715,20.355,28.523,20.871,27.656z M21.488,28.098c0,0.004,0,0.004,0,0.008c-0.109,1.043-1.512,2.027-1.121,3.023	c0.246-1.07,1.559-1.695,1.785-2.676C21.918,28.355,21.703,28.23,21.488,28.098z M21.48,28.102c0,0,0-0.004,0.004-0.008	c-0.215-0.129-0.41-0.285-0.602-0.445c0,0.004-0.004,0.008-0.008,0.016c-0.273,1.012-1.809,1.762-1.578,2.809	C19.711,29.453,21.105,29.039,21.48,28.102z M24.395,22.043c0.078,0.055,0.148,0.117,0.223,0.172	c0.094-0.055,0.184-0.117,0.281-0.168c-0.074-0.055-0.148-0.109-0.227-0.164C24.578,21.934,24.484,21.988,24.395,22.043z M24,21.039	c0.727-0.305,1.508-0.504,2.34-0.539c-0.66-0.477-1.465-0.766-2.34-0.766s-1.68,0.289-2.34,0.766	C22.492,20.535,23.273,20.734,24,21.039z M27.062,21.188c-0.68,0.047-1.328,0.219-1.926,0.473c0.078,0.055,0.164,0.102,0.242,0.156	c0.566-0.242,1.172-0.414,1.816-0.469C27.129,21.262,27.035,21.156,27.062,21.188z M26.66,20.766	c-0.773,0.035-1.508,0.207-2.188,0.488c0.094,0.051,0.184,0.102,0.277,0.156c0.656-0.273,1.363-0.438,2.105-0.473	C26.754,20.836,26.617,20.73,26.66,20.766z M27.75,25.078c0.152-0.422,0.25-0.871,0.25-1.344c0-1.371-0.688-2.234-0.637-2.152	c-0.598,0.066-1.16,0.242-1.688,0.484C26.621,22.855,27.355,23.887,27.75,25.078z M23.781,22.461	c0.078,0.055,0.145,0.125,0.219,0.188c0.074-0.063,0.141-0.133,0.219-0.188c-0.074-0.063-0.141-0.133-0.219-0.188	C23.922,22.328,23.855,22.398,23.781,22.461z M24,21.488c-0.102,0.051-0.203,0.094-0.301,0.152c0.102,0.051,0.203,0.098,0.301,0.156	c0.098-0.059,0.199-0.105,0.301-0.156C24.203,21.582,24.102,21.539,24,21.488z M25.656,27.199c0-1.555-0.641-2.949-1.656-3.973	c-1.016,1.023-1.656,2.418-1.656,3.973c0,0.059,0.008,0.113,0.008,0.168c0.504,0.23,1.059,0.367,1.648,0.367	s1.145-0.137,1.648-0.367C25.648,27.313,25.656,27.258,25.656,27.199z M22.77,22.285c-1.07,0.906-1.844,2.156-2.141,3.582	c-0.09-0.137,0.047,0.094,0.316,0.414c0.227-1.52,1-2.855,2.109-3.813C22.961,22.406,22.867,22.34,22.77,22.285z M23.68,22.93	c-0.074-0.066-0.141-0.141-0.219-0.203c-1.129,1.012-1.891,2.465-2.008,4.07c0.113,0.098,0.23,0.195,0.359,0.277	C21.844,25.434,22.566,23.977,23.68,22.93z M24.539,22.727c-0.078,0.063-0.145,0.137-0.219,0.203	c1.113,1.047,1.836,2.504,1.871,4.145c0.125-0.082,0.242-0.176,0.355-0.27C26.426,25.168,25.664,23.734,24.539,22.727z M27.371,25.867c-0.297-1.426-1.07-2.676-2.141-3.582c-0.098,0.055-0.191,0.121-0.285,0.18c1.113,0.961,1.887,2.297,2.109,3.82	C27.324,25.965,27.461,25.73,27.371,25.867z M20.805,21.348c0.645,0.055,1.25,0.227,1.816,0.469c0.078-0.055,0.16-0.102,0.242-0.156	c-0.602-0.254-1.246-0.426-1.926-0.473C20.965,21.156,20.871,21.262,20.805,21.348z M22.324,22.066	c-0.527-0.242-1.09-0.418-1.688-0.484C20.687,21.5,20,22.41,20,23.734c0,0.473,0.098,0.922,0.25,1.344	C20.645,23.887,21.379,22.855,22.324,22.066z M23.102,22.047c0.098,0.051,0.188,0.113,0.281,0.168	c0.074-0.055,0.145-0.117,0.223-0.172c-0.09-0.055-0.184-0.109-0.277-0.16C23.25,21.938,23.176,21.992,23.102,22.047z M23.25,21.41	c0.09-0.055,0.184-0.105,0.277-0.156c-0.68-0.281-1.414-0.453-2.188-0.488c0.043-0.039-0.094,0.07-0.195,0.172	C21.887,20.973,22.598,21.141,23.25,21.41z"/></svg>