<svg xmlns="http://www.w3.org/2000/svg"  viewBox="0 0 48 48" width="30px" height="30px"><circle cx="24" cy="24" r="20" fill="#eceff1"/><path fill="#e53935" d="M4.656,29H19v14.344C20.601,43.757,22.27,44,24,44s3.399-0.243,5-0.656V29h14.344 C43.757,27.399,44,25.73,44,24s-0.243-3.399-0.656-5H29V4.656C27.399,4.243,25.73,4,24,4s-3.399,0.243-5,0.656V19H4.656 C4.243,20.601,4,22.27,4,24S4.243,27.399,4.656,29z"/><polygon fill="#fdd835" points="22.391,11.5 22.391,36.5 21.05,37.636 26.962,37.636 25.611,36.5 25.611,11.5 26.962,10.364 21.05,10.364"/><polygon fill="#fdd835" points="11.506,25.615 36.506,25.615 37.642,26.956 37.642,21.044 36.506,22.395 11.506,22.395 10.37,21.044 10.37,26.956"/></svg>