<svg xmlns="http://www.w3.org/2000/svg"  viewBox="0 0 48 48" width="100px" height="100px"><circle cx="24" cy="24" r="20" fill="#388e3c"/><path fill="#fdd835" d="M26.5,30c-2.485,0-4.5-2.015-4.5-4.5s2.015-4.5,4.5-4.5c0.54,0,1.051,0.111,1.531,0.285 C27.075,20.484,25.845,20,24.5,20c-3.038,0-5.5,2.462-5.5,5.5c0,3.038,2.462,5.5,5.5,5.5c1.345,0,2.575-0.484,3.531-1.285 C27.551,29.889,27.04,30,26.5,30z"/><polygon fill="#fdd835" points="39.292,19.733 39.692,20.655 40.662,20.393 40.191,21.28 41,21.875 40.013,22.059 40.052,23.063 39.292,22.406 38.532,23.063 38.572,22.059 37.584,21.875 38.394,21.28 37.923,20.393 38.892,20.655"/><polygon fill="#fdd835" points="33.913,31.089 34.313,32.011 35.283,31.749 34.812,32.636 35.621,33.231 34.634,33.416 34.673,34.419 33.913,33.763 33.153,34.419 33.193,33.416 32.205,33.231 33.015,32.636 32.544,31.749 33.513,32.011"/><polygon fill="#fdd835" points="29.668,22.38 30.068,23.302 31.038,23.04 30.567,23.927 31.376,24.522 30.389,24.706 30.428,25.71 29.668,25.053 28.908,25.71 28.948,24.706 27.96,24.522 28.77,23.927 28.299,23.04 29.268,23.302"/><polygon fill="#fdd835" points="33.047,15.269 33.447,16.19 34.417,15.928 33.945,16.816 34.755,17.41 33.768,17.595 33.807,18.599 33.047,17.942 32.287,18.599 32.327,17.595 31.339,17.41 32.149,16.816 31.678,15.928 32.647,16.19"/><polygon fill="#fdd835" points="36.36,24.695 36.642,25.445 37.442,25.48 36.815,25.98 37.029,26.752 36.36,26.31 35.692,26.752 35.905,25.98 35.279,25.48 36.079,25.445"/><circle cx="14.5" cy="15.5" r="5.5" fill="#fdd835"/><path fill="#8d6e63" d="M14.774,14.867c0,0,0.455,2.011-1.125,4.668c-0.048,0.215-0.12,0.359-0.12,0.359h1.58v-0.359 l-0.407-0.024c0,0,0.67-1.412,0.455-4.715C14.965,14.628,14.774,14.867,14.774,14.867z"/><path fill="#2e7d32" d="M14.846,14.101l-0.085-0.15l-0.658-1.167l0.263,0.12l0.335-1.436l0.144,0.335l0.431-0.359 c0,0,0.551-0.12,0.766-0.024s-0.766,0.838-0.503,0.79c0.263-0.048,0.527-0.215,0.718-0.144c0.191,0.072-0.024,0.694-0.407,0.718 c-0.383,0.024-1.029,0.407-0.551,0.311c0.479-0.096,0.814,0.144,0.503,0.311s-0.407,0.981-0.144,0.598 c0.263-0.383,0.503-0.862,0.957-0.766c0.455,0.096-0.168,0.239,0.096,0.407s-0.407,0.598,0.168,0.527 c0.574-0.072,1.173,0.287,1.173,0.91s-0.144,0.215-0.598,0.215c-0.455,0-0.814-0.096-1.077-0.096s0.359,0.431,0.622,0.551 c0.263,0.12-0.263,0.359-0.12,0.694c0.144,0.335-0.12,0.622-0.455,0.168c-0.335-0.455-1.173-0.886-1.484-1.556 c0.096,0.742-0.096,1.149-0.144,1.436c-0.048,0.287-0.527,0.814-0.67,0.072c-0.144-0.742,0.096-0.814,0.191-1.197 c0.096-0.383-0.168-0.383-0.335-0.096c-0.168,0.287-0.311,1.149-0.287,1.364s-0.551,1.269-0.646,0.622 c-0.096-0.646,0.191-1.819,0.551-2.346c0.359-0.527-0.718,0.096-1.436,0.191c-0.718,0.096-1.053-0.168-1.508,0.407 s-0.79-0.096-0.12-0.694s1.077-0.479,1.58-0.479c0.503,0,1.197,0.024,0.766-0.263s-1.173-0.551-1.508-0.335 s-0.479-0.239-0.215-0.455s1.508-0.191,1.723,0.072c0.215,0.263,0.574,0.096,0.168-0.12c-0.407-0.215-0.766-0.431-1.173-0.598 c-0.407-0.168,0.12-0.407,0.622-0.335s1.484,1.173,1.747,1.46C14.511,14.053,14.846,14.101,14.846,14.101z"/></svg>