<svg xmlns="http://www.w3.org/2000/svg"  viewBox="0 0 48 48" width="100px" height="100px"><path fill="#283593" d="M44,24c0,11.046-8.954,20-20,20S4,35.046,4,24c0-2.216,0.36-4.348,1.026-6.341 C6.311,13.812,14.489,11,14.489,11s0.04-4.693,1.507-5.334C18.447,4.594,21.154,4,24,4C35.046,4,44,12.954,44,24z"/><path fill="#fff" d="M16,8.594V5.675c-1.432,0.626-2.767,1.424-4,2.352V8.31l-0.206-0.128 c-3.105,2.399-5.483,5.683-6.753,9.483L12,13.32V18h4v-4.965L23.949,18H25v-2.609L21.171,13H25V9h-4.421L25,6.238V4.05 C24.667,4.034,24.338,4,24,4c-0.235,0-0.464,0.027-0.697,0.035L16,8.594z"/><path fill="#e53935" d="M13,12v6h2v-6h10v-2H15V6.157c-0.689,0.348-1.36,0.725-2,1.148V10H9.729 c-0.613,0.625-1.174,1.299-1.701,2H13z"/><path fill="#e53935" d="M11.641,13H9.898l-3.972,2.479c-0.229,0.484-0.437,0.977-0.627,1.481L11.641,13z"/><path fill="#e53935" d="M24.213,4.011L16.223,9h1.746L25,4.609V4.05C24.738,4.037,24.478,4.014,24.213,4.011z"/><polygon fill="#e53935" points="25,15.934 20.301,13 18.559,13 25,17.02"/><path fill="#388e3c" d="M23.197,20.579l12.741-0.074v11.452c0.024,1.487-2.479,2.999-6.396,4.933 c-4.04-2.082-6.37-3.347-6.396-4.957L23.197,20.579L23.197,20.579z"/><path fill="#fff" d="M29.541,37.058l-0.067-0.034c-4.119-2.123-6.451-3.405-6.477-5.089l0.051-11.505l13.04-0.075 v11.603c0.025,1.55-2.356,3.032-6.479,5.067L29.541,37.058z M23.346,20.729l-0.05,11.205c0.024,1.5,2.272,2.739,6.248,4.788 c3.874-1.916,6.267-3.383,6.244-4.762V20.655L23.346,20.729z"/><path fill="#ffc107" d="M25.834,21.859c0,0.083-0.067,0.149-0.149,0.149c-0.083,0-0.149-0.067-0.149-0.149 c0-0.083,0.067-0.149,0.149-0.149C25.767,21.709,25.834,21.776,25.834,21.859z"/><path fill="#ffc107" d="M25.072,23.088l1.166,0.003c0,0,0.019-0.151-0.121-0.243c0.611-0.084,0.452-0.623,0.963-0.653 c0.1,0.015-0.267,0.229-0.267,0.229s-0.309,0.218-0.168,0.328c0.111,0.088,0.16-0.053,0.175-0.16 c0.015-0.107,0.496-0.175,0.428-0.481c-0.115-0.252-0.786,0.168-0.786,0.168l-0.479-0.003c-0.03-0.054-0.162-0.269-0.299-0.271 c-0.162,0.006-0.276,0.273-0.276,0.273h-0.694h-0.389c0,0-0.037,0.278,0.512,0.332c0.124,0.162,0.219,0.207,0.327,0.249 C25.092,22.918,25.072,22.991,25.072,23.088L25.072,23.088z"/><path fill="#ffc107" d="M25.156,22.851l0.971-0.003"/><path fill="#c74343" d="M24.652,22.273c0.036-0.173,0.101-0.203,0.173-0.424c0.012-0.215-0.173-0.192-0.12-0.329 c0.095-0.149,0.048-0.293-0.132-0.407c0.036,0.197-0.233,0.382-0.233,0.544c0,0.161,0.138,0.126,0.12,0.37 c0.012,0.143-0.036,0.108-0.048,0.245L24.652,22.273L24.652,22.273z"/><path fill="#ffc107" d="M25.793,24.063c0,0.083-0.067,0.149-0.149,0.149c-0.083,0-0.149-0.067-0.149-0.149 c0-0.083,0.067-0.149,0.149-0.149C25.726,23.914,25.793,23.98,25.793,24.063z"/><path fill="#ffc107" d="M25.031,25.291l1.166,0.003c0,0,0.019-0.151-0.121-0.243c0.611-0.084,0.452-0.623,0.963-0.653 c0.1,0.015-0.267,0.229-0.267,0.229s-0.309,0.218-0.168,0.328c0.111,0.088,0.16-0.053,0.175-0.16 c0.015-0.107,0.496-0.175,0.428-0.481c-0.115-0.252-0.786,0.168-0.786,0.168l-0.479-0.003c-0.03-0.054-0.162-0.269-0.299-0.271 c-0.162,0.006-0.276,0.273-0.276,0.273h-0.694h-0.389c0,0-0.037,0.278,0.512,0.332c0.124,0.162,0.219,0.207,0.327,0.249 C25.051,25.122,25.031,25.194,25.031,25.291L25.031,25.291z"/><path fill="#ffc107" d="M25.115,25.055l0.971-0.003"/><path fill="#c74343" d="M24.611,24.476c0.036-0.173,0.101-0.203,0.173-0.424c0.012-0.215-0.173-0.192-0.12-0.329 c0.095-0.149,0.048-0.293-0.132-0.407c0.036,0.197-0.233,0.382-0.233,0.544c0,0.161,0.138,0.126,0.12,0.37 c0.012,0.143-0.036,0.108-0.048,0.245L24.611,24.476L24.611,24.476z"/><path fill="#ffc107" d="M25.776,26.235c0,0.083-0.067,0.149-0.149,0.149c-0.083,0-0.149-0.067-0.149-0.149 c0-0.083,0.067-0.149,0.149-0.149C25.709,26.085,25.776,26.152,25.776,26.235z"/><path fill="#ffc107" d="M25.014,27.464l1.166,0.003c0,0,0.019-0.151-0.121-0.243c0.611-0.084,0.452-0.623,0.963-0.653 c0.1,0.015-0.267,0.229-0.267,0.229s-0.309,0.218-0.168,0.328c0.111,0.088,0.16-0.053,0.175-0.16 c0.015-0.107,0.496-0.175,0.428-0.481c-0.115-0.252-0.786,0.168-0.786,0.168l-0.479-0.003c-0.03-0.054-0.162-0.269-0.299-0.271 c-0.162,0.006-0.276,0.273-0.276,0.273h-0.694h-0.389c0,0-0.037,0.278,0.512,0.332c0.124,0.162,0.219,0.207,0.327,0.249 C25.034,27.294,25.014,27.367,25.014,27.464L25.014,27.464z"/><path fill="#ffc107" d="M25.098,27.227l0.971-0.003"/><path fill="#c74343" d="M24.594,26.649c0.036-0.173,0.101-0.203,0.173-0.424c0.012-0.215-0.173-0.192-0.12-0.329 c0.095-0.149,0.048-0.293-0.132-0.407c0.036,0.197-0.233,0.382-0.233,0.544c0,0.161,0.138,0.126,0.12,0.37 c0.012,0.143-0.036,0.108-0.048,0.245L24.594,26.649L24.594,26.649z"/><path fill="#f5ce85" d="M27.201,28.588c0,0.083-0.067,0.149-0.149,0.149c-0.083,0-0.149-0.067-0.149-0.149 c0-0.083,0.067-0.149,0.149-0.149C27.134,28.437,27.201,28.505,27.201,28.588z"/><path fill="#ffc107" d="M26.44,29.816l1.166,0.003c0,0,0.019-0.151-0.121-0.243c0.611-0.084,0.452-0.623,0.963-0.653 c0.1,0.015-0.267,0.229-0.267,0.229s-0.309,0.218-0.168,0.328c0.111,0.088,0.16-0.053,0.175-0.16 c0.015-0.107,0.496-0.175,0.428-0.481c-0.115-0.252-0.786,0.168-0.786,0.168l-0.479-0.003c-0.03-0.054-0.162-0.269-0.299-0.271 c-0.162,0.006-0.276,0.273-0.276,0.273h-0.694h-0.389c0,0-0.037,0.278,0.512,0.332c0.124,0.162,0.219,0.207,0.327,0.249 C26.459,29.646,26.44,29.719,26.44,29.816L26.44,29.816z"/><path fill="#ffc72c" d="M26.523,29.58l0.971-0.003"/><path fill="#c74343" d="M26.019,29.001c0.036-0.173,0.101-0.203,0.173-0.424c0.012-0.215-0.173-0.192-0.12-0.329 c0.095-0.149,0.048-0.293-0.132-0.407c0.036,0.197-0.233,0.382-0.233,0.544c0,0.161,0.138,0.126,0.12,0.37 c0.012,0.143-0.036,0.108-0.048,0.245L26.019,29.001L26.019,29.001z"/><path fill="#ffc107" d="M25.59,30.511c0,0.083-0.067,0.149-0.149,0.149c-0.083,0-0.149-0.067-0.149-0.149 c0-0.083,0.067-0.149,0.149-0.149C25.523,30.362,25.59,30.429,25.59,30.511z"/><path fill="#ffc107" d="M24.828,31.74l1.166,0.003c0,0,0.019-0.151-0.121-0.243c0.611-0.084,0.452-0.623,0.963-0.653 c0.1,0.015-0.267,0.229-0.267,0.229s-0.309,0.218-0.168,0.328c0.111,0.088,0.16-0.053,0.175-0.16s0.496-0.175,0.428-0.481 c-0.115-0.252-0.786,0.168-0.786,0.168l-0.479-0.003c-0.03-0.054-0.162-0.269-0.299-0.271c-0.162,0.006-0.276,0.273-0.276,0.273 H24.47h-0.389c0,0-0.037,0.278,0.512,0.332c0.124,0.162,0.219,0.207,0.327,0.249C24.848,31.571,24.827,31.643,24.828,31.74 L24.828,31.74z"/><path fill="#c74343" d="M24.407,30.925c0.036-0.173,0.101-0.203,0.173-0.424c0.012-0.215-0.173-0.192-0.12-0.329 c0.095-0.149,0.048-0.293-0.132-0.407c0.036,0.197-0.233,0.382-0.233,0.544c0,0.161,0.138,0.126,0.12,0.37 c0.012,0.143-0.036,0.108-0.048,0.245L24.407,30.925L24.407,30.925z"/><path fill="#ffc107" d="M25.632,32.785c0,0.083-0.067,0.149-0.149,0.149c-0.083,0-0.149-0.067-0.149-0.149 s0.067-0.149,0.149-0.149C25.565,32.635,25.632,32.703,25.632,32.785z"/><path fill="#ffc107" d="M24.87,34.014l1.166,0.003c0,0,0.019-0.151-0.121-0.243c0.611-0.084,0.452-0.623,0.963-0.653 c0.1,0.015-0.267,0.229-0.267,0.229s-0.309,0.218-0.168,0.328c0.111,0.088,0.16-0.053,0.175-0.16 c0.015-0.107,0.496-0.175,0.428-0.481c-0.115-0.252-0.786,0.168-0.786,0.168l-0.479-0.003c-0.03-0.054-0.162-0.269-0.299-0.271 c-0.162,0.006-0.276,0.273-0.276,0.273h-0.694h-0.389c0,0-0.037,0.278,0.512,0.332c0.124,0.162,0.219,0.207,0.327,0.249 C24.89,33.844,24.87,33.917,24.87,34.014L24.87,34.014z"/><path fill="#ffc107" d="M24.954,33.777l0.971-0.003"/><path fill="#c74343" d="M24.45,33.199c0.036-0.173,0.101-0.203,0.173-0.424c0.012-0.215-0.173-0.192-0.12-0.329 c0.095-0.149,0.048-0.293-0.132-0.407c0.036,0.197-0.233,0.382-0.233,0.544c0,0.161,0.138,0.126,0.12,0.37 c0.012,0.143-0.036,0.108-0.048,0.245L24.45,33.199L24.45,33.199z"/><path fill="#ffc107" d="M33.639,21.895c0,0.083-0.067,0.149-0.149,0.149c-0.083,0-0.149-0.067-0.149-0.149 c0-0.083,0.067-0.149,0.149-0.149C33.572,21.746,33.639,21.812,33.639,21.895z"/><path fill="#ffc107" d="M32.878,23.123l1.166,0.003c0,0,0.019-0.151-0.121-0.243c0.611-0.084,0.452-0.623,0.963-0.653 c0.1,0.015-0.267,0.229-0.267,0.229s-0.309,0.218-0.168,0.328c0.111,0.088,0.16-0.053,0.175-0.16 c0.015-0.107,0.496-0.175,0.428-0.481c-0.115-0.252-0.786,0.168-0.786,0.168l-0.479-0.003c-0.03-0.054-0.162-0.269-0.299-0.271 c-0.162,0.006-0.276,0.273-0.276,0.273h-0.694H32.13c0,0-0.037,0.278,0.512,0.332c0.124,0.162,0.219,0.207,0.327,0.249 C32.897,22.955,32.877,23.026,32.878,23.123L32.878,23.123z"/><path fill="#ffc107" d="M32.961,22.887l0.971-0.003"/><path fill="#c74343" d="M32.457,22.308c0.036-0.173,0.101-0.203,0.173-0.424c0.012-0.215-0.173-0.192-0.12-0.329 c0.095-0.149,0.048-0.293-0.132-0.407c0.036,0.197-0.233,0.382-0.233,0.544c0,0.161,0.138,0.126,0.12,0.37 c0.012,0.143-0.036,0.108-0.048,0.245L32.457,22.308L32.457,22.308z"/><path fill="#ffc107" d="M33.568,24.058c0,0.083-0.067,0.149-0.149,0.149c-0.083,0-0.149-0.067-0.149-0.149 c0-0.083,0.067-0.149,0.149-0.149C33.501,23.909,33.568,23.975,33.568,24.058z"/><path fill="#ffc107" d="M32.806,25.287l1.166,0.003c0,0,0.019-0.151-0.121-0.243c0.611-0.084,0.452-0.623,0.963-0.653 c0.1,0.015-0.267,0.229-0.267,0.229s-0.309,0.218-0.168,0.328c0.111,0.088,0.16-0.053,0.175-0.16 c0.015-0.107,0.496-0.175,0.428-0.481c-0.115-0.252-0.786,0.168-0.786,0.168l-0.479-0.003c-0.03-0.054-0.162-0.269-0.299-0.271 c-0.162,0.006-0.276,0.273-0.276,0.273h-0.694h-0.389c0,0-0.037,0.278,0.512,0.332c0.124,0.162,0.219,0.207,0.327,0.249 C32.825,25.118,32.805,25.19,32.806,25.287L32.806,25.287z"/><path fill="#ffc107" d="M32.889,25.05l0.971-0.003"/><path fill="#c74343" d="M32.385,24.471c0.036-0.173,0.101-0.203,0.173-0.424c0.012-0.215-0.173-0.192-0.12-0.329 c0.095-0.149,0.048-0.293-0.132-0.407c0.036,0.197-0.233,0.382-0.233,0.544c0,0.161,0.138,0.126,0.12,0.37 c0.012,0.143-0.036,0.108-0.048,0.245L32.385,24.471L32.385,24.471z"/><path fill="#ffc107" d="M33.471,26.269c0,0.083-0.067,0.149-0.149,0.149c-0.083,0-0.149-0.067-0.149-0.149 c0-0.083,0.067-0.149,0.149-0.149C33.405,26.12,33.471,26.187,33.471,26.269z"/><path fill="#ffc107" d="M32.71,27.498l1.166,0.003c0,0,0.019-0.151-0.121-0.243c0.611-0.084,0.452-0.623,0.963-0.653 c0.1,0.015-0.267,0.229-0.267,0.229s-0.309,0.218-0.168,0.328c0.111,0.088,0.16-0.053,0.175-0.16s0.496-0.175,0.428-0.481 c-0.115-0.252-0.786,0.168-0.786,0.168l-0.479-0.003c-0.03-0.054-0.162-0.269-0.299-0.271c-0.162,0.006-0.276,0.273-0.276,0.273 h-0.694h-0.389c0,0-0.037,0.278,0.512,0.332c0.124,0.162,0.219,0.207,0.327,0.249C32.73,27.329,32.71,27.401,32.71,27.498 L32.71,27.498z"/><path fill="#ffc107" d="M32.794,27.261l0.971-0.003"/><path fill="#c74343" d="M32.29,26.683c0.036-0.173,0.101-0.203,0.173-0.424c0.012-0.215-0.173-0.192-0.12-0.329 c0.095-0.149,0.048-0.293-0.132-0.407c0.036,0.197-0.233,0.382-0.233,0.544c0,0.161,0.138,0.126,0.12,0.37 c0.012,0.143-0.036,0.108-0.048,0.245L32.29,26.683L32.29,26.683z"/><path fill="#ffc107" d="M33.579,28.445c0,0.083-0.067,0.149-0.149,0.149c-0.083,0-0.149-0.067-0.149-0.149 c0-0.083,0.067-0.149,0.149-0.149C33.513,28.296,33.579,28.362,33.579,28.445z"/><path fill="#ffc107" d="M32.818,29.673l1.166,0.003c0,0,0.019-0.151-0.121-0.243c0.611-0.084,0.452-0.623,0.963-0.653 c0.1,0.015-0.267,0.229-0.267,0.229s-0.309,0.218-0.168,0.328c0.111,0.088,0.16-0.053,0.175-0.16 c0.015-0.107,0.496-0.175,0.428-0.481c-0.115-0.252-0.786,0.168-0.786,0.168l-0.479-0.003c-0.03-0.054-0.162-0.269-0.299-0.271 c-0.162,0.006-0.276,0.273-0.276,0.273h-0.694H32.07c0,0-0.037,0.278,0.512,0.332c0.124,0.162,0.219,0.207,0.327,0.249 C32.837,29.505,32.818,29.576,32.818,29.673L32.818,29.673z"/><path fill="#ffc107" d="M32.901,29.437l0.971-0.003"/><path fill="#c74343" d="M32.397,28.858c0.036-0.173,0.101-0.203,0.173-0.424c0.012-0.215-0.173-0.192-0.12-0.329 c0.095-0.149,0.048-0.293-0.132-0.407c0.036,0.197-0.233,0.382-0.233,0.544c0,0.161,0.138,0.126,0.12,0.37 c0.012,0.143-0.036,0.108-0.048,0.245L32.397,28.858L32.397,28.858z"/><path fill="#ffc107" d="M33.555,30.62c0,0.083-0.067,0.149-0.149,0.149c-0.083,0-0.149-0.067-0.149-0.149 c0-0.083,0.067-0.149,0.149-0.149C33.488,30.471,33.555,30.538,33.555,30.62z"/><path fill="#ffc107" d="M32.794,31.849l1.166,0.003c0,0,0.019-0.151-0.121-0.243c0.611-0.084,0.452-0.623,0.963-0.653 c0.1,0.015-0.267,0.229-0.267,0.229s-0.309,0.218-0.168,0.328c0.111,0.088,0.16-0.053,0.175-0.16 c0.015-0.107,0.496-0.175,0.428-0.481c-0.115-0.252-0.786,0.168-0.786,0.168l-0.479-0.003c-0.03-0.054-0.162-0.269-0.299-0.271 c-0.162,0.006-0.276,0.273-0.276,0.273h-0.694h-0.389c0,0-0.037,0.278,0.512,0.332c0.124,0.162,0.219,0.207,0.327,0.249 C32.813,31.68,32.793,31.752,32.794,31.849L32.794,31.849z"/><path fill="#ffc107" d="M32.878,31.612l0.971-0.003"/><path fill="#c74343" d="M32.373,31.034c0.036-0.173,0.101-0.203,0.173-0.424c0.012-0.215-0.173-0.192-0.12-0.329 c0.095-0.149,0.048-0.293-0.132-0.407c0.036,0.197-0.233,0.382-0.233,0.544c0,0.161,0.138,0.126,0.12,0.37 c0.012,0.143-0.036,0.108-0.048,0.245L32.373,31.034L32.373,31.034z"/><path fill="#ffc107" d="M33.568,32.807c0,0.083-0.067,0.149-0.149,0.149c-0.083,0-0.149-0.067-0.149-0.149 c0-0.083,0.067-0.149,0.149-0.149C33.501,32.658,33.568,32.725,33.568,32.807z"/><path fill="#ffc107" d="M32.806,34.037l1.166,0.003c0,0,0.019-0.151-0.121-0.243c0.611-0.084,0.452-0.623,0.963-0.653 c0.1,0.015-0.267,0.229-0.267,0.229s-0.309,0.218-0.168,0.328c0.111,0.088,0.16-0.053,0.175-0.16 c0.015-0.107,0.496-0.175,0.428-0.481c-0.115-0.252-0.786,0.168-0.786,0.168l-0.479-0.003c-0.03-0.054-0.162-0.269-0.299-0.271 c-0.162,0.006-0.276,0.273-0.276,0.273h-0.694h-0.389c0,0-0.037,0.278,0.512,0.332c0.124,0.162,0.219,0.207,0.327,0.249 C32.825,33.867,32.805,33.94,32.806,34.037L32.806,34.037z"/><path fill="#ffc72c" d="M32.889,33.8l0.971-0.003"/><path fill="#c74343" d="M32.385,33.221c0.036-0.173,0.101-0.203,0.173-0.424c0.012-0.215-0.173-0.192-0.12-0.329 c0.095-0.149,0.048-0.293-0.132-0.407c0.036,0.197-0.233,0.382-0.233,0.544c0,0.161,0.138,0.126,0.12,0.37 c0.012,0.143-0.036,0.108-0.048,0.245L32.385,33.221L32.385,33.221z"/><path fill="#ffcdd2" d="M30.322,34.25c0,0,0.305,0.702,0.65,0.271c0.347-0.431,0.219-0.617,0.219-0.617l-0.778-0.423 l-0.228,0.482L30.322,34.25L30.322,34.25z"/><path fill="#263238" d="M30.739,34.711c-0.012,0-0.023-0.001-0.035-0.003c-0.246-0.032-0.416-0.41-0.427-0.438 l-0.146-0.308l0.01-0.021l0.25-0.529l0.841,0.464c0.016,0.022,0.138,0.229-0.221,0.676C30.927,34.657,30.835,34.711,30.739,34.711 z M30.242,33.963l0.126,0.268c0.042,0.098,0.188,0.357,0.349,0.379c0.072,0.01,0.145-0.03,0.216-0.12 c0.272-0.338,0.235-0.509,0.22-0.549l-0.717-0.39L30.242,33.963z"/><path fill="#ffb5d2" d="M29.241,21.809c0,0,0.017,0.16,0.025,0.246c0.008,0.084-0.135,0.262-0.143,0.254 c-0.008-0.008-0.076,0.008-0.067,0.059c0.008,0.051,0.11,0.067,0.11,0.067s-0.042,0.177,0,0.186c0.042,0.008-0.11,0.229,0,0.288 c0.11,0.059,0.296,0.135,0.38,0.118c0.084-0.017,0,0.33,0,0.33l-0.237,0.507l1.302-0.135l-0.271-0.431c0,0-0.127-0.084-0.093-0.33 c0.034-0.246-0.017-1.352-0.017-1.352l-0.93-0.127L29.241,21.809L29.241,21.809z"/><path fill="#263238" d="M29.226,23.922l0.274-0.587c0.023-0.1,0.038-0.213,0.032-0.257c-0.004,0-0.008,0-0.013,0 c-0.14,0-0.368-0.12-0.378-0.126c-0.106-0.058-0.061-0.19-0.034-0.27c0.003-0.011,0.008-0.024,0.011-0.034 c-0.002-0.003-0.004-0.006-0.006-0.009c-0.023-0.035-0.018-0.104-0.006-0.169c-0.041-0.015-0.091-0.043-0.1-0.096 c-0.008-0.044,0.014-0.084,0.057-0.105c0.013-0.007,0.029-0.012,0.044-0.013c0.035-0.039,0.113-0.153,0.109-0.197l-0.026-0.253 l0.001-0.007l0.068-0.367l0.047,0.006l0.971,0.133l0.002,0.042c0.002,0.045,0.05,1.113,0.016,1.36 c-0.028,0.208,0.068,0.279,0.072,0.282l0.014,0.015l0.313,0.499l-0.08,0.009L29.226,23.922z M29.55,22.976 c0.02,0,0.039,0.008,0.053,0.022c0.053,0.056,0.024,0.232-0.01,0.37l-0.203,0.437l1.134-0.117l-0.224-0.356 c-0.034-0.028-0.137-0.136-0.104-0.371c0.029-0.211-0.007-1.098-0.016-1.301l-0.841-0.115l-0.049,0.267l0.025,0.239 c0.01,0.101-0.13,0.284-0.169,0.304l-0.031,0.015c0.014,0.006,0.037,0.014,0.057,0.017l0.052,0.01l-0.012,0.052 c-0.011,0.048-0.019,0.102-0.018,0.129h0l0.018,0.024c0.017,0.03,0.006,0.063-0.012,0.115c-0.017,0.049-0.045,0.132-0.014,0.149 c0.119,0.063,0.285,0.126,0.347,0.113C29.541,22.977,29.545,22.976,29.55,22.976z M29.105,22.359 c-0.001,0.001-0.002,0.002-0.002,0.002c0.001,0.002,0.005,0.004,0.011,0.006L29.105,22.359z M29.088,22.345 c0.001,0.002,0.003,0.004,0.005,0.005L29.088,22.345z"/><path fill="#ffcdd2" d="M29.114,23.821c0,0-0.423,0.194-0.406,0.719c-0.11,0.507-0.169,1.014-0.169,1.014 s-0.499,0.566-0.65,0.769c-0.152,0.202-0.38,0.617-0.465,0.727c-0.084,0.11-0.414,0.473-0.406,0.608 c0.008,0.135-0.076,0.736,0.254,0.803c0.084,0.034,0.355-0.693,0.355-0.693s0.017-0.313-0.076-0.372 c-0.093-0.059,0.202-0.262,0.202-0.262s0.566-0.414,0.693-0.515c0.127-0.101,0.473-0.49,0.473-0.49L29.114,23.821L29.114,23.821z"/><path fill="#263238" d="M27.278,28.513c-0.01,0-0.018-0.002-0.024-0.004c-0.31-0.062-0.294-0.528-0.287-0.753 c0.001-0.04,0.002-0.073,0.001-0.095c-0.007-0.118,0.159-0.33,0.345-0.555c0.03-0.036,0.055-0.066,0.071-0.087 c0.035-0.046,0.101-0.155,0.171-0.271c0.097-0.159,0.206-0.34,0.293-0.456c0.141-0.188,0.569-0.677,0.643-0.761 c0.011-0.09,0.069-0.549,0.168-1.004c-0.019-0.539,0.429-0.751,0.434-0.754l0.078-0.035l-0.203,2.41l-0.011,0.013 c-0.014,0.016-0.351,0.393-0.479,0.496c-0.126,0.101-0.671,0.5-0.694,0.517c-0.095,0.066-0.184,0.149-0.198,0.185 c0.102,0.077,0.096,0.334,0.092,0.412l-0.003,0.015c-0.075,0.201-0.26,0.673-0.366,0.721 C27.297,28.512,27.287,28.513,27.278,28.513z M27.279,28.412c0.001,0,0.002,0.001,0.003,0.001 C27.281,28.412,27.28,28.412,27.279,28.412z M29.056,23.914c-0.114,0.081-0.309,0.272-0.298,0.623 c-0.109,0.512-0.168,1.018-0.169,1.022l-0.002,0.016l-0.01,0.012c-0.005,0.006-0.499,0.567-0.648,0.767 c-0.084,0.111-0.192,0.29-0.288,0.447c-0.075,0.123-0.139,0.229-0.178,0.279c-0.017,0.021-0.042,0.053-0.073,0.091 c-0.098,0.118-0.328,0.396-0.322,0.484c0.001,0.023,0,0.06-0.001,0.104c-0.006,0.193-0.02,0.594,0.206,0.651 c0.057-0.052,0.2-0.371,0.305-0.652c0.006-0.136-0.013-0.295-0.053-0.32c-0.026-0.017-0.041-0.042-0.041-0.071 c-0.002-0.096,0.169-0.223,0.242-0.273c0.004-0.004,0.565-0.414,0.689-0.514c0.109-0.088,0.396-0.405,0.456-0.472L29.056,23.914z"/><path fill="#ffcdd2" d="M29.353,34.065l0.864-0.47l-0.393-0.408c0,0-1.294,0.723-1.636,0.739 c-0.342,0.016-0.045,0.257,0.004,0.388c0.013,0.034,0.068,0.05,0.141,0.055c-0.092,0.046-0.023,0.199,0.088,0.167 c0.055-0.016,0.26-0.116,0.464-0.22c0.002,0,0.009-0.002,0.009-0.002l0.086-0.047c0.201-0.103,0.379-0.196,0.379-0.196 C29.36,34.073,29.353,34.066,29.353,34.065z"/><path fill="#263238" d="M28.39,34.592c-0.067,0-0.119-0.045-0.14-0.099c-0.011-0.029-0.013-0.06-0.006-0.086 c-0.044-0.012-0.083-0.033-0.099-0.074c-0.01-0.028-0.04-0.068-0.067-0.108c-0.063-0.089-0.129-0.182-0.091-0.262 c0.034-0.07,0.13-0.083,0.199-0.086c0.262-0.012,1.17-0.484,1.614-0.733l0.034-0.019l0.465,0.483l-0.895,0.486l-0.021,0.021 c0,0-0.178,0.093-0.379,0.197l-0.104,0.052c-0.148,0.076-0.397,0.2-0.465,0.22C28.419,34.59,28.404,34.592,28.39,34.592z M28.238,34.298c0,0,0.016,0.017,0.098,0.022l0.184,0.012l-0.165,0.083c-0.021,0.01-0.016,0.03-0.012,0.042 c0.007,0.017,0.025,0.04,0.063,0.032c0.043-0.013,0.218-0.096,0.455-0.218l0.018-0.005l0.077-0.042 c0.136-0.07,0.261-0.135,0.328-0.17l0.045-0.033l0.806-0.438l-0.321-0.333c-0.211,0.116-1.302,0.712-1.625,0.727 c-0.08,0.004-0.109,0.021-0.114,0.03c-0.013,0.026,0.049,0.113,0.083,0.16S28.223,34.258,28.238,34.298L28.238,34.298z"/><g><path fill="#fff" d="M29.486,23.338c0,0,0.11,0.296,0.355,0.246c0.245-0.051,0.532-0.279,0.532-0.279 s0.228-0.008,0.262,0.025c0.034,0.034,0.617,0.6,0.6,0.778c-0.017,0.178-0.271,0.127-0.364,0.246 c-0.093,0.119-0.246,0.414-0.202,0.634c0.042,0.219,0.169,0.507,0.152,0.617c-0.017,0.11-0.11,0.143-0.11,0.202 c0,0.059,0.076,0.16,0.076,0.271c0,0.111-0.101,0.271-0.084,0.38c0.017,0.11,0.025,0.431,0.025,0.431l-0.025,1.487 c0,0,0.084,0.051,0.093,0.135s0.575,2.544,0.575,2.544s-0.025,0.076-0.084,0.067c-0.059-0.008,0.228,0.38,0.237,0.49 c0.008,0.11,0.296,0.972,0.288,1.09c-0.008,0.118-0.051,0.38-0.076,0.389c-0.025,0.008,0.186,0.541,0.152,0.625 c-0.034,0.084-0.38,0.076-0.38,0.076l-0.093-0.017c0,0,0.008,0.11-0.059,0.118c-0.067,0.008-0.566-0.025-0.566-0.025 s-0.143,0.219-0.228,0.211c-0.084-0.008-0.194-0.16-0.219-0.135c-0.025,0.025,0.076,0.169,0.051,0.211 c-0.025,0.042-0.456,0.135-0.541-0.067s0.051-0.152,0.025-0.194c-0.025-0.042-0.219-0.152-0.279-0.118 c-0.06,0.034,0.152,0.084,0.143,0.169c-0.008,0.084-0.186,0.211-0.254,0.211c-0.068,0-0.228-0.313-0.465-0.279 c-0.237,0.034-0.389,0.093-0.389,0.093s-0.279,0.118-0.397,0.093c-0.118-0.025-0.169-0.118-0.169-0.169 c0-0.051,0.084-0.271,0.076-0.338c-0.008-0.067-0.076-0.135-0.076-0.237c0-0.101,0.194-0.448,0.194-0.448l-0.008-1.555 c0,0-0.177,0-0.186-0.11s0.271-2.459,0.313-2.612c0.042-0.152,0.152-0.693,0.152-0.693s-0.127,0.059-0.135,0 c-0.008-0.059,0.38-1.403,0.38-1.403s0.067-0.667,0.067-0.845c0-0.177-0.034-0.423-0.034-0.423s-0.347-0.147-0.355-0.372 c-0.032-0.358,0.33-0.558,0.372-0.676c0.042-0.118,0.169-0.473,0.169-0.473S29.182,23.389,29.486,23.338z"/><path fill="#263238" d="M30.12,34.263c-0.015,0-0.029,0-0.042-0.001c-0.14-0.01-0.234-0.063-0.272-0.155 c-0.017-0.041-0.027-0.077-0.031-0.107c-0.051,0.101-0.211,0.205-0.288,0.205c-0.044,0-0.081-0.038-0.135-0.096 c-0.074-0.079-0.174-0.185-0.293-0.185c-0.01,0-0.02,0-0.029,0.002c-0.228,0.031-0.376,0.089-0.378,0.09 c-0.029,0.012-0.3,0.117-0.426,0.095c-0.144-0.031-0.208-0.146-0.208-0.218c0-0.027,0.012-0.07,0.033-0.144 c0.018-0.06,0.047-0.16,0.043-0.189c-0.002-0.02-0.014-0.043-0.027-0.07c-0.022-0.045-0.049-0.101-0.049-0.172 c0-0.104,0.15-0.381,0.194-0.461l-0.008-1.495c-0.081-0.012-0.178-0.052-0.186-0.153c-0.009-0.12,0.273-2.479,0.314-2.629 c0.032-0.112,0.102-0.448,0.134-0.605c-0.027,0.005-0.056,0.005-0.079-0.009c-0.022-0.012-0.036-0.032-0.04-0.058 c-0.009-0.061,0.235-0.918,0.382-1.424l0,0c-0.001,0,0.065-0.658,0.065-0.832c0-0.138-0.021-0.32-0.03-0.388 c-0.086-0.042-0.351-0.188-0.359-0.404c-0.024-0.271,0.159-0.457,0.28-0.581c0.044-0.046,0.086-0.089,0.095-0.113l0.168-0.474 c0.012-0.022,0.204-0.349,0.528-0.402l0.041-0.006l0.015,0.038c0.003,0.01,0.101,0.251,0.298,0.214 c0.231-0.048,0.508-0.268,0.511-0.27l0.013-0.011h0.017c0.165-0.007,0.267,0.008,0.299,0.04c0.19,0.185,0.632,0.635,0.615,0.817 c-0.013,0.137-0.131,0.172-0.226,0.199c-0.061,0.019-0.119,0.035-0.148,0.072c-0.1,0.129-0.23,0.405-0.193,0.594 c0.017,0.089,0.049,0.19,0.079,0.288c0.045,0.145,0.085,0.271,0.073,0.346c-0.012,0.074-0.052,0.121-0.081,0.154 c-0.012,0.015-0.028,0.032-0.028,0.04c0,0.016,0.013,0.047,0.025,0.076c0.022,0.055,0.05,0.122,0.05,0.195 c0,0.059-0.022,0.124-0.044,0.188c-0.023,0.067-0.047,0.137-0.04,0.184c0.017,0.112,0.025,0.425,0.025,0.438l-0.024,1.463 c0.032,0.026,0.084,0.079,0.092,0.155c0.008,0.068,0.347,1.555,0.573,2.538l0.003,0.013l-0.004,0.014 c-0.01,0.029-0.034,0.071-0.074,0.091c0.019,0.036,0.05,0.09,0.076,0.132c0.089,0.149,0.148,0.253,0.153,0.315 c0.003,0.041,0.061,0.235,0.116,0.424c0.107,0.36,0.177,0.602,0.171,0.674c0,0.003-0.021,0.294-0.077,0.397 c0.005,0.028,0.031,0.109,0.053,0.177c0.087,0.273,0.12,0.396,0.097,0.454c-0.036,0.091-0.236,0.108-0.38,0.108 c-0.017,0-0.033,0-0.048-0.001l-0.045-0.008c-0.009,0.05-0.036,0.101-0.099,0.109c-0.062,0.008-0.434-0.016-0.547-0.023 c-0.054,0.078-0.158,0.209-0.249,0.209c-0.003,0-0.006,0-0.008,0c-0.044-0.005-0.088-0.033-0.126-0.063 c0.016,0.043,0.024,0.083,0.005,0.114C30.404,34.232,30.24,34.263,30.12,34.263z M29.626,33.72c0.104,0,0.264,0.099,0.293,0.148 l0.011,0.02l-0.003,0.032c-0.008,0.026-0.03,0.036-0.042,0.042c-0.01,0.006-0.021,0.027,0.012,0.105 c0.016,0.038,0.052,0.065,0.107,0.081c0.12,0.035,0.29,0.001,0.34-0.021c-0.004-0.019-0.019-0.052-0.027-0.071 c-0.025-0.06-0.048-0.111-0.012-0.147c0.044-0.044,0.096,0,0.146,0.045c0.033,0.029,0.084,0.073,0.114,0.076l0,0 c0.029,0,0.117-0.092,0.18-0.188l0.016-0.024l0.029,0.002c0.19,0.012,0.515,0.032,0.557,0.025 c0.009-0.001,0.017-0.038,0.015-0.064l-0.005-0.064l0.157,0.028c0.15,0.007,0.305-0.02,0.326-0.048 c0.009-0.041-0.062-0.265-0.101-0.385c-0.06-0.189-0.075-0.237-0.039-0.26c0.019-0.048,0.051-0.239,0.059-0.353 c0.004-0.059-0.099-0.407-0.167-0.638c-0.072-0.243-0.116-0.396-0.12-0.444c-0.004-0.044-0.085-0.182-0.14-0.272 c-0.1-0.167-0.122-0.208-0.096-0.247l0.018-0.026l0.038,0.002c0,0,0.001,0,0.001,0c0.009,0,0.018-0.013,0.023-0.022 c-0.073-0.318-0.563-2.451-0.572-2.534c-0.006-0.058-0.068-0.097-0.069-0.097l-0.024-0.016l0.025-1.516 c0-0.001-0.009-0.317-0.024-0.423c-0.011-0.072,0.017-0.153,0.044-0.232c0.02-0.056,0.04-0.113,0.04-0.155 c0-0.054-0.023-0.108-0.043-0.156c-0.018-0.043-0.033-0.08-0.033-0.115c0-0.045,0.028-0.077,0.053-0.105s0.05-0.059,0.058-0.104 c0.008-0.052-0.032-0.179-0.07-0.301c-0.031-0.101-0.063-0.204-0.082-0.298c-0.046-0.233,0.105-0.538,0.212-0.674 c0.049-0.063,0.128-0.087,0.199-0.107c0.103-0.03,0.149-0.05,0.155-0.113c0.009-0.102-0.287-0.447-0.585-0.736 c-0.017-0.008-0.113-0.02-0.209-0.012c-0.061,0.046-0.313,0.231-0.54,0.278c-0.201,0.045-0.338-0.119-0.396-0.236 c-0.255,0.063-0.415,0.334-0.416,0.337l-0.165,0.465c-0.017,0.046-0.061,0.092-0.118,0.149c-0.115,0.117-0.272,0.278-0.251,0.505 c0.006,0.161,0.236,0.293,0.325,0.331l0.026,0.011l0.004,0.028c0.001,0.01,0.034,0.251,0.034,0.429 c0,0.179-0.064,0.823-0.067,0.851c-0.136,0.475-0.346,1.219-0.376,1.373c0.017-0.004,0.041-0.011,0.06-0.02l0.09-0.042 l-0.02,0.097c-0.004,0.022-0.11,0.544-0.152,0.696c-0.04,0.143-0.319,2.471-0.312,2.594c0.005,0.061,0.135,0.064,0.136,0.064h0.05 v0.05l0.009,1.567l-0.007,0.012c-0.078,0.14-0.188,0.363-0.188,0.424c0,0.048,0.02,0.089,0.04,0.129 c0.016,0.032,0.032,0.065,0.037,0.102c0.005,0.046-0.015,0.121-0.046,0.229c-0.012,0.042-0.029,0.101-0.03,0.115 c0,0.023,0.032,0.099,0.13,0.12c0.073,0.018,0.265-0.047,0.367-0.09c0.008-0.003,0.161-0.062,0.401-0.097 c0.015-0.002,0.029-0.003,0.044-0.003c0.161,0,0.283,0.129,0.365,0.217c0.024,0.025,0.057,0.061,0.069,0.065 c0.038-0.001,0.192-0.11,0.197-0.166c-0.001-0.016-0.057-0.05-0.076-0.062c-0.042-0.026-0.079-0.049-0.078-0.091 c0-0.014,0.005-0.038,0.036-0.056C29.588,33.724,29.606,33.72,29.626,33.72z M29.765,33.869c0.011,0.015,0.02,0.03,0.023,0.048 c0.005-0.008,0.011-0.016,0.018-0.021C29.795,33.887,29.781,33.878,29.765,33.869z"/></g><g><path fill="#ffcdd2" d="M31.201,24.147c0.008,0,0.279,0.837,0.313,1.048s0.143,1.056,0.101,1.175 c-0.042,0.118-0.473,0.684-0.524,0.828c-0.051,0.143-0.355,0.693-0.355,0.693s-0.076,0.541-0.11,0.566 c-0.034,0.025,0.087,0.158,0.076,0.202c-0.017,0.051-0.246,0.288-0.347,0.262s-0.262-0.143-0.271-0.254 c-0.008-0.111,0.008-0.473,0.084-0.566c0.076-0.093,0.473-1.031,0.499-1.09c0.025-0.059,0.364-0.795,0.372-0.921 c0.008-0.127-0.105-0.42-0.224-0.527C30.55,24.78,30.655,24.308,31.201,24.147L31.201,24.147z"/><path fill="#263238" d="M30.37,28.975c-0.009,0-0.018-0.001-0.026-0.003c-0.119-0.03-0.298-0.161-0.309-0.299 c-0.007-0.091,0-0.486,0.096-0.602c0.019-0.024,0.104-0.173,0.476-1.042l0.016-0.036c0.003-0.009,0.014-0.031,0.029-0.064 c0.275-0.612,0.336-0.796,0.339-0.841c0.007-0.112-0.103-0.393-0.208-0.487l-0.014-0.021c-0.169-0.5-0.188-0.866-0.055-1.122 c0.089-0.171,0.249-0.292,0.474-0.358l0.014-0.002c0.046,0,0.046,0,0.195,0.479c0.054,0.175,0.148,0.486,0.167,0.61 c0.001,0.01,0.154,1.045,0.099,1.199c-0.021,0.058-0.106,0.186-0.245,0.389c-0.119,0.174-0.254,0.37-0.278,0.44 c-0.048,0.138-0.314,0.621-0.354,0.692c-0.058,0.414-0.091,0.532-0.112,0.57c0.006,0.016,0.021,0.041,0.031,0.057 c0.03,0.053,0.057,0.097,0.047,0.138C30.73,28.734,30.511,28.975,30.37,28.975z M30.859,25.536 c0.126,0.123,0.24,0.423,0.231,0.558c-0.005,0.082-0.113,0.352-0.348,0.876c-0.014,0.032-0.024,0.054-0.028,0.062l-0.015,0.036 c-0.417,0.976-0.473,1.044-0.491,1.065c-0.06,0.073-0.082,0.411-0.073,0.531c0.006,0.078,0.139,0.186,0.233,0.209 c0.002,0.001,0.004,0.001,0.007,0.001c0.067,0,0.257-0.179,0.28-0.231c-0.004-0.001-0.025-0.036-0.038-0.058 c-0.033-0.057-0.071-0.121-0.029-0.161c0.021-0.048,0.065-0.309,0.098-0.54l0.005-0.018c0.003-0.005,0.303-0.548,0.352-0.686 c0.029-0.082,0.156-0.268,0.291-0.464c0.101-0.148,0.216-0.315,0.234-0.365c0.034-0.095-0.056-0.854-0.104-1.15 c-0.029-0.18-0.235-0.826-0.293-0.994c-0.177,0.061-0.298,0.158-0.37,0.296C30.684,24.731,30.702,25.069,30.859,25.536z"/></g><g><path fill="#a16a4a" d="M29.215,21.758c0,0,0.186,0.025,0.288-0.034c0.101-0.059,0.219-0.084,0.305,0.034 c0.084,0.118,0.143,0.11,0.143,0.11s-0.127,0.313,0,0.347c0.127,0.034,0.186,0.034,0.194,0.076 c0.008,0.042-0.11,0.135-0.076,0.177s0.093,0.093,0.101,0.127s-0.076,0.177-0.051,0.211c0.025,0.034,0.101,0.169,0.152,0.169 s0.017,0.211,0.169,0.16c0.152-0.051,0.143-0.186,0.143-0.186s0.16-0.025,0.202-0.169c0.042-0.143,0.143-0.177,0.143-0.177 s0.202-0.11-0.067-0.279c0-1.184-0.778-1.056-0.778-1.056s-0.093-0.211-0.246-0.186c-0.152,0.025-0.16,0.202-0.271,0.186 c-0.11-0.017-0.135-0.093-0.143-0.084c-0.008,0.008-0.101,0.177-0.101,0.219c0,0.042-0.296-0.059-0.271,0.16 C29.08,21.784,29.224,21.775,29.215,21.758L29.215,21.758z"/><path fill="#263238" d="M30.397,23.191c-0.021,0-0.041-0.005-0.058-0.014c-0.053-0.028-0.07-0.088-0.082-0.132 c-0.002-0.008-0.005-0.018-0.007-0.025c-0.053-0.014-0.1-0.079-0.151-0.155c-0.008-0.013-0.015-0.022-0.02-0.029 c-0.032-0.042-0.008-0.104,0.02-0.174c0.008-0.021,0.021-0.053,0.021-0.062c-0.003-0.005-0.033-0.036-0.051-0.056 c-0.014-0.015-0.029-0.03-0.04-0.045c-0.043-0.054,0.002-0.116,0.036-0.162c0.008-0.011,0.019-0.025,0.024-0.035 c-0.014-0.006-0.043-0.013-0.069-0.019c-0.024-0.005-0.052-0.012-0.083-0.02c-0.034-0.01-0.06-0.031-0.075-0.062 c-0.041-0.082-0.004-0.222,0.022-0.301c-0.032-0.017-0.073-0.05-0.118-0.113c-0.035-0.048-0.097-0.102-0.239-0.02 c-0.096,0.054-0.241,0.049-0.298,0.042c-0.019,0.008-0.043,0.008-0.07,0c-0.04-0.012-0.135-0.06-0.158-0.241 c-0.007-0.061,0.006-0.109,0.038-0.145c0.058-0.062,0.158-0.066,0.219-0.06c0.007,0,0.014,0,0.021,0 c0.023-0.077,0.097-0.205,0.107-0.216l0.016-0.018l0.025,0.001c0.023,0.002,0.037,0.018,0.046,0.029 c0.015,0.018,0.04,0.048,0.1,0.057c0.002,0.001,0.004,0.001,0.006,0.001c0.018,0,0.032-0.014,0.064-0.057 c0.037-0.048,0.087-0.113,0.184-0.13c0.012-0.002,0.023-0.002,0.034-0.002c0.129,0,0.214,0.123,0.248,0.185 c0.086-0.009,0.29,0.001,0.475,0.157c0.21,0.18,0.319,0.49,0.324,0.924c0.096,0.065,0.143,0.134,0.141,0.204 c-0.002,0.075-0.063,0.127-0.099,0.146c-0.011,0.005-0.086,0.033-0.12,0.147c-0.037,0.125-0.144,0.175-0.203,0.193 c-0.011,0.065-0.055,0.154-0.175,0.194C30.436,23.188,30.416,23.191,30.397,23.191z M30.277,22.924 c0.051,0,0.067,0.058,0.077,0.096c0.007,0.026,0.017,0.062,0.032,0.07c0.008,0.003,0.021,0.002,0.039-0.004 c0.114-0.037,0.109-0.134,0.109-0.135l-0.003-0.045l0.045-0.008c0.005,0,0.13-0.022,0.163-0.132 c0.047-0.162,0.163-0.207,0.175-0.211l0,0c-0.002,0,0.039-0.025,0.039-0.06c0.001-0.035-0.042-0.083-0.117-0.131l-0.023-0.015 v-0.027c0-0.417-0.097-0.711-0.288-0.873c-0.197-0.169-0.429-0.135-0.433-0.133l-0.038,0.006l-0.016-0.035 c0-0.002-0.073-0.158-0.175-0.158c-0.005,0-0.011,0.001-0.016,0.002c-0.058,0.009-0.089,0.049-0.122,0.092 c-0.036,0.048-0.076,0.104-0.165,0.094c-0.059-0.01-0.099-0.033-0.125-0.056c-0.024,0.049-0.06,0.121-0.062,0.142v0.021 l-0.017,0.019c-0.021,0.021-0.049,0.021-0.099,0.021c-0.044,0-0.116-0.003-0.143,0.027c-0.012,0.013-0.016,0.035-0.013,0.065 c0.01,0.083,0.038,0.124,0.062,0.144l0.058,0.008c0.047,0.007,0.184,0.013,0.256-0.026c0.205-0.124,0.32-0.023,0.37,0.047 c0.062,0.086,0.101,0.09,0.101,0.09l0.085-0.012l-0.037,0.08c-0.033,0.083-0.069,0.221-0.045,0.27 c0.003,0.007,0.007,0.009,0.012,0.011c0.03,0.008,0.057,0.014,0.08,0.019c0.08,0.019,0.138,0.031,0.151,0.096 c0.008,0.04-0.019,0.076-0.047,0.115c-0.01,0.014-0.026,0.035-0.032,0.049c0.009,0.01,0.019,0.02,0.028,0.03 c0.034,0.037,0.066,0.071,0.076,0.106c0.007,0.029-0.004,0.06-0.026,0.116c-0.009,0.023-0.026,0.066-0.028,0.085 c0.005,0.007,0.011,0.016,0.018,0.026C30.2,22.836,30.253,22.915,30.277,22.924L30.277,22.924z"/></g><g><path fill="#ffc107" d="M37.871,35.228c-0.694-0.248-1.265-1.412-1.661-1.512c-0.397-0.099-0.892,0.596-0.867,0.62 c0.025,0.025-2.28,2.603-5.85,2.702c-3.197,0.198-6.073-3.098-6.073-3.098s-0.471-0.422-0.719-0.174 c-0.124,0.446-1.215,1.289-1.215,1.289s-0.446,0.273-0.397,0.694c0.05,0.421,0.694,0.843,0.843,0.867 c0.148,0.024,0.446-0.298,0.446-0.298l0.273-0.298c0,0,3.124,2.999,6.916,2.975c3.668,0.124,6.841-2.975,6.841-2.975 s0.198-0.074,0.298,0.322c0.099,0.397,0.769,0.124,0.917,0.025C37.772,36.269,38.218,35.773,37.871,35.228z"/><path fill="#fff" d="M29.786,39.149c-0.075,0-0.149-0.001-0.224-0.003c-0.016,0-0.031,0-0.046,0 c-3.379,0-6.257-2.384-6.855-2.913l-0.171,0.188c-0.132,0.144-0.374,0.373-0.582,0.345C21.698,36.73,21,36.268,20.94,35.768 c-0.061-0.511,0.445-0.826,0.467-0.84c0.393-0.305,1.068-0.911,1.148-1.201l0.011-0.038l0.028-0.028 c0.277-0.272,0.712-0.023,0.925,0.169c0.04,0.044,2.717,3.067,5.696,3.067c0.089,0,0.178-0.003,0.268-0.008 c3.396-0.095,5.553-2.423,5.72-2.614c0.005-0.016,0.013-0.032,0.023-0.05c0.074-0.132,0.552-0.771,1.02-0.654 c0.225,0.057,0.438,0.314,0.708,0.641c0.291,0.353,0.621,0.752,0.968,0.875l0.049,0.018l0.027,0.044 c0.392,0.614-0.076,1.201-0.291,1.346c-0.126,0.084-0.592,0.288-0.896,0.174c-0.129-0.05-0.215-0.149-0.25-0.287 c-0.033-0.13-0.073-0.185-0.097-0.204C36.042,36.572,33.174,39.149,29.786,39.149z M29.566,38.846 c3.58,0.134,6.707-2.901,6.737-2.932l0.052-0.033c0.019-0.008,0.121-0.04,0.237,0.021c0.12,0.063,0.207,0.199,0.259,0.405 c0.011,0.042,0.03,0.064,0.066,0.079c0.164,0.063,0.511-0.068,0.622-0.144c0.089-0.06,0.475-0.449,0.229-0.895 c-0.401-0.167-0.743-0.58-1.046-0.946c-0.197-0.238-0.42-0.509-0.549-0.541c-0.226-0.061-0.589,0.353-0.676,0.493l-0.016,0.039 c-0.072,0.182-2.429,2.695-5.985,2.795c-0.098,0.006-0.195,0.009-0.292,0.009c-3.107,0-5.783-3.025-5.899-3.158 c-0.096-0.083-0.356-0.257-0.478-0.184c-0.184,0.484-1.14,1.232-1.251,1.319c-0.017,0.011-0.377,0.239-0.339,0.558 c0.039,0.326,0.592,0.709,0.719,0.737c0.041-0.008,0.197-0.13,0.311-0.252l0.376-0.411l0.111,0.106 c0.031,0.029,3.101,2.934,6.767,2.934C29.536,38.847,29.551,38.847,29.566,38.846z"/></g></svg>