<svg xmlns="http://www.w3.org/2000/svg"  viewBox="0 0 48 48" width="500px" height="500px"><path fill="#fdd835" d="M24,5c3.212,0,6.237-0.243,8.927,1.103C39.486,9.385,43.989,16.167,43.989,24 c0,11.046-8.954,20-20,20s-20-8.954-20-20C6,13,12.954,5,24,5z"/><path fill="#283593" d="M3.998,23.742C3.997,23.828,3.989,23.913,3.989,24h10.302v-6.413L3.998,23.742z"/><path fill="#283593" d="M14.291,9.846V6.505c-0.915,0.508-1.78,1.094-2.599,1.734L14.291,9.846z"/><path fill="#283593" d="M20.109,10.282l9.214-5.555C27.626,4.255,25.838,4,23.989,4c-1.328,0-2.625,0.131-3.88,0.378 V10.282z"/><path fill="#283593" d="M7.139,16.857H5.314c-0.17,0.444-0.325,0.894-0.463,1.352L7.139,16.857z"/><polygon fill="#283593" points="27.044,11.143 33.201,11.143 33.201,7.423"/><polygon fill="#283593" points="33.201,19.985 33.201,16.857 27.99,16.857"/><polygon fill="#283593" points="20.109,24 31.521,24 20.109,17.15"/><path fill="#fff" d="M33.201,6.258c-1.214-0.635-2.501-1.15-3.846-1.526l-9.245,5.549V4.383 c-2.073,0.408-4.029,1.136-5.818,2.131v3.332L11.665,8.27c-2.826,2.218-5.032,5.176-6.339,8.587h1.813l-2.298,1.379 c-0.527,1.753-0.817,3.607-0.84,5.527l10.29-6.177V24h5.818v-6.85L31.521,24h1.679v-4.015l-5.211-3.128h5.211v-5.714h-6.156 l6.156-3.696V6.258z"/><path fill="#e53935" d="M8.961,10.832l0.517,0.31h2.79L9.959,9.756C9.61,10.1,9.284,10.464,8.961,10.832z"/><path fill="#e53935" d="M31.972,5.673c-0.553-0.243-1.118-0.464-1.696-0.656l-10.205,6.126h2.789L31.972,5.673z"/><polygon fill="#e53935" points="23.806,16.857 33.201,22.496 33.201,20.822 26.595,16.857"/><path fill="#e53935" d="M18.655,4.742c-1.004,0.278-1.975,0.628-2.909,1.051v6.779H7.589 c-0.628,0.9-1.174,1.858-1.649,2.857h9.806V24h2.909v-8.572h14.546v-2.857H18.655V4.742z"/><path fill="#e53935" d="M4.22,21.12c-0.085,0.586-0.142,1.179-0.175,1.78l10.067-6.043h-2.789L4.22,21.12z"/><g><polygon fill="#fdd835" points="8.848,12.534 9.213,13.611 10.349,13.625 9.438,14.305 9.776,15.39 8.848,14.733 7.92,15.39 8.258,14.305 7.347,13.625 8.483,13.611"/></g><g><polygon fill="#fdd835" points="17.21,6.705 17.574,7.781 18.711,7.795 17.8,8.475 18.138,9.56 17.21,8.903 16.282,9.56 16.62,8.475 15.709,7.795 16.845,7.781"/></g><g><polygon fill="#fdd835" points="17.21,18.428 17.574,19.505 18.711,19.519 17.8,20.198 18.138,21.284 17.21,20.627 16.282,21.284 16.62,20.198 15.709,19.519 16.845,19.505"/></g><g><polygon fill="#fdd835" points="26.274,12.534 26.638,13.611 27.775,13.625 26.864,14.305 27.202,15.39 26.274,14.733 25.346,15.39 25.684,14.305 24.773,13.625 25.909,13.611"/></g><g><circle cx="17.2" cy="14" r="2.667" fill="#283593"/></g><g><polygon fill="#fdd835" points="17.166,11.328 17.769,13.107 19.647,13.131 18.141,14.254 18.7,16.047 17.166,14.962 15.633,16.047 16.191,14.254 14.685,13.131 16.563,13.107"/></g></svg>