<svg xmlns="http://www.w3.org/2000/svg"  viewBox="0 0 48 48" width="100px" height="100px"><circle cx="24" cy="24" r="20" fill="#283593"/><path fill="#ffcdd2" d="M33.272,34.981c0,0,1.287,0.663,1.084,1.095s-0.975-0.042-1.253-0.358 c-0.635,0.229-0.937-0.99-0.937-0.99s-1.263-0.114-0.978-1.078c-0.888-0.955,0.249-1.433,0.249-1.433s0.19-1.224,1.434-0.814 s0.226,1.534,0.226,1.534s0.643,0.427,0.218,0.879C33.94,34.54,33.272,34.981,33.272,34.981z"/><path fill="#263238" d="M34.066,36.299c-0.323,0-0.762-0.29-0.979-0.522c-0.127,0.037-0.251,0.024-0.367-0.038 c-0.362-0.193-0.552-0.811-0.595-0.964c-0.143-0.019-0.672-0.11-0.912-0.464c-0.122-0.18-0.149-0.396-0.081-0.646 c-0.269-0.297-0.375-0.58-0.318-0.844c0.081-0.38,0.474-0.589,0.578-0.639c0.023-0.114,0.134-0.552,0.504-0.778 c0.265-0.163,0.597-0.178,0.991-0.048c0.354,0.117,0.565,0.303,0.631,0.552c0.11,0.419-0.232,0.881-0.348,1.021 c0.095,0.074,0.309,0.266,0.337,0.509c0.016,0.134-0.027,0.261-0.126,0.38c0.192,0.235,0.274,0.468,0.244,0.69 c-0.032,0.231-0.178,0.39-0.264,0.465c0.288,0.156,1.235,0.707,1.039,1.125c-0.052,0.111-0.145,0.18-0.268,0.197 C34.112,36.298,34.09,36.299,34.066,36.299z M33.118,35.66l0.022,0.025c0.195,0.222,0.635,0.514,0.926,0.514 c0.019,0,0.036-0.001,0.054-0.004c0.09-0.013,0.152-0.059,0.191-0.141c0.149-0.318-0.717-0.851-1.062-1.028l-0.076-0.039 l0.071-0.048c0.002-0.001,0.244-0.165,0.282-0.446c0.028-0.203-0.056-0.42-0.249-0.645l-0.029-0.033l0.031-0.033 c0.099-0.105,0.143-0.218,0.129-0.333c-0.03-0.262-0.335-0.468-0.338-0.47l-0.049-0.032l0.039-0.043 c0.005-0.006,0.478-0.534,0.361-0.973c-0.057-0.214-0.247-0.375-0.565-0.48c-0.364-0.121-0.67-0.108-0.907,0.037 c-0.379,0.231-0.462,0.731-0.462,0.736l-0.005,0.027l-0.025,0.011c-0.005,0.002-0.464,0.2-0.545,0.579 c-0.051,0.236,0.055,0.496,0.312,0.774l0.02,0.021l-0.008,0.027c-0.068,0.23-0.049,0.43,0.06,0.589 c0.246,0.363,0.868,0.424,0.875,0.425l0.035,0.003l0.009,0.035c0.002,0.007,0.187,0.737,0.553,0.934 c0.102,0.054,0.205,0.062,0.319,0.021L33.118,35.66z"/><path fill="#00c853" d="M34.315,30.251c0,0,0.727,2.047,0.135,3.852c0.862-0.808,1.239-2.37,0.646-3.717 c0.593,0.754,0.862,1.643,0.646,2.613c0.862-1.185,0.189-2.909-0.512-3.582C34.53,28.742,34.315,30.251,34.315,30.251z"/><path fill="#263238" d="M34.341,34.272l0.061-0.186c0.581-1.768-0.126-3.799-0.133-3.819l-0.004-0.012l0.001-0.012 c0.006-0.037,0.133-0.899,0.522-1.033c0.144-0.052,0.307,0.005,0.478,0.169c0.67,0.644,1.415,2.413,0.517,3.647l-0.141,0.194 l0.052-0.234c0.174-0.782,0.029-1.558-0.419-2.263c0.37,1.206,0.059,2.617-0.791,3.414L34.341,34.272z M34.366,30.246 c0.057,0.166,0.651,1.998,0.189,3.677c0.793-0.875,1.01-2.347,0.494-3.517l-0.159-0.362l0.244,0.311 c0.578,0.735,0.818,1.562,0.702,2.402c0.646-1.17-0.031-2.719-0.641-3.305c-0.142-0.136-0.27-0.185-0.376-0.147 C34.55,29.398,34.403,30.005,34.366,30.246z"/><path fill="#ffcdd2" d="M15.332,32.514c0,0-0.805,0.463-1.08-0.248c-0.937,0.493-1.609-0.264-1.609-0.264 s-0.101,0.521-0.813,0.547c-0.484,0.775-0.86,0.945-1.112,0.81s0.498-0.834,0.498-0.834s0.042-1.613,1.213-1.331 c0.474-1.298,1.334-0.806,1.334-0.806s1.255-1.147,1.857,0.262C16.315,31.264,16.466,32.28,15.332,32.514z"/><path fill="#263238" d="M10.887,33.452c-0.074,0-0.139-0.02-0.193-0.049c-0.044-0.023-0.07-0.062-0.077-0.11 c-0.029-0.227,0.444-0.689,0.551-0.79c0.006-0.139,0.062-0.89,0.504-1.229c0.196-0.15,0.439-0.199,0.727-0.139 c0.171-0.448,0.409-0.73,0.707-0.84c0.298-0.11,0.562-0.009,0.65,0.033c0.125-0.106,0.66-0.523,1.183-0.412 c0.307,0.066,0.551,0.304,0.725,0.703c0.424,0.38,0.63,0.882,0.523,1.281c-0.062,0.234-0.258,0.538-0.836,0.66 c-0.059,0.031-0.439,0.233-0.773,0.114c-0.154-0.055-0.271-0.169-0.35-0.341c-0.777,0.379-1.377-0.073-1.562-0.241 c-0.063,0.154-0.26,0.475-0.808,0.505C11.437,33.265,11.115,33.452,10.887,33.452z M12.168,31.212 c-0.166,0-0.312,0.047-0.436,0.142c-0.439,0.337-0.467,1.165-0.467,1.173v0.021l-0.016,0.014 c-0.217,0.202-0.553,0.575-0.534,0.719c0.002,0.017,0.009,0.026,0.024,0.035c0.267,0.14,0.638-0.138,1.047-0.792l0.014-0.022 l0.026-0.001c0.662-0.024,0.763-0.488,0.767-0.508l0.02-0.098l0.066,0.074c0.027,0.029,0.66,0.72,1.549,0.254l0.05-0.026 l0.021,0.053c0.065,0.171,0.171,0.282,0.311,0.332c0.307,0.112,0.693-0.109,0.698-0.11l0.015-0.006 c0.422-0.087,0.688-0.291,0.767-0.589c0.098-0.366-0.1-0.833-0.502-1.188l-0.013-0.018c-0.16-0.375-0.382-0.595-0.657-0.654 c-0.535-0.117-1.114,0.404-1.12,0.41L13.77,30.45l-0.031-0.019c-0.002-0.001-0.288-0.154-0.601-0.041 c-0.278,0.102-0.5,0.378-0.662,0.821l-0.016,0.041l-0.043-0.01C12.33,31.222,12.247,31.212,12.168,31.212z"/><path fill="#00c853" d="M14.114,31.598c0,0-0.485,2.209,0.673,3.582c-0.431-1.535,0.242-2.747,0.242-2.747 s-0.269,1.32,0.242,1.966c0.512,0.646,0.943,0.97,1.077,1.616c0.377-0.646-0.081-1.481-0.458-1.751 c-0.377-0.269,0.054-1.885,0.054-1.885l-0.943-1.481L14.114,31.598z"/><path fill="#263238" d="M16.327,36.152l-0.026-0.128c-0.098-0.467-0.359-0.768-0.691-1.147 c-0.12-0.138-0.244-0.28-0.377-0.447c-0.353-0.446-0.349-1.186-0.305-1.632c-0.166,0.462-0.379,1.346-0.093,2.368l0.062,0.222 l-0.148-0.176c-1.161-1.376-0.689-3.603-0.685-3.625l0.004-0.018l0.947-0.745l0.029,0.047l0.954,1.499l-0.006,0.021 c-0.117,0.44-0.358,1.628-0.072,1.831c0.377,0.271,0.871,1.132,0.472,1.817L16.327,36.152z M15.144,32.125l-0.065,0.317 c-0.003,0.014-0.259,1.305,0.232,1.925c0.131,0.165,0.255,0.307,0.374,0.444c0.31,0.354,0.561,0.642,0.681,1.06 c0.254-0.612-0.173-1.331-0.503-1.566c-0.38-0.271-0.035-1.672,0.029-1.917l-0.901-1.417l-0.832,0.655 c-0.039,0.198-0.374,2.057,0.523,3.334c-0.308-1.427,0.298-2.54,0.304-2.552L15.144,32.125z"/><path fill="#bdbdbd" d="M19.008,33.415c0,0-0.392,0.796-0.104,1.964s2.295,0.371,1.799-1.575 c1.137-1.348,1.267-2.029,0.574-2.462C20.15,30.637,19.133,32.95,19.008,33.415z"/><path fill="#263238" d="M19.568,35.975c-0.074,0-0.147-0.01-0.217-0.03c-0.249-0.071-0.426-0.268-0.496-0.554 c-0.281-1.14,0.07-1.92,0.105-1.993c0.104-0.378,0.745-1.854,1.562-2.175c0.268-0.104,0.531-0.079,0.781,0.077 c0.259,0.161,0.402,0.354,0.439,0.59c0.069,0.439-0.234,1.035-0.984,1.927c0.178,0.726,0.029,1.384-0.408,1.809 C20.118,35.851,19.834,35.975,19.568,35.975z M20.842,31.26c-0.093,0-0.188,0.019-0.283,0.056 c-0.783,0.309-1.405,1.752-1.503,2.112l-0.003,0.01c-0.004,0.008-0.38,0.795-0.1,1.93c0.062,0.253,0.21,0.419,0.426,0.481 c0.283,0.079,0.634-0.036,0.902-0.296c0.196-0.19,0.627-0.742,0.374-1.736l-0.006-0.025l0.017-0.02 c0.731-0.867,1.042-1.46,0.979-1.867c-0.032-0.204-0.161-0.375-0.394-0.521C21.118,31.301,20.981,31.26,20.842,31.26z"/><path fill="#bdbdbd" d="M17.823,32.841c0,0-0.392,0.796-0.104,1.964s2.295,0.371,1.799-1.575 c1.137-1.348,1.267-2.029,0.574-2.462C18.964,30.062,17.948,32.376,17.823,32.841z"/><path fill="#263238" d="M18.383,35.399c-0.074,0-0.147-0.01-0.217-0.029c-0.249-0.071-0.426-0.269-0.496-0.554 c-0.281-1.14,0.071-1.92,0.106-1.993c0.104-0.378,0.745-1.854,1.562-2.175c0.268-0.104,0.531-0.079,0.781,0.077 c0.259,0.161,0.402,0.354,0.438,0.589c0.069,0.44-0.234,1.035-0.984,1.928c0.178,0.726,0.029,1.383-0.408,1.808 C18.933,35.275,18.648,35.399,18.383,35.399z M19.657,30.686c-0.093,0-0.188,0.019-0.283,0.056 c-0.783,0.309-1.405,1.752-1.503,2.112l-0.003,0.01c-0.004,0.008-0.381,0.795-0.101,1.93c0.062,0.252,0.209,0.419,0.426,0.48 c0.281,0.085,0.635-0.035,0.902-0.296c0.197-0.19,0.627-0.742,0.374-1.735l-0.006-0.025l0.017-0.02 c0.731-0.867,1.043-1.461,0.979-1.867c-0.032-0.205-0.16-0.375-0.393-0.521C19.934,30.727,19.797,30.686,19.657,30.686z"/><path fill="#bdbdbd" d="M16.66,32.139c0,0-0.474,0.75-0.311,1.942c0.163,1.192,2.243,0.612,1.956-1.376 c1.273-1.22,1.475-1.883,0.831-2.388C18.089,29.496,16.833,31.689,16.66,32.139z"/><path fill="#263238" d="M17.039,34.747c-0.107,0-0.21-0.019-0.306-0.058c-0.24-0.098-0.395-0.312-0.435-0.603 c-0.159-1.162,0.274-1.901,0.316-1.971c0.143-0.365,0.936-1.764,1.782-1.998c0.275-0.077,0.535-0.024,0.77,0.159 c0.239,0.188,0.362,0.396,0.374,0.633c0.021,0.445-0.344,1.005-1.184,1.812c0.1,0.74-0.117,1.379-0.597,1.754 C17.535,34.653,17.278,34.747,17.039,34.747z M18.637,30.185c-0.069,0-0.141,0.01-0.213,0.03 c-0.813,0.225-1.583,1.594-1.717,1.941l-0.005,0.009c-0.004,0.008-0.463,0.751-0.304,1.908c0.035,0.258,0.164,0.439,0.373,0.523 c0.271,0.11,0.634,0.031,0.928-0.198c0.216-0.169,0.702-0.672,0.556-1.688l-0.003-0.025l0.019-0.018 c0.818-0.784,1.19-1.342,1.171-1.753c-0.011-0.207-0.12-0.39-0.337-0.56C18.96,30.242,18.803,30.185,18.637,30.185z"/><path fill="#bdbdbd" d="M15.977,31.672c0,0-0.474,0.75-0.311,1.942c0.163,1.192,2.243,0.612,1.956-1.376 c1.273-1.22,1.475-1.883,0.831-2.388C17.406,29.029,16.151,31.222,15.977,31.672z"/><path fill="#263238" d="M16.356,34.28c-0.106,0-0.21-0.019-0.306-0.058c-0.24-0.098-0.395-0.312-0.435-0.603 c-0.158-1.162,0.274-1.901,0.316-1.971c0.143-0.364,0.936-1.764,1.782-1.998c0.274-0.076,0.536-0.024,0.77,0.159 c0.239,0.188,0.362,0.396,0.374,0.633c0.021,0.445-0.344,1.005-1.184,1.812c0.101,0.74-0.116,1.379-0.596,1.754 C16.854,34.187,16.596,34.28,16.356,34.28z M17.954,29.718c-0.069,0-0.141,0.01-0.213,0.03c-0.813,0.225-1.583,1.594-1.717,1.941 l-0.005,0.009c-0.004,0.008-0.462,0.751-0.304,1.908c0.035,0.258,0.164,0.439,0.373,0.523c0.273,0.112,0.636,0.031,0.929-0.198 c0.216-0.17,0.701-0.672,0.555-1.688l-0.003-0.025l0.019-0.018c0.818-0.784,1.19-1.342,1.171-1.753 c-0.011-0.207-0.12-0.39-0.337-0.56C18.277,29.775,18.12,29.718,17.954,29.718z"/><path fill="#bdbdbd" d="M15.009,30.68c0,0-0.554,0.693-0.523,1.896c0.031,1.203,2.162,0.855,2.096-1.152 c1.4-1.073,1.673-1.709,1.089-2.282C16.72,28.211,15.23,30.253,15.009,30.68z"/><path fill="#263238" d="M15.203,33.32c-0.145,0-0.282-0.032-0.402-0.097c-0.228-0.123-0.357-0.353-0.365-0.646 c-0.029-1.174,0.481-1.861,0.531-1.925c0.183-0.347,1.126-1.65,1.991-1.789c0.289-0.041,0.537,0.037,0.747,0.242 c0.218,0.214,0.317,0.433,0.303,0.67c-0.027,0.445-0.451,0.961-1.376,1.673c0.018,0.746-0.268,1.356-0.785,1.677 C15.638,33.254,15.413,33.32,15.203,33.32z M17.106,28.951c-0.043,0-0.087,0.004-0.132,0.011 c-0.832,0.133-1.749,1.41-1.922,1.741l-0.005,0.008c-0.006,0.007-0.542,0.695-0.513,1.864c0.007,0.26,0.115,0.454,0.313,0.561 c0.256,0.139,0.627,0.102,0.945-0.096c0.232-0.145,0.771-0.59,0.737-1.614l-0.001-0.026l0.021-0.016 c0.901-0.69,1.332-1.203,1.357-1.614c0.012-0.206-0.077-0.4-0.273-0.592C17.481,29.027,17.304,28.951,17.106,28.951z"/><path fill="#bdbdbd" d="M14.148,29.433c0,0-0.652,0.602-0.802,1.796s2.008,1.17,2.245-0.824 c1.545-0.85,1.911-1.438,1.42-2.092C16.211,27.25,14.432,29.044,14.148,29.433z"/><path fill="#263238" d="M14.103,32.085c-0.205,0-0.396-0.057-0.542-0.168c-0.207-0.156-0.301-0.402-0.265-0.693 c0.146-1.165,0.756-1.768,0.814-1.823c0.232-0.315,1.359-1.462,2.237-1.47c0.003,0,0.006,0,0.009,0 c0.285,0,0.519,0.119,0.694,0.353c0.184,0.244,0.248,0.476,0.198,0.708c-0.094,0.436-0.591,0.882-1.611,1.445 c-0.095,0.741-0.469,1.302-1.029,1.54C14.439,32.049,14.266,32.085,14.103,32.085z M16.355,28.031c-0.002,0-0.005,0-0.007,0 c-0.844,0.007-1.94,1.131-2.16,1.432l-0.006,0.008c-0.007,0.006-0.642,0.604-0.787,1.765c-0.033,0.259,0.045,0.467,0.225,0.603 c0.231,0.175,0.604,0.195,0.949,0.047c0.252-0.107,0.852-0.467,0.972-1.485l0.003-0.025l0.022-0.013 c0.995-0.547,1.498-0.989,1.585-1.392c0.043-0.202-0.016-0.407-0.181-0.626C16.814,28.136,16.608,28.031,16.355,28.031z"/><path fill="#bdbdbd" d="M13.376,28.342c0,0-0.623,0.575-0.767,1.716s1.919,1.118,2.145-0.788 c1.477-0.812,1.826-1.374,1.357-1.999C15.347,26.255,13.646,27.97,13.376,28.342z"/><path fill="#263238" d="M13.332,30.877c-0.196,0-0.379-0.054-0.52-0.16c-0.198-0.149-0.288-0.386-0.253-0.665 c0.141-1.113,0.722-1.688,0.778-1.743c0.223-0.302,1.3-1.398,2.14-1.405c0.003,0,0.006,0,0.009,0 c0.272,0,0.496,0.113,0.665,0.337c0.176,0.234,0.237,0.456,0.189,0.679c-0.09,0.417-0.565,0.844-1.54,1.382 c-0.091,0.709-0.449,1.245-0.985,1.474C13.653,30.844,13.488,30.877,13.332,30.877z M15.486,27.003c-0.003,0-0.005,0-0.008,0 c-0.806,0.007-1.853,1.08-2.062,1.368l-0.006,0.008c-0.006,0.005-0.612,0.578-0.751,1.685c-0.031,0.246,0.043,0.444,0.214,0.573 c0.222,0.169,0.575,0.185,0.903,0.046c0.24-0.103,0.812-0.446,0.928-1.419l0.003-0.025l0.022-0.013 c0.95-0.521,1.431-0.943,1.514-1.327c0.042-0.193-0.015-0.389-0.172-0.598C15.923,27.104,15.726,27.003,15.486,27.003z"/><path fill="#bdbdbd" d="M12.801,27.085c0,0-0.623,0.575-0.767,1.716c-0.144,1.141,1.919,1.118,2.145-0.788 c1.477-0.812,1.826-1.374,1.357-1.999C14.772,24.998,13.072,26.713,12.801,27.085z"/><path fill="#263238" d="M12.758,29.62c-0.197,0-0.379-0.054-0.52-0.16c-0.199-0.149-0.289-0.386-0.254-0.665 c0.142-1.113,0.722-1.689,0.779-1.743c0.223-0.303,1.303-1.399,2.141-1.405c0.002,0,0.005,0,0.007,0 c0.273,0,0.497,0.113,0.665,0.337c0.176,0.233,0.237,0.456,0.189,0.679c-0.089,0.416-0.564,0.843-1.539,1.382 c-0.091,0.709-0.449,1.244-0.984,1.474C13.08,29.586,12.914,29.62,12.758,29.62z M14.911,25.746c-0.002,0-0.004,0-0.006,0 c-0.804,0.006-1.854,1.08-2.064,1.368l-0.006,0.008c-0.006,0.005-0.611,0.578-0.751,1.685c-0.031,0.246,0.043,0.444,0.214,0.573 c0.222,0.168,0.578,0.187,0.904,0.045c0.241-0.103,0.812-0.446,0.928-1.418l0.003-0.025l0.022-0.013 c0.95-0.522,1.431-0.944,1.513-1.328c0.042-0.192-0.015-0.388-0.172-0.597C15.348,25.847,15.151,25.746,14.911,25.746z"/><path fill="#8d6e63" d="M21.718,33.196c0,0-4.776,0.072-7.542-5.926c-0.646,0.108-0.754,0.431-0.754,0.431 s1.257,5.495,7.829,6.859C21.503,34.165,21.718,33.196,21.718,33.196z"/><path fill="#263238" d="M21.275,34.616l-0.033-0.007c-6.528-1.355-7.855-6.842-7.868-6.897l-0.003-0.014l0.004-0.013 c0.005-0.015,0.125-0.354,0.794-0.465l0.037-0.007l0.016,0.035c2.69,5.834,7.35,5.896,7.493,5.896c0.002,0,0.003,0,0.003,0 l0.063-0.001l-0.014,0.062c-0.009,0.04-0.221,0.983-0.474,1.381L21.275,34.616z M13.476,27.705 c0.082,0.324,1.489,5.48,7.752,6.799c0.201-0.341,0.379-1.05,0.429-1.26c-0.577-0.021-4.932-0.367-7.509-5.919 C13.644,27.42,13.502,27.65,13.476,27.705z"/><path fill="#bdbdbd" d="M28.851,33.415c0,0,0.392,0.796,0.104,1.964s-2.295,0.371-1.799-1.575 c-1.137-1.348-1.267-2.029-0.574-2.462C27.71,30.637,28.727,32.95,28.851,33.415z"/><path fill="#263238" d="M28.291,35.975c-0.265,0-0.549-0.124-0.781-0.35c-0.438-0.425-0.586-1.082-0.408-1.809 c-0.75-0.892-1.054-1.487-0.985-1.927c0.037-0.235,0.181-0.429,0.439-0.59c0.249-0.156,0.514-0.182,0.781-0.077 c0.816,0.321,1.458,1.797,1.562,2.175c0.035,0.073,0.387,0.854,0.105,1.993c-0.07,0.286-0.247,0.482-0.496,0.554 C28.438,35.965,28.365,35.975,28.291,35.975z M27.018,31.26c-0.14,0-0.276,0.041-0.409,0.124 c-0.232,0.146-0.361,0.316-0.394,0.521c-0.063,0.407,0.248,1,0.979,1.867l0.017,0.02l-0.006,0.025 c-0.253,0.994,0.177,1.546,0.374,1.736c0.268,0.26,0.621,0.375,0.901,0.296c0.216-0.062,0.363-0.229,0.426-0.481 c0.28-1.135-0.096-1.922-0.1-1.93l-0.003-0.01c-0.098-0.36-0.72-1.804-1.503-2.112C27.205,31.278,27.11,31.26,27.018,31.26z"/><path fill="#bdbdbd" d="M30.036,32.841c0,0,0.392,0.796,0.104,1.964c-0.288,1.168-2.295,0.371-1.799-1.575 c-1.137-1.348-1.267-2.029-0.574-2.462C28.895,30.062,29.912,32.376,30.036,32.841z"/><path fill="#263238" d="M29.477,35.399c-0.266,0-0.55-0.124-0.782-0.35c-0.438-0.425-0.586-1.082-0.408-1.808 c-0.75-0.893-1.054-1.487-0.984-1.928c0.037-0.234,0.181-0.428,0.439-0.589c0.25-0.156,0.513-0.183,0.782-0.076 c0.817,0.322,1.457,1.796,1.56,2.174c0.035,0.073,0.387,0.854,0.106,1.993c-0.07,0.285-0.247,0.482-0.496,0.554 C29.624,35.39,29.551,35.399,29.477,35.399z M28.203,30.686c-0.14,0-0.276,0.041-0.409,0.124 c-0.232,0.146-0.361,0.316-0.394,0.521c-0.064,0.406,0.247,1,0.979,1.867l0.017,0.02l-0.006,0.025 c-0.253,0.993,0.177,1.545,0.374,1.735c0.268,0.261,0.621,0.381,0.902,0.296c0.217-0.062,0.363-0.229,0.426-0.48 c0.28-1.135-0.097-1.922-0.101-1.93l-0.003-0.01c-0.097-0.359-0.716-1.802-1.502-2.111 C28.392,30.704,28.297,30.686,28.203,30.686z"/><path fill="#bdbdbd" d="M31.2,32.139c0,0,0.474,0.75,0.311,1.942c-0.163,1.192-2.243,0.612-1.956-1.376 c-1.273-1.22-1.475-1.883-0.831-2.388C29.771,29.496,31.027,31.689,31.2,32.139z"/><path fill="#263238" d="M30.82,34.747c-0.238,0-0.496-0.094-0.722-0.27c-0.479-0.376-0.696-1.015-0.597-1.755 c-0.84-0.808-1.205-1.367-1.184-1.812c0.012-0.237,0.135-0.444,0.374-0.633c0.231-0.183,0.492-0.237,0.769-0.159 c0.845,0.232,1.641,1.633,1.784,1.998c0.042,0.068,0.475,0.808,0.315,1.971c-0.04,0.291-0.194,0.505-0.435,0.603 C31.031,34.729,30.928,34.747,30.82,34.747z M29.223,30.185c-0.166,0-0.323,0.058-0.468,0.171 c-0.217,0.17-0.326,0.353-0.337,0.56c-0.02,0.411,0.353,0.969,1.171,1.753l0.019,0.018l-0.003,0.025 c-0.146,1.016,0.34,1.519,0.556,1.688c0.295,0.23,0.659,0.309,0.929,0.198c0.209-0.084,0.337-0.266,0.372-0.523 c0.159-1.157-0.299-1.9-0.303-1.908l-0.005-0.009c-0.135-0.348-0.906-1.719-1.719-1.941 C29.362,30.194,29.292,30.185,29.223,30.185z"/><path fill="#bdbdbd" d="M31.882,31.672c0,0,0.474,0.75,0.311,1.942c-0.163,1.192-2.243,0.612-1.956-1.376 c-1.273-1.22-1.475-1.883-0.831-2.388C30.453,29.029,31.709,31.222,31.882,31.672z"/><path fill="#263238" d="M31.503,34.28c-0.239,0-0.496-0.094-0.722-0.271c-0.479-0.375-0.696-1.014-0.597-1.754 c-0.84-0.808-1.205-1.367-1.184-1.812c0.012-0.237,0.135-0.444,0.374-0.633c0.233-0.184,0.491-0.235,0.77-0.159 c0.847,0.234,1.64,1.633,1.782,1.998c0.042,0.069,0.476,0.809,0.316,1.971c-0.04,0.291-0.194,0.505-0.435,0.603 C31.713,34.262,31.61,34.28,31.503,34.28z M29.905,29.718c-0.166,0-0.323,0.058-0.468,0.171c-0.217,0.17-0.326,0.353-0.337,0.56 c-0.02,0.411,0.353,0.969,1.171,1.753l0.019,0.018l-0.003,0.025c-0.146,1.016,0.34,1.519,0.556,1.688 c0.295,0.23,0.657,0.308,0.928,0.198c0.209-0.084,0.338-0.266,0.373-0.523c0.159-1.157-0.3-1.9-0.304-1.908l-0.005-0.009 c-0.134-0.348-0.903-1.717-1.717-1.941C30.046,29.728,29.975,29.718,29.905,29.718z"/><path fill="#bdbdbd" d="M32.851,30.68c0,0,0.554,0.693,0.523,1.896c-0.031,1.203-2.162,0.855-2.096-1.152 c-1.4-1.073-1.673-1.709-1.089-2.282C31.14,28.211,32.629,30.253,32.851,30.68z"/><path fill="#263238" d="M32.656,33.32c-0.209,0-0.435-0.066-0.643-0.195c-0.519-0.32-0.804-0.931-0.786-1.677 c-0.924-0.711-1.349-1.228-1.375-1.672c-0.015-0.237,0.084-0.457,0.302-0.671c0.21-0.206,0.458-0.286,0.747-0.242 c0.865,0.139,1.809,1.442,1.991,1.789c0.05,0.063,0.561,0.751,0.531,1.925c-0.007,0.294-0.137,0.523-0.365,0.646 C32.939,33.288,32.802,33.32,32.656,33.32z M30.753,28.951c-0.197,0-0.375,0.076-0.528,0.227 c-0.196,0.191-0.285,0.386-0.272,0.593c0.024,0.41,0.456,0.924,1.356,1.613l0.021,0.016l-0.001,0.026 c-0.034,1.024,0.505,1.47,0.738,1.614c0.317,0.196,0.687,0.234,0.945,0.096c0.197-0.107,0.306-0.301,0.312-0.561 c0.029-1.169-0.507-1.857-0.513-1.864l-0.005-0.008c-0.173-0.331-1.09-1.608-1.922-1.741 C30.84,28.955,30.796,28.951,30.753,28.951z"/><path fill="#bdbdbd" d="M33.711,29.433c0,0,0.652,0.602,0.802,1.796s-2.008,1.17-2.245-0.824 c-1.545-0.85-1.911-1.438-1.42-2.092C31.649,27.25,33.428,29.044,33.711,29.433z"/><path fill="#263238" d="M33.757,32.085c-0.163,0-0.336-0.036-0.506-0.108c-0.561-0.238-0.935-0.799-1.029-1.54 c-1.021-0.564-1.518-1.011-1.611-1.446c-0.05-0.232,0.016-0.463,0.198-0.707c0.176-0.233,0.409-0.353,0.694-0.353 c0.003,0,0.006,0,0.009,0c0.878,0.008,2.005,1.154,2.237,1.47c0.059,0.056,0.668,0.658,0.814,1.823 c0.036,0.291-0.058,0.537-0.265,0.693C34.152,32.028,33.962,32.085,33.757,32.085z M31.504,28.031 c-0.253,0-0.459,0.104-0.615,0.312c-0.165,0.219-0.224,0.424-0.18,0.626c0.086,0.402,0.589,0.844,1.584,1.392l0.022,0.013 l0.003,0.025c0.12,1.019,0.72,1.378,0.972,1.485c0.345,0.148,0.718,0.128,0.949-0.047c0.18-0.136,0.258-0.344,0.225-0.603 c-0.146-1.16-0.78-1.759-0.787-1.765l-0.006-0.008c-0.22-0.301-1.316-1.425-2.16-1.432 C31.509,28.031,31.506,28.031,31.504,28.031z"/><path fill="#bdbdbd" d="M34.484,28.342c0,0,0.623,0.575,0.767,1.716c0.144,1.141-1.919,1.118-2.145-0.788 c-1.477-0.812-1.826-1.374-1.357-1.999C32.513,26.255,34.213,27.97,34.484,28.342z"/><path fill="#263238" d="M34.527,30.877c-0.156,0-0.321-0.033-0.483-0.103c-0.536-0.229-0.895-0.765-0.985-1.474 c-0.975-0.538-1.449-0.965-1.539-1.382c-0.048-0.223,0.014-0.444,0.189-0.679c0.168-0.224,0.392-0.337,0.665-0.337 c0.002,0,0.005,0,0.007,0c0.838,0.006,1.918,1.103,2.141,1.405c0.058,0.054,0.638,0.63,0.778,1.743 c0.035,0.279-0.055,0.516-0.253,0.665C34.906,30.823,34.724,30.877,34.527,30.877z M32.374,27.003 c-0.24,0-0.437,0.101-0.585,0.298c-0.157,0.209-0.214,0.404-0.172,0.598c0.083,0.384,0.563,0.806,1.513,1.327l0.022,0.013 l0.003,0.025c0.115,0.973,0.688,1.316,0.928,1.419c0.328,0.139,0.682,0.122,0.903-0.046c0.171-0.129,0.245-0.327,0.214-0.573 c-0.14-1.106-0.744-1.68-0.75-1.685l-0.006-0.008c-0.211-0.288-1.261-1.362-2.064-1.368 C32.378,27.003,32.376,27.003,32.374,27.003z"/><path fill="#bdbdbd" d="M35.059,27.085c0,0,0.623,0.575,0.767,1.716c0.144,1.141-1.919,1.118-2.145-0.788 c-1.477-0.812-1.826-1.374-1.357-1.999C33.087,24.998,34.788,26.713,35.059,27.085z"/><path fill="#263238" d="M35.103,29.62c-0.156,0-0.322-0.033-0.484-0.103c-0.536-0.229-0.894-0.765-0.985-1.474 c-0.975-0.539-1.45-0.966-1.539-1.382c-0.048-0.223,0.014-0.445,0.189-0.679c0.168-0.224,0.392-0.337,0.665-0.337 c0.003,0,0.005,0,0.008,0c0.84,0.007,1.918,1.104,2.141,1.405c0.057,0.054,0.637,0.63,0.778,1.743 c0.035,0.279-0.055,0.516-0.253,0.665C35.48,29.566,35.299,29.62,35.103,29.62z M32.948,25.746c-0.24,0-0.437,0.101-0.585,0.298 c-0.157,0.209-0.214,0.404-0.172,0.597c0.082,0.384,0.562,0.806,1.513,1.328l0.022,0.013l0.003,0.025 c0.115,0.973,0.688,1.316,0.929,1.419c0.325,0.139,0.682,0.122,0.903-0.046c0.171-0.129,0.245-0.327,0.214-0.573 c-0.141-1.109-0.745-1.68-0.751-1.685l-0.006-0.008c-0.21-0.288-1.258-1.361-2.063-1.368 C32.953,25.746,32.95,25.746,32.948,25.746z"/><path fill="#8d6e63" d="M26.141,33.196c0,0,4.776,0.072,7.542-5.926c0.646,0.108,0.754,0.431,0.754,0.431 s-1.257,5.495-7.829,6.859C26.357,34.165,26.141,33.196,26.141,33.196z"/><path fill="#263238" d="M26.585,34.616l-0.019-0.028c-0.254-0.398-0.465-1.342-0.474-1.382l-0.014-0.062l0.063,0.001 c0.017-0.004,4.769,0.019,7.495-5.896l0.016-0.035l0.037,0.007c0.669,0.111,0.79,0.45,0.795,0.465l0.004,0.013l-0.003,0.014 c-0.013,0.056-1.341,5.542-7.868,6.897L26.585,34.616z M26.204,33.244c0.05,0.21,0.228,0.919,0.429,1.261 c6.261-1.319,7.67-6.475,7.752-6.799c-0.026-0.055-0.169-0.286-0.673-0.381C31.136,32.877,26.781,33.223,26.204,33.244z"/><path fill="#eceff1" d="M12.655,23.058c0,0-0.687-0.497-1.834-0.412c-1.147,0.084-0.717,2.103,1.196,1.947 c1.088,1.287,1.708,1.518,2.228,0.934C15.09,24.578,13.073,23.25,12.655,23.058z"/><path fill="#263238" d="M13.665,25.882c-0.003,0-0.006,0-0.009,0c-0.426-0.006-0.938-0.387-1.66-1.236 c-0.712,0.058-1.308-0.193-1.639-0.675c-0.226-0.327-0.279-0.709-0.143-0.995c0.108-0.224,0.322-0.358,0.603-0.379 c1.117-0.08,1.799,0.373,1.863,0.419c0.34,0.157,1.626,0.996,1.8,1.818c0.057,0.271-0.01,0.516-0.198,0.728 C14.092,25.776,13.89,25.882,13.665,25.882z M12.039,24.542l0.017,0.02c0.701,0.828,1.21,1.216,1.603,1.22 c0.002,0,0.004,0,0.007,0c0.194,0,0.372-0.094,0.543-0.286c0.166-0.187,0.225-0.402,0.174-0.64 c-0.166-0.789-1.424-1.604-1.747-1.751L12.626,23.1c-0.006-0.005-0.692-0.488-1.801-0.403c-0.247,0.019-0.427,0.13-0.52,0.323 c-0.12,0.25-0.067,0.602,0.134,0.895c0.149,0.216,0.605,0.711,1.574,0.63L12.039,24.542z"/><g><path fill="#eceff1" d="M14.054,25.278c0,0-0.159-0.833-1.05-1.559c-0.892-0.726-1.965,1.036-0.467,2.237 c-0.092,1.683,0.199,2.277,0.978,2.209C14.781,28.054,14.226,25.704,14.054,25.278z"/><path fill="#263238" d="M13.401,28.22c-0.234,0-0.417-0.066-0.559-0.203c-0.306-0.297-0.416-0.926-0.358-2.038 c-0.552-0.451-0.817-1.039-0.728-1.614c0.062-0.393,0.283-0.708,0.58-0.821c0.234-0.09,0.48-0.039,0.698,0.137 c0.87,0.708,1.051,1.506,1.066,1.583c0.14,0.349,0.499,1.843,0.061,2.56c-0.145,0.236-0.361,0.368-0.644,0.393 C13.479,28.219,13.439,28.22,13.401,28.22z M12.569,23.599c-0.065,0-0.132,0.013-0.196,0.037c-0.26,0.1-0.463,0.392-0.518,0.744 c-0.04,0.258-0.052,0.925,0.712,1.537l0.021,0.017l-0.002,0.025c-0.059,1.082,0.045,1.713,0.327,1.985 c0.121,0.118,0.282,0.176,0.489,0.176c0.034,0,0.07-0.002,0.108-0.005c0.248-0.021,0.438-0.138,0.565-0.346 c0.422-0.688,0.064-2.144-0.068-2.474l-0.003-0.009c-0.002-0.009-0.167-0.825-1.032-1.529 C12.843,23.652,12.706,23.599,12.569,23.599z"/><path fill="#eceff1" d="M13.084,24.847c0,0-0.159-0.833-1.05-1.559c-0.892-0.726-1.965,1.036-0.467,2.237 c-0.092,1.683,0.199,2.277,0.978,2.209C13.811,27.624,13.257,25.273,13.084,24.847z"/><path fill="#263238" d="M12.432,27.789c-0.234,0-0.417-0.066-0.559-0.203c-0.306-0.297-0.416-0.926-0.357-2.038 c-0.553-0.452-0.818-1.039-0.729-1.615c0.062-0.393,0.283-0.707,0.58-0.82c0.231-0.09,0.481-0.04,0.698,0.137 c0.87,0.708,1.051,1.506,1.066,1.583c0.139,0.349,0.499,1.842,0.061,2.559c-0.145,0.236-0.361,0.369-0.644,0.394 C12.509,27.788,12.47,27.789,12.432,27.789z M11.6,23.168c-0.065,0-0.132,0.013-0.197,0.037c-0.259,0.1-0.461,0.392-0.517,0.743 c-0.04,0.258-0.051,0.926,0.713,1.538l0.021,0.017l-0.002,0.025c-0.06,1.081,0.044,1.713,0.326,1.985 c0.141,0.137,0.329,0.191,0.598,0.171c0.248-0.021,0.438-0.139,0.565-0.346c0.421-0.688,0.064-2.144-0.068-2.474l-0.003-0.009 c-0.002-0.009-0.167-0.825-1.032-1.529C11.873,23.222,11.736,23.168,11.6,23.168z"/><path fill="#eceff1" d="M14.916,24.344c0,0-0.159-0.833-1.05-1.559c-0.892-0.726-1.965,1.036-0.467,2.237 c-0.092,1.683,0.199,2.277,0.978,2.209C15.643,27.121,15.088,24.77,14.916,24.344z"/><path fill="#263238" d="M14.264,27.286c-0.234,0-0.418-0.066-0.56-0.203c-0.306-0.297-0.416-0.926-0.357-2.038 c-0.553-0.452-0.817-1.039-0.728-1.615c0.062-0.393,0.283-0.707,0.58-0.82c0.231-0.09,0.481-0.04,0.698,0.137 c0.87,0.708,1.051,1.506,1.066,1.583c0.139,0.35,0.497,1.847,0.059,2.561c-0.144,0.235-0.359,0.367-0.642,0.392 C14.341,27.285,14.302,27.286,14.264,27.286z M13.432,22.665c-0.065,0-0.132,0.013-0.196,0.037 c-0.26,0.1-0.463,0.392-0.518,0.743c-0.04,0.259-0.052,0.926,0.712,1.538L13.45,25l-0.002,0.025 c-0.06,1.081,0.044,1.712,0.326,1.985c0.121,0.118,0.282,0.176,0.49,0.176c0.034,0,0.07-0.002,0.108-0.005 c0.248-0.021,0.438-0.138,0.564-0.345c0.421-0.685,0.065-2.144-0.067-2.475l-0.003-0.009c-0.002-0.009-0.167-0.825-1.032-1.529 C13.705,22.719,13.568,22.665,13.432,22.665z"/><path fill="#eceff1" d="M12.546,23.949c0,0-0.159-0.833-1.05-1.559c-0.892-0.726-1.965,1.036-0.467,2.237 c-0.092,1.683,0.199,2.277,0.978,2.209C13.273,26.726,12.718,24.375,12.546,23.949z"/><path fill="#263238" d="M11.892,26.892c-0.233,0-0.416-0.067-0.557-0.203c-0.307-0.297-0.417-0.926-0.358-2.039 c-0.553-0.452-0.817-1.039-0.728-1.615c0.062-0.393,0.283-0.707,0.58-0.82c0.231-0.09,0.48-0.04,0.697,0.138 c0.87,0.708,1.052,1.507,1.067,1.583c0.139,0.349,0.498,1.844,0.059,2.559c-0.145,0.236-0.36,0.368-0.643,0.393 C11.969,26.89,11.93,26.892,11.892,26.892z M11.061,22.27c-0.065,0-0.131,0.013-0.196,0.038 c-0.259,0.099-0.462,0.391-0.517,0.742c-0.04,0.259-0.052,0.926,0.712,1.538l0.021,0.017l-0.002,0.025 c-0.06,1.082,0.044,1.713,0.326,1.986c0.142,0.138,0.337,0.192,0.598,0.17c0.248-0.021,0.438-0.138,0.565-0.345 c0.421-0.687,0.065-2.144-0.067-2.474l-0.003-0.009c-0.002-0.009-0.168-0.825-1.033-1.529 C11.334,22.323,11.197,22.27,11.061,22.27z"/><path fill="#eceff1" d="M14.198,23.733c0,0-0.159-0.833-1.05-1.559c-0.892-0.726-1.965,1.036-0.467,2.237 c-0.092,1.683,0.199,2.277,0.978,2.209C14.925,26.51,14.37,24.16,14.198,23.733z"/><path fill="#263238" d="M13.545,26.676c-0.234,0-0.417-0.066-0.559-0.203c-0.306-0.297-0.416-0.926-0.357-2.038 c-0.553-0.452-0.818-1.039-0.729-1.615c0.062-0.393,0.283-0.707,0.58-0.82c0.23-0.09,0.481-0.039,0.698,0.137 c0.87,0.708,1.051,1.506,1.066,1.583c0.139,0.349,0.499,1.842,0.061,2.559c-0.145,0.236-0.361,0.369-0.644,0.394 C13.622,26.675,13.583,26.676,13.545,26.676z M12.713,22.055c-0.065,0-0.132,0.013-0.197,0.037 c-0.259,0.1-0.461,0.392-0.517,0.743c-0.04,0.258-0.051,0.926,0.713,1.538l0.021,0.017l-0.002,0.025 c-0.06,1.081,0.044,1.713,0.326,1.985c0.121,0.118,0.282,0.176,0.489,0.176c0.034,0,0.07-0.002,0.108-0.005 c0.248-0.021,0.438-0.139,0.565-0.346c0.421-0.688,0.064-2.144-0.068-2.474l-0.003-0.009c-0.002-0.009-0.167-0.825-1.032-1.529 C12.986,22.108,12.85,22.055,12.713,22.055z"/><path fill="#eceff1" d="M13.024,22.022c0,0-0.63-0.567-1.779-0.605c-1.149-0.038-0.937,2.014,0.982,2.064 c0.945,1.396,1.537,1.692,2.115,1.167C15.283,23.793,13.42,22.258,13.024,22.022z"/><path fill="#263238" d="M13.802,24.94c-0.027,0-0.056-0.001-0.083-0.005c-0.423-0.05-0.893-0.484-1.52-1.406 c-0.713-0.025-1.28-0.332-1.557-0.845c-0.188-0.35-0.202-0.734-0.035-1.004c0.126-0.203,0.34-0.314,0.606-0.314 c0.011,0,0.022,0,0.033,0.001c1.121,0.037,1.748,0.562,1.807,0.615c0.321,0.193,1.512,1.165,1.596,2.001 c0.027,0.274-0.064,0.511-0.274,0.701C14.187,24.856,13.998,24.94,13.802,24.94z M11.213,21.467 c-0.232,0-0.412,0.092-0.521,0.267c-0.146,0.235-0.131,0.59,0.038,0.903c0.124,0.23,0.519,0.769,1.497,0.794h0.026l0.014,0.021 c0.608,0.898,1.073,1.338,1.463,1.385c0.193,0.026,0.384-0.052,0.578-0.227c0.185-0.168,0.266-0.375,0.241-0.617 c-0.08-0.802-1.245-1.746-1.551-1.928l-0.008-0.006c-0.007-0.006-0.632-0.556-1.748-0.593 C11.233,21.467,11.224,21.467,11.213,21.467z"/><path fill="#eceff1" d="M13.491,21.16c0,0-0.63-0.567-1.779-0.605c-1.149-0.038-0.937,2.014,0.982,2.064 c0.945,1.396,1.537,1.692,2.115,1.167C15.75,22.931,13.886,21.396,13.491,21.16z"/><path fill="#263238" d="M14.268,24.079c-0.027,0-0.055-0.002-0.083-0.005c-0.423-0.051-0.892-0.484-1.519-1.406 c-0.713-0.025-1.279-0.332-1.557-0.845c-0.188-0.35-0.202-0.735-0.035-1.005c0.126-0.203,0.341-0.314,0.606-0.314 c0.011,0,0.022,0,0.033,0.001c1.121,0.038,1.748,0.563,1.807,0.615c0.321,0.192,1.512,1.166,1.596,2.001 c0.027,0.275-0.064,0.511-0.274,0.701C14.652,23.994,14.464,24.079,14.268,24.079z M11.68,20.604 c-0.232,0-0.412,0.092-0.521,0.267c-0.146,0.235-0.131,0.591,0.039,0.904c0.124,0.23,0.519,0.769,1.496,0.794h0.026l0.014,0.021 c0.608,0.897,1.073,1.337,1.462,1.384c0.193,0.026,0.385-0.05,0.579-0.227c0.185-0.167,0.266-0.375,0.241-0.616 c-0.08-0.802-1.245-1.747-1.551-1.929l-0.008-0.006c-0.007-0.006-0.632-0.555-1.748-0.593C11.7,20.604,11.69,20.604,11.68,20.604 z"/><g><path fill="#eceff1" d="M14.102,19.975c0,0-0.63-0.567-1.779-0.605s-0.937,2.014,0.982,2.064 c0.945,1.396,1.537,1.692,2.115,1.167C16.361,21.746,14.497,20.211,14.102,19.975z"/><path fill="#263238" d="M14.879,22.894c-0.027,0-0.056-0.001-0.083-0.005c-0.424-0.051-0.893-0.484-1.52-1.406 c-0.713-0.025-1.279-0.332-1.557-0.845c-0.188-0.351-0.202-0.735-0.035-1.005c0.126-0.203,0.34-0.313,0.606-0.313 c0.011,0,0.021,0,0.033,0.001c1.121,0.037,1.748,0.562,1.807,0.615c0.321,0.193,1.512,1.165,1.597,2.001 c0.027,0.275-0.064,0.511-0.274,0.701C15.264,22.81,15.075,22.894,14.879,22.894z M12.29,19.42c-0.232,0-0.412,0.091-0.521,0.266 c-0.146,0.235-0.131,0.591,0.038,0.904c0.125,0.23,0.52,0.769,1.497,0.794h0.026l0.014,0.021 c0.608,0.897,1.073,1.338,1.463,1.385c0.193,0.024,0.385-0.051,0.579-0.227c0.185-0.168,0.266-0.375,0.241-0.617 c-0.081-0.801-1.246-1.746-1.552-1.928l-0.008-0.006c-0.007-0.006-0.632-0.556-1.748-0.593C12.311,19.42,12.3,19.42,12.29,19.42z"/></g><g><path fill="#eceff1" d="M14.64,18.754c0,0-0.63-0.567-1.779-0.605s-0.937,2.014,0.982,2.064 c0.945,1.396,1.537,1.692,2.115,1.167C16.899,20.525,15.036,18.99,14.64,18.754z"/><path fill="#263238" d="M15.418,21.673c-0.028,0-0.056-0.002-0.084-0.005c-0.424-0.051-0.893-0.484-1.519-1.406 c-0.714-0.025-1.28-0.332-1.557-0.845c-0.189-0.35-0.203-0.735-0.035-1.005c0.125-0.203,0.34-0.314,0.606-0.314 c0.011,0,0.022,0,0.033,0.001c1.12,0.038,1.748,0.563,1.807,0.615c0.321,0.193,1.513,1.169,1.596,2.002 c0.027,0.275-0.064,0.511-0.274,0.701C15.803,21.589,15.614,21.673,15.418,21.673z M12.829,18.198 c-0.232,0-0.412,0.092-0.521,0.267c-0.146,0.236-0.132,0.591,0.038,0.904c0.124,0.23,0.519,0.769,1.497,0.794h0.026l0.014,0.021 c0.607,0.897,1.072,1.337,1.462,1.384c0.195,0.023,0.385-0.05,0.579-0.226c0.185-0.167,0.266-0.375,0.241-0.616 c-0.079-0.8-1.245-1.747-1.551-1.93l-0.008-0.006c-0.007-0.006-0.633-0.555-1.748-0.593C12.85,18.198,12.84,18.198,12.829,18.198 z"/></g><g><path fill="#eceff1" d="M15.306,17.468c0,0-0.579-0.619-1.72-0.756s-1.107,1.926,0.8,2.14 c0.821,1.472,1.385,1.818,2.007,1.344C17.405,19.426,15.68,17.736,15.306,17.468z"/><path fill="#263238" d="M15.888,20.445c-0.048,0-0.095-0.006-0.142-0.016c-0.417-0.087-0.847-0.56-1.391-1.53 c-0.709-0.087-1.247-0.442-1.479-0.977c-0.158-0.365-0.139-0.75,0.051-1.004c0.148-0.199,0.384-0.295,0.664-0.257 c1.113,0.134,1.693,0.711,1.748,0.768c0.303,0.221,1.406,1.294,1.417,2.133c0.004,0.275-0.108,0.503-0.333,0.674 C16.24,20.376,16.063,20.444,15.888,20.445z M13.478,16.755c-0.198,0-0.359,0.076-0.47,0.224 c-0.165,0.223-0.182,0.577-0.04,0.904c0.104,0.24,0.451,0.811,1.425,0.92l0.025,0.003l0.013,0.022 c0.527,0.946,0.951,1.424,1.336,1.504c0.193,0.041,0.389-0.018,0.597-0.176c0.198-0.15,0.297-0.351,0.294-0.593 c-0.011-0.805-1.091-1.847-1.38-2.055l-0.007-0.007c-0.006-0.006-0.582-0.607-1.69-0.74 C13.545,16.758,13.511,16.755,13.478,16.755z"/></g><g><path fill="#eceff1" d="M16.238,16.19c0,0-0.607-0.777-1.836-1.06s-1.252,2.097,0.802,2.553 c0.844,1.785,1.443,2.246,2.129,1.769C18.447,18.676,16.634,16.54,16.238,16.19z"/><path fill="#263238" d="M16.845,19.678c-0.061,0-0.121-0.008-0.182-0.023c-0.459-0.123-0.921-0.718-1.495-1.929 c-0.789-0.183-1.383-0.688-1.592-1.358c-0.137-0.437-0.079-0.86,0.149-1.107c0.166-0.179,0.411-0.24,0.688-0.179 c1.202,0.277,1.81,1.008,1.861,1.074c0.331,0.296,1.52,1.689,1.463,2.654c-0.017,0.291-0.144,0.521-0.377,0.684 C17.183,19.617,17.013,19.678,16.845,19.678z M14.207,15.156c-0.164,0-0.303,0.059-0.408,0.172 c-0.201,0.217-0.251,0.613-0.127,1.01c0.2,0.642,0.776,1.126,1.542,1.296l0.024,0.005l0.01,0.022 c0.565,1.196,1.01,1.781,1.44,1.896c0.199,0.055,0.399,0.005,0.615-0.146c0.206-0.144,0.319-0.348,0.334-0.607 c0.055-0.932-1.114-2.294-1.433-2.577l-0.006-0.006c-0.006-0.008-0.612-0.767-1.809-1.042 C14.326,15.164,14.265,15.156,14.207,15.156z"/></g><g><path fill="#eceff1" d="M17.412,15.242c0,0-0.537-0.827-1.737-1.216s-1.431,1.979,0.576,2.613 c0.685,1.852,1.242,2.363,1.966,1.948C19.396,17.911,17.776,15.625,17.412,15.242z"/><path fill="#263238" d="M17.773,18.772c-0.082,0-0.162-0.015-0.24-0.043c-0.447-0.162-0.854-0.795-1.32-2.051 c-0.771-0.251-1.318-0.807-1.468-1.492c-0.098-0.446-0.004-0.864,0.245-1.09c0.181-0.165,0.428-0.206,0.701-0.119 c1.172,0.381,1.713,1.163,1.76,1.233c0.305,0.323,1.367,1.813,1.227,2.771c-0.042,0.289-0.188,0.507-0.436,0.647 C18.077,18.726,17.922,18.772,17.773,18.772z M15.422,14.032c-0.14,0-0.263,0.047-0.364,0.139 c-0.22,0.198-0.304,0.589-0.215,0.994c0.144,0.657,0.676,1.189,1.423,1.426l0.023,0.008l0.009,0.022 c0.452,1.225,0.855,1.864,1.27,2.015c0.19,0.07,0.395,0.038,0.626-0.092c0.218-0.126,0.348-0.319,0.386-0.576 c0.136-0.925-0.91-2.383-1.203-2.691L17.37,15.27c-0.005-0.008-0.543-0.817-1.71-1.196 C15.577,14.046,15.497,14.032,15.422,14.032z"/></g><g><path fill="#eceff1" d="M18.82,14.652c0,0-0.473-0.865-1.64-1.344c-1.167-0.479-1.576,1.866,0.377,2.649 c0.543,1.898,1.06,2.45,1.814,2.091C20.597,17.464,19.154,15.062,18.82,14.652z"/><path fill="#263238" d="M18.968,18.201c-0.101,0-0.197-0.021-0.29-0.062c-0.433-0.195-0.791-0.857-1.161-2.145 c-0.75-0.309-1.254-0.904-1.352-1.599c-0.063-0.453,0.062-0.862,0.327-1.068c0.193-0.15,0.445-0.174,0.707-0.064 c1.141,0.468,1.621,1.288,1.663,1.361c0.278,0.345,1.226,1.91,1.013,2.855c-0.063,0.285-0.226,0.491-0.482,0.613 C19.241,18.165,19.101,18.201,18.968,18.201z M16.881,13.295c-0.121,0-0.231,0.037-0.327,0.111 c-0.233,0.181-0.348,0.563-0.29,0.975c0.094,0.666,0.584,1.237,1.312,1.529l0.022,0.01l0.007,0.023 c0.364,1.271,0.707,1.921,1.114,2.104c0.185,0.083,0.392,0.068,0.63-0.045c0.228-0.108,0.371-0.292,0.428-0.545 c0.202-0.9-0.737-2.457-0.996-2.774l-0.005-0.007c-0.005-0.009-0.48-0.856-1.614-1.322C17.063,13.314,16.97,13.295,16.881,13.295 z"/></g><g><path fill="#eceff1" d="M19.575,14.041c0,0-0.473-0.865-1.64-1.344c-1.167-0.479-1.576,1.866,0.377,2.649 c0.543,1.898,1.06,2.45,1.814,2.091C21.351,16.853,19.908,14.451,19.575,14.041z"/><path fill="#263238" d="M19.722,17.591c-0.101,0-0.197-0.021-0.29-0.062c-0.433-0.195-0.791-0.857-1.161-2.145 c-0.749-0.309-1.254-0.904-1.352-1.599c-0.063-0.453,0.062-0.862,0.327-1.068c0.193-0.149,0.445-0.174,0.707-0.065 c1.142,0.469,1.622,1.288,1.663,1.361c0.278,0.346,1.226,1.913,1.014,2.856c-0.064,0.285-0.227,0.491-0.483,0.613 C19.995,17.555,19.854,17.591,19.722,17.591z M17.635,12.684c-0.121,0-0.231,0.037-0.327,0.111 c-0.233,0.182-0.348,0.565-0.289,0.977c0.093,0.665,0.584,1.237,1.312,1.528l0.022,0.01l0.007,0.023 c0.364,1.271,0.707,1.921,1.114,2.104c0.184,0.083,0.391,0.068,0.63-0.045c0.228-0.108,0.371-0.292,0.429-0.545 c0.205-0.912-0.728-2.445-0.997-2.775l-0.005-0.007c-0.005-0.009-0.479-0.855-1.614-1.322 C17.817,12.703,17.724,12.684,17.635,12.684z"/></g><g><path fill="#eceff1" d="M21.251,13.585c0,0-0.386-0.907-1.5-1.498S18,13.788,19.866,14.76 c0.354,1.943,0.814,2.542,1.6,2.259C22.743,16.557,21.543,14.026,21.251,13.585z"/><path fill="#263238" d="M21.124,17.136c-0.13,0-0.248-0.032-0.357-0.095c-0.411-0.237-0.703-0.931-0.945-2.248 c-0.716-0.381-1.159-1.024-1.188-1.726c-0.019-0.456,0.146-0.851,0.431-1.029c0.206-0.131,0.46-0.128,0.71,0.005 c1.09,0.577,1.487,1.441,1.521,1.519c0.244,0.37,1.032,2.022,0.729,2.941c-0.092,0.277-0.273,0.466-0.541,0.562 C21.354,17.112,21.235,17.136,21.124,17.136z M19.398,12.041c-0.1,0-0.194,0.026-0.281,0.081c-0.25,0.157-0.4,0.527-0.384,0.941 c0.028,0.672,0.46,1.289,1.156,1.652l0.021,0.011l0.004,0.024c0.237,1.302,0.516,1.981,0.901,2.203 c0.179,0.102,0.386,0.106,0.633,0.018c0.236-0.086,0.397-0.254,0.479-0.5c0.293-0.888-0.484-2.504-0.72-2.859l-0.004-0.008 c-0.004-0.009-0.394-0.898-1.478-1.474C19.614,12.07,19.503,12.041,19.398,12.041z"/></g><g><path fill="#eceff1" d="M22.53,13.14c0,0-0.328-0.93-1.402-1.59c-1.074-0.661-1.856,1.587-0.055,2.675 c0.23,1.961,0.651,2.589,1.453,2.356C23.831,16.201,22.793,13.598,22.53,13.14z"/><path fill="#263238" d="M22.23,16.677c-0.15,0-0.283-0.039-0.403-0.118c-0.396-0.264-0.644-0.974-0.801-2.304 c-0.689-0.426-1.091-1.096-1.075-1.797c0.01-0.457,0.199-0.841,0.494-1.001c0.214-0.116,0.465-0.1,0.709,0.05 c1.051,0.646,1.393,1.533,1.422,1.612c0.219,0.387,0.9,2.089,0.539,2.983c-0.109,0.271-0.303,0.447-0.575,0.526 C22.43,16.661,22.327,16.677,22.23,16.677z M20.745,11.48c-0.088,0-0.172,0.021-0.252,0.064 c-0.259,0.142-0.433,0.501-0.442,0.916c-0.015,0.672,0.377,1.315,1.048,1.721l0.021,0.013l0.003,0.024 c0.151,1.296,0.393,2.013,0.76,2.256c0.17,0.113,0.374,0.133,0.63,0.059c0.241-0.07,0.413-0.228,0.51-0.468 c0.349-0.864-0.323-2.53-0.535-2.901l-0.004-0.008c-0.004-0.009-0.336-0.922-1.382-1.563C20.98,11.518,20.86,11.48,20.745,11.48z"/></g><g><path fill="#eceff1" d="M23.914,12.868c0,0-0.177-0.97-1.134-1.791s-2.083,1.275-0.475,2.633 c-0.081,1.973,0.235,2.659,1.064,2.555C24.717,16.096,24.102,13.362,23.914,12.868z"/><path fill="#263238" d="M23.215,16.326c-0.217,0-0.393-0.063-0.532-0.192c-0.35-0.321-0.481-1.062-0.429-2.401 c-0.614-0.528-0.905-1.253-0.779-1.942c0.082-0.45,0.329-0.799,0.646-0.911c0.232-0.083,0.477-0.024,0.691,0.16 c0.937,0.804,1.134,1.733,1.149,1.815c0.156,0.416,0.562,2.203,0.064,3.031c-0.15,0.249-0.369,0.394-0.651,0.43 C23.319,16.322,23.267,16.326,23.215,16.326z M22.331,10.941c-0.059,0-0.118,0.011-0.177,0.031 c-0.279,0.099-0.507,0.427-0.582,0.836c-0.12,0.66,0.166,1.357,0.765,1.863l0.019,0.016l-0.001,0.024 c-0.054,1.322,0.067,2.046,0.396,2.348c0.15,0.138,0.344,0.192,0.613,0.156c0.249-0.031,0.443-0.16,0.577-0.382 c0.48-0.8,0.078-2.55-0.073-2.948l-0.002-0.009c-0.002-0.01-0.187-0.963-1.117-1.762C22.614,11,22.473,10.941,22.331,10.941z"/></g></g><g><path fill="#eceff1" d="M33.698,25.278c0,0,0.159-0.833,1.05-1.559c0.892-0.726,1.965,1.036,0.467,2.237 c0.092,1.683-0.199,2.277-0.978,2.209C32.971,28.054,33.526,25.704,33.698,25.278z"/><path fill="#263238" d="M34.351,28.22c-0.038,0-0.077-0.001-0.117-0.005c-0.282-0.024-0.499-0.156-0.644-0.393 c-0.438-0.717-0.079-2.211,0.061-2.56c0.016-0.077,0.196-0.875,1.066-1.583c0.217-0.177,0.463-0.228,0.698-0.137 c0.297,0.113,0.519,0.429,0.58,0.821c0.09,0.575-0.176,1.163-0.729,1.614c0.059,1.112-0.052,1.741-0.357,2.038 C34.768,28.153,34.585,28.22,34.351,28.22z M35.183,23.599c-0.137,0-0.273,0.054-0.403,0.159 c-0.865,0.704-1.03,1.521-1.032,1.529l-0.003,0.009c-0.133,0.33-0.49,1.786-0.068,2.474c0.127,0.208,0.317,0.324,0.565,0.346 c0.268,0.021,0.456-0.033,0.598-0.171c0.282-0.272,0.386-0.904,0.326-1.985l-0.002-0.025l0.021-0.017 c0.764-0.612,0.753-1.279,0.713-1.537c-0.055-0.353-0.258-0.645-0.518-0.744C35.314,23.611,35.248,23.599,35.183,23.599z"/><path fill="#eceff1" d="M34.668,24.847c0,0,0.159-0.833,1.05-1.559c0.892-0.726,1.965,1.036,0.467,2.237 c0.092,1.683-0.199,2.277-0.978,2.209C33.941,27.624,34.495,25.273,34.668,24.847z"/><path fill="#263238" d="M35.32,27.789c-0.038,0-0.077-0.001-0.117-0.005c-0.282-0.024-0.499-0.157-0.644-0.394 c-0.438-0.717-0.078-2.21,0.061-2.559c0.016-0.077,0.196-0.875,1.066-1.583c0.217-0.177,0.466-0.228,0.698-0.137 c0.297,0.113,0.519,0.428,0.58,0.82c0.09,0.576-0.176,1.163-0.729,1.615c0.059,1.112-0.052,1.741-0.357,2.038 C35.737,27.723,35.555,27.789,35.32,27.789z M36.152,23.168c-0.137,0-0.273,0.054-0.403,0.159 c-0.865,0.704-1.03,1.521-1.032,1.529l-0.003,0.009c-0.133,0.33-0.489,1.786-0.068,2.474c0.127,0.207,0.317,0.324,0.565,0.346 c0.267,0.021,0.456-0.033,0.598-0.171c0.282-0.272,0.386-0.904,0.326-1.985l-0.002-0.025l0.021-0.017 c0.764-0.612,0.753-1.28,0.713-1.538c-0.056-0.352-0.258-0.644-0.517-0.743C36.284,23.181,36.218,23.168,36.152,23.168z"/><path fill="#eceff1" d="M32.836,24.344c0,0,0.159-0.833,1.05-1.559c0.892-0.726,1.965,1.036,0.467,2.237 c0.092,1.683-0.199,2.277-0.978,2.209C32.109,27.121,32.664,24.77,32.836,24.344z"/><path fill="#263238" d="M33.488,27.286c-0.038,0-0.077-0.001-0.117-0.005c-0.282-0.024-0.498-0.156-0.642-0.392 c-0.438-0.714-0.08-2.211,0.059-2.561c0.016-0.077,0.196-0.875,1.066-1.583c0.217-0.177,0.466-0.228,0.698-0.137 c0.297,0.113,0.519,0.428,0.58,0.82c0.09,0.576-0.175,1.163-0.728,1.615c0.058,1.112-0.053,1.742-0.358,2.038 C33.906,27.22,33.723,27.286,33.488,27.286z M34.32,22.665c-0.137,0-0.273,0.054-0.403,0.159 c-0.865,0.704-1.03,1.521-1.032,1.529l-0.003,0.009c-0.133,0.331-0.488,1.79-0.067,2.475c0.127,0.207,0.316,0.323,0.564,0.345 c0.268,0.021,0.456-0.033,0.599-0.171c0.281-0.272,0.385-0.903,0.326-1.985L34.302,25l0.021-0.017 c0.764-0.612,0.752-1.279,0.712-1.538c-0.055-0.352-0.258-0.644-0.518-0.743C34.452,22.678,34.386,22.665,34.32,22.665z"/><path fill="#eceff1" d="M35.206,23.949c0,0,0.159-0.833,1.05-1.559c0.892-0.726,1.965,1.036,0.467,2.237 c0.092,1.683-0.199,2.277-0.978,2.209C34.479,26.726,35.034,24.375,35.206,23.949z"/><path fill="#263238" d="M35.86,26.892c-0.038,0-0.077-0.002-0.118-0.006c-0.282-0.024-0.498-0.156-0.643-0.393 c-0.439-0.715-0.08-2.21,0.059-2.559c0.016-0.076,0.197-0.875,1.066-1.583c0.217-0.179,0.466-0.229,0.698-0.138 c0.297,0.113,0.519,0.429,0.58,0.821c0.09,0.575-0.175,1.163-0.728,1.614c0.059,1.113-0.052,1.742-0.358,2.039 C36.276,26.824,36.094,26.892,35.86,26.892z M36.69,22.27c-0.137,0-0.273,0.054-0.403,0.16c-0.866,0.706-1.03,1.521-1.032,1.529 l-0.003,0.009c-0.133,0.33-0.488,1.787-0.067,2.474c0.127,0.207,0.317,0.323,0.565,0.345c0.262,0.02,0.456-0.033,0.598-0.17 c0.282-0.273,0.386-0.904,0.326-1.986l-0.002-0.025l0.021-0.017c0.764-0.612,0.752-1.279,0.712-1.538 c-0.055-0.352-0.258-0.644-0.518-0.742C36.822,22.282,36.757,22.27,36.69,22.27z"/><path fill="#eceff1" d="M33.554,23.733c0,0,0.159-0.833,1.05-1.559c0.892-0.726,1.965,1.036,0.467,2.237 c0.092,1.683-0.199,2.277-0.978,2.209C32.827,26.51,33.382,24.16,33.554,23.733z"/><path fill="#263238" d="M34.207,26.676c-0.038,0-0.077-0.001-0.117-0.005c-0.282-0.024-0.499-0.157-0.644-0.394 c-0.438-0.717-0.078-2.21,0.061-2.559c0.016-0.077,0.196-0.875,1.066-1.583c0.217-0.177,0.467-0.228,0.698-0.137 c0.297,0.113,0.519,0.428,0.58,0.82c0.09,0.576-0.176,1.163-0.729,1.615c0.059,1.112-0.052,1.741-0.357,2.038 C34.624,26.609,34.441,26.676,34.207,26.676z M35.039,22.055c-0.137,0-0.273,0.054-0.403,0.159 c-0.865,0.704-1.03,1.521-1.032,1.529l-0.003,0.009c-0.133,0.33-0.489,1.786-0.068,2.474c0.127,0.207,0.317,0.324,0.565,0.346 c0.267,0.018,0.456-0.033,0.598-0.171c0.282-0.272,0.386-0.904,0.326-1.985L35.02,24.39l0.021-0.017 c0.764-0.612,0.753-1.28,0.713-1.538c-0.056-0.352-0.258-0.644-0.517-0.743C35.171,22.067,35.104,22.055,35.039,22.055z"/><path fill="#eceff1" d="M34.728,22.022c0,0,0.63-0.567,1.779-0.605c1.149-0.038,0.937,2.014-0.982,2.064 c-0.945,1.396-1.537,1.692-2.115,1.167C32.468,23.793,34.332,22.258,34.728,22.022z"/><path fill="#263238" d="M33.95,24.94c-0.196,0.001-0.385-0.084-0.573-0.256c-0.21-0.19-0.302-0.427-0.274-0.701 c0.084-0.836,1.274-1.808,1.596-2.001c0.059-0.053,0.686-0.578,1.807-0.615c0.011-0.001,0.022-0.001,0.033-0.001 c0.266,0,0.48,0.111,0.606,0.314c0.167,0.27,0.153,0.654-0.035,1.004c-0.277,0.513-0.844,0.819-1.557,0.845 c-0.627,0.922-1.097,1.356-1.52,1.406C34.006,24.939,33.978,24.94,33.95,24.94z M36.539,21.467c-0.011,0-0.021,0-0.03,0 c-1.116,0.037-1.741,0.587-1.748,0.593l-0.008,0.006c-0.306,0.182-1.471,1.126-1.551,1.928c-0.024,0.242,0.057,0.449,0.241,0.617 c0.194,0.175,0.383,0.252,0.578,0.227c0.39-0.047,0.854-0.486,1.463-1.385l0.014-0.021h0.026 c0.978-0.025,1.372-0.563,1.497-0.793c0.169-0.313,0.184-0.669,0.038-0.904C36.951,21.559,36.771,21.467,36.539,21.467z"/><path fill="#eceff1" d="M34.261,21.16c0,0,0.63-0.567,1.779-0.605c1.149-0.038,0.937,2.014-0.982,2.064 c-0.945,1.396-1.537,1.692-2.115,1.167C32.002,22.931,33.865,21.396,34.261,21.16z"/><path fill="#263238" d="M33.484,24.079c-0.196,0-0.385-0.085-0.574-0.257c-0.21-0.19-0.302-0.426-0.274-0.701 c0.084-0.835,1.274-1.809,1.596-2.001c0.059-0.052,0.686-0.577,1.807-0.615c0.011-0.001,0.022-0.001,0.033-0.001 c0.266,0,0.48,0.111,0.606,0.314c0.167,0.27,0.153,0.655-0.035,1.005c-0.277,0.513-0.844,0.819-1.557,0.845 c-0.627,0.922-1.096,1.355-1.519,1.406C33.539,24.077,33.512,24.079,33.484,24.079z M36.072,20.604c-0.011,0-0.021,0-0.03,0 c-1.116,0.038-1.741,0.587-1.748,0.593l-0.008,0.006c-0.306,0.182-1.471,1.127-1.551,1.929c-0.024,0.241,0.057,0.449,0.241,0.616 c0.194,0.175,0.384,0.252,0.579,0.227c0.389-0.047,0.854-0.486,1.462-1.384l0.014-0.021h0.026 c0.978-0.025,1.372-0.563,1.496-0.794c0.17-0.313,0.185-0.669,0.039-0.904C36.484,20.696,36.305,20.604,36.072,20.604z"/><g><path fill="#eceff1" d="M33.65,19.975c0,0,0.63-0.567,1.779-0.605c1.149-0.038,0.937,2.014-0.982,2.064 c-0.945,1.396-1.537,1.692-2.115,1.167C31.391,21.746,33.255,20.211,33.65,19.975z"/><path fill="#263238" d="M32.873,22.894c-0.196,0-0.385-0.084-0.574-0.256c-0.21-0.19-0.302-0.426-0.274-0.701 c0.084-0.835,1.275-1.808,1.597-2.001c0.059-0.053,0.686-0.578,1.807-0.615c0.012-0.001,0.022-0.001,0.033-0.001 c0.267,0,0.48,0.11,0.606,0.313c0.167,0.27,0.153,0.654-0.035,1.004c-0.277,0.514-0.844,0.82-1.558,0.846 c-0.626,0.922-1.095,1.355-1.519,1.406C32.929,22.893,32.9,22.894,32.873,22.894z M35.462,19.42c-0.01,0-0.021,0-0.03,0 c-1.116,0.037-1.741,0.587-1.748,0.593l-0.008,0.006c-0.306,0.182-1.472,1.127-1.552,1.928c-0.024,0.242,0.057,0.449,0.241,0.617 c0.194,0.176,0.384,0.25,0.579,0.227c0.39-0.047,0.854-0.487,1.462-1.385l0.014-0.021h0.026c0.979-0.025,1.373-0.563,1.498-0.794 c0.169-0.313,0.184-0.669,0.038-0.904C35.874,19.511,35.694,19.42,35.462,19.42z"/></g><g><path fill="#eceff1" d="M33.111,18.754c0,0,0.63-0.567,1.779-0.605s0.937,2.014-0.982,2.064 c-0.945,1.396-1.537,1.692-2.115,1.167C30.852,20.525,32.716,18.99,33.111,18.754z"/><path fill="#263238" d="M32.334,21.673c-0.196,0-0.385-0.084-0.573-0.256c-0.21-0.19-0.302-0.426-0.274-0.701 c0.083-0.833,1.274-1.809,1.596-2.002c0.059-0.052,0.686-0.577,1.807-0.615c0.011-0.001,0.022-0.001,0.033-0.001 c0.266,0,0.48,0.111,0.606,0.314c0.167,0.27,0.153,0.655-0.035,1.005c-0.277,0.513-0.844,0.819-1.557,0.845 c-0.627,0.922-1.096,1.355-1.519,1.406C32.39,21.671,32.361,21.673,32.334,21.673z M34.923,18.198c-0.011,0-0.021,0-0.03,0 c-1.116,0.038-1.741,0.587-1.748,0.593l-0.008,0.006c-0.306,0.183-1.472,1.13-1.551,1.93c-0.024,0.241,0.057,0.449,0.241,0.616 c0.194,0.175,0.384,0.248,0.578,0.226c0.39-0.047,0.854-0.486,1.463-1.384l0.014-0.021h0.026 c0.978-0.025,1.373-0.563,1.497-0.794c0.169-0.313,0.185-0.669,0.038-0.904C35.335,18.29,35.155,18.198,34.923,18.198z"/></g><g><path fill="#eceff1" d="M32.446,17.468c0,0,0.579-0.619,1.72-0.756c1.141-0.137,1.107,1.926-0.8,2.14 c-0.821,1.472-1.385,1.818-2.007,1.344C30.347,19.426,32.072,17.736,32.446,17.468z"/><path fill="#263238" d="M31.864,20.445c-0.176,0-0.353-0.069-0.536-0.209c-0.225-0.171-0.337-0.398-0.333-0.674 c0.011-0.839,1.114-1.912,1.417-2.133c0.055-0.057,0.635-0.634,1.748-0.768c0.281-0.038,0.515,0.058,0.664,0.257 c0.189,0.254,0.209,0.639,0.051,1.004c-0.231,0.534-0.77,0.89-1.479,0.977c-0.545,0.972-0.975,1.443-1.391,1.53 C31.958,20.439,31.911,20.445,31.864,20.445z M34.274,16.755c-0.033,0-0.067,0.003-0.103,0.007 c-1.108,0.133-1.685,0.734-1.69,0.74l-0.007,0.007c-0.289,0.208-1.369,1.25-1.38,2.055c-0.003,0.242,0.096,0.442,0.294,0.593 c0.207,0.158,0.398,0.221,0.597,0.176c0.384-0.08,0.809-0.558,1.336-1.504l0.013-0.022l0.025-0.003 c0.974-0.109,1.32-0.68,1.425-0.92c0.142-0.327,0.125-0.682-0.04-0.904C34.634,16.831,34.473,16.755,34.274,16.755z"/></g><g><path fill="#eceff1" d="M31.514,16.19c0,0,0.607-0.777,1.836-1.06c1.229-0.283,1.252,2.097-0.802,2.553 c-0.844,1.785-1.443,2.246-2.129,1.769C29.305,18.676,31.118,16.54,31.514,16.19z"/><path fill="#263238" d="M30.907,19.678c-0.168,0-0.338-0.061-0.516-0.185c-0.233-0.162-0.36-0.393-0.377-0.684 c-0.057-0.965,1.132-2.358,1.463-2.654c0.052-0.066,0.659-0.797,1.862-1.074c0.273-0.062,0.521,0,0.687,0.179 c0.229,0.247,0.286,0.671,0.149,1.107c-0.209,0.67-0.803,1.176-1.592,1.358c-0.574,1.211-1.036,1.806-1.495,1.929 C31.028,19.67,30.968,19.678,30.907,19.678z M33.545,15.156c-0.058,0-0.119,0.008-0.184,0.022 c-1.196,0.275-1.803,1.034-1.809,1.042l-0.006,0.006c-0.318,0.283-1.487,1.646-1.433,2.577c0.015,0.26,0.128,0.464,0.334,0.607 c0.216,0.15,0.415,0.199,0.615,0.146c0.431-0.115,0.875-0.7,1.44-1.896l0.01-0.022l0.024-0.005 c0.766-0.17,1.342-0.654,1.542-1.296c0.124-0.396,0.074-0.793-0.127-1.01C33.848,15.215,33.709,15.156,33.545,15.156z"/></g><g><path fill="#eceff1" d="M30.34,15.242c0,0,0.537-0.827,1.737-1.216c1.2-0.389,1.431,1.979-0.576,2.613 c-0.685,1.852-1.242,2.363-1.966,1.948C28.356,17.911,29.976,15.625,30.34,15.242z"/><path fill="#263238" d="M29.979,18.772c-0.148,0-0.304-0.047-0.469-0.143c-0.247-0.141-0.394-0.358-0.436-0.647 c-0.141-0.958,0.922-2.448,1.227-2.771c0.047-0.07,0.588-0.853,1.76-1.233c0.272-0.087,0.521-0.046,0.701,0.119 c0.249,0.226,0.343,0.644,0.245,1.09c-0.149,0.686-0.697,1.241-1.468,1.492c-0.466,1.256-0.873,1.889-1.32,2.051 C30.141,18.758,30.061,18.772,29.979,18.772z M32.33,14.032c-0.075,0-0.155,0.014-0.238,0.041 c-1.167,0.379-1.705,1.188-1.71,1.196l-0.006,0.007c-0.293,0.309-1.339,1.767-1.203,2.691c0.038,0.257,0.168,0.45,0.386,0.576 c0.229,0.13,0.435,0.162,0.626,0.092c0.414-0.15,0.817-0.79,1.27-2.015l0.009-0.022l0.023-0.008 c0.747-0.236,1.279-0.769,1.423-1.426c0.089-0.405,0.005-0.796-0.215-0.994C32.593,14.079,32.47,14.032,32.33,14.032z"/></g><g><path fill="#eceff1" d="M28.931,14.652c0,0,0.473-0.865,1.64-1.344c1.167-0.479,1.576,1.866-0.377,2.649 c-0.543,1.898-1.06,2.45-1.814,2.091C27.155,17.464,28.598,15.062,28.931,14.652z"/><path fill="#263238" d="M28.784,18.201c-0.133,0-0.273-0.036-0.425-0.108c-0.257-0.122-0.419-0.328-0.482-0.613 c-0.213-0.945,0.734-2.511,1.013-2.855c0.042-0.073,0.521-0.894,1.663-1.361c0.262-0.108,0.514-0.086,0.707,0.064 c0.266,0.206,0.391,0.615,0.327,1.068c-0.098,0.694-0.602,1.29-1.352,1.599c-0.37,1.287-0.729,1.949-1.161,2.145 C28.981,18.181,28.885,18.201,28.784,18.201z M30.871,13.295c-0.089,0-0.183,0.02-0.281,0.06 c-1.137,0.467-1.609,1.313-1.614,1.322l-0.005,0.007c-0.259,0.317-1.198,1.874-0.996,2.774c0.057,0.253,0.2,0.437,0.428,0.545 c0.239,0.113,0.446,0.128,0.63,0.045c0.407-0.184,0.75-0.833,1.114-2.104l0.007-0.023l0.022-0.01 c0.729-0.292,1.219-0.863,1.312-1.529c0.058-0.411-0.057-0.794-0.29-0.975C31.103,13.332,30.992,13.295,30.871,13.295z"/></g><g><path fill="#eceff1" d="M28.177,14.041c0,0,0.473-0.865,1.64-1.344c1.167-0.479,1.576,1.866-0.377,2.649 c-0.543,1.898-1.06,2.45-1.814,2.091C26.401,16.853,27.844,14.451,28.177,14.041z"/><path fill="#263238" d="M28.03,17.591c-0.133,0-0.273-0.036-0.425-0.108c-0.257-0.122-0.419-0.328-0.483-0.613 c-0.212-0.943,0.735-2.511,1.014-2.856c0.041-0.073,0.521-0.893,1.663-1.361c0.263-0.107,0.515-0.084,0.707,0.065 c0.266,0.206,0.391,0.615,0.327,1.068c-0.098,0.694-0.603,1.29-1.352,1.599c-0.37,1.287-0.729,1.949-1.161,2.145 C28.228,17.57,28.131,17.591,28.03,17.591z M30.117,12.684c-0.089,0-0.183,0.02-0.281,0.06c-1.135,0.467-1.609,1.313-1.614,1.322 l-0.005,0.007c-0.27,0.33-1.202,1.863-0.997,2.775c0.058,0.253,0.201,0.437,0.429,0.545c0.238,0.113,0.445,0.128,0.63,0.045 c0.407-0.184,0.75-0.833,1.114-2.104l0.007-0.023l0.022-0.01c0.728-0.291,1.219-0.863,1.312-1.528 c0.059-0.411-0.056-0.795-0.289-0.977C30.349,12.721,30.238,12.684,30.117,12.684z"/></g><g><path fill="#eceff1" d="M26.501,13.585c0,0,0.386-0.907,1.5-1.498c1.114-0.591,1.751,1.702-0.115,2.673 c-0.354,1.943-0.814,2.542-1.6,2.259C25.009,16.557,26.209,14.026,26.501,13.585z"/><path fill="#263238" d="M26.628,17.136c-0.111,0-0.23-0.023-0.358-0.07c-0.268-0.097-0.449-0.285-0.541-0.562 c-0.304-0.919,0.484-2.571,0.729-2.941c0.033-0.077,0.431-0.941,1.521-1.519c0.249-0.133,0.504-0.136,0.71-0.005 c0.284,0.179,0.449,0.573,0.431,1.029c-0.028,0.701-0.472,1.345-1.188,1.726c-0.242,1.317-0.534,2.011-0.945,2.248 C26.876,17.104,26.758,17.136,26.628,17.136z M28.354,12.041c-0.104,0-0.216,0.029-0.329,0.09 c-1.084,0.575-1.474,1.465-1.478,1.474l-0.004,0.008c-0.235,0.355-1.013,1.972-0.72,2.859c0.082,0.246,0.243,0.414,0.479,0.5 c0.246,0.089,0.455,0.084,0.633-0.018c0.386-0.222,0.664-0.901,0.901-2.203l0.004-0.024l0.021-0.011 c0.696-0.363,1.128-0.98,1.156-1.652c0.017-0.414-0.134-0.784-0.384-0.941C28.548,12.067,28.453,12.041,28.354,12.041z"/></g><g><path fill="#eceff1" d="M25.222,13.14c0,0,0.328-0.93,1.402-1.59c1.074-0.661,1.856,1.587,0.055,2.675 c-0.23,1.961-0.651,2.589-1.453,2.356C23.921,16.201,24.958,13.598,25.222,13.14z"/><path fill="#263238" d="M25.521,16.677c-0.097,0-0.199-0.016-0.31-0.048c-0.273-0.079-0.467-0.257-0.576-0.527 c-0.361-0.897,0.32-2.597,0.54-2.983c0.029-0.078,0.371-0.965,1.422-1.611c0.244-0.149,0.495-0.166,0.709-0.05 c0.295,0.16,0.484,0.544,0.494,1.001c0.016,0.701-0.386,1.371-1.075,1.797c-0.158,1.33-0.405,2.041-0.802,2.304 C25.805,16.638,25.671,16.677,25.521,16.677z M27.007,11.48c-0.115,0-0.235,0.037-0.356,0.112 c-1.046,0.642-1.378,1.555-1.382,1.563l-0.004,0.009c-0.212,0.369-0.885,2.032-0.536,2.899c0.098,0.24,0.27,0.398,0.511,0.469 c0.254,0.073,0.461,0.053,0.63-0.058c0.371-0.247,0.605-0.942,0.76-2.257l0.003-0.024l0.021-0.013 c0.671-0.405,1.062-1.049,1.048-1.721c-0.01-0.415-0.184-0.774-0.442-0.916C27.179,11.502,27.095,11.48,27.007,11.48z"/></g><g><path fill="#eceff1" d="M23.838,12.868c0,0,0.177-0.97,1.134-1.791s2.083,1.275,0.475,2.633 c0.081,1.973-0.235,2.659-1.064,2.555C23.035,16.096,23.65,13.362,23.838,12.868z"/><path fill="#263238" d="M24.537,16.326c-0.052,0-0.104-0.004-0.16-0.011c-0.282-0.036-0.502-0.181-0.651-0.431 c-0.499-0.831-0.093-2.615,0.064-3.03c0.016-0.083,0.213-1.013,1.149-1.815c0.215-0.185,0.46-0.243,0.691-0.16 c0.317,0.112,0.564,0.461,0.646,0.911c0.126,0.689-0.165,1.414-0.779,1.942c0.053,1.339-0.079,2.08-0.429,2.401 C24.93,16.263,24.754,16.326,24.537,16.326z M25.421,10.941c-0.142,0-0.283,0.059-0.417,0.174 c-0.931,0.799-1.115,1.752-1.117,1.762l-0.002,0.009c-0.151,0.397-0.556,2.145-0.074,2.947c0.134,0.223,0.328,0.352,0.578,0.383 c0.27,0.037,0.464-0.019,0.613-0.156c0.328-0.302,0.449-1.025,0.396-2.348l-0.001-0.024l0.019-0.016 c0.599-0.506,0.885-1.203,0.765-1.863c-0.075-0.409-0.303-0.737-0.582-0.836C25.539,10.952,25.479,10.941,25.421,10.941z"/></g></g><g><path fill="#ff1744" d="M23.263,12.797c0,0-0.15,0.338-0.575,0.539c-0.426,0.202-0.646,0.395-0.575,0.826 c0.072,0.431,0.609,0.483,0.983,0.386c0.364-0.094,0.768,0.094,0.768,0.094S23.658,13.551,23.263,12.797z"/><path fill="#263238" d="M23.932,14.728l-0.089-0.041c-0.003-0.001-0.393-0.181-0.733-0.09 c-0.242,0.061-0.583,0.073-0.818-0.079c-0.126-0.082-0.202-0.198-0.227-0.348c-0.076-0.46,0.163-0.671,0.603-0.879 c0.4-0.19,0.549-0.512,0.55-0.515l0.042-0.094l0.048,0.091c0.394,0.752,0.604,1.848,0.606,1.858L23.932,14.728z M23.318,14.471 c0.195,0,0.375,0.053,0.479,0.09c-0.057-0.264-0.24-1.053-0.536-1.657c-0.075,0.118-0.243,0.332-0.551,0.478 c-0.415,0.197-0.614,0.37-0.547,0.773c0.02,0.119,0.081,0.214,0.182,0.279c0.21,0.136,0.529,0.12,0.739,0.065 C23.162,14.479,23.241,14.471,23.318,14.471z"/></g><g><path fill="#ff1744" d="M21.512,13.339c0,0-0.144,0.322-0.548,0.514c-0.407,0.193-0.617,0.377-0.548,0.788 s0.581,0.461,0.938,0.368c0.347-0.09,0.732,0.09,0.732,0.09S21.889,14.059,21.512,13.339z"/><path fill="#263238" d="M22.154,15.186l-0.089-0.041c-0.003-0.001-0.371-0.175-0.698-0.086 c-0.221,0.055-0.557,0.07-0.783-0.075c-0.12-0.079-0.193-0.19-0.218-0.334c-0.073-0.44,0.156-0.643,0.576-0.841 c0.382-0.181,0.523-0.487,0.524-0.49l0.042-0.094l0.048,0.091c0.376,0.718,0.577,1.765,0.579,1.774L22.154,15.186z M21.564,14.935 c0.186,0,0.355,0.049,0.455,0.084c-0.055-0.255-0.229-1-0.509-1.573c-0.073,0.113-0.233,0.315-0.525,0.453 c-0.395,0.188-0.584,0.353-0.52,0.735c0.019,0.113,0.077,0.203,0.173,0.266c0.198,0.129,0.505,0.114,0.703,0.062 C21.416,14.942,21.491,14.935,21.564,14.935z"/></g><g><path fill="#ff1744" d="M19.644,14.006c0,0-0.102,0.311-0.457,0.526c-0.357,0.216-0.533,0.406-0.43,0.779 c0.102,0.373,0.579,0.37,0.9,0.25c0.311-0.116,0.684,0.013,0.684,0.013S20.06,14.633,19.644,14.006z"/><path fill="#263238" d="M19.269,15.684c-0.113,0-0.228-0.021-0.326-0.07c-0.119-0.062-0.198-0.159-0.233-0.289 c-0.111-0.402,0.082-0.611,0.453-0.835c0.332-0.202,0.433-0.496,0.434-0.499l0.032-0.098l0.058,0.086 c0.416,0.627,0.7,1.572,0.703,1.581l0.028,0.094l-0.093-0.032c-0.003,0-0.359-0.121-0.649-0.013 C19.559,15.651,19.413,15.684,19.269,15.684z M19.652,14.111c-0.059,0.113-0.188,0.311-0.438,0.464 c-0.346,0.208-0.504,0.377-0.409,0.722c0.028,0.103,0.09,0.179,0.184,0.228c0.195,0.1,0.474,0.057,0.651-0.01 c0.231-0.088,0.49-0.046,0.626-0.014C20.189,15.267,19.961,14.608,19.652,14.111z"/></g><g><path fill="#ff1744" d="M31.058,15.476c0,0-0.349,0.123-0.786-0.047c-0.44-0.171-0.731-0.198-0.995,0.151 c-0.264,0.348,0.068,0.774,0.396,0.979c0.318,0.199,0.459,0.622,0.459,0.622S30.782,16.282,31.058,15.476z"/><path fill="#263238" d="M30.115,17.29l-0.031-0.093c-0.001-0.004-0.139-0.408-0.438-0.596 c-0.201-0.126-0.454-0.371-0.505-0.647c-0.027-0.147,0.005-0.283,0.096-0.404c0.282-0.372,0.6-0.342,1.054-0.167 c0.417,0.163,0.748,0.048,0.751,0.047l0.098-0.034l-0.034,0.098c-0.274,0.802-0.926,1.709-0.932,1.718L30.115,17.29z M29.769,15.356c-0.173,0-0.315,0.072-0.452,0.254c-0.073,0.097-0.1,0.207-0.077,0.325c0.045,0.245,0.275,0.467,0.459,0.582 c0.243,0.151,0.385,0.42,0.446,0.56c0.152-0.223,0.6-0.897,0.834-1.529c-0.138,0.028-0.407,0.052-0.726-0.071 C30.063,15.402,29.906,15.356,29.769,15.356z"/></g><g><path fill="#ff1744" d="M29.461,14.578c0,0-0.333,0.117-0.75-0.045c-0.42-0.163-0.698-0.189-0.949,0.144 c-0.252,0.332,0.065,0.739,0.377,0.935c0.304,0.19,0.438,0.594,0.438,0.594S29.197,15.347,29.461,14.578z"/><path fill="#263238" d="M28.561,16.313l-0.031-0.093c-0.001-0.004-0.133-0.389-0.417-0.567 c-0.192-0.12-0.435-0.354-0.483-0.619c-0.025-0.142,0.005-0.271,0.093-0.388c0.27-0.356,0.572-0.328,1.008-0.16 c0.395,0.154,0.712,0.046,0.715,0.045l0.097-0.034l-0.033,0.098c-0.263,0.767-0.884,1.631-0.89,1.64L28.561,16.313z M28.231,14.466c-0.165,0-0.3,0.069-0.43,0.241c-0.07,0.093-0.095,0.196-0.074,0.31c0.043,0.232,0.263,0.443,0.438,0.553 c0.229,0.144,0.365,0.396,0.424,0.531c0.148-0.215,0.569-0.853,0.793-1.451c-0.132,0.026-0.39,0.046-0.689-0.069 C28.512,14.51,28.362,14.466,28.231,14.466z"/></g><g><path fill="#ff1744" d="M27.692,13.679c0,0-0.296,0.14-0.696,0.03c-0.403-0.11-0.661-0.108-0.862,0.223 c-0.2,0.331,0.13,0.675,0.437,0.826c0.298,0.146,0.461,0.506,0.461,0.506S27.523,14.413,27.692,13.679z"/><path fill="#263238" d="M27.027,15.373l-0.041-0.089c-0.001-0.003-0.158-0.345-0.438-0.481 c-0.188-0.093-0.436-0.287-0.506-0.527c-0.037-0.129-0.021-0.253,0.049-0.369c0.215-0.354,0.496-0.359,0.918-0.244 c0.378,0.103,0.658-0.025,0.661-0.027l0.094-0.044l-0.023,0.101c-0.17,0.731-0.661,1.589-0.666,1.598L27.027,15.373z M26.61,13.694c-0.182,0-0.316,0.071-0.433,0.264c-0.056,0.091-0.068,0.188-0.039,0.289c0.062,0.21,0.283,0.382,0.455,0.466 c0.223,0.109,0.371,0.325,0.439,0.445c0.118-0.217,0.439-0.835,0.588-1.4c-0.121,0.037-0.354,0.077-0.638,0 C26.839,13.719,26.717,13.694,26.61,13.694z"/></g><g><path fill="#ff1744" d="M15.038,16.691c0,0,0.039,0.325-0.192,0.67c-0.232,0.347-0.312,0.593-0.062,0.888 c0.25,0.295,0.681,0.091,0.922-0.153c0.233-0.236,0.626-0.276,0.626-0.276S15.68,17.084,15.038,16.691z"/><path fill="#263238" d="M15.101,18.444c-0.007,0-0.014,0-0.021-0.001c-0.134-0.005-0.246-0.06-0.334-0.163 c-0.27-0.318-0.183-0.588,0.058-0.948c0.218-0.323,0.186-0.633,0.185-0.636l-0.012-0.103l0.088,0.054 c0.641,0.394,1.298,1.131,1.304,1.139l0.064,0.073l-0.097,0.01c-0.004,0-0.377,0.041-0.595,0.262 C15.597,18.277,15.345,18.444,15.101,18.444z M15.09,16.782c-0.005,0.128-0.038,0.361-0.202,0.606 c-0.225,0.334-0.297,0.555-0.065,0.827c0.068,0.081,0.156,0.124,0.262,0.128c0.006,0,0.011,0,0.017,0 c0.214,0,0.439-0.15,0.57-0.283c0.174-0.176,0.426-0.248,0.561-0.275C16.063,17.604,15.579,17.104,15.09,16.782z"/></g><g><path fill="#ff1744" d="M13.999,18.082c0,0,0.086,0.274-0.068,0.631c-0.154,0.36-0.187,0.594,0.083,0.79 s0.625-0.088,0.803-0.36c0.172-0.264,0.518-0.395,0.518-0.395S14.636,18.268,13.999,18.082z"/><path fill="#263238" d="M14.213,19.618c-0.083,0-0.159-0.025-0.228-0.075c-0.297-0.214-0.261-0.473-0.1-0.849 c0.144-0.335,0.066-0.595,0.065-0.598l-0.027-0.089l0.089,0.026c0.639,0.186,1.322,0.653,1.352,0.673l0.078,0.054l-0.089,0.034 c-0.003,0.001-0.333,0.13-0.494,0.376c-0.115,0.176-0.333,0.396-0.567,0.439C14.265,19.615,14.238,19.618,14.213,19.618z M14.064,18.154c0.016,0.113,0.021,0.326-0.087,0.579c-0.148,0.345-0.179,0.553,0.066,0.729c0.067,0.05,0.147,0.067,0.23,0.051 c0.203-0.038,0.396-0.237,0.501-0.396c0.127-0.194,0.339-0.318,0.457-0.377C15.046,18.619,14.544,18.311,14.064,18.154z"/></g><g><path fill="#ff1744" d="M13.297,19.447c0,0,0.081,0.259-0.064,0.598c-0.146,0.341-0.177,0.563,0.079,0.748 c0.256,0.185,0.592-0.084,0.76-0.341c0.163-0.25,0.491-0.374,0.491-0.374S13.901,19.623,13.297,19.447z"/><path fill="#263238" d="M13.498,20.904c-0.078,0-0.15-0.023-0.216-0.07c-0.282-0.205-0.248-0.452-0.095-0.809 c0.135-0.316,0.062-0.561,0.062-0.563l-0.027-0.089l0.089,0.026c0.604,0.176,1.253,0.619,1.28,0.638l0.078,0.054l-0.089,0.034 c-0.003,0.001-0.314,0.121-0.466,0.354c-0.109,0.167-0.315,0.376-0.539,0.417C13.549,20.901,13.523,20.904,13.498,20.904z M13.362,19.52c0.015,0.108,0.019,0.309-0.083,0.545c-0.14,0.325-0.169,0.521,0.062,0.688c0.063,0.046,0.138,0.059,0.216,0.046 c0.181-0.033,0.368-0.212,0.474-0.374c0.119-0.182,0.316-0.299,0.429-0.355C14.28,19.954,13.811,19.667,13.362,19.52z"/></g><g><path fill="#ff1744" d="M33.123,18.555c0,0-0.236,0.001-0.481-0.206c-0.246-0.208-0.423-0.291-0.642-0.125 s-0.082,0.514,0.089,0.719c0.166,0.2,0.186,0.504,0.186,0.504S32.823,19.012,33.123,18.555z"/><path fill="#263238" d="M32.231,19.545l-0.006-0.096c0-0.003-0.021-0.29-0.174-0.475c-0.112-0.135-0.234-0.361-0.212-0.56 c0.012-0.097,0.056-0.175,0.131-0.231c0.246-0.184,0.443-0.093,0.704,0.127c0.226,0.191,0.446,0.194,0.448,0.194h0.092 l-0.05,0.077c-0.301,0.459-0.836,0.886-0.858,0.903L32.231,19.545z M32.229,18.186c-0.067,0-0.13,0.026-0.197,0.078 c-0.053,0.039-0.084,0.095-0.092,0.163c-0.018,0.156,0.082,0.355,0.188,0.483c0.118,0.143,0.166,0.329,0.186,0.439 c0.146-0.123,0.489-0.43,0.722-0.755c-0.097-0.018-0.259-0.067-0.425-0.208C32.448,18.25,32.333,18.186,32.229,18.186z"/></g><g><path fill="#ff1744" d="M34.06,19.779c0,0-0.255-0.043-0.48-0.312c-0.227-0.271-0.402-0.393-0.669-0.255 s-0.184,0.539-0.038,0.793c0.142,0.246,0.107,0.578,0.107,0.578S33.651,20.216,34.06,19.779z"/><path fill="#263238" d="M32.92,20.673l0.01-0.095c0-0.004,0.031-0.319-0.1-0.548c-0.096-0.165-0.186-0.432-0.124-0.64 c0.029-0.102,0.091-0.177,0.182-0.224c0.297-0.15,0.493-0.017,0.73,0.268c0.209,0.251,0.448,0.295,0.451,0.296l0.091,0.016 l-0.063,0.067c-0.409,0.438-1.065,0.798-1.093,0.813L32.92,20.673z M33.117,19.204c-0.059,0-0.118,0.019-0.185,0.053 c-0.064,0.033-0.109,0.088-0.131,0.162c-0.049,0.166,0.022,0.401,0.114,0.561c0.103,0.178,0.118,0.394,0.117,0.515 c0.177-0.103,0.617-0.375,0.934-0.689c-0.1-0.036-0.27-0.119-0.425-0.306C33.371,19.295,33.248,19.204,33.117,19.204z"/></g><g><path fill="#ff1744" d="M34.9,21.055c0,0-0.268-0.073-0.481-0.385c-0.213-0.314-0.388-0.463-0.689-0.345 c-0.301,0.119-0.255,0.557-0.125,0.844c0.125,0.279,0.052,0.63,0.052,0.63S34.416,21.479,34.9,21.055z"/><path fill="#263238" d="M33.589,21.882l0.02-0.093c0.001-0.004,0.068-0.339-0.049-0.6c-0.083-0.187-0.15-0.48-0.062-0.695 c0.042-0.104,0.114-0.176,0.215-0.216c0.332-0.128,0.526,0.035,0.749,0.363c0.198,0.291,0.45,0.364,0.453,0.365l0.089,0.024 l-0.069,0.062c-0.485,0.424-1.226,0.739-1.257,0.752L33.589,21.882z M33.921,20.335c-0.053,0-0.109,0.012-0.172,0.037 c-0.074,0.029-0.128,0.083-0.16,0.16c-0.07,0.174-0.02,0.435,0.062,0.616c0.091,0.204,0.083,0.44,0.068,0.567 c0.197-0.09,0.708-0.337,1.084-0.646c-0.101-0.047-0.276-0.153-0.425-0.372C34.222,20.467,34.095,20.335,33.921,20.335z"/></g><g><path fill="#ff1744" d="M35.578,22.529c0,0-0.285-0.095-0.495-0.445c-0.211-0.352-0.39-0.523-0.722-0.414 c-0.332,0.11-0.309,0.586-0.187,0.903c0.118,0.308,0.018,0.683,0.018,0.683S35.029,22.957,35.578,22.529z"/><path fill="#263238" d="M34.119,23.335l0.025-0.092c0.001-0.004,0.095-0.362-0.017-0.652 c-0.079-0.205-0.133-0.523-0.026-0.749c0.052-0.108,0.134-0.182,0.244-0.219c0.362-0.115,0.561,0.069,0.78,0.437 c0.197,0.327,0.466,0.422,0.468,0.422l0.088,0.03l-0.073,0.057c-0.549,0.428-1.364,0.723-1.399,0.734L34.119,23.335z M34.544,21.688c-0.051,0-0.105,0.01-0.167,0.03c-0.083,0.027-0.146,0.083-0.185,0.166c-0.094,0.196-0.043,0.484,0.029,0.671 c0.088,0.229,0.062,0.486,0.038,0.621c0.215-0.083,0.791-0.322,1.221-0.637c-0.104-0.055-0.291-0.18-0.44-0.43 C34.879,21.841,34.745,21.688,34.544,21.688z"/></g><g><path fill="#ff1744" d="M11.79,22.091c0,0,0.181,0.183,0.206,0.531c0.025,0.35,0.096,0.551,0.392,0.595 c0.296,0.045,0.462-0.328,0.492-0.618c0.029-0.281,0.25-0.528,0.25-0.528S12.374,21.976,11.79,22.091z"/><path fill="#263238" d="M12.437,23.271c-0.019,0-0.037-0.001-0.057-0.004c-0.329-0.05-0.408-0.273-0.434-0.641 c-0.023-0.324-0.19-0.498-0.192-0.5l-0.064-0.066l0.091-0.018c0.585-0.116,1.325-0.023,1.355-0.021l0.095,0.012l-0.063,0.071 c-0.002,0.003-0.211,0.239-0.238,0.5c-0.02,0.188-0.102,0.455-0.272,0.588C12.589,23.244,12.516,23.271,12.437,23.271z M11.881,22.125c0.06,0.087,0.147,0.252,0.165,0.493c0.026,0.38,0.111,0.514,0.35,0.549c0.067,0.009,0.139-0.007,0.199-0.054 c0.137-0.105,0.216-0.337,0.234-0.519c0.021-0.203,0.134-0.386,0.205-0.483C12.832,22.092,12.318,22.056,11.881,22.125z"/></g><g><path fill="#ff1744" d="M11.963,26.637c0,0,0.218,0.137,0.32,0.471c0.103,0.335,0.217,0.515,0.516,0.492 c0.298-0.023,0.376-0.424,0.34-0.713c-0.035-0.28,0.125-0.571,0.125-0.571S12.507,26.393,11.963,26.637z"/><path fill="#263238" d="M12.747,27.651c-0.29,0-0.409-0.195-0.512-0.528c-0.096-0.311-0.297-0.442-0.3-0.444l-0.077-0.05 l0.084-0.038c0.545-0.243,1.285-0.322,1.316-0.325l0.095-0.01l-0.046,0.084c-0.002,0.002-0.152,0.28-0.118,0.54 c0.023,0.188,0.002,0.468-0.134,0.635c-0.066,0.081-0.151,0.127-0.253,0.135C12.783,27.651,12.765,27.651,12.747,27.651z M12.06,26.65c0.077,0.07,0.2,0.212,0.271,0.443c0.112,0.364,0.227,0.475,0.464,0.456c0.073-0.006,0.135-0.039,0.184-0.099 c0.108-0.133,0.134-0.376,0.111-0.559c-0.025-0.202,0.043-0.405,0.09-0.517C12.978,26.403,12.47,26.483,12.06,26.65z"/></g><g><path fill="#ffcdd2" d="M34.961,23.14c0,0-1.778,0.485-0.7,1.454c-1.131,0.943,0.566,1.401,0.566,1.401 s0.215,0.997,0.97,1.104c0.404,1.266,1.374,0.727,1.374,0.727s0.162,0.754,0.835,0.673c0.673,0.404,1.589-0.512,0.135-0.512 c-0.162-0.889-1.266-0.889-1.266-0.889s0.431-1.266-0.512-1.643c0.215-0.7-0.377-0.916-0.377-0.916S36.2,23.113,34.961,23.14z"/><path fill="#263238" d="M38.381,28.654c-0.127,0-0.261-0.031-0.387-0.103c-0.03,0.003-0.06,0.004-0.089,0.004 c-0.514,0-0.713-0.485-0.768-0.658c-0.123,0.054-0.431,0.16-0.749,0.034c-0.281-0.111-0.494-0.376-0.631-0.787 c-0.69-0.122-0.93-0.939-0.973-1.109c-0.154-0.046-0.854-0.277-0.952-0.722c-0.05-0.229,0.068-0.471,0.353-0.721 c-0.258-0.246-0.361-0.486-0.308-0.715c0.124-0.522,1.031-0.776,1.07-0.786l0.012-0.002c0.012,0,0.023-0.001,0.034-0.001 c0.333,0,0.592,0.104,0.772,0.31c0.328,0.372,0.29,0.957,0.273,1.112c0.129,0.063,0.544,0.317,0.383,0.917 c0.802,0.356,0.589,1.363,0.517,1.625c0.242,0.018,1.076,0.133,1.241,0.886c0.561,0.007,0.729,0.148,0.772,0.268 c0.035,0.099-0.007,0.206-0.116,0.296C38.726,28.594,38.56,28.654,38.381,28.654z M38.016,28.448l0.015,0.009 c0.264,0.158,0.58,0.101,0.743-0.033c0.035-0.028,0.114-0.104,0.085-0.184c-0.017-0.048-0.118-0.202-0.719-0.202h-0.042 l-0.007-0.041c-0.152-0.837-1.174-0.848-1.217-0.848h-0.069l0.022-0.065c0.017-0.051,0.403-1.227-0.483-1.581l-0.043-0.018 l0.014-0.044c0.198-0.647-0.324-0.846-0.346-0.854l-0.039-0.014l0.006-0.041c0.001-0.007,0.098-0.681-0.244-1.069 c-0.16-0.183-0.395-0.274-0.697-0.274c-0.009,0-0.017,0-0.025,0c-0.077,0.022-0.888,0.267-0.993,0.712 c-0.048,0.202,0.06,0.423,0.318,0.656l0.043,0.038l-0.044,0.037c-0.284,0.237-0.406,0.459-0.362,0.659 c0.094,0.43,0.901,0.652,0.909,0.655l0.029,0.008l0.007,0.029c0.002,0.01,0.217,0.964,0.927,1.065l0.031,0.005l0.01,0.029 c0.127,0.397,0.322,0.651,0.581,0.755c0.357,0.14,0.717-0.055,0.721-0.057l0.059-0.032l0.015,0.065 c0.006,0.027,0.146,0.641,0.688,0.641c0.029,0,0.061-0.002,0.093-0.006L38.016,28.448z"/></g><g><path fill="#00c853" d="M16.43,16.541c0,0,0.727,1.185,0.754,1.885c0.027,0.7-1.32,3.232-0.162,4.417 c-0.269-1.104,0.189-2.236,0.512-3.017s0.296-1.481,0.296-1.481s1.212,1.724,0.512,2.936c1.589-1.805-0.135-3.986-0.135-3.986 l-0.7-1.616L16.43,16.541z"/><path fill="#263238" d="M17.114,23.01l-0.128-0.131c-0.851-0.872-0.38-2.457-0.068-3.506 c0.12-0.405,0.224-0.755,0.217-0.944c-0.026-0.68-0.74-1.85-0.748-1.861l-0.022-0.038l1.163-0.931l0.724,1.671 c0.095,0.124,1.688,2.273,0.129,4.045l-0.08-0.059c0.563-0.975-0.158-2.314-0.421-2.743c-0.012,0.256-0.065,0.771-0.299,1.334 c-0.31,0.749-0.778,1.882-0.509,2.985L17.114,23.01z M16.495,16.553c0.127,0.212,0.714,1.229,0.739,1.872 c0.008,0.206-0.093,0.546-0.221,0.977c-0.288,0.97-0.715,2.406-0.08,3.262c-0.184-1.071,0.257-2.137,0.555-2.855 c0.314-0.761,0.293-1.453,0.293-1.46l-0.007-0.169l0.098,0.139c0.045,0.064,1.008,1.453,0.669,2.625 c1.121-1.687-0.356-3.597-0.372-3.616l-0.007-0.012l-0.674-1.556L16.495,16.553z"/></g><g><path fill="#00c853" d="M24.08,14.386c0,0-0.296,2.02-0.943,2.801s-0.35,2.64-0.35,2.64s0.135-1.401,0.781-2.155 s1.024-1.859,1.024-1.859s-0.108,1.401-0.323,1.912c-0.215,0.512,0.162,1.805,0.162,1.805s0.054-1.293,0.323-1.778 c0.269-0.485,0.646-2.074,0.135-3.232S24.08,14.386,24.08,14.386z"/><path fill="#263238" d="M22.8,20.221l-0.062-0.386c-0.012-0.077-0.293-1.89,0.361-2.68c0.63-0.761,0.929-2.757,0.932-2.776 l0.002-0.007c0.013-0.045,0.133-0.437,0.374-0.453c0.005,0,0.011-0.001,0.016-0.001c0.171,0,0.339,0.191,0.512,0.582 c0.531,1.204,0.123,2.811-0.137,3.277c-0.261,0.469-0.316,1.742-0.317,1.755l-0.013,0.305l-0.085-0.293 c-0.016-0.053-0.38-1.315-0.159-1.838c0.143-0.341,0.239-1.095,0.286-1.543c-0.164,0.39-0.477,1.044-0.902,1.541 c-0.629,0.734-0.769,2.114-0.77,2.128L22.8,20.221z M24.129,14.396c-0.019,0.123-0.312,2.049-0.954,2.823 c-0.448,0.542-0.429,1.638-0.381,2.218c0.087-0.474,0.292-1.279,0.736-1.798c0.632-0.738,1.011-1.831,1.015-1.843l0.127-0.372 l-0.03,0.393c-0.005,0.058-0.111,1.414-0.327,1.928c-0.144,0.341-0.01,1.059,0.086,1.468c0.033-0.418,0.117-1.141,0.309-1.484 c0.245-0.439,0.644-2.033,0.133-3.188c-0.198-0.45-0.347-0.522-0.421-0.522c-0.003,0-0.006,0-0.008,0 C24.269,14.028,24.16,14.292,24.129,14.396z"/></g><g><path fill="#00c853" d="M30.14,16.379c0,0-0.377,4.337,0.135,5.764c0.35-1.401,0.189-4.741,0.189-4.741 s1.024,3.205,0.593,4.902c1.374-1.481,0.081-5.037,0.081-5.037L30.14,16.379z"/><path fill="#263238" d="M30.959,22.482l0.048-0.19c0.335-1.318-0.227-3.59-0.479-4.491c0.029,0.934,0.07,3.253-0.205,4.354 l-0.04,0.16l-0.056-0.155c-0.51-1.422-0.153-5.608-0.138-5.785l0.009-0.1l1.081,0.964l0.004,0.013 c0.054,0.146,1.288,3.6-0.091,5.087L30.959,22.482z M30.395,17.023l0.116,0.363c0.04,0.127,0.948,3.004,0.637,4.729 c1.091-1.478,0.022-4.601-0.054-4.818l-0.912-0.813c-0.05,0.629-0.297,4.051,0.085,5.466c0.291-1.466,0.147-4.513,0.146-4.545 L30.395,17.023z"/></g><g><path fill="#00c853" d="M12.067,23.786c0,0-2.774,2.209-1.374,5.899c-0.108-1.67,0.539-3.367,0.539-3.367 s-0.377,1.966,0.566,3.286c-0.296-2.963,0-3.959,0.323-4.525s0.377-0.997,0.377-0.997L12.067,23.786z"/><path fill="#263238" d="M10.765,30.015l-0.118-0.312c-1.398-3.682,1.36-5.934,1.389-5.956l0.029-0.023l0.03,0.021 l0.457,0.313l-0.004,0.03c-0.003,0.019-0.06,0.447-0.385,1.015c-0.322,0.564-0.611,1.539-0.316,4.496l0.019,0.187l-0.109-0.152 c-0.653-0.916-0.679-2.149-0.631-2.827c-0.183,0.619-0.454,1.759-0.382,2.876L10.765,30.015z M11.185,26.301l0.096,0.027 c-0.003,0.019-0.332,1.8,0.447,3.081c-0.265-2.829,0.026-3.79,0.35-4.354c0.266-0.467,0.348-0.843,0.366-0.948l-0.374-0.258 c-0.277,0.24-2.484,2.277-1.438,5.511C10.618,27.809,11.179,26.316,11.185,26.301z"/></g><g><path fill="#00c853" d="M35.419,23.409c0,0,1.589,0.108,2.505,1.131c0.916,1.024,0.081,2.478,0.081,2.478 s0.296-1.481-0.943-2.263c0.404,1.104-0.108,4.39-0.108,4.39s-0.054-3.582-0.943-4.525C35.123,23.679,35.419,23.409,35.419,23.409 z"/><path fill="#263238" d="M37.004,29.154l-0.1-0.007c-0.001-0.036-0.063-3.573-0.929-4.492 c-0.553-0.586-0.66-0.926-0.653-1.107c0.004-0.119,0.057-0.17,0.063-0.176l0.016-0.015l0.021,0.002 c0.017,0.001,1.621,0.12,2.539,1.148c0.93,1.038,0.096,2.521,0.087,2.535l-0.151,0.266l0.06-0.3 c0.003-0.014,0.256-1.36-0.803-2.132C37.476,26.087,37.023,29.024,37.004,29.154z M35.443,23.462 c-0.036,0.068-0.111,0.366,0.604,1.125c0.683,0.725,0.879,2.926,0.935,3.983c0.125-0.987,0.327-2.994,0.033-3.797l-0.051-0.138 l0.124,0.078c0.917,0.578,1.011,1.54,0.993,2.021c0.187-0.457,0.459-1.43-0.195-2.161C37.062,23.65,35.657,23.482,35.443,23.462z"/></g><g><path fill="#bdbdbd" d="M20.551,18.103c-0.377,0.35-1.185,0.108-1.212,0.943c-0.027,0.835-0.027,1.912,1.131,2.667 c1.158,0.754,0.97,1.428,3.259,1.535c2.289,0.108,3.286-1.589,3.286-1.832s0.593-1.993,0.404-2.72 c-0.189-0.727-0.054-0.242-1.077-0.593c-1.024-0.35-1.535-0.108-2.586-0.296c-1.05-0.189-1.643,0.404-2.128,0.215 C21.144,17.834,20.551,18.103,20.551,18.103z"/><path fill="#263238" d="M23.938,23.303c-0.068,0-0.14-0.001-0.211-0.005c-1.642-0.077-2.032-0.451-2.527-0.923 c-0.198-0.189-0.424-0.404-0.757-0.621c-1.215-0.791-1.179-1.945-1.154-2.71c0.019-0.575,0.401-0.677,0.739-0.766 c0.188-0.05,0.364-0.096,0.488-0.212l0.014-0.009c0.025-0.011,0.614-0.276,1.117-0.082c0.2,0.08,0.429,0.009,0.716-0.078 c0.361-0.109,0.81-0.248,1.402-0.14c0.437,0.078,0.777,0.081,1.107,0.084c0.454,0.005,0.884,0.009,1.485,0.215 c0.402,0.137,0.621,0.144,0.753,0.147c0.234,0.006,0.243,0.04,0.352,0.458l0.006,0.021c0.137,0.53-0.12,1.547-0.29,2.221 c-0.061,0.241-0.113,0.449-0.113,0.513c0,0.136-0.221,0.543-0.619,0.923C25.978,22.786,25.169,23.303,23.938,23.303z M20.578,18.146c-0.143,0.128-0.336,0.179-0.524,0.229c-0.348,0.092-0.648,0.171-0.665,0.673 c-0.023,0.741-0.059,1.862,1.109,2.622c0.341,0.223,0.569,0.44,0.771,0.633c0.499,0.476,0.859,0.819,2.463,0.896 c0.07,0.003,0.14,0.005,0.207,0.005c1.198,0,1.983-0.502,2.438-0.937c0.414-0.395,0.589-0.769,0.589-0.851 c0-0.076,0.046-0.26,0.116-0.537c0.157-0.623,0.42-1.666,0.289-2.171l-0.005-0.021c-0.099-0.378-0.099-0.378-0.258-0.383 c-0.137-0.004-0.366-0.011-0.783-0.153c-0.586-0.2-1.007-0.204-1.453-0.208c-0.334-0.004-0.679-0.007-1.124-0.087 c-0.572-0.103-1.006,0.031-1.356,0.138c-0.294,0.091-0.547,0.166-0.781,0.076C21.184,17.904,20.646,18.117,20.578,18.146z"/></g><g><path fill="#fafafa" d="M26.719,18.426c-0.486-0.213-2.586-0.269-3.259-0.377c-0.673-0.108-1.077,0-1.374,0.377 c-0.296,0.377-0.215,0.215,0.269,0.97c0.485,0.754-0.323,1.643,0.916,1.158c1.239-0.485,0.997-0.835,1.589-0.377 c0.593,0.458,1.131,0.458,1.212-0.323S27.581,18.803,26.719,18.426z"/></g><g><path fill="#fafafa" d="M20.578,18.48c-0.593,0.242-0.646-0.162-0.889,0.458c-0.242,0.62-0.593,1.32,0.027,1.778 c0.62,0.458,1.104,1.374,1.751,1.481c0.646,0.108,0.377-0.512-0.404-1.454c-0.781-0.943-0.862-0.943-0.862-1.401 S20.578,18.48,20.578,18.48z"/></g><g><path fill="#bdbdbd" d="M22.868,23.005c0,0-1.266,0-1.374,0.189c-0.108,0.189-0.189,2.047-0.269,3.151 s-0.889,6.599-0.862,7.461c0.027,0.862-0.323,3.017-0.323,3.017l1.993,0.458l0.054,0.35l1.993,0.108l0.943,0.108l1.158-0.512 l1.481-0.081l0.027-2.155c0,0-0.997-2.074-0.566-3.906c-0.916-3.286-1.239-4.714-1.239-4.714l0.189-3.34l-1.616-0.296 L22.868,23.005z"/><path fill="#263238" d="M25.03,37.897l-0.014-0.001l-0.942-0.108l-2.03-0.109l-0.056-0.356l-2.006-0.461l0.007-0.046 c0.004-0.021,0.35-2.16,0.323-3.007c-0.016-0.521,0.266-2.686,0.514-4.597c0.163-1.249,0.316-2.429,0.349-2.871 c0.021-0.293,0.043-0.64,0.064-0.994c0.076-1.226,0.132-2.039,0.212-2.178c0.112-0.198,1.106-0.214,1.413-0.214l1.595-0.162 l0.007,0.002l1.66,0.304l-0.003,0.044l-0.188,3.333c0.025,0.11,0.363,1.571,1.235,4.704l0.004,0.013l-0.003,0.013 c-0.422,1.793,0.552,3.852,0.562,3.872l0.005,0.022l-0.026,2.202l-0.047,0.002l-1.473,0.081L25.03,37.897z M22.13,37.583 l1.953,0.105l0.932,0.107l1.163-0.511l1.435-0.079l0.026-2.097c-0.077-0.165-0.974-2.158-0.567-3.915 c-0.902-3.241-1.232-4.689-1.235-4.704l-0.002-0.007l0.001-0.007l0.186-3.296l-1.565-0.286l-1.588,0.16 c-0.595,0-1.272,0.062-1.33,0.163c-0.073,0.129-0.143,1.241-0.197,2.135c-0.022,0.354-0.044,0.702-0.065,0.996 c-0.032,0.445-0.179,1.572-0.349,2.877c-0.248,1.906-0.529,4.067-0.514,4.579c0.025,0.786-0.266,2.661-0.316,2.98l1.98,0.455 l0.006,0.033L22.13,37.583z"/></g><g><path fill="#263238" d="M27.312,19.046c0,0-0.566,0.458-0.781,0.566c-0.215,0.108,1.05-0.027,0.485,0.566 c-0.566,0.593-1.212,1.32-1.212,1.32l0.593,0.296l-0.7,0.215l-0.566,0.566l-0.916-0.081l-0.054,0.754c0,0,1.239-0.081,1.993-0.7 c0.754-0.62,0.997-1.104,0.997-1.104S27.635,19.935,27.312,19.046z"/><path fill="#263238" d="M24.106,23.302l0.062-0.863l0.051,0.005l0.893,0.079l0.569-0.562l0.582-0.179l-0.54-0.27 l0.044-0.049c0.006-0.007,0.653-0.735,1.213-1.321c0.104-0.109,0.148-0.198,0.128-0.257c-0.039-0.11-0.309-0.146-0.454-0.166 c-0.133-0.017-0.188-0.024-0.197-0.077c-0.005-0.031,0.013-0.057,0.052-0.076c0.209-0.104,0.767-0.555,0.772-0.56l0.055-0.044 l0.023,0.065c0.325,0.895-0.141,2.368-0.16,2.431c-0.014,0.027-0.259,0.508-1.013,1.128c-0.758,0.622-1.971,0.708-2.022,0.711 L24.106,23.302z M24.26,22.548l-0.046,0.646c0.251-0.025,1.267-0.157,1.908-0.685c0.735-0.604,0.981-1.083,0.983-1.088 c0.002-0.008,0.449-1.421,0.182-2.291c-0.132,0.104-0.463,0.364-0.662,0.485c0.014,0.002,0.028,0.004,0.041,0.006 c0.189,0.025,0.477,0.062,0.536,0.231c0.034,0.1-0.015,0.217-0.15,0.358c-0.475,0.498-1.013,1.098-1.167,1.271l0.646,0.322 l-0.809,0.249l-0.573,0.573L24.26,22.548z"/></g><g><path fill="#263238" d="M26.989,31.463l-0.054,0.808l-0.808-0.781l0.539,0.943l-0.081,0.377h-0.323v1.535l-0.404-0.458 v0.835l0.485,0.323v0.35l0.431-0.673l0.296,0.512l-0.162,0.269l0.054,0.808l-0.593-0.027l-0.189,0.458l-0.242-0.431l0.054,0.754 l-0.997,0.431l-0.081-0.404l-0.377,0.323l-0.404-0.97l-0.323,1.266l1.212,0.135l1.158-0.512l1.481-0.081l0.027-2.155 c0,0-0.593-1.67-0.566-2.263c0.027-0.593,0-1.643,0-1.643L26.989,31.463z"/><path fill="#263238" d="M25.03,37.897l-0.014-0.001l-1.269-0.142l0.014-0.056l0.36-1.41l0.435,1.043l0.391-0.334 l0.085,0.428l0.907-0.393l-0.066-0.94l0.301,0.535l0.162-0.396l0.572,0.026l-0.051-0.769l0.154-0.257l-0.24-0.416l-0.479,0.749 v-0.495l-0.484-0.323v-0.993l0.404,0.458V32.76h0.333l0.067-0.319l-0.702-1.229l0.981,0.949l0.052-0.72l0.225-0.448l0.005,0.2 c0,0.01,0.027,1.059,0,1.646c-0.025,0.575,0.557,2.227,0.562,2.243l0.003,0.018l-0.026,2.202l-0.047,0.002l-1.473,0.081 L25.03,37.897z M23.873,37.669l1.142,0.127l1.163-0.511l1.435-0.079l0.026-2.1c-0.051-0.143-0.592-1.692-0.565-2.271 c0.02-0.429,0.011-1.104,0.004-1.438l-0.04,0.08l-0.06,0.904l-0.078-0.074l-0.556-0.537l0.374,0.655l-0.093,0.435h-0.313v1.617 l-0.404-0.458v0.677l0.484,0.323v0.206l0.384-0.599l0.352,0.607l-0.168,0.282l0.057,0.849l-0.613-0.028l-0.215,0.521l-0.184-0.326 l0.041,0.567l-0.033,0.014l-1.054,0.455l-0.075-0.381l-0.365,0.312l-0.372-0.895L23.873,37.669z"/></g><g><polygon fill="#fafafa" points="23.245,29.227 23.352,30.439 22.625,31.14 22.679,33.779 22.41,34.911 22.517,36.203 22.167,36.715 21.952,35.099 21.817,35.826 21.844,36.257 21.225,36.715 21.198,35.557 21.494,34.857 21.332,33.645 21.629,33.187 21.575,31.624 21.117,32.002 21.036,30.008"/></g><g><polygon fill="#fafafa" points="20.955,33.187 20.39,33.914 20.039,36.823 20.847,36.958 20.578,35.826 20.847,35.692 21.09,34.964 20.847,34.48"/></g><g><polygon fill="#eceff1" points="23.88,19.809 25.466,24.491 30.409,24.553 26.446,27.508 27.915,32.229 23.88,29.373 19.844,32.229 21.314,27.508 17.35,24.553 22.294,24.491"/><path fill="#263238" d="M28.007,32.354l-0.121-0.085l-4.006-2.835l-4.127,2.92l1.502-4.827l-4.053-3.022l5.056-0.063 l1.622-4.789l0.047,0.141l1.575,4.648l5.056,0.063l-0.118,0.088l-3.935,2.935L28.007,32.354z M23.88,29.312l0.029,0.021 l3.914,2.771l-1.436-4.612l0.028-0.021l3.845-2.868l-4.831-0.06l-0.011-0.034l-1.539-4.542l-1.55,4.576h-0.035l-4.796,0.06 l3.873,2.89l-0.011,0.033l-1.425,4.579L23.88,29.312z"/></g><g><path fill="#ffcdd2" d="M16.295,15.625c0,0-0.269-0.889,0.485-0.997c-0.269-1.024,0.62-1.508,0.62-1.508 s-0.485-0.215-0.35-0.916c-0.646-0.646-0.727-1.05-0.539-1.266c0.189-0.215,0.7,0.673,0.7,0.673s1.562,0.404,1.024,1.481 c1.158,0.754,0.485,1.481,0.485,1.481s0.835,1.481-0.673,1.751C17.292,16.864,16.269,16.783,16.295,15.625z"/><path fill="#263238" d="M17.141,16.696c-0.16,0-0.312-0.033-0.44-0.102c-0.214-0.113-0.466-0.373-0.454-0.963 c-0.019-0.065-0.126-0.483,0.062-0.779c0.088-0.138,0.226-0.227,0.41-0.264c-0.193-0.843,0.381-1.325,0.587-1.468 c-0.136-0.097-0.403-0.36-0.31-0.9c-0.733-0.74-0.69-1.124-0.523-1.315c0.033-0.037,0.08-0.056,0.125-0.05 c0.229,0.022,0.572,0.588,0.646,0.713c0.134,0.038,0.853,0.263,1.083,0.77c0.103,0.226,0.093,0.473-0.029,0.737 c0.399,0.269,0.621,0.564,0.66,0.88c0.039,0.313-0.117,0.547-0.179,0.625c0.075,0.146,0.363,0.76,0.135,1.245 c-0.134,0.284-0.419,0.469-0.849,0.547C17.766,16.585,17.436,16.696,17.141,16.696z M16.582,10.955 c-0.014,0-0.023,0.005-0.033,0.017c-0.199,0.228-0.009,0.652,0.536,1.197l0.019,0.019l-0.005,0.026 c-0.125,0.65,0.303,0.853,0.321,0.86l0.091,0.042l-0.087,0.048c-0.035,0.019-0.852,0.479-0.595,1.452l0.014,0.055l-0.056,0.008 c-0.182,0.025-0.314,0.103-0.395,0.228c-0.176,0.276-0.05,0.7-0.049,0.704l0.002,0.016c-0.01,0.432,0.129,0.735,0.401,0.88 c0.336,0.181,0.834,0.091,1.27-0.222l0.021-0.008c0.401-0.072,0.666-0.238,0.786-0.494c0.234-0.496-0.144-1.177-0.147-1.184 l-0.018-0.031l0.024-0.027c0.003-0.002,0.218-0.241,0.176-0.574c-0.037-0.294-0.256-0.573-0.651-0.831L18.17,13.11l0.02-0.04 c0.126-0.251,0.142-0.483,0.047-0.691c-0.229-0.504-1.03-0.717-1.038-0.719l-0.021-0.006l-0.01-0.018 c-0.147-0.256-0.436-0.668-0.58-0.682C16.586,10.955,16.584,10.955,16.582,10.955z"/></g><g><path fill="#ff1744" d="M16.25,15.4c0,0,0.007,0.327-0.256,0.648c-0.265,0.323-0.368,0.56-0.147,0.878 c0.22,0.317,0.669,0.156,0.932-0.063c0.255-0.213,0.649-0.215,0.649-0.215S16.851,15.853,16.25,15.4z"/><path fill="#263238" d="M16.197,17.154c-0.025,0-0.05-0.002-0.074-0.005c-0.133-0.019-0.24-0.084-0.317-0.195 c-0.237-0.343-0.125-0.604,0.149-0.938c0.248-0.303,0.245-0.613,0.245-0.616l-0.002-0.103l0.082,0.062 c0.6,0.453,1.183,1.251,1.188,1.259l0.058,0.079h-0.098c-0.004,0-0.38,0.005-0.617,0.203 C16.665,17.022,16.426,17.154,16.197,17.154z M16.293,15.496c-0.017,0.126-0.073,0.355-0.26,0.583 c-0.256,0.312-0.349,0.524-0.146,0.818c0.061,0.087,0.145,0.139,0.249,0.152c0.212,0.03,0.464-0.104,0.61-0.226 c0.19-0.159,0.448-0.206,0.586-0.221C17.183,16.407,16.749,15.862,16.293,15.496z"/></g><g><path fill="#ffcdd2" d="M28.282,9.376c0,0-0.377,0.269-0.377,1.185c-0.512,0.027-1.104,0.727-1.212,1.374 c-0.646-0.054-1.401,0.027-1.589,0.754c-0.997-0.189-1.481,0.377-1.374,1.32c0.108,0.943,0.97,0.7,0.97,0.7 s0.62,0.727,1.347-0.404c1.535-0.189,1.266-1.697,1.266-1.697s1.239-0.727,1.05-1.643C29.09,10.642,28.901,9.188,28.282,9.376z"/><path fill="#263238" d="M25.196,14.989c-0.266,0-0.452-0.163-0.514-0.225c-0.096,0.021-0.407,0.071-0.665-0.102 c-0.189-0.128-0.304-0.346-0.338-0.648c-0.058-0.509,0.051-0.906,0.314-1.151c0.247-0.229,0.619-0.305,1.073-0.231 c0.152-0.505,0.598-0.76,1.328-0.76c0.082,0,0.167,0.003,0.256,0.009c0.129-0.651,0.704-1.302,1.203-1.365 c0.013-0.895,0.382-1.169,0.397-1.181l0.015-0.007c0.23-0.071,0.438,0.059,0.545,0.348c0.146,0.392,0.086,1.075-0.393,1.318 c0.142,0.853-0.862,1.521-1.053,1.64c0.02,0.146,0.069,0.719-0.267,1.173c-0.222,0.302-0.566,0.485-1.024,0.546 c-0.264,0.402-0.545,0.616-0.836,0.636C25.225,14.989,25.21,14.989,25.196,14.989z M24.717,14.652l0.021,0.024 c0.002,0.002,0.186,0.213,0.46,0.213c0.012,0,0.023-0.001,0.036-0.002c0.263-0.018,0.521-0.223,0.771-0.609l0.013-0.02 l0.023-0.003c0.44-0.054,0.771-0.225,0.979-0.508c0.354-0.48,0.244-1.124,0.243-1.131l-0.007-0.034l0.03-0.018 c0.012-0.007,1.206-0.721,1.027-1.59l-0.008-0.039l0.036-0.017c0.439-0.195,0.516-0.836,0.376-1.209 c-0.041-0.11-0.161-0.355-0.413-0.29c-0.046,0.04-0.351,0.329-0.351,1.141v0.048l-0.047,0.002 c-0.472,0.024-1.06,0.696-1.165,1.331l-0.008,0.046l-0.046-0.004c-0.885-0.072-1.392,0.161-1.536,0.718l-0.012,0.045l-0.047-0.009 c-0.446-0.086-0.802-0.016-1.031,0.198c-0.239,0.223-0.338,0.591-0.283,1.066c0.031,0.272,0.13,0.466,0.294,0.576 c0.261,0.179,0.609,0.083,0.612,0.082L24.717,14.652z"/></g><g><path fill="#ff1744" d="M11.718,23.617c0,0,0.181,0.183,0.206,0.531c0.025,0.35,0.096,0.551,0.392,0.595 c0.296,0.045,0.462-0.328,0.492-0.618c0.029-0.281,0.25-0.528,0.25-0.528S12.302,23.502,11.718,23.617z"/><path fill="#263238" d="M12.364,24.797c-0.019,0-0.037-0.001-0.057-0.004c-0.327-0.05-0.407-0.272-0.434-0.641 c-0.023-0.324-0.19-0.498-0.192-0.5l-0.064-0.066l0.091-0.018c0.585-0.116,1.324-0.024,1.355-0.021l0.095,0.012l-0.063,0.071 c-0.002,0.003-0.211,0.24-0.237,0.501c-0.02,0.189-0.104,0.456-0.273,0.588C12.517,24.771,12.442,24.797,12.364,24.797z M11.809,23.651c0.06,0.087,0.147,0.252,0.165,0.493c0.027,0.38,0.112,0.514,0.35,0.549c0.069,0.009,0.139-0.007,0.199-0.054 c0.136-0.105,0.216-0.336,0.235-0.519c0.021-0.203,0.134-0.387,0.204-0.484C12.76,23.617,12.245,23.581,11.809,23.651z"/></g><g><path fill="#ff1744" d="M11.742,25.124c0,0,0.203,0.158,0.272,0.501c0.07,0.344,0.165,0.534,0.464,0.54 c0.299,0.006,0.417-0.384,0.409-0.675c-0.007-0.283,0.181-0.556,0.181-0.556S12.307,24.935,11.742,25.124z"/><path fill="#263238" d="M12.485,26.215c-0.003,0-0.005,0-0.008,0c-0.332-0.008-0.439-0.219-0.512-0.581 c-0.064-0.317-0.253-0.469-0.255-0.471l-0.072-0.057l0.088-0.03c0.566-0.188,1.311-0.192,1.342-0.192h0.095l-0.054,0.078 c-0.002,0.003-0.178,0.264-0.172,0.526c0.005,0.188-0.043,0.464-0.195,0.617C12.67,26.178,12.584,26.215,12.485,26.215z M11.837,25.146c0.07,0.078,0.179,0.231,0.227,0.468c0.075,0.374,0.177,0.495,0.416,0.501c0.002,0,0.004,0,0.006,0 c0.07,0,0.133-0.027,0.186-0.08c0.122-0.123,0.172-0.362,0.167-0.545c-0.005-0.203,0.083-0.399,0.141-0.505 C12.775,24.992,12.262,25.021,11.837,25.146z"/></g><g><path fill="#ffcdd2" d="M33.426,15.733c0,0,0.458-1.374,0.916-1.239c0.458,0.135,0.108,0.97-0.162,1.293 c0.323,0.593-0.835,1.077-0.835,1.077s0.081,1.266-0.916,1.131c-0.808,1.024-1.454-0.027-1.454-0.027s-1.239,0-1.024-1.293 s1.481-0.458,1.481-0.458s0.323-0.7,0.835-0.35C32.887,15.14,33.426,15.733,33.426,15.733z"/><path fill="#263238" d="M31.704,18.493c-0.013,0-0.025,0-0.038-0.001c-0.388-0.022-0.654-0.378-0.719-0.475 c-0.116-0.005-0.566-0.047-0.847-0.378c-0.2-0.236-0.267-0.562-0.199-0.972c0.062-0.367,0.213-0.605,0.448-0.709 c0.398-0.172,0.906,0.096,1.063,0.188c0.059-0.105,0.215-0.346,0.451-0.41c0.132-0.038,0.263-0.014,0.395,0.065 c0.203-0.227,0.42-0.343,0.646-0.347c0.003,0,0.007,0,0.011,0c0.228,0,0.402,0.116,0.488,0.188 c0.104-0.29,0.464-1.209,0.874-1.209c0.026,0,0.053,0.004,0.078,0.012c0.119,0.035,0.2,0.115,0.236,0.233 c0.096,0.315-0.142,0.845-0.352,1.113c0.056,0.12,0.062,0.243,0.019,0.368c-0.136,0.388-0.717,0.67-0.861,0.735 c0.003,0.144-0.006,0.681-0.319,0.973c-0.158,0.148-0.365,0.211-0.627,0.179C32.212,18.344,31.961,18.493,31.704,18.493z M30.641,16.003c-0.087,0-0.172,0.014-0.251,0.048c-0.203,0.089-0.334,0.302-0.39,0.633c-0.062,0.379-0.003,0.679,0.177,0.891 c0.287,0.34,0.793,0.345,0.798,0.345h0.028l0.015,0.023c0.002,0.004,0.269,0.428,0.654,0.45c0.011,0,0.021,0.001,0.032,0.001 c0.23,0,0.461-0.145,0.687-0.43l0.018-0.022l0.028,0.004c0.242,0.035,0.433-0.019,0.573-0.149 c0.321-0.299,0.286-0.922,0.286-0.929l-0.002-0.035l0.032-0.014c0.007-0.003,0.701-0.298,0.839-0.69 c0.038-0.108,0.028-0.213-0.028-0.316l-0.017-0.03l0.022-0.026c0.2-0.241,0.438-0.769,0.354-1.046 c-0.026-0.087-0.082-0.142-0.168-0.167c-0.018-0.005-0.034-0.007-0.052-0.007c-0.325,0-0.687,0.862-0.803,1.213l-0.027,0.081 l-0.058-0.062c-0.002-0.003-0.196-0.211-0.475-0.211c-0.003,0-0.006,0-0.01,0c-0.205,0.003-0.407,0.119-0.599,0.344l-0.029,0.034 l-0.037-0.025c-0.12-0.08-0.236-0.104-0.349-0.076c-0.255,0.07-0.411,0.403-0.413,0.406l-0.023,0.053l-0.049-0.031 C31.4,16.257,31.01,16.003,30.641,16.003z"/></g></svg>